<svg xmlns="http://www.w3.org/2000/svg" xmlns:xlink="http://www.w3.org/1999/xlink" version="1.1" x="0" y="0" height="50" width="800" viewBox="0 0 800 50" preserveAspectRatio="none"  >
<g label="Query sequence" class="clusterblast-cluster"  >
<text x="5" y="20" class="clusterblast-acc"  >
Query sequence</text>
<line x1="10" y1="35" x2="778.0" y2="35" style="stroke-width:1; stroke:grey; "  />
<polygon points="0,35 2,30 2,40 0,35 " style="fill:white; stroke-width:1; stroke:black; " description="&lt;b&gt;ctg72_1&lt;/b&gt;&lt;br&gt;ctg72 1&lt;br&gt;Location: 0 - 123" locus_tag="ctg72_1" class="clusterblast-orf" id="knownclusterblast-1_q0_0_all"  />
<polygon points="1,35 6,30 17,30 17,40 6,40 1,35 " style="fill:white; stroke-width:1; stroke:black; " description="&lt;b&gt;ctg72_2&lt;/b&gt;&lt;br&gt;ctg72 2&lt;br&gt;Location: 76 - 898" locus_tag="ctg72_2" class="clusterblast-orf" id="knownclusterblast-1_q1_0_all"  />
<polygon points="20,35 25,30 26,30 26,40 25,40 20,35 " style="fill:white; stroke-width:1; stroke:black; " description="&lt;b&gt;ctg72_3&lt;/b&gt;&lt;br&gt;ctg72 3&lt;br&gt;Location: 1063 - 1345" locus_tag="ctg72_3" class="clusterblast-orf" id="knownclusterblast-1_q2_0_all"  />
<polygon points="28,35 33,30 52,30 52,40 33,40 28,35 " style="fill:white; stroke-width:1; stroke:black; " description="&lt;b&gt;ctg72_4&lt;/b&gt;&lt;br&gt;ctg72 4&lt;br&gt;Location: 1436 - 2669" locus_tag="ctg72_4" class="clusterblast-orf" id="knownclusterblast-1_q3_0_all"  />
<polygon points="56,40 64,40 69,35 64,30 56,30 56,40 " style="fill:white; stroke-width:1; stroke:black; " description="&lt;b&gt;ctg72_5&lt;/b&gt;&lt;br&gt;ctg72 5&lt;br&gt;Location: 2876 - 3572" locus_tag="ctg72_5" class="clusterblast-orf" id="knownclusterblast-1_q4_0_all"  />
<polygon points="72,35 77,30 84,30 84,40 77,40 72,35 " style="fill:white; stroke-width:1; stroke:black; " description="&lt;b&gt;ctg72_6&lt;/b&gt;&lt;br&gt;ctg72 6&lt;br&gt;Location: 3677 - 4316" locus_tag="ctg72_6" class="clusterblast-orf" id="knownclusterblast-1_q5_0_all"  />
<polygon points="84,35 89,30 102,30 102,40 89,40 84,35 " style="fill:white; stroke-width:1; stroke:black; " description="&lt;b&gt;ctg72_7&lt;/b&gt;&lt;br&gt;ctg72 7&lt;br&gt;Location: 4318 - 5248" locus_tag="ctg72_7" class="clusterblast-orf" id="knownclusterblast-1_q6_0_all"  />
<polygon points="102,40 104,35 102,30 102,40 " style="fill:white; stroke-width:1; stroke:black; " description="&lt;b&gt;ctg72_8&lt;/b&gt;&lt;br&gt;ctg72 8&lt;br&gt;Location: 5253 - 5364" locus_tag="ctg72_8" class="clusterblast-orf" id="knownclusterblast-1_q7_0_all"  />
<polygon points="115,35 120,30 135,30 135,40 120,40 115,35 " style="fill:white; stroke-width:1; stroke:black; " description="&lt;b&gt;ctg72_9&lt;/b&gt;&lt;br&gt;ctg72 9&lt;br&gt;Location: 5877 - 6912" locus_tag="ctg72_9" class="clusterblast-orf" id="knownclusterblast-1_q8_0_all"  />
<polygon points="134,35 139,30 165,30 165,40 139,40 134,35 " style="fill:white; stroke-width:1; stroke:black; " description="&lt;b&gt;ctg72_10&lt;/b&gt;&lt;br&gt;ctg72 10&lt;br&gt;Location: 6887 - 8456" locus_tag="ctg72_10" class="clusterblast-orf" id="knownclusterblast-1_q9_0_all"  />
<polygon points="165,35 170,30 170,30 170,40 170,40 165,35 " style="fill:white; stroke-width:1; stroke:black; " description="&lt;b&gt;ctg72_11&lt;/b&gt;&lt;br&gt;ctg72 11&lt;br&gt;Location: 8452 - 8713" locus_tag="ctg72_11" class="clusterblast-orf" id="knownclusterblast-1_q10_0_all"  />
<polygon points="170,40 177,40 182,35 177,30 170,30 170,40 " style="fill:white; stroke-width:1; stroke:black; " description="&lt;b&gt;ctg72_12&lt;/b&gt;&lt;br&gt;ctg72 12&lt;br&gt;Location: 8734 - 9355" locus_tag="ctg72_12" class="clusterblast-orf" id="knownclusterblast-1_q11_0_all"  />
<polygon points="182,35 187,30 242,30 242,40 187,40 182,35 " style="fill:white; stroke-width:1; stroke:black; " description="&lt;b&gt;ctg72_13&lt;/b&gt;&lt;br&gt;ctg72 13&lt;br&gt;Location: 9334 - 12400" locus_tag="ctg72_13" class="clusterblast-orf" id="knownclusterblast-1_q12_0_all"  />
<polygon points="246,35 251,30 381,30 381,40 251,40 246,35 " style="fill:white; stroke-width:1; stroke:black; " description="&lt;b&gt;ctg72_14&lt;/b&gt;&lt;br&gt;ctg72 14&lt;br&gt;Location: 12591 - 19494" locus_tag="ctg72_14" class="clusterblast-orf" id="knownclusterblast-1_q13_0_all"  />
<polygon points="381,40 385,35 381,30 381,40 " style="fill:white; stroke-width:1; stroke:black; " description="&lt;b&gt;ctg72_15&lt;/b&gt;&lt;br&gt;ctg72 15&lt;br&gt;Location: 19515 - 19737" locus_tag="ctg72_15" class="clusterblast-orf" id="knownclusterblast-1_q14_0_all"  />
<polygon points="385,35 390,30 529,30 529,40 390,40 385,35 " style="fill:white; stroke-width:1; stroke:black; " description="&lt;b&gt;ctg72_16&lt;/b&gt;&lt;br&gt;ctg72 16&lt;br&gt;Location: 19723 - 27079" locus_tag="ctg72_16" class="clusterblast-orf" id="knownclusterblast-1_q15_0_all"  />
<polygon points="530,35 535,30 563,30 563,40 535,40 530,35 " style="fill:white; stroke-width:1; stroke:black; " description="&lt;b&gt;ctg72_17&lt;/b&gt;&lt;br&gt;ctg72 17&lt;br&gt;Location: 27150 - 28806" locus_tag="ctg72_17" class="clusterblast-orf" id="knownclusterblast-1_q16_0_all"  />
<polygon points="574,40 578,35 574,30 574,40 " style="fill:white; stroke-width:1; stroke:black; " description="&lt;b&gt;ctg72_18&lt;/b&gt;&lt;br&gt;ctg72 18&lt;br&gt;Location: 29394 - 29619" locus_tag="ctg72_18" class="clusterblast-orf" id="knownclusterblast-1_q17_0_all"  />
<polygon points="580,40 583,40 588,35 583,30 580,30 580,40 " style="fill:white; stroke-width:1; stroke:black; " description="&lt;b&gt;ctg72_19&lt;/b&gt;&lt;br&gt;ctg72 19&lt;br&gt;Location: 29723 - 30119" locus_tag="ctg72_19" class="clusterblast-orf" id="knownclusterblast-1_q18_0_all"  />
<polygon points="590,40 599,40 604,35 599,30 590,30 590,40 " style="fill:white; stroke-width:1; stroke:black; " description="&lt;b&gt;ctg72_20&lt;/b&gt;&lt;br&gt;ctg72 20&lt;br&gt;Location: 30203 - 30911" locus_tag="ctg72_20" class="clusterblast-orf" id="knownclusterblast-1_q19_0_all"  />
<polygon points="607,40 620,40 625,35 620,30 607,30 607,40 " style="fill:white; stroke-width:1; stroke:black; " description="&lt;b&gt;ctg72_21&lt;/b&gt;&lt;br&gt;ctg72 21&lt;br&gt;Location: 31089 - 31983" locus_tag="ctg72_21" class="clusterblast-orf" id="knownclusterblast-1_q20_0_all"  />
<polygon points="624,35 629,30 632,30 632,40 629,40 624,35 " style="fill:white; stroke-width:1; stroke:black; " description="&lt;b&gt;ctg72_22&lt;/b&gt;&lt;br&gt;ctg72 22&lt;br&gt;Location: 31975 - 32371" locus_tag="ctg72_22" class="clusterblast-orf" id="knownclusterblast-1_q21_0_all"  />
<polygon points="645,35 650,30 651,30 651,40 650,40 645,35 " style="fill:white; stroke-width:1; stroke:black; " description="&lt;b&gt;ctg72_23&lt;/b&gt;&lt;br&gt;ctg72 23&lt;br&gt;Location: 33045 - 33324" locus_tag="ctg72_23" class="clusterblast-orf" id="knownclusterblast-1_q22_0_all"  />
<polygon points="654,35 659,30 668,30 668,40 659,40 654,35 " style="fill:white; stroke-width:1; stroke:black; " description="&lt;b&gt;ctg72_24&lt;/b&gt;&lt;br&gt;ctg72 24&lt;br&gt;Location: 33466 - 34189" locus_tag="ctg72_24" class="clusterblast-orf" id="knownclusterblast-1_q23_0_all"  />
<polygon points="672,40 676,40 681,35 676,30 672,30 672,40 " style="fill:white; stroke-width:1; stroke:black; " description="&lt;b&gt;ctg72_25&lt;/b&gt;&lt;br&gt;ctg72 25&lt;br&gt;Location: 34396 - 34861" locus_tag="ctg72_25" class="clusterblast-orf" id="knownclusterblast-1_q24_0_all"  />
<polygon points="681,40 685,40 690,35 685,30 681,30 681,40 " style="fill:white; stroke-width:1; stroke:black; " description="&lt;b&gt;ctg72_26&lt;/b&gt;&lt;br&gt;ctg72 26&lt;br&gt;Location: 34894 - 35332" locus_tag="ctg72_26" class="clusterblast-orf" id="knownclusterblast-1_q25_0_all"  />
<polygon points="697,40 700,40 705,35 700,30 697,30 697,40 " style="fill:white; stroke-width:1; stroke:black; " description="&lt;b&gt;ctg72_27&lt;/b&gt;&lt;br&gt;ctg72 27&lt;br&gt;Location: 35668 - 36121" locus_tag="ctg72_27" class="clusterblast-orf" id="knownclusterblast-1_q26_0_all"  />
<polygon points="706,35 711,30 718,30 718,40 711,40 706,35 " style="fill:white; stroke-width:1; stroke:black; " description="&lt;b&gt;ctg72_28&lt;/b&gt;&lt;br&gt;ctg72 28&lt;br&gt;Location: 36172 - 36766" locus_tag="ctg72_28" class="clusterblast-orf" id="knownclusterblast-1_q27_0_all"  />
<polygon points="730,40 734,40 739,35 734,30 730,30 730,40 " style="fill:white; stroke-width:1; stroke:black; " description="&lt;b&gt;ctg72_29&lt;/b&gt;&lt;br&gt;ctg72 29&lt;br&gt;Location: 37395 - 37848" locus_tag="ctg72_29" class="clusterblast-orf" id="knownclusterblast-1_q28_0_all"  />
<polygon points="742,40 771,40 776,35 771,30 742,30 742,40 " style="fill:white; stroke-width:1; stroke:black; " description="&lt;b&gt;ctg72_30&lt;/b&gt;&lt;br&gt;ctg72 30&lt;br&gt;Location: 37976 - 39719" locus_tag="ctg72_30" class="clusterblast-orf" id="knownclusterblast-1_q29_0_all"  />
<polygon points="776,35 780,30 780,40 776,35 " style="fill:white; stroke-width:1; stroke:black; " description="&lt;b&gt;ctg72_31&lt;/b&gt;&lt;br&gt;ctg72 31&lt;br&gt;Location: 39736 - 39922" locus_tag="ctg72_31" class="clusterblast-orf" id="knownclusterblast-1_q30_0_all"  />
</g>
</svg>
