<svg xmlns="http://www.w3.org/2000/svg" xmlns:xlink="http://www.w3.org/1999/xlink" version="1.1" x="0" y="0" height="50" width="800" viewBox="0 0 800 50" preserveAspectRatio="none"  >
<g label="Query sequence" class="clusterblast-cluster"  >
<text x="5" y="20" class="clusterblast-acc"  >
Query sequence</text>
<line x1="10" y1="35" x2="778.0" y2="35" style="stroke-width:1; stroke:grey; "  />
<polygon points="0,40 21,40 26,35 21,30 0,30 0,40 " style="fill:white; stroke-width:1; stroke:black; " description="&lt;b&gt;ctg15_77&lt;/b&gt;&lt;br&gt;ctg15 77&lt;br&gt;Location: 77487 - 78561" locus_tag="ctg15_77" class="clusterblast-orf" id="knownclusterblast-1_q0_0_all"  />
<polygon points="28,40 39,40 44,35 39,30 28,30 28,40 " style="fill:white; stroke-width:1; stroke:black; " description="&lt;b&gt;ctg15_78&lt;/b&gt;&lt;br&gt;ctg15 78&lt;br&gt;Location: 78651 - 79296" locus_tag="ctg15_78" class="clusterblast-orf" id="knownclusterblast-1_q1_0_all"  />
<polygon points="45,35 50,30 55,30 55,40 50,40 45,35 " style="fill:white; stroke-width:1; stroke:black; " description="&lt;b&gt;ctg15_79&lt;/b&gt;&lt;br&gt;ctg15 79&lt;br&gt;Location: 79363 - 79777" locus_tag="ctg15_79" class="clusterblast-orf" id="knownclusterblast-1_q2_0_all"  />
<polygon points="58,35 63,30 133,30 133,40 63,40 58,35 " style="fill:white; stroke-width:1; stroke:black; " description="&lt;b&gt;ctg15_80&lt;/b&gt;&lt;br&gt;ctg15 80&lt;br&gt;Location: 79874 - 82991" locus_tag="ctg15_80" class="clusterblast-orf" id="knownclusterblast-1_q3_0_all"  />
<polygon points="133,35 138,30 139,30 139,40 138,40 133,35 " style="fill:white; stroke-width:1; stroke:black; " description="&lt;b&gt;ctg15_81&lt;/b&gt;&lt;br&gt;ctg15 81&lt;br&gt;Location: 82991 - 83231" locus_tag="ctg15_81" class="clusterblast-orf" id="knownclusterblast-1_q4_0_all"  />
<polygon points="139,35 144,30 147,30 147,40 144,40 139,35 " style="fill:white; stroke-width:1; stroke:black; " description="&lt;b&gt;ctg15_82&lt;/b&gt;&lt;br&gt;ctg15 82&lt;br&gt;Location: 83242 - 83560" locus_tag="ctg15_82" class="clusterblast-orf" id="knownclusterblast-1_q5_0_all"  />
<polygon points="149,35 154,30 188,30 188,40 154,40 149,35 " style="fill:white; stroke-width:1; stroke:black; " description="&lt;b&gt;ctg15_83&lt;/b&gt;&lt;br&gt;ctg15 83&lt;br&gt;Location: 83636 - 85247" locus_tag="ctg15_83" class="clusterblast-orf" id="knownclusterblast-1_q6_0_all"  />
<polygon points="188,35 193,30 234,30 234,40 193,40 188,35 " style="fill:white; stroke-width:1; stroke:black; " description="&lt;b&gt;ctg15_84&lt;/b&gt;&lt;br&gt;ctg15 84&lt;br&gt;Location: 85256 - 87158" locus_tag="ctg15_84" class="clusterblast-orf" id="knownclusterblast-1_q7_0_all"  />
<polygon points="234,35 239,30 248,30 248,40 239,40 234,35 " style="fill:white; stroke-width:1; stroke:black; " description="&lt;b&gt;ctg15_85&lt;/b&gt;&lt;br&gt;ctg15 85&lt;br&gt;Location: 87162 - 87729" locus_tag="ctg15_85" class="clusterblast-orf" id="knownclusterblast-1_q8_0_all"  />
<polygon points="256,35 261,30 290,30 290,40 261,40 256,35 " style="fill:white; stroke-width:1; stroke:black; " description="&lt;b&gt;ctg15_86&lt;/b&gt;&lt;br&gt;ctg15 86&lt;br&gt;Location: 88036 - 89464" locus_tag="ctg15_86" class="clusterblast-orf" id="knownclusterblast-1_q9_0_all"  />
<polygon points="290,40 293,40 298,35 293,30 290,30 290,40 " style="fill:white; stroke-width:1; stroke:black; " description="&lt;b&gt;ctg15_87&lt;/b&gt;&lt;br&gt;ctg15 87&lt;br&gt;Location: 89477 - 89786" locus_tag="ctg15_87" class="clusterblast-orf" id="knownclusterblast-1_q10_0_all"  />
<polygon points="302,40 314,40 319,35 314,30 302,30 302,40 " style="fill:white; stroke-width:1; stroke:black; " description="&lt;b&gt;ctg15_88&lt;/b&gt;&lt;br&gt;ctg15 88&lt;br&gt;Location: 89962 - 90667" locus_tag="ctg15_88" class="clusterblast-orf" id="knownclusterblast-1_q11_0_all"  />
<polygon points="320,35 325,30 345,30 345,40 325,40 320,35 " style="fill:white; stroke-width:1; stroke:black; " description="&lt;b&gt;ctg15_89&lt;/b&gt;&lt;br&gt;ctg15 89&lt;br&gt;Location: 90703 - 91729" locus_tag="ctg15_89" class="clusterblast-orf" id="knownclusterblast-1_q12_0_all"  />
<polygon points="346,35 351,30 374,30 374,40 351,40 346,35 " style="fill:white; stroke-width:1; stroke:black; " description="&lt;b&gt;ctg15_90&lt;/b&gt;&lt;br&gt;ctg15 90&lt;br&gt;Location: 91747 - 92926" locus_tag="ctg15_90" class="clusterblast-orf" id="knownclusterblast-1_q13_0_all"  />
<polygon points="374,35 379,30 399,30 399,40 379,40 374,35 " style="fill:white; stroke-width:1; stroke:black; " description="&lt;b&gt;ctg15_91&lt;/b&gt;&lt;br&gt;ctg15 91&lt;br&gt;Location: 92919 - 93960" locus_tag="ctg15_91" class="clusterblast-orf" id="knownclusterblast-1_q14_0_all"  />
<polygon points="399,35 404,30 422,30 422,40 404,40 399,35 " style="fill:white; stroke-width:1; stroke:black; " description="&lt;b&gt;ctg15_92&lt;/b&gt;&lt;br&gt;ctg15 92&lt;br&gt;Location: 93956 - 94904" locus_tag="ctg15_92" class="clusterblast-orf" id="knownclusterblast-1_q15_0_all"  />
<polygon points="422,35 427,30 442,30 442,40 427,40 422,35 " style="fill:white; stroke-width:1; stroke:black; " description="&lt;b&gt;ctg15_93&lt;/b&gt;&lt;br&gt;ctg15 93&lt;br&gt;Location: 94900 - 95725" locus_tag="ctg15_93" class="clusterblast-orf" id="knownclusterblast-1_q16_0_all"  />
<polygon points="442,35 447,30 470,30 470,40 447,40 442,35 " style="fill:white; stroke-width:1; stroke:black; " description="&lt;b&gt;ctg15_94&lt;/b&gt;&lt;br&gt;ctg15 94&lt;br&gt;Location: 95733 - 96870" locus_tag="ctg15_94" class="clusterblast-orf" id="knownclusterblast-1_q17_0_all"  />
<polygon points="470,35 475,30 545,30 545,40 475,40 470,35 " style="fill:white; stroke-width:1; stroke:black; " description="&lt;b&gt;ctg15_95&lt;/b&gt;&lt;br&gt;ctg15 95&lt;br&gt;Location: 96866 - 99986" locus_tag="ctg15_95" class="clusterblast-orf" id="knownclusterblast-1_q18_0_all"  />
<polygon points="549,40 555,40 560,35 555,30 549,30 549,40 " style="fill:white; stroke-width:1; stroke:black; " description="&lt;b&gt;ctg15_96&lt;/b&gt;&lt;br&gt;ctg15 96&lt;br&gt;Location: 100125 - 100590" locus_tag="ctg15_96" class="clusterblast-orf" id="knownclusterblast-1_q19_0_all"  />
<polygon points="563,40 573,40 578,35 573,30 563,30 563,40 " style="fill:white; stroke-width:1; stroke:black; " description="&lt;b&gt;ctg15_97&lt;/b&gt;&lt;br&gt;ctg15 97&lt;br&gt;Location: 100718 - 101351" locus_tag="ctg15_97" class="clusterblast-orf" id="knownclusterblast-1_q20_0_all"  />
<polygon points="578,40 589,40 594,35 589,30 578,30 578,40 " style="fill:white; stroke-width:1; stroke:black; " description="&lt;b&gt;ctg15_98&lt;/b&gt;&lt;br&gt;ctg15 98&lt;br&gt;Location: 101352 - 102000" locus_tag="ctg15_98" class="clusterblast-orf" id="knownclusterblast-1_q21_0_all"  />
<polygon points="600,40 616,40 621,35 616,30 600,30 600,40 " style="fill:white; stroke-width:1; stroke:black; " description="&lt;b&gt;ctg15_99&lt;/b&gt;&lt;br&gt;ctg15 99&lt;br&gt;Location: 102231 - 103125" locus_tag="ctg15_99" class="clusterblast-orf" id="knownclusterblast-1_q22_0_all"  />
<polygon points="624,40 674,40 679,35 674,30 624,30 624,40 " style="fill:white; stroke-width:1; stroke:black; " description="&lt;b&gt;ctg15_100&lt;/b&gt;&lt;br&gt;ctg15 100&lt;br&gt;Location: 103228 - 105502" locus_tag="ctg15_100" class="clusterblast-orf" id="knownclusterblast-1_q23_0_all"  />
<polygon points="679,40 700,40 705,35 700,30 679,30 679,40 " style="fill:white; stroke-width:1; stroke:black; " description="&lt;b&gt;ctg15_101&lt;/b&gt;&lt;br&gt;ctg15 101&lt;br&gt;Location: 105502 - 106570" locus_tag="ctg15_101" class="clusterblast-orf" id="knownclusterblast-1_q24_0_all"  />
<polygon points="706,40 714,40 719,35 714,30 706,30 706,40 " style="fill:white; stroke-width:1; stroke:black; " description="&lt;b&gt;ctg15_102&lt;/b&gt;&lt;br&gt;ctg15 102&lt;br&gt;Location: 106594 - 107158" locus_tag="ctg15_102" class="clusterblast-orf" id="knownclusterblast-1_q25_0_all"  />
<polygon points="720,40 744,40 749,35 744,30 720,30 720,40 " style="fill:white; stroke-width:1; stroke:black; " description="&lt;b&gt;ctg15_103&lt;/b&gt;&lt;br&gt;ctg15 103&lt;br&gt;Location: 107181 - 108387" locus_tag="ctg15_103" class="clusterblast-orf" id="knownclusterblast-1_q26_0_all"  />
<polygon points="749,35 754,30 770,30 770,40 754,40 749,35 " style="fill:white; stroke-width:1; stroke:black; " description="&lt;b&gt;ctg15_104&lt;/b&gt;&lt;br&gt;ctg15 104&lt;br&gt;Location: 108397 - 109240" locus_tag="ctg15_104" class="clusterblast-orf" id="knownclusterblast-1_q27_0_all"  />
<polygon points="770,35 775,30 780,30 780,40 775,40 770,35 " style="fill:white; stroke-width:1; stroke:black; " description="&lt;b&gt;ctg15_105&lt;/b&gt;&lt;br&gt;ctg15 105&lt;br&gt;Location: 109239 - 109653" locus_tag="ctg15_105" class="clusterblast-orf" id="knownclusterblast-1_q28_0_all"  />
</g>
</svg>
