<svg xmlns="http://www.w3.org/2000/svg" xmlns:xlink="http://www.w3.org/1999/xlink" version="1.1" x="0" y="0" height="50" width="800" viewBox="0 0 800 50" preserveAspectRatio="none"  >
<g label="Query sequence" class="clusterblast-cluster"  >
<text x="5" y="20" class="clusterblast-acc"  >
Query sequence</text>
<line x1="10" y1="35" x2="778.0" y2="35" style="stroke-width:1; stroke:grey; "  />
<polygon points="0,35 5,30 76,30 76,40 5,40 0,35 " style="fill:white; stroke-width:1; stroke:black; " description="&lt;b&gt;ctg93_16&lt;/b&gt;&lt;br&gt;ctg93 16&lt;br&gt;Location: 17948 - 19121" locus_tag="ctg93_16" class="clusterblast-orf" id="knownclusterblast-1_q0_0_all"  />
<polygon points="76,40 201,40 206,35 201,30 76,30 76,40 " style="fill:white; stroke-width:1; stroke:black; " description="&lt;b&gt;ctg93_17&lt;/b&gt;&lt;br&gt;ctg93 17&lt;br&gt;Location: 19122 - 21126" locus_tag="ctg93_17" class="clusterblast-orf" id="knownclusterblast-1_q1_0_all"  />
<polygon points="220,35 225,30 262,30 262,40 225,40 220,35 " style="fill:white; stroke-width:1; stroke:black; " description="&lt;b&gt;ctg93_18&lt;/b&gt;&lt;br&gt;ctg93 18&lt;br&gt;Location: 21355 - 22003" locus_tag="ctg93_18" class="clusterblast-orf" id="knownclusterblast-1_q2_0_all"  />
<polygon points="280,40 285,40 290,35 285,30 280,30 280,40 " style="fill:white; stroke-width:1; stroke:black; " description="&lt;b&gt;ctg93_19&lt;/b&gt;&lt;br&gt;ctg93 19&lt;br&gt;Location: 22274 - 22436" locus_tag="ctg93_19" class="clusterblast-orf" id="knownclusterblast-1_q3_0_all"  />
<polygon points="291,40 370,40 375,35 370,30 291,30 291,40 " style="fill:white; stroke-width:1; stroke:black; " description="&lt;b&gt;ctg93_20&lt;/b&gt;&lt;br&gt;ctg93 20&lt;br&gt;Location: 22452 - 23739" locus_tag="ctg93_20" class="clusterblast-orf" id="knownclusterblast-1_q4_0_all"  />
<polygon points="374,40 415,40 420,35 415,30 374,30 374,40 " style="fill:white; stroke-width:1; stroke:black; " description="&lt;b&gt;ctg93_21&lt;/b&gt;&lt;br&gt;ctg93 21&lt;br&gt;Location: 23731 - 24433" locus_tag="ctg93_21" class="clusterblast-orf" id="knownclusterblast-1_q5_0_all"  />
<polygon points="417,35 422,30 481,30 481,40 422,40 417,35 " style="fill:white; stroke-width:1; stroke:black; " description="&lt;b&gt;ctg93_22&lt;/b&gt;&lt;br&gt;ctg93 22&lt;br&gt;Location: 24398 - 25379" locus_tag="ctg93_22" class="clusterblast-orf" id="knownclusterblast-1_q6_0_all"  />
<polygon points="480,35 485,30 542,30 542,40 485,40 480,35 " style="fill:white; stroke-width:1; stroke:black; " description="&lt;b&gt;ctg93_23&lt;/b&gt;&lt;br&gt;ctg93 23&lt;br&gt;Location: 25375 - 26329" locus_tag="ctg93_23" class="clusterblast-orf" id="knownclusterblast-1_q7_0_all"  />
<polygon points="549,35 554,30 593,30 593,40 554,40 549,35 " style="fill:white; stroke-width:1; stroke:black; " description="&lt;b&gt;ctg93_24&lt;/b&gt;&lt;br&gt;ctg93 24&lt;br&gt;Location: 26436 - 27108" locus_tag="ctg93_24" class="clusterblast-orf" id="knownclusterblast-1_q8_0_all"  />
<polygon points="618,40 674,40 679,35 674,30 618,30 618,40 " style="fill:white; stroke-width:1; stroke:black; " description="&lt;b&gt;ctg93_25&lt;/b&gt;&lt;br&gt;ctg93 25&lt;br&gt;Location: 27506 - 28442" locus_tag="ctg93_25" class="clusterblast-orf" id="knownclusterblast-1_q9_0_all"  />
<polygon points="678,35 683,30 723,30 723,40 683,40 678,35 " style="fill:white; stroke-width:1; stroke:black; " description="&lt;b&gt;ctg93_26&lt;/b&gt;&lt;br&gt;ctg93 26&lt;br&gt;Location: 28429 - 29119" locus_tag="ctg93_26" class="clusterblast-orf" id="knownclusterblast-1_q10_0_all"  />
<polygon points="745,35 750,30 765,30 765,40 750,40 745,35 " style="fill:white; stroke-width:1; stroke:black; " description="&lt;b&gt;ctg93_27&lt;/b&gt;&lt;br&gt;ctg93 27&lt;br&gt;Location: 29470 - 29779" locus_tag="ctg93_27" class="clusterblast-orf" id="knownclusterblast-1_q11_0_all"  />
<polygon points="773,35 778,30 780,30 780,40 778,40 773,35 " style="fill:white; stroke-width:1; stroke:black; " description="&lt;b&gt;ctg93_28&lt;/b&gt;&lt;br&gt;ctg93 28&lt;br&gt;Location: 29895 - 30009" locus_tag="ctg93_28" class="clusterblast-orf" id="knownclusterblast-1_q12_0_all"  />
</g>
</svg>
