<svg xmlns="http://www.w3.org/2000/svg" xmlns:xlink="http://www.w3.org/1999/xlink" version="1.1" x="0" y="0" height="100" width="800" viewBox="0 0 800 100" preserveAspectRatio="none"  >
<g label="Query sequence" class="clusterblast-cluster"  >
<text x="5" y="20" class="clusterblast-acc"  >
Query sequence</text>
<line x1="10" y1="35" x2="778.0" y2="35" style="stroke-width:1; stroke:grey; "  />
<polygon points="29,40 48,40 53,35 48,30 29,30 29,40 " style="fill:white; stroke-width:1; stroke:black; " description="&lt;b&gt;ctg5_114&lt;/b&gt;&lt;br&gt;ctg5 114&lt;br&gt;Location: 127658 - 128942" locus_tag="ctg5_114" class="clusterblast-orf" id="knownclusterblast-1_q0_0_all"  />
<polygon points="53,35 58,30 67,30 67,40 58,40 53,35 " style="fill:white; stroke-width:1; stroke:black; " description="&lt;b&gt;ctg5_115&lt;/b&gt;&lt;br&gt;ctg5 115&lt;br&gt;Location: 128948 - 129647" locus_tag="ctg5_115" class="clusterblast-orf" id="knownclusterblast-1_q1_0_all"  />
<polygon points="68,35 73,30 98,30 98,40 73,40 68,35 " style="fill:white; stroke-width:1; stroke:black; " description="&lt;b&gt;ctg5_116&lt;/b&gt;&lt;br&gt;ctg5 116&lt;br&gt;Location: 129702 - 131301" locus_tag="ctg5_116" class="clusterblast-orf" id="knownclusterblast-1_q2_0_all"  />
<polygon points="98,35 103,30 115,30 115,40 103,40 98,35 " style="fill:white; stroke-width:1; stroke:black; " description="&lt;b&gt;ctg5_117&lt;/b&gt;&lt;br&gt;ctg5 117&lt;br&gt;Location: 131300 - 132176" locus_tag="ctg5_117" class="clusterblast-orf" id="knownclusterblast-1_q3_0_all"  />
<polygon points="115,35 120,30 123,30 123,40 120,40 115,35 " style="fill:white; stroke-width:1; stroke:black; " description="&lt;b&gt;ctg5_118&lt;/b&gt;&lt;br&gt;ctg5 118&lt;br&gt;Location: 132172 - 132625" locus_tag="ctg5_118" class="clusterblast-orf" id="knownclusterblast-1_q4_0_all"  />
<polygon points="123,35 128,30 144,30 144,40 128,40 123,35 " style="fill:white; stroke-width:1; stroke:black; " description="&lt;b&gt;ctg5_119&lt;/b&gt;&lt;br&gt;ctg5 119&lt;br&gt;Location: 132621 - 133704" locus_tag="ctg5_119" class="clusterblast-orf" id="knownclusterblast-1_q5_0_all"  />
<polygon points="145,35 150,30 162,30 162,40 150,40 145,35 " style="fill:white; stroke-width:1; stroke:black; " description="&lt;b&gt;ctg5_120&lt;/b&gt;&lt;br&gt;ctg5 120&lt;br&gt;Location: 133760 - 134654" locus_tag="ctg5_120" class="clusterblast-orf" id="knownclusterblast-1_q6_0_all"  />
<polygon points="164,40 170,40 175,35 170,30 164,30 164,40 " style="fill:white; stroke-width:1; stroke:black; " description="&lt;b&gt;ctg5_121&lt;/b&gt;&lt;br&gt;ctg5 121&lt;br&gt;Location: 134746 - 135370" locus_tag="ctg5_121" class="clusterblast-orf" id="knownclusterblast-1_q7_0_all"  />
<polygon points="175,40 193,40 198,35 193,30 175,30 175,40 " style="fill:white; stroke-width:1; stroke:black; " description="&lt;b&gt;ctg5_122&lt;/b&gt;&lt;br&gt;ctg5 122&lt;br&gt;Location: 135360 - 136539" locus_tag="ctg5_122" class="clusterblast-orf" id="knownclusterblast-1_q8_0_all"  />
<polygon points="198,40 215,40 220,35 215,30 198,30 198,40 " style="fill:white; stroke-width:1; stroke:black; " description="&lt;b&gt;ctg5_123&lt;/b&gt;&lt;br&gt;ctg5 123&lt;br&gt;Location: 136546 - 137716" locus_tag="ctg5_123" class="clusterblast-orf" id="knownclusterblast-1_q9_0_all"  />
<polygon points="221,40 251,40 256,35 251,30 221,30 221,40 " style="fill:white; stroke-width:1; stroke:black; " description="&lt;b&gt;ctg5_124&lt;/b&gt;&lt;br&gt;ctg5 124&lt;br&gt;Location: 137772 - 139629" locus_tag="ctg5_124" class="clusterblast-orf" id="knownclusterblast-1_q10_0_all"  />
<polygon points="256,35 261,30 272,30 272,40 261,40 256,35 " style="fill:white; stroke-width:1; stroke:black; " description="&lt;b&gt;ctg5_125&lt;/b&gt;&lt;br&gt;ctg5 125&lt;br&gt;Location: 139625 - 140462" locus_tag="ctg5_125" class="clusterblast-orf" id="knownclusterblast-1_q11_0_all"  />
<polygon points="273,35 278,30 290,30 290,40 278,40 273,35 " style="fill:white; stroke-width:1; stroke:black; " description="&lt;b&gt;ctg5_126&lt;/b&gt;&lt;br&gt;ctg5 126&lt;br&gt;Location: 140505 - 141420" locus_tag="ctg5_126" class="clusterblast-orf" id="knownclusterblast-1_q12_0_all"  />
<polygon points="291,35 296,30 314,30 314,40 296,40 291,35 " style="fill:white; stroke-width:1; stroke:black; " description="&lt;b&gt;ctg5_127&lt;/b&gt;&lt;br&gt;ctg5 127&lt;br&gt;Location: 141472 - 142660" locus_tag="ctg5_127" class="clusterblast-orf" id="knownclusterblast-1_q13_0_all"  />
<polygon points="314,35 319,30 345,30 345,40 319,40 314,35 " style="fill:white; stroke-width:1; stroke:black; " description="&lt;b&gt;ctg5_128&lt;/b&gt;&lt;br&gt;ctg5 128&lt;br&gt;Location: 142665 - 144309" locus_tag="ctg5_128" class="clusterblast-orf" id="knownclusterblast-1_q14_0_all"  />
<polygon points="345,35 350,30 350,30 350,40 350,40 345,35 " style="fill:#d81515; stroke-width:1; stroke:black; " description="&lt;b&gt;ctg5_129&lt;/b&gt;&lt;br&gt;ctg5 129&lt;br&gt;Location: 144305 - 144575" locus_tag="ctg5_129" class="clusterblast-orf" id="knownclusterblast-1_q15_0_all"  />
<polygon points="350,35 355,30 360,30 360,40 355,40 350,35 " style="fill:white; stroke-width:1; stroke:black; " description="&lt;b&gt;ctg5_130&lt;/b&gt;&lt;br&gt;ctg5 130&lt;br&gt;Location: 144543 - 145080" locus_tag="ctg5_130" class="clusterblast-orf" id="knownclusterblast-1_q16_0_all"  />
<polygon points="360,35 365,30 380,30 380,40 365,40 360,35 " style="fill:#15d8d8; stroke-width:1; stroke:black; " description="&lt;b&gt;ctg5_131&lt;/b&gt;&lt;br&gt;ctg5 131&lt;br&gt;Location: 145083 - 146160" locus_tag="ctg5_131" class="clusterblast-orf" id="knownclusterblast-1_q17_0_all"  />
<polygon points="380,35 385,30 396,30 396,40 385,40 380,35 " style="fill:white; stroke-width:1; stroke:black; " description="&lt;b&gt;ctg5_132&lt;/b&gt;&lt;br&gt;ctg5 132&lt;br&gt;Location: 146160 - 147003" locus_tag="ctg5_132" class="clusterblast-orf" id="knownclusterblast-1_q18_0_all"  />
<polygon points="398,35 403,30 413,30 413,40 403,40 398,35 " style="fill:white; stroke-width:1; stroke:black; " description="&lt;b&gt;ctg5_133&lt;/b&gt;&lt;br&gt;ctg5 133&lt;br&gt;Location: 147070 - 147907" locus_tag="ctg5_133" class="clusterblast-orf" id="knownclusterblast-1_q19_0_all"  />
<polygon points="413,35 418,30 433,30 433,40 418,40 413,35 " style="fill:white; stroke-width:1; stroke:black; " description="&lt;b&gt;ctg5_134&lt;/b&gt;&lt;br&gt;ctg5 134&lt;br&gt;Location: 147903 - 148926" locus_tag="ctg5_134" class="clusterblast-orf" id="knownclusterblast-1_q20_0_all"  />
<polygon points="433,35 438,30 463,30 463,40 438,40 433,35 " style="fill:white; stroke-width:1; stroke:black; " description="&lt;b&gt;ctg5_135&lt;/b&gt;&lt;br&gt;ctg5 135&lt;br&gt;Location: 148922 - 150512" locus_tag="ctg5_135" class="clusterblast-orf" id="knownclusterblast-1_q21_0_all"  />
<polygon points="463,35 468,30 484,30 484,40 468,40 463,35 " style="fill:white; stroke-width:1; stroke:black; " description="&lt;b&gt;ctg5_136&lt;/b&gt;&lt;br&gt;ctg5 136&lt;br&gt;Location: 150520 - 151642" locus_tag="ctg5_136" class="clusterblast-orf" id="knownclusterblast-1_q22_0_all"  />
<polygon points="484,35 489,30 496,30 496,40 489,40 484,35 " style="fill:white; stroke-width:1; stroke:black; " description="&lt;b&gt;ctg5_137&lt;/b&gt;&lt;br&gt;ctg5 137&lt;br&gt;Location: 151651 - 152257" locus_tag="ctg5_137" class="clusterblast-orf" id="knownclusterblast-1_q23_0_all"  />
<polygon points="497,40 524,40 529,35 524,30 497,30 497,40 " style="fill:white; stroke-width:1; stroke:black; " description="&lt;b&gt;ctg5_138&lt;/b&gt;&lt;br&gt;ctg5 138&lt;br&gt;Location: 152333 - 154004" locus_tag="ctg5_138" class="clusterblast-orf" id="knownclusterblast-1_q24_0_all"  />
<polygon points="529,40 535,40 540,35 535,30 529,30 529,40 " style="fill:white; stroke-width:1; stroke:black; " description="&lt;b&gt;ctg5_139&lt;/b&gt;&lt;br&gt;ctg5 139&lt;br&gt;Location: 154000 - 154591" locus_tag="ctg5_139" class="clusterblast-orf" id="knownclusterblast-1_q25_0_all"  />
<polygon points="541,40 556,40 561,35 556,30 541,30 541,40 " style="fill:white; stroke-width:1; stroke:black; " description="&lt;b&gt;ctg5_140&lt;/b&gt;&lt;br&gt;ctg5 140&lt;br&gt;Location: 154631 - 155669" locus_tag="ctg5_140" class="clusterblast-orf" id="knownclusterblast-1_q26_0_all"  />
<polygon points="561,35 566,30 571,30 571,40 566,40 561,35 " style="fill:white; stroke-width:1; stroke:black; " description="&lt;b&gt;ctg5_141&lt;/b&gt;&lt;br&gt;ctg5 141&lt;br&gt;Location: 155673 - 156231" locus_tag="ctg5_141" class="clusterblast-orf" id="knownclusterblast-1_q27_0_all"  />
<polygon points="572,40 574,40 579,35 574,30 572,30 572,40 " style="fill:white; stroke-width:1; stroke:black; " description="&lt;b&gt;ctg5_142&lt;/b&gt;&lt;br&gt;ctg5 142&lt;br&gt;Location: 156268 - 156640" locus_tag="ctg5_142" class="clusterblast-orf" id="knownclusterblast-1_q28_0_all"  />
<polygon points="579,40 587,40 592,35 587,30 579,30 579,40 " style="fill:white; stroke-width:1; stroke:black; " description="&lt;b&gt;ctg5_143&lt;/b&gt;&lt;br&gt;ctg5 143&lt;br&gt;Location: 156633 - 157296" locus_tag="ctg5_143" class="clusterblast-orf" id="knownclusterblast-1_q29_0_all"  />
<polygon points="592,40 630,40 635,35 630,30 592,30 592,40 " style="fill:white; stroke-width:1; stroke:black; " description="&lt;b&gt;ctg5_144&lt;/b&gt;&lt;br&gt;ctg5 144&lt;br&gt;Location: 157292 - 159578" locus_tag="ctg5_144" class="clusterblast-orf" id="knownclusterblast-1_q30_0_all"  />
<polygon points="635,35 640,30 647,30 647,40 640,40 635,35 " style="fill:white; stroke-width:1; stroke:black; " description="&lt;b&gt;ctg5_145&lt;/b&gt;&lt;br&gt;ctg5 145&lt;br&gt;Location: 159570 - 160221" locus_tag="ctg5_145" class="clusterblast-orf" id="knownclusterblast-1_q31_0_all"  />
<polygon points="648,35 653,30 661,30 661,40 653,40 648,35 " style="fill:white; stroke-width:1; stroke:black; " description="&lt;b&gt;ctg5_146&lt;/b&gt;&lt;br&gt;ctg5 146&lt;br&gt;Location: 160250 - 160934" locus_tag="ctg5_146" class="clusterblast-orf" id="knownclusterblast-1_q32_0_all"  />
<polygon points="661,35 666,30 699,30 699,40 666,40 661,35 " style="fill:white; stroke-width:1; stroke:black; " description="&lt;b&gt;ctg5_147&lt;/b&gt;&lt;br&gt;ctg5 147&lt;br&gt;Location: 160930 - 162943" locus_tag="ctg5_147" class="clusterblast-orf" id="knownclusterblast-1_q33_0_all"  />
<polygon points="707,40 710,40 715,35 710,30 707,30 707,40 " style="fill:white; stroke-width:1; stroke:black; " description="&lt;b&gt;ctg5_148&lt;/b&gt;&lt;br&gt;ctg5 148&lt;br&gt;Location: 163394 - 163784" locus_tag="ctg5_148" class="clusterblast-orf" id="knownclusterblast-1_q34_0_all"  />
<polygon points="715,40 745,40 750,35 745,30 715,30 715,40 " style="fill:white; stroke-width:1; stroke:black; " description="&lt;b&gt;ctg5_149&lt;/b&gt;&lt;br&gt;ctg5 149&lt;br&gt;Location: 163798 - 165658" locus_tag="ctg5_149" class="clusterblast-orf" id="knownclusterblast-1_q35_0_all"  />
</g>
<g label="BGC0001964" description="BGC0001964_c1: alkylpyrone-407/alkylpyrone-393 (4% of genes show similarity), Polyketide" class="clusterblast-cluster"  >
<text x="5" y="70" class="clusterblast-acc"  >
<a xlink:href="https://mibig.secondarymetabolites.org/go/BGC0001964/1" target="_blank">BGC0001964</a>: alkylpyrone-407/alkylpyrone-393                                                  (4% of genes show similarity), Polyketide</text>
<line x1="10" y1="85" x2="778.0" y2="85" style="stroke-width:1; stroke:grey; "  />
</g>
<g id="a1_000"  >
<polygon points="0,85 4,80 4,90 0,85 " style="fill:white; stroke-width:1; stroke:black; " description="&lt;b&gt;AYM52881.1&lt;/b&gt;&lt;br&gt;hypothetical protein&lt;br&gt;Location: 41089 - 40849" locus_tag="AYM52881.1" class="clusterblast-orf" id="knownclusterblast-1_all_1_1_0"  />
</g>
<g id="a1_001"  >
<polygon points="7,85 12,80 16,80 16,90 12,90 7,85 " style="fill:white; stroke-width:1; stroke:black; " description="&lt;b&gt;AYM52880.1&lt;/b&gt;&lt;br&gt;lipoprotein&lt;br&gt;Location: 40713 - 40198" locus_tag="AYM52880.1" class="clusterblast-orf" id="knownclusterblast-1_all_1_1_1"  />
</g>
<g id="a1_002"  >
<polygon points="21,85 26,80 33,80 33,90 26,90 21,85 " style="fill:white; stroke-width:1; stroke:black; " description="&lt;b&gt;AYM52879.1&lt;/b&gt;&lt;br&gt;ahpC/TSA family protein&lt;br&gt;Location: 39949 - 39344" locus_tag="AYM52879.1" class="clusterblast-orf" id="knownclusterblast-1_all_1_1_2"  />
</g>
<g id="a1_003"  >
<polygon points="34,85 39,80 43,80 43,90 39,90 34,85 " style="fill:white; stroke-width:1; stroke:black; " description="&lt;b&gt;AYM52878.1&lt;/b&gt;&lt;br&gt;hypothetical protein&lt;br&gt;Location: 39289 - 38807" locus_tag="AYM52878.1" class="clusterblast-orf" id="knownclusterblast-1_all_1_1_3"  />
</g>
<g id="a1_004"  >
<polygon points="44,90 51,90 56,85 51,80 44,80 44,90 " style="fill:white; stroke-width:1; stroke:black; " description="&lt;b&gt;AYM52877.1&lt;/b&gt;&lt;br&gt;hypothetical protein&lt;br&gt;Location: 38749 - 38108" locus_tag="AYM52877.1" class="clusterblast-orf" id="knownclusterblast-1_all_1_1_4"  />
</g>
<g id="a1_005"  >
<polygon points="57,85 62,80 82,80 82,90 62,90 57,85 " style="fill:white; stroke-width:1; stroke:black; " description="&lt;b&gt;AYM52876.1&lt;/b&gt;&lt;br&gt;response regulator&lt;br&gt;Location: 38059 - 36740" locus_tag="AYM52876.1" class="clusterblast-orf" id="knownclusterblast-1_all_1_1_5"  />
</g>
<g id="a1_006"  >
<polygon points="91,90 106,90 111,85 106,80 91,80 91,90 " style="fill:white; stroke-width:1; stroke:black; " description="&lt;b&gt;AYM52875.1&lt;/b&gt;&lt;br&gt;methyltransferase type 12&lt;br&gt;Location: 36270 - 35230" locus_tag="AYM52875.1" class="clusterblast-orf" id="knownclusterblast-1_all_1_1_6"  />
</g>
<g id="a1_007"  >
<polygon points="112,90 118,90 123,85 118,80 112,80 112,90 " style="fill:white; stroke-width:1; stroke:black; " description="&lt;b&gt;AYM52874.1&lt;/b&gt;&lt;br&gt;hypothetical protein&lt;br&gt;Location: 35176 - 34598" locus_tag="AYM52874.1" class="clusterblast-orf" id="knownclusterblast-1_all_1_1_7"  />
</g>
<g id="a1_008"  >
<polygon points="124,85 129,80 145,80 145,90 129,90 124,85 " style="fill:white; stroke-width:1; stroke:black; " description="&lt;b&gt;AYM52873.1&lt;/b&gt;&lt;br&gt;hypothetical protein&lt;br&gt;Location: 34508 - 33438" locus_tag="AYM52873.1" class="clusterblast-orf" id="knownclusterblast-1_all_1_1_8"  />
</g>
<g id="a1_009"  >
<polygon points="144,85 149,80 153,80 153,90 149,90 144,85 " style="fill:white; stroke-width:1; stroke:black; " description="&lt;b&gt;AYM52872.1&lt;/b&gt;&lt;br&gt;hypothetical protein&lt;br&gt;Location: 33465 - 32980" locus_tag="AYM52872.1" class="clusterblast-orf" id="knownclusterblast-1_all_1_1_9"  />
</g>
<g id="a1_0010"  >
<polygon points="156,85 161,80 165,80 165,90 161,90 156,85 " style="fill:white; stroke-width:1; stroke:black; " description="&lt;b&gt;AYM52871.1&lt;/b&gt;&lt;br&gt;hypothetical protein&lt;br&gt;Location: 32834 - 32370" locus_tag="AYM52871.1" class="clusterblast-orf" id="knownclusterblast-1_all_1_1_10"  />
</g>
<g id="a1_0011"  >
<polygon points="165,85 170,80 172,80 172,90 170,90 165,85 " style="fill:white; stroke-width:1; stroke:black; " description="&lt;b&gt;AYM52870.1&lt;/b&gt;&lt;br&gt;transcriptional regulator ArsR family&lt;br&gt;Location: 32373 - 31996" locus_tag="AYM52870.1" class="clusterblast-orf" id="knownclusterblast-1_all_1_1_11"  />
</g>
<g id="a1_0012"  >
<polygon points="174,85 179,80 202,80 202,90 179,90 174,85 " style="fill:white; stroke-width:1; stroke:black; " description="&lt;b&gt;AYM52869.1&lt;/b&gt;&lt;br&gt;hypothetical protein&lt;br&gt;Location: 31914 - 30400" locus_tag="AYM52869.1" class="clusterblast-orf" id="knownclusterblast-1_all_1_1_12"  />
</g>
<g id="a1_0013"  >
<polygon points="204,90 212,90 217,85 212,80 204,80 204,90 " style="fill:white; stroke-width:1; stroke:black; " description="&lt;b&gt;AYM52868.1&lt;/b&gt;&lt;br&gt;NIPSNAP family containing protein&lt;br&gt;Location: 30332 - 29622" locus_tag="AYM52868.1" class="clusterblast-orf" id="knownclusterblast-1_all_1_1_13"  />
</g>
<g id="a1_0014"  >
<polygon points="218,90 222,90 227,85 222,80 218,80 218,90 " style="fill:white; stroke-width:1; stroke:black; " description="&lt;b&gt;AYM52867.1&lt;/b&gt;&lt;br&gt;hypothetical protein&lt;br&gt;Location: 29594 - 29094" locus_tag="AYM52867.1" class="clusterblast-orf" id="knownclusterblast-1_all_1_1_14"  />
</g>
<g id="a1_0015"  >
<polygon points="235,85 240,80 254,80 254,90 240,90 235,85 " style="fill:white; stroke-width:1; stroke:black; " description="&lt;b&gt;AYM52866.1&lt;/b&gt;&lt;br&gt;hypothetical protein&lt;br&gt;Location: 28697 - 27702" locus_tag="AYM52866.1" class="clusterblast-orf" id="knownclusterblast-1_all_1_1_15"  />
</g>
<g id="a1_0016"  >
<polygon points="256,90 257,90 262,85 257,80 256,80 256,90 " style="fill:white; stroke-width:1; stroke:black; " description="&lt;b&gt;AYM52865.1&lt;/b&gt;&lt;br&gt;transcriptional regulator protein&lt;br&gt;Location: 27561 - 27235" locus_tag="AYM52865.1" class="clusterblast-orf" id="knownclusterblast-1_all_1_1_16"  />
</g>
<g id="a1_0017"  >
<polygon points="264,85 269,80 292,80 292,90 269,90 264,85 " style="fill:white; stroke-width:1; stroke:black; " description="&lt;b&gt;AYM52864.1&lt;/b&gt;&lt;br&gt;DNA/RNA non-specific endonuclease&lt;br&gt;Location: 27176 - 25701" locus_tag="AYM52864.1" class="clusterblast-orf" id="knownclusterblast-1_all_1_1_17"  />
</g>
<g id="a1_0018"  >
<polygon points="294,85 299,80 306,80 306,90 299,90 294,85 " style="fill:white; stroke-width:1; stroke:black; " description="&lt;b&gt;AYM52863.1&lt;/b&gt;&lt;br&gt;hypothetical protein&lt;br&gt;Location: 25554 - 24925" locus_tag="AYM52863.1" class="clusterblast-orf" id="knownclusterblast-1_all_1_1_18"  />
</g>
<g id="a1_0019"  >
<polygon points="308,85 313,80 328,80 328,90 313,90 308,85 " style="fill:white; stroke-width:1; stroke:black; " description="&lt;b&gt;AYM52862.1&lt;/b&gt;&lt;br&gt;monooxygenase FAD-binding protein&lt;br&gt;Location: 24862 - 23765" locus_tag="AYM52862.1" class="clusterblast-orf" id="knownclusterblast-1_all_1_1_19"  />
</g>
<g id="a1_0020"  >
<polygon points="330,85 335,80 363,80 363,90 335,90 330,85 " style="fill:white; stroke-width:1; stroke:black; " description="&lt;b&gt;AYM52861.1&lt;/b&gt;&lt;br&gt;AMP-binding protein&lt;br&gt;Location: 23677 - 21923" locus_tag="AYM52861.1" class="clusterblast-orf" id="knownclusterblast-1_all_1_1_20"  />
</g>
<g id="a1_0021"  >
<polygon points="363,85 368,80 369,80 369,90 368,90 363,85 " style="fill:#d81515; stroke-width:1; stroke:black; " description="&lt;b&gt;AYM52860.1&lt;/b&gt;&lt;br&gt;acyl carrier protein&lt;br&gt;Location: 21926 - 21651&lt;br&gt;&lt;br&gt;&lt;b&gt;BlastP hit with ctg5_129&lt;/b&gt;&lt;br&gt;Percentage identity: 47&lt;br&gt;Percentage coverage: 55&lt;br&gt;BLAST bit score: 47&lt;br&gt;E-value: 4.1e-08" locus_tag="AYM52860.1" class="clusterblast-orf" id="knownclusterblast-1_all_1_1_21"  />
</g>
<g id="a1_0022"  >
<polygon points="368,85 373,80 379,80 379,90 373,90 368,85 " style="fill:white; stroke-width:1; stroke:black; " description="&lt;b&gt;AYM52859.1&lt;/b&gt;&lt;br&gt;hypothetical protein&lt;br&gt;Location: 21658 - 21083" locus_tag="AYM52859.1" class="clusterblast-orf" id="knownclusterblast-1_all_1_1_22"  />
</g>
<g id="a1_0023"  >
<polygon points="379,85 384,80 400,80 400,90 384,90 379,85 " style="fill:#15d8d8; stroke-width:1; stroke:black; " description="&lt;b&gt;AYM52858.1&lt;/b&gt;&lt;br&gt;chalcone/stilbene synthase family protein&lt;br&gt;Location: 21089 - 20001&lt;br&gt;&lt;br&gt;&lt;b&gt;BlastP hit with ctg5_131&lt;/b&gt;&lt;br&gt;Percentage identity: 46&lt;br&gt;Percentage coverage: 98&lt;br&gt;BLAST bit score: 306&lt;br&gt;E-value: 2.7e-102" locus_tag="AYM52858.1" class="clusterblast-orf" id="knownclusterblast-1_all_1_1_23"  />
</g>
<g id="a1_0024"  >
<polygon points="410,85 415,80 416,80 416,90 415,90 410,85 " style="fill:white; stroke-width:1; stroke:black; " description="&lt;b&gt;AYM52857.1&lt;/b&gt;&lt;br&gt;hypothetical protein&lt;br&gt;Location: 19463 - 19155" locus_tag="AYM52857.1" class="clusterblast-orf" id="knownclusterblast-1_all_1_1_24"  />
</g>
<g id="a1_0025"  >
<polygon points="421,90 425,90 430,85 425,80 421,80 421,90 " style="fill:white; stroke-width:1; stroke:black; " description="&lt;b&gt;AYM52856.1&lt;/b&gt;&lt;br&gt;3-demethylubiquinone-9 3-methyltransferase&lt;br&gt;Location: 18912 - 18424" locus_tag="AYM52856.1" class="clusterblast-orf" id="knownclusterblast-1_all_1_1_25"  />
</g>
<g id="a1_0026"  >
<polygon points="435,90 476,90 481,85 476,80 435,80 435,90 " style="fill:white; stroke-width:1; stroke:black; " description="&lt;b&gt;AYM52855.1&lt;/b&gt;&lt;br&gt;isoamylase&lt;br&gt;Location: 18169 - 15749" locus_tag="AYM52855.1" class="clusterblast-orf" id="knownclusterblast-1_all_1_1_26"  />
</g>
<g id="a1_0027"  >
<polygon points="485,90 492,90 497,85 492,80 485,80 485,90 " style="fill:white; stroke-width:1; stroke:black; " description="&lt;b&gt;AYM52854.1&lt;/b&gt;&lt;br&gt;pentapeptide repeat-containing protein&lt;br&gt;Location: 15519 - 14857" locus_tag="AYM52854.1" class="clusterblast-orf" id="knownclusterblast-1_all_1_1_27"  />
</g>
<g id="a1_0028"  >
<polygon points="498,85 503,80 518,80 518,90 503,90 498,85 " style="fill:white; stroke-width:1; stroke:black; " description="&lt;b&gt;AYM52853.1&lt;/b&gt;&lt;br&gt;molybdate ABC transporter ATP-binding protein&lt;br&gt;Location: 14844 - 13777" locus_tag="AYM52853.1" class="clusterblast-orf" id="knownclusterblast-1_all_1_1_28"  />
</g>
<g id="a1_0029"  >
<polygon points="518,85 523,80 532,80 532,90 523,90 518,85 " style="fill:white; stroke-width:1; stroke:black; " description="&lt;b&gt;AYM52852.1&lt;/b&gt;&lt;br&gt;molybdate ABC transporter permease&lt;br&gt;Location: 13756 - 13061" locus_tag="AYM52852.1" class="clusterblast-orf" id="knownclusterblast-1_all_1_1_29"  />
</g>
<g id="a1_0030"  >
<polygon points="531,85 536,80 547,80 547,90 536,90 531,85 " style="fill:white; stroke-width:1; stroke:black; " description="&lt;b&gt;AYM52851.1&lt;/b&gt;&lt;br&gt;molybdenum ABC transporter periplasmic molybdate-binding protein&lt;br&gt;Location: 13079 - 12264" locus_tag="AYM52851.1" class="clusterblast-orf" id="knownclusterblast-1_all_1_1_30"  />
</g>
<g id="a1_0031"  >
<polygon points="547,90 553,90 558,85 553,80 547,80 547,90 " style="fill:white; stroke-width:1; stroke:black; " description="&lt;b&gt;AYM52850.1&lt;/b&gt;&lt;br&gt;MarR family transcriptional regulator&lt;br&gt;Location: 12259 - 11666" locus_tag="AYM52850.1" class="clusterblast-orf" id="knownclusterblast-1_all_1_1_31"  />
</g>
<g id="a1_0032"  >
<polygon points="558,85 563,80 569,80 569,90 563,90 558,85 " style="fill:white; stroke-width:1; stroke:black; " description="&lt;b&gt;AYM52849.1&lt;/b&gt;&lt;br&gt;hypothetical protein&lt;br&gt;Location: 11658 - 11086" locus_tag="AYM52849.1" class="clusterblast-orf" id="knownclusterblast-1_all_1_1_32"  />
</g>
<g id="a1_0033"  >
<polygon points="575,90 581,90 586,85 581,80 575,80 575,90 " style="fill:white; stroke-width:1; stroke:black; " description="&lt;b&gt;AYM52848.1&lt;/b&gt;&lt;br&gt;hypothetical protein&lt;br&gt;Location: 10765 - 10211" locus_tag="AYM52848.1" class="clusterblast-orf" id="knownclusterblast-1_all_1_1_33"  />
</g>
<g id="a1_0034"  >
<polygon points="586,85 591,80 602,80 602,90 591,90 586,85 " style="fill:white; stroke-width:1; stroke:black; " description="&lt;b&gt;AYM52847.1&lt;/b&gt;&lt;br&gt;endonuclease/exonuclease/phosphatase family protein&lt;br&gt;Location: 10201 - 9326" locus_tag="AYM52847.1" class="clusterblast-orf" id="knownclusterblast-1_all_1_1_34"  />
</g>
<g id="a1_0035"  >
<polygon points="605,85 610,80 617,80 617,90 610,90 605,85 " style="fill:white; stroke-width:1; stroke:black; " description="&lt;b&gt;AYM52846.1&lt;/b&gt;&lt;br&gt;hypothetical protein&lt;br&gt;Location: 9213 - 8584" locus_tag="AYM52846.1" class="clusterblast-orf" id="knownclusterblast-1_all_1_1_35"  />
</g>
<g id="a1_0036"  >
<polygon points="619,85 624,80 632,80 632,90 624,90 619,85 " style="fill:white; stroke-width:1; stroke:black; " description="&lt;b&gt;AYM52845.1&lt;/b&gt;&lt;br&gt;hypothetical protein&lt;br&gt;Location: 8440 - 7745" locus_tag="AYM52845.1" class="clusterblast-orf" id="knownclusterblast-1_all_1_1_36"  />
</g>
<g id="a1_0037"  >
<polygon points="635,90 657,90 662,85 657,80 635,80 635,90 " style="fill:white; stroke-width:1; stroke:black; " description="&lt;b&gt;AYM52844.1&lt;/b&gt;&lt;br&gt;prolyl-tRNA synthetase&lt;br&gt;Location: 7617 - 6184" locus_tag="AYM52844.1" class="clusterblast-orf" id="knownclusterblast-1_all_1_1_37"  />
</g>
<g id="a1_0038"  >
<polygon points="663,85 668,80 687,80 687,90 668,90 663,85 " style="fill:white; stroke-width:1; stroke:black; " description="&lt;b&gt;AYM52843.1&lt;/b&gt;&lt;br&gt;adenylate cyclase 1&lt;br&gt;Location: 6114 - 4873" locus_tag="AYM52843.1" class="clusterblast-orf" id="knownclusterblast-1_all_1_1_38"  />
</g>
<g id="a1_0039"  >
<polygon points="689,90 694,90 699,85 694,80 689,80 689,90 " style="fill:white; stroke-width:1; stroke:black; " description="&lt;b&gt;AYM52842.1&lt;/b&gt;&lt;br&gt;membrane-bound metal-dependent hydrolase&lt;br&gt;Location: 4793 - 4251" locus_tag="AYM52842.1" class="clusterblast-orf" id="knownclusterblast-1_all_1_1_39"  />
</g>
<g id="a1_0040"  >
<polygon points="699,90 705,90 710,85 705,80 699,80 699,90 " style="fill:white; stroke-width:1; stroke:black; " description="&lt;b&gt;AYM52841.1&lt;/b&gt;&lt;br&gt;2'-5' RNA ligase&lt;br&gt;Location: 4225 - 3671" locus_tag="AYM52841.1" class="clusterblast-orf" id="knownclusterblast-1_all_1_1_40"  />
</g>
<g id="a1_0041"  >
<polygon points="711,85 716,80 752,80 752,90 716,90 711,85 " style="fill:white; stroke-width:1; stroke:black; " description="&lt;b&gt;AYM52840.1&lt;/b&gt;&lt;br&gt;sensor protein&lt;br&gt;Location: 3628 - 1427" locus_tag="AYM52840.1" class="clusterblast-orf" id="knownclusterblast-1_all_1_1_41"  />
</g>
<g id="a1_0042"  >
<polygon points="758,90 765,90 770,85 765,80 758,80 758,90 " style="fill:white; stroke-width:1; stroke:black; " description="&lt;b&gt;AYM52839.1&lt;/b&gt;&lt;br&gt;hypothetical protein&lt;br&gt;Location: 1146 - 487" locus_tag="AYM52839.1" class="clusterblast-orf" id="knownclusterblast-1_all_1_1_42"  />
</g>
<g id="a1_0043"  >
<polygon points="772,85 777,80 780,80 780,90 777,90 772,85 " style="fill:white; stroke-width:1; stroke:black; " description="&lt;b&gt;AYM52838.1&lt;/b&gt;&lt;br&gt;hypothetical protein&lt;br&gt;Location: 419 - 1" locus_tag="AYM52838.1" class="clusterblast-orf" id="knownclusterblast-1_all_1_1_43"  />
</g>
</svg>
