<svg xmlns="http://www.w3.org/2000/svg" xmlns:xlink="http://www.w3.org/1999/xlink" version="1.1" x="0" y="0" height="50" width="800" viewBox="0 0 800 50" preserveAspectRatio="none"  >
<g label="Query sequence" class="clusterblast-cluster"  >
<text x="5" y="20" class="clusterblast-acc"  >
Query sequence</text>
<line x1="10" y1="35" x2="778.0" y2="35" style="stroke-width:1; stroke:grey; "  />
<polygon points="0,35 5,30 18,30 18,40 5,40 0,35 " style="fill:white; stroke-width:1; stroke:black; " description="&lt;b&gt;ctg11_52&lt;/b&gt;&lt;br&gt;ctg11 52&lt;br&gt;Location: 49567 - 50179" locus_tag="ctg11_52" class="clusterblast-orf" id="knownclusterblast-1_q0_0_all"  />
<polygon points="18,35 23,30 30,30 30,40 23,40 18,35 " style="fill:white; stroke-width:1; stroke:black; " description="&lt;b&gt;ctg11_53&lt;/b&gt;&lt;br&gt;ctg11 53&lt;br&gt;Location: 50175 - 50577" locus_tag="ctg11_53" class="clusterblast-orf" id="knownclusterblast-1_q1_0_all"  />
<polygon points="32,40 43,40 48,35 43,30 32,30 32,40 " style="fill:white; stroke-width:1; stroke:black; " description="&lt;b&gt;ctg11_54&lt;/b&gt;&lt;br&gt;ctg11 54&lt;br&gt;Location: 50653 - 51166" locus_tag="ctg11_54" class="clusterblast-orf" id="knownclusterblast-1_q2_0_all"  />
<polygon points="50,40 58,40 63,35 58,30 50,30 50,40 " style="fill:white; stroke-width:1; stroke:black; " description="&lt;b&gt;ctg11_55&lt;/b&gt;&lt;br&gt;ctg11 55&lt;br&gt;Location: 51236 - 51689" locus_tag="ctg11_55" class="clusterblast-orf" id="knownclusterblast-1_q3_0_all"  />
<polygon points="67,40 76,40 81,35 76,30 67,30 67,40 " style="fill:white; stroke-width:1; stroke:black; " description="&lt;b&gt;ctg11_56&lt;/b&gt;&lt;br&gt;ctg11 56&lt;br&gt;Location: 51817 - 52279" locus_tag="ctg11_56" class="clusterblast-orf" id="knownclusterblast-1_q4_0_all"  />
<polygon points="80,35 85,30 123,30 123,40 85,40 80,35 " style="fill:white; stroke-width:1; stroke:black; " description="&lt;b&gt;ctg11_57&lt;/b&gt;&lt;br&gt;ctg11 57&lt;br&gt;Location: 52268 - 53693" locus_tag="ctg11_57" class="clusterblast-orf" id="knownclusterblast-1_q5_0_all"  />
<polygon points="123,35 128,30 146,30 146,40 128,40 123,35 " style="fill:white; stroke-width:1; stroke:black; " description="&lt;b&gt;ctg11_58&lt;/b&gt;&lt;br&gt;ctg11 58&lt;br&gt;Location: 53689 - 54454" locus_tag="ctg11_58" class="clusterblast-orf" id="knownclusterblast-1_q6_0_all"  />
<polygon points="150,35 155,30 179,30 179,40 155,40 150,35 " style="fill:white; stroke-width:1; stroke:black; " description="&lt;b&gt;ctg11_59&lt;/b&gt;&lt;br&gt;ctg11 59&lt;br&gt;Location: 54592 - 55564" locus_tag="ctg11_59" class="clusterblast-orf" id="knownclusterblast-1_q7_0_all"  />
<polygon points="187,40 191,35 187,30 187,40 " style="fill:white; stroke-width:1; stroke:black; " description="&lt;b&gt;ctg11_60&lt;/b&gt;&lt;br&gt;ctg11 60&lt;br&gt;Location: 55836 - 55974" locus_tag="ctg11_60" class="clusterblast-orf" id="knownclusterblast-1_q8_0_all"  />
<polygon points="191,35 196,30 203,30 203,40 196,40 191,35 " style="fill:white; stroke-width:1; stroke:black; " description="&lt;b&gt;ctg11_61&lt;/b&gt;&lt;br&gt;ctg11 61&lt;br&gt;Location: 55970 - 56363" locus_tag="ctg11_61" class="clusterblast-orf" id="knownclusterblast-1_q9_0_all"  />
<polygon points="207,40 215,40 220,35 215,30 207,30 207,40 " style="fill:white; stroke-width:1; stroke:black; " description="&lt;b&gt;ctg11_62&lt;/b&gt;&lt;br&gt;ctg11 62&lt;br&gt;Location: 56500 - 56950" locus_tag="ctg11_62" class="clusterblast-orf" id="knownclusterblast-1_q10_0_all"  />
<polygon points="220,40 239,40 244,35 239,30 220,30 220,40 " style="fill:white; stroke-width:1; stroke:black; " description="&lt;b&gt;ctg11_63&lt;/b&gt;&lt;br&gt;ctg11 63&lt;br&gt;Location: 56939 - 57737" locus_tag="ctg11_63" class="clusterblast-orf" id="knownclusterblast-1_q11_0_all"  />
<polygon points="245,40 246,40 251,35 246,30 245,30 245,40 " style="fill:white; stroke-width:1; stroke:black; " description="&lt;b&gt;ctg11_64&lt;/b&gt;&lt;br&gt;ctg11 64&lt;br&gt;Location: 57793 - 57964" locus_tag="ctg11_64" class="clusterblast-orf" id="knownclusterblast-1_q12_0_all"  />
<polygon points="252,35 257,30 309,30 309,40 257,40 252,35 " style="fill:white; stroke-width:1; stroke:black; " description="&lt;b&gt;ctg11_65&lt;/b&gt;&lt;br&gt;ctg11 65&lt;br&gt;Location: 57999 - 59937" locus_tag="ctg11_65" class="clusterblast-orf" id="knownclusterblast-1_q13_0_all"  />
<polygon points="308,35 313,30 334,30 334,40 313,40 308,35 " style="fill:white; stroke-width:1; stroke:black; " description="&lt;b&gt;ctg11_66&lt;/b&gt;&lt;br&gt;ctg11 66&lt;br&gt;Location: 59881 - 60775" locus_tag="ctg11_66" class="clusterblast-orf" id="knownclusterblast-1_q14_0_all"  />
<polygon points="335,35 340,30 426,30 426,40 340,40 335,35 " style="fill:white; stroke-width:1; stroke:black; " description="&lt;b&gt;ctg11_67&lt;/b&gt;&lt;br&gt;ctg11 67&lt;br&gt;Location: 60777 - 63840" locus_tag="ctg11_67" class="clusterblast-orf" id="knownclusterblast-1_q15_0_all"  />
<polygon points="426,35 431,30 515,30 515,40 431,40 426,35 " style="fill:white; stroke-width:1; stroke:black; " description="&lt;b&gt;ctg11_68&lt;/b&gt;&lt;br&gt;ctg11 68&lt;br&gt;Location: 63836 - 66812" locus_tag="ctg11_68" class="clusterblast-orf" id="knownclusterblast-1_q16_0_all"  />
<polygon points="517,40 521,40 526,35 521,30 517,30 517,40 " style="fill:white; stroke-width:1; stroke:black; " description="&lt;b&gt;ctg11_69&lt;/b&gt;&lt;br&gt;ctg11 69&lt;br&gt;Location: 66903 - 67197" locus_tag="ctg11_69" class="clusterblast-orf" id="knownclusterblast-1_q17_0_all"  />
<polygon points="526,40 535,40 540,35 535,30 526,30 526,40 " style="fill:white; stroke-width:1; stroke:black; " description="&lt;b&gt;ctg11_70&lt;/b&gt;&lt;br&gt;ctg11 70&lt;br&gt;Location: 67199 - 67646" locus_tag="ctg11_70" class="clusterblast-orf" id="knownclusterblast-1_q18_0_all"  />
<polygon points="541,35 546,30 553,30 553,40 546,40 541,35 " style="fill:white; stroke-width:1; stroke:black; " description="&lt;b&gt;ctg11_71&lt;/b&gt;&lt;br&gt;ctg11 71&lt;br&gt;Location: 67695 - 68100" locus_tag="ctg11_71" class="clusterblast-orf" id="knownclusterblast-1_q19_0_all"  />
<polygon points="558,35 563,30 573,30 573,40 563,40 558,35 " style="fill:white; stroke-width:1; stroke:black; " description="&lt;b&gt;ctg11_72&lt;/b&gt;&lt;br&gt;ctg11 72&lt;br&gt;Location: 68247 - 68772" locus_tag="ctg11_72" class="clusterblast-orf" id="knownclusterblast-1_q20_0_all"  />
<polygon points="578,40 581,40 586,35 581,30 578,30 578,40 " style="fill:white; stroke-width:1; stroke:black; " description="&lt;b&gt;ctg11_73&lt;/b&gt;&lt;br&gt;ctg11 73&lt;br&gt;Location: 68934 - 69192" locus_tag="ctg11_73" class="clusterblast-orf" id="knownclusterblast-1_q21_0_all"  />
<polygon points="587,35 592,30 596,30 596,40 592,40 587,35 " style="fill:white; stroke-width:1; stroke:black; " description="&lt;b&gt;ctg11_74&lt;/b&gt;&lt;br&gt;ctg11 74&lt;br&gt;Location: 69229 - 69523" locus_tag="ctg11_74" class="clusterblast-orf" id="knownclusterblast-1_q22_0_all"  />
<polygon points="598,35 603,30 614,30 614,40 603,40 598,35 " style="fill:white; stroke-width:1; stroke:black; " description="&lt;b&gt;ctg11_75&lt;/b&gt;&lt;br&gt;ctg11 75&lt;br&gt;Location: 69615 - 70143" locus_tag="ctg11_75" class="clusterblast-orf" id="knownclusterblast-1_q23_0_all"  />
<polygon points="618,35 623,30 651,30 651,40 623,40 618,35 " style="fill:white; stroke-width:1; stroke:black; " description="&lt;b&gt;ctg11_76&lt;/b&gt;&lt;br&gt;ctg11 76&lt;br&gt;Location: 70263 - 71367" locus_tag="ctg11_76" class="clusterblast-orf" id="knownclusterblast-1_q24_0_all"  />
<polygon points="657,40 681,40 686,35 681,30 657,30 657,40 " style="fill:white; stroke-width:1; stroke:black; " description="&lt;b&gt;ctg11_77&lt;/b&gt;&lt;br&gt;ctg11 77&lt;br&gt;Location: 71564 - 72539" locus_tag="ctg11_77" class="clusterblast-orf" id="knownclusterblast-1_q25_0_all"  />
<polygon points="693,35 698,30 716,30 716,40 698,40 693,35 " style="fill:white; stroke-width:1; stroke:black; " description="&lt;b&gt;ctg11_78&lt;/b&gt;&lt;br&gt;ctg11 78&lt;br&gt;Location: 72780 - 73560" locus_tag="ctg11_78" class="clusterblast-orf" id="knownclusterblast-1_q26_0_all"  />
<polygon points="722,40 734,40 739,35 734,30 722,30 722,40 " style="fill:white; stroke-width:1; stroke:black; " description="&lt;b&gt;ctg11_79&lt;/b&gt;&lt;br&gt;ctg11 79&lt;br&gt;Location: 73741 - 74332" locus_tag="ctg11_79" class="clusterblast-orf" id="knownclusterblast-1_q27_0_all"  />
<polygon points="739,40 758,40 763,35 758,30 739,30 739,40 " style="fill:white; stroke-width:1; stroke:black; " description="&lt;b&gt;ctg11_80&lt;/b&gt;&lt;br&gt;ctg11 80&lt;br&gt;Location: 74331 - 75114" locus_tag="ctg11_80" class="clusterblast-orf" id="knownclusterblast-1_q28_0_all"  />
<polygon points="763,40 775,40 780,35 775,30 763,30 763,40 " style="fill:white; stroke-width:1; stroke:black; " description="&lt;b&gt;ctg11_81&lt;/b&gt;&lt;br&gt;ctg11 81&lt;br&gt;Location: 75110 - 75689" locus_tag="ctg11_81" class="clusterblast-orf" id="knownclusterblast-1_q29_0_all"  />
</g>
</svg>
