<svg xmlns="http://www.w3.org/2000/svg" xmlns:xlink="http://www.w3.org/1999/xlink" version="1.1" x="0" y="0" height="100" width="800" viewBox="0 0 800 100" preserveAspectRatio="none"  >
<g label="Query sequence" class="clusterblast-cluster"  >
<text x="5" y="20" class="clusterblast-acc"  >
Query sequence</text>
<line x1="10" y1="35" x2="778.0" y2="35" style="stroke-width:1; stroke:grey; "  />
<polygon points="205,35 210,30 213,30 213,40 210,40 205,35 " style="fill:white; stroke-width:1; stroke:black; " description="&lt;b&gt;ctg1_192&lt;/b&gt;&lt;br&gt;ctg1 192&lt;br&gt;Location: 213831 - 214248" locus_tag="ctg1_192" class="clusterblast-orf" id="knownclusterblast-1_q0_0_all"  />
<polygon points="212,35 217,30 229,30 229,40 217,40 212,35 " style="fill:white; stroke-width:1; stroke:black; " description="&lt;b&gt;ctg1_193&lt;/b&gt;&lt;br&gt;ctg1 193&lt;br&gt;Location: 214211 - 215084" locus_tag="ctg1_193" class="clusterblast-orf" id="knownclusterblast-1_q1_0_all"  />
<polygon points="231,35 236,30 239,30 239,40 236,40 231,35 " style="fill:white; stroke-width:1; stroke:black; " description="&lt;b&gt;ctg1_194&lt;/b&gt;&lt;br&gt;ctg1 194&lt;br&gt;Location: 215168 - 215579" locus_tag="ctg1_194" class="clusterblast-orf" id="knownclusterblast-1_q2_0_all"  />
<polygon points="241,40 251,40 256,35 251,30 241,30 241,40 " style="fill:white; stroke-width:1; stroke:black; " description="&lt;b&gt;ctg1_195&lt;/b&gt;&lt;br&gt;ctg1 195&lt;br&gt;Location: 215672 - 216464" locus_tag="ctg1_195" class="clusterblast-orf" id="knownclusterblast-1_q3_0_all"  />
<polygon points="257,35 262,30 282,30 282,40 262,40 257,35 " style="fill:white; stroke-width:1; stroke:black; " description="&lt;b&gt;ctg1_196&lt;/b&gt;&lt;br&gt;ctg1 196&lt;br&gt;Location: 216522 - 217788" locus_tag="ctg1_196" class="clusterblast-orf" id="knownclusterblast-1_q4_0_all"  />
<polygon points="284,40 309,40 314,35 309,30 284,30 284,40 " style="fill:white; stroke-width:1; stroke:black; " description="&lt;b&gt;ctg1_197&lt;/b&gt;&lt;br&gt;ctg1 197&lt;br&gt;Location: 217904 - 219398" locus_tag="ctg1_197" class="clusterblast-orf" id="knownclusterblast-1_q5_0_all"  />
<polygon points="315,40 319,40 324,35 319,30 315,30 315,40 " style="fill:white; stroke-width:1; stroke:black; " description="&lt;b&gt;ctg1_198&lt;/b&gt;&lt;br&gt;ctg1 198&lt;br&gt;Location: 219479 - 219920" locus_tag="ctg1_198" class="clusterblast-orf" id="knownclusterblast-1_q6_0_all"  />
<polygon points="324,40 331,40 336,35 331,30 324,30 324,40 " style="fill:white; stroke-width:1; stroke:black; " description="&lt;b&gt;ctg1_199&lt;/b&gt;&lt;br&gt;ctg1 199&lt;br&gt;Location: 219916 - 220540" locus_tag="ctg1_199" class="clusterblast-orf" id="knownclusterblast-1_q7_0_all"  />
<polygon points="336,40 364,40 369,35 364,30 336,30 336,40 " style="fill:white; stroke-width:1; stroke:black; " description="&lt;b&gt;ctg1_200&lt;/b&gt;&lt;br&gt;ctg1 200&lt;br&gt;Location: 220536 - 222228" locus_tag="ctg1_200" class="clusterblast-orf" id="knownclusterblast-1_q8_0_all"  />
<polygon points="369,35 374,30 390,30 390,40 374,40 369,35 " style="fill:white; stroke-width:1; stroke:black; " description="&lt;b&gt;ctg1_201&lt;/b&gt;&lt;br&gt;ctg1 201&lt;br&gt;Location: 222224 - 223295" locus_tag="ctg1_201" class="clusterblast-orf" id="knownclusterblast-1_q9_0_all"  />
<polygon points="390,35 395,30 410,30 410,40 395,40 390,35 " style="fill:white; stroke-width:1; stroke:black; " description="&lt;b&gt;ctg1_202&lt;/b&gt;&lt;br&gt;ctg1 202&lt;br&gt;Location: 223291 - 224329" locus_tag="ctg1_202" class="clusterblast-orf" id="knownclusterblast-1_q10_0_all"  />
<polygon points="410,40 423,40 428,35 423,30 410,30 410,40 " style="fill:white; stroke-width:1; stroke:black; " description="&lt;b&gt;ctg1_203&lt;/b&gt;&lt;br&gt;ctg1 203&lt;br&gt;Location: 224331 - 225246" locus_tag="ctg1_203" class="clusterblast-orf" id="knownclusterblast-1_q11_0_all"  />
<polygon points="429,35 434,30 440,30 440,40 434,40 429,35 " style="fill:white; stroke-width:1; stroke:black; " description="&lt;b&gt;ctg1_204&lt;/b&gt;&lt;br&gt;ctg1 204&lt;br&gt;Location: 225271 - 225847" locus_tag="ctg1_204" class="clusterblast-orf" id="knownclusterblast-1_q12_0_all"  />
<polygon points="459,35 464,30 481,30 481,40 464,40 459,35 " style="fill:#d81515; stroke-width:1; stroke:black; " description="&lt;b&gt;ctg1_205&lt;/b&gt;&lt;br&gt;ctg1 205&lt;br&gt;Location: 226822 - 227962" locus_tag="ctg1_205" class="clusterblast-orf" id="knownclusterblast-1_q13_0_all"  />
<polygon points="481,35 486,30 493,30 493,40 486,40 481,35 " style="fill:#15d8d8; stroke-width:1; stroke:black; " description="&lt;b&gt;ctg1_206&lt;/b&gt;&lt;br&gt;ctg1 206&lt;br&gt;Location: 227958 - 228564" locus_tag="ctg1_206" class="clusterblast-orf" id="knownclusterblast-1_q14_0_all"  />
<polygon points="497,35 502,30 518,30 518,40 502,40 497,35 " style="fill:white; stroke-width:1; stroke:black; " description="&lt;b&gt;ctg1_207&lt;/b&gt;&lt;br&gt;ctg1 207&lt;br&gt;Location: 228757 - 229825" locus_tag="ctg1_207" class="clusterblast-orf" id="knownclusterblast-1_q15_0_all"  />
<polygon points="522,40 570,40 575,35 570,30 522,30 522,40 " style="fill:white; stroke-width:1; stroke:black; " description="&lt;b&gt;ctg1_208&lt;/b&gt;&lt;br&gt;ctg1 208&lt;br&gt;Location: 230061 - 232740" locus_tag="ctg1_208" class="clusterblast-orf" id="knownclusterblast-1_q16_0_all"  />
</g>
<g label="BGC0001431" description="BGC0001431_c1: myxochromide S (16% of genes show similarity), NRP:Cyclic depsipeptide+Polyketide:Iterative type I polyketide" class="clusterblast-cluster"  >
<text x="5" y="70" class="clusterblast-acc"  >
<a xlink:href="https://mibig.secondarymetabolites.org/go/BGC0001431/1" target="_blank">BGC0001431</a>: myxochromide S                                                                   (16% of genes show similarity), NRP:Cyclic depsipeptide+Polyketide:Iterative type I polyketide</text>
<line x1="10" y1="85" x2="778.0" y2="85" style="stroke-width:1; stroke:grey; "  />
</g>
<g id="a1_000"  >
<polygon points="0,85 5,80 42,80 42,90 5,90 0,85 " style="fill:white; stroke-width:1; stroke:black; " description="&lt;b&gt;APZ78840.1&lt;/b&gt;&lt;br&gt;cation/H(+) antiporter&lt;br&gt;Location: 1 - 2151" locus_tag="APZ78840.1" class="clusterblast-orf" id="knownclusterblast-1_all_1_1_0"  />
</g>
<g id="a1_001"  >
<polygon points="44,85 49,80 67,80 67,90 49,90 44,85 " style="fill:#d81515; stroke-width:1; stroke:black; " description="&lt;b&gt;APZ78841.1&lt;/b&gt;&lt;br&gt;hydrolase&lt;br&gt;Location: 2272 - 3477&lt;br&gt;&lt;br&gt;&lt;b&gt;BlastP hit with ctg1_205&lt;/b&gt;&lt;br&gt;Percentage identity: 46&lt;br&gt;Percentage coverage: 89&lt;br&gt;BLAST bit score: 300&lt;br&gt;E-value: 4.9e-99" locus_tag="APZ78841.1" class="clusterblast-orf" id="knownclusterblast-1_all_1_1_1"  />
</g>
<g id="a1_002"  >
<polygon points="68,85 73,80 117,80 117,90 73,90 68,85 " style="fill:white; stroke-width:1; stroke:black; " description="&lt;b&gt;APZ78842.1&lt;/b&gt;&lt;br&gt;ABC transporter permease&lt;br&gt;Location: 3481 - 6021" locus_tag="APZ78842.1" class="clusterblast-orf" id="knownclusterblast-1_all_1_1_2"  />
</g>
<g id="a1_003"  >
<polygon points="117,85 122,80 131,80 131,90 122,90 117,85 " style="fill:#15d8d8; stroke-width:1; stroke:black; " description="&lt;b&gt;APZ78843.1&lt;/b&gt;&lt;br&gt;ABC transporter ATP-binding protein&lt;br&gt;Location: 6018 - 6719&lt;br&gt;&lt;br&gt;&lt;b&gt;BlastP hit with ctg1_206&lt;/b&gt;&lt;br&gt;Percentage identity: 55&lt;br&gt;Percentage coverage: 100&lt;br&gt;BLAST bit score: 213&lt;br&gt;E-value: 8.89e-70" locus_tag="APZ78843.1" class="clusterblast-orf" id="knownclusterblast-1_all_1_1_3"  />
</g>
<g id="a1_004"  >
<polygon points="138,90 260,90 265,85 260,80 138,80 138,90 " style="fill:white; stroke-width:1; stroke:black; " description="&lt;b&gt;APZ78844.1&lt;/b&gt;&lt;br&gt;polyketide synthase&lt;br&gt;Location: 7084 - 13584" locus_tag="APZ78844.1" class="clusterblast-orf" id="knownclusterblast-1_all_1_1_4"  />
</g>
<g id="a1_005"  >
<polygon points="265,90 439,90 444,85 439,80 265,80 265,90 " style="fill:white; stroke-width:1; stroke:black; " description="&lt;b&gt;APZ78845.1&lt;/b&gt;&lt;br&gt;nonribosomal peptide synthetase&lt;br&gt;Location: 13581 - 22754" locus_tag="APZ78845.1" class="clusterblast-orf" id="knownclusterblast-1_all_1_1_5"  />
</g>
<g id="a1_006"  >
<polygon points="445,90 702,90 707,85 702,80 445,80 445,90 " style="fill:white; stroke-width:1; stroke:black; " description="&lt;b&gt;APZ78846.1&lt;/b&gt;&lt;br&gt;nonribosomal peptide synthetase&lt;br&gt;Location: 22789 - 36195" locus_tag="APZ78846.1" class="clusterblast-orf" id="knownclusterblast-1_all_1_1_6"  />
</g>
<g id="a1_007"  >
<polygon points="707,90 714,90 719,85 714,80 707,80 707,90 " style="fill:white; stroke-width:1; stroke:black; " description="&lt;b&gt;APZ78847.1&lt;/b&gt;&lt;br&gt;membrane protein&lt;br&gt;Location: 36199 - 36807" locus_tag="APZ78847.1" class="clusterblast-orf" id="knownclusterblast-1_all_1_1_7"  />
</g>
<g id="a1_008"  >
<polygon points="716,85 721,80 732,80 732,90 721,90 716,85 " style="fill:white; stroke-width:1; stroke:black; " description="&lt;b&gt;APZ78848.1&lt;/b&gt;&lt;br&gt;alpha/beta hydrolase&lt;br&gt;Location: 36661 - 37479" locus_tag="APZ78848.1" class="clusterblast-orf" id="knownclusterblast-1_all_1_1_8"  />
</g>
<g id="a1_009"  >
<polygon points="736,90 746,90 751,85 746,80 736,80 736,90 " style="fill:white; stroke-width:1; stroke:black; " description="&lt;b&gt;APZ78849.1&lt;/b&gt;&lt;br&gt;uncharacterized protein&lt;br&gt;Location: 37649 - 38407" locus_tag="APZ78849.1" class="clusterblast-orf" id="knownclusterblast-1_all_1_1_9"  />
</g>
<g id="a1_0010"  >
<polygon points="751,90 764,90 769,85 764,80 751,80 751,90 " style="fill:white; stroke-width:1; stroke:black; " description="&lt;b&gt;APZ78850.1&lt;/b&gt;&lt;br&gt;coproporphyrinogen III oxidase&lt;br&gt;Location: 38416 - 39339" locus_tag="APZ78850.1" class="clusterblast-orf" id="knownclusterblast-1_all_1_1_10"  />
</g>
<g id="a1_0011"  >
<polygon points="769,90 775,90 780,85 775,80 769,80 769,90 " style="fill:white; stroke-width:1; stroke:black; " description="&lt;b&gt;APZ78851.1&lt;/b&gt;&lt;br&gt;uncharacterized protein&lt;br&gt;Location: 39343 - 39885" locus_tag="APZ78851.1" class="clusterblast-orf" id="knownclusterblast-1_all_1_1_11"  />
</g>
</svg>
