<svg xmlns="http://www.w3.org/2000/svg" xmlns:xlink="http://www.w3.org/1999/xlink" version="1.1" x="0" y="0" height="50" width="800" viewBox="0 0 800 50" preserveAspectRatio="none"  >
<g label="Query sequence" class="clusterblast-cluster"  >
<text x="5" y="20" class="clusterblast-acc"  >
Query sequence</text>
<line x1="10" y1="35" x2="778.0" y2="35" style="stroke-width:1; stroke:grey; "  />
<polygon points="0,35 5,30 64,30 64,40 5,40 0,35 " style="fill:white; stroke-width:1; stroke:black; " description="&lt;b&gt;ctg4_155&lt;/b&gt;&lt;br&gt;ctg4 155&lt;br&gt;Location: 165014 - 166421" locus_tag="ctg4_155" class="clusterblast-orf" id="knownclusterblast-1_q0_0_all"  />
<polygon points="80,40 120,40 125,35 120,30 80,30 80,40 " style="fill:white; stroke-width:1; stroke:black; " description="&lt;b&gt;ctg4_156&lt;/b&gt;&lt;br&gt;ctg4 156&lt;br&gt;Location: 166775 - 167777" locus_tag="ctg4_156" class="clusterblast-orf" id="knownclusterblast-1_q1_0_all"  />
<polygon points="141,35 146,30 164,30 164,40 146,40 141,35 " style="fill:white; stroke-width:1; stroke:black; " description="&lt;b&gt;ctg4_157&lt;/b&gt;&lt;br&gt;ctg4 157&lt;br&gt;Location: 168128 - 168641" locus_tag="ctg4_157" class="clusterblast-orf" id="knownclusterblast-1_q2_0_all"  />
<polygon points="163,35 168,30 214,30 214,40 168,40 163,35 " style="fill:white; stroke-width:1; stroke:black; " description="&lt;b&gt;ctg4_158&lt;/b&gt;&lt;br&gt;ctg4 158&lt;br&gt;Location: 168615 - 169737" locus_tag="ctg4_158" class="clusterblast-orf" id="knownclusterblast-1_q3_0_all"  />
<polygon points="214,35 219,30 245,30 245,40 219,40 214,35 " style="fill:white; stroke-width:1; stroke:black; " description="&lt;b&gt;ctg4_159&lt;/b&gt;&lt;br&gt;ctg4 159&lt;br&gt;Location: 169733 - 170423" locus_tag="ctg4_159" class="clusterblast-orf" id="knownclusterblast-1_q4_0_all"  />
<polygon points="245,35 250,30 293,30 293,40 250,40 245,35 " style="fill:white; stroke-width:1; stroke:black; " description="&lt;b&gt;ctg4_160&lt;/b&gt;&lt;br&gt;ctg4 160&lt;br&gt;Location: 170419 - 171475" locus_tag="ctg4_160" class="clusterblast-orf" id="knownclusterblast-1_q5_0_all"  />
<polygon points="298,40 311,40 316,35 311,30 298,30 298,40 " style="fill:white; stroke-width:1; stroke:black; " description="&lt;b&gt;ctg4_161&lt;/b&gt;&lt;br&gt;ctg4 161&lt;br&gt;Location: 171589 - 171979" locus_tag="ctg4_161" class="clusterblast-orf" id="knownclusterblast-1_q6_0_all"  />
<polygon points="316,35 321,30 332,30 332,40 321,40 316,35 " style="fill:white; stroke-width:1; stroke:black; " description="&lt;b&gt;ctg4_162&lt;/b&gt;&lt;br&gt;ctg4 162&lt;br&gt;Location: 171987 - 172332" locus_tag="ctg4_162" class="clusterblast-orf" id="knownclusterblast-1_q7_0_all"  />
<polygon points="339,40 364,40 369,35 364,30 339,30 339,40 " style="fill:white; stroke-width:1; stroke:black; " description="&lt;b&gt;ctg4_163&lt;/b&gt;&lt;br&gt;ctg4 163&lt;br&gt;Location: 172488 - 173154" locus_tag="ctg4_163" class="clusterblast-orf" id="knownclusterblast-1_q8_0_all"  />
<polygon points="372,35 377,30 385,30 385,40 377,40 372,35 " style="fill:white; stroke-width:1; stroke:black; " description="&lt;b&gt;ctg4_164&lt;/b&gt;&lt;br&gt;ctg4 164&lt;br&gt;Location: 173232 - 173517" locus_tag="ctg4_164" class="clusterblast-orf" id="knownclusterblast-1_q9_0_all"  />
<polygon points="389,40 424,40 429,35 424,30 389,30 389,40 " style="fill:white; stroke-width:1; stroke:black; " description="&lt;b&gt;ctg4_165&lt;/b&gt;&lt;br&gt;ctg4 165&lt;br&gt;Location: 173600 - 174473" locus_tag="ctg4_165" class="clusterblast-orf" id="knownclusterblast-1_q10_0_all"  />
<polygon points="428,35 433,30 455,30 455,40 433,40 428,35 " style="fill:white; stroke-width:1; stroke:black; " description="&lt;b&gt;ctg4_166&lt;/b&gt;&lt;br&gt;ctg4 166&lt;br&gt;Location: 174456 - 175053" locus_tag="ctg4_166" class="clusterblast-orf" id="knownclusterblast-1_q11_0_all"  />
<polygon points="455,35 460,30 488,30 488,40 460,40 455,35 " style="fill:white; stroke-width:1; stroke:black; " description="&lt;b&gt;ctg4_167&lt;/b&gt;&lt;br&gt;ctg4 167&lt;br&gt;Location: 175056 - 175788" locus_tag="ctg4_167" class="clusterblast-orf" id="knownclusterblast-1_q12_0_all"  />
<polygon points="494,40 542,40 547,35 542,30 494,30 494,40 " style="fill:white; stroke-width:1; stroke:black; " description="&lt;b&gt;ctg4_168&lt;/b&gt;&lt;br&gt;ctg4 168&lt;br&gt;Location: 175916 - 177092" locus_tag="ctg4_168" class="clusterblast-orf" id="knownclusterblast-1_q13_0_all"  />
<polygon points="547,40 573,40 578,35 573,30 547,30 547,40 " style="fill:white; stroke-width:1; stroke:black; " description="&lt;b&gt;ctg4_169&lt;/b&gt;&lt;br&gt;ctg4 169&lt;br&gt;Location: 177088 - 177769" locus_tag="ctg4_169" class="clusterblast-orf" id="knownclusterblast-1_q14_0_all"  />
<polygon points="577,40 609,40 614,35 609,30 577,30 577,40 " style="fill:white; stroke-width:1; stroke:black; " description="&lt;b&gt;ctg4_170&lt;/b&gt;&lt;br&gt;ctg4 170&lt;br&gt;Location: 177740 - 178559" locus_tag="ctg4_170" class="clusterblast-orf" id="knownclusterblast-1_q15_0_all"  />
<polygon points="614,40 685,40 690,35 685,30 614,30 614,40 " style="fill:white; stroke-width:1; stroke:black; " description="&lt;b&gt;ctg4_171&lt;/b&gt;&lt;br&gt;ctg4 171&lt;br&gt;Location: 178566 - 180243" locus_tag="ctg4_171" class="clusterblast-orf" id="knownclusterblast-1_q16_0_all"  />
<polygon points="695,40 724,40 729,35 724,30 695,30 695,40 " style="fill:white; stroke-width:1; stroke:black; " description="&lt;b&gt;ctg4_172&lt;/b&gt;&lt;br&gt;ctg4 172&lt;br&gt;Location: 180361 - 181102" locus_tag="ctg4_172" class="clusterblast-orf" id="knownclusterblast-1_q17_0_all"  />
<polygon points="730,40 755,40 760,35 755,30 730,30 730,40 " style="fill:white; stroke-width:1; stroke:black; " description="&lt;b&gt;ctg4_173&lt;/b&gt;&lt;br&gt;ctg4 173&lt;br&gt;Location: 181123 - 181789" locus_tag="ctg4_173" class="clusterblast-orf" id="knownclusterblast-1_q18_0_all"  />
<polygon points="768,40 775,40 780,35 775,30 768,30 768,40 " style="fill:white; stroke-width:1; stroke:black; " description="&lt;b&gt;ctg4_174&lt;/b&gt;&lt;br&gt;ctg4 174&lt;br&gt;Location: 181974 - 182229" locus_tag="ctg4_174" class="clusterblast-orf" id="knownclusterblast-1_q19_0_all"  />
</g>
</svg>
