<svg xmlns="http://www.w3.org/2000/svg" xmlns:xlink="http://www.w3.org/1999/xlink" version="1.1" x="0" y="0" height="50" width="800" viewBox="0 0 800 50" preserveAspectRatio="none"  >
<g label="Query sequence" class="clusterblast-cluster"  >
<text x="5" y="20" class="clusterblast-acc"  >
Query sequence</text>
<line x1="10" y1="35" x2="778.0" y2="35" style="stroke-width:1; stroke:grey; "  />
<polygon points="0,40 2,40 7,35 2,30 0,30 0,40 " style="fill:white; stroke-width:1; stroke:black; " description="&lt;b&gt;ctg81_2&lt;/b&gt;&lt;br&gt;ctg81 2&lt;br&gt;Location: 1022 - 1196" locus_tag="ctg81_2" class="clusterblast-orf" id="knownclusterblast-1_q0_0_all"  />
<polygon points="7,35 12,30 53,30 53,40 12,40 7,35 " style="fill:white; stroke-width:1; stroke:black; " description="&lt;b&gt;ctg81_3&lt;/b&gt;&lt;br&gt;ctg81 3&lt;br&gt;Location: 1192 - 2380" locus_tag="ctg81_3" class="clusterblast-orf" id="knownclusterblast-1_q1_0_all"  />
<polygon points="69,40 71,40 76,35 71,30 69,30 69,40 " style="fill:white; stroke-width:1; stroke:black; " description="&lt;b&gt;ctg81_4&lt;/b&gt;&lt;br&gt;ctg81 4&lt;br&gt;Location: 2785 - 2956" locus_tag="ctg81_4" class="clusterblast-orf" id="knownclusterblast-1_q2_0_all"  />
<polygon points="80,35 85,30 148,30 148,40 85,40 80,35 " style="fill:white; stroke-width:1; stroke:black; " description="&lt;b&gt;ctg81_5&lt;/b&gt;&lt;br&gt;ctg81 5&lt;br&gt;Location: 3066 - 4770" locus_tag="ctg81_5" class="clusterblast-orf" id="knownclusterblast-1_q3_0_all"  />
<polygon points="150,35 155,30 222,30 222,40 155,40 150,35 " style="fill:white; stroke-width:1; stroke:black; " description="&lt;b&gt;ctg81_6&lt;/b&gt;&lt;br&gt;ctg81 6&lt;br&gt;Location: 4833 - 6657" locus_tag="ctg81_6" class="clusterblast-orf" id="knownclusterblast-1_q4_0_all"  />
<polygon points="222,40 242,40 247,35 242,30 222,30 222,40 " style="fill:white; stroke-width:1; stroke:black; " description="&lt;b&gt;ctg81_7&lt;/b&gt;&lt;br&gt;ctg81 7&lt;br&gt;Location: 6663 - 7299" locus_tag="ctg81_7" class="clusterblast-orf" id="knownclusterblast-1_q5_0_all"  />
<polygon points="262,40 269,40 274,35 269,30 262,30 262,40 " style="fill:white; stroke-width:1; stroke:black; " description="&lt;b&gt;ctg81_8&lt;/b&gt;&lt;br&gt;ctg81 8&lt;br&gt;Location: 7680 - 7980" locus_tag="ctg81_8" class="clusterblast-orf" id="knownclusterblast-1_q6_0_all"  />
<polygon points="275,40 275,40 280,35 275,30 275,30 275,40 " style="fill:white; stroke-width:1; stroke:black; " description="&lt;b&gt;ctg81_9&lt;/b&gt;&lt;br&gt;ctg81 9&lt;br&gt;Location: 8001 - 8142" locus_tag="ctg81_9" class="clusterblast-orf" id="knownclusterblast-1_q7_0_all"  />
<polygon points="305,40 309,40 314,35 309,30 305,30 305,40 " style="fill:white; stroke-width:1; stroke:black; " description="&lt;b&gt;ctg81_10&lt;/b&gt;&lt;br&gt;ctg81 10&lt;br&gt;Location: 8753 - 8981" locus_tag="ctg81_10" class="clusterblast-orf" id="knownclusterblast-1_q8_0_all"  />
<polygon points="313,40 324,40 329,35 324,30 313,30 313,40 " style="fill:white; stroke-width:1; stroke:black; " description="&lt;b&gt;ctg81_11&lt;/b&gt;&lt;br&gt;ctg81 11&lt;br&gt;Location: 8964 - 9381" locus_tag="ctg81_11" class="clusterblast-orf" id="knownclusterblast-1_q9_0_all"  />
<polygon points="332,40 350,40 355,35 350,30 332,30 332,40 " style="fill:white; stroke-width:1; stroke:black; " description="&lt;b&gt;ctg81_12&lt;/b&gt;&lt;br&gt;ctg81 12&lt;br&gt;Location: 9455 - 10022" locus_tag="ctg81_12" class="clusterblast-orf" id="knownclusterblast-1_q10_0_all"  />
<polygon points="356,35 361,30 380,30 380,40 361,40 356,35 " style="fill:white; stroke-width:1; stroke:black; " description="&lt;b&gt;ctg81_13&lt;/b&gt;&lt;br&gt;ctg81 13&lt;br&gt;Location: 10061 - 10673" locus_tag="ctg81_13" class="clusterblast-orf" id="knownclusterblast-1_q11_0_all"  />
<polygon points="390,40 421,40 426,35 421,30 390,30 390,40 " style="fill:white; stroke-width:1; stroke:black; " description="&lt;b&gt;ctg81_14&lt;/b&gt;&lt;br&gt;ctg81 14&lt;br&gt;Location: 10909 - 11836" locus_tag="ctg81_14" class="clusterblast-orf" id="knownclusterblast-1_q12_0_all"  />
<polygon points="427,35 432,30 434,30 434,40 432,40 427,35 " style="fill:white; stroke-width:1; stroke:black; " description="&lt;b&gt;ctg81_15&lt;/b&gt;&lt;br&gt;ctg81 15&lt;br&gt;Location: 11858 - 12032" locus_tag="ctg81_15" class="clusterblast-orf" id="knownclusterblast-1_q13_0_all"  />
<polygon points="441,40 460,40 465,35 460,30 441,30 441,40 " style="fill:white; stroke-width:1; stroke:black; " description="&lt;b&gt;ctg81_16&lt;/b&gt;&lt;br&gt;ctg81 16&lt;br&gt;Location: 12206 - 12833" locus_tag="ctg81_16" class="clusterblast-orf" id="knownclusterblast-1_q14_0_all"  />
<polygon points="465,35 470,30 510,30 510,40 470,40 465,35 " style="fill:white; stroke-width:1; stroke:black; " description="&lt;b&gt;ctg81_17&lt;/b&gt;&lt;br&gt;ctg81 17&lt;br&gt;Location: 12829 - 13966" locus_tag="ctg81_17" class="clusterblast-orf" id="knownclusterblast-1_q15_0_all"  />
<polygon points="521,35 526,30 577,30 577,40 526,40 521,35 " style="fill:white; stroke-width:1; stroke:black; " description="&lt;b&gt;ctg81_18&lt;/b&gt;&lt;br&gt;ctg81 18&lt;br&gt;Location: 14251 - 15673" locus_tag="ctg81_18" class="clusterblast-orf" id="knownclusterblast-1_q16_0_all"  />
<polygon points="584,35 589,30 592,30 592,40 589,40 584,35 " style="fill:white; stroke-width:1; stroke:black; " description="&lt;b&gt;ctg81_19&lt;/b&gt;&lt;br&gt;ctg81 19&lt;br&gt;Location: 15853 - 16036" locus_tag="ctg81_19" class="clusterblast-orf" id="knownclusterblast-1_q17_0_all"  />
<polygon points="592,40 599,40 604,35 599,30 592,30 592,40 " style="fill:white; stroke-width:1; stroke:black; " description="&lt;b&gt;ctg81_20&lt;/b&gt;&lt;br&gt;ctg81 20&lt;br&gt;Location: 16048 - 16354" locus_tag="ctg81_20" class="clusterblast-orf" id="knownclusterblast-1_q18_0_all"  />
<polygon points="602,35 607,30 653,30 653,40 607,40 602,35 " style="fill:white; stroke-width:1; stroke:black; " description="&lt;b&gt;ctg81_21&lt;/b&gt;&lt;br&gt;ctg81 21&lt;br&gt;Location: 16293 - 17595" locus_tag="ctg81_21" class="clusterblast-orf" id="knownclusterblast-1_q19_0_all"  />
<polygon points="653,35 658,30 683,30 683,40 658,40 653,35 " style="fill:white; stroke-width:1; stroke:black; " description="&lt;b&gt;ctg81_22&lt;/b&gt;&lt;br&gt;ctg81 22&lt;br&gt;Location: 17584 - 18352" locus_tag="ctg81_22" class="clusterblast-orf" id="knownclusterblast-1_q20_0_all"  />
<polygon points="683,35 688,30 715,30 715,40 688,40 683,35 " style="fill:white; stroke-width:1; stroke:black; " description="&lt;b&gt;ctg81_23&lt;/b&gt;&lt;br&gt;ctg81 23&lt;br&gt;Location: 18348 - 19167" locus_tag="ctg81_23" class="clusterblast-orf" id="knownclusterblast-1_q21_0_all"  />
<polygon points="715,35 720,30 733,30 733,40 720,40 715,35 " style="fill:white; stroke-width:1; stroke:black; " description="&lt;b&gt;ctg81_24&lt;/b&gt;&lt;br&gt;ctg81 24&lt;br&gt;Location: 19163 - 19628" locus_tag="ctg81_24" class="clusterblast-orf" id="knownclusterblast-1_q22_0_all"  />
<polygon points="733,35 738,30 750,30 750,40 738,40 733,35 " style="fill:white; stroke-width:1; stroke:black; " description="&lt;b&gt;ctg81_25&lt;/b&gt;&lt;br&gt;ctg81 25&lt;br&gt;Location: 19614 - 20046" locus_tag="ctg81_25" class="clusterblast-orf" id="knownclusterblast-1_q23_0_all"  />
<polygon points="767,40 775,40 780,35 775,30 767,30 767,40 " style="fill:white; stroke-width:1; stroke:black; " description="&lt;b&gt;ctg81_26&lt;/b&gt;&lt;br&gt;ctg81 26&lt;br&gt;Location: 20475 - 20814" locus_tag="ctg81_26" class="clusterblast-orf" id="knownclusterblast-1_q24_0_all"  />
</g>
</svg>
