<svg xmlns="http://www.w3.org/2000/svg" xmlns:xlink="http://www.w3.org/1999/xlink" version="1.1" x="0" y="0" height="50" width="800" viewBox="0 0 800 50" preserveAspectRatio="none"  >
<g label="Query sequence" class="clusterblast-cluster"  >
<text x="5" y="20" class="clusterblast-acc"  >
Query sequence</text>
<line x1="10" y1="35" x2="778.0" y2="35" style="stroke-width:1; stroke:grey; "  />
<polygon points="0,35 5,30 99,30 99,40 5,40 0,35 " style="fill:white; stroke-width:1; stroke:black; " description="&lt;b&gt;ctg6_60&lt;/b&gt;&lt;br&gt;ctg6 60&lt;br&gt;Location: 55851 - 58416" locus_tag="ctg6_60" class="clusterblast-orf" id="subclusterblast-1_q0_0_all"  />
<polygon points="103,40 168,40 173,35 168,30 103,30 103,40 " style="fill:white; stroke-width:1; stroke:black; " description="&lt;b&gt;ctg6_61&lt;/b&gt;&lt;br&gt;ctg6 61&lt;br&gt;Location: 58516 - 60340" locus_tag="ctg6_61" class="clusterblast-orf" id="subclusterblast-1_q1_0_all"  />
<polygon points="173,40 219,40 224,35 219,30 173,30 173,40 " style="fill:white; stroke-width:1; stroke:black; " description="&lt;b&gt;ctg6_62&lt;/b&gt;&lt;br&gt;ctg6 62&lt;br&gt;Location: 60333 - 61644" locus_tag="ctg6_62" class="clusterblast-orf" id="subclusterblast-1_q2_0_all"  />
<polygon points="221,35 226,30 254,30 254,40 226,40 221,35 " style="fill:white; stroke-width:1; stroke:black; " description="&lt;b&gt;ctg6_63&lt;/b&gt;&lt;br&gt;ctg6 63&lt;br&gt;Location: 61585 - 62416" locus_tag="ctg6_63" class="clusterblast-orf" id="subclusterblast-1_q3_0_all"  />
<polygon points="256,40 260,40 265,35 260,30 256,30 256,40 " style="fill:white; stroke-width:1; stroke:black; " description="&lt;b&gt;ctg6_64&lt;/b&gt;&lt;br&gt;ctg6 64&lt;br&gt;Location: 62481 - 62703" locus_tag="ctg6_64" class="clusterblast-orf" id="subclusterblast-1_q4_0_all"  />
<polygon points="265,35 270,30 342,30 342,40 270,40 265,35 " style="fill:white; stroke-width:1; stroke:black; " description="&lt;b&gt;ctg6_65&lt;/b&gt;&lt;br&gt;ctg6 65&lt;br&gt;Location: 62710 - 64699" locus_tag="ctg6_65" class="clusterblast-orf" id="subclusterblast-1_q5_0_all"  />
<polygon points="345,35 349,30 349,40 345,35 " style="fill:white; stroke-width:1; stroke:black; " description="&lt;b&gt;ctg6_66&lt;/b&gt;&lt;br&gt;ctg6 66&lt;br&gt;Location: 64775 - 64880" locus_tag="ctg6_66" class="clusterblast-orf" id="subclusterblast-1_q6_0_all"  />
<polygon points="350,35 355,30 384,30 384,40 355,40 350,35 " style="fill:white; stroke-width:1; stroke:black; " description="&lt;b&gt;ctg6_67&lt;/b&gt;&lt;br&gt;ctg6 67&lt;br&gt;Location: 64905 - 65793" locus_tag="ctg6_67" class="clusterblast-orf" id="subclusterblast-1_q7_0_all"  />
<polygon points="384,35 389,30 394,30 394,40 389,40 384,35 " style="fill:white; stroke-width:1; stroke:black; " description="&lt;b&gt;ctg6_68&lt;/b&gt;&lt;br&gt;ctg6 68&lt;br&gt;Location: 65779 - 66055" locus_tag="ctg6_68" class="clusterblast-orf" id="subclusterblast-1_q8_0_all"  />
<polygon points="395,35 400,30 438,30 438,40 400,40 395,35 " style="fill:white; stroke-width:1; stroke:black; " description="&lt;b&gt;ctg6_69&lt;/b&gt;&lt;br&gt;ctg6 69&lt;br&gt;Location: 66072 - 67182" locus_tag="ctg6_69" class="clusterblast-orf" id="subclusterblast-1_q9_0_all"  />
<polygon points="444,35 449,30 460,30 460,40 449,40 444,35 " style="fill:white; stroke-width:1; stroke:black; " description="&lt;b&gt;ctg6_70&lt;/b&gt;&lt;br&gt;ctg6 70&lt;br&gt;Location: 67341 - 67770" locus_tag="ctg6_70" class="clusterblast-orf" id="subclusterblast-1_q10_0_all"  />
<polygon points="461,35 466,30 612,30 612,40 466,40 461,35 " style="fill:white; stroke-width:1; stroke:black; " description="&lt;b&gt;ctg6_71&lt;/b&gt;&lt;br&gt;ctg6 71&lt;br&gt;Location: 67777 - 71680" locus_tag="ctg6_71" class="clusterblast-orf" id="subclusterblast-1_q11_0_all"  />
<polygon points="619,35 624,30 686,30 686,40 624,40 619,35 " style="fill:white; stroke-width:1; stroke:black; " description="&lt;b&gt;ctg6_72&lt;/b&gt;&lt;br&gt;ctg6 72&lt;br&gt;Location: 71877 - 73599" locus_tag="ctg6_72" class="clusterblast-orf" id="subclusterblast-1_q12_0_all"  />
<polygon points="686,40 775,40 780,35 775,30 686,30 686,40 " style="fill:white; stroke-width:1; stroke:black; " description="&lt;b&gt;ctg6_73&lt;/b&gt;&lt;br&gt;ctg6 73&lt;br&gt;Location: 73616 - 76037" locus_tag="ctg6_73" class="clusterblast-orf" id="subclusterblast-1_q13_0_all"  />
</g>
</svg>
