<svg xmlns="http://www.w3.org/2000/svg" xmlns:xlink="http://www.w3.org/1999/xlink" version="1.1" x="0" y="0" height="50" width="800" viewBox="0 0 800 50" preserveAspectRatio="none"  >
<g label="Query sequence" class="clusterblast-cluster"  >
<text x="5" y="20" class="clusterblast-acc"  >
Query sequence</text>
<line x1="10" y1="35" x2="778.0" y2="35" style="stroke-width:1; stroke:grey; "  />
<polygon points="0,35 5,30 19,30 19,40 5,40 0,35 " style="fill:white; stroke-width:1; stroke:black; " description="&lt;b&gt;ctg126_1&lt;/b&gt;&lt;br&gt;ctg126 1&lt;br&gt;Location: 75 - 495" locus_tag="ctg126_1" class="clusterblast-orf" id="subclusterblast-1_q0_0_all"  />
<polygon points="27,40 88,40 93,35 88,30 27,30 27,40 " style="fill:white; stroke-width:1; stroke:black; " description="&lt;b&gt;ctg126_2&lt;/b&gt;&lt;br&gt;ctg126 2&lt;br&gt;Location: 658 - 2095" locus_tag="ctg126_2" class="clusterblast-orf" id="subclusterblast-1_q1_0_all"  />
<polygon points="93,40 131,40 136,35 131,30 93,30 93,40 " style="fill:white; stroke-width:1; stroke:black; " description="&lt;b&gt;ctg126_3&lt;/b&gt;&lt;br&gt;ctg126 3&lt;br&gt;Location: 2091 - 3024" locus_tag="ctg126_3" class="clusterblast-orf" id="subclusterblast-1_q2_0_all"  />
<polygon points="136,40 176,40 181,35 176,30 136,30 136,40 " style="fill:white; stroke-width:1; stroke:black; " description="&lt;b&gt;ctg126_4&lt;/b&gt;&lt;br&gt;ctg126 4&lt;br&gt;Location: 3020 - 3986" locus_tag="ctg126_4" class="clusterblast-orf" id="subclusterblast-1_q3_0_all"  />
<polygon points="182,35 187,30 208,30 208,40 187,40 182,35 " style="fill:white; stroke-width:1; stroke:black; " description="&lt;b&gt;ctg126_5&lt;/b&gt;&lt;br&gt;ctg126 5&lt;br&gt;Location: 4006 - 4588" locus_tag="ctg126_5" class="clusterblast-orf" id="subclusterblast-1_q4_0_all"  />
<polygon points="209,35 214,30 319,30 319,40 214,40 209,35 " style="fill:white; stroke-width:1; stroke:black; " description="&lt;b&gt;ctg126_6&lt;/b&gt;&lt;br&gt;ctg126 6&lt;br&gt;Location: 4601 - 6980" locus_tag="ctg126_6" class="clusterblast-orf" id="subclusterblast-1_q5_0_all"  />
<polygon points="319,35 324,30 354,30 354,40 324,40 319,35 " style="fill:white; stroke-width:1; stroke:black; " description="&lt;b&gt;ctg126_7&lt;/b&gt;&lt;br&gt;ctg126 7&lt;br&gt;Location: 6976 - 7750" locus_tag="ctg126_7" class="clusterblast-orf" id="subclusterblast-1_q6_0_all"  />
<polygon points="354,35 359,30 387,30 387,40 359,40 354,35 " style="fill:white; stroke-width:1; stroke:black; " description="&lt;b&gt;ctg126_8&lt;/b&gt;&lt;br&gt;ctg126 8&lt;br&gt;Location: 7731 - 8460" locus_tag="ctg126_8" class="clusterblast-orf" id="subclusterblast-1_q7_0_all"  />
<polygon points="387,35 392,30 465,30 465,40 392,40 387,35 " style="fill:white; stroke-width:1; stroke:black; " description="&lt;b&gt;ctg126_9&lt;/b&gt;&lt;br&gt;ctg126 9&lt;br&gt;Location: 8456 - 10154" locus_tag="ctg126_9" class="clusterblast-orf" id="subclusterblast-1_q8_0_all"  />
<polygon points="468,35 473,30 511,30 511,40 473,40 468,35 " style="fill:white; stroke-width:1; stroke:black; " description="&lt;b&gt;ctg126_10&lt;/b&gt;&lt;br&gt;ctg126 10&lt;br&gt;Location: 10204 - 11146" locus_tag="ctg126_10" class="clusterblast-orf" id="subclusterblast-1_q9_0_all"  />
<polygon points="511,35 516,30 562,30 562,40 516,40 511,35 " style="fill:white; stroke-width:1; stroke:black; " description="&lt;b&gt;ctg126_11&lt;/b&gt;&lt;br&gt;ctg126 11&lt;br&gt;Location: 11146 - 12238" locus_tag="ctg126_11" class="clusterblast-orf" id="subclusterblast-1_q10_0_all"  />
<polygon points="564,35 569,30 635,30 635,40 569,40 564,35 " style="fill:white; stroke-width:1; stroke:black; " description="&lt;b&gt;ctg126_12&lt;/b&gt;&lt;br&gt;ctg126 12&lt;br&gt;Location: 12282 - 13824" locus_tag="ctg126_12" class="clusterblast-orf" id="subclusterblast-1_q11_0_all"  />
<polygon points="637,35 642,30 705,30 705,40 642,40 637,35 " style="fill:white; stroke-width:1; stroke:black; " description="&lt;b&gt;ctg126_13&lt;/b&gt;&lt;br&gt;ctg126 13&lt;br&gt;Location: 13876 - 15337" locus_tag="ctg126_13" class="clusterblast-orf" id="subclusterblast-1_q12_0_all"  />
<polygon points="719,40 729,40 734,35 729,30 719,30 719,40 " style="fill:white; stroke-width:1; stroke:black; " description="&lt;b&gt;ctg126_14&lt;/b&gt;&lt;br&gt;ctg126 14&lt;br&gt;Location: 15637 - 15979" locus_tag="ctg126_14" class="clusterblast-orf" id="subclusterblast-1_q13_0_all"  />
<polygon points="738,40 775,40 780,35 775,30 738,30 738,40 " style="fill:white; stroke-width:1; stroke:black; " description="&lt;b&gt;ctg126_15&lt;/b&gt;&lt;br&gt;ctg126 15&lt;br&gt;Location: 16052 - 16964" locus_tag="ctg126_15" class="clusterblast-orf" id="subclusterblast-1_q14_0_all"  />
</g>
</svg>
