<svg xmlns="http://www.w3.org/2000/svg" xmlns:xlink="http://www.w3.org/1999/xlink" version="1.1" x="0" y="0" height="50" width="800" viewBox="0 0 800 50" preserveAspectRatio="none"  >
<g label="Query sequence" class="clusterblast-cluster"  >
<text x="5" y="20" class="clusterblast-acc"  >
Query sequence</text>
<line x1="10" y1="35" x2="778.0" y2="35" style="stroke-width:1; stroke:grey; "  />
<polygon points="0,40 92,40 97,35 92,30 0,30 0,40 " style="fill:white; stroke-width:1; stroke:black; " description="&lt;b&gt;ctg14_57&lt;/b&gt;&lt;br&gt;ctg14 57&lt;br&gt;Location: 54082 - 55654" locus_tag="ctg14_57" class="clusterblast-orf" id="subclusterblast-1_q0_0_all"  />
<polygon points="96,40 104,40 109,35 104,30 96,30 96,40 " style="fill:white; stroke-width:1; stroke:black; " description="&lt;b&gt;ctg14_58&lt;/b&gt;&lt;br&gt;ctg14 58&lt;br&gt;Location: 55646 - 55853" locus_tag="ctg14_58" class="clusterblast-orf" id="subclusterblast-1_q1_0_all"  />
<polygon points="114,40 173,40 178,35 173,30 114,30 114,40 " style="fill:white; stroke-width:1; stroke:black; " description="&lt;b&gt;ctg14_59&lt;/b&gt;&lt;br&gt;ctg14 59&lt;br&gt;Location: 55931 - 56981" locus_tag="ctg14_59" class="clusterblast-orf" id="subclusterblast-1_q2_0_all"  />
<polygon points="179,35 184,30 292,30 292,40 184,40 179,35 " style="fill:white; stroke-width:1; stroke:black; " description="&lt;b&gt;ctg14_60&lt;/b&gt;&lt;br&gt;ctg14 60&lt;br&gt;Location: 56985 - 58830" locus_tag="ctg14_60" class="clusterblast-orf" id="subclusterblast-1_q3_0_all"  />
<polygon points="300,40 399,40 404,35 399,30 300,30 300,40 " style="fill:white; stroke-width:1; stroke:black; " description="&lt;b&gt;ctg14_61&lt;/b&gt;&lt;br&gt;ctg14 61&lt;br&gt;Location: 58956 - 60651" locus_tag="ctg14_61" class="clusterblast-orf" id="subclusterblast-1_q4_0_all"  />
<polygon points="404,40 498,40 503,35 498,30 404,30 404,40 " style="fill:white; stroke-width:1; stroke:black; " description="&lt;b&gt;ctg14_62&lt;/b&gt;&lt;br&gt;ctg14 62&lt;br&gt;Location: 60647 - 62258" locus_tag="ctg14_62" class="clusterblast-orf" id="subclusterblast-1_q5_0_all"  />
<polygon points="508,35 513,30 535,30 535,40 513,40 508,35 " style="fill:white; stroke-width:1; stroke:black; " description="&lt;b&gt;ctg14_63&lt;/b&gt;&lt;br&gt;ctg14 63&lt;br&gt;Location: 62341 - 62773" locus_tag="ctg14_63" class="clusterblast-orf" id="subclusterblast-1_q6_0_all"  />
<polygon points="535,35 540,30 560,30 560,40 540,40 535,35 " style="fill:white; stroke-width:1; stroke:black; " description="&lt;b&gt;ctg14_64&lt;/b&gt;&lt;br&gt;ctg14 64&lt;br&gt;Location: 62778 - 63189" locus_tag="ctg14_64" class="clusterblast-orf" id="subclusterblast-1_q7_0_all"  />
<polygon points="560,35 565,30 591,30 591,40 565,40 560,35 " style="fill:white; stroke-width:1; stroke:black; " description="&lt;b&gt;ctg14_65&lt;/b&gt;&lt;br&gt;ctg14 65&lt;br&gt;Location: 63185 - 63686" locus_tag="ctg14_65" class="clusterblast-orf" id="subclusterblast-1_q8_0_all"  />
<polygon points="607,35 612,30 650,30 650,40 612,40 607,35 " style="fill:white; stroke-width:1; stroke:black; " description="&lt;b&gt;ctg14_66&lt;/b&gt;&lt;br&gt;ctg14 66&lt;br&gt;Location: 63941 - 64637" locus_tag="ctg14_66" class="clusterblast-orf" id="subclusterblast-1_q9_0_all"  />
<polygon points="649,35 654,30 672,30 672,40 654,40 649,35 " style="fill:white; stroke-width:1; stroke:black; " description="&lt;b&gt;ctg14_67&lt;/b&gt;&lt;br&gt;ctg14 67&lt;br&gt;Location: 64630 - 65002" locus_tag="ctg14_67" class="clusterblast-orf" id="subclusterblast-1_q10_0_all"  />
<polygon points="675,35 680,30 704,30 704,40 680,40 675,35 " style="fill:white; stroke-width:1; stroke:black; " description="&lt;b&gt;ctg14_68&lt;/b&gt;&lt;br&gt;ctg14 68&lt;br&gt;Location: 65047 - 65527" locus_tag="ctg14_68" class="clusterblast-orf" id="subclusterblast-1_q11_0_all"  />
<polygon points="704,35 709,30 780,30 780,40 709,40 704,35 " style="fill:white; stroke-width:1; stroke:black; " description="&lt;b&gt;ctg14_69&lt;/b&gt;&lt;br&gt;ctg14 69&lt;br&gt;Location: 65523 - 66759" locus_tag="ctg14_69" class="clusterblast-orf" id="subclusterblast-1_q12_0_all"  />
</g>
</svg>
