<svg xmlns="http://www.w3.org/2000/svg" xmlns:xlink="http://www.w3.org/1999/xlink" version="1.1" x="0" y="0" height="50" width="800" viewBox="0 0 800 50" preserveAspectRatio="none"  >
<g label="Query sequence" class="clusterblast-cluster"  >
<text x="5" y="20" class="clusterblast-acc"  >
Query sequence</text>
<line x1="10" y1="35" x2="778.0" y2="35" style="stroke-width:1; stroke:grey; "  />
<polygon points="0,40 21,40 26,35 21,30 0,30 0,40 " style="fill:white; stroke-width:1; stroke:black; " description="&lt;b&gt;ctg5_114&lt;/b&gt;&lt;br&gt;ctg5 114&lt;br&gt;Location: 127658 - 128942" locus_tag="ctg5_114" class="clusterblast-orf" id="subclusterblast-1_q0_0_all"  />
<polygon points="26,35 31,30 41,30 41,40 31,40 26,35 " style="fill:white; stroke-width:1; stroke:black; " description="&lt;b&gt;ctg5_115&lt;/b&gt;&lt;br&gt;ctg5 115&lt;br&gt;Location: 128948 - 129647" locus_tag="ctg5_115" class="clusterblast-orf" id="subclusterblast-1_q1_0_all"  />
<polygon points="42,35 47,30 74,30 74,40 47,40 42,35 " style="fill:white; stroke-width:1; stroke:black; " description="&lt;b&gt;ctg5_116&lt;/b&gt;&lt;br&gt;ctg5 116&lt;br&gt;Location: 129702 - 131301" locus_tag="ctg5_116" class="clusterblast-orf" id="subclusterblast-1_q2_0_all"  />
<polygon points="74,35 79,30 92,30 92,40 79,40 74,35 " style="fill:white; stroke-width:1; stroke:black; " description="&lt;b&gt;ctg5_117&lt;/b&gt;&lt;br&gt;ctg5 117&lt;br&gt;Location: 131300 - 132176" locus_tag="ctg5_117" class="clusterblast-orf" id="subclusterblast-1_q3_0_all"  />
<polygon points="92,35 97,30 102,30 102,40 97,40 92,35 " style="fill:white; stroke-width:1; stroke:black; " description="&lt;b&gt;ctg5_118&lt;/b&gt;&lt;br&gt;ctg5 118&lt;br&gt;Location: 132172 - 132625" locus_tag="ctg5_118" class="clusterblast-orf" id="subclusterblast-1_q4_0_all"  />
<polygon points="102,35 107,30 124,30 124,40 107,40 102,35 " style="fill:white; stroke-width:1; stroke:black; " description="&lt;b&gt;ctg5_119&lt;/b&gt;&lt;br&gt;ctg5 119&lt;br&gt;Location: 132621 - 133704" locus_tag="ctg5_119" class="clusterblast-orf" id="subclusterblast-1_q5_0_all"  />
<polygon points="125,35 130,30 143,30 143,40 130,40 125,35 " style="fill:white; stroke-width:1; stroke:black; " description="&lt;b&gt;ctg5_120&lt;/b&gt;&lt;br&gt;ctg5 120&lt;br&gt;Location: 133760 - 134654" locus_tag="ctg5_120" class="clusterblast-orf" id="subclusterblast-1_q6_0_all"  />
<polygon points="145,40 153,40 158,35 153,30 145,30 145,40 " style="fill:white; stroke-width:1; stroke:black; " description="&lt;b&gt;ctg5_121&lt;/b&gt;&lt;br&gt;ctg5 121&lt;br&gt;Location: 134746 - 135370" locus_tag="ctg5_121" class="clusterblast-orf" id="subclusterblast-1_q7_0_all"  />
<polygon points="158,40 177,40 182,35 177,30 158,30 158,40 " style="fill:white; stroke-width:1; stroke:black; " description="&lt;b&gt;ctg5_122&lt;/b&gt;&lt;br&gt;ctg5 122&lt;br&gt;Location: 135360 - 136539" locus_tag="ctg5_122" class="clusterblast-orf" id="subclusterblast-1_q8_0_all"  />
<polygon points="182,40 201,40 206,35 201,30 182,30 182,40 " style="fill:white; stroke-width:1; stroke:black; " description="&lt;b&gt;ctg5_123&lt;/b&gt;&lt;br&gt;ctg5 123&lt;br&gt;Location: 136546 - 137716" locus_tag="ctg5_123" class="clusterblast-orf" id="subclusterblast-1_q9_0_all"  />
<polygon points="207,40 240,40 245,35 240,30 207,30 207,40 " style="fill:white; stroke-width:1; stroke:black; " description="&lt;b&gt;ctg5_124&lt;/b&gt;&lt;br&gt;ctg5 124&lt;br&gt;Location: 137772 - 139629" locus_tag="ctg5_124" class="clusterblast-orf" id="subclusterblast-1_q10_0_all"  />
<polygon points="245,35 250,30 263,30 263,40 250,40 245,35 " style="fill:white; stroke-width:1; stroke:black; " description="&lt;b&gt;ctg5_125&lt;/b&gt;&lt;br&gt;ctg5 125&lt;br&gt;Location: 139625 - 140462" locus_tag="ctg5_125" class="clusterblast-orf" id="subclusterblast-1_q11_0_all"  />
<polygon points="263,35 268,30 282,30 282,40 268,40 263,35 " style="fill:white; stroke-width:1; stroke:black; " description="&lt;b&gt;ctg5_126&lt;/b&gt;&lt;br&gt;ctg5 126&lt;br&gt;Location: 140505 - 141420" locus_tag="ctg5_126" class="clusterblast-orf" id="subclusterblast-1_q12_0_all"  />
<polygon points="283,35 288,30 308,30 308,40 288,40 283,35 " style="fill:white; stroke-width:1; stroke:black; " description="&lt;b&gt;ctg5_127&lt;/b&gt;&lt;br&gt;ctg5 127&lt;br&gt;Location: 141472 - 142660" locus_tag="ctg5_127" class="clusterblast-orf" id="subclusterblast-1_q13_0_all"  />
<polygon points="308,35 313,30 341,30 341,40 313,40 308,35 " style="fill:white; stroke-width:1; stroke:black; " description="&lt;b&gt;ctg5_128&lt;/b&gt;&lt;br&gt;ctg5 128&lt;br&gt;Location: 142665 - 144309" locus_tag="ctg5_128" class="clusterblast-orf" id="subclusterblast-1_q14_0_all"  />
<polygon points="341,35 346,30 347,30 347,40 346,40 341,35 " style="fill:white; stroke-width:1; stroke:black; " description="&lt;b&gt;ctg5_129&lt;/b&gt;&lt;br&gt;ctg5 129&lt;br&gt;Location: 144305 - 144575" locus_tag="ctg5_129" class="clusterblast-orf" id="subclusterblast-1_q15_0_all"  />
<polygon points="346,35 351,30 357,30 357,40 351,40 346,35 " style="fill:white; stroke-width:1; stroke:black; " description="&lt;b&gt;ctg5_130&lt;/b&gt;&lt;br&gt;ctg5 130&lt;br&gt;Location: 144543 - 145080" locus_tag="ctg5_130" class="clusterblast-orf" id="subclusterblast-1_q16_0_all"  />
<polygon points="357,35 362,30 379,30 379,40 362,40 357,35 " style="fill:white; stroke-width:1; stroke:black; " description="&lt;b&gt;ctg5_131&lt;/b&gt;&lt;br&gt;ctg5 131&lt;br&gt;Location: 145083 - 146160" locus_tag="ctg5_131" class="clusterblast-orf" id="subclusterblast-1_q17_0_all"  />
<polygon points="379,35 384,30 397,30 397,40 384,40 379,35 " style="fill:white; stroke-width:1; stroke:black; " description="&lt;b&gt;ctg5_132&lt;/b&gt;&lt;br&gt;ctg5 132&lt;br&gt;Location: 146160 - 147003" locus_tag="ctg5_132" class="clusterblast-orf" id="subclusterblast-1_q18_0_all"  />
<polygon points="398,35 403,30 415,30 415,40 403,40 398,35 " style="fill:white; stroke-width:1; stroke:black; " description="&lt;b&gt;ctg5_133&lt;/b&gt;&lt;br&gt;ctg5 133&lt;br&gt;Location: 147070 - 147907" locus_tag="ctg5_133" class="clusterblast-orf" id="subclusterblast-1_q19_0_all"  />
<polygon points="415,35 420,30 436,30 436,40 420,40 415,35 " style="fill:white; stroke-width:1; stroke:black; " description="&lt;b&gt;ctg5_134&lt;/b&gt;&lt;br&gt;ctg5 134&lt;br&gt;Location: 147903 - 148926" locus_tag="ctg5_134" class="clusterblast-orf" id="subclusterblast-1_q20_0_all"  />
<polygon points="436,35 441,30 469,30 469,40 441,40 436,35 " style="fill:white; stroke-width:1; stroke:black; " description="&lt;b&gt;ctg5_135&lt;/b&gt;&lt;br&gt;ctg5 135&lt;br&gt;Location: 148922 - 150512" locus_tag="ctg5_135" class="clusterblast-orf" id="subclusterblast-1_q21_0_all"  />
<polygon points="469,35 474,30 492,30 492,40 474,40 469,35 " style="fill:white; stroke-width:1; stroke:black; " description="&lt;b&gt;ctg5_136&lt;/b&gt;&lt;br&gt;ctg5 136&lt;br&gt;Location: 150520 - 151642" locus_tag="ctg5_136" class="clusterblast-orf" id="subclusterblast-1_q22_0_all"  />
<polygon points="492,35 497,30 505,30 505,40 497,40 492,35 " style="fill:white; stroke-width:1; stroke:black; " description="&lt;b&gt;ctg5_137&lt;/b&gt;&lt;br&gt;ctg5 137&lt;br&gt;Location: 151651 - 152257" locus_tag="ctg5_137" class="clusterblast-orf" id="subclusterblast-1_q23_0_all"  />
<polygon points="506,40 535,40 540,35 535,30 506,30 506,40 " style="fill:white; stroke-width:1; stroke:black; " description="&lt;b&gt;ctg5_138&lt;/b&gt;&lt;br&gt;ctg5 138&lt;br&gt;Location: 152333 - 154004" locus_tag="ctg5_138" class="clusterblast-orf" id="subclusterblast-1_q24_0_all"  />
<polygon points="540,40 548,40 553,35 548,30 540,30 540,40 " style="fill:white; stroke-width:1; stroke:black; " description="&lt;b&gt;ctg5_139&lt;/b&gt;&lt;br&gt;ctg5 139&lt;br&gt;Location: 154000 - 154591" locus_tag="ctg5_139" class="clusterblast-orf" id="subclusterblast-1_q25_0_all"  />
<polygon points="553,40 570,40 575,35 570,30 553,30 553,40 " style="fill:white; stroke-width:1; stroke:black; " description="&lt;b&gt;ctg5_140&lt;/b&gt;&lt;br&gt;ctg5 140&lt;br&gt;Location: 154631 - 155669" locus_tag="ctg5_140" class="clusterblast-orf" id="subclusterblast-1_q26_0_all"  />
<polygon points="575,35 580,30 586,30 586,40 580,40 575,35 " style="fill:white; stroke-width:1; stroke:black; " description="&lt;b&gt;ctg5_141&lt;/b&gt;&lt;br&gt;ctg5 141&lt;br&gt;Location: 155673 - 156231" locus_tag="ctg5_141" class="clusterblast-orf" id="subclusterblast-1_q27_0_all"  />
<polygon points="587,40 590,40 595,35 590,30 587,30 587,40 " style="fill:white; stroke-width:1; stroke:black; " description="&lt;b&gt;ctg5_142&lt;/b&gt;&lt;br&gt;ctg5 142&lt;br&gt;Location: 156268 - 156640" locus_tag="ctg5_142" class="clusterblast-orf" id="subclusterblast-1_q28_0_all"  />
<polygon points="594,40 603,40 608,35 603,30 594,30 594,40 " style="fill:white; stroke-width:1; stroke:black; " description="&lt;b&gt;ctg5_143&lt;/b&gt;&lt;br&gt;ctg5 143&lt;br&gt;Location: 156633 - 157296" locus_tag="ctg5_143" class="clusterblast-orf" id="subclusterblast-1_q29_0_all"  />
<polygon points="608,40 650,40 655,35 650,30 608,30 608,40 " style="fill:white; stroke-width:1; stroke:black; " description="&lt;b&gt;ctg5_144&lt;/b&gt;&lt;br&gt;ctg5 144&lt;br&gt;Location: 157292 - 159578" locus_tag="ctg5_144" class="clusterblast-orf" id="subclusterblast-1_q30_0_all"  />
<polygon points="655,35 660,30 668,30 668,40 660,40 655,35 " style="fill:white; stroke-width:1; stroke:black; " description="&lt;b&gt;ctg5_145&lt;/b&gt;&lt;br&gt;ctg5 145&lt;br&gt;Location: 159570 - 160221" locus_tag="ctg5_145" class="clusterblast-orf" id="subclusterblast-1_q31_0_all"  />
<polygon points="669,35 674,30 683,30 683,40 674,40 669,35 " style="fill:white; stroke-width:1; stroke:black; " description="&lt;b&gt;ctg5_146&lt;/b&gt;&lt;br&gt;ctg5 146&lt;br&gt;Location: 160250 - 160934" locus_tag="ctg5_146" class="clusterblast-orf" id="subclusterblast-1_q32_0_all"  />
<polygon points="683,35 688,30 724,30 724,40 688,40 683,35 " style="fill:white; stroke-width:1; stroke:black; " description="&lt;b&gt;ctg5_147&lt;/b&gt;&lt;br&gt;ctg5 147&lt;br&gt;Location: 160930 - 162943" locus_tag="ctg5_147" class="clusterblast-orf" id="subclusterblast-1_q33_0_all"  />
<polygon points="733,40 736,40 741,35 736,30 733,30 733,40 " style="fill:white; stroke-width:1; stroke:black; " description="&lt;b&gt;ctg5_148&lt;/b&gt;&lt;br&gt;ctg5 148&lt;br&gt;Location: 163394 - 163784" locus_tag="ctg5_148" class="clusterblast-orf" id="subclusterblast-1_q34_0_all"  />
<polygon points="742,40 775,40 780,35 775,30 742,30 742,40 " style="fill:white; stroke-width:1; stroke:black; " description="&lt;b&gt;ctg5_149&lt;/b&gt;&lt;br&gt;ctg5 149&lt;br&gt;Location: 163798 - 165658" locus_tag="ctg5_149" class="clusterblast-orf" id="subclusterblast-1_q35_0_all"  />
</g>
</svg>
