<svg xmlns="http://www.w3.org/2000/svg" xmlns:xlink="http://www.w3.org/1999/xlink" version="1.1" x="0" y="0" height="50" width="800" viewBox="0 0 800 50" preserveAspectRatio="none"  >
<g label="Query sequence" class="clusterblast-cluster"  >
<text x="5" y="20" class="clusterblast-acc"  >
Query sequence</text>
<line x1="10" y1="35" x2="778.0" y2="35" style="stroke-width:1; stroke:grey; "  />
<polygon points="0,35 5,30 17,30 17,40 5,40 0,35 " style="fill:white; stroke-width:1; stroke:black; " description="&lt;b&gt;ctg1_192&lt;/b&gt;&lt;br&gt;ctg1 192&lt;br&gt;Location: 213831 - 214248" locus_tag="ctg1_192" class="clusterblast-orf" id="subclusterblast-1_q0_0_all"  />
<polygon points="16,35 21,30 52,30 52,40 21,40 16,35 " style="fill:white; stroke-width:1; stroke:black; " description="&lt;b&gt;ctg1_193&lt;/b&gt;&lt;br&gt;ctg1 193&lt;br&gt;Location: 214211 - 215084" locus_tag="ctg1_193" class="clusterblast-orf" id="subclusterblast-1_q1_0_all"  />
<polygon points="55,35 60,30 72,30 72,40 60,40 55,35 " style="fill:white; stroke-width:1; stroke:black; " description="&lt;b&gt;ctg1_194&lt;/b&gt;&lt;br&gt;ctg1 194&lt;br&gt;Location: 215168 - 215579" locus_tag="ctg1_194" class="clusterblast-orf" id="subclusterblast-1_q2_0_all"  />
<polygon points="76,40 104,40 109,35 104,30 76,30 76,40 " style="fill:white; stroke-width:1; stroke:black; " description="&lt;b&gt;ctg1_195&lt;/b&gt;&lt;br&gt;ctg1 195&lt;br&gt;Location: 215672 - 216464" locus_tag="ctg1_195" class="clusterblast-orf" id="subclusterblast-1_q3_0_all"  />
<polygon points="111,35 116,30 163,30 163,40 116,40 111,35 " style="fill:white; stroke-width:1; stroke:black; " description="&lt;b&gt;ctg1_196&lt;/b&gt;&lt;br&gt;ctg1 196&lt;br&gt;Location: 216522 - 217788" locus_tag="ctg1_196" class="clusterblast-orf" id="subclusterblast-1_q4_0_all"  />
<polygon points="168,40 225,40 230,35 225,30 168,30 168,40 " style="fill:white; stroke-width:1; stroke:black; " description="&lt;b&gt;ctg1_197&lt;/b&gt;&lt;br&gt;ctg1 197&lt;br&gt;Location: 217904 - 219398" locus_tag="ctg1_197" class="clusterblast-orf" id="subclusterblast-1_q5_0_all"  />
<polygon points="233,40 246,40 251,35 246,30 233,30 233,40 " style="fill:white; stroke-width:1; stroke:black; " description="&lt;b&gt;ctg1_198&lt;/b&gt;&lt;br&gt;ctg1 198&lt;br&gt;Location: 219479 - 219920" locus_tag="ctg1_198" class="clusterblast-orf" id="subclusterblast-1_q6_0_all"  />
<polygon points="251,40 272,40 277,35 272,30 251,30 251,40 " style="fill:white; stroke-width:1; stroke:black; " description="&lt;b&gt;ctg1_199&lt;/b&gt;&lt;br&gt;ctg1 199&lt;br&gt;Location: 219916 - 220540" locus_tag="ctg1_199" class="clusterblast-orf" id="subclusterblast-1_q7_0_all"  />
<polygon points="276,40 341,40 346,35 341,30 276,30 276,40 " style="fill:white; stroke-width:1; stroke:black; " description="&lt;b&gt;ctg1_200&lt;/b&gt;&lt;br&gt;ctg1 200&lt;br&gt;Location: 220536 - 222228" locus_tag="ctg1_200" class="clusterblast-orf" id="subclusterblast-1_q8_0_all"  />
<polygon points="346,35 351,30 390,30 390,40 351,40 346,35 " style="fill:white; stroke-width:1; stroke:black; " description="&lt;b&gt;ctg1_201&lt;/b&gt;&lt;br&gt;ctg1 201&lt;br&gt;Location: 222224 - 223295" locus_tag="ctg1_201" class="clusterblast-orf" id="subclusterblast-1_q9_0_all"  />
<polygon points="390,35 395,30 433,30 433,40 395,40 390,35 " style="fill:white; stroke-width:1; stroke:black; " description="&lt;b&gt;ctg1_202&lt;/b&gt;&lt;br&gt;ctg1 202&lt;br&gt;Location: 223291 - 224329" locus_tag="ctg1_202" class="clusterblast-orf" id="subclusterblast-1_q10_0_all"  />
<polygon points="433,40 466,40 471,35 466,30 433,30 433,40 " style="fill:white; stroke-width:1; stroke:black; " description="&lt;b&gt;ctg1_203&lt;/b&gt;&lt;br&gt;ctg1 203&lt;br&gt;Location: 224331 - 225246" locus_tag="ctg1_203" class="clusterblast-orf" id="subclusterblast-1_q11_0_all"  />
<polygon points="472,35 477,30 496,30 496,40 477,40 472,35 " style="fill:white; stroke-width:1; stroke:black; " description="&lt;b&gt;ctg1_204&lt;/b&gt;&lt;br&gt;ctg1 204&lt;br&gt;Location: 225271 - 225847" locus_tag="ctg1_204" class="clusterblast-orf" id="subclusterblast-1_q12_0_all"  />
<polygon points="536,35 541,30 583,30 583,40 541,40 536,35 " style="fill:white; stroke-width:1; stroke:black; " description="&lt;b&gt;ctg1_205&lt;/b&gt;&lt;br&gt;ctg1 205&lt;br&gt;Location: 226822 - 227962" locus_tag="ctg1_205" class="clusterblast-orf" id="subclusterblast-1_q13_0_all"  />
<polygon points="583,35 588,30 608,30 608,40 588,40 583,35 " style="fill:white; stroke-width:1; stroke:black; " description="&lt;b&gt;ctg1_206&lt;/b&gt;&lt;br&gt;ctg1 206&lt;br&gt;Location: 227958 - 228564" locus_tag="ctg1_206" class="clusterblast-orf" id="subclusterblast-1_q14_0_all"  />
<polygon points="616,35 621,30 660,30 660,40 621,40 616,35 " style="fill:white; stroke-width:1; stroke:black; " description="&lt;b&gt;ctg1_207&lt;/b&gt;&lt;br&gt;ctg1 207&lt;br&gt;Location: 228757 - 229825" locus_tag="ctg1_207" class="clusterblast-orf" id="subclusterblast-1_q15_0_all"  />
<polygon points="669,40 775,40 780,35 775,30 669,30 669,40 " style="fill:white; stroke-width:1; stroke:black; " description="&lt;b&gt;ctg1_208&lt;/b&gt;&lt;br&gt;ctg1 208&lt;br&gt;Location: 230061 - 232740" locus_tag="ctg1_208" class="clusterblast-orf" id="subclusterblast-1_q16_0_all"  />
</g>
</svg>
