<svg xmlns="http://www.w3.org/2000/svg" xmlns:xlink="http://www.w3.org/1999/xlink" version="1.1" x="0" y="0" height="50" width="800" viewBox="0 0 800 50" preserveAspectRatio="none"  >
<g label="Query sequence" class="clusterblast-cluster"  >
<text x="5" y="20" class="clusterblast-acc"  >
Query sequence</text>
<line x1="10" y1="35" x2="778.0" y2="35" style="stroke-width:1; stroke:grey; "  />
<polygon points="0,35 5,30 7,30 7,40 5,40 0,35 " style="fill:white; stroke-width:1; stroke:black; " description="&lt;b&gt;ctg61_33&lt;/b&gt;&lt;br&gt;ctg61 33&lt;br&gt;Location: 32946 - 33060" locus_tag="ctg61_33" class="clusterblast-orf" id="subclusterblast-1_q0_0_all"  />
<polygon points="3,35 8,30 16,30 16,40 8,40 3,35 " style="fill:white; stroke-width:1; stroke:black; " description="&lt;b&gt;ctg61_34&lt;/b&gt;&lt;br&gt;ctg61 34&lt;br&gt;Location: 33001 - 33220" locus_tag="ctg61_34" class="clusterblast-orf" id="subclusterblast-1_q1_0_all"  />
<polygon points="18,35 23,30 44,30 44,40 23,40 18,35 " style="fill:white; stroke-width:1; stroke:black; " description="&lt;b&gt;ctg61_35&lt;/b&gt;&lt;br&gt;ctg61 35&lt;br&gt;Location: 33253 - 33691" locus_tag="ctg61_35" class="clusterblast-orf" id="subclusterblast-1_q2_0_all"  />
<polygon points="50,35 55,30 81,30 81,40 55,40 50,35 " style="fill:white; stroke-width:1; stroke:black; " description="&lt;b&gt;ctg61_36&lt;/b&gt;&lt;br&gt;ctg61 36&lt;br&gt;Location: 33786 - 34326" locus_tag="ctg61_36" class="clusterblast-orf" id="subclusterblast-1_q3_0_all"  />
<polygon points="100,40 216,40 221,35 216,30 100,30 100,40 " style="fill:white; stroke-width:1; stroke:black; " description="&lt;b&gt;ctg61_37&lt;/b&gt;&lt;br&gt;ctg61 37&lt;br&gt;Location: 34645 - 36694" locus_tag="ctg61_37" class="clusterblast-orf" id="subclusterblast-1_q4_0_all"  />
<polygon points="226,40 285,40 290,35 285,30 226,30 226,40 " style="fill:white; stroke-width:1; stroke:black; " description="&lt;b&gt;ctg61_38&lt;/b&gt;&lt;br&gt;ctg61 38&lt;br&gt;Location: 36775 - 37873" locus_tag="ctg61_38" class="clusterblast-orf" id="subclusterblast-1_q5_0_all"  />
<polygon points="292,40 318,40 323,35 318,30 292,30 292,40 " style="fill:white; stroke-width:1; stroke:black; " description="&lt;b&gt;ctg61_39&lt;/b&gt;&lt;br&gt;ctg61 39&lt;br&gt;Location: 37910 - 38429" locus_tag="ctg61_39" class="clusterblast-orf" id="subclusterblast-1_q6_0_all"  />
<polygon points="324,35 329,30 348,30 348,40 329,40 324,35 " style="fill:white; stroke-width:1; stroke:black; " description="&lt;b&gt;ctg61_40&lt;/b&gt;&lt;br&gt;ctg61 40&lt;br&gt;Location: 38438 - 38852" locus_tag="ctg61_40" class="clusterblast-orf" id="subclusterblast-1_q7_0_all"  />
<polygon points="349,35 354,30 417,30 417,40 354,40 349,35 " style="fill:white; stroke-width:1; stroke:black; " description="&lt;b&gt;ctg61_41&lt;/b&gt;&lt;br&gt;ctg61 41&lt;br&gt;Location: 38875 - 40027" locus_tag="ctg61_41" class="clusterblast-orf" id="subclusterblast-1_q8_0_all"  />
<polygon points="419,35 424,30 458,30 458,40 424,40 419,35 " style="fill:white; stroke-width:1; stroke:black; " description="&lt;b&gt;ctg61_42&lt;/b&gt;&lt;br&gt;ctg61 42&lt;br&gt;Location: 40066 - 40729" locus_tag="ctg61_42" class="clusterblast-orf" id="subclusterblast-1_q9_0_all"  />
<polygon points="458,35 463,30 514,30 514,40 463,40 458,35 " style="fill:white; stroke-width:1; stroke:black; " description="&lt;b&gt;ctg61_43&lt;/b&gt;&lt;br&gt;ctg61 43&lt;br&gt;Location: 40725 - 41664" locus_tag="ctg61_43" class="clusterblast-orf" id="subclusterblast-1_q10_0_all"  />
<polygon points="513,35 518,30 574,30 574,40 518,40 513,35 " style="fill:white; stroke-width:1; stroke:black; " description="&lt;b&gt;ctg61_44&lt;/b&gt;&lt;br&gt;ctg61 44&lt;br&gt;Location: 41660 - 42698" locus_tag="ctg61_44" class="clusterblast-orf" id="subclusterblast-1_q11_0_all"  />
<polygon points="572,35 577,30 596,30 596,40 577,40 572,35 " style="fill:white; stroke-width:1; stroke:black; " description="&lt;b&gt;ctg61_45&lt;/b&gt;&lt;br&gt;ctg61 45&lt;br&gt;Location: 42660 - 43068" locus_tag="ctg61_45" class="clusterblast-orf" id="subclusterblast-1_q12_0_all"  />
<polygon points="598,35 603,30 644,30 644,40 603,40 598,35 " style="fill:white; stroke-width:1; stroke:black; " description="&lt;b&gt;ctg61_46&lt;/b&gt;&lt;br&gt;ctg61 46&lt;br&gt;Location: 43092 - 43878" locus_tag="ctg61_46" class="clusterblast-orf" id="subclusterblast-1_q13_0_all"  />
<polygon points="655,40 703,40 708,35 703,30 655,30 655,40 " style="fill:white; stroke-width:1; stroke:black; " description="&lt;b&gt;ctg61_47&lt;/b&gt;&lt;br&gt;ctg61 47&lt;br&gt;Location: 44058 - 44958" locus_tag="ctg61_47" class="clusterblast-orf" id="subclusterblast-1_q14_0_all"  />
<polygon points="716,35 721,30 780,30 780,40 721,40 716,35 " style="fill:white; stroke-width:1; stroke:black; " description="&lt;b&gt;ctg61_48&lt;/b&gt;&lt;br&gt;ctg61 48&lt;br&gt;Location: 45107 - 46190" locus_tag="ctg61_48" class="clusterblast-orf" id="subclusterblast-1_q15_0_all"  />
</g>
</svg>
