<svg xmlns="http://www.w3.org/2000/svg" xmlns:xlink="http://www.w3.org/1999/xlink" version="1.1" x="0" y="0" height="50" width="800" viewBox="0 0 800 50" preserveAspectRatio="none"  >
<g label="Query sequence" class="clusterblast-cluster"  >
<text x="5" y="20" class="clusterblast-acc"  >
Query sequence</text>
<line x1="10" y1="35" x2="778.0" y2="35" style="stroke-width:1; stroke:grey; "  />
<polygon points="0,35 5,30 36,30 36,40 5,40 0,35 " style="fill:white; stroke-width:1; stroke:black; " description="&lt;b&gt;ctg19_41&lt;/b&gt;&lt;br&gt;ctg19 41&lt;br&gt;Location: 38789 - 39713" locus_tag="ctg19_41" class="clusterblast-orf" id="subclusterblast-1_q0_0_all"  />
<polygon points="36,35 41,30 86,30 86,40 41,40 36,35 " style="fill:white; stroke-width:1; stroke:black; " description="&lt;b&gt;ctg19_42&lt;/b&gt;&lt;br&gt;ctg19 42&lt;br&gt;Location: 39709 - 40987" locus_tag="ctg19_42" class="clusterblast-orf" id="subclusterblast-1_q1_0_all"  />
<polygon points="90,35 95,30 121,30 121,40 95,40 90,35 " style="fill:white; stroke-width:1; stroke:black; " description="&lt;b&gt;ctg19_43&lt;/b&gt;&lt;br&gt;ctg19 43&lt;br&gt;Location: 41076 - 41868" locus_tag="ctg19_43" class="clusterblast-orf" id="subclusterblast-1_q2_0_all"  />
<polygon points="126,35 131,30 174,30 174,40 131,40 126,35 " style="fill:white; stroke-width:1; stroke:black; " description="&lt;b&gt;ctg19_44&lt;/b&gt;&lt;br&gt;ctg19 44&lt;br&gt;Location: 41991 - 43209" locus_tag="ctg19_44" class="clusterblast-orf" id="subclusterblast-1_q3_0_all"  />
<polygon points="174,35 179,30 278,30 278,40 179,40 174,35 " style="fill:white; stroke-width:1; stroke:black; " description="&lt;b&gt;ctg19_45&lt;/b&gt;&lt;br&gt;ctg19 45&lt;br&gt;Location: 43225 - 45871" locus_tag="ctg19_45" class="clusterblast-orf" id="subclusterblast-1_q4_0_all"  />
<polygon points="281,35 286,30 336,30 336,40 286,40 281,35 " style="fill:white; stroke-width:1; stroke:black; " description="&lt;b&gt;ctg19_46&lt;/b&gt;&lt;br&gt;ctg19 46&lt;br&gt;Location: 45954 - 47334" locus_tag="ctg19_46" class="clusterblast-orf" id="subclusterblast-1_q5_0_all"  />
<polygon points="342,40 416,40 421,35 416,30 342,30 342,40 " style="fill:white; stroke-width:1; stroke:black; " description="&lt;b&gt;ctg19_47&lt;/b&gt;&lt;br&gt;ctg19 47&lt;br&gt;Location: 47497 - 49513" locus_tag="ctg19_47" class="clusterblast-orf" id="subclusterblast-1_q6_0_all"  />
<polygon points="423,35 428,30 445,30 445,40 428,40 423,35 " style="fill:white; stroke-width:1; stroke:black; " description="&lt;b&gt;ctg19_48&lt;/b&gt;&lt;br&gt;ctg19 48&lt;br&gt;Location: 49543 - 50119" locus_tag="ctg19_48" class="clusterblast-orf" id="subclusterblast-1_q7_0_all"  />
<polygon points="448,40 479,40 484,35 479,30 448,30 448,40 " style="fill:white; stroke-width:1; stroke:black; " description="&lt;b&gt;ctg19_49&lt;/b&gt;&lt;br&gt;ctg19 49&lt;br&gt;Location: 50179 - 51106" locus_tag="ctg19_49" class="clusterblast-orf" id="subclusterblast-1_q8_0_all"  />
<polygon points="487,40 522,40 527,35 522,30 487,30 487,40 " style="fill:white; stroke-width:1; stroke:black; " description="&lt;b&gt;ctg19_50&lt;/b&gt;&lt;br&gt;ctg19 50&lt;br&gt;Location: 51181 - 52198" locus_tag="ctg19_50" class="clusterblast-orf" id="subclusterblast-1_q9_0_all"  />
<polygon points="535,35 540,30 556,30 556,40 540,40 535,35 " style="fill:white; stroke-width:1; stroke:black; " description="&lt;b&gt;ctg19_51&lt;/b&gt;&lt;br&gt;ctg19 51&lt;br&gt;Location: 52416 - 52950" locus_tag="ctg19_51" class="clusterblast-orf" id="subclusterblast-1_q10_0_all"  />
<polygon points="558,40 600,40 605,35 600,30 558,30 558,40 " style="fill:white; stroke-width:1; stroke:black; " description="&lt;b&gt;ctg19_52&lt;/b&gt;&lt;br&gt;ctg19 52&lt;br&gt;Location: 53000 - 54176" locus_tag="ctg19_52" class="clusterblast-orf" id="subclusterblast-1_q11_0_all"  />
<polygon points="609,40 620,40 625,35 620,30 609,30 609,40 " style="fill:white; stroke-width:1; stroke:black; " description="&lt;b&gt;ctg19_53&lt;/b&gt;&lt;br&gt;ctg19 53&lt;br&gt;Location: 54282 - 54684" locus_tag="ctg19_53" class="clusterblast-orf" id="subclusterblast-1_q12_0_all"  />
<polygon points="626,40 635,40 640,35 635,30 626,30 626,40 " style="fill:white; stroke-width:1; stroke:black; " description="&lt;b&gt;ctg19_54&lt;/b&gt;&lt;br&gt;ctg19 54&lt;br&gt;Location: 54713 - 55067" locus_tag="ctg19_54" class="clusterblast-orf" id="subclusterblast-1_q13_0_all"  />
<polygon points="638,40 650,40 655,35 650,30 638,30 638,40 " style="fill:white; stroke-width:1; stroke:black; " description="&lt;b&gt;ctg19_55&lt;/b&gt;&lt;br&gt;ctg19 55&lt;br&gt;Location: 55020 - 55467" locus_tag="ctg19_55" class="clusterblast-orf" id="subclusterblast-1_q14_0_all"  />
<polygon points="655,40 682,40 687,35 682,30 655,30 655,40 " style="fill:white; stroke-width:1; stroke:black; " description="&lt;b&gt;ctg19_56&lt;/b&gt;&lt;br&gt;ctg19 56&lt;br&gt;Location: 55459 - 56260" locus_tag="ctg19_56" class="clusterblast-orf" id="subclusterblast-1_q15_0_all"  />
<polygon points="691,40 709,40 714,35 709,30 691,30 691,40 " style="fill:white; stroke-width:1; stroke:black; " description="&lt;b&gt;ctg19_57&lt;/b&gt;&lt;br&gt;ctg19 57&lt;br&gt;Location: 56368 - 56956" locus_tag="ctg19_57" class="clusterblast-orf" id="subclusterblast-1_q16_0_all"  />
<polygon points="716,40 775,40 780,35 775,30 716,30 716,40 " style="fill:white; stroke-width:1; stroke:black; " description="&lt;b&gt;ctg19_58&lt;/b&gt;&lt;br&gt;ctg19 58&lt;br&gt;Location: 57013 - 58636" locus_tag="ctg19_58" class="clusterblast-orf" id="subclusterblast-1_q17_0_all"  />
</g>
</svg>
