<svg xmlns="http://www.w3.org/2000/svg" xmlns:xlink="http://www.w3.org/1999/xlink" version="1.1" x="0" y="0" height="50" width="800" viewBox="0 0 800 50" preserveAspectRatio="none"  >
<g label="Query sequence" class="clusterblast-cluster"  >
<text x="5" y="20" class="clusterblast-acc"  >
Query sequence</text>
<line x1="10" y1="35" x2="778.0" y2="35" style="stroke-width:1; stroke:grey; "  />
<polygon points="0,35 5,30 156,30 156,40 5,40 0,35 " style="fill:white; stroke-width:1; stroke:black; " description="&lt;b&gt;ctg51_25&lt;/b&gt;&lt;br&gt;ctg51 25&lt;br&gt;Location: 21803 - 23411" locus_tag="ctg51_25" class="clusterblast-orf" id="subclusterblast-1_q0_0_all"  />
<polygon points="174,35 179,30 259,30 259,40 179,40 174,35 " style="fill:white; stroke-width:1; stroke:black; " description="&lt;b&gt;ctg51_26&lt;/b&gt;&lt;br&gt;ctg51 26&lt;br&gt;Location: 23601 - 24480" locus_tag="ctg51_26" class="clusterblast-orf" id="subclusterblast-1_q1_0_all"  />
<polygon points="264,40 281,40 286,35 281,30 264,30 264,40 " style="fill:white; stroke-width:1; stroke:black; " description="&lt;b&gt;ctg51_27&lt;/b&gt;&lt;br&gt;ctg51 27&lt;br&gt;Location: 24534 - 24756" locus_tag="ctg51_27" class="clusterblast-orf" id="subclusterblast-1_q2_0_all"  />
<polygon points="296,40 321,40 326,35 321,30 296,30 296,40 " style="fill:white; stroke-width:1; stroke:black; " description="&lt;b&gt;ctg51_28&lt;/b&gt;&lt;br&gt;ctg51 28&lt;br&gt;Location: 24865 - 25171" locus_tag="ctg51_28" class="clusterblast-orf" id="subclusterblast-1_q3_0_all"  />
<polygon points="331,40 364,40 369,35 364,30 331,30 331,40 " style="fill:white; stroke-width:1; stroke:black; " description="&lt;b&gt;ctg51_29&lt;/b&gt;&lt;br&gt;ctg51 29&lt;br&gt;Location: 25226 - 25619" locus_tag="ctg51_29" class="clusterblast-orf" id="subclusterblast-1_q4_0_all"  />
<polygon points="370,40 480,40 485,35 480,30 370,30 370,40 " style="fill:white; stroke-width:1; stroke:black; " description="&lt;b&gt;ctg51_30&lt;/b&gt;&lt;br&gt;ctg51 30&lt;br&gt;Location: 25621 - 26818" locus_tag="ctg51_30" class="clusterblast-orf" id="subclusterblast-1_q5_0_all"  />
<polygon points="485,40 600,40 605,35 600,30 485,30 485,40 " style="fill:white; stroke-width:1; stroke:black; " description="&lt;b&gt;ctg51_31&lt;/b&gt;&lt;br&gt;ctg51 31&lt;br&gt;Location: 26814 - 28053" locus_tag="ctg51_31" class="clusterblast-orf" id="subclusterblast-1_q6_0_all"  />
<polygon points="607,40 651,40 656,35 651,30 607,30 607,40 " style="fill:white; stroke-width:1; stroke:black; " description="&lt;b&gt;ctg51_32&lt;/b&gt;&lt;br&gt;ctg51 32&lt;br&gt;Location: 28079 - 28589" locus_tag="ctg51_32" class="clusterblast-orf" id="subclusterblast-1_q7_0_all"  />
<polygon points="656,40 775,40 780,35 775,30 656,30 656,40 " style="fill:white; stroke-width:1; stroke:black; " description="&lt;b&gt;ctg51_33&lt;/b&gt;&lt;br&gt;ctg51 33&lt;br&gt;Location: 28588 - 29872" locus_tag="ctg51_33" class="clusterblast-orf" id="subclusterblast-1_q8_0_all"  />
</g>
</svg>
