<svg xmlns="http://www.w3.org/2000/svg" xmlns:xlink="http://www.w3.org/1999/xlink" version="1.1" x="0" y="0" height="50" width="800" viewBox="0 0 800 50" preserveAspectRatio="none"  >
<g label="Query sequence" class="clusterblast-cluster"  >
<text x="5" y="20" class="clusterblast-acc"  >
Query sequence</text>
<line x1="10" y1="35" x2="778.0" y2="35" style="stroke-width:1; stroke:grey; "  />
<polygon points="0,35 5,30 36,30 36,40 5,40 0,35 " style="fill:white; stroke-width:1; stroke:black; " description="&lt;b&gt;ctg27_8&lt;/b&gt;&lt;br&gt;ctg27 8&lt;br&gt;Location: 11181 - 12051" locus_tag="ctg27_8" class="clusterblast-orf" id="knownclusterblast-1_q0_0_all"  />
<polygon points="40,40 40,40 45,35 40,30 40,30 40,40 " style="fill:white; stroke-width:1; stroke:black; " description="&lt;b&gt;ctg27_9&lt;/b&gt;&lt;br&gt;ctg27 9&lt;br&gt;Location: 12131 - 12260" locus_tag="ctg27_9" class="clusterblast-orf" id="knownclusterblast-1_q1_0_all"  />
<polygon points="54,40 102,40 107,35 102,30 54,30 54,40 " style="fill:white; stroke-width:1; stroke:black; " description="&lt;b&gt;ctg27_10&lt;/b&gt;&lt;br&gt;ctg27 10&lt;br&gt;Location: 12472 - 13720" locus_tag="ctg27_10" class="clusterblast-orf" id="knownclusterblast-1_q2_0_all"  />
<polygon points="106,35 111,30 124,30 124,40 111,40 106,35 " style="fill:white; stroke-width:1; stroke:black; " description="&lt;b&gt;ctg27_11&lt;/b&gt;&lt;br&gt;ctg27 11&lt;br&gt;Location: 13709 - 14126" locus_tag="ctg27_11" class="clusterblast-orf" id="knownclusterblast-1_q3_0_all"  />
<polygon points="125,40 129,40 134,35 129,30 125,30 125,40 " style="fill:white; stroke-width:1; stroke:black; " description="&lt;b&gt;ctg27_12&lt;/b&gt;&lt;br&gt;ctg27 12&lt;br&gt;Location: 14156 - 14363" locus_tag="ctg27_12" class="clusterblast-orf" id="knownclusterblast-1_q4_0_all"  />
<polygon points="135,40 178,40 183,35 178,30 135,30 135,40 " style="fill:white; stroke-width:1; stroke:black; " description="&lt;b&gt;ctg27_13&lt;/b&gt;&lt;br&gt;ctg27 13&lt;br&gt;Location: 14406 - 15531" locus_tag="ctg27_13" class="clusterblast-orf" id="knownclusterblast-1_q5_0_all"  />
<polygon points="179,35 184,30 219,30 219,40 184,40 179,35 " style="fill:white; stroke-width:1; stroke:black; " description="&lt;b&gt;ctg27_14&lt;/b&gt;&lt;br&gt;ctg27 14&lt;br&gt;Location: 15438 - 16389" locus_tag="ctg27_14" class="clusterblast-orf" id="knownclusterblast-1_q6_0_all"  />
<polygon points="218,35 223,30 228,30 228,40 223,40 218,35 " style="fill:white; stroke-width:1; stroke:black; " description="&lt;b&gt;ctg27_15&lt;/b&gt;&lt;br&gt;ctg27 15&lt;br&gt;Location: 16376 - 16616" locus_tag="ctg27_15" class="clusterblast-orf" id="knownclusterblast-1_q7_0_all"  />
<polygon points="227,35 232,30 240,30 240,40 232,40 227,35 " style="fill:white; stroke-width:1; stroke:black; " description="&lt;b&gt;ctg27_16&lt;/b&gt;&lt;br&gt;ctg27 16&lt;br&gt;Location: 16581 - 16905" locus_tag="ctg27_16" class="clusterblast-orf" id="knownclusterblast-1_q8_0_all"  />
<polygon points="242,35 247,30 264,30 264,40 247,40 242,35 " style="fill:white; stroke-width:1; stroke:black; " description="&lt;b&gt;ctg27_17&lt;/b&gt;&lt;br&gt;ctg27 17&lt;br&gt;Location: 16933 - 17458" locus_tag="ctg27_17" class="clusterblast-orf" id="knownclusterblast-1_q9_0_all"  />
<polygon points="266,40 281,40 286,35 281,30 266,30 266,40 " style="fill:white; stroke-width:1; stroke:black; " description="&lt;b&gt;ctg27_18&lt;/b&gt;&lt;br&gt;ctg27 18&lt;br&gt;Location: 17522 - 17999" locus_tag="ctg27_18" class="clusterblast-orf" id="knownclusterblast-1_q10_0_all"  />
<polygon points="286,35 291,30 308,30 308,40 291,40 286,35 " style="fill:white; stroke-width:1; stroke:black; " description="&lt;b&gt;ctg27_19&lt;/b&gt;&lt;br&gt;ctg27 19&lt;br&gt;Location: 17995 - 18520" locus_tag="ctg27_19" class="clusterblast-orf" id="knownclusterblast-1_q11_0_all"  />
<polygon points="310,35 315,30 380,30 380,40 315,40 310,35 " style="fill:white; stroke-width:1; stroke:black; " description="&lt;b&gt;ctg27_20&lt;/b&gt;&lt;br&gt;ctg27 20&lt;br&gt;Location: 18566 - 20228" locus_tag="ctg27_20" class="clusterblast-orf" id="knownclusterblast-1_q12_0_all"  />
<polygon points="390,40 398,40 403,35 398,30 390,30 390,40 " style="fill:white; stroke-width:1; stroke:black; " description="&lt;b&gt;ctg27_21&lt;/b&gt;&lt;br&gt;ctg27 21&lt;br&gt;Location: 20463 - 20781" locus_tag="ctg27_21" class="clusterblast-orf" id="knownclusterblast-1_q13_0_all"  />
<polygon points="403,40 404,40 409,35 404,30 403,30 403,40 " style="fill:white; stroke-width:1; stroke:black; " description="&lt;b&gt;ctg27_22&lt;/b&gt;&lt;br&gt;ctg27 22&lt;br&gt;Location: 20777 - 20921" locus_tag="ctg27_22" class="clusterblast-orf" id="knownclusterblast-1_q14_0_all"  />
<polygon points="411,35 416,30 440,30 440,40 416,40 411,35 " style="fill:white; stroke-width:1; stroke:black; " description="&lt;b&gt;ctg27_23&lt;/b&gt;&lt;br&gt;ctg27 23&lt;br&gt;Location: 20959 - 21646" locus_tag="ctg27_23" class="clusterblast-orf" id="knownclusterblast-1_q15_0_all"  />
<polygon points="440,40 450,40 455,35 450,30 440,30 440,40 " style="fill:white; stroke-width:1; stroke:black; " description="&lt;b&gt;ctg27_24&lt;/b&gt;&lt;br&gt;ctg27 24&lt;br&gt;Location: 21649 - 22018" locus_tag="ctg27_24" class="clusterblast-orf" id="knownclusterblast-1_q16_0_all"  />
<polygon points="454,35 459,30 490,30 490,40 459,40 454,35 " style="fill:white; stroke-width:1; stroke:black; " description="&lt;b&gt;ctg27_25&lt;/b&gt;&lt;br&gt;ctg27 25&lt;br&gt;Location: 21980 - 22838" locus_tag="ctg27_25" class="clusterblast-orf" id="knownclusterblast-1_q17_0_all"  />
<polygon points="489,35 494,30 519,30 519,40 494,40 489,35 " style="fill:white; stroke-width:1; stroke:black; " description="&lt;b&gt;ctg27_26&lt;/b&gt;&lt;br&gt;ctg27 26&lt;br&gt;Location: 22834 - 23548" locus_tag="ctg27_26" class="clusterblast-orf" id="knownclusterblast-1_q18_0_all"  />
<polygon points="519,35 524,30 540,30 540,40 524,40 519,35 " style="fill:white; stroke-width:1; stroke:black; " description="&lt;b&gt;ctg27_27&lt;/b&gt;&lt;br&gt;ctg27 27&lt;br&gt;Location: 23544 - 24033" locus_tag="ctg27_27" class="clusterblast-orf" id="knownclusterblast-1_q19_0_all"  />
<polygon points="541,40 568,40 573,35 568,30 541,30 541,40 " style="fill:white; stroke-width:1; stroke:black; " description="&lt;b&gt;ctg27_28&lt;/b&gt;&lt;br&gt;ctg27 28&lt;br&gt;Location: 24063 - 24825" locus_tag="ctg27_28" class="clusterblast-orf" id="knownclusterblast-1_q20_0_all"  />
<polygon points="592,35 597,30 608,30 608,40 597,40 592,35 " style="fill:white; stroke-width:1; stroke:black; " description="&lt;b&gt;ctg27_29&lt;/b&gt;&lt;br&gt;ctg27 29&lt;br&gt;Location: 25270 - 25645" locus_tag="ctg27_29" class="clusterblast-orf" id="knownclusterblast-1_q21_0_all"  />
<polygon points="609,35 614,30 685,30 685,40 614,40 609,35 " style="fill:white; stroke-width:1; stroke:black; " description="&lt;b&gt;ctg27_30&lt;/b&gt;&lt;br&gt;ctg27 30&lt;br&gt;Location: 25680 - 27489" locus_tag="ctg27_30" class="clusterblast-orf" id="knownclusterblast-1_q22_0_all"  />
<polygon points="688,35 693,30 754,30 754,40 693,40 688,35 " style="fill:white; stroke-width:1; stroke:black; " description="&lt;b&gt;ctg27_31&lt;/b&gt;&lt;br&gt;ctg27 31&lt;br&gt;Location: 27550 - 29125" locus_tag="ctg27_31" class="clusterblast-orf" id="knownclusterblast-1_q23_0_all"  />
<polygon points="760,35 765,30 780,30 780,40 765,40 760,35 " style="fill:white; stroke-width:1; stroke:black; " description="&lt;b&gt;ctg27_32&lt;/b&gt;&lt;br&gt;ctg27 32&lt;br&gt;Location: 29266 - 29749" locus_tag="ctg27_32" class="clusterblast-orf" id="knownclusterblast-1_q24_0_all"  />
</g>
</svg>
