<svg xmlns="http://www.w3.org/2000/svg" xmlns:xlink="http://www.w3.org/1999/xlink" version="1.1" x="0" y="0" height="230" width="800" viewBox="0 0 800 230" preserveAspectRatio="none"  >
<g label="Query sequence" class="clusterblast-cluster"  >
<text x="5" y="20" class="clusterblast-acc"  >
Query sequence</text>
<line x1="10" y1="35" x2="778.0" y2="35" style="stroke-width:1; stroke:grey; "  />
<polygon points="0,40 12,40 17,35 12,30 0,30 0,40 " style="fill:white; stroke-width:1; stroke:black; " description="&lt;b&gt;ctg31_15&lt;/b&gt;&lt;br&gt;ctg31 15&lt;br&gt;Location: 14193 - 15084" locus_tag="ctg31_15" class="clusterblast-orf" id="dummy-1_q0_0_all"  />
<polygon points="17,35 22,30 35,30 35,40 22,40 17,35 " style="fill:white; stroke-width:1; stroke:black; " description="&lt;b&gt;ctg31_16&lt;/b&gt;&lt;br&gt;ctg31 16&lt;br&gt;Location: 15070 - 16018" locus_tag="ctg31_16" class="clusterblast-orf" id="dummy-1_q1_0_all"  />
<polygon points="35,35 40,30 67,30 67,40 40,40 35,35 " style="fill:white; stroke-width:1; stroke:black; " description="&lt;b&gt;ctg31_17&lt;/b&gt;&lt;br&gt;ctg31 17&lt;br&gt;Location: 16017 - 17691" locus_tag="ctg31_17" class="clusterblast-orf" id="dummy-1_q2_0_all"  />
<polygon points="67,35 72,30 80,30 80,40 72,40 67,35 " style="fill:white; stroke-width:1; stroke:black; " description="&lt;b&gt;ctg31_18&lt;/b&gt;&lt;br&gt;ctg31 18&lt;br&gt;Location: 17683 - 18361" locus_tag="ctg31_18" class="clusterblast-orf" id="dummy-1_q3_0_all"  />
<polygon points="81,35 86,30 106,30 106,40 86,40 81,35 " style="fill:white; stroke-width:1; stroke:black; " description="&lt;b&gt;ctg31_19&lt;/b&gt;&lt;br&gt;ctg31 19&lt;br&gt;Location: 18407 - 19694" locus_tag="ctg31_19" class="clusterblast-orf" id="dummy-1_q4_0_all"  />
<polygon points="106,40 117,40 122,35 117,30 106,30 106,40 " style="fill:white; stroke-width:1; stroke:black; " description="&lt;b&gt;ctg31_20&lt;/b&gt;&lt;br&gt;ctg31 20&lt;br&gt;Location: 19733 - 20561" locus_tag="ctg31_20" class="clusterblast-orf" id="dummy-1_q5_0_all"  />
<polygon points="122,40 127,40 132,35 127,30 122,30 122,40 " style="fill:white; stroke-width:1; stroke:black; " description="&lt;b&gt;ctg31_21&lt;/b&gt;&lt;br&gt;ctg31 21&lt;br&gt;Location: 20562 - 21060" locus_tag="ctg31_21" class="clusterblast-orf" id="dummy-1_q6_0_all"  />
<polygon points="132,40 146,40 151,35 146,30 132,30 132,40 " style="fill:white; stroke-width:1; stroke:black; " description="&lt;b&gt;ctg31_22&lt;/b&gt;&lt;br&gt;ctg31 22&lt;br&gt;Location: 21086 - 22034" locus_tag="ctg31_22" class="clusterblast-orf" id="dummy-1_q7_0_all"  />
<polygon points="151,40 152,40 157,35 152,30 151,30 151,40 " style="fill:white; stroke-width:1; stroke:black; " description="&lt;b&gt;ctg31_23&lt;/b&gt;&lt;br&gt;ctg31 23&lt;br&gt;Location: 22044 - 22389" locus_tag="ctg31_23" class="clusterblast-orf" id="dummy-1_q8_0_all"  />
<polygon points="159,40 167,40 172,35 167,30 159,30 159,40 " style="fill:white; stroke-width:1; stroke:black; " description="&lt;b&gt;ctg31_24&lt;/b&gt;&lt;br&gt;ctg31 24&lt;br&gt;Location: 22447 - 23152" locus_tag="ctg31_24" class="clusterblast-orf" id="dummy-1_q9_0_all"  />
<polygon points="173,35 175,30 175,40 173,35 " style="fill:white; stroke-width:1; stroke:black; " description="&lt;b&gt;ctg31_25&lt;/b&gt;&lt;br&gt;ctg31 25&lt;br&gt;Location: 23178 - 23301" locus_tag="ctg31_25" class="clusterblast-orf" id="dummy-1_q10_0_all"  />
<polygon points="175,40 205,40 210,35 205,30 175,30 175,40 " style="fill:white; stroke-width:1; stroke:black; " description="&lt;b&gt;ctg31_26&lt;/b&gt;&lt;br&gt;ctg31 26&lt;br&gt;Location: 23319 - 25116" locus_tag="ctg31_26" class="clusterblast-orf" id="dummy-1_q11_0_all"  />
<polygon points="209,35 214,30 225,30 225,40 214,40 209,35 " style="fill:white; stroke-width:1; stroke:black; " description="&lt;b&gt;ctg31_27&lt;/b&gt;&lt;br&gt;ctg31 27&lt;br&gt;Location: 25078 - 25888" locus_tag="ctg31_27" class="clusterblast-orf" id="dummy-1_q12_0_all"  />
<polygon points="226,35 230,30 230,40 226,35 " style="fill:white; stroke-width:1; stroke:black; " description="&lt;b&gt;ctg31_28&lt;/b&gt;&lt;br&gt;ctg31 28&lt;br&gt;Location: 25963 - 26167" locus_tag="ctg31_28" class="clusterblast-orf" id="dummy-1_q13_0_all"  />
<polygon points="231,35 236,30 271,30 271,40 236,40 231,35 " style="fill:white; stroke-width:1; stroke:black; " description="&lt;b&gt;ctg31_29&lt;/b&gt;&lt;br&gt;ctg31 29&lt;br&gt;Location: 26191 - 28267" locus_tag="ctg31_29" class="clusterblast-orf" id="dummy-1_q14_0_all"  />
<polygon points="272,35 277,30 282,30 282,40 277,40 272,35 " style="fill:white; stroke-width:1; stroke:black; " description="&lt;b&gt;ctg31_30&lt;/b&gt;&lt;br&gt;ctg31 30&lt;br&gt;Location: 28367 - 28835" locus_tag="ctg31_30" class="clusterblast-orf" id="dummy-1_q15_0_all"  />
<polygon points="282,40 299,40 304,35 299,30 282,30 282,40 " style="fill:white; stroke-width:1; stroke:black; " description="&lt;b&gt;ctg31_31&lt;/b&gt;&lt;br&gt;ctg31 31&lt;br&gt;Location: 28855 - 29995" locus_tag="ctg31_31" class="clusterblast-orf" id="dummy-1_q16_0_all"  />
<polygon points="305,35 307,30 307,40 305,35 " style="fill:white; stroke-width:1; stroke:black; " description="&lt;b&gt;ctg31_32&lt;/b&gt;&lt;br&gt;ctg31 32&lt;br&gt;Location: 30069 - 30180" locus_tag="ctg31_32" class="clusterblast-orf" id="dummy-1_q17_0_all"  />
<polygon points="308,35 313,30 313,30 313,40 313,40 308,35 " style="fill:white; stroke-width:1; stroke:black; " description="&lt;b&gt;ctg31_33&lt;/b&gt;&lt;br&gt;ctg31 33&lt;br&gt;Location: 30231 - 30486" locus_tag="ctg31_33" class="clusterblast-orf" id="dummy-1_q18_0_all"  />
<polygon points="314,35 319,30 336,30 336,40 319,40 314,35 " style="fill:white; stroke-width:1; stroke:black; " description="&lt;b&gt;ctg31_34&lt;/b&gt;&lt;br&gt;ctg31 34&lt;br&gt;Location: 30544 - 31690" locus_tag="ctg31_34" class="clusterblast-orf" id="dummy-1_q19_0_all"  />
<polygon points="338,35 343,30 372,30 372,40 343,40 338,35 " style="fill:white; stroke-width:1; stroke:black; " description="&lt;b&gt;ctg31_35&lt;/b&gt;&lt;br&gt;ctg31 35&lt;br&gt;Location: 31769 - 33527" locus_tag="ctg31_35" class="clusterblast-orf" id="dummy-1_q20_0_all"  />
<polygon points="372,35 377,30 427,30 427,40 377,40 372,35 " style="fill:white; stroke-width:1; stroke:black; " description="&lt;b&gt;ctg31_36&lt;/b&gt;&lt;br&gt;ctg31 36&lt;br&gt;Location: 33528 - 36384" locus_tag="ctg31_36" class="clusterblast-orf" id="dummy-1_q21_0_all"  />
<polygon points="431,35 436,30 458,30 458,40 436,40 431,35 " style="fill:white; stroke-width:1; stroke:black; " description="&lt;b&gt;ctg31_37&lt;/b&gt;&lt;br&gt;ctg31 37&lt;br&gt;Location: 36600 - 37983" locus_tag="ctg31_37" class="clusterblast-orf" id="dummy-1_q22_0_all"  />
<polygon points="461,40 466,40 471,35 466,30 461,30 461,40 " style="fill:white; stroke-width:1; stroke:black; " description="&lt;b&gt;ctg31_38&lt;/b&gt;&lt;br&gt;ctg31 38&lt;br&gt;Location: 38183 - 38657" locus_tag="ctg31_38" class="clusterblast-orf" id="dummy-1_q23_0_all"  />
<polygon points="470,35 475,30 476,30 476,40 475,40 470,35 " style="fill:white; stroke-width:1; stroke:black; " description="&lt;b&gt;ctg31_39&lt;/b&gt;&lt;br&gt;ctg31 39&lt;br&gt;Location: 38653 - 38962" locus_tag="ctg31_39" class="clusterblast-orf" id="dummy-1_q24_0_all"  />
<polygon points="477,35 479,30 479,40 477,35 " style="fill:white; stroke-width:1; stroke:black; " description="&lt;b&gt;ctg31_40&lt;/b&gt;&lt;br&gt;ctg31 40&lt;br&gt;Location: 38989 - 39079" locus_tag="ctg31_40" class="clusterblast-orf" id="dummy-1_q25_0_all"  />
<polygon points="479,35 484,30 486,30 486,40 484,40 479,35 " style="fill:white; stroke-width:1; stroke:black; " description="&lt;b&gt;ctg31_41&lt;/b&gt;&lt;br&gt;ctg31 41&lt;br&gt;Location: 39075 - 39450" locus_tag="ctg31_41" class="clusterblast-orf" id="dummy-1_q26_0_all"  />
<polygon points="486,35 490,30 490,40 486,35 " style="fill:white; stroke-width:1; stroke:black; " description="&lt;b&gt;ctg31_42&lt;/b&gt;&lt;br&gt;ctg31 42&lt;br&gt;Location: 39446 - 39677" locus_tag="ctg31_42" class="clusterblast-orf" id="dummy-1_q27_0_all"  />
<polygon points="493,35 498,30 505,30 505,40 498,40 493,35 " style="fill:white; stroke-width:1; stroke:black; " description="&lt;b&gt;ctg31_43&lt;/b&gt;&lt;br&gt;ctg31 43&lt;br&gt;Location: 39843 - 40443" locus_tag="ctg31_43" class="clusterblast-orf" id="dummy-1_q28_0_all"  />
<polygon points="505,35 508,30 508,40 505,35 " style="fill:white; stroke-width:1; stroke:black; " description="&lt;b&gt;ctg31_44&lt;/b&gt;&lt;br&gt;ctg31 44&lt;br&gt;Location: 40453 - 40606" locus_tag="ctg31_44" class="clusterblast-orf" id="dummy-1_q29_0_all"  />
<polygon points="516,35 519,30 519,40 516,35 " style="fill:white; stroke-width:1; stroke:black; " description="&lt;b&gt;ctg31_45&lt;/b&gt;&lt;br&gt;ctg31 45&lt;br&gt;Location: 40993 - 41176" locus_tag="ctg31_45" class="clusterblast-orf" id="dummy-1_q30_0_all"  />
<polygon points="521,35 526,30 528,30 528,40 526,40 521,35 " style="fill:white; stroke-width:1; stroke:black; " description="&lt;b&gt;ctg31_46&lt;/b&gt;&lt;br&gt;ctg31 46&lt;br&gt;Location: 41296 - 41647" locus_tag="ctg31_46" class="clusterblast-orf" id="dummy-1_q31_0_all"  />
<polygon points="530,40 565,40 570,35 565,30 530,30 530,40 " style="fill:white; stroke-width:1; stroke:black; " description="&lt;b&gt;ctg31_47&lt;/b&gt;&lt;br&gt;ctg31 47&lt;br&gt;Location: 41746 - 43828" locus_tag="ctg31_47" class="clusterblast-orf" id="dummy-1_q32_0_all"  />
<polygon points="571,40 575,40 580,35 575,30 571,30 571,40 " style="fill:white; stroke-width:1; stroke:black; " description="&lt;b&gt;ctg31_48&lt;/b&gt;&lt;br&gt;ctg31 48&lt;br&gt;Location: 43902 - 44358" locus_tag="ctg31_48" class="clusterblast-orf" id="dummy-1_q33_0_all"  />
<polygon points="582,40 590,40 595,35 590,30 582,30 582,40 " style="fill:#d81515; stroke-width:1; stroke:black; " description="&lt;b&gt;ctg31_49&lt;/b&gt;&lt;br&gt;ctg31 49&lt;br&gt;Location: 44432 - 45140" locus_tag="ctg31_49" class="clusterblast-orf" id="dummy-1_q34_0_all"  />
<polygon points="594,40 602,40 607,35 602,30 594,30 594,40 " style="fill:#15d8d8; stroke-width:1; stroke:black; " description="&lt;b&gt;ctg31_50&lt;/b&gt;&lt;br&gt;ctg31 50&lt;br&gt;Location: 45084 - 45732" locus_tag="ctg31_50" class="clusterblast-orf" id="dummy-1_q35_0_all"  />
<polygon points="609,40 627,40 632,35 627,30 609,30 609,40 " style="fill:white; stroke-width:1; stroke:black; " description="&lt;b&gt;ctg31_51&lt;/b&gt;&lt;br&gt;ctg31 51&lt;br&gt;Location: 45853 - 47050" locus_tag="ctg31_51" class="clusterblast-orf" id="dummy-1_q36_0_all"  />
<polygon points="633,40 650,40 655,35 650,30 633,30 633,40 " style="fill:white; stroke-width:1; stroke:black; " description="&lt;b&gt;ctg31_52&lt;/b&gt;&lt;br&gt;ctg31 52&lt;br&gt;Location: 47092 - 48235" locus_tag="ctg31_52" class="clusterblast-orf" id="dummy-1_q37_0_all"  />
<polygon points="658,35 661,30 661,40 658,35 " style="fill:white; stroke-width:1; stroke:black; " description="&lt;b&gt;ctg31_53&lt;/b&gt;&lt;br&gt;ctg31 53&lt;br&gt;Location: 48412 - 48529" locus_tag="ctg31_53" class="clusterblast-orf" id="dummy-1_q38_0_all"  />
<polygon points="660,35 665,30 666,30 666,40 665,40 660,35 " style="fill:white; stroke-width:1; stroke:black; " description="&lt;b&gt;ctg31_54&lt;/b&gt;&lt;br&gt;ctg31 54&lt;br&gt;Location: 48525 - 48789" locus_tag="ctg31_54" class="clusterblast-orf" id="dummy-1_q39_0_all"  />
<polygon points="670,40 672,35 670,30 670,40 " style="fill:white; stroke-width:1; stroke:black; " description="&lt;b&gt;ctg31_55&lt;/b&gt;&lt;br&gt;ctg31 55&lt;br&gt;Location: 49002 - 49149" locus_tag="ctg31_55" class="clusterblast-orf" id="dummy-1_q40_0_all"  />
<polygon points="675,40 720,40 725,35 720,30 675,30 675,40 " style="fill:white; stroke-width:1; stroke:black; " description="&lt;b&gt;ctg31_56&lt;/b&gt;&lt;br&gt;ctg31 56&lt;br&gt;Location: 49283 - 51899" locus_tag="ctg31_56" class="clusterblast-orf" id="dummy-1_q41_0_all"  />
<polygon points="727,40 736,40 741,35 736,30 727,30 727,40 " style="fill:white; stroke-width:1; stroke:black; " description="&lt;b&gt;ctg31_57&lt;/b&gt;&lt;br&gt;ctg31 57&lt;br&gt;Location: 51988 - 52732" locus_tag="ctg31_57" class="clusterblast-orf" id="dummy-1_q42_0_all"  />
<polygon points="741,40 747,40 752,35 747,30 741,30 741,40 " style="fill:white; stroke-width:1; stroke:black; " description="&lt;b&gt;ctg31_58&lt;/b&gt;&lt;br&gt;ctg31 58&lt;br&gt;Location: 52715 - 53303" locus_tag="ctg31_58" class="clusterblast-orf" id="dummy-1_q43_0_all"  />
<polygon points="752,35 757,30 780,30 780,40 757,40 752,35 " style="fill:white; stroke-width:1; stroke:black; " description="&lt;b&gt;ctg31_59&lt;/b&gt;&lt;br&gt;ctg31 59&lt;br&gt;Location: 53261 - 54719" locus_tag="ctg31_59" class="clusterblast-orf" id="dummy-1_q44_0_all"  />
</g>
<g label="BGC0000774" description="BGC0000774_c1: lipopolysaccharide (5% of genes show similarity), Saccharide:Lipopolysaccharide" class="clusterblast-cluster"  >
<text x="5" y="70" class="clusterblast-acc"  >
<a xlink:href="https://mibig.secondarymetabolites.org/go/BGC0000774/1" target="_blank">BGC0000774</a>: lipopolysaccharide                                                               (5% of genes show similarity), Saccharide:Lipopolysaccharide</text>
<line x1="10" y1="85" x2="778.0" y2="85" style="stroke-width:1; stroke:grey; "  />
</g>
<g id="a1_000"  >
<polygon points="27,85 32,80 39,80 39,90 32,90 27,85 " style="fill:white; stroke-width:1; stroke:black; " description="&lt;b&gt;AAK53492.1&lt;/b&gt;&lt;br&gt;putative ATP-dependent RNA helicase&lt;br&gt;Location: 37753 - 37148" locus_tag="AAK53492.1" class="clusterblast-orf" id="dummy-1_h1_3_0"  />
</g>
<g id="a1_001"  >
<polygon points="46,90 60,90 65,85 60,80 46,80 46,90 " style="fill:white; stroke-width:1; stroke:black; " description="&lt;b&gt;AAK53491.1&lt;/b&gt;&lt;br&gt;putative dioxygenase&lt;br&gt;Location: 36768 - 35779" locus_tag="AAK53491.1" class="clusterblast-orf" id="dummy-1_h1_3_1"  />
</g>
<g id="a1_002"  >
<polygon points="66,90 74,90 79,85 74,80 66,80 66,90 " style="fill:white; stroke-width:1; stroke:black; " description="&lt;b&gt;AAK53490.1&lt;/b&gt;&lt;br&gt;putative maleylacetoacetate isomerase&lt;br&gt;Location: 35735 - 35073" locus_tag="AAK53490.1" class="clusterblast-orf" id="dummy-1_h1_3_2"  />
</g>
<g id="a1_003"  >
<polygon points="89,85 94,80 111,80 111,90 94,90 89,85 " style="fill:white; stroke-width:1; stroke:black; " description="&lt;b&gt;AAK53489.1&lt;/b&gt;&lt;br&gt;type II secretion system protein-like protein&lt;br&gt;Location: 34553 - 33420" locus_tag="AAK53489.1" class="clusterblast-orf" id="dummy-1_h1_3_3"  />
</g>
<g id="a1_004"  >
<polygon points="113,90 115,90 120,85 115,80 113,80 113,90 " style="fill:white; stroke-width:1; stroke:black; " description="&lt;b&gt;AAK53488.1&lt;/b&gt;&lt;br&gt;putative outer membrane protein UptD precursor&lt;br&gt;Location: 33321 - 32938" locus_tag="AAK53488.1" class="clusterblast-orf" id="dummy-1_h1_3_4"  />
</g>
<g id="a1_005"  >
<polygon points="120,90 132,90 137,85 132,80 120,80 120,90 " style="fill:white; stroke-width:1; stroke:black; " description="&lt;b&gt;AAK53487.1&lt;/b&gt;&lt;br&gt;putative outer membrane protein UptE precursor&lt;br&gt;Location: 32941 - 32051" locus_tag="AAK53487.1" class="clusterblast-orf" id="dummy-1_h1_3_5"  />
</g>
<g id="a1_006"  >
<polygon points="138,90 143,90 148,85 143,80 138,80 138,90 " style="fill:white; stroke-width:1; stroke:black; " description="&lt;b&gt;AAK53486.1&lt;/b&gt;&lt;br&gt;UptF&lt;br&gt;Location: 31985 - 31491" locus_tag="AAK53486.1" class="clusterblast-orf" id="dummy-1_h1_3_6"  />
</g>
<g id="a1_007"  >
<polygon points="152,90 174,90 179,85 174,80 152,80 152,90 " style="fill:white; stroke-width:1; stroke:black; " description="&lt;b&gt;AAK53485.1&lt;/b&gt;&lt;br&gt;cystathionine beta-lyase&lt;br&gt;Location: 31259 - 29889" locus_tag="AAK53485.1" class="clusterblast-orf" id="dummy-1_h1_3_7"  />
</g>
<g id="a1_008"  >
<polygon points="181,90 199,90 204,85 199,80 181,80 181,90 " style="fill:white; stroke-width:1; stroke:black; " description="&lt;b&gt;AAK53484.1&lt;/b&gt;&lt;br&gt;cystathionine gamma-synthase&lt;br&gt;Location: 29795 - 28596" locus_tag="AAK53484.1" class="clusterblast-orf" id="dummy-1_h1_3_8"  />
</g>
<g id="a1_009"  >
<polygon points="204,90 225,90 230,85 225,80 204,80 204,90 " style="fill:white; stroke-width:1; stroke:black; " description="&lt;b&gt;AAK53483.1&lt;/b&gt;&lt;br&gt;glycosyltransferase&lt;br&gt;Location: 28599 - 27214" locus_tag="AAK53483.1" class="clusterblast-orf" id="dummy-1_h1_3_9"  />
</g>
<g id="a1_0010"  >
<polygon points="232,90 242,90 247,85 242,80 232,80 232,90 " style="fill:white; stroke-width:1; stroke:black; " description="&lt;b&gt;AAK53482.1&lt;/b&gt;&lt;br&gt;permease protein of an ABC-type polysaccaharide exporter&lt;br&gt;Location: 27130 - 26345" locus_tag="AAK53482.1" class="clusterblast-orf" id="dummy-1_h1_3_10"  />
</g>
<g id="a1_0011"  >
<polygon points="247,90 267,90 272,85 267,80 247,80 247,90 " style="fill:white; stroke-width:1; stroke:black; " description="&lt;b&gt;AAK53481.1&lt;/b&gt;&lt;br&gt;ATP-binding component of an ABC-type polysaccharide exporter&lt;br&gt;Location: 26348 - 25062" locus_tag="AAK53481.1" class="clusterblast-orf" id="dummy-1_h1_3_11"  />
</g>
<g id="a1_0012"  >
<polygon points="272,90 312,90 317,85 312,80 272,80 272,90 " style="fill:white; stroke-width:1; stroke:black; " description="&lt;b&gt;AAK53480.1&lt;/b&gt;&lt;br&gt;putative protein kinase&lt;br&gt;Location: 25022 - 22734" locus_tag="AAK53480.1" class="clusterblast-orf" id="dummy-1_h1_3_12"  />
</g>
<g id="a1_0013"  >
<polygon points="317,90 333,90 338,85 333,80 317,80 317,90 " style="fill:white; stroke-width:1; stroke:black; " description="&lt;b&gt;AAK53479.1&lt;/b&gt;&lt;br&gt;glycosyltransferase&lt;br&gt;Location: 22684 - 21623" locus_tag="AAK53479.1" class="clusterblast-orf" id="dummy-1_h1_3_13"  />
</g>
<g id="a1_0014"  >
<polygon points="338,90 367,90 372,85 367,80 338,80 338,90 " style="fill:white; stroke-width:1; stroke:black; " description="&lt;b&gt;AAK53478.1&lt;/b&gt;&lt;br&gt;putative glycosyltransferase&lt;br&gt;Location: 21602 - 19857" locus_tag="AAK53478.1" class="clusterblast-orf" id="dummy-1_h1_3_14"  />
</g>
<g id="a1_0015"  >
<polygon points="372,90 379,90 384,85 379,80 372,80 372,90 " style="fill:white; stroke-width:1; stroke:black; " description="&lt;b&gt;AAK53477.1&lt;/b&gt;&lt;br&gt;Unknown&lt;br&gt;Location: 19857 - 19222" locus_tag="AAK53477.1" class="clusterblast-orf" id="dummy-1_h1_3_15"  />
</g>
<g id="a1_0016"  >
<polygon points="386,90 401,90 406,85 401,80 386,80 386,90 " style="fill:white; stroke-width:1; stroke:black; " description="&lt;b&gt;AAK53476.1&lt;/b&gt;&lt;br&gt;GDP-mannose 4,6-dehydratase&lt;br&gt;Location: 19144 - 18110" locus_tag="AAK53476.1" class="clusterblast-orf" id="dummy-1_h1_3_16"  />
</g>
<g id="a1_0017"  >
<polygon points="405,90 418,90 423,85 418,80 405,80 405,90 " style="fill:white; stroke-width:1; stroke:black; " description="&lt;b&gt;AAK53475.1&lt;/b&gt;&lt;br&gt;GDP-4-dehydro-D-rhamnose reductase&lt;br&gt;Location: 18126 - 17188" locus_tag="AAK53475.1" class="clusterblast-orf" id="dummy-1_h1_3_17"  />
</g>
<g id="a1_0018"  >
<polygon points="426,85 431,80 469,80 469,90 431,90 426,85 " style="fill:white; stroke-width:1; stroke:black; " description="&lt;b&gt;AAK53474.1&lt;/b&gt;&lt;br&gt;integral membrane protein&lt;br&gt;Location: 17046 - 14794" locus_tag="AAK53474.1" class="clusterblast-orf" id="dummy-1_h1_3_18"  />
</g>
<g id="a1_0019"  >
<polygon points="471,85 476,80 479,80 479,90 476,90 471,85 " style="fill:white; stroke-width:1; stroke:black; " description="&lt;b&gt;AAK53473.1&lt;/b&gt;&lt;br&gt;putative integral membrane protein WxcN&lt;br&gt;Location: 14724 - 14284" locus_tag="AAK53473.1" class="clusterblast-orf" id="dummy-1_h1_3_19"  />
</g>
<g id="a1_0020"  >
<polygon points="479,85 484,80 497,80 497,90 484,90 479,85 " style="fill:white; stroke-width:1; stroke:black; " description="&lt;b&gt;AAK53472.1&lt;/b&gt;&lt;br&gt;bifunctional nucleotide hexosamine acetyltransferase / isomerase&lt;br&gt;Location: 14297 - 13368" locus_tag="AAK53472.1" class="clusterblast-orf" id="dummy-1_h1_3_20"  />
</g>
<g id="a1_0021"  >
<polygon points="497,85 502,80 515,80 515,90 502,90 497,85 " style="fill:white; stroke-width:1; stroke:black; " description="&lt;b&gt;AAK53471.1&lt;/b&gt;&lt;br&gt;glycosyltransferase&lt;br&gt;Location: 13371 - 12400" locus_tag="AAK53471.1" class="clusterblast-orf" id="dummy-1_h1_3_21"  />
</g>
<g id="a1_0022"  >
<polygon points="515,85 520,80 536,80 536,90 520,90 515,85 " style="fill:white; stroke-width:1; stroke:black; " description="&lt;b&gt;AAK53470.1&lt;/b&gt;&lt;br&gt;nucleotide sugar aminotransferase&lt;br&gt;Location: 12415 - 11312" locus_tag="AAK53470.1" class="clusterblast-orf" id="dummy-1_h1_3_22"  />
</g>
<g id="a1_0023"  >
<polygon points="537,85 542,80 544,80 544,90 542,90 537,85 " style="fill:white; stroke-width:1; stroke:black; " description="&lt;b&gt;AAK53469.1&lt;/b&gt;&lt;br&gt;WxcH&lt;br&gt;Location: 11263 - 10916" locus_tag="AAK53469.1" class="clusterblast-orf" id="dummy-1_h1_3_23"  />
</g>
<g id="a1_0024"  >
<polygon points="545,85 550,80 563,80 563,90 550,90 545,85 " style="fill:white; stroke-width:1; stroke:black; " description="&lt;b&gt;AAK53468.1&lt;/b&gt;&lt;br&gt;putative electron-transferring flavoprotein alpha subunit&lt;br&gt;Location: 10856 - 9912" locus_tag="AAK53468.1" class="clusterblast-orf" id="dummy-1_h1_3_24"  />
</g>
<g id="a1_0025"  >
<polygon points="563,85 568,80 578,80 578,90 568,90 563,85 " style="fill:white; stroke-width:1; stroke:black; " description="&lt;b&gt;AAK53467.1&lt;/b&gt;&lt;br&gt;putative electron-transferring flavoprotein beta subunit&lt;br&gt;Location: 9912 - 9166" locus_tag="AAK53467.1" class="clusterblast-orf" id="dummy-1_h1_3_25"  />
</g>
<g id="a1_0026"  >
<polygon points="582,90 597,90 602,85 597,80 582,80 582,90 " style="fill:white; stroke-width:1; stroke:black; " description="&lt;b&gt;AAK53466.1&lt;/b&gt;&lt;br&gt;dTDP-glucose 4,6-dehydratase&lt;br&gt;Location: 8937 - 7882" locus_tag="AAK53466.1" class="clusterblast-orf" id="dummy-1_h1_3_26"  />
</g>
<g id="a1_0027"  >
<polygon points="604,90 616,90 621,85 616,80 604,80 604,90 " style="fill:white; stroke-width:1; stroke:black; " description="&lt;b&gt;AAA16191.1&lt;/b&gt;&lt;br&gt;glucose-1-phosphate thymidylyltransferase&lt;br&gt;Location: 7818 - 6931" locus_tag="AAA16191.1" class="clusterblast-orf" id="dummy-1_h1_3_27"  />
</g>
<g id="a1_0028"  >
<polygon points="621,90 626,90 631,85 626,80 621,80 621,90 " style="fill:white; stroke-width:1; stroke:black; " description="&lt;b&gt;AAK53465.1&lt;/b&gt;&lt;br&gt;dTDP-4-dehydrorhamnose 3,5-epimerase&lt;br&gt;Location: 6934 - 6377" locus_tag="AAK53465.1" class="clusterblast-orf" id="dummy-1_h1_3_28"  />
</g>
<g id="a1_0029"  >
<polygon points="631,90 644,90 649,85 644,80 631,80 631,90 " style="fill:white; stroke-width:1; stroke:black; " description="&lt;b&gt;AAK53464.1&lt;/b&gt;&lt;br&gt;dTDP-4-dehydrorhamnose reductase&lt;br&gt;Location: 6380 - 5472" locus_tag="AAK53464.1" class="clusterblast-orf" id="dummy-1_h1_3_29"  />
</g>
<g id="a1_0030"  >
<polygon points="651,85 656,80 678,80 678,90 656,90 651,85 " style="fill:white; stroke-width:1; stroke:black; " description="&lt;b&gt;AAK53463.1&lt;/b&gt;&lt;br&gt;phosphomannose isomerase / GDP-mannose pyrophosphorylase&lt;br&gt;Location: 5350 - 3947" locus_tag="AAK53463.1" class="clusterblast-orf" id="dummy-1_h1_3_30"  />
</g>
<g id="a1_0031"  >
<polygon points="679,85 684,80 705,80 705,90 684,90 679,85 " style="fill:white; stroke-width:1; stroke:black; " description="&lt;b&gt;AAA27610.1&lt;/b&gt;&lt;br&gt;phosphoglucomutase / phosphomannomutase&lt;br&gt;Location: 3901 - 2555" locus_tag="AAA27610.1" class="clusterblast-orf" id="dummy-1_h1_3_31"  />
</g>
<g id="a1_0032"  >
<polygon points="708,90 717,90 722,85 717,80 708,80 708,90 " style="fill:#d81515; stroke-width:1; stroke:black; " description="&lt;b&gt;AAK53462.1&lt;/b&gt;&lt;br&gt;alpha subunit of putative 3-oxoacid CoA-transferase&lt;br&gt;Location: 2420 - 1692&lt;br&gt;&lt;br&gt;&lt;b&gt;BlastP hit with ctg31_49&lt;/b&gt;&lt;br&gt;Percentage identity: 57&lt;br&gt;Percentage coverage: 91&lt;br&gt;BLAST bit score: 243&lt;br&gt;E-value: 6.27e-81" locus_tag="AAK53462.1" class="clusterblast-orf" id="dummy-1_h1_3_32"  />
</g>
<g id="a1_0033"  >
<polygon points="722,90 729,90 734,85 729,80 722,80 722,90 " style="fill:#15d8d8; stroke-width:1; stroke:black; " description="&lt;b&gt;AAK53493.1&lt;/b&gt;&lt;br&gt;beta-subunit of putative 3-oxoacid CoA-transferase&lt;br&gt;Location: 1692 - 1054&lt;br&gt;&lt;br&gt;&lt;b&gt;BlastP hit with ctg31_50&lt;/b&gt;&lt;br&gt;Percentage identity: 63&lt;br&gt;Percentage coverage: 93&lt;br&gt;BLAST bit score: 246&lt;br&gt;E-value: 3.36e-83" locus_tag="AAK53493.1" class="clusterblast-orf" id="dummy-1_h1_3_33"  />
</g>
<g id="a1_0034"  >
<polygon points="739,85 744,80 752,80 752,90 744,90 739,85 " style="fill:white; stroke-width:1; stroke:black; " description="&lt;b&gt;AAK53494.1&lt;/b&gt;&lt;br&gt;conserved protein involved in carbohydrate biosynthesis&lt;br&gt;Location: 772 - 134" locus_tag="AAK53494.1" class="clusterblast-orf" id="dummy-1_h1_3_34"  />
</g>
</svg>
