<svg xmlns="http://www.w3.org/2000/svg" xmlns:xlink="http://www.w3.org/1999/xlink" version="1.1" x="0" y="0" height="50" width="800" viewBox="0 0 800 50" preserveAspectRatio="none"  >
<g label="Query sequence" class="clusterblast-cluster"  >
<text x="5" y="20" class="clusterblast-acc"  >
Query sequence</text>
<line x1="10" y1="35" x2="778.0" y2="35" style="stroke-width:1; stroke:grey; "  />
<polygon points="0,40 6,40 11,35 6,30 0,30 0,40 " style="fill:white; stroke-width:1; stroke:black; " description="&lt;b&gt;ctg61_21&lt;/b&gt;&lt;br&gt;ctg61 21&lt;br&gt;Location: 21819 - 22131" locus_tag="ctg61_21" class="clusterblast-orf" id="knownclusterblast-1_q0_0_all"  />
<polygon points="44,35 49,30 54,30 54,40 49,40 44,35 " style="fill:white; stroke-width:1; stroke:black; " description="&lt;b&gt;ctg61_22&lt;/b&gt;&lt;br&gt;ctg61 22&lt;br&gt;Location: 23015 - 23291" locus_tag="ctg61_22" class="clusterblast-orf" id="knownclusterblast-1_q1_0_all"  />
<polygon points="58,40 72,40 77,35 72,30 58,30 58,40 " style="fill:white; stroke-width:1; stroke:black; " description="&lt;b&gt;ctg61_23&lt;/b&gt;&lt;br&gt;ctg61 23&lt;br&gt;Location: 23415 - 23922" locus_tag="ctg61_23" class="clusterblast-orf" id="knownclusterblast-1_q2_0_all"  />
<polygon points="78,35 83,30 98,30 98,40 83,40 78,35 " style="fill:white; stroke-width:1; stroke:black; " description="&lt;b&gt;ctg61_24&lt;/b&gt;&lt;br&gt;ctg61 24&lt;br&gt;Location: 23943 - 24507" locus_tag="ctg61_24" class="clusterblast-orf" id="knownclusterblast-1_q3_0_all"  />
<polygon points="108,40 116,40 121,35 116,30 108,30 108,40 " style="fill:white; stroke-width:1; stroke:black; " description="&lt;b&gt;ctg61_25&lt;/b&gt;&lt;br&gt;ctg61 25&lt;br&gt;Location: 24762 - 25119" locus_tag="ctg61_25" class="clusterblast-orf" id="knownclusterblast-1_q4_0_all"  />
<polygon points="143,35 148,30 149,30 149,40 148,40 143,35 " style="fill:white; stroke-width:1; stroke:black; " description="&lt;b&gt;ctg61_26&lt;/b&gt;&lt;br&gt;ctg61 26&lt;br&gt;Location: 25724 - 25886" locus_tag="ctg61_26" class="clusterblast-orf" id="knownclusterblast-1_q5_0_all"  />
<polygon points="150,40 170,40 175,35 170,30 150,30 150,40 " style="fill:white; stroke-width:1; stroke:black; " description="&lt;b&gt;ctg61_27&lt;/b&gt;&lt;br&gt;ctg61 27&lt;br&gt;Location: 25917 - 26607" locus_tag="ctg61_27" class="clusterblast-orf" id="knownclusterblast-1_q6_0_all"  />
<polygon points="174,35 179,30 189,30 189,40 179,40 174,35 " style="fill:white; stroke-width:1; stroke:black; " description="&lt;b&gt;ctg61_28&lt;/b&gt;&lt;br&gt;ctg61 28&lt;br&gt;Location: 26571 - 26976" locus_tag="ctg61_28" class="clusterblast-orf" id="knownclusterblast-1_q7_0_all"  />
<polygon points="195,40 201,40 206,35 201,30 195,30 195,40 " style="fill:white; stroke-width:1; stroke:black; " description="&lt;b&gt;ctg61_29&lt;/b&gt;&lt;br&gt;ctg61 29&lt;br&gt;Location: 27135 - 27435" locus_tag="ctg61_29" class="clusterblast-orf" id="knownclusterblast-1_q8_0_all"  />
<polygon points="213,40 214,40 219,35 214,30 213,30 213,40 " style="fill:white; stroke-width:1; stroke:black; " description="&lt;b&gt;ctg61_30&lt;/b&gt;&lt;br&gt;ctg61 30&lt;br&gt;Location: 27627 - 27801" locus_tag="ctg61_30" class="clusterblast-orf" id="knownclusterblast-1_q9_0_all"  />
<polygon points="231,35 236,30 239,30 239,40 236,40 231,35 " style="fill:white; stroke-width:1; stroke:black; " description="&lt;b&gt;ctg61_31&lt;/b&gt;&lt;br&gt;ctg61 31&lt;br&gt;Location: 28125 - 28347" locus_tag="ctg61_31" class="clusterblast-orf" id="knownclusterblast-1_q10_0_all"  />
<polygon points="249,40 257,40 262,35 257,30 249,30 249,40 " style="fill:white; stroke-width:1; stroke:black; " description="&lt;b&gt;ctg61_32&lt;/b&gt;&lt;br&gt;ctg61 32&lt;br&gt;Location: 28620 - 28959" locus_tag="ctg61_32" class="clusterblast-orf" id="knownclusterblast-1_q11_0_all"  />
<polygon points="265,35 270,30 279,30 279,40 270,40 265,35 " style="fill:white; stroke-width:1; stroke:black; " description="&lt;b&gt;ctg61_33&lt;/b&gt;&lt;br&gt;ctg61 33&lt;br&gt;Location: 29048 - 29426" locus_tag="ctg61_33" class="clusterblast-orf" id="knownclusterblast-1_q12_0_all"  />
<polygon points="287,40 297,40 302,35 297,30 287,30 287,40 " style="fill:white; stroke-width:1; stroke:black; " description="&lt;b&gt;ctg61_34&lt;/b&gt;&lt;br&gt;ctg61 34&lt;br&gt;Location: 29661 - 30066" locus_tag="ctg61_34" class="clusterblast-orf" id="knownclusterblast-1_q13_0_all"  />
<polygon points="306,35 311,30 326,30 326,40 311,40 306,35 " style="fill:white; stroke-width:1; stroke:black; " description="&lt;b&gt;ctg61_35&lt;/b&gt;&lt;br&gt;ctg61 35&lt;br&gt;Location: 30173 - 30719" locus_tag="ctg61_35" class="clusterblast-orf" id="knownclusterblast-1_q14_0_all"  />
<polygon points="335,35 340,30 340,30 340,40 340,40 335,35 " style="fill:white; stroke-width:1; stroke:black; " description="&lt;b&gt;ctg61_36&lt;/b&gt;&lt;br&gt;ctg61 36&lt;br&gt;Location: 30965 - 31091" locus_tag="ctg61_36" class="clusterblast-orf" id="knownclusterblast-1_q15_0_all"  />
<polygon points="339,35 344,30 357,30 357,40 344,40 339,35 " style="fill:white; stroke-width:1; stroke:black; " description="&lt;b&gt;ctg61_37&lt;/b&gt;&lt;br&gt;ctg61 37&lt;br&gt;Location: 31063 - 31543" locus_tag="ctg61_37" class="clusterblast-orf" id="knownclusterblast-1_q16_0_all"  />
<polygon points="355,35 360,30 371,30 371,40 360,40 355,35 " style="fill:white; stroke-width:1; stroke:black; " description="&lt;b&gt;ctg61_38&lt;/b&gt;&lt;br&gt;ctg61 38&lt;br&gt;Location: 31496 - 31946" locus_tag="ctg61_38" class="clusterblast-orf" id="knownclusterblast-1_q17_0_all"  />
<polygon points="371,35 376,30 382,30 382,40 376,40 371,35 " style="fill:white; stroke-width:1; stroke:black; " description="&lt;b&gt;ctg61_39&lt;/b&gt;&lt;br&gt;ctg61 39&lt;br&gt;Location: 31942 - 32239" locus_tag="ctg61_39" class="clusterblast-orf" id="knownclusterblast-1_q18_0_all"  />
<polygon points="385,40 489,40 494,35 489,30 385,30 385,40 " style="fill:white; stroke-width:1; stroke:black; " description="&lt;b&gt;ctg61_40&lt;/b&gt;&lt;br&gt;ctg61 40&lt;br&gt;Location: 32319 - 35298" locus_tag="ctg61_40" class="clusterblast-orf" id="knownclusterblast-1_q19_0_all"  />
<polygon points="494,40 601,40 606,35 601,30 494,30 494,40 " style="fill:white; stroke-width:1; stroke:black; " description="&lt;b&gt;ctg61_41&lt;/b&gt;&lt;br&gt;ctg61 41&lt;br&gt;Location: 35294 - 38357" locus_tag="ctg61_41" class="clusterblast-orf" id="knownclusterblast-1_q20_0_all"  />
<polygon points="607,40 634,40 639,35 634,30 607,30 607,40 " style="fill:white; stroke-width:1; stroke:black; " description="&lt;b&gt;ctg61_42&lt;/b&gt;&lt;br&gt;ctg61 42&lt;br&gt;Location: 38367 - 39252" locus_tag="ctg61_42" class="clusterblast-orf" id="knownclusterblast-1_q21_0_all"  />
<polygon points="667,40 703,40 708,35 703,30 667,30 667,40 " style="fill:white; stroke-width:1; stroke:black; " description="&lt;b&gt;ctg61_43&lt;/b&gt;&lt;br&gt;ctg61 43&lt;br&gt;Location: 40016 - 41135" locus_tag="ctg61_43" class="clusterblast-orf" id="knownclusterblast-1_q22_0_all"  />
<polygon points="717,35 722,30 740,30 740,40 722,40 717,35 " style="fill:white; stroke-width:1; stroke:black; " description="&lt;b&gt;ctg61_44&lt;/b&gt;&lt;br&gt;ctg61 44&lt;br&gt;Location: 41358 - 42006" locus_tag="ctg61_44" class="clusterblast-orf" id="knownclusterblast-1_q23_0_all"  />
<polygon points="745,35 750,30 756,30 756,40 750,40 745,35 " style="fill:white; stroke-width:1; stroke:black; " description="&lt;b&gt;ctg61_45&lt;/b&gt;&lt;br&gt;ctg61 45&lt;br&gt;Location: 42139 - 42433" locus_tag="ctg61_45" class="clusterblast-orf" id="knownclusterblast-1_q24_0_all"  />
<polygon points="765,40 775,40 780,35 775,30 765,30 765,40 " style="fill:white; stroke-width:1; stroke:black; " description="&lt;b&gt;ctg61_46&lt;/b&gt;&lt;br&gt;ctg61 46&lt;br&gt;Location: 42692 - 43085" locus_tag="ctg61_46" class="clusterblast-orf" id="knownclusterblast-1_q25_0_all"  />
</g>
</svg>
