<svg xmlns="http://www.w3.org/2000/svg" xmlns:xlink="http://www.w3.org/1999/xlink" version="1.1" x="0" y="0" height="50" width="800" viewBox="0 0 800 50" preserveAspectRatio="none"  >
<g label="Query sequence" class="clusterblast-cluster"  >
<text x="5" y="20" class="clusterblast-acc"  >
Query sequence</text>
<line x1="10" y1="35" x2="778.0" y2="35" style="stroke-width:1; stroke:grey; "  />
<polygon points="0,35 5,30 26,30 26,40 5,40 0,35 " style="fill:white; stroke-width:1; stroke:black; " description="&lt;b&gt;ctg16_67&lt;/b&gt;&lt;br&gt;ctg16 67&lt;br&gt;Location: 56461 - 57340" locus_tag="ctg16_67" class="clusterblast-orf" id="knownclusterblast-1_q0_0_all"  />
<polygon points="26,35 31,30 39,30 39,40 31,40 26,35 " style="fill:white; stroke-width:1; stroke:black; " description="&lt;b&gt;ctg16_68&lt;/b&gt;&lt;br&gt;ctg16 68&lt;br&gt;Location: 57362 - 57773" locus_tag="ctg16_68" class="clusterblast-orf" id="knownclusterblast-1_q1_0_all"  />
<polygon points="39,40 50,40 55,35 50,30 39,30 39,40 " style="fill:white; stroke-width:1; stroke:black; " description="&lt;b&gt;ctg16_69&lt;/b&gt;&lt;br&gt;ctg16 69&lt;br&gt;Location: 57779 - 58316" locus_tag="ctg16_69" class="clusterblast-orf" id="knownclusterblast-1_q2_0_all"  />
<polygon points="56,40 83,40 88,35 83,30 56,30 56,40 " style="fill:white; stroke-width:1; stroke:black; " description="&lt;b&gt;ctg16_70&lt;/b&gt;&lt;br&gt;ctg16 70&lt;br&gt;Location: 58373 - 59456" locus_tag="ctg16_70" class="clusterblast-orf" id="knownclusterblast-1_q3_0_all"  />
<polygon points="88,35 93,30 105,30 105,40 93,40 88,35 " style="fill:white; stroke-width:1; stroke:black; " description="&lt;b&gt;ctg16_71&lt;/b&gt;&lt;br&gt;ctg16 71&lt;br&gt;Location: 59467 - 60022" locus_tag="ctg16_71" class="clusterblast-orf" id="knownclusterblast-1_q4_0_all"  />
<polygon points="113,40 168,40 173,35 168,30 113,30 113,40 " style="fill:white; stroke-width:1; stroke:black; " description="&lt;b&gt;ctg16_72&lt;/b&gt;&lt;br&gt;ctg16 72&lt;br&gt;Location: 60295 - 62332" locus_tag="ctg16_72" class="clusterblast-orf" id="knownclusterblast-1_q5_0_all"  />
<polygon points="201,35 206,30 249,30 249,40 206,40 201,35 " style="fill:white; stroke-width:1; stroke:black; " description="&lt;b&gt;ctg16_73&lt;/b&gt;&lt;br&gt;ctg16 73&lt;br&gt;Location: 63285 - 64893" locus_tag="ctg16_73" class="clusterblast-orf" id="knownclusterblast-1_q6_0_all"  />
<polygon points="253,40 276,40 281,35 276,30 253,30 253,40 " style="fill:white; stroke-width:1; stroke:black; " description="&lt;b&gt;ctg16_74&lt;/b&gt;&lt;br&gt;ctg16 74&lt;br&gt;Location: 65027 - 65999" locus_tag="ctg16_74" class="clusterblast-orf" id="knownclusterblast-1_q7_0_all"  />
<polygon points="281,35 286,30 308,30 308,40 286,40 281,35 " style="fill:white; stroke-width:1; stroke:black; " description="&lt;b&gt;ctg16_75&lt;/b&gt;&lt;br&gt;ctg16 75&lt;br&gt;Location: 66002 - 66908" locus_tag="ctg16_75" class="clusterblast-orf" id="knownclusterblast-1_q8_0_all"  />
<polygon points="310,35 315,30 320,30 320,40 315,40 310,35 " style="fill:white; stroke-width:1; stroke:black; " description="&lt;b&gt;ctg16_76&lt;/b&gt;&lt;br&gt;ctg16 76&lt;br&gt;Location: 66980 - 67322" locus_tag="ctg16_76" class="clusterblast-orf" id="knownclusterblast-1_q9_0_all"  />
<polygon points="330,40 368,40 373,35 368,30 330,30 330,40 " style="fill:white; stroke-width:1; stroke:black; " description="&lt;b&gt;ctg16_77&lt;/b&gt;&lt;br&gt;ctg16 77&lt;br&gt;Location: 67640 - 69101" locus_tag="ctg16_77" class="clusterblast-orf" id="knownclusterblast-1_q10_0_all"  />
<polygon points="373,40 415,40 420,35 415,30 373,30 373,40 " style="fill:white; stroke-width:1; stroke:black; " description="&lt;b&gt;ctg16_78&lt;/b&gt;&lt;br&gt;ctg16 78&lt;br&gt;Location: 69108 - 70695" locus_tag="ctg16_78" class="clusterblast-orf" id="knownclusterblast-1_q11_0_all"  />
<polygon points="421,40 448,40 453,35 448,30 421,30 421,40 " style="fill:white; stroke-width:1; stroke:black; " description="&lt;b&gt;ctg16_79&lt;/b&gt;&lt;br&gt;ctg16 79&lt;br&gt;Location: 70739 - 71831" locus_tag="ctg16_79" class="clusterblast-orf" id="knownclusterblast-1_q12_0_all"  />
<polygon points="453,40 476,40 481,35 476,30 453,30 453,40 " style="fill:white; stroke-width:1; stroke:black; " description="&lt;b&gt;ctg16_80&lt;/b&gt;&lt;br&gt;ctg16 80&lt;br&gt;Location: 71831 - 72788" locus_tag="ctg16_80" class="clusterblast-orf" id="knownclusterblast-1_q13_0_all"  />
<polygon points="483,40 528,40 533,35 528,30 483,30 483,40 " style="fill:white; stroke-width:1; stroke:black; " description="&lt;b&gt;ctg16_81&lt;/b&gt;&lt;br&gt;ctg16 81&lt;br&gt;Location: 72823 - 74521" locus_tag="ctg16_81" class="clusterblast-orf" id="knownclusterblast-1_q14_0_all"  />
<polygon points="532,40 549,40 554,35 549,30 532,30 532,40 " style="fill:white; stroke-width:1; stroke:black; " description="&lt;b&gt;ctg16_82&lt;/b&gt;&lt;br&gt;ctg16 82&lt;br&gt;Location: 74517 - 75246" locus_tag="ctg16_82" class="clusterblast-orf" id="knownclusterblast-1_q15_0_all"  />
<polygon points="553,40 571,40 576,35 571,30 553,30 553,40 " style="fill:white; stroke-width:1; stroke:black; " description="&lt;b&gt;ctg16_83&lt;/b&gt;&lt;br&gt;ctg16 83&lt;br&gt;Location: 75227 - 76001" locus_tag="ctg16_83" class="clusterblast-orf" id="knownclusterblast-1_q16_0_all"  />
<polygon points="576,40 641,40 646,35 641,30 576,30 576,40 " style="fill:white; stroke-width:1; stroke:black; " description="&lt;b&gt;ctg16_84&lt;/b&gt;&lt;br&gt;ctg16 84&lt;br&gt;Location: 75997 - 78370" locus_tag="ctg16_84" class="clusterblast-orf" id="knownclusterblast-1_q17_0_all"  />
<polygon points="647,40 659,40 664,35 659,30 647,30 647,40 " style="fill:white; stroke-width:1; stroke:black; " description="&lt;b&gt;ctg16_85&lt;/b&gt;&lt;br&gt;ctg16 85&lt;br&gt;Location: 78383 - 78965" locus_tag="ctg16_85" class="clusterblast-orf" id="knownclusterblast-1_q18_0_all"  />
<polygon points="664,35 669,30 692,30 692,40 669,40 664,35 " style="fill:white; stroke-width:1; stroke:black; " description="&lt;b&gt;ctg16_86&lt;/b&gt;&lt;br&gt;ctg16 86&lt;br&gt;Location: 78971 - 79937" locus_tag="ctg16_86" class="clusterblast-orf" id="knownclusterblast-1_q19_0_all"  />
<polygon points="692,35 697,30 720,30 720,40 697,40 692,35 " style="fill:white; stroke-width:1; stroke:black; " description="&lt;b&gt;ctg16_87&lt;/b&gt;&lt;br&gt;ctg16 87&lt;br&gt;Location: 79933 - 80866" locus_tag="ctg16_87" class="clusterblast-orf" id="knownclusterblast-1_q20_0_all"  />
<polygon points="720,35 725,30 762,30 762,40 725,40 720,35 " style="fill:white; stroke-width:1; stroke:black; " description="&lt;b&gt;ctg16_88&lt;/b&gt;&lt;br&gt;ctg16 88&lt;br&gt;Location: 80862 - 82299" locus_tag="ctg16_88" class="clusterblast-orf" id="knownclusterblast-1_q21_0_all"  />
<polygon points="768,35 773,30 780,30 780,40 773,40 768,35 " style="fill:white; stroke-width:1; stroke:black; " description="&lt;b&gt;ctg16_89&lt;/b&gt;&lt;br&gt;ctg16 89&lt;br&gt;Location: 82507 - 82900" locus_tag="ctg16_89" class="clusterblast-orf" id="knownclusterblast-1_q22_0_all"  />
</g>
</svg>
