<svg xmlns="http://www.w3.org/2000/svg" xmlns:xlink="http://www.w3.org/1999/xlink" version="1.1" x="0" y="0" height="230" width="800" viewBox="0 0 800 230" preserveAspectRatio="none"  >
<g label="Query sequence" class="clusterblast-cluster"  >
<text x="5" y="20" class="clusterblast-acc"  >
Query sequence</text>
<line x1="10" y1="35" x2="778.0" y2="35" style="stroke-width:1; stroke:grey; "  />
<polygon points="36,40 46,40 51,35 46,30 36,30 36,40 " style="fill:white; stroke-width:1; stroke:black; " description="&lt;b&gt;ctg31_15&lt;/b&gt;&lt;br&gt;ctg31 15&lt;br&gt;Location: 14193 - 15084" locus_tag="ctg31_15" class="clusterblast-orf" id="dummy-1_q0_0_all"  />
<polygon points="51,35 56,30 68,30 68,40 56,40 51,35 " style="fill:white; stroke-width:1; stroke:black; " description="&lt;b&gt;ctg31_16&lt;/b&gt;&lt;br&gt;ctg31 16&lt;br&gt;Location: 15070 - 16018" locus_tag="ctg31_16" class="clusterblast-orf" id="dummy-1_q1_0_all"  />
<polygon points="68,35 73,30 97,30 97,40 73,40 68,35 " style="fill:white; stroke-width:1; stroke:black; " description="&lt;b&gt;ctg31_17&lt;/b&gt;&lt;br&gt;ctg31 17&lt;br&gt;Location: 16017 - 17691" locus_tag="ctg31_17" class="clusterblast-orf" id="dummy-1_q2_0_all"  />
<polygon points="97,35 102,30 108,30 108,40 102,40 97,35 " style="fill:white; stroke-width:1; stroke:black; " description="&lt;b&gt;ctg31_18&lt;/b&gt;&lt;br&gt;ctg31 18&lt;br&gt;Location: 17683 - 18361" locus_tag="ctg31_18" class="clusterblast-orf" id="dummy-1_q3_0_all"  />
<polygon points="109,35 114,30 132,30 132,40 114,40 109,35 " style="fill:white; stroke-width:1; stroke:black; " description="&lt;b&gt;ctg31_19&lt;/b&gt;&lt;br&gt;ctg31 19&lt;br&gt;Location: 18407 - 19694" locus_tag="ctg31_19" class="clusterblast-orf" id="dummy-1_q4_0_all"  />
<polygon points="132,40 142,40 147,35 142,30 132,30 132,40 " style="fill:white; stroke-width:1; stroke:black; " description="&lt;b&gt;ctg31_20&lt;/b&gt;&lt;br&gt;ctg31 20&lt;br&gt;Location: 19733 - 20561" locus_tag="ctg31_20" class="clusterblast-orf" id="dummy-1_q5_0_all"  />
<polygon points="147,40 151,40 156,35 151,30 147,30 147,40 " style="fill:white; stroke-width:1; stroke:black; " description="&lt;b&gt;ctg31_21&lt;/b&gt;&lt;br&gt;ctg31 21&lt;br&gt;Location: 20562 - 21060" locus_tag="ctg31_21" class="clusterblast-orf" id="dummy-1_q6_0_all"  />
<polygon points="156,40 168,40 173,35 168,30 156,30 156,40 " style="fill:white; stroke-width:1; stroke:black; " description="&lt;b&gt;ctg31_22&lt;/b&gt;&lt;br&gt;ctg31 22&lt;br&gt;Location: 21086 - 22034" locus_tag="ctg31_22" class="clusterblast-orf" id="dummy-1_q7_0_all"  />
<polygon points="173,40 174,40 179,35 174,30 173,30 173,40 " style="fill:white; stroke-width:1; stroke:black; " description="&lt;b&gt;ctg31_23&lt;/b&gt;&lt;br&gt;ctg31 23&lt;br&gt;Location: 22044 - 22389" locus_tag="ctg31_23" class="clusterblast-orf" id="dummy-1_q8_0_all"  />
<polygon points="180,40 187,40 192,35 187,30 180,30 180,40 " style="fill:white; stroke-width:1; stroke:black; " description="&lt;b&gt;ctg31_24&lt;/b&gt;&lt;br&gt;ctg31 24&lt;br&gt;Location: 22447 - 23152" locus_tag="ctg31_24" class="clusterblast-orf" id="dummy-1_q9_0_all"  />
<polygon points="193,35 195,30 195,40 193,35 " style="fill:white; stroke-width:1; stroke:black; " description="&lt;b&gt;ctg31_25&lt;/b&gt;&lt;br&gt;ctg31 25&lt;br&gt;Location: 23178 - 23301" locus_tag="ctg31_25" class="clusterblast-orf" id="dummy-1_q10_0_all"  />
<polygon points="195,40 221,40 226,35 221,30 195,30 195,40 " style="fill:white; stroke-width:1; stroke:black; " description="&lt;b&gt;ctg31_26&lt;/b&gt;&lt;br&gt;ctg31 26&lt;br&gt;Location: 23319 - 25116" locus_tag="ctg31_26" class="clusterblast-orf" id="dummy-1_q11_0_all"  />
<polygon points="226,35 231,30 240,30 240,40 231,40 226,35 " style="fill:white; stroke-width:1; stroke:black; " description="&lt;b&gt;ctg31_27&lt;/b&gt;&lt;br&gt;ctg31 27&lt;br&gt;Location: 25078 - 25888" locus_tag="ctg31_27" class="clusterblast-orf" id="dummy-1_q12_0_all"  />
<polygon points="241,35 245,30 245,40 241,35 " style="fill:white; stroke-width:1; stroke:black; " description="&lt;b&gt;ctg31_28&lt;/b&gt;&lt;br&gt;ctg31 28&lt;br&gt;Location: 25963 - 26167" locus_tag="ctg31_28" class="clusterblast-orf" id="dummy-1_q13_0_all"  />
<polygon points="245,35 250,30 282,30 282,40 250,40 245,35 " style="fill:white; stroke-width:1; stroke:black; " description="&lt;b&gt;ctg31_29&lt;/b&gt;&lt;br&gt;ctg31 29&lt;br&gt;Location: 26191 - 28267" locus_tag="ctg31_29" class="clusterblast-orf" id="dummy-1_q14_0_all"  />
<polygon points="283,35 288,30 291,30 291,40 288,40 283,35 " style="fill:white; stroke-width:1; stroke:black; " description="&lt;b&gt;ctg31_30&lt;/b&gt;&lt;br&gt;ctg31 30&lt;br&gt;Location: 28367 - 28835" locus_tag="ctg31_30" class="clusterblast-orf" id="dummy-1_q15_0_all"  />
<polygon points="292,40 307,40 312,35 307,30 292,30 292,40 " style="fill:white; stroke-width:1; stroke:black; " description="&lt;b&gt;ctg31_31&lt;/b&gt;&lt;br&gt;ctg31 31&lt;br&gt;Location: 28855 - 29995" locus_tag="ctg31_31" class="clusterblast-orf" id="dummy-1_q16_0_all"  />
<polygon points="313,35 315,30 315,40 313,35 " style="fill:white; stroke-width:1; stroke:black; " description="&lt;b&gt;ctg31_32&lt;/b&gt;&lt;br&gt;ctg31 32&lt;br&gt;Location: 30069 - 30180" locus_tag="ctg31_32" class="clusterblast-orf" id="dummy-1_q17_0_all"  />
<polygon points="316,35 320,30 320,40 316,35 " style="fill:white; stroke-width:1; stroke:black; " description="&lt;b&gt;ctg31_33&lt;/b&gt;&lt;br&gt;ctg31 33&lt;br&gt;Location: 30231 - 30486" locus_tag="ctg31_33" class="clusterblast-orf" id="dummy-1_q18_0_all"  />
<polygon points="321,35 326,30 341,30 341,40 326,40 321,35 " style="fill:white; stroke-width:1; stroke:black; " description="&lt;b&gt;ctg31_34&lt;/b&gt;&lt;br&gt;ctg31 34&lt;br&gt;Location: 30544 - 31690" locus_tag="ctg31_34" class="clusterblast-orf" id="dummy-1_q19_0_all"  />
<polygon points="343,35 348,30 373,30 373,40 348,40 343,35 " style="fill:white; stroke-width:1; stroke:black; " description="&lt;b&gt;ctg31_35&lt;/b&gt;&lt;br&gt;ctg31 35&lt;br&gt;Location: 31769 - 33527" locus_tag="ctg31_35" class="clusterblast-orf" id="dummy-1_q20_0_all"  />
<polygon points="373,35 378,30 423,30 423,40 378,40 373,35 " style="fill:white; stroke-width:1; stroke:black; " description="&lt;b&gt;ctg31_36&lt;/b&gt;&lt;br&gt;ctg31 36&lt;br&gt;Location: 33528 - 36384" locus_tag="ctg31_36" class="clusterblast-orf" id="dummy-1_q21_0_all"  />
<polygon points="427,35 432,30 451,30 451,40 432,40 427,35 " style="fill:white; stroke-width:1; stroke:black; " description="&lt;b&gt;ctg31_37&lt;/b&gt;&lt;br&gt;ctg31 37&lt;br&gt;Location: 36600 - 37983" locus_tag="ctg31_37" class="clusterblast-orf" id="dummy-1_q22_0_all"  />
<polygon points="455,40 458,40 463,35 458,30 455,30 455,40 " style="fill:white; stroke-width:1; stroke:black; " description="&lt;b&gt;ctg31_38&lt;/b&gt;&lt;br&gt;ctg31 38&lt;br&gt;Location: 38183 - 38657" locus_tag="ctg31_38" class="clusterblast-orf" id="dummy-1_q23_0_all"  />
<polygon points="463,35 468,30 468,30 468,40 468,40 463,35 " style="fill:white; stroke-width:1; stroke:black; " description="&lt;b&gt;ctg31_39&lt;/b&gt;&lt;br&gt;ctg31 39&lt;br&gt;Location: 38653 - 38962" locus_tag="ctg31_39" class="clusterblast-orf" id="dummy-1_q24_0_all"  />
<polygon points="469,35 470,30 470,40 469,35 " style="fill:white; stroke-width:1; stroke:black; " description="&lt;b&gt;ctg31_40&lt;/b&gt;&lt;br&gt;ctg31 40&lt;br&gt;Location: 38989 - 39079" locus_tag="ctg31_40" class="clusterblast-orf" id="dummy-1_q25_0_all"  />
<polygon points="470,35 475,30 477,30 477,40 475,40 470,35 " style="fill:white; stroke-width:1; stroke:black; " description="&lt;b&gt;ctg31_41&lt;/b&gt;&lt;br&gt;ctg31 41&lt;br&gt;Location: 39075 - 39450" locus_tag="ctg31_41" class="clusterblast-orf" id="dummy-1_q26_0_all"  />
<polygon points="477,35 481,30 481,40 477,35 " style="fill:white; stroke-width:1; stroke:black; " description="&lt;b&gt;ctg31_42&lt;/b&gt;&lt;br&gt;ctg31 42&lt;br&gt;Location: 39446 - 39677" locus_tag="ctg31_42" class="clusterblast-orf" id="dummy-1_q27_0_all"  />
<polygon points="484,35 489,30 494,30 494,40 489,40 484,35 " style="fill:white; stroke-width:1; stroke:black; " description="&lt;b&gt;ctg31_43&lt;/b&gt;&lt;br&gt;ctg31 43&lt;br&gt;Location: 39843 - 40443" locus_tag="ctg31_43" class="clusterblast-orf" id="dummy-1_q28_0_all"  />
<polygon points="494,35 497,30 497,40 494,35 " style="fill:white; stroke-width:1; stroke:black; " description="&lt;b&gt;ctg31_44&lt;/b&gt;&lt;br&gt;ctg31 44&lt;br&gt;Location: 40453 - 40606" locus_tag="ctg31_44" class="clusterblast-orf" id="dummy-1_q29_0_all"  />
<polygon points="504,35 507,30 507,40 504,35 " style="fill:white; stroke-width:1; stroke:black; " description="&lt;b&gt;ctg31_45&lt;/b&gt;&lt;br&gt;ctg31 45&lt;br&gt;Location: 40993 - 41176" locus_tag="ctg31_45" class="clusterblast-orf" id="dummy-1_q30_0_all"  />
<polygon points="509,35 514,30 515,30 515,40 514,40 509,35 " style="fill:white; stroke-width:1; stroke:black; " description="&lt;b&gt;ctg31_46&lt;/b&gt;&lt;br&gt;ctg31 46&lt;br&gt;Location: 41296 - 41647" locus_tag="ctg31_46" class="clusterblast-orf" id="dummy-1_q31_0_all"  />
<polygon points="517,40 548,40 553,35 548,30 517,30 517,40 " style="fill:white; stroke-width:1; stroke:black; " description="&lt;b&gt;ctg31_47&lt;/b&gt;&lt;br&gt;ctg31 47&lt;br&gt;Location: 41746 - 43828" locus_tag="ctg31_47" class="clusterblast-orf" id="dummy-1_q32_0_all"  />
<polygon points="555,40 558,40 563,35 558,30 555,30 555,40 " style="fill:white; stroke-width:1; stroke:black; " description="&lt;b&gt;ctg31_48&lt;/b&gt;&lt;br&gt;ctg31 48&lt;br&gt;Location: 43902 - 44358" locus_tag="ctg31_48" class="clusterblast-orf" id="dummy-1_q33_0_all"  />
<polygon points="564,40 571,40 576,35 571,30 564,30 564,40 " style="fill:#d81515; stroke-width:1; stroke:black; " description="&lt;b&gt;ctg31_49&lt;/b&gt;&lt;br&gt;ctg31 49&lt;br&gt;Location: 44432 - 45140" locus_tag="ctg31_49" class="clusterblast-orf" id="dummy-1_q34_0_all"  />
<polygon points="575,40 582,40 587,35 582,30 575,30 575,40 " style="fill:#15d8d8; stroke-width:1; stroke:black; " description="&lt;b&gt;ctg31_50&lt;/b&gt;&lt;br&gt;ctg31 50&lt;br&gt;Location: 45084 - 45732" locus_tag="ctg31_50" class="clusterblast-orf" id="dummy-1_q35_0_all"  />
<polygon points="589,40 605,40 610,35 605,30 589,30 589,40 " style="fill:white; stroke-width:1; stroke:black; " description="&lt;b&gt;ctg31_51&lt;/b&gt;&lt;br&gt;ctg31 51&lt;br&gt;Location: 45853 - 47050" locus_tag="ctg31_51" class="clusterblast-orf" id="dummy-1_q36_0_all"  />
<polygon points="610,40 625,40 630,35 625,30 610,30 610,40 " style="fill:white; stroke-width:1; stroke:black; " description="&lt;b&gt;ctg31_52&lt;/b&gt;&lt;br&gt;ctg31 52&lt;br&gt;Location: 47092 - 48235" locus_tag="ctg31_52" class="clusterblast-orf" id="dummy-1_q37_0_all"  />
<polygon points="633,35 636,30 636,40 633,35 " style="fill:white; stroke-width:1; stroke:black; " description="&lt;b&gt;ctg31_53&lt;/b&gt;&lt;br&gt;ctg31 53&lt;br&gt;Location: 48412 - 48529" locus_tag="ctg31_53" class="clusterblast-orf" id="dummy-1_q38_0_all"  />
<polygon points="635,35 640,30 640,30 640,40 640,40 635,35 " style="fill:white; stroke-width:1; stroke:black; " description="&lt;b&gt;ctg31_54&lt;/b&gt;&lt;br&gt;ctg31 54&lt;br&gt;Location: 48525 - 48789" locus_tag="ctg31_54" class="clusterblast-orf" id="dummy-1_q39_0_all"  />
<polygon points="644,40 646,35 644,30 644,40 " style="fill:white; stroke-width:1; stroke:black; " description="&lt;b&gt;ctg31_55&lt;/b&gt;&lt;br&gt;ctg31 55&lt;br&gt;Location: 49002 - 49149" locus_tag="ctg31_55" class="clusterblast-orf" id="dummy-1_q40_0_all"  />
<polygon points="649,40 689,40 694,35 689,30 649,30 649,40 " style="fill:white; stroke-width:1; stroke:black; " description="&lt;b&gt;ctg31_56&lt;/b&gt;&lt;br&gt;ctg31 56&lt;br&gt;Location: 49283 - 51899" locus_tag="ctg31_56" class="clusterblast-orf" id="dummy-1_q41_0_all"  />
<polygon points="696,40 704,40 709,35 704,30 696,30 696,40 " style="fill:white; stroke-width:1; stroke:black; " description="&lt;b&gt;ctg31_57&lt;/b&gt;&lt;br&gt;ctg31 57&lt;br&gt;Location: 51988 - 52732" locus_tag="ctg31_57" class="clusterblast-orf" id="dummy-1_q42_0_all"  />
<polygon points="709,40 714,40 719,35 714,30 709,30 709,40 " style="fill:white; stroke-width:1; stroke:black; " description="&lt;b&gt;ctg31_58&lt;/b&gt;&lt;br&gt;ctg31 58&lt;br&gt;Location: 52715 - 53303" locus_tag="ctg31_58" class="clusterblast-orf" id="dummy-1_q43_0_all"  />
<polygon points="718,35 723,30 744,30 744,40 723,40 718,35 " style="fill:white; stroke-width:1; stroke:black; " description="&lt;b&gt;ctg31_59&lt;/b&gt;&lt;br&gt;ctg31 59&lt;br&gt;Location: 53261 - 54719" locus_tag="ctg31_59" class="clusterblast-orf" id="dummy-1_q44_0_all"  />
</g>
<g label="BGC0001090" description="BGC0001090_c1: bacillomycin D (20% of genes show similarity), Polyketide+NRP:Lipopeptide" class="clusterblast-cluster"  >
<text x="5" y="70" class="clusterblast-acc"  >
<a xlink:href="https://mibig.secondarymetabolites.org/go/BGC0001090/1" target="_blank">BGC0001090</a>: bacillomycin D                                                                   (20% of genes show similarity), Polyketide+NRP:Lipopeptide</text>
<line x1="10" y1="85" x2="778.0" y2="85" style="stroke-width:1; stroke:grey; "  />
</g>
<g id="a1_000"  >
<polygon points="0,90 20,90 25,85 20,80 0,80 0,90 " style="fill:white; stroke-width:1; stroke:black; " description="&lt;b&gt;RBAM_018230&lt;/b&gt;&lt;br&gt;YxjC&lt;br&gt;Location: 44647 - 43211" locus_tag="RBAM_018230" class="clusterblast-orf" id="dummy-1_h1_1_0"  />
</g>
<g id="a1_001"  >
<polygon points="25,90 32,90 37,85 32,80 25,80 25,90 " style="fill:#d81515; stroke-width:1; stroke:black; " description="&lt;b&gt;RBAM_018220&lt;/b&gt;&lt;br&gt;ScoA&lt;br&gt;Location: 43186 - 42485&lt;br&gt;&lt;br&gt;&lt;b&gt;BlastP hit with ctg31_49&lt;/b&gt;&lt;br&gt;Percentage identity: 62&lt;br&gt;Percentage coverage: 91&lt;br&gt;BLAST bit score: 268&lt;br&gt;E-value: 6.36e-91" locus_tag="RBAM_018220" class="clusterblast-orf" id="dummy-1_h1_1_1"  />
</g>
<g id="a1_002"  >
<polygon points="38,90 44,90 49,85 44,80 38,80 38,90 " style="fill:#15d8d8; stroke-width:1; stroke:black; " description="&lt;b&gt;RBAM_018210&lt;/b&gt;&lt;br&gt;ScoB&lt;br&gt;Location: 42467 - 41805&lt;br&gt;&lt;br&gt;&lt;b&gt;BlastP hit with ctg31_50&lt;/b&gt;&lt;br&gt;Percentage identity: 57&lt;br&gt;Percentage coverage: 93&lt;br&gt;BLAST bit score: 238&lt;br&gt;E-value: 1.36e-79" locus_tag="RBAM_018210" class="clusterblast-orf" id="dummy-1_h1_1_2"  />
</g>
<g id="a1_003"  >
<polygon points="49,90 58,90 63,85 58,80 49,80 49,90 " style="fill:white; stroke-width:1; stroke:black; " description="&lt;b&gt;RBAM_018200&lt;/b&gt;&lt;br&gt;YxjF&lt;br&gt;Location: 41792 - 41007" locus_tag="RBAM_018200" class="clusterblast-orf" id="dummy-1_h1_1_3"  />
</g>
<g id="a1_004"  >
<polygon points="73,90 89,90 94,85 89,80 73,80 73,90 " style="fill:white; stroke-width:1; stroke:black; " description="&lt;b&gt;RBAM_018190&lt;/b&gt;&lt;br&gt;malonyl-CoA transacylase &lt;br&gt;Location: 40447 - 39245" locus_tag="RBAM_018190" class="clusterblast-orf" id="dummy-1_h1_1_4"  />
</g>
<g id="a1_005"  >
<polygon points="94,90 298,90 303,85 298,80 94,80 94,90 " style="fill:white; stroke-width:1; stroke:black; " description="&lt;b&gt;RBAM_018180&lt;/b&gt;&lt;br&gt;bacillomycin D synthetase A &lt;br&gt;Location: 39225 - 27277" locus_tag="RBAM_018180" class="clusterblast-orf" id="dummy-1_h1_1_5"  />
</g>
<g id="a1_006"  >
<polygon points="304,90 580,90 585,85 580,80 304,80 304,90 " style="fill:white; stroke-width:1; stroke:black; " description="&lt;b&gt;RBAM_018170&lt;/b&gt;&lt;br&gt;bacillomycin D synthetase B&lt;br&gt;Location: 27232 - 11141" locus_tag="RBAM_018170" class="clusterblast-orf" id="dummy-1_h1_1_6"  />
</g>
<g id="a1_007"  >
<polygon points="586,90 719,90 724,85 719,80 586,80 586,90 " style="fill:white; stroke-width:1; stroke:black; " description="&lt;b&gt;RBAM_018160&lt;/b&gt;&lt;br&gt;bacillomycin D synthetase C&lt;br&gt;Location: 11056 - 3197" locus_tag="RBAM_018160" class="clusterblast-orf" id="dummy-1_h1_1_7"  />
</g>
<g id="a1_008"  >
<polygon points="729,90 751,90 756,85 751,80 729,80 729,90 " style="fill:white; stroke-width:1; stroke:black; " description="&lt;b&gt;RBAM_018150&lt;/b&gt;&lt;br&gt;XynD&lt;br&gt;Location: 2872 - 1334" locus_tag="RBAM_018150" class="clusterblast-orf" id="dummy-1_h1_1_8"  />
</g>
<g id="a1_009"  >
<polygon points="757,90 775,90 780,85 775,80 757,80 757,90 " style="fill:white; stroke-width:1; stroke:black; " description="&lt;b&gt;RBAM_018140&lt;/b&gt;&lt;br&gt;YnfF&lt;br&gt;Location: 1272 - 1" locus_tag="RBAM_018140" class="clusterblast-orf" id="dummy-1_h1_1_9"  />
</g>
</svg>
