<svg xmlns="http://www.w3.org/2000/svg" xmlns:xlink="http://www.w3.org/1999/xlink" version="1.1" x="0" y="0" height="230" width="800" viewBox="0 0 800 230" preserveAspectRatio="none"  >
<g label="Query sequence" class="clusterblast-cluster"  >
<text x="5" y="20" class="clusterblast-acc"  >
Query sequence</text>
<line x1="10" y1="35" x2="778.0" y2="35" style="stroke-width:1; stroke:grey; "  />
<polygon points="0,40 12,40 17,35 12,30 0,30 0,40 " style="fill:white; stroke-width:1; stroke:black; " description="&lt;b&gt;ctg31_15&lt;/b&gt;&lt;br&gt;ctg31 15&lt;br&gt;Location: 14193 - 15084" locus_tag="ctg31_15" class="clusterblast-orf" id="dummy-1_q0_0_all"  />
<polygon points="17,35 22,30 35,30 35,40 22,40 17,35 " style="fill:white; stroke-width:1; stroke:black; " description="&lt;b&gt;ctg31_16&lt;/b&gt;&lt;br&gt;ctg31 16&lt;br&gt;Location: 15070 - 16018" locus_tag="ctg31_16" class="clusterblast-orf" id="dummy-1_q1_0_all"  />
<polygon points="35,35 40,30 67,30 67,40 40,40 35,35 " style="fill:white; stroke-width:1; stroke:black; " description="&lt;b&gt;ctg31_17&lt;/b&gt;&lt;br&gt;ctg31 17&lt;br&gt;Location: 16017 - 17691" locus_tag="ctg31_17" class="clusterblast-orf" id="dummy-1_q2_0_all"  />
<polygon points="67,35 72,30 80,30 80,40 72,40 67,35 " style="fill:white; stroke-width:1; stroke:black; " description="&lt;b&gt;ctg31_18&lt;/b&gt;&lt;br&gt;ctg31 18&lt;br&gt;Location: 17683 - 18361" locus_tag="ctg31_18" class="clusterblast-orf" id="dummy-1_q3_0_all"  />
<polygon points="81,35 86,30 106,30 106,40 86,40 81,35 " style="fill:white; stroke-width:1; stroke:black; " description="&lt;b&gt;ctg31_19&lt;/b&gt;&lt;br&gt;ctg31 19&lt;br&gt;Location: 18407 - 19694" locus_tag="ctg31_19" class="clusterblast-orf" id="dummy-1_q4_0_all"  />
<polygon points="106,40 117,40 122,35 117,30 106,30 106,40 " style="fill:white; stroke-width:1; stroke:black; " description="&lt;b&gt;ctg31_20&lt;/b&gt;&lt;br&gt;ctg31 20&lt;br&gt;Location: 19733 - 20561" locus_tag="ctg31_20" class="clusterblast-orf" id="dummy-1_q5_0_all"  />
<polygon points="122,40 127,40 132,35 127,30 122,30 122,40 " style="fill:white; stroke-width:1; stroke:black; " description="&lt;b&gt;ctg31_21&lt;/b&gt;&lt;br&gt;ctg31 21&lt;br&gt;Location: 20562 - 21060" locus_tag="ctg31_21" class="clusterblast-orf" id="dummy-1_q6_0_all"  />
<polygon points="132,40 146,40 151,35 146,30 132,30 132,40 " style="fill:white; stroke-width:1; stroke:black; " description="&lt;b&gt;ctg31_22&lt;/b&gt;&lt;br&gt;ctg31 22&lt;br&gt;Location: 21086 - 22034" locus_tag="ctg31_22" class="clusterblast-orf" id="dummy-1_q7_0_all"  />
<polygon points="151,40 152,40 157,35 152,30 151,30 151,40 " style="fill:white; stroke-width:1; stroke:black; " description="&lt;b&gt;ctg31_23&lt;/b&gt;&lt;br&gt;ctg31 23&lt;br&gt;Location: 22044 - 22389" locus_tag="ctg31_23" class="clusterblast-orf" id="dummy-1_q8_0_all"  />
<polygon points="159,40 167,40 172,35 167,30 159,30 159,40 " style="fill:white; stroke-width:1; stroke:black; " description="&lt;b&gt;ctg31_24&lt;/b&gt;&lt;br&gt;ctg31 24&lt;br&gt;Location: 22447 - 23152" locus_tag="ctg31_24" class="clusterblast-orf" id="dummy-1_q9_0_all"  />
<polygon points="173,35 175,30 175,40 173,35 " style="fill:white; stroke-width:1; stroke:black; " description="&lt;b&gt;ctg31_25&lt;/b&gt;&lt;br&gt;ctg31 25&lt;br&gt;Location: 23178 - 23301" locus_tag="ctg31_25" class="clusterblast-orf" id="dummy-1_q10_0_all"  />
<polygon points="175,40 205,40 210,35 205,30 175,30 175,40 " style="fill:white; stroke-width:1; stroke:black; " description="&lt;b&gt;ctg31_26&lt;/b&gt;&lt;br&gt;ctg31 26&lt;br&gt;Location: 23319 - 25116" locus_tag="ctg31_26" class="clusterblast-orf" id="dummy-1_q11_0_all"  />
<polygon points="209,35 214,30 225,30 225,40 214,40 209,35 " style="fill:white; stroke-width:1; stroke:black; " description="&lt;b&gt;ctg31_27&lt;/b&gt;&lt;br&gt;ctg31 27&lt;br&gt;Location: 25078 - 25888" locus_tag="ctg31_27" class="clusterblast-orf" id="dummy-1_q12_0_all"  />
<polygon points="226,35 230,30 230,40 226,35 " style="fill:white; stroke-width:1; stroke:black; " description="&lt;b&gt;ctg31_28&lt;/b&gt;&lt;br&gt;ctg31 28&lt;br&gt;Location: 25963 - 26167" locus_tag="ctg31_28" class="clusterblast-orf" id="dummy-1_q13_0_all"  />
<polygon points="231,35 236,30 271,30 271,40 236,40 231,35 " style="fill:white; stroke-width:1; stroke:black; " description="&lt;b&gt;ctg31_29&lt;/b&gt;&lt;br&gt;ctg31 29&lt;br&gt;Location: 26191 - 28267" locus_tag="ctg31_29" class="clusterblast-orf" id="dummy-1_q14_0_all"  />
<polygon points="272,35 277,30 282,30 282,40 277,40 272,35 " style="fill:white; stroke-width:1; stroke:black; " description="&lt;b&gt;ctg31_30&lt;/b&gt;&lt;br&gt;ctg31 30&lt;br&gt;Location: 28367 - 28835" locus_tag="ctg31_30" class="clusterblast-orf" id="dummy-1_q15_0_all"  />
<polygon points="282,40 299,40 304,35 299,30 282,30 282,40 " style="fill:white; stroke-width:1; stroke:black; " description="&lt;b&gt;ctg31_31&lt;/b&gt;&lt;br&gt;ctg31 31&lt;br&gt;Location: 28855 - 29995" locus_tag="ctg31_31" class="clusterblast-orf" id="dummy-1_q16_0_all"  />
<polygon points="305,35 307,30 307,40 305,35 " style="fill:white; stroke-width:1; stroke:black; " description="&lt;b&gt;ctg31_32&lt;/b&gt;&lt;br&gt;ctg31 32&lt;br&gt;Location: 30069 - 30180" locus_tag="ctg31_32" class="clusterblast-orf" id="dummy-1_q17_0_all"  />
<polygon points="308,35 313,30 313,30 313,40 313,40 308,35 " style="fill:white; stroke-width:1; stroke:black; " description="&lt;b&gt;ctg31_33&lt;/b&gt;&lt;br&gt;ctg31 33&lt;br&gt;Location: 30231 - 30486" locus_tag="ctg31_33" class="clusterblast-orf" id="dummy-1_q18_0_all"  />
<polygon points="314,35 319,30 336,30 336,40 319,40 314,35 " style="fill:white; stroke-width:1; stroke:black; " description="&lt;b&gt;ctg31_34&lt;/b&gt;&lt;br&gt;ctg31 34&lt;br&gt;Location: 30544 - 31690" locus_tag="ctg31_34" class="clusterblast-orf" id="dummy-1_q19_0_all"  />
<polygon points="338,35 343,30 372,30 372,40 343,40 338,35 " style="fill:white; stroke-width:1; stroke:black; " description="&lt;b&gt;ctg31_35&lt;/b&gt;&lt;br&gt;ctg31 35&lt;br&gt;Location: 31769 - 33527" locus_tag="ctg31_35" class="clusterblast-orf" id="dummy-1_q20_0_all"  />
<polygon points="372,35 377,30 427,30 427,40 377,40 372,35 " style="fill:white; stroke-width:1; stroke:black; " description="&lt;b&gt;ctg31_36&lt;/b&gt;&lt;br&gt;ctg31 36&lt;br&gt;Location: 33528 - 36384" locus_tag="ctg31_36" class="clusterblast-orf" id="dummy-1_q21_0_all"  />
<polygon points="431,35 436,30 458,30 458,40 436,40 431,35 " style="fill:white; stroke-width:1; stroke:black; " description="&lt;b&gt;ctg31_37&lt;/b&gt;&lt;br&gt;ctg31 37&lt;br&gt;Location: 36600 - 37983" locus_tag="ctg31_37" class="clusterblast-orf" id="dummy-1_q22_0_all"  />
<polygon points="461,40 466,40 471,35 466,30 461,30 461,40 " style="fill:white; stroke-width:1; stroke:black; " description="&lt;b&gt;ctg31_38&lt;/b&gt;&lt;br&gt;ctg31 38&lt;br&gt;Location: 38183 - 38657" locus_tag="ctg31_38" class="clusterblast-orf" id="dummy-1_q23_0_all"  />
<polygon points="470,35 475,30 476,30 476,40 475,40 470,35 " style="fill:white; stroke-width:1; stroke:black; " description="&lt;b&gt;ctg31_39&lt;/b&gt;&lt;br&gt;ctg31 39&lt;br&gt;Location: 38653 - 38962" locus_tag="ctg31_39" class="clusterblast-orf" id="dummy-1_q24_0_all"  />
<polygon points="477,35 479,30 479,40 477,35 " style="fill:white; stroke-width:1; stroke:black; " description="&lt;b&gt;ctg31_40&lt;/b&gt;&lt;br&gt;ctg31 40&lt;br&gt;Location: 38989 - 39079" locus_tag="ctg31_40" class="clusterblast-orf" id="dummy-1_q25_0_all"  />
<polygon points="479,35 484,30 486,30 486,40 484,40 479,35 " style="fill:white; stroke-width:1; stroke:black; " description="&lt;b&gt;ctg31_41&lt;/b&gt;&lt;br&gt;ctg31 41&lt;br&gt;Location: 39075 - 39450" locus_tag="ctg31_41" class="clusterblast-orf" id="dummy-1_q26_0_all"  />
<polygon points="486,35 490,30 490,40 486,35 " style="fill:white; stroke-width:1; stroke:black; " description="&lt;b&gt;ctg31_42&lt;/b&gt;&lt;br&gt;ctg31 42&lt;br&gt;Location: 39446 - 39677" locus_tag="ctg31_42" class="clusterblast-orf" id="dummy-1_q27_0_all"  />
<polygon points="493,35 498,30 505,30 505,40 498,40 493,35 " style="fill:white; stroke-width:1; stroke:black; " description="&lt;b&gt;ctg31_43&lt;/b&gt;&lt;br&gt;ctg31 43&lt;br&gt;Location: 39843 - 40443" locus_tag="ctg31_43" class="clusterblast-orf" id="dummy-1_q28_0_all"  />
<polygon points="505,35 508,30 508,40 505,35 " style="fill:white; stroke-width:1; stroke:black; " description="&lt;b&gt;ctg31_44&lt;/b&gt;&lt;br&gt;ctg31 44&lt;br&gt;Location: 40453 - 40606" locus_tag="ctg31_44" class="clusterblast-orf" id="dummy-1_q29_0_all"  />
<polygon points="516,35 519,30 519,40 516,35 " style="fill:white; stroke-width:1; stroke:black; " description="&lt;b&gt;ctg31_45&lt;/b&gt;&lt;br&gt;ctg31 45&lt;br&gt;Location: 40993 - 41176" locus_tag="ctg31_45" class="clusterblast-orf" id="dummy-1_q30_0_all"  />
<polygon points="521,35 526,30 528,30 528,40 526,40 521,35 " style="fill:white; stroke-width:1; stroke:black; " description="&lt;b&gt;ctg31_46&lt;/b&gt;&lt;br&gt;ctg31 46&lt;br&gt;Location: 41296 - 41647" locus_tag="ctg31_46" class="clusterblast-orf" id="dummy-1_q31_0_all"  />
<polygon points="530,40 565,40 570,35 565,30 530,30 530,40 " style="fill:white; stroke-width:1; stroke:black; " description="&lt;b&gt;ctg31_47&lt;/b&gt;&lt;br&gt;ctg31 47&lt;br&gt;Location: 41746 - 43828" locus_tag="ctg31_47" class="clusterblast-orf" id="dummy-1_q32_0_all"  />
<polygon points="571,40 575,40 580,35 575,30 571,30 571,40 " style="fill:white; stroke-width:1; stroke:black; " description="&lt;b&gt;ctg31_48&lt;/b&gt;&lt;br&gt;ctg31 48&lt;br&gt;Location: 43902 - 44358" locus_tag="ctg31_48" class="clusterblast-orf" id="dummy-1_q33_0_all"  />
<polygon points="582,40 590,40 595,35 590,30 582,30 582,40 " style="fill:#d81515; stroke-width:1; stroke:black; " description="&lt;b&gt;ctg31_49&lt;/b&gt;&lt;br&gt;ctg31 49&lt;br&gt;Location: 44432 - 45140" locus_tag="ctg31_49" class="clusterblast-orf" id="dummy-1_q34_0_all"  />
<polygon points="594,40 602,40 607,35 602,30 594,30 594,40 " style="fill:#15d8d8; stroke-width:1; stroke:black; " description="&lt;b&gt;ctg31_50&lt;/b&gt;&lt;br&gt;ctg31 50&lt;br&gt;Location: 45084 - 45732" locus_tag="ctg31_50" class="clusterblast-orf" id="dummy-1_q35_0_all"  />
<polygon points="609,40 627,40 632,35 627,30 609,30 609,40 " style="fill:white; stroke-width:1; stroke:black; " description="&lt;b&gt;ctg31_51&lt;/b&gt;&lt;br&gt;ctg31 51&lt;br&gt;Location: 45853 - 47050" locus_tag="ctg31_51" class="clusterblast-orf" id="dummy-1_q36_0_all"  />
<polygon points="633,40 650,40 655,35 650,30 633,30 633,40 " style="fill:white; stroke-width:1; stroke:black; " description="&lt;b&gt;ctg31_52&lt;/b&gt;&lt;br&gt;ctg31 52&lt;br&gt;Location: 47092 - 48235" locus_tag="ctg31_52" class="clusterblast-orf" id="dummy-1_q37_0_all"  />
<polygon points="658,35 661,30 661,40 658,35 " style="fill:white; stroke-width:1; stroke:black; " description="&lt;b&gt;ctg31_53&lt;/b&gt;&lt;br&gt;ctg31 53&lt;br&gt;Location: 48412 - 48529" locus_tag="ctg31_53" class="clusterblast-orf" id="dummy-1_q38_0_all"  />
<polygon points="660,35 665,30 666,30 666,40 665,40 660,35 " style="fill:white; stroke-width:1; stroke:black; " description="&lt;b&gt;ctg31_54&lt;/b&gt;&lt;br&gt;ctg31 54&lt;br&gt;Location: 48525 - 48789" locus_tag="ctg31_54" class="clusterblast-orf" id="dummy-1_q39_0_all"  />
<polygon points="670,40 672,35 670,30 670,40 " style="fill:white; stroke-width:1; stroke:black; " description="&lt;b&gt;ctg31_55&lt;/b&gt;&lt;br&gt;ctg31 55&lt;br&gt;Location: 49002 - 49149" locus_tag="ctg31_55" class="clusterblast-orf" id="dummy-1_q40_0_all"  />
<polygon points="675,40 720,40 725,35 720,30 675,30 675,40 " style="fill:white; stroke-width:1; stroke:black; " description="&lt;b&gt;ctg31_56&lt;/b&gt;&lt;br&gt;ctg31 56&lt;br&gt;Location: 49283 - 51899" locus_tag="ctg31_56" class="clusterblast-orf" id="dummy-1_q41_0_all"  />
<polygon points="727,40 736,40 741,35 736,30 727,30 727,40 " style="fill:white; stroke-width:1; stroke:black; " description="&lt;b&gt;ctg31_57&lt;/b&gt;&lt;br&gt;ctg31 57&lt;br&gt;Location: 51988 - 52732" locus_tag="ctg31_57" class="clusterblast-orf" id="dummy-1_q42_0_all"  />
<polygon points="741,40 747,40 752,35 747,30 741,30 741,40 " style="fill:white; stroke-width:1; stroke:black; " description="&lt;b&gt;ctg31_58&lt;/b&gt;&lt;br&gt;ctg31 58&lt;br&gt;Location: 52715 - 53303" locus_tag="ctg31_58" class="clusterblast-orf" id="dummy-1_q43_0_all"  />
<polygon points="752,35 757,30 780,30 780,40 757,40 752,35 " style="fill:white; stroke-width:1; stroke:black; " description="&lt;b&gt;ctg31_59&lt;/b&gt;&lt;br&gt;ctg31 59&lt;br&gt;Location: 53261 - 54719" locus_tag="ctg31_59" class="clusterblast-orf" id="dummy-1_q44_0_all"  />
</g>
<g label="BGC0002284" description="BGC0002284_c1: corynecin III/corynecin I/corynecin II (13% of genes show similarity), Other" class="clusterblast-cluster"  >
<text x="5" y="70" class="clusterblast-acc"  >
<a xlink:href="https://mibig.secondarymetabolites.org/go/BGC0002284/1" target="_blank">BGC0002284</a>: corynecin III/corynecin I/corynecin II                                           (13% of genes show similarity), Other</text>
<line x1="10" y1="85" x2="778.0" y2="85" style="stroke-width:1; stroke:grey; "  />
</g>
<g id="a1_000"  >
<polygon points="217,85 222,80 245,80 245,90 222,90 217,85 " style="fill:white; stroke-width:1; stroke:black; " description="&lt;b&gt;CPI83_20065&lt;/b&gt;&lt;br&gt;hypothetical protein&lt;br&gt;Location: 17900 - 16452" locus_tag="CPI83_20065" class="clusterblast-orf" id="dummy-1_h1_4_0"  />
</g>
<g id="a1_001"  >
<polygon points="249,90 288,90 293,85 288,80 249,80 249,90 " style="fill:white; stroke-width:1; stroke:black; " description="&lt;b&gt;CPI83_20060&lt;/b&gt;&lt;br&gt;MMPL family transporter&lt;br&gt;Location: 16227 - 13981" locus_tag="CPI83_20060" class="clusterblast-orf" id="dummy-1_h1_4_1"  />
</g>
<g id="a1_002"  >
<polygon points="296,90 319,90 324,85 319,80 296,80 296,90 " style="fill:white; stroke-width:1; stroke:black; " description="&lt;b&gt;CPI83_20055&lt;/b&gt;&lt;br&gt;hypothetical protein&lt;br&gt;Location: 13797 - 12358" locus_tag="CPI83_20055" class="clusterblast-orf" id="dummy-1_h1_4_2"  />
</g>
<g id="a1_003"  >
<polygon points="324,90 345,90 350,85 345,80 324,80 324,90 " style="fill:white; stroke-width:1; stroke:black; " description="&lt;b&gt;CPI83_20050&lt;/b&gt;&lt;br&gt;hypothetical protein&lt;br&gt;Location: 12361 - 10997" locus_tag="CPI83_20050" class="clusterblast-orf" id="dummy-1_h1_4_3"  />
</g>
<g id="a1_004"  >
<polygon points="350,85 355,80 377,80 377,90 355,90 350,85 " style="fill:white; stroke-width:1; stroke:black; " description="&lt;b&gt;CPI83_20045&lt;/b&gt;&lt;br&gt;C4-dicarboxylate transporter DctA&lt;br&gt;Location: 11019 - 9613" locus_tag="CPI83_20045" class="clusterblast-orf" id="dummy-1_h1_4_4"  />
</g>
<g id="a1_005"  >
<polygon points="380,90 380,90 385,85 380,80 380,80 380,90 " style="fill:white; stroke-width:1; stroke:black; " description="&lt;b&gt;CPI83_20040&lt;/b&gt;&lt;br&gt;GlsB/YeaQ/YmgE family stress response membrane protein&lt;br&gt;Location: 9424 - 9164" locus_tag="CPI83_20040" class="clusterblast-orf" id="dummy-1_h1_4_5"  />
</g>
<g id="a1_006"  >
<polygon points="388,85 393,80 403,80 403,90 393,90 388,85 " style="fill:white; stroke-width:1; stroke:black; " description="&lt;b&gt;CPI83_20035&lt;/b&gt;&lt;br&gt;GTP pyrophosphokinase&lt;br&gt;Location: 9006 - 8260" locus_tag="CPI83_20035" class="clusterblast-orf" id="dummy-1_h1_4_6"  />
</g>
<g id="a1_007"  >
<polygon points="404,85 409,80 415,80 415,90 409,90 404,85 " style="fill:white; stroke-width:1; stroke:black; " description="&lt;b&gt;CPI83_20030&lt;/b&gt;&lt;br&gt;TetR/AcrR family transcriptional regulator&lt;br&gt;Location: 8211 - 7612" locus_tag="CPI83_20030" class="clusterblast-orf" id="dummy-1_h1_4_7"  />
</g>
<g id="a1_008"  >
<polygon points="417,90 443,90 448,85 443,80 417,80 417,90 " style="fill:white; stroke-width:1; stroke:black; " description="&lt;b&gt;CPI83_20025&lt;/b&gt;&lt;br&gt;methylcrotonoyl-CoA carboxylase&lt;br&gt;Location: 7513 - 5924" locus_tag="CPI83_20025" class="clusterblast-orf" id="dummy-1_h1_4_8"  />
</g>
<g id="a1_009"  >
<polygon points="448,90 482,90 487,85 482,80 448,80 448,90 " style="fill:white; stroke-width:1; stroke:black; " description="&lt;b&gt;CPI83_20020&lt;/b&gt;&lt;br&gt;acetyl/propionyl/methylcrotonyl-CoA carboxylase subunit alpha&lt;br&gt;Location: 5918 - 3879" locus_tag="CPI83_20020" class="clusterblast-orf" id="dummy-1_h1_4_9"  />
</g>
<g id="a1_0010"  >
<polygon points="487,90 504,90 509,85 504,80 487,80 487,90 " style="fill:white; stroke-width:1; stroke:black; " description="&lt;b&gt;CPI83_20015&lt;/b&gt;&lt;br&gt;acyl-CoA dehydrogenase&lt;br&gt;Location: 3879 - 2716" locus_tag="CPI83_20015" class="clusterblast-orf" id="dummy-1_h1_4_10"  />
</g>
<g id="a1_0011"  >
<polygon points="509,90 514,90 519,85 514,80 509,80 509,90 " style="fill:white; stroke-width:1; stroke:black; " description="&lt;b&gt;CPI83_20010&lt;/b&gt;&lt;br&gt;dehydratase&lt;br&gt;Location: 2719 - 2231" locus_tag="CPI83_20010" class="clusterblast-orf" id="dummy-1_h1_4_11"  />
</g>
<g id="a1_0012"  >
<polygon points="519,90 530,90 535,85 530,80 519,80 519,90 " style="fill:white; stroke-width:1; stroke:black; " description="&lt;b&gt;CPI83_20005&lt;/b&gt;&lt;br&gt;CoA ester lyase&lt;br&gt;Location: 2234 - 1407" locus_tag="CPI83_20005" class="clusterblast-orf" id="dummy-1_h1_4_12"  />
</g>
<g id="a1_0013"  >
<polygon points="535,90 544,90 549,85 544,80 535,80 535,90 " style="fill:#d81515; stroke-width:1; stroke:black; " description="&lt;b&gt;CPI83_20000&lt;/b&gt;&lt;br&gt;CoA transferase subunit A&lt;br&gt;Location: 1403 - 648&lt;br&gt;&lt;br&gt;&lt;b&gt;BlastP hit with ctg31_49&lt;/b&gt;&lt;br&gt;Percentage identity: 46&lt;br&gt;Percentage coverage: 102&lt;br&gt;BLAST bit score: 203&lt;br&gt;E-value: 3.26e-65" locus_tag="CPI83_20000" class="clusterblast-orf" id="dummy-1_h1_4_13"  />
</g>
<g id="a1_0014"  >
<polygon points="550,90 557,90 562,85 557,80 550,80 550,90 " style="fill:#15d8d8; stroke-width:1; stroke:black; " description="&lt;b&gt;CPI83_19995&lt;/b&gt;&lt;br&gt;succinyl-CoA--3-ketoacid-CoA transferase&lt;br&gt;Location: 627 - 1&lt;br&gt;&lt;br&gt;&lt;b&gt;BlastP hit with ctg31_50&lt;/b&gt;&lt;br&gt;Percentage identity: 59&lt;br&gt;Percentage coverage: 93&lt;br&gt;BLAST bit score: 245&lt;br&gt;E-value: 1.19e-82" locus_tag="CPI83_19995" class="clusterblast-orf" id="dummy-1_h1_4_14"  />
</g>
</svg>
