<svg xmlns="http://www.w3.org/2000/svg" xmlns:xlink="http://www.w3.org/1999/xlink" version="1.1" x="0" y="0" height="250" width="800" viewBox="0 0 800 250" preserveAspectRatio="none"  >
<g label="Query sequence" class="clusterblast-cluster"  >
<text x="5" y="20" class="clusterblast-acc"  >
Query sequence</text>
<line x1="10" y1="35" x2="778.0" y2="35" style="stroke-width:1; stroke:grey; "  />
<polygon points="36,40 46,40 51,35 46,30 36,30 36,40 " style="fill:white; stroke-width:1; stroke:black; " description="&lt;b&gt;ctg31_15&lt;/b&gt;&lt;br&gt;ctg31 15&lt;br&gt;Location: 14193 - 15084" locus_tag="ctg31_15" class="clusterblast-orf" id="knownclusterblast-1_q0_0_all"  />
<polygon points="51,35 56,30 68,30 68,40 56,40 51,35 " style="fill:white; stroke-width:1; stroke:black; " description="&lt;b&gt;ctg31_16&lt;/b&gt;&lt;br&gt;ctg31 16&lt;br&gt;Location: 15070 - 16018" locus_tag="ctg31_16" class="clusterblast-orf" id="knownclusterblast-1_q1_0_all"  />
<polygon points="68,35 73,30 97,30 97,40 73,40 68,35 " style="fill:white; stroke-width:1; stroke:black; " description="&lt;b&gt;ctg31_17&lt;/b&gt;&lt;br&gt;ctg31 17&lt;br&gt;Location: 16017 - 17691" locus_tag="ctg31_17" class="clusterblast-orf" id="knownclusterblast-1_q2_0_all"  />
<polygon points="97,35 102,30 108,30 108,40 102,40 97,35 " style="fill:white; stroke-width:1; stroke:black; " description="&lt;b&gt;ctg31_18&lt;/b&gt;&lt;br&gt;ctg31 18&lt;br&gt;Location: 17683 - 18361" locus_tag="ctg31_18" class="clusterblast-orf" id="knownclusterblast-1_q3_0_all"  />
<polygon points="109,35 114,30 132,30 132,40 114,40 109,35 " style="fill:white; stroke-width:1; stroke:black; " description="&lt;b&gt;ctg31_19&lt;/b&gt;&lt;br&gt;ctg31 19&lt;br&gt;Location: 18407 - 19694" locus_tag="ctg31_19" class="clusterblast-orf" id="knownclusterblast-1_q4_0_all"  />
<polygon points="132,40 142,40 147,35 142,30 132,30 132,40 " style="fill:white; stroke-width:1; stroke:black; " description="&lt;b&gt;ctg31_20&lt;/b&gt;&lt;br&gt;ctg31 20&lt;br&gt;Location: 19733 - 20561" locus_tag="ctg31_20" class="clusterblast-orf" id="knownclusterblast-1_q5_0_all"  />
<polygon points="147,40 151,40 156,35 151,30 147,30 147,40 " style="fill:white; stroke-width:1; stroke:black; " description="&lt;b&gt;ctg31_21&lt;/b&gt;&lt;br&gt;ctg31 21&lt;br&gt;Location: 20562 - 21060" locus_tag="ctg31_21" class="clusterblast-orf" id="knownclusterblast-1_q6_0_all"  />
<polygon points="156,40 168,40 173,35 168,30 156,30 156,40 " style="fill:white; stroke-width:1; stroke:black; " description="&lt;b&gt;ctg31_22&lt;/b&gt;&lt;br&gt;ctg31 22&lt;br&gt;Location: 21086 - 22034" locus_tag="ctg31_22" class="clusterblast-orf" id="knownclusterblast-1_q7_0_all"  />
<polygon points="173,40 174,40 179,35 174,30 173,30 173,40 " style="fill:white; stroke-width:1; stroke:black; " description="&lt;b&gt;ctg31_23&lt;/b&gt;&lt;br&gt;ctg31 23&lt;br&gt;Location: 22044 - 22389" locus_tag="ctg31_23" class="clusterblast-orf" id="knownclusterblast-1_q8_0_all"  />
<polygon points="180,40 187,40 192,35 187,30 180,30 180,40 " style="fill:white; stroke-width:1; stroke:black; " description="&lt;b&gt;ctg31_24&lt;/b&gt;&lt;br&gt;ctg31 24&lt;br&gt;Location: 22447 - 23152" locus_tag="ctg31_24" class="clusterblast-orf" id="knownclusterblast-1_q9_0_all"  />
<polygon points="193,35 195,30 195,40 193,35 " style="fill:white; stroke-width:1; stroke:black; " description="&lt;b&gt;ctg31_25&lt;/b&gt;&lt;br&gt;ctg31 25&lt;br&gt;Location: 23178 - 23301" locus_tag="ctg31_25" class="clusterblast-orf" id="knownclusterblast-1_q10_0_all"  />
<polygon points="195,40 221,40 226,35 221,30 195,30 195,40 " style="fill:white; stroke-width:1; stroke:black; " description="&lt;b&gt;ctg31_26&lt;/b&gt;&lt;br&gt;ctg31 26&lt;br&gt;Location: 23319 - 25116" locus_tag="ctg31_26" class="clusterblast-orf" id="knownclusterblast-1_q11_0_all"  />
<polygon points="226,35 231,30 240,30 240,40 231,40 226,35 " style="fill:white; stroke-width:1; stroke:black; " description="&lt;b&gt;ctg31_27&lt;/b&gt;&lt;br&gt;ctg31 27&lt;br&gt;Location: 25078 - 25888" locus_tag="ctg31_27" class="clusterblast-orf" id="knownclusterblast-1_q12_0_all"  />
<polygon points="241,35 245,30 245,40 241,35 " style="fill:white; stroke-width:1; stroke:black; " description="&lt;b&gt;ctg31_28&lt;/b&gt;&lt;br&gt;ctg31 28&lt;br&gt;Location: 25963 - 26167" locus_tag="ctg31_28" class="clusterblast-orf" id="knownclusterblast-1_q13_0_all"  />
<polygon points="245,35 250,30 282,30 282,40 250,40 245,35 " style="fill:white; stroke-width:1; stroke:black; " description="&lt;b&gt;ctg31_29&lt;/b&gt;&lt;br&gt;ctg31 29&lt;br&gt;Location: 26191 - 28267" locus_tag="ctg31_29" class="clusterblast-orf" id="knownclusterblast-1_q14_0_all"  />
<polygon points="283,35 288,30 291,30 291,40 288,40 283,35 " style="fill:white; stroke-width:1; stroke:black; " description="&lt;b&gt;ctg31_30&lt;/b&gt;&lt;br&gt;ctg31 30&lt;br&gt;Location: 28367 - 28835" locus_tag="ctg31_30" class="clusterblast-orf" id="knownclusterblast-1_q15_0_all"  />
<polygon points="292,40 307,40 312,35 307,30 292,30 292,40 " style="fill:white; stroke-width:1; stroke:black; " description="&lt;b&gt;ctg31_31&lt;/b&gt;&lt;br&gt;ctg31 31&lt;br&gt;Location: 28855 - 29995" locus_tag="ctg31_31" class="clusterblast-orf" id="knownclusterblast-1_q16_0_all"  />
<polygon points="313,35 315,30 315,40 313,35 " style="fill:white; stroke-width:1; stroke:black; " description="&lt;b&gt;ctg31_32&lt;/b&gt;&lt;br&gt;ctg31 32&lt;br&gt;Location: 30069 - 30180" locus_tag="ctg31_32" class="clusterblast-orf" id="knownclusterblast-1_q17_0_all"  />
<polygon points="316,35 320,30 320,40 316,35 " style="fill:white; stroke-width:1; stroke:black; " description="&lt;b&gt;ctg31_33&lt;/b&gt;&lt;br&gt;ctg31 33&lt;br&gt;Location: 30231 - 30486" locus_tag="ctg31_33" class="clusterblast-orf" id="knownclusterblast-1_q18_0_all"  />
<polygon points="321,35 326,30 341,30 341,40 326,40 321,35 " style="fill:white; stroke-width:1; stroke:black; " description="&lt;b&gt;ctg31_34&lt;/b&gt;&lt;br&gt;ctg31 34&lt;br&gt;Location: 30544 - 31690" locus_tag="ctg31_34" class="clusterblast-orf" id="knownclusterblast-1_q19_0_all"  />
<polygon points="343,35 348,30 373,30 373,40 348,40 343,35 " style="fill:white; stroke-width:1; stroke:black; " description="&lt;b&gt;ctg31_35&lt;/b&gt;&lt;br&gt;ctg31 35&lt;br&gt;Location: 31769 - 33527" locus_tag="ctg31_35" class="clusterblast-orf" id="knownclusterblast-1_q20_0_all"  />
<polygon points="373,35 378,30 423,30 423,40 378,40 373,35 " style="fill:white; stroke-width:1; stroke:black; " description="&lt;b&gt;ctg31_36&lt;/b&gt;&lt;br&gt;ctg31 36&lt;br&gt;Location: 33528 - 36384" locus_tag="ctg31_36" class="clusterblast-orf" id="knownclusterblast-1_q21_0_all"  />
<polygon points="427,35 432,30 451,30 451,40 432,40 427,35 " style="fill:white; stroke-width:1; stroke:black; " description="&lt;b&gt;ctg31_37&lt;/b&gt;&lt;br&gt;ctg31 37&lt;br&gt;Location: 36600 - 37983" locus_tag="ctg31_37" class="clusterblast-orf" id="knownclusterblast-1_q22_0_all"  />
<polygon points="455,40 458,40 463,35 458,30 455,30 455,40 " style="fill:white; stroke-width:1; stroke:black; " description="&lt;b&gt;ctg31_38&lt;/b&gt;&lt;br&gt;ctg31 38&lt;br&gt;Location: 38183 - 38657" locus_tag="ctg31_38" class="clusterblast-orf" id="knownclusterblast-1_q23_0_all"  />
<polygon points="463,35 468,30 468,30 468,40 468,40 463,35 " style="fill:white; stroke-width:1; stroke:black; " description="&lt;b&gt;ctg31_39&lt;/b&gt;&lt;br&gt;ctg31 39&lt;br&gt;Location: 38653 - 38962" locus_tag="ctg31_39" class="clusterblast-orf" id="knownclusterblast-1_q24_0_all"  />
<polygon points="469,35 470,30 470,40 469,35 " style="fill:white; stroke-width:1; stroke:black; " description="&lt;b&gt;ctg31_40&lt;/b&gt;&lt;br&gt;ctg31 40&lt;br&gt;Location: 38989 - 39079" locus_tag="ctg31_40" class="clusterblast-orf" id="knownclusterblast-1_q25_0_all"  />
<polygon points="470,35 475,30 477,30 477,40 475,40 470,35 " style="fill:white; stroke-width:1; stroke:black; " description="&lt;b&gt;ctg31_41&lt;/b&gt;&lt;br&gt;ctg31 41&lt;br&gt;Location: 39075 - 39450" locus_tag="ctg31_41" class="clusterblast-orf" id="knownclusterblast-1_q26_0_all"  />
<polygon points="477,35 481,30 481,40 477,35 " style="fill:white; stroke-width:1; stroke:black; " description="&lt;b&gt;ctg31_42&lt;/b&gt;&lt;br&gt;ctg31 42&lt;br&gt;Location: 39446 - 39677" locus_tag="ctg31_42" class="clusterblast-orf" id="knownclusterblast-1_q27_0_all"  />
<polygon points="484,35 489,30 494,30 494,40 489,40 484,35 " style="fill:white; stroke-width:1; stroke:black; " description="&lt;b&gt;ctg31_43&lt;/b&gt;&lt;br&gt;ctg31 43&lt;br&gt;Location: 39843 - 40443" locus_tag="ctg31_43" class="clusterblast-orf" id="knownclusterblast-1_q28_0_all"  />
<polygon points="494,35 497,30 497,40 494,35 " style="fill:white; stroke-width:1; stroke:black; " description="&lt;b&gt;ctg31_44&lt;/b&gt;&lt;br&gt;ctg31 44&lt;br&gt;Location: 40453 - 40606" locus_tag="ctg31_44" class="clusterblast-orf" id="knownclusterblast-1_q29_0_all"  />
<polygon points="504,35 507,30 507,40 504,35 " style="fill:white; stroke-width:1; stroke:black; " description="&lt;b&gt;ctg31_45&lt;/b&gt;&lt;br&gt;ctg31 45&lt;br&gt;Location: 40993 - 41176" locus_tag="ctg31_45" class="clusterblast-orf" id="knownclusterblast-1_q30_0_all"  />
<polygon points="509,35 514,30 515,30 515,40 514,40 509,35 " style="fill:white; stroke-width:1; stroke:black; " description="&lt;b&gt;ctg31_46&lt;/b&gt;&lt;br&gt;ctg31 46&lt;br&gt;Location: 41296 - 41647" locus_tag="ctg31_46" class="clusterblast-orf" id="knownclusterblast-1_q31_0_all"  />
<polygon points="517,40 548,40 553,35 548,30 517,30 517,40 " style="fill:white; stroke-width:1; stroke:black; " description="&lt;b&gt;ctg31_47&lt;/b&gt;&lt;br&gt;ctg31 47&lt;br&gt;Location: 41746 - 43828" locus_tag="ctg31_47" class="clusterblast-orf" id="knownclusterblast-1_q32_0_all"  />
<polygon points="555,40 558,40 563,35 558,30 555,30 555,40 " style="fill:white; stroke-width:1; stroke:black; " description="&lt;b&gt;ctg31_48&lt;/b&gt;&lt;br&gt;ctg31 48&lt;br&gt;Location: 43902 - 44358" locus_tag="ctg31_48" class="clusterblast-orf" id="knownclusterblast-1_q33_0_all"  />
<polygon points="564,40 571,40 576,35 571,30 564,30 564,40 " style="fill:#d81515; stroke-width:1; stroke:black; " description="&lt;b&gt;ctg31_49&lt;/b&gt;&lt;br&gt;ctg31 49&lt;br&gt;Location: 44432 - 45140" locus_tag="ctg31_49" class="clusterblast-orf" id="knownclusterblast-1_q34_0_all"  />
<polygon points="575,40 582,40 587,35 582,30 575,30 575,40 " style="fill:#15d8d8; stroke-width:1; stroke:black; " description="&lt;b&gt;ctg31_50&lt;/b&gt;&lt;br&gt;ctg31 50&lt;br&gt;Location: 45084 - 45732" locus_tag="ctg31_50" class="clusterblast-orf" id="knownclusterblast-1_q35_0_all"  />
<polygon points="589,40 605,40 610,35 605,30 589,30 589,40 " style="fill:white; stroke-width:1; stroke:black; " description="&lt;b&gt;ctg31_51&lt;/b&gt;&lt;br&gt;ctg31 51&lt;br&gt;Location: 45853 - 47050" locus_tag="ctg31_51" class="clusterblast-orf" id="knownclusterblast-1_q36_0_all"  />
<polygon points="610,40 625,40 630,35 625,30 610,30 610,40 " style="fill:white; stroke-width:1; stroke:black; " description="&lt;b&gt;ctg31_52&lt;/b&gt;&lt;br&gt;ctg31 52&lt;br&gt;Location: 47092 - 48235" locus_tag="ctg31_52" class="clusterblast-orf" id="knownclusterblast-1_q37_0_all"  />
<polygon points="633,35 636,30 636,40 633,35 " style="fill:white; stroke-width:1; stroke:black; " description="&lt;b&gt;ctg31_53&lt;/b&gt;&lt;br&gt;ctg31 53&lt;br&gt;Location: 48412 - 48529" locus_tag="ctg31_53" class="clusterblast-orf" id="knownclusterblast-1_q38_0_all"  />
<polygon points="635,35 640,30 640,30 640,40 640,40 635,35 " style="fill:white; stroke-width:1; stroke:black; " description="&lt;b&gt;ctg31_54&lt;/b&gt;&lt;br&gt;ctg31 54&lt;br&gt;Location: 48525 - 48789" locus_tag="ctg31_54" class="clusterblast-orf" id="knownclusterblast-1_q39_0_all"  />
<polygon points="644,40 646,35 644,30 644,40 " style="fill:white; stroke-width:1; stroke:black; " description="&lt;b&gt;ctg31_55&lt;/b&gt;&lt;br&gt;ctg31 55&lt;br&gt;Location: 49002 - 49149" locus_tag="ctg31_55" class="clusterblast-orf" id="knownclusterblast-1_q40_0_all"  />
<polygon points="649,40 689,40 694,35 689,30 649,30 649,40 " style="fill:white; stroke-width:1; stroke:black; " description="&lt;b&gt;ctg31_56&lt;/b&gt;&lt;br&gt;ctg31 56&lt;br&gt;Location: 49283 - 51899" locus_tag="ctg31_56" class="clusterblast-orf" id="knownclusterblast-1_q41_0_all"  />
<polygon points="696,40 704,40 709,35 704,30 696,30 696,40 " style="fill:white; stroke-width:1; stroke:black; " description="&lt;b&gt;ctg31_57&lt;/b&gt;&lt;br&gt;ctg31 57&lt;br&gt;Location: 51988 - 52732" locus_tag="ctg31_57" class="clusterblast-orf" id="knownclusterblast-1_q42_0_all"  />
<polygon points="709,40 714,40 719,35 714,30 709,30 709,40 " style="fill:white; stroke-width:1; stroke:black; " description="&lt;b&gt;ctg31_58&lt;/b&gt;&lt;br&gt;ctg31 58&lt;br&gt;Location: 52715 - 53303" locus_tag="ctg31_58" class="clusterblast-orf" id="knownclusterblast-1_q43_0_all"  />
<polygon points="718,35 723,30 744,30 744,40 723,40 718,35 " style="fill:white; stroke-width:1; stroke:black; " description="&lt;b&gt;ctg31_59&lt;/b&gt;&lt;br&gt;ctg31 59&lt;br&gt;Location: 53261 - 54719" locus_tag="ctg31_59" class="clusterblast-orf" id="knownclusterblast-1_q44_0_all"  />
</g>
<g label="BGC0001090" description="BGC0001090_c1: bacillomycin D (20% of genes show similarity), Polyketide+NRP:Lipopeptide" class="clusterblast-cluster"  >
<text x="5" y="70" class="clusterblast-acc"  >
<a xlink:href="https://mibig.secondarymetabolites.org/go/BGC0001090/1" target="_blank">BGC0001090</a>: bacillomycin D                                                                   (20% of genes show similarity), Polyketide+NRP:Lipopeptide</text>
<line x1="10" y1="85" x2="778.0" y2="85" style="stroke-width:1; stroke:grey; "  />
</g>
<g id="a1_000"  >
<polygon points="0,90 20,90 25,85 20,80 0,80 0,90 " style="fill:white; stroke-width:1; stroke:black; " description="&lt;b&gt;RBAM_018230&lt;/b&gt;&lt;br&gt;YxjC&lt;br&gt;Location: 44647 - 43211" locus_tag="RBAM_018230" class="clusterblast-orf" id="knownclusterblast-1_all_1_1_0"  />
</g>
<g id="a1_001"  >
<polygon points="25,90 32,90 37,85 32,80 25,80 25,90 " style="fill:#d81515; stroke-width:1; stroke:black; " description="&lt;b&gt;RBAM_018220&lt;/b&gt;&lt;br&gt;ScoA&lt;br&gt;Location: 43186 - 42485&lt;br&gt;&lt;br&gt;&lt;b&gt;BlastP hit with ctg31_49&lt;/b&gt;&lt;br&gt;Percentage identity: 62&lt;br&gt;Percentage coverage: 91&lt;br&gt;BLAST bit score: 268&lt;br&gt;E-value: 6.36e-91" locus_tag="RBAM_018220" class="clusterblast-orf" id="knownclusterblast-1_all_1_1_1"  />
</g>
<g id="a1_002"  >
<polygon points="38,90 44,90 49,85 44,80 38,80 38,90 " style="fill:#15d8d8; stroke-width:1; stroke:black; " description="&lt;b&gt;RBAM_018210&lt;/b&gt;&lt;br&gt;ScoB&lt;br&gt;Location: 42467 - 41805&lt;br&gt;&lt;br&gt;&lt;b&gt;BlastP hit with ctg31_50&lt;/b&gt;&lt;br&gt;Percentage identity: 57&lt;br&gt;Percentage coverage: 93&lt;br&gt;BLAST bit score: 238&lt;br&gt;E-value: 1.36e-79" locus_tag="RBAM_018210" class="clusterblast-orf" id="knownclusterblast-1_all_1_1_2"  />
</g>
<g id="a1_003"  >
<polygon points="49,90 58,90 63,85 58,80 49,80 49,90 " style="fill:white; stroke-width:1; stroke:black; " description="&lt;b&gt;RBAM_018200&lt;/b&gt;&lt;br&gt;YxjF&lt;br&gt;Location: 41792 - 41007" locus_tag="RBAM_018200" class="clusterblast-orf" id="knownclusterblast-1_all_1_1_3"  />
</g>
<g id="a1_004"  >
<polygon points="73,90 89,90 94,85 89,80 73,80 73,90 " style="fill:white; stroke-width:1; stroke:black; " description="&lt;b&gt;RBAM_018190&lt;/b&gt;&lt;br&gt;malonyl-CoA transacylase &lt;br&gt;Location: 40447 - 39245" locus_tag="RBAM_018190" class="clusterblast-orf" id="knownclusterblast-1_all_1_1_4"  />
</g>
<g id="a1_005"  >
<polygon points="94,90 298,90 303,85 298,80 94,80 94,90 " style="fill:white; stroke-width:1; stroke:black; " description="&lt;b&gt;RBAM_018180&lt;/b&gt;&lt;br&gt;bacillomycin D synthetase A &lt;br&gt;Location: 39225 - 27277" locus_tag="RBAM_018180" class="clusterblast-orf" id="knownclusterblast-1_all_1_1_5"  />
</g>
<g id="a1_006"  >
<polygon points="304,90 580,90 585,85 580,80 304,80 304,90 " style="fill:white; stroke-width:1; stroke:black; " description="&lt;b&gt;RBAM_018170&lt;/b&gt;&lt;br&gt;bacillomycin D synthetase B&lt;br&gt;Location: 27232 - 11141" locus_tag="RBAM_018170" class="clusterblast-orf" id="knownclusterblast-1_all_1_1_6"  />
</g>
<g id="a1_007"  >
<polygon points="586,90 719,90 724,85 719,80 586,80 586,90 " style="fill:white; stroke-width:1; stroke:black; " description="&lt;b&gt;RBAM_018160&lt;/b&gt;&lt;br&gt;bacillomycin D synthetase C&lt;br&gt;Location: 11056 - 3197" locus_tag="RBAM_018160" class="clusterblast-orf" id="knownclusterblast-1_all_1_1_7"  />
</g>
<g id="a1_008"  >
<polygon points="729,90 751,90 756,85 751,80 729,80 729,90 " style="fill:white; stroke-width:1; stroke:black; " description="&lt;b&gt;RBAM_018150&lt;/b&gt;&lt;br&gt;XynD&lt;br&gt;Location: 2872 - 1334" locus_tag="RBAM_018150" class="clusterblast-orf" id="knownclusterblast-1_all_1_1_8"  />
</g>
<g id="a1_009"  >
<polygon points="757,90 775,90 780,85 775,80 757,80 757,90 " style="fill:white; stroke-width:1; stroke:black; " description="&lt;b&gt;RBAM_018140&lt;/b&gt;&lt;br&gt;YnfF&lt;br&gt;Location: 1272 - 1" locus_tag="RBAM_018140" class="clusterblast-orf" id="knownclusterblast-1_all_1_1_9"  />
</g>
<g label="BGC0001098" description="BGC0001098_c1: iturin (22% of genes show similarity), NRP+Polyketide" class="clusterblast-cluster"  >
<text x="5" y="120" class="clusterblast-acc"  >
<a xlink:href="https://mibig.secondarymetabolites.org/go/BGC0001098/1" target="_blank">BGC0001098</a>: iturin                                                                           (22% of genes show similarity), NRP+Polyketide</text>
<line x1="10" y1="135" x2="778.0" y2="135" style="stroke-width:1; stroke:grey; "  />
</g>
<g id="a1_000"  >
<polygon points="26,140 41,140 46,135 41,130 26,130 26,140 " style="fill:white; stroke-width:1; stroke:black; " description="&lt;b&gt;BAB69693.1&lt;/b&gt;&lt;br&gt;&lt;br&gt;Location: 1 - 1167" locus_tag="BAB69693.1" class="clusterblast-orf" id="knownclusterblast-1_all_1_2_0"  />
</g>
<g id="a1_001"  >
<polygon points="47,140 54,140 59,135 54,130 47,130 47,140 " style="fill:#d81515; stroke-width:1; stroke:black; " description="&lt;b&gt;BAB69694.1&lt;/b&gt;&lt;br&gt;&lt;br&gt;Location: 1192 - 1893&lt;br&gt;&lt;br&gt;&lt;b&gt;BlastP hit with ctg31_49&lt;/b&gt;&lt;br&gt;Percentage identity: 62&lt;br&gt;Percentage coverage: 91&lt;br&gt;BLAST bit score: 266&lt;br&gt;E-value: 3.65e-90" locus_tag="BAB69694.1" class="clusterblast-orf" id="knownclusterblast-1_all_1_2_1"  />
</g>
<g id="a1_002"  >
<polygon points="59,140 66,140 71,135 66,130 59,130 59,140 " style="fill:#15d8d8; stroke-width:1; stroke:black; " description="&lt;b&gt;BAB69695.1&lt;/b&gt;&lt;br&gt;&lt;br&gt;Location: 1911 - 2573&lt;br&gt;&lt;br&gt;&lt;b&gt;BlastP hit with ctg31_50&lt;/b&gt;&lt;br&gt;Percentage identity: 57&lt;br&gt;Percentage coverage: 93&lt;br&gt;BLAST bit score: 238&lt;br&gt;E-value: 1.36e-79" locus_tag="BAB69695.1" class="clusterblast-orf" id="knownclusterblast-1_all_1_2_2"  />
</g>
<g id="a1_003"  >
<polygon points="71,140 80,140 85,135 80,130 71,130 71,140 " style="fill:white; stroke-width:1; stroke:black; " description="&lt;b&gt;BAB69696.1&lt;/b&gt;&lt;br&gt;&lt;br&gt;Location: 2586 - 3371" locus_tag="BAB69696.1" class="clusterblast-orf" id="knownclusterblast-1_all_1_2_3"  />
</g>
<g id="a1_004"  >
<polygon points="95,140 111,140 116,135 111,130 95,130 95,140 " style="fill:white; stroke-width:1; stroke:black; " description="&lt;b&gt;BAB69697.1&lt;/b&gt;&lt;br&gt;putative malonyl-CoA transacylase&lt;br&gt;Location: 3930 - 5132" locus_tag="BAB69697.1" class="clusterblast-orf" id="knownclusterblast-1_all_1_2_4"  />
</g>
<g id="a1_005"  >
<polygon points="116,140 320,140 325,135 320,130 116,130 116,140 " style="fill:white; stroke-width:1; stroke:black; " description="&lt;b&gt;BAB69698.1&lt;/b&gt;&lt;br&gt;iturin A synthetase A&lt;br&gt;Location: 5152 - 17100" locus_tag="BAB69698.1" class="clusterblast-orf" id="knownclusterblast-1_all_1_2_5"  />
</g>
<g id="a1_006"  >
<polygon points="326,140 602,140 607,135 602,130 326,130 326,140 " style="fill:white; stroke-width:1; stroke:black; " description="&lt;b&gt;BAB69699.1&lt;/b&gt;&lt;br&gt;iturin A synthetase B&lt;br&gt;Location: 17145 - 33233" locus_tag="BAB69699.1" class="clusterblast-orf" id="knownclusterblast-1_all_1_2_6"  />
</g>
<g id="a1_007"  >
<polygon points="608,140 741,140 746,135 741,130 608,130 608,140 " style="fill:white; stroke-width:1; stroke:black; " description="&lt;b&gt;BAB69700.1&lt;/b&gt;&lt;br&gt;iturin A synthetase C&lt;br&gt;Location: 33322 - 41178" locus_tag="BAB69700.1" class="clusterblast-orf" id="knownclusterblast-1_all_1_2_7"  />
</g>
<g id="a1_008"  >
<polygon points="751,140 753,135 751,130 751,140 " style="fill:white; stroke-width:1; stroke:black; " description="&lt;b&gt;BAB69701.1&lt;/b&gt;&lt;br&gt;&lt;br&gt;Location: 41487 - 41599" locus_tag="BAB69701.1" class="clusterblast-orf" id="knownclusterblast-1_all_1_2_8"  />
</g>
<g label="BGC0000774" description="BGC0000774_c1: lipopolysaccharide (5% of genes show similarity), Saccharide:Lipopolysaccharide" class="clusterblast-cluster"  >
<text x="5" y="170" class="clusterblast-acc"  >
<a xlink:href="https://mibig.secondarymetabolites.org/go/BGC0000774/1" target="_blank">BGC0000774</a>: lipopolysaccharide                                                               (5% of genes show similarity), Saccharide:Lipopolysaccharide</text>
<line x1="10" y1="185" x2="778.0" y2="185" style="stroke-width:1; stroke:grey; "  />
</g>
<g id="a1_000"  >
<polygon points="61,185 66,180 71,180 71,190 66,190 61,185 " style="fill:white; stroke-width:1; stroke:black; " description="&lt;b&gt;AAK53492.1&lt;/b&gt;&lt;br&gt;putative ATP-dependent RNA helicase&lt;br&gt;Location: 37753 - 37148" locus_tag="AAK53492.1" class="clusterblast-orf" id="knownclusterblast-1_all_1_3_0"  />
</g>
<g id="a1_001"  >
<polygon points="78,190 90,190 95,185 90,180 78,180 78,190 " style="fill:white; stroke-width:1; stroke:black; " description="&lt;b&gt;AAK53491.1&lt;/b&gt;&lt;br&gt;putative dioxygenase&lt;br&gt;Location: 36768 - 35779" locus_tag="AAK53491.1" class="clusterblast-orf" id="knownclusterblast-1_all_1_3_1"  />
</g>
<g id="a1_002"  >
<polygon points="96,190 103,190 108,185 103,180 96,180 96,190 " style="fill:white; stroke-width:1; stroke:black; " description="&lt;b&gt;AAK53490.1&lt;/b&gt;&lt;br&gt;putative maleylacetoacetate isomerase&lt;br&gt;Location: 35735 - 35073" locus_tag="AAK53490.1" class="clusterblast-orf" id="knownclusterblast-1_all_1_3_2"  />
</g>
<g id="a1_003"  >
<polygon points="117,185 122,180 137,180 137,190 122,190 117,185 " style="fill:white; stroke-width:1; stroke:black; " description="&lt;b&gt;AAK53489.1&lt;/b&gt;&lt;br&gt;type II secretion system protein-like protein&lt;br&gt;Location: 34553 - 33420" locus_tag="AAK53489.1" class="clusterblast-orf" id="knownclusterblast-1_all_1_3_3"  />
</g>
<g id="a1_004"  >
<polygon points="138,190 140,190 145,185 140,180 138,180 138,190 " style="fill:white; stroke-width:1; stroke:black; " description="&lt;b&gt;AAK53488.1&lt;/b&gt;&lt;br&gt;putative outer membrane protein UptD precursor&lt;br&gt;Location: 33321 - 32938" locus_tag="AAK53488.1" class="clusterblast-orf" id="knownclusterblast-1_all_1_3_4"  />
</g>
<g id="a1_005"  >
<polygon points="145,190 155,190 160,185 155,180 145,180 145,190 " style="fill:white; stroke-width:1; stroke:black; " description="&lt;b&gt;AAK53487.1&lt;/b&gt;&lt;br&gt;putative outer membrane protein UptE precursor&lt;br&gt;Location: 32941 - 32051" locus_tag="AAK53487.1" class="clusterblast-orf" id="knownclusterblast-1_all_1_3_5"  />
</g>
<g id="a1_006"  >
<polygon points="162,190 165,190 170,185 165,180 162,180 162,190 " style="fill:white; stroke-width:1; stroke:black; " description="&lt;b&gt;AAK53486.1&lt;/b&gt;&lt;br&gt;UptF&lt;br&gt;Location: 31985 - 31491" locus_tag="AAK53486.1" class="clusterblast-orf" id="knownclusterblast-1_all_1_3_6"  />
</g>
<g id="a1_007"  >
<polygon points="174,190 193,190 198,185 193,180 174,180 174,190 " style="fill:white; stroke-width:1; stroke:black; " description="&lt;b&gt;AAK53485.1&lt;/b&gt;&lt;br&gt;cystathionine beta-lyase&lt;br&gt;Location: 31259 - 29889" locus_tag="AAK53485.1" class="clusterblast-orf" id="knownclusterblast-1_all_1_3_7"  />
</g>
<g id="a1_008"  >
<polygon points="200,190 216,190 221,185 216,180 200,180 200,190 " style="fill:white; stroke-width:1; stroke:black; " description="&lt;b&gt;AAK53484.1&lt;/b&gt;&lt;br&gt;cystathionine gamma-synthase&lt;br&gt;Location: 29795 - 28596" locus_tag="AAK53484.1" class="clusterblast-orf" id="knownclusterblast-1_all_1_3_8"  />
</g>
<g id="a1_009"  >
<polygon points="221,190 240,190 245,185 240,180 221,180 221,190 " style="fill:white; stroke-width:1; stroke:black; " description="&lt;b&gt;AAK53483.1&lt;/b&gt;&lt;br&gt;glycosyltransferase&lt;br&gt;Location: 28599 - 27214" locus_tag="AAK53483.1" class="clusterblast-orf" id="knownclusterblast-1_all_1_3_9"  />
</g>
<g id="a1_0010"  >
<polygon points="246,190 255,190 260,185 255,180 246,180 246,190 " style="fill:white; stroke-width:1; stroke:black; " description="&lt;b&gt;AAK53482.1&lt;/b&gt;&lt;br&gt;permease protein of an ABC-type polysaccaharide exporter&lt;br&gt;Location: 27130 - 26345" locus_tag="AAK53482.1" class="clusterblast-orf" id="knownclusterblast-1_all_1_3_10"  />
</g>
<g id="a1_0011"  >
<polygon points="260,190 278,190 283,185 278,180 260,180 260,190 " style="fill:white; stroke-width:1; stroke:black; " description="&lt;b&gt;AAK53481.1&lt;/b&gt;&lt;br&gt;ATP-binding component of an ABC-type polysaccharide exporter&lt;br&gt;Location: 26348 - 25062" locus_tag="AAK53481.1" class="clusterblast-orf" id="knownclusterblast-1_all_1_3_11"  />
</g>
<g id="a1_0012"  >
<polygon points="283,190 318,190 323,185 318,180 283,180 283,190 " style="fill:white; stroke-width:1; stroke:black; " description="&lt;b&gt;AAK53480.1&lt;/b&gt;&lt;br&gt;putative protein kinase&lt;br&gt;Location: 25022 - 22734" locus_tag="AAK53480.1" class="clusterblast-orf" id="knownclusterblast-1_all_1_3_12"  />
</g>
<g id="a1_0013"  >
<polygon points="324,190 338,190 343,185 338,180 324,180 324,190 " style="fill:white; stroke-width:1; stroke:black; " description="&lt;b&gt;AAK53479.1&lt;/b&gt;&lt;br&gt;glycosyltransferase&lt;br&gt;Location: 22684 - 21623" locus_tag="AAK53479.1" class="clusterblast-orf" id="knownclusterblast-1_all_1_3_13"  />
</g>
<g id="a1_0014"  >
<polygon points="343,190 369,190 374,185 369,180 343,180 343,190 " style="fill:white; stroke-width:1; stroke:black; " description="&lt;b&gt;AAK53478.1&lt;/b&gt;&lt;br&gt;putative glycosyltransferase&lt;br&gt;Location: 21602 - 19857" locus_tag="AAK53478.1" class="clusterblast-orf" id="knownclusterblast-1_all_1_3_14"  />
</g>
<g id="a1_0015"  >
<polygon points="374,190 380,190 385,185 380,180 374,180 374,190 " style="fill:white; stroke-width:1; stroke:black; " description="&lt;b&gt;AAK53477.1&lt;/b&gt;&lt;br&gt;Unknown&lt;br&gt;Location: 19857 - 19222" locus_tag="AAK53477.1" class="clusterblast-orf" id="knownclusterblast-1_all_1_3_15"  />
</g>
<g id="a1_0016"  >
<polygon points="386,190 399,190 404,185 399,180 386,180 386,190 " style="fill:white; stroke-width:1; stroke:black; " description="&lt;b&gt;AAK53476.1&lt;/b&gt;&lt;br&gt;GDP-mannose 4,6-dehydratase&lt;br&gt;Location: 19144 - 18110" locus_tag="AAK53476.1" class="clusterblast-orf" id="knownclusterblast-1_all_1_3_16"  />
</g>
<g id="a1_0017"  >
<polygon points="404,190 415,190 420,185 415,180 404,180 404,190 " style="fill:white; stroke-width:1; stroke:black; " description="&lt;b&gt;AAK53475.1&lt;/b&gt;&lt;br&gt;GDP-4-dehydro-D-rhamnose reductase&lt;br&gt;Location: 18126 - 17188" locus_tag="AAK53475.1" class="clusterblast-orf" id="knownclusterblast-1_all_1_3_17"  />
</g>
<g id="a1_0018"  >
<polygon points="423,185 428,180 462,180 462,190 428,190 423,185 " style="fill:white; stroke-width:1; stroke:black; " description="&lt;b&gt;AAK53474.1&lt;/b&gt;&lt;br&gt;integral membrane protein&lt;br&gt;Location: 17046 - 14794" locus_tag="AAK53474.1" class="clusterblast-orf" id="knownclusterblast-1_all_1_3_18"  />
</g>
<g id="a1_0019"  >
<polygon points="463,185 468,180 471,180 471,190 468,190 463,185 " style="fill:white; stroke-width:1; stroke:black; " description="&lt;b&gt;AAK53473.1&lt;/b&gt;&lt;br&gt;putative integral membrane protein WxcN&lt;br&gt;Location: 14724 - 14284" locus_tag="AAK53473.1" class="clusterblast-orf" id="knownclusterblast-1_all_1_3_19"  />
</g>
<g id="a1_0020"  >
<polygon points="471,185 476,180 487,180 487,190 476,190 471,185 " style="fill:white; stroke-width:1; stroke:black; " description="&lt;b&gt;AAK53472.1&lt;/b&gt;&lt;br&gt;bifunctional nucleotide hexosamine acetyltransferase / isomerase&lt;br&gt;Location: 14297 - 13368" locus_tag="AAK53472.1" class="clusterblast-orf" id="knownclusterblast-1_all_1_3_20"  />
</g>
<g id="a1_0021"  >
<polygon points="487,185 492,180 504,180 504,190 492,190 487,185 " style="fill:white; stroke-width:1; stroke:black; " description="&lt;b&gt;AAK53471.1&lt;/b&gt;&lt;br&gt;glycosyltransferase&lt;br&gt;Location: 13371 - 12400" locus_tag="AAK53471.1" class="clusterblast-orf" id="knownclusterblast-1_all_1_3_21"  />
</g>
<g id="a1_0022"  >
<polygon points="504,185 509,180 523,180 523,190 509,190 504,185 " style="fill:white; stroke-width:1; stroke:black; " description="&lt;b&gt;AAK53470.1&lt;/b&gt;&lt;br&gt;nucleotide sugar aminotransferase&lt;br&gt;Location: 12415 - 11312" locus_tag="AAK53470.1" class="clusterblast-orf" id="knownclusterblast-1_all_1_3_22"  />
</g>
<g id="a1_0023"  >
<polygon points="524,185 529,180 530,180 530,190 529,190 524,185 " style="fill:white; stroke-width:1; stroke:black; " description="&lt;b&gt;AAK53469.1&lt;/b&gt;&lt;br&gt;WxcH&lt;br&gt;Location: 11263 - 10916" locus_tag="AAK53469.1" class="clusterblast-orf" id="knownclusterblast-1_all_1_3_23"  />
</g>
<g id="a1_0024"  >
<polygon points="531,185 536,180 547,180 547,190 536,190 531,185 " style="fill:white; stroke-width:1; stroke:black; " description="&lt;b&gt;AAK53468.1&lt;/b&gt;&lt;br&gt;putative electron-transferring flavoprotein alpha subunit&lt;br&gt;Location: 10856 - 9912" locus_tag="AAK53468.1" class="clusterblast-orf" id="knownclusterblast-1_all_1_3_24"  />
</g>
<g id="a1_0025"  >
<polygon points="547,185 552,180 560,180 560,190 552,190 547,185 " style="fill:white; stroke-width:1; stroke:black; " description="&lt;b&gt;AAK53467.1&lt;/b&gt;&lt;br&gt;putative electron-transferring flavoprotein beta subunit&lt;br&gt;Location: 9912 - 9166" locus_tag="AAK53467.1" class="clusterblast-orf" id="knownclusterblast-1_all_1_3_25"  />
</g>
<g id="a1_0026"  >
<polygon points="564,190 578,190 583,185 578,180 564,180 564,190 " style="fill:white; stroke-width:1; stroke:black; " description="&lt;b&gt;AAK53466.1&lt;/b&gt;&lt;br&gt;dTDP-glucose 4,6-dehydratase&lt;br&gt;Location: 8937 - 7882" locus_tag="AAK53466.1" class="clusterblast-orf" id="knownclusterblast-1_all_1_3_26"  />
</g>
<g id="a1_0027"  >
<polygon points="584,190 594,190 599,185 594,180 584,180 584,190 " style="fill:white; stroke-width:1; stroke:black; " description="&lt;b&gt;AAA16191.1&lt;/b&gt;&lt;br&gt;glucose-1-phosphate thymidylyltransferase&lt;br&gt;Location: 7818 - 6931" locus_tag="AAA16191.1" class="clusterblast-orf" id="knownclusterblast-1_all_1_3_27"  />
</g>
<g id="a1_0028"  >
<polygon points="599,190 604,190 609,185 604,180 599,180 599,190 " style="fill:white; stroke-width:1; stroke:black; " description="&lt;b&gt;AAK53465.1&lt;/b&gt;&lt;br&gt;dTDP-4-dehydrorhamnose 3,5-epimerase&lt;br&gt;Location: 6934 - 6377" locus_tag="AAK53465.1" class="clusterblast-orf" id="knownclusterblast-1_all_1_3_28"  />
</g>
<g id="a1_0029"  >
<polygon points="609,190 620,190 625,185 620,180 609,180 609,190 " style="fill:white; stroke-width:1; stroke:black; " description="&lt;b&gt;AAK53464.1&lt;/b&gt;&lt;br&gt;dTDP-4-dehydrorhamnose reductase&lt;br&gt;Location: 6380 - 5472" locus_tag="AAK53464.1" class="clusterblast-orf" id="knownclusterblast-1_all_1_3_29"  />
</g>
<g id="a1_0030"  >
<polygon points="627,185 632,180 651,180 651,190 632,190 627,185 " style="fill:white; stroke-width:1; stroke:black; " description="&lt;b&gt;AAK53463.1&lt;/b&gt;&lt;br&gt;phosphomannose isomerase / GDP-mannose pyrophosphorylase&lt;br&gt;Location: 5350 - 3947" locus_tag="AAK53463.1" class="clusterblast-orf" id="knownclusterblast-1_all_1_3_30"  />
</g>
<g id="a1_0031"  >
<polygon points="652,185 657,180 676,180 676,190 657,190 652,185 " style="fill:white; stroke-width:1; stroke:black; " description="&lt;b&gt;AAA27610.1&lt;/b&gt;&lt;br&gt;phosphoglucomutase / phosphomannomutase&lt;br&gt;Location: 3901 - 2555" locus_tag="AAA27610.1" class="clusterblast-orf" id="knownclusterblast-1_all_1_3_31"  />
</g>
<g id="a1_0032"  >
<polygon points="678,190 686,190 691,185 686,180 678,180 678,190 " style="fill:#d81515; stroke-width:1; stroke:black; " description="&lt;b&gt;AAK53462.1&lt;/b&gt;&lt;br&gt;alpha subunit of putative 3-oxoacid CoA-transferase&lt;br&gt;Location: 2420 - 1692&lt;br&gt;&lt;br&gt;&lt;b&gt;BlastP hit with ctg31_49&lt;/b&gt;&lt;br&gt;Percentage identity: 57&lt;br&gt;Percentage coverage: 91&lt;br&gt;BLAST bit score: 243&lt;br&gt;E-value: 6.27e-81" locus_tag="AAK53462.1" class="clusterblast-orf" id="knownclusterblast-1_all_1_3_32"  />
</g>
<g id="a1_0033"  >
<polygon points="691,190 697,190 702,185 697,180 691,180 691,190 " style="fill:#15d8d8; stroke-width:1; stroke:black; " description="&lt;b&gt;AAK53493.1&lt;/b&gt;&lt;br&gt;beta-subunit of putative 3-oxoacid CoA-transferase&lt;br&gt;Location: 1692 - 1054&lt;br&gt;&lt;br&gt;&lt;b&gt;BlastP hit with ctg31_50&lt;/b&gt;&lt;br&gt;Percentage identity: 63&lt;br&gt;Percentage coverage: 93&lt;br&gt;BLAST bit score: 246&lt;br&gt;E-value: 3.36e-83" locus_tag="AAK53493.1" class="clusterblast-orf" id="knownclusterblast-1_all_1_3_33"  />
</g>
<g id="a1_0034"  >
<polygon points="707,185 712,180 718,180 718,190 712,190 707,185 " style="fill:white; stroke-width:1; stroke:black; " description="&lt;b&gt;AAK53494.1&lt;/b&gt;&lt;br&gt;conserved protein involved in carbohydrate biosynthesis&lt;br&gt;Location: 772 - 134" locus_tag="AAK53494.1" class="clusterblast-orf" id="knownclusterblast-1_all_1_3_34"  />
</g>
<g label="BGC0002284" description="BGC0002284_c1: corynecin III/corynecin I/corynecin II (13% of genes show similarity), Other" class="clusterblast-cluster"  >
<text x="5" y="220" class="clusterblast-acc"  >
<a xlink:href="https://mibig.secondarymetabolites.org/go/BGC0002284/1" target="_blank">BGC0002284</a>: corynecin III/corynecin I/corynecin II                                           (13% of genes show similarity), Other</text>
<line x1="10" y1="235" x2="778.0" y2="235" style="stroke-width:1; stroke:grey; "  />
</g>
<g id="a1_000"  >
<polygon points="233,235 238,230 258,230 258,240 238,240 233,235 " style="fill:white; stroke-width:1; stroke:black; " description="&lt;b&gt;CPI83_20065&lt;/b&gt;&lt;br&gt;hypothetical protein&lt;br&gt;Location: 17900 - 16452" locus_tag="CPI83_20065" class="clusterblast-orf" id="knownclusterblast-1_all_1_4_0"  />
</g>
<g id="a1_001"  >
<polygon points="262,240 297,240 302,235 297,230 262,230 262,240 " style="fill:white; stroke-width:1; stroke:black; " description="&lt;b&gt;CPI83_20060&lt;/b&gt;&lt;br&gt;MMPL family transporter&lt;br&gt;Location: 16227 - 13981" locus_tag="CPI83_20060" class="clusterblast-orf" id="knownclusterblast-1_all_1_4_1"  />
</g>
<g id="a1_002"  >
<polygon points="305,240 325,240 330,235 325,230 305,230 305,240 " style="fill:white; stroke-width:1; stroke:black; " description="&lt;b&gt;CPI83_20055&lt;/b&gt;&lt;br&gt;hypothetical protein&lt;br&gt;Location: 13797 - 12358" locus_tag="CPI83_20055" class="clusterblast-orf" id="knownclusterblast-1_all_1_4_2"  />
</g>
<g id="a1_003"  >
<polygon points="330,240 349,240 354,235 349,230 330,230 330,240 " style="fill:white; stroke-width:1; stroke:black; " description="&lt;b&gt;CPI83_20050&lt;/b&gt;&lt;br&gt;hypothetical protein&lt;br&gt;Location: 12361 - 10997" locus_tag="CPI83_20050" class="clusterblast-orf" id="knownclusterblast-1_all_1_4_3"  />
</g>
<g id="a1_004"  >
<polygon points="353,235 358,230 378,230 378,240 358,240 353,235 " style="fill:white; stroke-width:1; stroke:black; " description="&lt;b&gt;CPI83_20045&lt;/b&gt;&lt;br&gt;C4-dicarboxylate transporter DctA&lt;br&gt;Location: 11019 - 9613" locus_tag="CPI83_20045" class="clusterblast-orf" id="knownclusterblast-1_all_1_4_4"  />
</g>
<g id="a1_005"  >
<polygon points="381,240 381,240 386,235 381,230 381,230 381,240 " style="fill:white; stroke-width:1; stroke:black; " description="&lt;b&gt;CPI83_20040&lt;/b&gt;&lt;br&gt;GlsB/YeaQ/YmgE family stress response membrane protein&lt;br&gt;Location: 9424 - 9164" locus_tag="CPI83_20040" class="clusterblast-orf" id="knownclusterblast-1_all_1_4_5"  />
</g>
<g id="a1_006"  >
<polygon points="389,235 394,230 402,230 402,240 394,240 389,235 " style="fill:white; stroke-width:1; stroke:black; " description="&lt;b&gt;CPI83_20035&lt;/b&gt;&lt;br&gt;GTP pyrophosphokinase&lt;br&gt;Location: 9006 - 8260" locus_tag="CPI83_20035" class="clusterblast-orf" id="knownclusterblast-1_all_1_4_6"  />
</g>
<g id="a1_007"  >
<polygon points="402,235 407,230 413,230 413,240 407,240 402,235 " style="fill:white; stroke-width:1; stroke:black; " description="&lt;b&gt;CPI83_20030&lt;/b&gt;&lt;br&gt;TetR/AcrR family transcriptional regulator&lt;br&gt;Location: 8211 - 7612" locus_tag="CPI83_20030" class="clusterblast-orf" id="knownclusterblast-1_all_1_4_7"  />
</g>
<g id="a1_008"  >
<polygon points="415,240 437,240 442,235 437,230 415,230 415,240 " style="fill:white; stroke-width:1; stroke:black; " description="&lt;b&gt;CPI83_20025&lt;/b&gt;&lt;br&gt;methylcrotonoyl-CoA carboxylase&lt;br&gt;Location: 7513 - 5924" locus_tag="CPI83_20025" class="clusterblast-orf" id="knownclusterblast-1_all_1_4_8"  />
</g>
<g id="a1_009"  >
<polygon points="442,240 473,240 478,235 473,230 442,230 442,240 " style="fill:white; stroke-width:1; stroke:black; " description="&lt;b&gt;CPI83_20020&lt;/b&gt;&lt;br&gt;acetyl/propionyl/methylcrotonyl-CoA carboxylase subunit alpha&lt;br&gt;Location: 5918 - 3879" locus_tag="CPI83_20020" class="clusterblast-orf" id="knownclusterblast-1_all_1_4_9"  />
</g>
<g id="a1_0010"  >
<polygon points="478,240 493,240 498,235 493,230 478,230 478,240 " style="fill:white; stroke-width:1; stroke:black; " description="&lt;b&gt;CPI83_20015&lt;/b&gt;&lt;br&gt;acyl-CoA dehydrogenase&lt;br&gt;Location: 3879 - 2716" locus_tag="CPI83_20015" class="clusterblast-orf" id="knownclusterblast-1_all_1_4_10"  />
</g>
<g id="a1_0011"  >
<polygon points="498,240 502,240 507,235 502,230 498,230 498,240 " style="fill:white; stroke-width:1; stroke:black; " description="&lt;b&gt;CPI83_20010&lt;/b&gt;&lt;br&gt;dehydratase&lt;br&gt;Location: 2719 - 2231" locus_tag="CPI83_20010" class="clusterblast-orf" id="knownclusterblast-1_all_1_4_11"  />
</g>
<g id="a1_0012"  >
<polygon points="507,240 516,240 521,235 516,230 507,230 507,240 " style="fill:white; stroke-width:1; stroke:black; " description="&lt;b&gt;CPI83_20005&lt;/b&gt;&lt;br&gt;CoA ester lyase&lt;br&gt;Location: 2234 - 1407" locus_tag="CPI83_20005" class="clusterblast-orf" id="knownclusterblast-1_all_1_4_12"  />
</g>
<g id="a1_0013"  >
<polygon points="521,240 530,240 535,235 530,230 521,230 521,240 " style="fill:#d81515; stroke-width:1; stroke:black; " description="&lt;b&gt;CPI83_20000&lt;/b&gt;&lt;br&gt;CoA transferase subunit A&lt;br&gt;Location: 1403 - 648&lt;br&gt;&lt;br&gt;&lt;b&gt;BlastP hit with ctg31_49&lt;/b&gt;&lt;br&gt;Percentage identity: 46&lt;br&gt;Percentage coverage: 102&lt;br&gt;BLAST bit score: 203&lt;br&gt;E-value: 3.26e-65" locus_tag="CPI83_20000" class="clusterblast-orf" id="knownclusterblast-1_all_1_4_13"  />
</g>
<g id="a1_0014"  >
<polygon points="535,240 541,240 546,235 541,230 535,230 535,240 " style="fill:#15d8d8; stroke-width:1; stroke:black; " description="&lt;b&gt;CPI83_19995&lt;/b&gt;&lt;br&gt;succinyl-CoA--3-ketoacid-CoA transferase&lt;br&gt;Location: 627 - 1&lt;br&gt;&lt;br&gt;&lt;b&gt;BlastP hit with ctg31_50&lt;/b&gt;&lt;br&gt;Percentage identity: 59&lt;br&gt;Percentage coverage: 93&lt;br&gt;BLAST bit score: 245&lt;br&gt;E-value: 1.19e-82" locus_tag="CPI83_19995" class="clusterblast-orf" id="knownclusterblast-1_all_1_4_14"  />
</g>
</svg>
