<svg xmlns="http://www.w3.org/2000/svg" xmlns:xlink="http://www.w3.org/1999/xlink" version="1.1" x="0" y="0" height="50" width="800" viewBox="0 0 800 50" preserveAspectRatio="none"  >
<g label="Query sequence" class="clusterblast-cluster"  >
<text x="5" y="20" class="clusterblast-acc"  >
Query sequence</text>
<line x1="10" y1="35" x2="778.0" y2="35" style="stroke-width:1; stroke:grey; "  />
<polygon points="0,40 14,40 19,35 14,30 0,30 0,40 " style="fill:white; stroke-width:1; stroke:black; " description="&lt;b&gt;ctg70_15&lt;/b&gt;&lt;br&gt;ctg70 15&lt;br&gt;Location: 13439 - 14078" locus_tag="ctg70_15" class="clusterblast-orf" id="knownclusterblast-1_q0_0_all"  />
<polygon points="25,35 30,30 32,30 32,40 30,40 25,35 " style="fill:white; stroke-width:1; stroke:black; " description="&lt;b&gt;ctg70_16&lt;/b&gt;&lt;br&gt;ctg70 16&lt;br&gt;Location: 14292 - 14511" locus_tag="ctg70_16" class="clusterblast-orf" id="knownclusterblast-1_q1_0_all"  />
<polygon points="41,40 55,40 60,35 55,30 41,30 41,40 " style="fill:white; stroke-width:1; stroke:black; " description="&lt;b&gt;ctg70_17&lt;/b&gt;&lt;br&gt;ctg70 17&lt;br&gt;Location: 14826 - 15459" locus_tag="ctg70_17" class="clusterblast-orf" id="knownclusterblast-1_q2_0_all"  />
<polygon points="61,40 76,40 81,35 76,30 61,30 61,40 " style="fill:white; stroke-width:1; stroke:black; " description="&lt;b&gt;ctg70_18&lt;/b&gt;&lt;br&gt;ctg70 18&lt;br&gt;Location: 15477 - 16146" locus_tag="ctg70_18" class="clusterblast-orf" id="knownclusterblast-1_q3_0_all"  />
<polygon points="93,35 98,30 150,30 150,40 98,40 93,35 " style="fill:white; stroke-width:1; stroke:black; " description="&lt;b&gt;ctg70_19&lt;/b&gt;&lt;br&gt;ctg70 19&lt;br&gt;Location: 16554 - 18426" locus_tag="ctg70_19" class="clusterblast-orf" id="knownclusterblast-1_q4_0_all"  />
<polygon points="150,40 190,40 195,35 190,30 150,30 150,40 " style="fill:white; stroke-width:1; stroke:black; " description="&lt;b&gt;ctg70_20&lt;/b&gt;&lt;br&gt;ctg70 20&lt;br&gt;Location: 18458 - 19943" locus_tag="ctg70_20" class="clusterblast-orf" id="knownclusterblast-1_q5_0_all"  />
<polygon points="195,35 200,30 218,30 218,40 200,40 195,35 " style="fill:white; stroke-width:1; stroke:black; " description="&lt;b&gt;ctg70_21&lt;/b&gt;&lt;br&gt;ctg70 21&lt;br&gt;Location: 19939 - 20722" locus_tag="ctg70_21" class="clusterblast-orf" id="knownclusterblast-1_q6_0_all"  />
<polygon points="236,35 241,30 270,30 270,40 241,40 236,35 " style="fill:white; stroke-width:1; stroke:black; " description="&lt;b&gt;ctg70_22&lt;/b&gt;&lt;br&gt;ctg70 22&lt;br&gt;Location: 21295 - 22429" locus_tag="ctg70_22" class="clusterblast-orf" id="knownclusterblast-1_q7_0_all"  />
<polygon points="279,40 295,40 300,35 295,30 279,30 279,40 " style="fill:white; stroke-width:1; stroke:black; " description="&lt;b&gt;ctg70_23&lt;/b&gt;&lt;br&gt;ctg70 23&lt;br&gt;Location: 22735 - 23431" locus_tag="ctg70_23" class="clusterblast-orf" id="knownclusterblast-1_q8_0_all"  />
<polygon points="302,35 307,30 321,30 321,40 307,40 302,35 " style="fill:white; stroke-width:1; stroke:black; " description="&lt;b&gt;ctg70_24&lt;/b&gt;&lt;br&gt;ctg70 24&lt;br&gt;Location: 23515 - 24154" locus_tag="ctg70_24" class="clusterblast-orf" id="knownclusterblast-1_q9_0_all"  />
<polygon points="322,35 327,30 349,30 349,40 327,40 322,35 " style="fill:white; stroke-width:1; stroke:black; " description="&lt;b&gt;ctg70_25&lt;/b&gt;&lt;br&gt;ctg70 25&lt;br&gt;Location: 24155 - 25085" locus_tag="ctg70_25" class="clusterblast-orf" id="knownclusterblast-1_q10_0_all"  />
<polygon points="367,35 372,30 398,30 398,40 372,40 367,35 " style="fill:white; stroke-width:1; stroke:black; " description="&lt;b&gt;ctg70_26&lt;/b&gt;&lt;br&gt;ctg70 26&lt;br&gt;Location: 25671 - 26703" locus_tag="ctg70_26" class="clusterblast-orf" id="knownclusterblast-1_q11_0_all"  />
<polygon points="397,35 402,30 431,30 431,40 402,40 397,35 " style="fill:white; stroke-width:1; stroke:black; " description="&lt;b&gt;ctg70_27&lt;/b&gt;&lt;br&gt;ctg70 27&lt;br&gt;Location: 26678 - 27812" locus_tag="ctg70_27" class="clusterblast-orf" id="knownclusterblast-1_q12_0_all"  />
<polygon points="433,40 440,40 445,35 440,30 433,30 433,40 " style="fill:white; stroke-width:1; stroke:black; " description="&lt;b&gt;ctg70_28&lt;/b&gt;&lt;br&gt;ctg70 28&lt;br&gt;Location: 27875 - 28256" locus_tag="ctg70_28" class="clusterblast-orf" id="knownclusterblast-1_q13_0_all"  />
<polygon points="444,35 449,30 471,30 471,40 449,40 444,35 " style="fill:white; stroke-width:1; stroke:black; " description="&lt;b&gt;ctg70_29&lt;/b&gt;&lt;br&gt;ctg70 29&lt;br&gt;Location: 28243 - 29125" locus_tag="ctg70_29" class="clusterblast-orf" id="knownclusterblast-1_q14_0_all"  />
<polygon points="471,35 476,30 563,30 563,40 476,40 471,35 " style="fill:white; stroke-width:1; stroke:black; " description="&lt;b&gt;ctg70_30&lt;/b&gt;&lt;br&gt;ctg70 30&lt;br&gt;Location: 29125 - 32191" locus_tag="ctg70_30" class="clusterblast-orf" id="knownclusterblast-1_q15_0_all"  />
<polygon points="568,35 573,30 780,30 780,40 573,40 568,35 " style="fill:white; stroke-width:1; stroke:black; " description="&lt;b&gt;ctg70_31&lt;/b&gt;&lt;br&gt;ctg70 31&lt;br&gt;Location: 32380 - 39421" locus_tag="ctg70_31" class="clusterblast-orf" id="knownclusterblast-1_q16_0_all"  />
</g>
</svg>
