<svg xmlns="http://www.w3.org/2000/svg" xmlns:xlink="http://www.w3.org/1999/xlink" version="1.1" x="0" y="0" height="50" width="800" viewBox="0 0 800 50" preserveAspectRatio="none"  >
<g label="Query sequence" class="clusterblast-cluster"  >
<text x="5" y="20" class="clusterblast-acc"  >
Query sequence</text>
<line x1="10" y1="35" x2="778.0" y2="35" style="stroke-width:1; stroke:grey; "  />
<polygon points="0,35 5,30 27,30 27,40 5,40 0,35 " style="fill:white; stroke-width:1; stroke:black; " description="&lt;b&gt;ctg93_1&lt;/b&gt;&lt;br&gt;ctg93 1&lt;br&gt;Location: 16 - 451" locus_tag="ctg93_1" class="clusterblast-orf" id="knownclusterblast-1_q0_0_all"  />
<polygon points="27,40 41,40 46,35 41,30 27,30 27,40 " style="fill:white; stroke-width:1; stroke:black; " description="&lt;b&gt;ctg93_2&lt;/b&gt;&lt;br&gt;ctg93 2&lt;br&gt;Location: 451 - 757" locus_tag="ctg93_2" class="clusterblast-orf" id="knownclusterblast-1_q1_0_all"  />
<polygon points="45,35 50,30 99,30 99,40 50,40 45,35 " style="fill:white; stroke-width:1; stroke:black; " description="&lt;b&gt;ctg93_3&lt;/b&gt;&lt;br&gt;ctg93 3&lt;br&gt;Location: 744 - 1602" locus_tag="ctg93_3" class="clusterblast-orf" id="knownclusterblast-1_q2_0_all"  />
<polygon points="129,40 159,40 164,35 159,30 129,30 129,40 " style="fill:white; stroke-width:1; stroke:black; " description="&lt;b&gt;ctg93_4&lt;/b&gt;&lt;br&gt;ctg93 4&lt;br&gt;Location: 2085 - 2649" locus_tag="ctg93_4" class="clusterblast-orf" id="knownclusterblast-1_q3_0_all"  />
<polygon points="174,35 179,30 199,30 199,40 179,40 174,35 " style="fill:white; stroke-width:1; stroke:black; " description="&lt;b&gt;ctg93_5&lt;/b&gt;&lt;br&gt;ctg93 5&lt;br&gt;Location: 2812 - 3208" locus_tag="ctg93_5" class="clusterblast-orf" id="knownclusterblast-1_q4_0_all"  />
<polygon points="221,35 226,30 239,30 239,40 226,40 221,35 " style="fill:white; stroke-width:1; stroke:black; " description="&lt;b&gt;ctg93_6&lt;/b&gt;&lt;br&gt;ctg93 6&lt;br&gt;Location: 3563 - 3851" locus_tag="ctg93_6" class="clusterblast-orf" id="knownclusterblast-1_q5_0_all"  />
<polygon points="247,35 252,30 258,30 258,40 252,40 247,35 " style="fill:white; stroke-width:1; stroke:black; " description="&lt;b&gt;ctg93_7&lt;/b&gt;&lt;br&gt;ctg93 7&lt;br&gt;Location: 3975 - 4158" locus_tag="ctg93_7" class="clusterblast-orf" id="knownclusterblast-1_q6_0_all"  />
<polygon points="260,40 285,40 290,35 285,30 260,30 260,40 " style="fill:white; stroke-width:1; stroke:black; " description="&lt;b&gt;ctg93_8&lt;/b&gt;&lt;br&gt;ctg93 8&lt;br&gt;Location: 4182 - 4674" locus_tag="ctg93_8" class="clusterblast-orf" id="knownclusterblast-1_q7_0_all"  />
<polygon points="288,35 293,30 329,30 329,40 293,40 288,35 " style="fill:white; stroke-width:1; stroke:black; " description="&lt;b&gt;ctg93_9&lt;/b&gt;&lt;br&gt;ctg93 9&lt;br&gt;Location: 4639 - 5293" locus_tag="ctg93_9" class="clusterblast-orf" id="knownclusterblast-1_q8_0_all"  />
<polygon points="331,35 336,30 411,30 411,40 336,40 331,35 " style="fill:white; stroke-width:1; stroke:black; " description="&lt;b&gt;ctg93_10&lt;/b&gt;&lt;br&gt;ctg93 10&lt;br&gt;Location: 5333 - 6620" locus_tag="ctg93_10" class="clusterblast-orf" id="knownclusterblast-1_q9_0_all"  />
<polygon points="421,40 475,40 480,35 475,30 421,30 421,40 " style="fill:white; stroke-width:1; stroke:black; " description="&lt;b&gt;ctg93_11&lt;/b&gt;&lt;br&gt;ctg93 11&lt;br&gt;Location: 6772 - 7717" locus_tag="ctg93_11" class="clusterblast-orf" id="knownclusterblast-1_q10_0_all"  />
<polygon points="479,40 486,40 491,35 486,30 479,30 479,40 " style="fill:white; stroke-width:1; stroke:black; " description="&lt;b&gt;ctg93_12&lt;/b&gt;&lt;br&gt;ctg93 12&lt;br&gt;Location: 7713 - 7902" locus_tag="ctg93_12" class="clusterblast-orf" id="knownclusterblast-1_q11_0_all"  />
<polygon points="494,35 499,30 620,30 620,40 499,40 494,35 " style="fill:white; stroke-width:1; stroke:black; " description="&lt;b&gt;ctg93_13&lt;/b&gt;&lt;br&gt;ctg93 13&lt;br&gt;Location: 7943 - 9977" locus_tag="ctg93_13" class="clusterblast-orf" id="knownclusterblast-1_q12_0_all"  />
<polygon points="625,35 630,30 638,30 638,40 630,40 625,35 " style="fill:white; stroke-width:1; stroke:black; " description="&lt;b&gt;ctg93_14&lt;/b&gt;&lt;br&gt;ctg93 14&lt;br&gt;Location: 10051 - 10255" locus_tag="ctg93_14" class="clusterblast-orf" id="knownclusterblast-1_q13_0_all"  />
<polygon points="638,40 687,40 692,35 687,30 638,30 638,40 " style="fill:white; stroke-width:1; stroke:black; " description="&lt;b&gt;ctg93_15&lt;/b&gt;&lt;br&gt;ctg93 15&lt;br&gt;Location: 10255 - 11122" locus_tag="ctg93_15" class="clusterblast-orf" id="knownclusterblast-1_q14_0_all"  />
<polygon points="691,35 696,30 745,30 745,40 696,40 691,35 " style="fill:white; stroke-width:1; stroke:black; " description="&lt;b&gt;ctg93_16&lt;/b&gt;&lt;br&gt;ctg93 16&lt;br&gt;Location: 11111 - 11975" locus_tag="ctg93_16" class="clusterblast-orf" id="knownclusterblast-1_q15_0_all"  />
<polygon points="760,40 775,40 780,35 775,30 760,30 760,40 " style="fill:white; stroke-width:1; stroke:black; " description="&lt;b&gt;ctg93_17&lt;/b&gt;&lt;br&gt;ctg93 17&lt;br&gt;Location: 12215 - 12542" locus_tag="ctg93_17" class="clusterblast-orf" id="knownclusterblast-1_q16_0_all"  />
</g>
</svg>
