<svg xmlns="http://www.w3.org/2000/svg" xmlns:xlink="http://www.w3.org/1999/xlink" version="1.1" x="0" y="0" height="50" width="800" viewBox="0 0 800 50" preserveAspectRatio="none"  >
<g label="Query sequence" class="clusterblast-cluster"  >
<text x="5" y="20" class="clusterblast-acc"  >
Query sequence</text>
<line x1="10" y1="35" x2="778.0" y2="35" style="stroke-width:1; stroke:grey; "  />
<polygon points="0,35 5,30 64,30 64,40 5,40 0,35 " style="fill:white; stroke-width:1; stroke:black; " description="&lt;b&gt;ctg1_111&lt;/b&gt;&lt;br&gt;ctg1 111&lt;br&gt;Location: 117867 - 119490" locus_tag="ctg1_111" class="clusterblast-orf" id="knownclusterblast-1_q0_0_all"  />
<polygon points="66,35 71,30 89,30 89,40 71,40 66,35 " style="fill:white; stroke-width:1; stroke:black; " description="&lt;b&gt;ctg1_112&lt;/b&gt;&lt;br&gt;ctg1 112&lt;br&gt;Location: 119546 - 120134" locus_tag="ctg1_112" class="clusterblast-orf" id="knownclusterblast-1_q1_0_all"  />
<polygon points="93,35 98,30 125,30 125,40 98,40 93,35 " style="fill:white; stroke-width:1; stroke:black; " description="&lt;b&gt;ctg1_113&lt;/b&gt;&lt;br&gt;ctg1 113&lt;br&gt;Location: 120242 - 121043" locus_tag="ctg1_113" class="clusterblast-orf" id="knownclusterblast-1_q2_0_all"  />
<polygon points="124,35 129,30 142,30 142,40 129,40 124,35 " style="fill:white; stroke-width:1; stroke:black; " description="&lt;b&gt;ctg1_114&lt;/b&gt;&lt;br&gt;ctg1 114&lt;br&gt;Location: 121035 - 121482" locus_tag="ctg1_114" class="clusterblast-orf" id="knownclusterblast-1_q3_0_all"  />
<polygon points="140,35 145,30 154,30 154,40 145,40 140,35 " style="fill:white; stroke-width:1; stroke:black; " description="&lt;b&gt;ctg1_115&lt;/b&gt;&lt;br&gt;ctg1 115&lt;br&gt;Location: 121435 - 121789" locus_tag="ctg1_115" class="clusterblast-orf" id="knownclusterblast-1_q4_0_all"  />
<polygon points="155,35 160,30 171,30 171,40 160,40 155,35 " style="fill:white; stroke-width:1; stroke:black; " description="&lt;b&gt;ctg1_116&lt;/b&gt;&lt;br&gt;ctg1 116&lt;br&gt;Location: 121818 - 122220" locus_tag="ctg1_116" class="clusterblast-orf" id="knownclusterblast-1_q5_0_all"  />
<polygon points="175,35 180,30 224,30 224,40 180,40 175,35 " style="fill:white; stroke-width:1; stroke:black; " description="&lt;b&gt;ctg1_117&lt;/b&gt;&lt;br&gt;ctg1 117&lt;br&gt;Location: 122326 - 123577" locus_tag="ctg1_117" class="clusterblast-orf" id="knownclusterblast-1_q6_0_all"  />
<polygon points="224,35 229,30 251,30 251,40 229,40 224,35 " style="fill:white; stroke-width:1; stroke:black; " description="&lt;b&gt;ctg1_118&lt;/b&gt;&lt;br&gt;ctg1 118&lt;br&gt;Location: 123573 - 124254" locus_tag="ctg1_118" class="clusterblast-orf" id="knownclusterblast-1_q7_0_all"  />
<polygon points="253,35 258,30 294,30 294,40 258,40 253,35 " style="fill:white; stroke-width:1; stroke:black; " description="&lt;b&gt;ctg1_119&lt;/b&gt;&lt;br&gt;ctg1 119&lt;br&gt;Location: 124304 - 125357" locus_tag="ctg1_119" class="clusterblast-orf" id="knownclusterblast-1_q8_0_all"  />
<polygon points="295,35 300,30 335,30 335,40 300,40 295,35 " style="fill:white; stroke-width:1; stroke:black; " description="&lt;b&gt;ctg1_120&lt;/b&gt;&lt;br&gt;ctg1 120&lt;br&gt;Location: 125387 - 126401" locus_tag="ctg1_120" class="clusterblast-orf" id="knownclusterblast-1_q9_0_all"  />
<polygon points="335,40 352,40 357,35 352,30 335,30 335,40 " style="fill:white; stroke-width:1; stroke:black; " description="&lt;b&gt;ctg1_121&lt;/b&gt;&lt;br&gt;ctg1 121&lt;br&gt;Location: 126404 - 126950" locus_tag="ctg1_121" class="clusterblast-orf" id="knownclusterblast-1_q10_0_all"  />
<polygon points="357,35 362,30 436,30 436,40 362,40 357,35 " style="fill:white; stroke-width:1; stroke:black; " description="&lt;b&gt;ctg1_122&lt;/b&gt;&lt;br&gt;ctg1 122&lt;br&gt;Location: 126954 - 128970" locus_tag="ctg1_122" class="clusterblast-orf" id="knownclusterblast-1_q11_0_all"  />
<polygon points="438,40 492,40 497,35 492,30 438,30 438,40 " style="fill:white; stroke-width:1; stroke:black; " description="&lt;b&gt;ctg1_123&lt;/b&gt;&lt;br&gt;ctg1 123&lt;br&gt;Location: 129019 - 130519" locus_tag="ctg1_123" class="clusterblast-orf" id="knownclusterblast-1_q12_0_all"  />
<polygon points="499,40 599,40 604,35 599,30 499,30 499,40 " style="fill:white; stroke-width:1; stroke:black; " description="&lt;b&gt;ctg1_124&lt;/b&gt;&lt;br&gt;ctg1 124&lt;br&gt;Location: 130579 - 133246" locus_tag="ctg1_124" class="clusterblast-orf" id="knownclusterblast-1_q13_0_all"  />
<polygon points="605,40 649,40 654,35 649,30 605,30 605,40 " style="fill:white; stroke-width:1; stroke:black; " description="&lt;b&gt;ctg1_125&lt;/b&gt;&lt;br&gt;ctg1 125&lt;br&gt;Location: 133262 - 134507" locus_tag="ctg1_125" class="clusterblast-orf" id="knownclusterblast-1_q14_0_all"  />
<polygon points="659,40 685,40 690,35 685,30 659,30 659,40 " style="fill:white; stroke-width:1; stroke:black; " description="&lt;b&gt;ctg1_126&lt;/b&gt;&lt;br&gt;ctg1 126&lt;br&gt;Location: 134630 - 135422" locus_tag="ctg1_126" class="clusterblast-orf" id="knownclusterblast-1_q15_0_all"  />
<polygon points="693,40 738,40 743,35 738,30 693,30 693,40 " style="fill:white; stroke-width:1; stroke:black; " description="&lt;b&gt;ctg1_127&lt;/b&gt;&lt;br&gt;ctg1 127&lt;br&gt;Location: 135511 - 136789" locus_tag="ctg1_127" class="clusterblast-orf" id="knownclusterblast-1_q16_0_all"  />
<polygon points="743,40 775,40 780,35 775,30 743,30 743,40 " style="fill:white; stroke-width:1; stroke:black; " description="&lt;b&gt;ctg1_128&lt;/b&gt;&lt;br&gt;ctg1 128&lt;br&gt;Location: 136785 - 137718" locus_tag="ctg1_128" class="clusterblast-orf" id="knownclusterblast-1_q17_0_all"  />
</g>
</svg>
