<svg xmlns="http://www.w3.org/2000/svg" xmlns:xlink="http://www.w3.org/1999/xlink" version="1.1" x="0" y="0" height="50" width="800" viewBox="0 0 800 50" preserveAspectRatio="none"  >
<g label="Query sequence" class="clusterblast-cluster"  >
<text x="5" y="20" class="clusterblast-acc"  >
Query sequence</text>
<line x1="10" y1="35" x2="778.0" y2="35" style="stroke-width:1; stroke:grey; "  />
<polygon points="0,35 5,30 14,30 14,40 5,40 0,35 " style="fill:white; stroke-width:1; stroke:black; " description="&lt;b&gt;ctg53_2&lt;/b&gt;&lt;br&gt;ctg53 2&lt;br&gt;Location: 2493 - 2952" locus_tag="ctg53_2" class="clusterblast-orf" id="knownclusterblast-1_q0_0_all"  />
<polygon points="20,40 36,40 41,35 36,30 20,30 20,40 " style="fill:white; stroke-width:1; stroke:black; " description="&lt;b&gt;ctg53_3&lt;/b&gt;&lt;br&gt;ctg53 3&lt;br&gt;Location: 3126 - 3780" locus_tag="ctg53_3" class="clusterblast-orf" id="knownclusterblast-1_q1_0_all"  />
<polygon points="41,35 46,30 66,30 66,40 46,40 41,35 " style="fill:white; stroke-width:1; stroke:black; " description="&lt;b&gt;ctg53_4&lt;/b&gt;&lt;br&gt;ctg53 4&lt;br&gt;Location: 3796 - 4573" locus_tag="ctg53_4" class="clusterblast-orf" id="knownclusterblast-1_q2_0_all"  />
<polygon points="72,40 101,40 106,35 101,30 72,30 72,40 " style="fill:white; stroke-width:1; stroke:black; " description="&lt;b&gt;ctg53_5&lt;/b&gt;&lt;br&gt;ctg53 5&lt;br&gt;Location: 4762 - 5848" locus_tag="ctg53_5" class="clusterblast-orf" id="knownclusterblast-1_q3_0_all"  />
<polygon points="110,35 115,30 149,30 149,40 115,40 110,35 " style="fill:white; stroke-width:1; stroke:black; " description="&lt;b&gt;ctg53_6&lt;/b&gt;&lt;br&gt;ctg53 6&lt;br&gt;Location: 5971 - 7177" locus_tag="ctg53_6" class="clusterblast-orf" id="knownclusterblast-1_q4_0_all"  />
<polygon points="149,35 154,30 181,30 181,40 154,40 149,35 " style="fill:white; stroke-width:1; stroke:black; " description="&lt;b&gt;ctg53_7&lt;/b&gt;&lt;br&gt;ctg53 7&lt;br&gt;Location: 7176 - 8202" locus_tag="ctg53_7" class="clusterblast-orf" id="knownclusterblast-1_q5_0_all"  />
<polygon points="182,40 185,40 190,35 185,30 182,30 182,40 " style="fill:white; stroke-width:1; stroke:black; " description="&lt;b&gt;ctg53_8&lt;/b&gt;&lt;br&gt;ctg53 8&lt;br&gt;Location: 8238 - 8487" locus_tag="ctg53_8" class="clusterblast-orf" id="knownclusterblast-1_q6_0_all"  />
<polygon points="191,40 195,35 191,30 191,40 " style="fill:white; stroke-width:1; stroke:black; " description="&lt;b&gt;ctg53_9&lt;/b&gt;&lt;br&gt;ctg53 9&lt;br&gt;Location: 8526 - 8649" locus_tag="ctg53_9" class="clusterblast-orf" id="knownclusterblast-1_q7_0_all"  />
<polygon points="195,35 200,30 212,30 212,40 200,40 195,35 " style="fill:white; stroke-width:1; stroke:black; " description="&lt;b&gt;ctg53_10&lt;/b&gt;&lt;br&gt;ctg53 10&lt;br&gt;Location: 8652 - 9162" locus_tag="ctg53_10" class="clusterblast-orf" id="knownclusterblast-1_q8_0_all"  />
<polygon points="214,35 219,30 251,30 251,40 219,40 214,35 " style="fill:white; stroke-width:1; stroke:black; " description="&lt;b&gt;ctg53_11&lt;/b&gt;&lt;br&gt;ctg53 11&lt;br&gt;Location: 9233 - 10403" locus_tag="ctg53_11" class="clusterblast-orf" id="knownclusterblast-1_q9_0_all"  />
<polygon points="253,40 260,40 265,35 260,30 253,30 253,40 " style="fill:white; stroke-width:1; stroke:black; " description="&lt;b&gt;ctg53_12&lt;/b&gt;&lt;br&gt;ctg53 12&lt;br&gt;Location: 10472 - 10850" locus_tag="ctg53_12" class="clusterblast-orf" id="knownclusterblast-1_q10_0_all"  />
<polygon points="278,35 283,30 343,30 343,40 283,40 278,35 " style="fill:white; stroke-width:1; stroke:black; " description="&lt;b&gt;ctg53_13&lt;/b&gt;&lt;br&gt;ctg53 13&lt;br&gt;Location: 11262 - 13308" locus_tag="ctg53_13" class="clusterblast-orf" id="knownclusterblast-1_q11_0_all"  />
<polygon points="344,35 349,30 354,30 354,40 349,40 344,35 " style="fill:white; stroke-width:1; stroke:black; " description="&lt;b&gt;ctg53_14&lt;/b&gt;&lt;br&gt;ctg53 14&lt;br&gt;Location: 13336 - 13630" locus_tag="ctg53_14" class="clusterblast-orf" id="knownclusterblast-1_q12_0_all"  />
<polygon points="352,35 357,30 381,30 381,40 357,40 352,35 " style="fill:white; stroke-width:1; stroke:black; " description="&lt;b&gt;ctg53_15&lt;/b&gt;&lt;br&gt;ctg53 15&lt;br&gt;Location: 13586 - 14495" locus_tag="ctg53_15" class="clusterblast-orf" id="knownclusterblast-1_q13_0_all"  />
<polygon points="381,35 386,30 410,30 410,40 386,40 381,35 " style="fill:white; stroke-width:1; stroke:black; " description="&lt;b&gt;ctg53_16&lt;/b&gt;&lt;br&gt;ctg53 16&lt;br&gt;Location: 14491 - 15406" locus_tag="ctg53_16" class="clusterblast-orf" id="knownclusterblast-1_q14_0_all"  />
<polygon points="413,40 448,40 453,35 448,30 413,30 413,40 " style="fill:white; stroke-width:1; stroke:black; " description="&lt;b&gt;ctg53_17&lt;/b&gt;&lt;br&gt;ctg53 17&lt;br&gt;Location: 15494 - 16751" locus_tag="ctg53_17" class="clusterblast-orf" id="knownclusterblast-1_q15_0_all"  />
<polygon points="455,40 466,40 471,35 466,30 455,30 455,40 " style="fill:white; stroke-width:1; stroke:black; " description="&lt;b&gt;ctg53_18&lt;/b&gt;&lt;br&gt;ctg53 18&lt;br&gt;Location: 16822 - 17320" locus_tag="ctg53_18" class="clusterblast-orf" id="knownclusterblast-1_q16_0_all"  />
<polygon points="473,40 477,35 473,30 473,40 " style="fill:white; stroke-width:1; stroke:black; " description="&lt;b&gt;ctg53_19&lt;/b&gt;&lt;br&gt;ctg53 19&lt;br&gt;Location: 17404 - 17506" locus_tag="ctg53_19" class="clusterblast-orf" id="knownclusterblast-1_q17_0_all"  />
<polygon points="482,35 487,30 504,30 504,40 487,40 482,35 " style="fill:white; stroke-width:1; stroke:black; " description="&lt;b&gt;ctg53_20&lt;/b&gt;&lt;br&gt;ctg53 20&lt;br&gt;Location: 17663 - 18350" locus_tag="ctg53_20" class="clusterblast-orf" id="knownclusterblast-1_q18_0_all"  />
<polygon points="503,35 508,30 534,30 534,40 508,40 503,35 " style="fill:white; stroke-width:1; stroke:black; " description="&lt;b&gt;ctg53_21&lt;/b&gt;&lt;br&gt;ctg53 21&lt;br&gt;Location: 18346 - 19306" locus_tag="ctg53_21" class="clusterblast-orf" id="knownclusterblast-1_q19_0_all"  />
<polygon points="540,40 566,40 571,35 566,30 540,30 540,40 " style="fill:white; stroke-width:1; stroke:black; " description="&lt;b&gt;ctg53_22&lt;/b&gt;&lt;br&gt;ctg53 22&lt;br&gt;Location: 19492 - 20476" locus_tag="ctg53_22" class="clusterblast-orf" id="knownclusterblast-1_q20_0_all"  />
<polygon points="571,40 623,40 628,35 623,30 571,30 571,40 " style="fill:white; stroke-width:1; stroke:black; " description="&lt;b&gt;ctg53_23&lt;/b&gt;&lt;br&gt;ctg53 23&lt;br&gt;Location: 20488 - 22267" locus_tag="ctg53_23" class="clusterblast-orf" id="knownclusterblast-1_q21_0_all"  />
<polygon points="629,35 634,30 638,30 638,40 634,40 629,35 " style="fill:white; stroke-width:1; stroke:black; " description="&lt;b&gt;ctg53_24&lt;/b&gt;&lt;br&gt;ctg53 24&lt;br&gt;Location: 22295 - 22598" locus_tag="ctg53_24" class="clusterblast-orf" id="knownclusterblast-1_q22_0_all"  />
<polygon points="638,35 643,30 655,30 655,40 643,40 638,35 " style="fill:white; stroke-width:1; stroke:black; " description="&lt;b&gt;ctg53_25&lt;/b&gt;&lt;br&gt;ctg53 25&lt;br&gt;Location: 22594 - 23128" locus_tag="ctg53_25" class="clusterblast-orf" id="knownclusterblast-1_q23_0_all"  />
<polygon points="655,35 660,30 695,30 695,40 660,40 655,35 " style="fill:white; stroke-width:1; stroke:black; " description="&lt;b&gt;ctg53_26&lt;/b&gt;&lt;br&gt;ctg53 26&lt;br&gt;Location: 23124 - 24369" locus_tag="ctg53_26" class="clusterblast-orf" id="knownclusterblast-1_q24_0_all"  />
<polygon points="708,40 713,40 718,35 713,30 708,30 708,40 " style="fill:white; stroke-width:1; stroke:black; " description="&lt;b&gt;ctg53_27&lt;/b&gt;&lt;br&gt;ctg53 27&lt;br&gt;Location: 24792 - 25095" locus_tag="ctg53_27" class="clusterblast-orf" id="knownclusterblast-1_q25_0_all"  />
<polygon points="728,40 728,40 733,35 728,30 728,30 728,40 " style="fill:white; stroke-width:1; stroke:black; " description="&lt;b&gt;ctg53_28&lt;/b&gt;&lt;br&gt;ctg53 28&lt;br&gt;Location: 25407 - 25581" locus_tag="ctg53_28" class="clusterblast-orf" id="knownclusterblast-1_q26_0_all"  />
<polygon points="732,35 737,30 747,30 747,40 737,40 732,35 " style="fill:white; stroke-width:1; stroke:black; " description="&lt;b&gt;ctg53_29&lt;/b&gt;&lt;br&gt;ctg53 29&lt;br&gt;Location: 25548 - 26019" locus_tag="ctg53_29" class="clusterblast-orf" id="knownclusterblast-1_q27_0_all"  />
<polygon points="747,35 752,30 768,30 768,40 752,40 747,35 " style="fill:white; stroke-width:1; stroke:black; " description="&lt;b&gt;ctg53_30&lt;/b&gt;&lt;br&gt;ctg53 30&lt;br&gt;Location: 26025 - 26679" locus_tag="ctg53_30" class="clusterblast-orf" id="knownclusterblast-1_q28_0_all"  />
<polygon points="768,35 773,30 780,30 780,40 773,40 768,35 " style="fill:white; stroke-width:1; stroke:black; " description="&lt;b&gt;ctg53_31&lt;/b&gt;&lt;br&gt;ctg53 31&lt;br&gt;Location: 26669 - 27047" locus_tag="ctg53_31" class="clusterblast-orf" id="knownclusterblast-1_q29_0_all"  />
</g>
</svg>
