<svg xmlns="http://www.w3.org/2000/svg" xmlns:xlink="http://www.w3.org/1999/xlink" version="1.1" x="0" y="0" height="50" width="800" viewBox="0 0 800 50" preserveAspectRatio="none"  >
<g label="Query sequence" class="clusterblast-cluster"  >
<text x="5" y="20" class="clusterblast-acc"  >
Query sequence</text>
<line x1="10" y1="35" x2="778.0" y2="35" style="stroke-width:1; stroke:grey; "  />
<polygon points="0,35 5,30 8,30 8,40 5,40 0,35 " style="fill:white; stroke-width:1; stroke:black; " description="&lt;b&gt;ctg29_1&lt;/b&gt;&lt;br&gt;ctg29 1&lt;br&gt;Location: 77 - 182" locus_tag="ctg29_1" class="clusterblast-orf" id="knownclusterblast-1_q0_0_all"  />
<polygon points="10,35 15,30 150,30 150,40 15,40 10,35 " style="fill:white; stroke-width:1; stroke:black; " description="&lt;b&gt;ctg29_2&lt;/b&gt;&lt;br&gt;ctg29 2&lt;br&gt;Location: 216 - 2205" locus_tag="ctg29_2" class="clusterblast-orf" id="knownclusterblast-1_q1_0_all"  />
<polygon points="156,35 161,30 163,30 163,40 161,40 156,35 " style="fill:white; stroke-width:1; stroke:black; " description="&lt;b&gt;ctg29_3&lt;/b&gt;&lt;br&gt;ctg29 3&lt;br&gt;Location: 2284 - 2389" locus_tag="ctg29_3" class="clusterblast-orf" id="knownclusterblast-1_q2_0_all"  />
<polygon points="165,35 170,30 228,30 228,40 170,40 165,35 " style="fill:white; stroke-width:1; stroke:black; " description="&lt;b&gt;ctg29_4&lt;/b&gt;&lt;br&gt;ctg29 4&lt;br&gt;Location: 2415 - 3303" locus_tag="ctg29_4" class="clusterblast-orf" id="knownclusterblast-1_q3_0_all"  />
<polygon points="227,35 232,30 246,30 246,40 232,40 227,35 " style="fill:white; stroke-width:1; stroke:black; " description="&lt;b&gt;ctg29_5&lt;/b&gt;&lt;br&gt;ctg29 5&lt;br&gt;Location: 3289 - 3565" locus_tag="ctg29_5" class="clusterblast-orf" id="knownclusterblast-1_q4_0_all"  />
<polygon points="247,35 252,30 326,30 326,40 252,40 247,35 " style="fill:white; stroke-width:1; stroke:black; " description="&lt;b&gt;ctg29_6&lt;/b&gt;&lt;br&gt;ctg29 6&lt;br&gt;Location: 3581 - 4691" locus_tag="ctg29_6" class="clusterblast-orf" id="knownclusterblast-1_q5_0_all"  />
<polygon points="337,35 342,30 367,30 367,40 342,40 337,35 " style="fill:white; stroke-width:1; stroke:black; " description="&lt;b&gt;ctg29_7&lt;/b&gt;&lt;br&gt;ctg29 7&lt;br&gt;Location: 4848 - 5277" locus_tag="ctg29_7" class="clusterblast-orf" id="knownclusterblast-1_q6_0_all"  />
<polygon points="372,40 380,40 385,35 380,30 372,30 372,40 " style="fill:white; stroke-width:1; stroke:black; " description="&lt;b&gt;ctg29_8&lt;/b&gt;&lt;br&gt;ctg29 8&lt;br&gt;Location: 5345 - 5528" locus_tag="ctg29_8" class="clusterblast-orf" id="knownclusterblast-1_q7_0_all"  />
<polygon points="391,40 397,40 402,35 397,30 391,30 391,40 " style="fill:white; stroke-width:1; stroke:black; " description="&lt;b&gt;ctg29_9&lt;/b&gt;&lt;br&gt;ctg29 9&lt;br&gt;Location: 5621 - 5774" locus_tag="ctg29_9" class="clusterblast-orf" id="knownclusterblast-1_q8_0_all"  />
<polygon points="402,40 412,40 417,35 412,30 402,30 402,40 " style="fill:white; stroke-width:1; stroke:black; " description="&lt;b&gt;ctg29_10&lt;/b&gt;&lt;br&gt;ctg29 10&lt;br&gt;Location: 5774 - 5987" locus_tag="ctg29_10" class="clusterblast-orf" id="knownclusterblast-1_q9_0_all"  />
<polygon points="424,40 444,40 449,35 444,30 424,30 424,40 " style="fill:white; stroke-width:1; stroke:black; " description="&lt;b&gt;ctg29_11&lt;/b&gt;&lt;br&gt;ctg29 11&lt;br&gt;Location: 6089 - 6434" locus_tag="ctg29_11" class="clusterblast-orf" id="knownclusterblast-1_q10_0_all"  />
<polygon points="451,40 456,40 461,35 456,30 451,30 451,40 " style="fill:white; stroke-width:1; stroke:black; " description="&lt;b&gt;ctg29_12&lt;/b&gt;&lt;br&gt;ctg29 12&lt;br&gt;Location: 6467 - 6602" locus_tag="ctg29_12" class="clusterblast-orf" id="knownclusterblast-1_q11_0_all"  />
<polygon points="462,40 467,40 472,35 467,30 462,30 462,40 " style="fill:white; stroke-width:1; stroke:black; " description="&lt;b&gt;ctg29_13&lt;/b&gt;&lt;br&gt;ctg29 13&lt;br&gt;Location: 6623 - 6764" locus_tag="ctg29_13" class="clusterblast-orf" id="knownclusterblast-1_q12_0_all"  />
<polygon points="492,40 522,40 527,35 522,30 492,30 492,40 " style="fill:white; stroke-width:1; stroke:black; " description="&lt;b&gt;ctg29_14&lt;/b&gt;&lt;br&gt;ctg29 14&lt;br&gt;Location: 7043 - 7550" locus_tag="ctg29_14" class="clusterblast-orf" id="knownclusterblast-1_q13_0_all"  />
<polygon points="532,40 555,40 560,35 555,30 532,30 532,40 " style="fill:white; stroke-width:1; stroke:black; " description="&lt;b&gt;ctg29_15&lt;/b&gt;&lt;br&gt;ctg29 15&lt;br&gt;Location: 7613 - 8018" locus_tag="ctg29_15" class="clusterblast-orf" id="knownclusterblast-1_q14_0_all"  />
<polygon points="561,40 577,40 582,35 577,30 561,30 561,40 " style="fill:white; stroke-width:1; stroke:black; " description="&lt;b&gt;ctg29_16&lt;/b&gt;&lt;br&gt;ctg29 16&lt;br&gt;Location: 8027 - 8324" locus_tag="ctg29_16" class="clusterblast-orf" id="knownclusterblast-1_q15_0_all"  />
<polygon points="587,40 594,40 599,35 594,30 587,30 587,40 " style="fill:white; stroke-width:1; stroke:black; " description="&lt;b&gt;ctg29_17&lt;/b&gt;&lt;br&gt;ctg29 17&lt;br&gt;Location: 8387 - 8570" locus_tag="ctg29_17" class="clusterblast-orf" id="knownclusterblast-1_q16_0_all"  />
<polygon points="659,35 664,30 780,30 780,40 664,40 659,35 " style="fill:white; stroke-width:1; stroke:black; " description="&lt;b&gt;ctg29_18&lt;/b&gt;&lt;br&gt;ctg29 18&lt;br&gt;Location: 9410 - 11132" locus_tag="ctg29_18" class="clusterblast-orf" id="knownclusterblast-1_q17_0_all"  />
</g>
</svg>
