<svg xmlns="http://www.w3.org/2000/svg" xmlns:xlink="http://www.w3.org/1999/xlink" version="1.1" x="0" y="0" height="150" width="800" viewBox="0 0 800 150" preserveAspectRatio="none"  >
<g label="Query sequence" class="clusterblast-cluster"  >
<text x="5" y="20" class="clusterblast-acc"  >
Query sequence</text>
<line x1="10" y1="35" x2="778.0" y2="35" style="stroke-width:1; stroke:grey; "  />
<polygon points="28,40 48,40 53,35 48,30 28,30 28,40 " style="fill:white; stroke-width:1; stroke:black; " description="&lt;b&gt;ctg41_9&lt;/b&gt;&lt;br&gt;ctg41 9&lt;br&gt;Location: 11395 - 12685" locus_tag="ctg41_9" class="clusterblast-orf" id="knownclusterblast-1_q0_0_all"  />
<polygon points="53,35 58,30 67,30 67,40 58,40 53,35 " style="fill:white; stroke-width:1; stroke:black; " description="&lt;b&gt;ctg41_10&lt;/b&gt;&lt;br&gt;ctg41 10&lt;br&gt;Location: 12689 - 13454" locus_tag="ctg41_10" class="clusterblast-orf" id="knownclusterblast-1_q1_0_all"  />
<polygon points="67,35 72,30 97,30 97,40 72,40 67,35 " style="fill:white; stroke-width:1; stroke:black; " description="&lt;b&gt;ctg41_11&lt;/b&gt;&lt;br&gt;ctg41 11&lt;br&gt;Location: 13443 - 15042" locus_tag="ctg41_11" class="clusterblast-orf" id="knownclusterblast-1_q2_0_all"  />
<polygon points="97,35 102,30 114,30 114,40 102,40 97,35 " style="fill:white; stroke-width:1; stroke:black; " description="&lt;b&gt;ctg41_12&lt;/b&gt;&lt;br&gt;ctg41 12&lt;br&gt;Location: 15041 - 15917" locus_tag="ctg41_12" class="clusterblast-orf" id="knownclusterblast-1_q3_0_all"  />
<polygon points="114,35 119,30 123,30 123,40 119,40 114,35 " style="fill:white; stroke-width:1; stroke:black; " description="&lt;b&gt;ctg41_13&lt;/b&gt;&lt;br&gt;ctg41 13&lt;br&gt;Location: 15913 - 16366" locus_tag="ctg41_13" class="clusterblast-orf" id="knownclusterblast-1_q4_0_all"  />
<polygon points="122,35 127,30 143,30 143,40 127,40 122,35 " style="fill:white; stroke-width:1; stroke:black; " description="&lt;b&gt;ctg41_14&lt;/b&gt;&lt;br&gt;ctg41 14&lt;br&gt;Location: 16362 - 17445" locus_tag="ctg41_14" class="clusterblast-orf" id="knownclusterblast-1_q5_0_all"  />
<polygon points="144,35 149,30 161,30 161,40 149,40 144,35 " style="fill:white; stroke-width:1; stroke:black; " description="&lt;b&gt;ctg41_15&lt;/b&gt;&lt;br&gt;ctg41 15&lt;br&gt;Location: 17506 - 18397" locus_tag="ctg41_15" class="clusterblast-orf" id="knownclusterblast-1_q6_0_all"  />
<polygon points="163,40 170,40 175,35 170,30 163,30 163,40 " style="fill:white; stroke-width:1; stroke:black; " description="&lt;b&gt;ctg41_16&lt;/b&gt;&lt;br&gt;ctg41 16&lt;br&gt;Location: 18489 - 19113" locus_tag="ctg41_16" class="clusterblast-orf" id="knownclusterblast-1_q7_0_all"  />
<polygon points="175,40 192,40 197,35 192,30 175,30 175,40 " style="fill:white; stroke-width:1; stroke:black; " description="&lt;b&gt;ctg41_17&lt;/b&gt;&lt;br&gt;ctg41 17&lt;br&gt;Location: 19103 - 20282" locus_tag="ctg41_17" class="clusterblast-orf" id="knownclusterblast-1_q8_0_all"  />
<polygon points="197,40 214,40 219,35 214,30 197,30 197,40 " style="fill:white; stroke-width:1; stroke:black; " description="&lt;b&gt;ctg41_18&lt;/b&gt;&lt;br&gt;ctg41 18&lt;br&gt;Location: 20306 - 21458" locus_tag="ctg41_18" class="clusterblast-orf" id="knownclusterblast-1_q9_0_all"  />
<polygon points="220,40 251,40 256,35 251,30 220,30 220,40 " style="fill:white; stroke-width:1; stroke:black; " description="&lt;b&gt;ctg41_19&lt;/b&gt;&lt;br&gt;ctg41 19&lt;br&gt;Location: 21514 - 23371" locus_tag="ctg41_19" class="clusterblast-orf" id="knownclusterblast-1_q10_0_all"  />
<polygon points="256,35 261,30 269,30 269,40 261,40 256,35 " style="fill:white; stroke-width:1; stroke:black; " description="&lt;b&gt;ctg41_20&lt;/b&gt;&lt;br&gt;ctg41 20&lt;br&gt;Location: 23377 - 24094" locus_tag="ctg41_20" class="clusterblast-orf" id="knownclusterblast-1_q11_0_all"  />
<polygon points="271,35 276,30 288,30 288,40 276,40 271,35 " style="fill:white; stroke-width:1; stroke:black; " description="&lt;b&gt;ctg41_21&lt;/b&gt;&lt;br&gt;ctg41 21&lt;br&gt;Location: 24183 - 25098" locus_tag="ctg41_21" class="clusterblast-orf" id="knownclusterblast-1_q12_0_all"  />
<polygon points="289,35 294,30 307,30 307,40 294,40 289,35 " style="fill:white; stroke-width:1; stroke:black; " description="&lt;b&gt;ctg41_22&lt;/b&gt;&lt;br&gt;ctg41 22&lt;br&gt;Location: 25141 - 26077" locus_tag="ctg41_22" class="clusterblast-orf" id="knownclusterblast-1_q13_0_all"  />
<polygon points="312,35 317,30 343,30 343,40 317,40 312,35 " style="fill:white; stroke-width:1; stroke:black; " description="&lt;b&gt;ctg41_23&lt;/b&gt;&lt;br&gt;ctg41 23&lt;br&gt;Location: 26334 - 27978" locus_tag="ctg41_23" class="clusterblast-orf" id="knownclusterblast-1_q14_0_all"  />
<polygon points="343,35 348,30 348,30 348,40 348,40 343,35 " style="fill:#d81515; stroke-width:1; stroke:black; " description="&lt;b&gt;ctg41_24&lt;/b&gt;&lt;br&gt;ctg41 24&lt;br&gt;Location: 27974 - 28238" locus_tag="ctg41_24" class="clusterblast-orf" id="knownclusterblast-1_q15_0_all"  />
<polygon points="347,35 352,30 358,30 358,40 352,40 347,35 " style="fill:white; stroke-width:1; stroke:black; " description="&lt;b&gt;ctg41_25&lt;/b&gt;&lt;br&gt;ctg41 25&lt;br&gt;Location: 28212 - 28746" locus_tag="ctg41_25" class="clusterblast-orf" id="knownclusterblast-1_q16_0_all"  />
<polygon points="358,35 363,30 378,30 378,40 363,40 358,35 " style="fill:#15d8d8; stroke-width:1; stroke:black; " description="&lt;b&gt;ctg41_26&lt;/b&gt;&lt;br&gt;ctg41 26&lt;br&gt;Location: 28752 - 29829" locus_tag="ctg41_26" class="clusterblast-orf" id="knownclusterblast-1_q17_0_all"  />
<polygon points="378,35 383,30 394,30 394,40 383,40 378,35 " style="fill:white; stroke-width:1; stroke:black; " description="&lt;b&gt;ctg41_27&lt;/b&gt;&lt;br&gt;ctg41 27&lt;br&gt;Location: 29829 - 30672" locus_tag="ctg41_27" class="clusterblast-orf" id="knownclusterblast-1_q18_0_all"  />
<polygon points="395,35 400,30 411,30 411,40 400,40 395,35 " style="fill:white; stroke-width:1; stroke:black; " description="&lt;b&gt;ctg41_28&lt;/b&gt;&lt;br&gt;ctg41 28&lt;br&gt;Location: 30739 - 31561" locus_tag="ctg41_28" class="clusterblast-orf" id="knownclusterblast-1_q19_0_all"  />
<polygon points="411,35 416,30 431,30 431,40 416,40 411,35 " style="fill:white; stroke-width:1; stroke:black; " description="&lt;b&gt;ctg41_29&lt;/b&gt;&lt;br&gt;ctg41 29&lt;br&gt;Location: 31572 - 32595" locus_tag="ctg41_29" class="clusterblast-orf" id="knownclusterblast-1_q20_0_all"  />
<polygon points="431,35 436,30 461,30 461,40 436,40 431,35 " style="fill:white; stroke-width:1; stroke:black; " description="&lt;b&gt;ctg41_30&lt;/b&gt;&lt;br&gt;ctg41 30&lt;br&gt;Location: 32591 - 34181" locus_tag="ctg41_30" class="clusterblast-orf" id="knownclusterblast-1_q21_0_all"  />
<polygon points="461,35 466,30 482,30 482,40 466,40 461,35 " style="fill:white; stroke-width:1; stroke:black; " description="&lt;b&gt;ctg41_31&lt;/b&gt;&lt;br&gt;ctg41 31&lt;br&gt;Location: 34195 - 35317" locus_tag="ctg41_31" class="clusterblast-orf" id="knownclusterblast-1_q22_0_all"  />
<polygon points="482,35 487,30 494,30 494,40 487,40 482,35 " style="fill:white; stroke-width:1; stroke:black; " description="&lt;b&gt;ctg41_32&lt;/b&gt;&lt;br&gt;ctg41 32&lt;br&gt;Location: 35326 - 35920" locus_tag="ctg41_32" class="clusterblast-orf" id="knownclusterblast-1_q23_0_all"  />
<polygon points="495,40 522,40 527,35 522,30 495,30 495,40 " style="fill:white; stroke-width:1; stroke:black; " description="&lt;b&gt;ctg41_33&lt;/b&gt;&lt;br&gt;ctg41 33&lt;br&gt;Location: 36009 - 37680" locus_tag="ctg41_33" class="clusterblast-orf" id="knownclusterblast-1_q24_0_all"  />
<polygon points="527,40 533,40 538,35 533,30 527,30 527,40 " style="fill:white; stroke-width:1; stroke:black; " description="&lt;b&gt;ctg41_34&lt;/b&gt;&lt;br&gt;ctg41 34&lt;br&gt;Location: 37676 - 38267" locus_tag="ctg41_34" class="clusterblast-orf" id="knownclusterblast-1_q25_0_all"  />
<polygon points="539,40 554,40 559,35 554,30 539,30 539,40 " style="fill:white; stroke-width:1; stroke:black; " description="&lt;b&gt;ctg41_35&lt;/b&gt;&lt;br&gt;ctg41 35&lt;br&gt;Location: 38307 - 39339" locus_tag="ctg41_35" class="clusterblast-orf" id="knownclusterblast-1_q26_0_all"  />
<polygon points="559,35 561,30 561,40 559,35 " style="fill:white; stroke-width:1; stroke:black; " description="&lt;b&gt;ctg41_36&lt;/b&gt;&lt;br&gt;ctg41 36&lt;br&gt;Location: 39343 - 39481" locus_tag="ctg41_36" class="clusterblast-orf" id="knownclusterblast-1_q27_0_all"  />
<polygon points="563,35 568,30 571,30 571,40 568,40 563,35 " style="fill:white; stroke-width:1; stroke:black; " description="&lt;b&gt;ctg41_37&lt;/b&gt;&lt;br&gt;ctg41 37&lt;br&gt;Location: 39581 - 39974" locus_tag="ctg41_37" class="clusterblast-orf" id="knownclusterblast-1_q28_0_all"  />
<polygon points="573,40 575,40 580,35 575,30 573,30 573,40 " style="fill:white; stroke-width:1; stroke:black; " description="&lt;b&gt;ctg41_38&lt;/b&gt;&lt;br&gt;ctg41 38&lt;br&gt;Location: 40101 - 40473" locus_tag="ctg41_38" class="clusterblast-orf" id="knownclusterblast-1_q29_0_all"  />
<polygon points="580,40 588,40 593,35 588,30 580,30 580,40 " style="fill:white; stroke-width:1; stroke:black; " description="&lt;b&gt;ctg41_39&lt;/b&gt;&lt;br&gt;ctg41 39&lt;br&gt;Location: 40466 - 41132" locus_tag="ctg41_39" class="clusterblast-orf" id="knownclusterblast-1_q30_0_all"  />
<polygon points="593,40 631,40 636,35 631,30 593,30 593,40 " style="fill:white; stroke-width:1; stroke:black; " description="&lt;b&gt;ctg41_40&lt;/b&gt;&lt;br&gt;ctg41 40&lt;br&gt;Location: 41128 - 43411" locus_tag="ctg41_40" class="clusterblast-orf" id="knownclusterblast-1_q31_0_all"  />
<polygon points="636,35 641,30 648,30 648,40 641,40 636,35 " style="fill:white; stroke-width:1; stroke:black; " description="&lt;b&gt;ctg41_41&lt;/b&gt;&lt;br&gt;ctg41 41&lt;br&gt;Location: 43403 - 44027" locus_tag="ctg41_41" class="clusterblast-orf" id="knownclusterblast-1_q32_0_all"  />
<polygon points="649,35 654,30 662,30 662,40 654,40 649,35 " style="fill:white; stroke-width:1; stroke:black; " description="&lt;b&gt;ctg41_42&lt;/b&gt;&lt;br&gt;ctg41 42&lt;br&gt;Location: 44083 - 44767" locus_tag="ctg41_42" class="clusterblast-orf" id="knownclusterblast-1_q33_0_all"  />
<polygon points="662,35 667,30 699,30 699,40 667,40 662,35 " style="fill:white; stroke-width:1; stroke:black; " description="&lt;b&gt;ctg41_43&lt;/b&gt;&lt;br&gt;ctg41 43&lt;br&gt;Location: 44763 - 46752" locus_tag="ctg41_43" class="clusterblast-orf" id="knownclusterblast-1_q34_0_all"  />
<polygon points="702,40 711,40 716,35 711,30 702,30 702,40 " style="fill:white; stroke-width:1; stroke:black; " description="&lt;b&gt;ctg41_44&lt;/b&gt;&lt;br&gt;ctg41 44&lt;br&gt;Location: 46871 - 47606" locus_tag="ctg41_44" class="clusterblast-orf" id="knownclusterblast-1_q35_0_all"  />
<polygon points="717,40 746,40 751,35 746,30 717,30 717,40 " style="fill:white; stroke-width:1; stroke:black; " description="&lt;b&gt;ctg41_45&lt;/b&gt;&lt;br&gt;ctg41 45&lt;br&gt;Location: 47656 - 49480" locus_tag="ctg41_45" class="clusterblast-orf" id="knownclusterblast-1_q36_0_all"  />
</g>
<g label="BGC0001831" description="BGC0001831_c1: alkylpyrone-407/alkylpyrone-393 (33% of genes show similarity), Polyketide" class="clusterblast-cluster"  >
<text x="5" y="70" class="clusterblast-acc"  >
<a xlink:href="https://mibig.secondarymetabolites.org/go/BGC0001831/1" target="_blank">BGC0001831</a>: alkylpyrone-407/alkylpyrone-393                                                  (33% of genes show similarity), Polyketide</text>
<line x1="10" y1="85" x2="778.0" y2="85" style="stroke-width:1; stroke:grey; "  />
</g>
<g id="a1_000"  >
<polygon points="331,85 336,80 355,80 355,90 336,90 331,85 " style="fill:white; stroke-width:1; stroke:black; " description="&lt;b&gt;MXAN_6634&lt;/b&gt;&lt;br&gt;conserved hypothetical protein&lt;br&gt;Location: 2 - 1276" locus_tag="MXAN_6634" class="clusterblast-orf" id="knownclusterblast-1_all_1_1_0"  />
</g>
<g id="a1_001"  >
<polygon points="355,85 360,80 376,80 376,90 360,90 355,85 " style="fill:white; stroke-width:1; stroke:black; " description="&lt;b&gt;MXAN_6635&lt;/b&gt;&lt;br&gt;monooxygenase, FAD-binding&lt;br&gt;Location: 1273 - 2370" locus_tag="MXAN_6635" class="clusterblast-orf" id="knownclusterblast-1_all_1_1_1"  />
</g>
<g id="a1_002"  >
<polygon points="378,85 383,80 411,80 411,90 383,90 378,85 " style="fill:white; stroke-width:1; stroke:black; " description="&lt;b&gt;MXAN_6636&lt;/b&gt;&lt;br&gt;AMP-binding protein&lt;br&gt;Location: 2452 - 4230" locus_tag="MXAN_6636" class="clusterblast-orf" id="knownclusterblast-1_all_1_1_2"  />
</g>
<g id="a1_003"  >
<polygon points="411,85 416,80 416,80 416,90 416,90 411,85 " style="fill:#d81515; stroke-width:1; stroke:black; " description="&lt;b&gt;MXAN_6637&lt;/b&gt;&lt;br&gt;acyl carrier protein&lt;br&gt;Location: 4227 - 4484&lt;br&gt;&lt;br&gt;&lt;b&gt;BlastP hit with ctg41_24&lt;/b&gt;&lt;br&gt;Percentage identity: 51&lt;br&gt;Percentage coverage: 56&lt;br&gt;BLAST bit score: 51&lt;br&gt;E-value: 1.06e-09" locus_tag="MXAN_6637" class="clusterblast-orf" id="knownclusterblast-1_all_1_1_3"  />
</g>
<g id="a1_004"  >
<polygon points="417,85 422,80 429,80 429,90 422,90 417,85 " style="fill:white; stroke-width:1; stroke:black; " description="&lt;b&gt;MXAN_6638&lt;/b&gt;&lt;br&gt;conserved hypothetical protein&lt;br&gt;Location: 4501 - 5133" locus_tag="MXAN_6638" class="clusterblast-orf" id="knownclusterblast-1_all_1_1_4"  />
</g>
<g id="a1_005"  >
<polygon points="427,85 432,80 448,80 448,90 432,90 427,85 " style="fill:#15d8d8; stroke-width:1; stroke:black; " description="&lt;b&gt;MXAN_6639&lt;/b&gt;&lt;br&gt;chalcone/stilbene synthase family protein&lt;br&gt;Location: 5070 - 6152&lt;br&gt;&lt;br&gt;&lt;b&gt;BlastP hit with ctg41_26&lt;/b&gt;&lt;br&gt;Percentage identity: 47&lt;br&gt;Percentage coverage: 97&lt;br&gt;BLAST bit score: 307&lt;br&gt;E-value: 8.91e-103" locus_tag="MXAN_6639" class="clusterblast-orf" id="knownclusterblast-1_all_1_1_5"  />
</g>
<g label="BGC0001964" description="BGC0001964_c1: alkylpyrone-407/alkylpyrone-393 (4% of genes show similarity), Polyketide" class="clusterblast-cluster"  >
<text x="5" y="120" class="clusterblast-acc"  >
<a xlink:href="https://mibig.secondarymetabolites.org/go/BGC0001964/1" target="_blank">BGC0001964</a>: alkylpyrone-407/alkylpyrone-393                                                  (4% of genes show similarity), Polyketide</text>
<line x1="10" y1="135" x2="778.0" y2="135" style="stroke-width:1; stroke:grey; "  />
</g>
<g id="a1_000"  >
<polygon points="0,135 4,130 4,140 0,135 " style="fill:white; stroke-width:1; stroke:black; " description="&lt;b&gt;AYM52881.1&lt;/b&gt;&lt;br&gt;hypothetical protein&lt;br&gt;Location: 41089 - 40849" locus_tag="AYM52881.1" class="clusterblast-orf" id="knownclusterblast-1_all_1_2_0"  />
</g>
<g id="a1_001"  >
<polygon points="7,135 12,130 16,130 16,140 12,140 7,135 " style="fill:white; stroke-width:1; stroke:black; " description="&lt;b&gt;AYM52880.1&lt;/b&gt;&lt;br&gt;lipoprotein&lt;br&gt;Location: 40713 - 40198" locus_tag="AYM52880.1" class="clusterblast-orf" id="knownclusterblast-1_all_1_2_1"  />
</g>
<g id="a1_002"  >
<polygon points="21,135 26,130 33,130 33,140 26,140 21,135 " style="fill:white; stroke-width:1; stroke:black; " description="&lt;b&gt;AYM52879.1&lt;/b&gt;&lt;br&gt;ahpC/TSA family protein&lt;br&gt;Location: 39949 - 39344" locus_tag="AYM52879.1" class="clusterblast-orf" id="knownclusterblast-1_all_1_2_2"  />
</g>
<g id="a1_003"  >
<polygon points="34,135 39,130 43,130 43,140 39,140 34,135 " style="fill:white; stroke-width:1; stroke:black; " description="&lt;b&gt;AYM52878.1&lt;/b&gt;&lt;br&gt;hypothetical protein&lt;br&gt;Location: 39289 - 38807" locus_tag="AYM52878.1" class="clusterblast-orf" id="knownclusterblast-1_all_1_2_3"  />
</g>
<g id="a1_004"  >
<polygon points="44,140 51,140 56,135 51,130 44,130 44,140 " style="fill:white; stroke-width:1; stroke:black; " description="&lt;b&gt;AYM52877.1&lt;/b&gt;&lt;br&gt;hypothetical protein&lt;br&gt;Location: 38749 - 38108" locus_tag="AYM52877.1" class="clusterblast-orf" id="knownclusterblast-1_all_1_2_4"  />
</g>
<g id="a1_005"  >
<polygon points="57,135 62,130 82,130 82,140 62,140 57,135 " style="fill:white; stroke-width:1; stroke:black; " description="&lt;b&gt;AYM52876.1&lt;/b&gt;&lt;br&gt;response regulator&lt;br&gt;Location: 38059 - 36740" locus_tag="AYM52876.1" class="clusterblast-orf" id="knownclusterblast-1_all_1_2_5"  />
</g>
<g id="a1_006"  >
<polygon points="91,140 106,140 111,135 106,130 91,130 91,140 " style="fill:white; stroke-width:1; stroke:black; " description="&lt;b&gt;AYM52875.1&lt;/b&gt;&lt;br&gt;methyltransferase type 12&lt;br&gt;Location: 36270 - 35230" locus_tag="AYM52875.1" class="clusterblast-orf" id="knownclusterblast-1_all_1_2_6"  />
</g>
<g id="a1_007"  >
<polygon points="112,140 118,140 123,135 118,130 112,130 112,140 " style="fill:white; stroke-width:1; stroke:black; " description="&lt;b&gt;AYM52874.1&lt;/b&gt;&lt;br&gt;hypothetical protein&lt;br&gt;Location: 35176 - 34598" locus_tag="AYM52874.1" class="clusterblast-orf" id="knownclusterblast-1_all_1_2_7"  />
</g>
<g id="a1_008"  >
<polygon points="124,135 129,130 145,130 145,140 129,140 124,135 " style="fill:white; stroke-width:1; stroke:black; " description="&lt;b&gt;AYM52873.1&lt;/b&gt;&lt;br&gt;hypothetical protein&lt;br&gt;Location: 34508 - 33438" locus_tag="AYM52873.1" class="clusterblast-orf" id="knownclusterblast-1_all_1_2_8"  />
</g>
<g id="a1_009"  >
<polygon points="144,135 149,130 153,130 153,140 149,140 144,135 " style="fill:white; stroke-width:1; stroke:black; " description="&lt;b&gt;AYM52872.1&lt;/b&gt;&lt;br&gt;hypothetical protein&lt;br&gt;Location: 33465 - 32980" locus_tag="AYM52872.1" class="clusterblast-orf" id="knownclusterblast-1_all_1_2_9"  />
</g>
<g id="a1_0010"  >
<polygon points="156,135 161,130 165,130 165,140 161,140 156,135 " style="fill:white; stroke-width:1; stroke:black; " description="&lt;b&gt;AYM52871.1&lt;/b&gt;&lt;br&gt;hypothetical protein&lt;br&gt;Location: 32834 - 32370" locus_tag="AYM52871.1" class="clusterblast-orf" id="knownclusterblast-1_all_1_2_10"  />
</g>
<g id="a1_0011"  >
<polygon points="165,135 170,130 172,130 172,140 170,140 165,135 " style="fill:white; stroke-width:1; stroke:black; " description="&lt;b&gt;AYM52870.1&lt;/b&gt;&lt;br&gt;transcriptional regulator ArsR family&lt;br&gt;Location: 32373 - 31996" locus_tag="AYM52870.1" class="clusterblast-orf" id="knownclusterblast-1_all_1_2_11"  />
</g>
<g id="a1_0012"  >
<polygon points="174,135 179,130 202,130 202,140 179,140 174,135 " style="fill:white; stroke-width:1; stroke:black; " description="&lt;b&gt;AYM52869.1&lt;/b&gt;&lt;br&gt;hypothetical protein&lt;br&gt;Location: 31914 - 30400" locus_tag="AYM52869.1" class="clusterblast-orf" id="knownclusterblast-1_all_1_2_12"  />
</g>
<g id="a1_0013"  >
<polygon points="204,140 212,140 217,135 212,130 204,130 204,140 " style="fill:white; stroke-width:1; stroke:black; " description="&lt;b&gt;AYM52868.1&lt;/b&gt;&lt;br&gt;NIPSNAP family containing protein&lt;br&gt;Location: 30332 - 29622" locus_tag="AYM52868.1" class="clusterblast-orf" id="knownclusterblast-1_all_1_2_13"  />
</g>
<g id="a1_0014"  >
<polygon points="218,140 222,140 227,135 222,130 218,130 218,140 " style="fill:white; stroke-width:1; stroke:black; " description="&lt;b&gt;AYM52867.1&lt;/b&gt;&lt;br&gt;hypothetical protein&lt;br&gt;Location: 29594 - 29094" locus_tag="AYM52867.1" class="clusterblast-orf" id="knownclusterblast-1_all_1_2_14"  />
</g>
<g id="a1_0015"  >
<polygon points="235,135 240,130 254,130 254,140 240,140 235,135 " style="fill:white; stroke-width:1; stroke:black; " description="&lt;b&gt;AYM52866.1&lt;/b&gt;&lt;br&gt;hypothetical protein&lt;br&gt;Location: 28697 - 27702" locus_tag="AYM52866.1" class="clusterblast-orf" id="knownclusterblast-1_all_1_2_15"  />
</g>
<g id="a1_0016"  >
<polygon points="256,140 257,140 262,135 257,130 256,130 256,140 " style="fill:white; stroke-width:1; stroke:black; " description="&lt;b&gt;AYM52865.1&lt;/b&gt;&lt;br&gt;transcriptional regulator protein&lt;br&gt;Location: 27561 - 27235" locus_tag="AYM52865.1" class="clusterblast-orf" id="knownclusterblast-1_all_1_2_16"  />
</g>
<g id="a1_0017"  >
<polygon points="264,135 269,130 292,130 292,140 269,140 264,135 " style="fill:white; stroke-width:1; stroke:black; " description="&lt;b&gt;AYM52864.1&lt;/b&gt;&lt;br&gt;DNA/RNA non-specific endonuclease&lt;br&gt;Location: 27176 - 25701" locus_tag="AYM52864.1" class="clusterblast-orf" id="knownclusterblast-1_all_1_2_17"  />
</g>
<g id="a1_0018"  >
<polygon points="294,135 299,130 306,130 306,140 299,140 294,135 " style="fill:white; stroke-width:1; stroke:black; " description="&lt;b&gt;AYM52863.1&lt;/b&gt;&lt;br&gt;hypothetical protein&lt;br&gt;Location: 25554 - 24925" locus_tag="AYM52863.1" class="clusterblast-orf" id="knownclusterblast-1_all_1_2_18"  />
</g>
<g id="a1_0019"  >
<polygon points="308,135 313,130 328,130 328,140 313,140 308,135 " style="fill:white; stroke-width:1; stroke:black; " description="&lt;b&gt;AYM52862.1&lt;/b&gt;&lt;br&gt;monooxygenase FAD-binding protein&lt;br&gt;Location: 24862 - 23765" locus_tag="AYM52862.1" class="clusterblast-orf" id="knownclusterblast-1_all_1_2_19"  />
</g>
<g id="a1_0020"  >
<polygon points="330,135 335,130 363,130 363,140 335,140 330,135 " style="fill:white; stroke-width:1; stroke:black; " description="&lt;b&gt;AYM52861.1&lt;/b&gt;&lt;br&gt;AMP-binding protein&lt;br&gt;Location: 23677 - 21923" locus_tag="AYM52861.1" class="clusterblast-orf" id="knownclusterblast-1_all_1_2_20"  />
</g>
<g id="a1_0021"  >
<polygon points="363,135 368,130 369,130 369,140 368,140 363,135 " style="fill:#d81515; stroke-width:1; stroke:black; " description="&lt;b&gt;AYM52860.1&lt;/b&gt;&lt;br&gt;acyl carrier protein&lt;br&gt;Location: 21926 - 21651&lt;br&gt;&lt;br&gt;&lt;b&gt;BlastP hit with ctg41_24&lt;/b&gt;&lt;br&gt;Percentage identity: 47&lt;br&gt;Percentage coverage: 56&lt;br&gt;BLAST bit score: 47&lt;br&gt;E-value: 3.84e-08" locus_tag="AYM52860.1" class="clusterblast-orf" id="knownclusterblast-1_all_1_2_21"  />
</g>
<g id="a1_0022"  >
<polygon points="368,135 373,130 379,130 379,140 373,140 368,135 " style="fill:white; stroke-width:1; stroke:black; " description="&lt;b&gt;AYM52859.1&lt;/b&gt;&lt;br&gt;hypothetical protein&lt;br&gt;Location: 21658 - 21083" locus_tag="AYM52859.1" class="clusterblast-orf" id="knownclusterblast-1_all_1_2_22"  />
</g>
<g id="a1_0023"  >
<polygon points="379,135 384,130 400,130 400,140 384,140 379,135 " style="fill:#15d8d8; stroke-width:1; stroke:black; " description="&lt;b&gt;AYM52858.1&lt;/b&gt;&lt;br&gt;chalcone/stilbene synthase family protein&lt;br&gt;Location: 21089 - 20001&lt;br&gt;&lt;br&gt;&lt;b&gt;BlastP hit with ctg41_26&lt;/b&gt;&lt;br&gt;Percentage identity: 47&lt;br&gt;Percentage coverage: 98&lt;br&gt;BLAST bit score: 309&lt;br&gt;E-value: 2.36e-103" locus_tag="AYM52858.1" class="clusterblast-orf" id="knownclusterblast-1_all_1_2_23"  />
</g>
<g id="a1_0024"  >
<polygon points="410,135 415,130 416,130 416,140 415,140 410,135 " style="fill:white; stroke-width:1; stroke:black; " description="&lt;b&gt;AYM52857.1&lt;/b&gt;&lt;br&gt;hypothetical protein&lt;br&gt;Location: 19463 - 19155" locus_tag="AYM52857.1" class="clusterblast-orf" id="knownclusterblast-1_all_1_2_24"  />
</g>
<g id="a1_0025"  >
<polygon points="421,140 425,140 430,135 425,130 421,130 421,140 " style="fill:white; stroke-width:1; stroke:black; " description="&lt;b&gt;AYM52856.1&lt;/b&gt;&lt;br&gt;3-demethylubiquinone-9 3-methyltransferase&lt;br&gt;Location: 18912 - 18424" locus_tag="AYM52856.1" class="clusterblast-orf" id="knownclusterblast-1_all_1_2_25"  />
</g>
<g id="a1_0026"  >
<polygon points="435,140 476,140 481,135 476,130 435,130 435,140 " style="fill:white; stroke-width:1; stroke:black; " description="&lt;b&gt;AYM52855.1&lt;/b&gt;&lt;br&gt;isoamylase&lt;br&gt;Location: 18169 - 15749" locus_tag="AYM52855.1" class="clusterblast-orf" id="knownclusterblast-1_all_1_2_26"  />
</g>
<g id="a1_0027"  >
<polygon points="485,140 492,140 497,135 492,130 485,130 485,140 " style="fill:white; stroke-width:1; stroke:black; " description="&lt;b&gt;AYM52854.1&lt;/b&gt;&lt;br&gt;pentapeptide repeat-containing protein&lt;br&gt;Location: 15519 - 14857" locus_tag="AYM52854.1" class="clusterblast-orf" id="knownclusterblast-1_all_1_2_27"  />
</g>
<g id="a1_0028"  >
<polygon points="498,135 503,130 518,130 518,140 503,140 498,135 " style="fill:white; stroke-width:1; stroke:black; " description="&lt;b&gt;AYM52853.1&lt;/b&gt;&lt;br&gt;molybdate ABC transporter ATP-binding protein&lt;br&gt;Location: 14844 - 13777" locus_tag="AYM52853.1" class="clusterblast-orf" id="knownclusterblast-1_all_1_2_28"  />
</g>
<g id="a1_0029"  >
<polygon points="518,135 523,130 532,130 532,140 523,140 518,135 " style="fill:white; stroke-width:1; stroke:black; " description="&lt;b&gt;AYM52852.1&lt;/b&gt;&lt;br&gt;molybdate ABC transporter permease&lt;br&gt;Location: 13756 - 13061" locus_tag="AYM52852.1" class="clusterblast-orf" id="knownclusterblast-1_all_1_2_29"  />
</g>
<g id="a1_0030"  >
<polygon points="531,135 536,130 547,130 547,140 536,140 531,135 " style="fill:white; stroke-width:1; stroke:black; " description="&lt;b&gt;AYM52851.1&lt;/b&gt;&lt;br&gt;molybdenum ABC transporter periplasmic molybdate-binding protein&lt;br&gt;Location: 13079 - 12264" locus_tag="AYM52851.1" class="clusterblast-orf" id="knownclusterblast-1_all_1_2_30"  />
</g>
<g id="a1_0031"  >
<polygon points="547,140 553,140 558,135 553,130 547,130 547,140 " style="fill:white; stroke-width:1; stroke:black; " description="&lt;b&gt;AYM52850.1&lt;/b&gt;&lt;br&gt;MarR family transcriptional regulator&lt;br&gt;Location: 12259 - 11666" locus_tag="AYM52850.1" class="clusterblast-orf" id="knownclusterblast-1_all_1_2_31"  />
</g>
<g id="a1_0032"  >
<polygon points="558,135 563,130 569,130 569,140 563,140 558,135 " style="fill:white; stroke-width:1; stroke:black; " description="&lt;b&gt;AYM52849.1&lt;/b&gt;&lt;br&gt;hypothetical protein&lt;br&gt;Location: 11658 - 11086" locus_tag="AYM52849.1" class="clusterblast-orf" id="knownclusterblast-1_all_1_2_32"  />
</g>
<g id="a1_0033"  >
<polygon points="575,140 581,140 586,135 581,130 575,130 575,140 " style="fill:white; stroke-width:1; stroke:black; " description="&lt;b&gt;AYM52848.1&lt;/b&gt;&lt;br&gt;hypothetical protein&lt;br&gt;Location: 10765 - 10211" locus_tag="AYM52848.1" class="clusterblast-orf" id="knownclusterblast-1_all_1_2_33"  />
</g>
<g id="a1_0034"  >
<polygon points="586,135 591,130 602,130 602,140 591,140 586,135 " style="fill:white; stroke-width:1; stroke:black; " description="&lt;b&gt;AYM52847.1&lt;/b&gt;&lt;br&gt;endonuclease/exonuclease/phosphatase family protein&lt;br&gt;Location: 10201 - 9326" locus_tag="AYM52847.1" class="clusterblast-orf" id="knownclusterblast-1_all_1_2_34"  />
</g>
<g id="a1_0035"  >
<polygon points="605,135 610,130 617,130 617,140 610,140 605,135 " style="fill:white; stroke-width:1; stroke:black; " description="&lt;b&gt;AYM52846.1&lt;/b&gt;&lt;br&gt;hypothetical protein&lt;br&gt;Location: 9213 - 8584" locus_tag="AYM52846.1" class="clusterblast-orf" id="knownclusterblast-1_all_1_2_35"  />
</g>
<g id="a1_0036"  >
<polygon points="619,135 624,130 632,130 632,140 624,140 619,135 " style="fill:white; stroke-width:1; stroke:black; " description="&lt;b&gt;AYM52845.1&lt;/b&gt;&lt;br&gt;hypothetical protein&lt;br&gt;Location: 8440 - 7745" locus_tag="AYM52845.1" class="clusterblast-orf" id="knownclusterblast-1_all_1_2_36"  />
</g>
<g id="a1_0037"  >
<polygon points="635,140 657,140 662,135 657,130 635,130 635,140 " style="fill:white; stroke-width:1; stroke:black; " description="&lt;b&gt;AYM52844.1&lt;/b&gt;&lt;br&gt;prolyl-tRNA synthetase&lt;br&gt;Location: 7617 - 6184" locus_tag="AYM52844.1" class="clusterblast-orf" id="knownclusterblast-1_all_1_2_37"  />
</g>
<g id="a1_0038"  >
<polygon points="663,135 668,130 687,130 687,140 668,140 663,135 " style="fill:white; stroke-width:1; stroke:black; " description="&lt;b&gt;AYM52843.1&lt;/b&gt;&lt;br&gt;adenylate cyclase 1&lt;br&gt;Location: 6114 - 4873" locus_tag="AYM52843.1" class="clusterblast-orf" id="knownclusterblast-1_all_1_2_38"  />
</g>
<g id="a1_0039"  >
<polygon points="689,140 694,140 699,135 694,130 689,130 689,140 " style="fill:white; stroke-width:1; stroke:black; " description="&lt;b&gt;AYM52842.1&lt;/b&gt;&lt;br&gt;membrane-bound metal-dependent hydrolase&lt;br&gt;Location: 4793 - 4251" locus_tag="AYM52842.1" class="clusterblast-orf" id="knownclusterblast-1_all_1_2_39"  />
</g>
<g id="a1_0040"  >
<polygon points="699,140 705,140 710,135 705,130 699,130 699,140 " style="fill:white; stroke-width:1; stroke:black; " description="&lt;b&gt;AYM52841.1&lt;/b&gt;&lt;br&gt;2'-5' RNA ligase&lt;br&gt;Location: 4225 - 3671" locus_tag="AYM52841.1" class="clusterblast-orf" id="knownclusterblast-1_all_1_2_40"  />
</g>
<g id="a1_0041"  >
<polygon points="711,135 716,130 752,130 752,140 716,140 711,135 " style="fill:white; stroke-width:1; stroke:black; " description="&lt;b&gt;AYM52840.1&lt;/b&gt;&lt;br&gt;sensor protein&lt;br&gt;Location: 3628 - 1427" locus_tag="AYM52840.1" class="clusterblast-orf" id="knownclusterblast-1_all_1_2_41"  />
</g>
<g id="a1_0042"  >
<polygon points="758,140 765,140 770,135 765,130 758,130 758,140 " style="fill:white; stroke-width:1; stroke:black; " description="&lt;b&gt;AYM52839.1&lt;/b&gt;&lt;br&gt;hypothetical protein&lt;br&gt;Location: 1146 - 487" locus_tag="AYM52839.1" class="clusterblast-orf" id="knownclusterblast-1_all_1_2_42"  />
</g>
<g id="a1_0043"  >
<polygon points="772,135 777,130 780,130 780,140 777,140 772,135 " style="fill:white; stroke-width:1; stroke:black; " description="&lt;b&gt;AYM52838.1&lt;/b&gt;&lt;br&gt;hypothetical protein&lt;br&gt;Location: 419 - 1" locus_tag="AYM52838.1" class="clusterblast-orf" id="knownclusterblast-1_all_1_2_43"  />
</g>
</svg>
