<svg xmlns="http://www.w3.org/2000/svg" xmlns:xlink="http://www.w3.org/1999/xlink" version="1.1" x="0" y="0" height="50" width="800" viewBox="0 0 800 50" preserveAspectRatio="none"  >
<g label="Query sequence" class="clusterblast-cluster"  >
<text x="5" y="20" class="clusterblast-acc"  >
Query sequence</text>
<line x1="10" y1="35" x2="778.0" y2="35" style="stroke-width:1; stroke:grey; "  />
<polygon points="0,40 102,40 107,35 102,30 0,30 0,40 " style="fill:white; stroke-width:1; stroke:black; " description="&lt;b&gt;ctg197_1&lt;/b&gt;&lt;br&gt;ctg197 1&lt;br&gt;Location: 148 - 1642" locus_tag="ctg197_1" class="clusterblast-orf" id="subclusterblast-1_q0_0_all"  />
<polygon points="111,40 138,40 143,35 138,30 111,30 111,40 " style="fill:white; stroke-width:1; stroke:black; " description="&lt;b&gt;ctg197_2&lt;/b&gt;&lt;br&gt;ctg197 2&lt;br&gt;Location: 1707 - 2154" locus_tag="ctg197_2" class="clusterblast-orf" id="subclusterblast-1_q1_0_all"  />
<polygon points="143,40 182,40 187,35 182,30 143,30 143,40 " style="fill:white; stroke-width:1; stroke:black; " description="&lt;b&gt;ctg197_3&lt;/b&gt;&lt;br&gt;ctg197 3&lt;br&gt;Location: 2150 - 2774" locus_tag="ctg197_3" class="clusterblast-orf" id="subclusterblast-1_q2_0_all"  />
<polygon points="187,40 301,40 306,35 301,30 187,30 187,40 " style="fill:white; stroke-width:1; stroke:black; " description="&lt;b&gt;ctg197_4&lt;/b&gt;&lt;br&gt;ctg197 4&lt;br&gt;Location: 2770 - 4444" locus_tag="ctg197_4" class="clusterblast-orf" id="subclusterblast-1_q3_0_all"  />
<polygon points="306,35 311,30 382,30 382,40 311,40 306,35 " style="fill:white; stroke-width:1; stroke:black; " description="&lt;b&gt;ctg197_5&lt;/b&gt;&lt;br&gt;ctg197 5&lt;br&gt;Location: 4440 - 5511" locus_tag="ctg197_5" class="clusterblast-orf" id="subclusterblast-1_q4_0_all"  />
<polygon points="382,35 387,30 453,30 453,40 387,40 382,35 " style="fill:white; stroke-width:1; stroke:black; " description="&lt;b&gt;ctg197_6&lt;/b&gt;&lt;br&gt;ctg197 6&lt;br&gt;Location: 5507 - 6503" locus_tag="ctg197_6" class="clusterblast-orf" id="subclusterblast-1_q5_0_all"  />
<polygon points="459,40 516,40 521,35 516,30 459,30 459,40 " style="fill:white; stroke-width:1; stroke:black; " description="&lt;b&gt;ctg197_7&lt;/b&gt;&lt;br&gt;ctg197 7&lt;br&gt;Location: 6592 - 7462" locus_tag="ctg197_7" class="clusterblast-orf" id="subclusterblast-1_q6_0_all"  />
<polygon points="521,35 526,30 559,30 559,40 526,40 521,35 " style="fill:white; stroke-width:1; stroke:black; " description="&lt;b&gt;ctg197_8&lt;/b&gt;&lt;br&gt;ctg197 8&lt;br&gt;Location: 7458 - 7983" locus_tag="ctg197_8" class="clusterblast-orf" id="subclusterblast-1_q7_0_all"  />
<polygon points="610,35 615,30 695,30 695,40 615,40 610,35 " style="fill:white; stroke-width:1; stroke:black; " description="&lt;b&gt;ctg197_9&lt;/b&gt;&lt;br&gt;ctg197 9&lt;br&gt;Location: 8697 - 9894" locus_tag="ctg197_9" class="clusterblast-orf" id="subclusterblast-1_q8_0_all"  />
<polygon points="690,35 695,30 740,30 740,40 695,40 690,35 " style="fill:white; stroke-width:1; stroke:black; " description="&lt;b&gt;ctg197_10&lt;/b&gt;&lt;br&gt;ctg197 10&lt;br&gt;Location: 9833 - 10532" locus_tag="ctg197_10" class="clusterblast-orf" id="subclusterblast-1_q9_0_all"  />
<polygon points="748,35 753,30 780,30 780,40 753,40 748,35 " style="fill:white; stroke-width:1; stroke:black; " description="&lt;b&gt;ctg197_11&lt;/b&gt;&lt;br&gt;ctg197 11&lt;br&gt;Location: 10639 - 11092" locus_tag="ctg197_11" class="clusterblast-orf" id="subclusterblast-1_q10_0_all"  />
</g>
</svg>
