<svg xmlns="http://www.w3.org/2000/svg" xmlns:xlink="http://www.w3.org/1999/xlink" version="1.1" x="0" y="0" height="50" width="800" viewBox="0 0 800 50" preserveAspectRatio="none"  >
<g label="Query sequence" class="clusterblast-cluster"  >
<text x="5" y="20" class="clusterblast-acc"  >
Query sequence</text>
<line x1="10" y1="35" x2="778.0" y2="35" style="stroke-width:1; stroke:grey; "  />
<polygon points="0,40 9,40 14,35 9,30 0,30 0,40 " style="fill:white; stroke-width:1; stroke:black; " description="&lt;b&gt;ctg7_11&lt;/b&gt;&lt;br&gt;ctg7 11&lt;br&gt;Location: 11041 - 11815" locus_tag="ctg7_11" class="clusterblast-orf" id="subclusterblast-1_q0_0_all"  />
<polygon points="14,40 16,40 21,35 16,30 14,30 14,40 " style="fill:white; stroke-width:1; stroke:black; " description="&lt;b&gt;ctg7_12&lt;/b&gt;&lt;br&gt;ctg7 12&lt;br&gt;Location: 11798 - 12191" locus_tag="ctg7_12" class="clusterblast-orf" id="subclusterblast-1_q1_0_all"  />
<polygon points="22,40 58,40 63,35 58,30 22,30 22,40 " style="fill:white; stroke-width:1; stroke:black; " description="&lt;b&gt;ctg7_13&lt;/b&gt;&lt;br&gt;ctg7 13&lt;br&gt;Location: 12248 - 14513" locus_tag="ctg7_13" class="clusterblast-orf" id="subclusterblast-1_q2_0_all"  />
<polygon points="66,40 77,40 82,35 77,30 66,30 66,40 " style="fill:white; stroke-width:1; stroke:black; " description="&lt;b&gt;ctg7_14&lt;/b&gt;&lt;br&gt;ctg7 14&lt;br&gt;Location: 14640 - 15528" locus_tag="ctg7_14" class="clusterblast-orf" id="subclusterblast-1_q3_0_all"  />
<polygon points="82,40 93,40 98,35 93,30 82,30 82,40 " style="fill:white; stroke-width:1; stroke:black; " description="&lt;b&gt;ctg7_15&lt;/b&gt;&lt;br&gt;ctg7 15&lt;br&gt;Location: 15521 - 16385" locus_tag="ctg7_15" class="clusterblast-orf" id="subclusterblast-1_q4_0_all"  />
<polygon points="98,40 108,40 113,35 108,30 98,30 98,40 " style="fill:white; stroke-width:1; stroke:black; " description="&lt;b&gt;ctg7_16&lt;/b&gt;&lt;br&gt;ctg7 16&lt;br&gt;Location: 16369 - 17224" locus_tag="ctg7_16" class="clusterblast-orf" id="subclusterblast-1_q5_0_all"  />
<polygon points="113,40 122,40 127,35 122,30 113,30 113,40 " style="fill:white; stroke-width:1; stroke:black; " description="&lt;b&gt;ctg7_17&lt;/b&gt;&lt;br&gt;ctg7 17&lt;br&gt;Location: 17214 - 17994" locus_tag="ctg7_17" class="clusterblast-orf" id="subclusterblast-1_q6_0_all"  />
<polygon points="127,35 132,30 164,30 164,40 132,40 127,35 " style="fill:white; stroke-width:1; stroke:black; " description="&lt;b&gt;ctg7_18&lt;/b&gt;&lt;br&gt;ctg7 18&lt;br&gt;Location: 17980 - 19969" locus_tag="ctg7_18" class="clusterblast-orf" id="subclusterblast-1_q7_0_all"  />
<polygon points="167,35 172,30 190,30 190,40 172,40 167,35 " style="fill:white; stroke-width:1; stroke:black; " description="&lt;b&gt;ctg7_19&lt;/b&gt;&lt;br&gt;ctg7 19&lt;br&gt;Location: 20135 - 21377" locus_tag="ctg7_19" class="clusterblast-orf" id="subclusterblast-1_q8_0_all"  />
<polygon points="192,40 198,40 203,35 198,30 192,30 192,40 " style="fill:white; stroke-width:1; stroke:black; " description="&lt;b&gt;ctg7_20&lt;/b&gt;&lt;br&gt;ctg7 20&lt;br&gt;Location: 21525 - 22125" locus_tag="ctg7_20" class="clusterblast-orf" id="subclusterblast-1_q9_0_all"  />
<polygon points="205,40 218,40 223,35 218,30 205,30 205,40 " style="fill:white; stroke-width:1; stroke:black; " description="&lt;b&gt;ctg7_21&lt;/b&gt;&lt;br&gt;ctg7 21&lt;br&gt;Location: 22239 - 23172" locus_tag="ctg7_21" class="clusterblast-orf" id="subclusterblast-1_q10_0_all"  />
<polygon points="222,40 243,40 248,35 243,30 222,30 222,40 " style="fill:white; stroke-width:1; stroke:black; " description="&lt;b&gt;ctg7_22&lt;/b&gt;&lt;br&gt;ctg7 22&lt;br&gt;Location: 23168 - 24560" locus_tag="ctg7_22" class="clusterblast-orf" id="subclusterblast-1_q11_0_all"  />
<polygon points="248,35 250,30 250,40 248,35 " style="fill:white; stroke-width:1; stroke:black; " description="&lt;b&gt;ctg7_23&lt;/b&gt;&lt;br&gt;ctg7 23&lt;br&gt;Location: 24556 - 24682" locus_tag="ctg7_23" class="clusterblast-orf" id="subclusterblast-1_q12_0_all"  />
<polygon points="253,40 265,40 270,35 265,30 253,30 253,40 " style="fill:white; stroke-width:1; stroke:black; " description="&lt;b&gt;ctg7_24&lt;/b&gt;&lt;br&gt;ctg7 24&lt;br&gt;Location: 24855 - 25749" locus_tag="ctg7_24" class="clusterblast-orf" id="subclusterblast-1_q13_0_all"  />
<polygon points="273,40 279,40 284,35 279,30 273,30 273,40 " style="fill:white; stroke-width:1; stroke:black; " description="&lt;b&gt;ctg7_25&lt;/b&gt;&lt;br&gt;ctg7 25&lt;br&gt;Location: 25943 - 26540" locus_tag="ctg7_25" class="clusterblast-orf" id="subclusterblast-1_q14_0_all"  />
<polygon points="287,40 291,35 287,30 287,40 " style="fill:white; stroke-width:1; stroke:black; " description="&lt;b&gt;ctg7_26&lt;/b&gt;&lt;br&gt;ctg7 26&lt;br&gt;Location: 26659 - 26872" locus_tag="ctg7_26" class="clusterblast-orf" id="subclusterblast-1_q15_0_all"  />
<polygon points="290,40 293,40 298,35 293,30 290,30 290,40 " style="fill:white; stroke-width:1; stroke:black; " description="&lt;b&gt;ctg7_27&lt;/b&gt;&lt;br&gt;ctg7 27&lt;br&gt;Location: 26825 - 27269" locus_tag="ctg7_27" class="clusterblast-orf" id="subclusterblast-1_q16_0_all"  />
<polygon points="306,40 312,40 317,35 312,30 306,30 306,40 " style="fill:white; stroke-width:1; stroke:black; " description="&lt;b&gt;ctg7_28&lt;/b&gt;&lt;br&gt;ctg7 28&lt;br&gt;Location: 27723 - 28317" locus_tag="ctg7_28" class="clusterblast-orf" id="subclusterblast-1_q17_0_all"  />
<polygon points="319,35 323,30 323,40 319,35 " style="fill:white; stroke-width:1; stroke:black; " description="&lt;b&gt;ctg7_29&lt;/b&gt;&lt;br&gt;ctg7 29&lt;br&gt;Location: 28402 - 28621" locus_tag="ctg7_29" class="clusterblast-orf" id="subclusterblast-1_q18_0_all"  />
<polygon points="324,35 329,30 337,30 337,40 329,40 324,35 " style="fill:white; stroke-width:1; stroke:black; " description="&lt;b&gt;ctg7_30&lt;/b&gt;&lt;br&gt;ctg7 30&lt;br&gt;Location: 28690 - 29428" locus_tag="ctg7_30" class="clusterblast-orf" id="subclusterblast-1_q19_0_all"  />
<polygon points="338,35 343,30 356,30 356,40 343,40 338,35 " style="fill:white; stroke-width:1; stroke:black; " description="&lt;b&gt;ctg7_31&lt;/b&gt;&lt;br&gt;ctg7 31&lt;br&gt;Location: 29429 - 30461" locus_tag="ctg7_31" class="clusterblast-orf" id="subclusterblast-1_q20_0_all"  />
<polygon points="360,40 363,35 360,30 360,40 " style="fill:white; stroke-width:1; stroke:black; " description="&lt;b&gt;ctg7_32&lt;/b&gt;&lt;br&gt;ctg7 32&lt;br&gt;Location: 30641 - 30815" locus_tag="ctg7_32" class="clusterblast-orf" id="subclusterblast-1_q21_0_all"  />
<polygon points="362,40 415,40 420,35 415,30 362,30 362,40 " style="fill:white; stroke-width:1; stroke:black; " description="&lt;b&gt;ctg7_33&lt;/b&gt;&lt;br&gt;ctg7 33&lt;br&gt;Location: 30771 - 33927" locus_tag="ctg7_33" class="clusterblast-orf" id="subclusterblast-1_q22_0_all"  />
<polygon points="420,40 436,40 441,35 436,30 420,30 420,40 " style="fill:white; stroke-width:1; stroke:black; " description="&lt;b&gt;ctg7_34&lt;/b&gt;&lt;br&gt;ctg7 34&lt;br&gt;Location: 33917 - 35069" locus_tag="ctg7_34" class="clusterblast-orf" id="subclusterblast-1_q23_0_all"  />
<polygon points="441,40 451,40 456,35 451,30 441,30 441,40 " style="fill:white; stroke-width:1; stroke:black; " description="&lt;b&gt;ctg7_35&lt;/b&gt;&lt;br&gt;ctg7 35&lt;br&gt;Location: 35065 - 35902" locus_tag="ctg7_35" class="clusterblast-orf" id="subclusterblast-1_q24_0_all"  />
<polygon points="456,40 469,40 474,35 469,30 456,30 456,40 " style="fill:white; stroke-width:1; stroke:black; " description="&lt;b&gt;ctg7_36&lt;/b&gt;&lt;br&gt;ctg7 36&lt;br&gt;Location: 35898 - 36846" locus_tag="ctg7_36" class="clusterblast-orf" id="subclusterblast-1_q25_0_all"  />
<polygon points="474,40 488,40 493,35 488,30 474,30 474,40 " style="fill:white; stroke-width:1; stroke:black; " description="&lt;b&gt;ctg7_37&lt;/b&gt;&lt;br&gt;ctg7 37&lt;br&gt;Location: 36842 - 37883" locus_tag="ctg7_37" class="clusterblast-orf" id="subclusterblast-1_q26_0_all"  />
<polygon points="493,40 509,40 514,35 509,30 493,30 493,40 " style="fill:white; stroke-width:1; stroke:black; " description="&lt;b&gt;ctg7_38&lt;/b&gt;&lt;br&gt;ctg7 38&lt;br&gt;Location: 37876 - 39058" locus_tag="ctg7_38" class="clusterblast-orf" id="subclusterblast-1_q27_0_all"  />
<polygon points="515,35 520,30 524,30 524,40 520,40 515,35 " style="fill:white; stroke-width:1; stroke:black; " description="&lt;b&gt;ctg7_39&lt;/b&gt;&lt;br&gt;ctg7 39&lt;br&gt;Location: 39085 - 39604" locus_tag="ctg7_39" class="clusterblast-orf" id="subclusterblast-1_q28_0_all"  />
<polygon points="528,40 548,40 553,35 548,30 528,30 528,40 " style="fill:white; stroke-width:1; stroke:black; " description="&lt;b&gt;ctg7_40&lt;/b&gt;&lt;br&gt;ctg7 40&lt;br&gt;Location: 39824 - 41138" locus_tag="ctg7_40" class="clusterblast-orf" id="subclusterblast-1_q29_0_all"  />
<polygon points="557,35 562,30 566,30 566,40 562,40 557,35 " style="fill:white; stroke-width:1; stroke:black; " description="&lt;b&gt;ctg7_41&lt;/b&gt;&lt;br&gt;ctg7 41&lt;br&gt;Location: 41393 - 41867" locus_tag="ctg7_41" class="clusterblast-orf" id="subclusterblast-1_q30_0_all"  />
<polygon points="583,35 588,30 599,30 599,40 588,40 583,35 " style="fill:white; stroke-width:1; stroke:black; " description="&lt;b&gt;ctg7_42&lt;/b&gt;&lt;br&gt;ctg7 42&lt;br&gt;Location: 42800 - 43646" locus_tag="ctg7_42" class="clusterblast-orf" id="subclusterblast-1_q31_0_all"  />
<polygon points="599,40 620,40 625,35 620,30 599,30 599,40 " style="fill:white; stroke-width:1; stroke:black; " description="&lt;b&gt;ctg7_43&lt;/b&gt;&lt;br&gt;ctg7 43&lt;br&gt;Location: 43653 - 45051" locus_tag="ctg7_43" class="clusterblast-orf" id="subclusterblast-1_q32_0_all"  />
<polygon points="625,40 672,40 677,35 672,30 625,30 625,40 " style="fill:white; stroke-width:1; stroke:black; " description="&lt;b&gt;ctg7_44&lt;/b&gt;&lt;br&gt;ctg7 44&lt;br&gt;Location: 45088 - 47899" locus_tag="ctg7_44" class="clusterblast-orf" id="subclusterblast-1_q33_0_all"  />
<polygon points="677,40 695,40 700,35 695,30 677,30 677,40 " style="fill:white; stroke-width:1; stroke:black; " description="&lt;b&gt;ctg7_45&lt;/b&gt;&lt;br&gt;ctg7 45&lt;br&gt;Location: 47920 - 49183" locus_tag="ctg7_45" class="clusterblast-orf" id="subclusterblast-1_q34_0_all"  />
<polygon points="701,40 721,40 726,35 721,30 701,30 701,40 " style="fill:white; stroke-width:1; stroke:black; " description="&lt;b&gt;ctg7_46&lt;/b&gt;&lt;br&gt;ctg7 46&lt;br&gt;Location: 49194 - 50586" locus_tag="ctg7_46" class="clusterblast-orf" id="subclusterblast-1_q35_0_all"  />
<polygon points="730,40 735,40 740,35 735,30 730,30 730,40 " style="fill:white; stroke-width:1; stroke:black; " description="&lt;b&gt;ctg7_47&lt;/b&gt;&lt;br&gt;ctg7 47&lt;br&gt;Location: 50789 - 51356" locus_tag="ctg7_47" class="clusterblast-orf" id="subclusterblast-1_q36_0_all"  />
<polygon points="741,40 775,40 780,35 775,30 741,30 741,40 " style="fill:white; stroke-width:1; stroke:black; " description="&lt;b&gt;ctg7_48&lt;/b&gt;&lt;br&gt;ctg7 48&lt;br&gt;Location: 51379 - 53497" locus_tag="ctg7_48" class="clusterblast-orf" id="subclusterblast-1_q37_0_all"  />
</g>
</svg>
