<svg xmlns="http://www.w3.org/2000/svg" xmlns:xlink="http://www.w3.org/1999/xlink" version="1.1" x="0" y="0" height="50" width="800" viewBox="0 0 800 50" preserveAspectRatio="none"  >
<g label="Query sequence" class="clusterblast-cluster"  >
<text x="5" y="20" class="clusterblast-acc"  >
Query sequence</text>
<line x1="10" y1="35" x2="778.0" y2="35" style="stroke-width:1; stroke:grey; "  />
<polygon points="0,35 5,30 52,30 52,40 5,40 0,35 " style="fill:white; stroke-width:1; stroke:black; " description="&lt;b&gt;ctg212_1&lt;/b&gt;&lt;br&gt;ctg212 1&lt;br&gt;Location: 2 - 626" locus_tag="ctg212_1" class="clusterblast-orf" id="subclusterblast-1_q0_0_all"  />
<polygon points="63,35 68,30 165,30 165,40 68,40 63,35 " style="fill:white; stroke-width:1; stroke:black; " description="&lt;b&gt;ctg212_2&lt;/b&gt;&lt;br&gt;ctg212 2&lt;br&gt;Location: 757 - 1990" locus_tag="ctg212_2" class="clusterblast-orf" id="subclusterblast-1_q1_0_all"  />
<polygon points="183,40 346,40 351,35 346,30 183,30 183,40 " style="fill:white; stroke-width:1; stroke:black; " description="&lt;b&gt;ctg212_3&lt;/b&gt;&lt;br&gt;ctg212 3&lt;br&gt;Location: 2211 - 4230" locus_tag="ctg212_3" class="clusterblast-orf" id="subclusterblast-1_q2_0_all"  />
<polygon points="351,40 421,40 426,35 421,30 351,30 351,40 " style="fill:white; stroke-width:1; stroke:black; " description="&lt;b&gt;ctg212_4&lt;/b&gt;&lt;br&gt;ctg212 4&lt;br&gt;Location: 4231 - 5146" locus_tag="ctg212_4" class="clusterblast-orf" id="subclusterblast-1_q3_0_all"  />
<polygon points="427,40 471,40 476,35 471,30 427,30 427,40 " style="fill:white; stroke-width:1; stroke:black; " description="&lt;b&gt;ctg212_5&lt;/b&gt;&lt;br&gt;ctg212 5&lt;br&gt;Location: 5149 - 5740" locus_tag="ctg212_5" class="clusterblast-orf" id="subclusterblast-1_q4_0_all"  />
<polygon points="475,40 511,40 516,35 511,30 475,30 475,40 " style="fill:white; stroke-width:1; stroke:black; " description="&lt;b&gt;ctg212_6&lt;/b&gt;&lt;br&gt;ctg212 6&lt;br&gt;Location: 5736 - 6225" locus_tag="ctg212_6" class="clusterblast-orf" id="subclusterblast-1_q5_0_all"  />
<polygon points="522,40 614,40 619,35 614,30 522,30 522,40 " style="fill:white; stroke-width:1; stroke:black; " description="&lt;b&gt;ctg212_7&lt;/b&gt;&lt;br&gt;ctg212 7&lt;br&gt;Location: 6300 - 7473" locus_tag="ctg212_7" class="clusterblast-orf" id="subclusterblast-1_q6_0_all"  />
<polygon points="619,35 624,30 645,30 645,40 624,40 619,35 " style="fill:white; stroke-width:1; stroke:black; " description="&lt;b&gt;ctg212_8&lt;/b&gt;&lt;br&gt;ctg212 8&lt;br&gt;Location: 7469 - 7784" locus_tag="ctg212_8" class="clusterblast-orf" id="subclusterblast-1_q7_0_all"  />
<polygon points="658,40 683,40 688,35 683,30 658,30 658,40 " style="fill:white; stroke-width:1; stroke:black; " description="&lt;b&gt;ctg212_9&lt;/b&gt;&lt;br&gt;ctg212 9&lt;br&gt;Location: 7946 - 8306" locus_tag="ctg212_9" class="clusterblast-orf" id="subclusterblast-1_q8_0_all"  />
<polygon points="693,40 775,40 780,35 775,30 693,30 693,40 " style="fill:white; stroke-width:1; stroke:black; " description="&lt;b&gt;ctg212_10&lt;/b&gt;&lt;br&gt;ctg212 10&lt;br&gt;Location: 8362 - 9418" locus_tag="ctg212_10" class="clusterblast-orf" id="subclusterblast-1_q9_0_all"  />
</g>
</svg>
