<svg xmlns="http://www.w3.org/2000/svg" xmlns:xlink="http://www.w3.org/1999/xlink" version="1.1" x="0" y="0" height="50" width="800" viewBox="0 0 800 50" preserveAspectRatio="none"  >
<g label="Query sequence" class="clusterblast-cluster"  >
<text x="5" y="20" class="clusterblast-acc"  >
Query sequence</text>
<line x1="10" y1="35" x2="778.0" y2="35" style="stroke-width:1; stroke:grey; "  />
<polygon points="1,35 6,30 231,30 231,40 6,40 1,35 " style="fill:white; stroke-width:1; stroke:black; " description="&lt;b&gt;ctg252_1&lt;/b&gt;&lt;br&gt;ctg252 1&lt;br&gt;Location: 78 - 1866" locus_tag="ctg252_1" class="clusterblast-orf" id="subclusterblast-1_q0_0_all"  />
<polygon points="230,35 235,30 319,30 319,40 235,40 230,35 " style="fill:white; stroke-width:1; stroke:black; " description="&lt;b&gt;ctg252_2&lt;/b&gt;&lt;br&gt;ctg252 2&lt;br&gt;Location: 1862 - 2558" locus_tag="ctg252_2" class="clusterblast-orf" id="subclusterblast-1_q1_0_all"  />
<polygon points="333,35 338,30 442,30 442,40 338,40 333,35 " style="fill:white; stroke-width:1; stroke:black; " description="&lt;b&gt;ctg252_3&lt;/b&gt;&lt;br&gt;ctg252 3&lt;br&gt;Location: 2667 - 3516" locus_tag="ctg252_3" class="clusterblast-orf" id="subclusterblast-1_q2_0_all"  />
<polygon points="451,40 552,40 557,35 552,30 451,30 451,40 " style="fill:white; stroke-width:1; stroke:black; " description="&lt;b&gt;ctg252_4&lt;/b&gt;&lt;br&gt;ctg252 4&lt;br&gt;Location: 3581 - 4409" locus_tag="ctg252_4" class="clusterblast-orf" id="subclusterblast-1_q3_0_all"  />
<polygon points="561,40 667,40 672,35 667,30 561,30 561,40 " style="fill:white; stroke-width:1; stroke:black; " description="&lt;b&gt;ctg252_5&lt;/b&gt;&lt;br&gt;ctg252 5&lt;br&gt;Location: 4435 - 5302" locus_tag="ctg252_5" class="clusterblast-orf" id="subclusterblast-1_q4_0_all"  />
<polygon points="671,40 776,40 781,35 776,30 671,30 671,40 " style="fill:white; stroke-width:1; stroke:black; " description="&lt;b&gt;ctg252_6&lt;/b&gt;&lt;br&gt;ctg252 6&lt;br&gt;Location: 5291 - 6149" locus_tag="ctg252_6" class="clusterblast-orf" id="subclusterblast-1_q5_0_all"  />
</g>
</svg>
