<svg xmlns="http://www.w3.org/2000/svg" xmlns:xlink="http://www.w3.org/1999/xlink" version="1.1" x="0" y="0" height="50" width="800" viewBox="0 0 800 50" preserveAspectRatio="none"  >
<g label="Query sequence" class="clusterblast-cluster"  >
<text x="5" y="20" class="clusterblast-acc"  >
Query sequence</text>
<line x1="10" y1="35" x2="778.0" y2="35" style="stroke-width:1; stroke:grey; "  />
<polygon points="0,40 21,40 26,35 21,30 0,30 0,40 " style="fill:white; stroke-width:1; stroke:black; " description="&lt;b&gt;ctg41_9&lt;/b&gt;&lt;br&gt;ctg41 9&lt;br&gt;Location: 11395 - 12685" locus_tag="ctg41_9" class="clusterblast-orf" id="subclusterblast-1_q0_0_all"  />
<polygon points="26,35 31,30 42,30 42,40 31,40 26,35 " style="fill:white; stroke-width:1; stroke:black; " description="&lt;b&gt;ctg41_10&lt;/b&gt;&lt;br&gt;ctg41 10&lt;br&gt;Location: 12689 - 13454" locus_tag="ctg41_10" class="clusterblast-orf" id="subclusterblast-1_q1_0_all"  />
<polygon points="42,35 47,30 74,30 74,40 47,40 42,35 " style="fill:white; stroke-width:1; stroke:black; " description="&lt;b&gt;ctg41_11&lt;/b&gt;&lt;br&gt;ctg41 11&lt;br&gt;Location: 13443 - 15042" locus_tag="ctg41_11" class="clusterblast-orf" id="subclusterblast-1_q2_0_all"  />
<polygon points="74,35 79,30 92,30 92,40 79,40 74,35 " style="fill:white; stroke-width:1; stroke:black; " description="&lt;b&gt;ctg41_12&lt;/b&gt;&lt;br&gt;ctg41 12&lt;br&gt;Location: 15041 - 15917" locus_tag="ctg41_12" class="clusterblast-orf" id="subclusterblast-1_q3_0_all"  />
<polygon points="92,35 97,30 102,30 102,40 97,40 92,35 " style="fill:white; stroke-width:1; stroke:black; " description="&lt;b&gt;ctg41_13&lt;/b&gt;&lt;br&gt;ctg41 13&lt;br&gt;Location: 15913 - 16366" locus_tag="ctg41_13" class="clusterblast-orf" id="subclusterblast-1_q4_0_all"  />
<polygon points="101,35 106,30 124,30 124,40 106,40 101,35 " style="fill:white; stroke-width:1; stroke:black; " description="&lt;b&gt;ctg41_14&lt;/b&gt;&lt;br&gt;ctg41 14&lt;br&gt;Location: 16362 - 17445" locus_tag="ctg41_14" class="clusterblast-orf" id="subclusterblast-1_q5_0_all"  />
<polygon points="125,35 130,30 143,30 143,40 130,40 125,35 " style="fill:white; stroke-width:1; stroke:black; " description="&lt;b&gt;ctg41_15&lt;/b&gt;&lt;br&gt;ctg41 15&lt;br&gt;Location: 17506 - 18397" locus_tag="ctg41_15" class="clusterblast-orf" id="subclusterblast-1_q6_0_all"  />
<polygon points="145,40 153,40 158,35 153,30 145,30 145,40 " style="fill:white; stroke-width:1; stroke:black; " description="&lt;b&gt;ctg41_16&lt;/b&gt;&lt;br&gt;ctg41 16&lt;br&gt;Location: 18489 - 19113" locus_tag="ctg41_16" class="clusterblast-orf" id="subclusterblast-1_q7_0_all"  />
<polygon points="158,40 177,40 182,35 177,30 158,30 158,40 " style="fill:white; stroke-width:1; stroke:black; " description="&lt;b&gt;ctg41_17&lt;/b&gt;&lt;br&gt;ctg41 17&lt;br&gt;Location: 19103 - 20282" locus_tag="ctg41_17" class="clusterblast-orf" id="subclusterblast-1_q8_0_all"  />
<polygon points="182,40 201,40 206,35 201,30 182,30 182,40 " style="fill:white; stroke-width:1; stroke:black; " description="&lt;b&gt;ctg41_18&lt;/b&gt;&lt;br&gt;ctg41 18&lt;br&gt;Location: 20306 - 21458" locus_tag="ctg41_18" class="clusterblast-orf" id="subclusterblast-1_q9_0_all"  />
<polygon points="207,40 240,40 245,35 240,30 207,30 207,40 " style="fill:white; stroke-width:1; stroke:black; " description="&lt;b&gt;ctg41_19&lt;/b&gt;&lt;br&gt;ctg41 19&lt;br&gt;Location: 21514 - 23371" locus_tag="ctg41_19" class="clusterblast-orf" id="subclusterblast-1_q10_0_all"  />
<polygon points="245,35 250,30 260,30 260,40 250,40 245,35 " style="fill:white; stroke-width:1; stroke:black; " description="&lt;b&gt;ctg41_20&lt;/b&gt;&lt;br&gt;ctg41 20&lt;br&gt;Location: 23377 - 24094" locus_tag="ctg41_20" class="clusterblast-orf" id="subclusterblast-1_q11_0_all"  />
<polygon points="262,35 267,30 280,30 280,40 267,40 262,35 " style="fill:white; stroke-width:1; stroke:black; " description="&lt;b&gt;ctg41_21&lt;/b&gt;&lt;br&gt;ctg41 21&lt;br&gt;Location: 24183 - 25098" locus_tag="ctg41_21" class="clusterblast-orf" id="subclusterblast-1_q12_0_all"  />
<polygon points="281,35 286,30 300,30 300,40 286,40 281,35 " style="fill:white; stroke-width:1; stroke:black; " description="&lt;b&gt;ctg41_22&lt;/b&gt;&lt;br&gt;ctg41 22&lt;br&gt;Location: 25141 - 26077" locus_tag="ctg41_22" class="clusterblast-orf" id="subclusterblast-1_q13_0_all"  />
<polygon points="306,35 311,30 339,30 339,40 311,40 306,35 " style="fill:white; stroke-width:1; stroke:black; " description="&lt;b&gt;ctg41_23&lt;/b&gt;&lt;br&gt;ctg41 23&lt;br&gt;Location: 26334 - 27978" locus_tag="ctg41_23" class="clusterblast-orf" id="subclusterblast-1_q14_0_all"  />
<polygon points="339,35 344,30 345,30 345,40 344,40 339,35 " style="fill:white; stroke-width:1; stroke:black; " description="&lt;b&gt;ctg41_24&lt;/b&gt;&lt;br&gt;ctg41 24&lt;br&gt;Location: 27974 - 28238" locus_tag="ctg41_24" class="clusterblast-orf" id="subclusterblast-1_q15_0_all"  />
<polygon points="344,35 349,30 355,30 355,40 349,40 344,35 " style="fill:white; stroke-width:1; stroke:black; " description="&lt;b&gt;ctg41_25&lt;/b&gt;&lt;br&gt;ctg41 25&lt;br&gt;Location: 28212 - 28746" locus_tag="ctg41_25" class="clusterblast-orf" id="subclusterblast-1_q16_0_all"  />
<polygon points="355,35 360,30 377,30 377,40 360,40 355,35 " style="fill:white; stroke-width:1; stroke:black; " description="&lt;b&gt;ctg41_26&lt;/b&gt;&lt;br&gt;ctg41 26&lt;br&gt;Location: 28752 - 29829" locus_tag="ctg41_26" class="clusterblast-orf" id="subclusterblast-1_q17_0_all"  />
<polygon points="377,35 382,30 395,30 395,40 382,40 377,35 " style="fill:white; stroke-width:1; stroke:black; " description="&lt;b&gt;ctg41_27&lt;/b&gt;&lt;br&gt;ctg41 27&lt;br&gt;Location: 29829 - 30672" locus_tag="ctg41_27" class="clusterblast-orf" id="subclusterblast-1_q18_0_all"  />
<polygon points="396,35 401,30 413,30 413,40 401,40 396,35 " style="fill:white; stroke-width:1; stroke:black; " description="&lt;b&gt;ctg41_28&lt;/b&gt;&lt;br&gt;ctg41 28&lt;br&gt;Location: 30739 - 31561" locus_tag="ctg41_28" class="clusterblast-orf" id="subclusterblast-1_q19_0_all"  />
<polygon points="413,35 418,30 434,30 434,40 418,40 413,35 " style="fill:white; stroke-width:1; stroke:black; " description="&lt;b&gt;ctg41_29&lt;/b&gt;&lt;br&gt;ctg41 29&lt;br&gt;Location: 31572 - 32595" locus_tag="ctg41_29" class="clusterblast-orf" id="subclusterblast-1_q20_0_all"  />
<polygon points="434,35 439,30 466,30 466,40 439,40 434,35 " style="fill:white; stroke-width:1; stroke:black; " description="&lt;b&gt;ctg41_30&lt;/b&gt;&lt;br&gt;ctg41 30&lt;br&gt;Location: 32591 - 34181" locus_tag="ctg41_30" class="clusterblast-orf" id="subclusterblast-1_q21_0_all"  />
<polygon points="467,35 472,30 490,30 490,40 472,40 467,35 " style="fill:white; stroke-width:1; stroke:black; " description="&lt;b&gt;ctg41_31&lt;/b&gt;&lt;br&gt;ctg41 31&lt;br&gt;Location: 34195 - 35317" locus_tag="ctg41_31" class="clusterblast-orf" id="subclusterblast-1_q22_0_all"  />
<polygon points="490,35 495,30 502,30 502,40 495,40 490,35 " style="fill:white; stroke-width:1; stroke:black; " description="&lt;b&gt;ctg41_32&lt;/b&gt;&lt;br&gt;ctg41 32&lt;br&gt;Location: 35326 - 35920" locus_tag="ctg41_32" class="clusterblast-orf" id="subclusterblast-1_q23_0_all"  />
<polygon points="504,40 533,40 538,35 533,30 504,30 504,40 " style="fill:white; stroke-width:1; stroke:black; " description="&lt;b&gt;ctg41_33&lt;/b&gt;&lt;br&gt;ctg41 33&lt;br&gt;Location: 36009 - 37680" locus_tag="ctg41_33" class="clusterblast-orf" id="subclusterblast-1_q24_0_all"  />
<polygon points="538,40 545,40 550,35 545,30 538,30 538,40 " style="fill:white; stroke-width:1; stroke:black; " description="&lt;b&gt;ctg41_34&lt;/b&gt;&lt;br&gt;ctg41 34&lt;br&gt;Location: 37676 - 38267" locus_tag="ctg41_34" class="clusterblast-orf" id="subclusterblast-1_q25_0_all"  />
<polygon points="551,40 567,40 572,35 567,30 551,30 551,40 " style="fill:white; stroke-width:1; stroke:black; " description="&lt;b&gt;ctg41_35&lt;/b&gt;&lt;br&gt;ctg41 35&lt;br&gt;Location: 38307 - 39339" locus_tag="ctg41_35" class="clusterblast-orf" id="subclusterblast-1_q26_0_all"  />
<polygon points="572,35 575,30 575,40 572,35 " style="fill:white; stroke-width:1; stroke:black; " description="&lt;b&gt;ctg41_36&lt;/b&gt;&lt;br&gt;ctg41 36&lt;br&gt;Location: 39343 - 39481" locus_tag="ctg41_36" class="clusterblast-orf" id="subclusterblast-1_q27_0_all"  />
<polygon points="577,35 582,30 585,30 585,40 582,40 577,35 " style="fill:white; stroke-width:1; stroke:black; " description="&lt;b&gt;ctg41_37&lt;/b&gt;&lt;br&gt;ctg41 37&lt;br&gt;Location: 39581 - 39974" locus_tag="ctg41_37" class="clusterblast-orf" id="subclusterblast-1_q28_0_all"  />
<polygon points="588,40 590,40 595,35 590,30 588,30 588,40 " style="fill:white; stroke-width:1; stroke:black; " description="&lt;b&gt;ctg41_38&lt;/b&gt;&lt;br&gt;ctg41 38&lt;br&gt;Location: 40101 - 40473" locus_tag="ctg41_38" class="clusterblast-orf" id="subclusterblast-1_q29_0_all"  />
<polygon points="595,40 604,40 609,35 604,30 595,30 595,40 " style="fill:white; stroke-width:1; stroke:black; " description="&lt;b&gt;ctg41_39&lt;/b&gt;&lt;br&gt;ctg41 39&lt;br&gt;Location: 40466 - 41132" locus_tag="ctg41_39" class="clusterblast-orf" id="subclusterblast-1_q30_0_all"  />
<polygon points="609,40 650,40 655,35 650,30 609,30 609,40 " style="fill:white; stroke-width:1; stroke:black; " description="&lt;b&gt;ctg41_40&lt;/b&gt;&lt;br&gt;ctg41 40&lt;br&gt;Location: 41128 - 43411" locus_tag="ctg41_40" class="clusterblast-orf" id="subclusterblast-1_q31_0_all"  />
<polygon points="655,35 660,30 668,30 668,40 660,40 655,35 " style="fill:white; stroke-width:1; stroke:black; " description="&lt;b&gt;ctg41_41&lt;/b&gt;&lt;br&gt;ctg41 41&lt;br&gt;Location: 43403 - 44027" locus_tag="ctg41_41" class="clusterblast-orf" id="subclusterblast-1_q32_0_all"  />
<polygon points="669,35 674,30 683,30 683,40 674,40 669,35 " style="fill:white; stroke-width:1; stroke:black; " description="&lt;b&gt;ctg41_42&lt;/b&gt;&lt;br&gt;ctg41 42&lt;br&gt;Location: 44083 - 44767" locus_tag="ctg41_42" class="clusterblast-orf" id="subclusterblast-1_q33_0_all"  />
<polygon points="683,35 688,30 724,30 724,40 688,40 683,35 " style="fill:white; stroke-width:1; stroke:black; " description="&lt;b&gt;ctg41_43&lt;/b&gt;&lt;br&gt;ctg41 43&lt;br&gt;Location: 44763 - 46752" locus_tag="ctg41_43" class="clusterblast-orf" id="subclusterblast-1_q34_0_all"  />
<polygon points="726,40 736,40 741,35 736,30 726,30 726,40 " style="fill:white; stroke-width:1; stroke:black; " description="&lt;b&gt;ctg41_44&lt;/b&gt;&lt;br&gt;ctg41 44&lt;br&gt;Location: 46871 - 47606" locus_tag="ctg41_44" class="clusterblast-orf" id="subclusterblast-1_q35_0_all"  />
<polygon points="742,40 775,40 780,35 775,30 742,30 742,40 " style="fill:white; stroke-width:1; stroke:black; " description="&lt;b&gt;ctg41_45&lt;/b&gt;&lt;br&gt;ctg41 45&lt;br&gt;Location: 47656 - 49480" locus_tag="ctg41_45" class="clusterblast-orf" id="subclusterblast-1_q36_0_all"  />
</g>
</svg>
