<svg xmlns="http://www.w3.org/2000/svg" xmlns:xlink="http://www.w3.org/1999/xlink" version="1.1" x="0" y="0" height="50" width="800" viewBox="0 0 800 50" preserveAspectRatio="none"  >
<g label="Query sequence" class="clusterblast-cluster"  >
<text x="5" y="20" class="clusterblast-acc"  >
Query sequence</text>
<line x1="10" y1="35" x2="778.0" y2="35" style="stroke-width:1; stroke:grey; "  />
<polygon points="1,35 6,30 86,30 86,40 6,40 1,35 " style="fill:white; stroke-width:1; stroke:black; " description="&lt;b&gt;ctg253_1&lt;/b&gt;&lt;br&gt;ctg253 1&lt;br&gt;Location: 6 - 675" locus_tag="ctg253_1" class="clusterblast-orf" id="subclusterblast-1_q0_0_all"  />
<polygon points="86,35 91,30 236,30 236,40 91,40 86,35 " style="fill:white; stroke-width:1; stroke:black; " description="&lt;b&gt;ctg253_2&lt;/b&gt;&lt;br&gt;ctg253 2&lt;br&gt;Location: 680 - 1856" locus_tag="ctg253_2" class="clusterblast-orf" id="subclusterblast-1_q1_0_all"  />
<polygon points="258,40 340,40 345,35 340,30 258,30 258,40 " style="fill:white; stroke-width:1; stroke:black; " description="&lt;b&gt;ctg253_3&lt;/b&gt;&lt;br&gt;ctg253 3&lt;br&gt;Location: 2032 - 2716" locus_tag="ctg253_3" class="clusterblast-orf" id="subclusterblast-1_q2_0_all"  />
<polygon points="345,40 416,40 421,35 416,30 345,30 345,40 " style="fill:white; stroke-width:1; stroke:black; " description="&lt;b&gt;ctg253_4&lt;/b&gt;&lt;br&gt;ctg253 4&lt;br&gt;Location: 2719 - 3316" locus_tag="ctg253_4" class="clusterblast-orf" id="subclusterblast-1_q3_0_all"  />
<polygon points="419,35 424,30 528,30 528,40 424,40 419,35 " style="fill:white; stroke-width:1; stroke:black; " description="&lt;b&gt;ctg253_5&lt;/b&gt;&lt;br&gt;ctg253 5&lt;br&gt;Location: 3299 - 4154" locus_tag="ctg253_5" class="clusterblast-orf" id="subclusterblast-1_q4_0_all"  />
<polygon points="588,35 593,30 665,30 665,40 593,40 588,35 " style="fill:white; stroke-width:1; stroke:black; " description="&lt;b&gt;ctg253_6&lt;/b&gt;&lt;br&gt;ctg253 6&lt;br&gt;Location: 4629 - 5235" locus_tag="ctg253_6" class="clusterblast-orf" id="subclusterblast-1_q5_0_all"  />
<polygon points="692,40 732,40 737,35 732,30 692,30 692,40 " style="fill:white; stroke-width:1; stroke:black; " description="&lt;b&gt;ctg253_7&lt;/b&gt;&lt;br&gt;ctg253 7&lt;br&gt;Location: 5451 - 5799" locus_tag="ctg253_7" class="clusterblast-orf" id="subclusterblast-1_q6_0_all"  />
<polygon points="738,35 743,30 781,30 781,40 743,40 738,35 " style="fill:white; stroke-width:1; stroke:black; " description="&lt;b&gt;ctg253_8&lt;/b&gt;&lt;br&gt;ctg253 8&lt;br&gt;Location: 5808 - 6147" locus_tag="ctg253_8" class="clusterblast-orf" id="subclusterblast-1_q7_0_all"  />
</g>
</svg>
