<svg xmlns="http://www.w3.org/2000/svg" xmlns:xlink="http://www.w3.org/1999/xlink" version="1.1" x="0" y="0" height="50" width="800" viewBox="0 0 800 50" preserveAspectRatio="none"  >
<g label="Query sequence" class="clusterblast-cluster"  >
<text x="5" y="20" class="clusterblast-acc"  >
Query sequence</text>
<line x1="10" y1="35" x2="778.0" y2="35" style="stroke-width:1; stroke:grey; "  />
<polygon points="0,40 15,40 20,35 15,30 0,30 0,40 " style="fill:white; stroke-width:1; stroke:black; " description="&lt;b&gt;ctg142_2&lt;/b&gt;&lt;br&gt;ctg142 2&lt;br&gt;Location: 952 - 1411" locus_tag="ctg142_2" class="clusterblast-orf" id="subclusterblast-1_q0_0_all"  />
<polygon points="35,40 47,40 52,35 47,30 35,30 35,40 " style="fill:white; stroke-width:1; stroke:black; " description="&lt;b&gt;ctg142_3&lt;/b&gt;&lt;br&gt;ctg142 3&lt;br&gt;Location: 1761 - 2148" locus_tag="ctg142_3" class="clusterblast-orf" id="subclusterblast-1_q1_0_all"  />
<polygon points="51,40 75,40 80,35 75,30 51,30 51,40 " style="fill:white; stroke-width:1; stroke:black; " description="&lt;b&gt;ctg142_4&lt;/b&gt;&lt;br&gt;ctg142 4&lt;br&gt;Location: 2125 - 2809" locus_tag="ctg142_4" class="clusterblast-orf" id="subclusterblast-1_q2_0_all"  />
<polygon points="86,40 145,40 150,35 145,30 86,30 86,40 " style="fill:white; stroke-width:1; stroke:black; " description="&lt;b&gt;ctg142_5&lt;/b&gt;&lt;br&gt;ctg142 5&lt;br&gt;Location: 2947 - 4426" locus_tag="ctg142_5" class="clusterblast-orf" id="subclusterblast-1_q3_0_all"  />
<polygon points="157,35 162,30 259,30 259,40 162,40 157,35 " style="fill:white; stroke-width:1; stroke:black; " description="&lt;b&gt;ctg142_6&lt;/b&gt;&lt;br&gt;ctg142 6&lt;br&gt;Location: 4585 - 6928" locus_tag="ctg142_6" class="clusterblast-orf" id="subclusterblast-1_q4_0_all"  />
<polygon points="267,40 293,40 298,35 293,30 267,30 267,40 " style="fill:white; stroke-width:1; stroke:black; " description="&lt;b&gt;ctg142_7&lt;/b&gt;&lt;br&gt;ctg142 7&lt;br&gt;Location: 7113 - 7839" locus_tag="ctg142_7" class="clusterblast-orf" id="subclusterblast-1_q5_0_all"  />
<polygon points="298,40 355,40 360,35 355,30 298,30 298,40 " style="fill:white; stroke-width:1; stroke:black; " description="&lt;b&gt;ctg142_8&lt;/b&gt;&lt;br&gt;ctg142 8&lt;br&gt;Location: 7842 - 9270" locus_tag="ctg142_8" class="clusterblast-orf" id="subclusterblast-1_q6_0_all"  />
<polygon points="360,40 415,40 420,35 415,30 360,30 360,40 " style="fill:white; stroke-width:1; stroke:black; " description="&lt;b&gt;ctg142_9&lt;/b&gt;&lt;br&gt;ctg142 9&lt;br&gt;Location: 9266 - 10655" locus_tag="ctg142_9" class="clusterblast-orf" id="subclusterblast-1_q7_0_all"  />
<polygon points="420,40 449,40 454,35 449,30 420,30 420,40 " style="fill:white; stroke-width:1; stroke:black; " description="&lt;b&gt;ctg142_10&lt;/b&gt;&lt;br&gt;ctg142 10&lt;br&gt;Location: 10651 - 11440" locus_tag="ctg142_10" class="clusterblast-orf" id="subclusterblast-1_q8_0_all"  />
<polygon points="454,40 501,40 506,35 501,30 454,30 454,40 " style="fill:white; stroke-width:1; stroke:black; " description="&lt;b&gt;ctg142_11&lt;/b&gt;&lt;br&gt;ctg142 11&lt;br&gt;Location: 11436 - 12648" locus_tag="ctg142_11" class="clusterblast-orf" id="subclusterblast-1_q9_0_all"  />
<polygon points="506,40 538,40 543,35 538,30 506,30 506,40 " style="fill:white; stroke-width:1; stroke:black; " description="&lt;b&gt;ctg142_12&lt;/b&gt;&lt;br&gt;ctg142 12&lt;br&gt;Location: 12644 - 13496" locus_tag="ctg142_12" class="clusterblast-orf" id="subclusterblast-1_q10_0_all"  />
<polygon points="543,40 565,40 570,35 565,30 543,30 543,40 " style="fill:white; stroke-width:1; stroke:black; " description="&lt;b&gt;ctg142_13&lt;/b&gt;&lt;br&gt;ctg142 13&lt;br&gt;Location: 13492 - 14110" locus_tag="ctg142_13" class="clusterblast-orf" id="subclusterblast-1_q11_0_all"  />
<polygon points="574,40 609,40 614,35 609,30 574,30 574,40 " style="fill:white; stroke-width:1; stroke:black; " description="&lt;b&gt;ctg142_14&lt;/b&gt;&lt;br&gt;ctg142 14&lt;br&gt;Location: 14219 - 15146" locus_tag="ctg142_14" class="clusterblast-orf" id="subclusterblast-1_q12_0_all"  />
<polygon points="614,40 643,40 648,35 643,30 614,30 614,40 " style="fill:white; stroke-width:1; stroke:black; " description="&lt;b&gt;ctg142_15&lt;/b&gt;&lt;br&gt;ctg142 15&lt;br&gt;Location: 15142 - 15919" locus_tag="ctg142_15" class="clusterblast-orf" id="subclusterblast-1_q13_0_all"  />
<polygon points="648,40 671,40 676,35 671,30 648,30 648,40 " style="fill:white; stroke-width:1; stroke:black; " description="&lt;b&gt;ctg142_16&lt;/b&gt;&lt;br&gt;ctg142 16&lt;br&gt;Location: 15915 - 16578" locus_tag="ctg142_16" class="clusterblast-orf" id="subclusterblast-1_q14_0_all"  />
<polygon points="676,40 699,40 704,35 699,30 676,30 676,40 " style="fill:white; stroke-width:1; stroke:black; " description="&lt;b&gt;ctg142_17&lt;/b&gt;&lt;br&gt;ctg142 17&lt;br&gt;Location: 16574 - 17225" locus_tag="ctg142_17" class="clusterblast-orf" id="subclusterblast-1_q15_0_all"  />
<polygon points="707,35 712,30 718,30 718,40 712,40 707,35 " style="fill:white; stroke-width:1; stroke:black; " description="&lt;b&gt;ctg142_18&lt;/b&gt;&lt;br&gt;ctg142 18&lt;br&gt;Location: 17278 - 17527" locus_tag="ctg142_18" class="clusterblast-orf" id="subclusterblast-1_q16_0_all"  />
<polygon points="728,35 733,30 758,30 758,40 733,40 728,35 " style="fill:white; stroke-width:1; stroke:black; " description="&lt;b&gt;ctg142_19&lt;/b&gt;&lt;br&gt;ctg142 19&lt;br&gt;Location: 17770 - 18460" locus_tag="ctg142_19" class="clusterblast-orf" id="subclusterblast-1_q17_0_all"  />
<polygon points="769,40 775,40 780,35 775,30 769,30 769,40 " style="fill:white; stroke-width:1; stroke:black; " description="&lt;b&gt;ctg142_20&lt;/b&gt;&lt;br&gt;ctg142 20&lt;br&gt;Location: 18713 - 18968" locus_tag="ctg142_20" class="clusterblast-orf" id="subclusterblast-1_q18_0_all"  />
</g>
</svg>
