<svg xmlns="http://www.w3.org/2000/svg" xmlns:xlink="http://www.w3.org/1999/xlink" version="1.1" x="0" y="0" height="50" width="800" viewBox="0 0 800 50" preserveAspectRatio="none"  >
<g label="Query sequence" class="clusterblast-cluster"  >
<text x="5" y="20" class="clusterblast-acc"  >
Query sequence</text>
<line x1="10" y1="35" x2="778.0" y2="35" style="stroke-width:1; stroke:grey; "  />
<polygon points="0,35 5,30 169,30 169,40 5,40 0,35 " style="fill:white; stroke-width:1; stroke:black; " description="&lt;b&gt;ctg46_24&lt;/b&gt;&lt;br&gt;ctg46 24&lt;br&gt;Location: 21037 - 22729" locus_tag="ctg46_24" class="clusterblast-orf" id="subclusterblast-1_q0_0_all"  />
<polygon points="180,35 185,30 267,30 267,40 185,40 180,35 " style="fill:white; stroke-width:1; stroke:black; " description="&lt;b&gt;ctg46_25&lt;/b&gt;&lt;br&gt;ctg46 25&lt;br&gt;Location: 22835 - 23714" locus_tag="ctg46_25" class="clusterblast-orf" id="subclusterblast-1_q1_0_all"  />
<polygon points="286,40 307,40 312,35 307,30 286,30 286,40 " style="fill:white; stroke-width:1; stroke:black; " description="&lt;b&gt;ctg46_26&lt;/b&gt;&lt;br&gt;ctg46 26&lt;br&gt;Location: 23906 - 24167" locus_tag="ctg46_26" class="clusterblast-orf" id="subclusterblast-1_q2_0_all"  />
<polygon points="317,40 352,40 357,35 352,30 317,30 317,40 " style="fill:white; stroke-width:1; stroke:black; " description="&lt;b&gt;ctg46_27&lt;/b&gt;&lt;br&gt;ctg46 27&lt;br&gt;Location: 24216 - 24609" locus_tag="ctg46_27" class="clusterblast-orf" id="subclusterblast-1_q3_0_all"  />
<polygon points="357,40 471,40 476,35 471,30 357,30 357,40 " style="fill:white; stroke-width:1; stroke:black; " description="&lt;b&gt;ctg46_28&lt;/b&gt;&lt;br&gt;ctg46 28&lt;br&gt;Location: 24611 - 25808" locus_tag="ctg46_28" class="clusterblast-orf" id="subclusterblast-1_q4_0_all"  />
<polygon points="476,40 594,40 599,35 594,30 476,30 476,40 " style="fill:white; stroke-width:1; stroke:black; " description="&lt;b&gt;ctg46_29&lt;/b&gt;&lt;br&gt;ctg46 29&lt;br&gt;Location: 25804 - 27043" locus_tag="ctg46_29" class="clusterblast-orf" id="subclusterblast-1_q5_0_all"  />
<polygon points="602,40 648,40 653,35 648,30 602,30 602,40 " style="fill:white; stroke-width:1; stroke:black; " description="&lt;b&gt;ctg46_30&lt;/b&gt;&lt;br&gt;ctg46 30&lt;br&gt;Location: 27075 - 27579" locus_tag="ctg46_30" class="clusterblast-orf" id="subclusterblast-1_q6_0_all"  />
<polygon points="653,40 775,40 780,35 775,30 653,30 653,40 " style="fill:white; stroke-width:1; stroke:black; " description="&lt;b&gt;ctg46_31&lt;/b&gt;&lt;br&gt;ctg46 31&lt;br&gt;Location: 27578 - 28862" locus_tag="ctg46_31" class="clusterblast-orf" id="subclusterblast-1_q7_0_all"  />
</g>
</svg>
