<svg xmlns="http://www.w3.org/2000/svg" xmlns:xlink="http://www.w3.org/1999/xlink" version="1.1" x="0" y="0" height="50" width="800" viewBox="0 0 800 50" preserveAspectRatio="none"  >
<g label="Query sequence" class="clusterblast-cluster"  >
<text x="5" y="20" class="clusterblast-acc"  >
Query sequence</text>
<line x1="10" y1="35" x2="778.0" y2="35" style="stroke-width:1; stroke:grey; "  />
<polygon points="0,40 76,40 81,35 76,30 0,30 0,40 " style="fill:white; stroke-width:1; stroke:black; " description="&lt;b&gt;ctg182_3&lt;/b&gt;&lt;br&gt;ctg182 3&lt;br&gt;Location: 1885 - 3043" locus_tag="ctg182_3" class="clusterblast-orf" id="subclusterblast-1_q0_0_all"  />
<polygon points="84,40 170,40 175,35 170,30 84,30 84,40 " style="fill:white; stroke-width:1; stroke:black; " description="&lt;b&gt;ctg182_4&lt;/b&gt;&lt;br&gt;ctg182 4&lt;br&gt;Location: 3097 - 4399" locus_tag="ctg182_4" class="clusterblast-orf" id="subclusterblast-1_q1_0_all"  />
<polygon points="175,40 259,40 264,35 259,30 175,30 175,40 " style="fill:white; stroke-width:1; stroke:black; " description="&lt;b&gt;ctg182_5&lt;/b&gt;&lt;br&gt;ctg182 5&lt;br&gt;Location: 4395 - 5688" locus_tag="ctg182_5" class="clusterblast-orf" id="subclusterblast-1_q2_0_all"  />
<polygon points="264,40 323,40 328,35 323,30 264,30 264,40 " style="fill:white; stroke-width:1; stroke:black; " description="&lt;b&gt;ctg182_6&lt;/b&gt;&lt;br&gt;ctg182 6&lt;br&gt;Location: 5684 - 6599" locus_tag="ctg182_6" class="clusterblast-orf" id="subclusterblast-1_q3_0_all"  />
<polygon points="327,40 386,40 391,35 386,30 327,30 327,40 " style="fill:white; stroke-width:1; stroke:black; " description="&lt;b&gt;ctg182_7&lt;/b&gt;&lt;br&gt;ctg182 7&lt;br&gt;Location: 6591 - 7515" locus_tag="ctg182_7" class="clusterblast-orf" id="subclusterblast-1_q4_0_all"  />
<polygon points="391,40 465,40 470,35 465,30 391,30 391,40 " style="fill:white; stroke-width:1; stroke:black; " description="&lt;b&gt;ctg182_8&lt;/b&gt;&lt;br&gt;ctg182 8&lt;br&gt;Location: 7516 - 8644" locus_tag="ctg182_8" class="clusterblast-orf" id="subclusterblast-1_q5_0_all"  />
<polygon points="473,35 478,30 500,30 500,40 478,40 473,35 " style="fill:white; stroke-width:1; stroke:black; " description="&lt;b&gt;ctg182_9&lt;/b&gt;&lt;br&gt;ctg182 9&lt;br&gt;Location: 8686 - 9079" locus_tag="ctg182_9" class="clusterblast-orf" id="subclusterblast-1_q6_0_all"  />
<polygon points="542,40 576,40 581,35 576,30 542,30 542,40 " style="fill:white; stroke-width:1; stroke:black; " description="&lt;b&gt;ctg182_10&lt;/b&gt;&lt;br&gt;ctg182 10&lt;br&gt;Location: 9682 - 10249" locus_tag="ctg182_10" class="clusterblast-orf" id="subclusterblast-1_q7_0_all"  />
<polygon points="584,35 589,30 627,30 627,40 589,40 584,35 " style="fill:white; stroke-width:1; stroke:black; " description="&lt;b&gt;ctg182_11&lt;/b&gt;&lt;br&gt;ctg182 11&lt;br&gt;Location: 10288 - 10900" locus_tag="ctg182_11" class="clusterblast-orf" id="subclusterblast-1_q8_0_all"  />
<polygon points="648,40 707,40 712,35 707,30 648,30 648,40 " style="fill:white; stroke-width:1; stroke:black; " description="&lt;b&gt;ctg182_12&lt;/b&gt;&lt;br&gt;ctg182 12&lt;br&gt;Location: 11208 - 12126" locus_tag="ctg182_12" class="clusterblast-orf" id="subclusterblast-1_q9_0_all"  />
<polygon points="714,40 775,40 780,35 775,30 714,30 714,40 " style="fill:white; stroke-width:1; stroke:black; " description="&lt;b&gt;ctg182_13&lt;/b&gt;&lt;br&gt;ctg182 13&lt;br&gt;Location: 12154 - 13111" locus_tag="ctg182_13" class="clusterblast-orf" id="subclusterblast-1_q10_0_all"  />
</g>
</svg>
