<svg xmlns="http://www.w3.org/2000/svg" xmlns:xlink="http://www.w3.org/1999/xlink" version="1.1" x="0" y="0" height="230" width="800" viewBox="0 0 800 230" preserveAspectRatio="none"  >
<g label="Query sequence" class="clusterblast-cluster"  >
<text x="5" y="20" class="clusterblast-acc"  >
Query sequence</text>
<line x1="10" y1="35" x2="778.0" y2="35" style="stroke-width:1; stroke:grey; "  />
<polygon points="0,35 3,30 3,40 0,35 " style="fill:white; stroke-width:1; stroke:black; " description="&lt;b&gt;ctg21_86&lt;/b&gt;&lt;br&gt;ctg21 86&lt;br&gt;Location: 88234 - 88402" locus_tag="ctg21_86" class="clusterblast-orf" id="dummy-1_q0_0_all"  />
<polygon points="4,40 7,40 12,35 7,30 4,30 4,40 " style="fill:white; stroke-width:1; stroke:black; " description="&lt;b&gt;ctg21_87&lt;/b&gt;&lt;br&gt;ctg21 87&lt;br&gt;Location: 88461 - 88878" locus_tag="ctg21_87" class="clusterblast-orf" id="dummy-1_q1_0_all"  />
<polygon points="14,40 16,40 21,35 16,30 14,30 14,40 " style="fill:white; stroke-width:1; stroke:black; " description="&lt;b&gt;ctg21_88&lt;/b&gt;&lt;br&gt;ctg21 88&lt;br&gt;Location: 88991 - 89393" locus_tag="ctg21_88" class="clusterblast-orf" id="dummy-1_q2_0_all"  />
<polygon points="23,40 26,40 31,35 26,30 23,30 23,40 " style="fill:white; stroke-width:1; stroke:black; " description="&lt;b&gt;ctg21_89&lt;/b&gt;&lt;br&gt;ctg21 89&lt;br&gt;Location: 89477 - 89921" locus_tag="ctg21_89" class="clusterblast-orf" id="dummy-1_q3_0_all"  />
<polygon points="31,35 36,30 53,30 53,40 36,40 31,35 " style="fill:white; stroke-width:1; stroke:black; " description="&lt;b&gt;ctg21_90&lt;/b&gt;&lt;br&gt;ctg21 90&lt;br&gt;Location: 89923 - 91063" locus_tag="ctg21_90" class="clusterblast-orf" id="dummy-1_q4_0_all"  />
<polygon points="55,40 58,40 63,35 58,30 55,30 55,40 " style="fill:white; stroke-width:1; stroke:black; " description="&lt;b&gt;ctg21_91&lt;/b&gt;&lt;br&gt;ctg21 91&lt;br&gt;Location: 91191 - 91602" locus_tag="ctg21_91" class="clusterblast-orf" id="dummy-1_q5_0_all"  />
<polygon points="62,40 83,40 88,35 83,30 62,30 62,40 " style="fill:white; stroke-width:1; stroke:black; " description="&lt;b&gt;ctg21_92&lt;/b&gt;&lt;br&gt;ctg21 92&lt;br&gt;Location: 91570 - 92926" locus_tag="ctg21_92" class="clusterblast-orf" id="dummy-1_q6_0_all"  />
<polygon points="88,40 92,40 97,35 92,30 88,30 88,40 " style="fill:white; stroke-width:1; stroke:black; " description="&lt;b&gt;ctg21_93&lt;/b&gt;&lt;br&gt;ctg21 93&lt;br&gt;Location: 92926 - 93424" locus_tag="ctg21_93" class="clusterblast-orf" id="dummy-1_q7_0_all"  />
<polygon points="97,40 101,40 106,35 101,30 97,30 97,40 " style="fill:white; stroke-width:1; stroke:black; " description="&lt;b&gt;ctg21_94&lt;/b&gt;&lt;br&gt;ctg21 94&lt;br&gt;Location: 93442 - 93916" locus_tag="ctg21_94" class="clusterblast-orf" id="dummy-1_q8_0_all"  />
<polygon points="106,40 130,40 135,35 130,30 106,30 106,40 " style="fill:white; stroke-width:1; stroke:black; " description="&lt;b&gt;ctg21_95&lt;/b&gt;&lt;br&gt;ctg21 95&lt;br&gt;Location: 93916 - 95470" locus_tag="ctg21_95" class="clusterblast-orf" id="dummy-1_q9_0_all"  />
<polygon points="135,40 165,40 170,35 165,30 135,30 135,40 " style="fill:white; stroke-width:1; stroke:black; " description="&lt;b&gt;ctg21_96&lt;/b&gt;&lt;br&gt;ctg21 96&lt;br&gt;Location: 95485 - 97324" locus_tag="ctg21_96" class="clusterblast-orf" id="dummy-1_q10_0_all"  />
<polygon points="170,35 174,30 174,40 170,35 " style="fill:white; stroke-width:1; stroke:black; " description="&lt;b&gt;ctg21_97&lt;/b&gt;&lt;br&gt;ctg21 97&lt;br&gt;Location: 97307 - 97526" locus_tag="ctg21_97" class="clusterblast-orf" id="dummy-1_q11_0_all"  />
<polygon points="174,35 179,30 209,30 209,40 179,40 174,35 " style="fill:white; stroke-width:1; stroke:black; " description="&lt;b&gt;ctg21_98&lt;/b&gt;&lt;br&gt;ctg21 98&lt;br&gt;Location: 97559 - 99425" locus_tag="ctg21_98" class="clusterblast-orf" id="dummy-1_q12_0_all"  />
<polygon points="212,35 217,30 241,30 241,40 217,40 212,35 " style="fill:white; stroke-width:1; stroke:black; " description="&lt;b&gt;ctg21_99&lt;/b&gt;&lt;br&gt;ctg21 99&lt;br&gt;Location: 99580 - 101140" locus_tag="ctg21_99" class="clusterblast-orf" id="dummy-1_q13_0_all"  />
<polygon points="242,35 247,30 324,30 324,40 247,40 242,35 " style="fill:white; stroke-width:1; stroke:black; " description="&lt;b&gt;ctg21_100&lt;/b&gt;&lt;br&gt;ctg21 100&lt;br&gt;Location: 101158 - 105565" locus_tag="ctg21_100" class="clusterblast-orf" id="dummy-1_q14_0_all"  />
<polygon points="326,35 331,30 362,30 362,40 331,40 326,35 " style="fill:white; stroke-width:1; stroke:black; " description="&lt;b&gt;ctg21_101&lt;/b&gt;&lt;br&gt;ctg21 101&lt;br&gt;Location: 105679 - 107578" locus_tag="ctg21_101" class="clusterblast-orf" id="dummy-1_q15_0_all"  />
<polygon points="363,35 368,30 418,30 418,40 368,40 363,35 " style="fill:white; stroke-width:1; stroke:black; " description="&lt;b&gt;ctg21_102&lt;/b&gt;&lt;br&gt;ctg21 102&lt;br&gt;Location: 107617 - 110572" locus_tag="ctg21_102" class="clusterblast-orf" id="dummy-1_q16_0_all"  />
<polygon points="419,35 424,30 445,30 445,40 424,40 419,35 " style="fill:white; stroke-width:1; stroke:black; " description="&lt;b&gt;ctg21_103&lt;/b&gt;&lt;br&gt;ctg21 103&lt;br&gt;Location: 110641 - 112024" locus_tag="ctg21_103" class="clusterblast-orf" id="dummy-1_q17_0_all"  />
<polygon points="447,40 455,40 460,35 455,30 447,30 447,40 " style="fill:white; stroke-width:1; stroke:black; " description="&lt;b&gt;ctg21_104&lt;/b&gt;&lt;br&gt;ctg21 104&lt;br&gt;Location: 112132 - 112822" locus_tag="ctg21_104" class="clusterblast-orf" id="dummy-1_q18_0_all"  />
<polygon points="461,35 466,30 467,30 467,40 466,40 461,35 " style="fill:white; stroke-width:1; stroke:black; " description="&lt;b&gt;ctg21_105&lt;/b&gt;&lt;br&gt;ctg21 105&lt;br&gt;Location: 112846 - 113188" locus_tag="ctg21_105" class="clusterblast-orf" id="dummy-1_q19_0_all"  />
<polygon points="471,40 490,40 495,35 490,30 471,30 471,40 " style="fill:white; stroke-width:1; stroke:black; " description="&lt;b&gt;ctg21_106&lt;/b&gt;&lt;br&gt;ctg21 106&lt;br&gt;Location: 113372 - 114680" locus_tag="ctg21_106" class="clusterblast-orf" id="dummy-1_q20_0_all"  />
<polygon points="495,35 500,30 522,30 522,40 500,40 495,35 " style="fill:white; stroke-width:1; stroke:black; " description="&lt;b&gt;ctg21_107&lt;/b&gt;&lt;br&gt;ctg21 107&lt;br&gt;Location: 114676 - 116104" locus_tag="ctg21_107" class="clusterblast-orf" id="dummy-1_q21_0_all"  />
<polygon points="526,40 539,40 544,35 539,30 526,30 526,40 " style="fill:white; stroke-width:1; stroke:black; " description="&lt;b&gt;ctg21_108&lt;/b&gt;&lt;br&gt;ctg21 108&lt;br&gt;Location: 116321 - 117272" locus_tag="ctg21_108" class="clusterblast-orf" id="dummy-1_q22_0_all"  />
<polygon points="544,40 547,40 552,35 547,30 544,30 544,40 " style="fill:white; stroke-width:1; stroke:black; " description="&lt;b&gt;ctg21_109&lt;/b&gt;&lt;br&gt;ctg21 109&lt;br&gt;Location: 117281 - 117713" locus_tag="ctg21_109" class="clusterblast-orf" id="dummy-1_q23_0_all"  />
<polygon points="554,40 577,40 582,35 577,30 554,30 554,40 " style="fill:white; stroke-width:1; stroke:black; " description="&lt;b&gt;ctg21_110&lt;/b&gt;&lt;br&gt;ctg21 110&lt;br&gt;Location: 117813 - 119310" locus_tag="ctg21_110" class="clusterblast-orf" id="dummy-1_q24_0_all"  />
<polygon points="583,35 588,30 604,30 604,40 588,40 583,35 " style="fill:white; stroke-width:1; stroke:black; " description="&lt;b&gt;ctg21_111&lt;/b&gt;&lt;br&gt;ctg21 111&lt;br&gt;Location: 119377 - 120481" locus_tag="ctg21_111" class="clusterblast-orf" id="dummy-1_q25_0_all"  />
<polygon points="606,40 609,40 614,35 609,30 606,30 606,40 " style="fill:white; stroke-width:1; stroke:black; " description="&lt;b&gt;ctg21_112&lt;/b&gt;&lt;br&gt;ctg21 112&lt;br&gt;Location: 120626 - 121025" locus_tag="ctg21_112" class="clusterblast-orf" id="dummy-1_q26_0_all"  />
<polygon points="613,40 620,40 625,35 620,30 613,30 613,40 " style="fill:white; stroke-width:1; stroke:black; " description="&lt;b&gt;ctg21_113&lt;/b&gt;&lt;br&gt;ctg21 113&lt;br&gt;Location: 121002 - 121629" locus_tag="ctg21_113" class="clusterblast-orf" id="dummy-1_q27_0_all"  />
<polygon points="625,40 646,40 651,35 646,30 625,30 625,40 " style="fill:white; stroke-width:1; stroke:black; " description="&lt;b&gt;ctg21_114&lt;/b&gt;&lt;br&gt;ctg21 114&lt;br&gt;Location: 121625 - 123032" locus_tag="ctg21_114" class="clusterblast-orf" id="dummy-1_q28_0_all"  />
<polygon points="652,35 655,30 655,40 652,35 " style="fill:white; stroke-width:1; stroke:black; " description="&lt;b&gt;ctg21_115&lt;/b&gt;&lt;br&gt;ctg21 115&lt;br&gt;Location: 123088 - 123244" locus_tag="ctg21_115" class="clusterblast-orf" id="dummy-1_q29_0_all"  />
<polygon points="661,35 666,30 672,30 672,40 666,40 661,35 " style="fill:white; stroke-width:1; stroke:black; " description="&lt;b&gt;ctg21_116&lt;/b&gt;&lt;br&gt;ctg21 116&lt;br&gt;Location: 123555 - 124146" locus_tag="ctg21_116" class="clusterblast-orf" id="dummy-1_q30_0_all"  />
<polygon points="676,40 680,40 685,35 680,30 676,30 676,40 " style="fill:white; stroke-width:1; stroke:black; " description="&lt;b&gt;ctg21_117&lt;/b&gt;&lt;br&gt;ctg21 117&lt;br&gt;Location: 124322 - 124805" locus_tag="ctg21_117" class="clusterblast-orf" id="dummy-1_q31_0_all"  />
<polygon points="687,40 692,40 697,35 692,30 687,30 687,40 " style="fill:white; stroke-width:1; stroke:black; " description="&lt;b&gt;ctg21_118&lt;/b&gt;&lt;br&gt;ctg21 118&lt;br&gt;Location: 124905 - 125478" locus_tag="ctg21_118" class="clusterblast-orf" id="dummy-1_q32_0_all"  />
<polygon points="699,40 707,40 712,35 707,30 699,30 699,40 " style="fill:white; stroke-width:1; stroke:black; " description="&lt;b&gt;ctg21_119&lt;/b&gt;&lt;br&gt;ctg21 119&lt;br&gt;Location: 125559 - 126264" locus_tag="ctg21_119" class="clusterblast-orf" id="dummy-1_q33_0_all"  />
<polygon points="714,40 716,40 721,35 716,30 714,30 714,40 " style="fill:white; stroke-width:1; stroke:black; " description="&lt;b&gt;ctg21_120&lt;/b&gt;&lt;br&gt;ctg21 120&lt;br&gt;Location: 126363 - 126750" locus_tag="ctg21_120" class="clusterblast-orf" id="dummy-1_q34_0_all"  />
<polygon points="722,35 727,30 730,30 730,40 727,40 722,35 " style="fill:white; stroke-width:1; stroke:black; " description="&lt;b&gt;ctg21_121&lt;/b&gt;&lt;br&gt;ctg21 121&lt;br&gt;Location: 126774 - 127227" locus_tag="ctg21_121" class="clusterblast-orf" id="dummy-1_q35_0_all"  />
<polygon points="733,40 741,40 746,35 741,30 733,30 733,40 " style="fill:#d81515; stroke-width:1; stroke:black; " description="&lt;b&gt;ctg21_122&lt;/b&gt;&lt;br&gt;ctg21 122&lt;br&gt;Location: 127378 - 128086" locus_tag="ctg21_122" class="clusterblast-orf" id="dummy-1_q36_0_all"  />
<polygon points="745,40 752,40 757,35 752,30 745,30 745,40 " style="fill:#15d8d8; stroke-width:1; stroke:black; " description="&lt;b&gt;ctg21_123&lt;/b&gt;&lt;br&gt;ctg21 123&lt;br&gt;Location: 128030 - 128678" locus_tag="ctg21_123" class="clusterblast-orf" id="dummy-1_q37_0_all"  />
<polygon points="757,40 775,40 780,35 775,30 757,30 757,40 " style="fill:white; stroke-width:1; stroke:black; " description="&lt;b&gt;ctg21_124&lt;/b&gt;&lt;br&gt;ctg21 124&lt;br&gt;Location: 128688 - 129879" locus_tag="ctg21_124" class="clusterblast-orf" id="dummy-1_q38_0_all"  />
</g>
<g label="BGC0001098" description="BGC0001098_c1: iturin (22% of genes show similarity), NRP+Polyketide" class="clusterblast-cluster"  >
<text x="5" y="70" class="clusterblast-acc"  >
<a xlink:href="https://mibig.secondarymetabolites.org/go/BGC0001098/1" target="_blank">BGC0001098</a>: iturin                                                                           (22% of genes show similarity), NRP+Polyketide</text>
<line x1="10" y1="85" x2="778.0" y2="85" style="stroke-width:1; stroke:grey; "  />
</g>
<g id="a1_000"  >
<polygon points="0,90 17,90 22,85 17,80 0,80 0,90 " style="fill:white; stroke-width:1; stroke:black; " description="&lt;b&gt;BAB69693.1&lt;/b&gt;&lt;br&gt;&lt;br&gt;Location: 1 - 1167" locus_tag="BAB69693.1" class="clusterblast-orf" id="dummy-1_h1_2_0"  />
</g>
<g id="a1_001"  >
<polygon points="22,90 30,90 35,85 30,80 22,80 22,90 " style="fill:#d81515; stroke-width:1; stroke:black; " description="&lt;b&gt;BAB69694.1&lt;/b&gt;&lt;br&gt;&lt;br&gt;Location: 1192 - 1893&lt;br&gt;&lt;br&gt;&lt;b&gt;BlastP hit with ctg21_122&lt;/b&gt;&lt;br&gt;Percentage identity: 63&lt;br&gt;Percentage coverage: 94&lt;br&gt;BLAST bit score: 278&lt;br&gt;E-value: 7.14e-95" locus_tag="BAB69694.1" class="clusterblast-orf" id="dummy-1_h1_2_1"  />
</g>
<g id="a1_002"  >
<polygon points="36,90 43,90 48,85 43,80 36,80 36,90 " style="fill:#15d8d8; stroke-width:1; stroke:black; " description="&lt;b&gt;BAB69695.1&lt;/b&gt;&lt;br&gt;&lt;br&gt;Location: 1911 - 2573&lt;br&gt;&lt;br&gt;&lt;b&gt;BlastP hit with ctg21_123&lt;/b&gt;&lt;br&gt;Percentage identity: 57&lt;br&gt;Percentage coverage: 93&lt;br&gt;BLAST bit score: 235&lt;br&gt;E-value: 1.57e-78" locus_tag="BAB69695.1" class="clusterblast-orf" id="dummy-1_h1_2_2"  />
</g>
<g id="a1_003"  >
<polygon points="48,90 58,90 63,85 58,80 48,80 48,90 " style="fill:white; stroke-width:1; stroke:black; " description="&lt;b&gt;BAB69696.1&lt;/b&gt;&lt;br&gt;&lt;br&gt;Location: 2586 - 3371" locus_tag="BAB69696.1" class="clusterblast-orf" id="dummy-1_h1_2_3"  />
</g>
<g id="a1_004"  >
<polygon points="74,90 91,90 96,85 91,80 74,80 74,90 " style="fill:white; stroke-width:1; stroke:black; " description="&lt;b&gt;BAB69697.1&lt;/b&gt;&lt;br&gt;putative malonyl-CoA transacylase&lt;br&gt;Location: 3930 - 5132" locus_tag="BAB69697.1" class="clusterblast-orf" id="dummy-1_h1_2_4"  />
</g>
<g id="a1_005"  >
<polygon points="96,90 315,90 320,85 315,80 96,80 96,90 " style="fill:white; stroke-width:1; stroke:black; " description="&lt;b&gt;BAB69698.1&lt;/b&gt;&lt;br&gt;iturin A synthetase A&lt;br&gt;Location: 5152 - 17100" locus_tag="BAB69698.1" class="clusterblast-orf" id="dummy-1_h1_2_5"  />
</g>
<g id="a1_006"  >
<polygon points="321,90 617,90 622,85 617,80 321,80 321,90 " style="fill:white; stroke-width:1; stroke:black; " description="&lt;b&gt;BAB69699.1&lt;/b&gt;&lt;br&gt;iturin A synthetase B&lt;br&gt;Location: 17145 - 33233" locus_tag="BAB69699.1" class="clusterblast-orf" id="dummy-1_h1_2_6"  />
</g>
<g id="a1_007"  >
<polygon points="624,90 766,90 771,85 766,80 624,80 624,90 " style="fill:white; stroke-width:1; stroke:black; " description="&lt;b&gt;BAB69700.1&lt;/b&gt;&lt;br&gt;iturin A synthetase C&lt;br&gt;Location: 33322 - 41178" locus_tag="BAB69700.1" class="clusterblast-orf" id="dummy-1_h1_2_7"  />
</g>
<g id="a1_008"  >
<polygon points="777,90 779,85 777,80 777,90 " style="fill:white; stroke-width:1; stroke:black; " description="&lt;b&gt;BAB69701.1&lt;/b&gt;&lt;br&gt;&lt;br&gt;Location: 41487 - 41599" locus_tag="BAB69701.1" class="clusterblast-orf" id="dummy-1_h1_2_8"  />
</g>
</svg>
