<svg xmlns="http://www.w3.org/2000/svg" xmlns:xlink="http://www.w3.org/1999/xlink" version="1.1" x="0" y="0" height="50" width="800" viewBox="0 0 800 50" preserveAspectRatio="none"  >
<g label="Query sequence" class="clusterblast-cluster"  >
<text x="5" y="20" class="clusterblast-acc"  >
Query sequence</text>
<line x1="10" y1="35" x2="778.0" y2="35" style="stroke-width:1; stroke:grey; "  />
<polygon points="0,40 23,40 28,35 23,30 0,30 0,40 " style="fill:white; stroke-width:1; stroke:black; " description="&lt;b&gt;ctg10_15&lt;/b&gt;&lt;br&gt;ctg10 15&lt;br&gt;Location: 13204 - 13858" locus_tag="ctg10_15" class="clusterblast-orf" id="knownclusterblast-1_q0_0_all"  />
<polygon points="51,35 56,30 112,30 112,40 56,40 51,35 " style="fill:white; stroke-width:1; stroke:black; " description="&lt;b&gt;ctg10_16&lt;/b&gt;&lt;br&gt;ctg10 16&lt;br&gt;Location: 14402 - 15815" locus_tag="ctg10_16" class="clusterblast-orf" id="knownclusterblast-1_q1_0_all"  />
<polygon points="119,35 124,30 138,30 138,40 124,40 119,35 " style="fill:white; stroke-width:1; stroke:black; " description="&lt;b&gt;ctg10_17&lt;/b&gt;&lt;br&gt;ctg10 17&lt;br&gt;Location: 15963 - 16407" locus_tag="ctg10_17" class="clusterblast-orf" id="knownclusterblast-1_q2_0_all"  />
<polygon points="145,35 150,30 156,30 156,40 150,40 145,35 " style="fill:white; stroke-width:1; stroke:black; " description="&lt;b&gt;ctg10_18&lt;/b&gt;&lt;br&gt;ctg10 18&lt;br&gt;Location: 16568 - 16841" locus_tag="ctg10_18" class="clusterblast-orf" id="knownclusterblast-1_q3_0_all"  />
<polygon points="155,35 160,30 167,30 167,40 160,40 155,35 " style="fill:white; stroke-width:1; stroke:black; " description="&lt;b&gt;ctg10_19&lt;/b&gt;&lt;br&gt;ctg10 19&lt;br&gt;Location: 16816 - 17077" locus_tag="ctg10_19" class="clusterblast-orf" id="knownclusterblast-1_q4_0_all"  />
<polygon points="182,35 187,30 205,30 205,40 187,40 182,35 " style="fill:white; stroke-width:1; stroke:black; " description="&lt;b&gt;ctg10_20&lt;/b&gt;&lt;br&gt;ctg10 20&lt;br&gt;Location: 17437 - 17968" locus_tag="ctg10_20" class="clusterblast-orf" id="knownclusterblast-1_q5_0_all"  />
<polygon points="207,35 212,30 297,30 297,40 212,40 207,35 " style="fill:white; stroke-width:1; stroke:black; " description="&lt;b&gt;ctg10_21&lt;/b&gt;&lt;br&gt;ctg10 21&lt;br&gt;Location: 18012 - 20103" locus_tag="ctg10_21" class="clusterblast-orf" id="knownclusterblast-1_q6_0_all"  />
<polygon points="297,35 302,30 356,30 356,40 302,40 297,35 " style="fill:white; stroke-width:1; stroke:black; " description="&lt;b&gt;ctg10_22&lt;/b&gt;&lt;br&gt;ctg10 22&lt;br&gt;Location: 20099 - 21488" locus_tag="ctg10_22" class="clusterblast-orf" id="knownclusterblast-1_q7_0_all"  />
<polygon points="356,35 361,30 403,30 403,40 361,40 356,35 " style="fill:white; stroke-width:1; stroke:black; " description="&lt;b&gt;ctg10_23&lt;/b&gt;&lt;br&gt;ctg10 23&lt;br&gt;Location: 21484 - 22573" locus_tag="ctg10_23" class="clusterblast-orf" id="knownclusterblast-1_q8_0_all"  />
<polygon points="403,35 408,30 414,30 414,40 408,40 403,35 " style="fill:white; stroke-width:1; stroke:black; " description="&lt;b&gt;ctg10_24&lt;/b&gt;&lt;br&gt;ctg10 24&lt;br&gt;Location: 22569 - 22818" locus_tag="ctg10_24" class="clusterblast-orf" id="knownclusterblast-1_q9_0_all"  />
<polygon points="416,35 421,30 427,30 427,40 421,40 416,35 " style="fill:white; stroke-width:1; stroke:black; " description="&lt;b&gt;ctg10_25&lt;/b&gt;&lt;br&gt;ctg10 25&lt;br&gt;Location: 22886 - 23126" locus_tag="ctg10_25" class="clusterblast-orf" id="knownclusterblast-1_q10_0_all"  />
<polygon points="430,35 435,30 499,30 499,40 435,40 430,35 " style="fill:white; stroke-width:1; stroke:black; " description="&lt;b&gt;ctg10_26&lt;/b&gt;&lt;br&gt;ctg10 26&lt;br&gt;Location: 23210 - 24815" locus_tag="ctg10_26" class="clusterblast-orf" id="knownclusterblast-1_q11_0_all"  />
<polygon points="505,40 593,40 598,35 593,30 505,30 505,40 " style="fill:white; stroke-width:1; stroke:black; " description="&lt;b&gt;ctg10_27&lt;/b&gt;&lt;br&gt;ctg10 27&lt;br&gt;Location: 24953 - 27110" locus_tag="ctg10_27" class="clusterblast-orf" id="knownclusterblast-1_q12_0_all"  />
<polygon points="598,35 603,30 617,30 617,40 603,40 598,35 " style="fill:white; stroke-width:1; stroke:black; " description="&lt;b&gt;ctg10_28&lt;/b&gt;&lt;br&gt;ctg10 28&lt;br&gt;Location: 27106 - 27556" locus_tag="ctg10_28" class="clusterblast-orf" id="knownclusterblast-1_q13_0_all"  />
<polygon points="625,40 638,40 643,35 638,30 625,30 625,40 " style="fill:white; stroke-width:1; stroke:black; " description="&lt;b&gt;ctg10_29&lt;/b&gt;&lt;br&gt;ctg10 29&lt;br&gt;Location: 27732 - 28146" locus_tag="ctg10_29" class="clusterblast-orf" id="knownclusterblast-1_q14_0_all"  />
<polygon points="643,40 711,40 716,35 711,30 643,30 643,40 " style="fill:white; stroke-width:1; stroke:black; " description="&lt;b&gt;ctg10_30&lt;/b&gt;&lt;br&gt;ctg10 30&lt;br&gt;Location: 28160 - 29852" locus_tag="ctg10_30" class="clusterblast-orf" id="knownclusterblast-1_q15_0_all"  />
<polygon points="716,40 775,40 780,35 775,30 716,30 716,40 " style="fill:white; stroke-width:1; stroke:black; " description="&lt;b&gt;ctg10_31&lt;/b&gt;&lt;br&gt;ctg10 31&lt;br&gt;Location: 29848 - 31336" locus_tag="ctg10_31" class="clusterblast-orf" id="knownclusterblast-1_q16_0_all"  />
</g>
</svg>
