<svg xmlns="http://www.w3.org/2000/svg" xmlns:xlink="http://www.w3.org/1999/xlink" version="1.1" x="0" y="0" height="230" width="800" viewBox="0 0 800 230" preserveAspectRatio="none"  >
<g label="Query sequence" class="clusterblast-cluster"  >
<text x="5" y="20" class="clusterblast-acc"  >
Query sequence</text>
<line x1="10" y1="35" x2="778.0" y2="35" style="stroke-width:1; stroke:grey; "  />
<polygon points="0,35 3,30 3,40 0,35 " style="fill:white; stroke-width:1; stroke:black; " description="&lt;b&gt;ctg21_86&lt;/b&gt;&lt;br&gt;ctg21 86&lt;br&gt;Location: 88234 - 88402" locus_tag="ctg21_86" class="clusterblast-orf" id="dummy-1_q0_0_all"  />
<polygon points="4,40 7,40 12,35 7,30 4,30 4,40 " style="fill:white; stroke-width:1; stroke:black; " description="&lt;b&gt;ctg21_87&lt;/b&gt;&lt;br&gt;ctg21 87&lt;br&gt;Location: 88461 - 88878" locus_tag="ctg21_87" class="clusterblast-orf" id="dummy-1_q1_0_all"  />
<polygon points="14,40 16,40 21,35 16,30 14,30 14,40 " style="fill:white; stroke-width:1; stroke:black; " description="&lt;b&gt;ctg21_88&lt;/b&gt;&lt;br&gt;ctg21 88&lt;br&gt;Location: 88991 - 89393" locus_tag="ctg21_88" class="clusterblast-orf" id="dummy-1_q2_0_all"  />
<polygon points="23,40 26,40 31,35 26,30 23,30 23,40 " style="fill:white; stroke-width:1; stroke:black; " description="&lt;b&gt;ctg21_89&lt;/b&gt;&lt;br&gt;ctg21 89&lt;br&gt;Location: 89477 - 89921" locus_tag="ctg21_89" class="clusterblast-orf" id="dummy-1_q3_0_all"  />
<polygon points="31,35 36,30 53,30 53,40 36,40 31,35 " style="fill:white; stroke-width:1; stroke:black; " description="&lt;b&gt;ctg21_90&lt;/b&gt;&lt;br&gt;ctg21 90&lt;br&gt;Location: 89923 - 91063" locus_tag="ctg21_90" class="clusterblast-orf" id="dummy-1_q4_0_all"  />
<polygon points="55,40 58,40 63,35 58,30 55,30 55,40 " style="fill:white; stroke-width:1; stroke:black; " description="&lt;b&gt;ctg21_91&lt;/b&gt;&lt;br&gt;ctg21 91&lt;br&gt;Location: 91191 - 91602" locus_tag="ctg21_91" class="clusterblast-orf" id="dummy-1_q5_0_all"  />
<polygon points="62,40 83,40 88,35 83,30 62,30 62,40 " style="fill:white; stroke-width:1; stroke:black; " description="&lt;b&gt;ctg21_92&lt;/b&gt;&lt;br&gt;ctg21 92&lt;br&gt;Location: 91570 - 92926" locus_tag="ctg21_92" class="clusterblast-orf" id="dummy-1_q6_0_all"  />
<polygon points="88,40 92,40 97,35 92,30 88,30 88,40 " style="fill:white; stroke-width:1; stroke:black; " description="&lt;b&gt;ctg21_93&lt;/b&gt;&lt;br&gt;ctg21 93&lt;br&gt;Location: 92926 - 93424" locus_tag="ctg21_93" class="clusterblast-orf" id="dummy-1_q7_0_all"  />
<polygon points="97,40 101,40 106,35 101,30 97,30 97,40 " style="fill:white; stroke-width:1; stroke:black; " description="&lt;b&gt;ctg21_94&lt;/b&gt;&lt;br&gt;ctg21 94&lt;br&gt;Location: 93442 - 93916" locus_tag="ctg21_94" class="clusterblast-orf" id="dummy-1_q8_0_all"  />
<polygon points="106,40 130,40 135,35 130,30 106,30 106,40 " style="fill:white; stroke-width:1; stroke:black; " description="&lt;b&gt;ctg21_95&lt;/b&gt;&lt;br&gt;ctg21 95&lt;br&gt;Location: 93916 - 95470" locus_tag="ctg21_95" class="clusterblast-orf" id="dummy-1_q9_0_all"  />
<polygon points="135,40 165,40 170,35 165,30 135,30 135,40 " style="fill:white; stroke-width:1; stroke:black; " description="&lt;b&gt;ctg21_96&lt;/b&gt;&lt;br&gt;ctg21 96&lt;br&gt;Location: 95485 - 97324" locus_tag="ctg21_96" class="clusterblast-orf" id="dummy-1_q10_0_all"  />
<polygon points="170,35 174,30 174,40 170,35 " style="fill:white; stroke-width:1; stroke:black; " description="&lt;b&gt;ctg21_97&lt;/b&gt;&lt;br&gt;ctg21 97&lt;br&gt;Location: 97307 - 97526" locus_tag="ctg21_97" class="clusterblast-orf" id="dummy-1_q11_0_all"  />
<polygon points="174,35 179,30 209,30 209,40 179,40 174,35 " style="fill:white; stroke-width:1; stroke:black; " description="&lt;b&gt;ctg21_98&lt;/b&gt;&lt;br&gt;ctg21 98&lt;br&gt;Location: 97559 - 99425" locus_tag="ctg21_98" class="clusterblast-orf" id="dummy-1_q12_0_all"  />
<polygon points="212,35 217,30 241,30 241,40 217,40 212,35 " style="fill:white; stroke-width:1; stroke:black; " description="&lt;b&gt;ctg21_99&lt;/b&gt;&lt;br&gt;ctg21 99&lt;br&gt;Location: 99580 - 101140" locus_tag="ctg21_99" class="clusterblast-orf" id="dummy-1_q13_0_all"  />
<polygon points="242,35 247,30 324,30 324,40 247,40 242,35 " style="fill:white; stroke-width:1; stroke:black; " description="&lt;b&gt;ctg21_100&lt;/b&gt;&lt;br&gt;ctg21 100&lt;br&gt;Location: 101158 - 105565" locus_tag="ctg21_100" class="clusterblast-orf" id="dummy-1_q14_0_all"  />
<polygon points="326,35 331,30 362,30 362,40 331,40 326,35 " style="fill:white; stroke-width:1; stroke:black; " description="&lt;b&gt;ctg21_101&lt;/b&gt;&lt;br&gt;ctg21 101&lt;br&gt;Location: 105679 - 107578" locus_tag="ctg21_101" class="clusterblast-orf" id="dummy-1_q15_0_all"  />
<polygon points="363,35 368,30 418,30 418,40 368,40 363,35 " style="fill:white; stroke-width:1; stroke:black; " description="&lt;b&gt;ctg21_102&lt;/b&gt;&lt;br&gt;ctg21 102&lt;br&gt;Location: 107617 - 110572" locus_tag="ctg21_102" class="clusterblast-orf" id="dummy-1_q16_0_all"  />
<polygon points="419,35 424,30 445,30 445,40 424,40 419,35 " style="fill:white; stroke-width:1; stroke:black; " description="&lt;b&gt;ctg21_103&lt;/b&gt;&lt;br&gt;ctg21 103&lt;br&gt;Location: 110641 - 112024" locus_tag="ctg21_103" class="clusterblast-orf" id="dummy-1_q17_0_all"  />
<polygon points="447,40 455,40 460,35 455,30 447,30 447,40 " style="fill:white; stroke-width:1; stroke:black; " description="&lt;b&gt;ctg21_104&lt;/b&gt;&lt;br&gt;ctg21 104&lt;br&gt;Location: 112132 - 112822" locus_tag="ctg21_104" class="clusterblast-orf" id="dummy-1_q18_0_all"  />
<polygon points="461,35 466,30 467,30 467,40 466,40 461,35 " style="fill:white; stroke-width:1; stroke:black; " description="&lt;b&gt;ctg21_105&lt;/b&gt;&lt;br&gt;ctg21 105&lt;br&gt;Location: 112846 - 113188" locus_tag="ctg21_105" class="clusterblast-orf" id="dummy-1_q19_0_all"  />
<polygon points="471,40 490,40 495,35 490,30 471,30 471,40 " style="fill:white; stroke-width:1; stroke:black; " description="&lt;b&gt;ctg21_106&lt;/b&gt;&lt;br&gt;ctg21 106&lt;br&gt;Location: 113372 - 114680" locus_tag="ctg21_106" class="clusterblast-orf" id="dummy-1_q20_0_all"  />
<polygon points="495,35 500,30 522,30 522,40 500,40 495,35 " style="fill:white; stroke-width:1; stroke:black; " description="&lt;b&gt;ctg21_107&lt;/b&gt;&lt;br&gt;ctg21 107&lt;br&gt;Location: 114676 - 116104" locus_tag="ctg21_107" class="clusterblast-orf" id="dummy-1_q21_0_all"  />
<polygon points="526,40 539,40 544,35 539,30 526,30 526,40 " style="fill:white; stroke-width:1; stroke:black; " description="&lt;b&gt;ctg21_108&lt;/b&gt;&lt;br&gt;ctg21 108&lt;br&gt;Location: 116321 - 117272" locus_tag="ctg21_108" class="clusterblast-orf" id="dummy-1_q22_0_all"  />
<polygon points="544,40 547,40 552,35 547,30 544,30 544,40 " style="fill:white; stroke-width:1; stroke:black; " description="&lt;b&gt;ctg21_109&lt;/b&gt;&lt;br&gt;ctg21 109&lt;br&gt;Location: 117281 - 117713" locus_tag="ctg21_109" class="clusterblast-orf" id="dummy-1_q23_0_all"  />
<polygon points="554,40 577,40 582,35 577,30 554,30 554,40 " style="fill:white; stroke-width:1; stroke:black; " description="&lt;b&gt;ctg21_110&lt;/b&gt;&lt;br&gt;ctg21 110&lt;br&gt;Location: 117813 - 119310" locus_tag="ctg21_110" class="clusterblast-orf" id="dummy-1_q24_0_all"  />
<polygon points="583,35 588,30 604,30 604,40 588,40 583,35 " style="fill:white; stroke-width:1; stroke:black; " description="&lt;b&gt;ctg21_111&lt;/b&gt;&lt;br&gt;ctg21 111&lt;br&gt;Location: 119377 - 120481" locus_tag="ctg21_111" class="clusterblast-orf" id="dummy-1_q25_0_all"  />
<polygon points="606,40 609,40 614,35 609,30 606,30 606,40 " style="fill:white; stroke-width:1; stroke:black; " description="&lt;b&gt;ctg21_112&lt;/b&gt;&lt;br&gt;ctg21 112&lt;br&gt;Location: 120626 - 121025" locus_tag="ctg21_112" class="clusterblast-orf" id="dummy-1_q26_0_all"  />
<polygon points="613,40 620,40 625,35 620,30 613,30 613,40 " style="fill:white; stroke-width:1; stroke:black; " description="&lt;b&gt;ctg21_113&lt;/b&gt;&lt;br&gt;ctg21 113&lt;br&gt;Location: 121002 - 121629" locus_tag="ctg21_113" class="clusterblast-orf" id="dummy-1_q27_0_all"  />
<polygon points="625,40 646,40 651,35 646,30 625,30 625,40 " style="fill:white; stroke-width:1; stroke:black; " description="&lt;b&gt;ctg21_114&lt;/b&gt;&lt;br&gt;ctg21 114&lt;br&gt;Location: 121625 - 123032" locus_tag="ctg21_114" class="clusterblast-orf" id="dummy-1_q28_0_all"  />
<polygon points="652,35 655,30 655,40 652,35 " style="fill:white; stroke-width:1; stroke:black; " description="&lt;b&gt;ctg21_115&lt;/b&gt;&lt;br&gt;ctg21 115&lt;br&gt;Location: 123088 - 123244" locus_tag="ctg21_115" class="clusterblast-orf" id="dummy-1_q29_0_all"  />
<polygon points="661,35 666,30 672,30 672,40 666,40 661,35 " style="fill:white; stroke-width:1; stroke:black; " description="&lt;b&gt;ctg21_116&lt;/b&gt;&lt;br&gt;ctg21 116&lt;br&gt;Location: 123555 - 124146" locus_tag="ctg21_116" class="clusterblast-orf" id="dummy-1_q30_0_all"  />
<polygon points="676,40 680,40 685,35 680,30 676,30 676,40 " style="fill:white; stroke-width:1; stroke:black; " description="&lt;b&gt;ctg21_117&lt;/b&gt;&lt;br&gt;ctg21 117&lt;br&gt;Location: 124322 - 124805" locus_tag="ctg21_117" class="clusterblast-orf" id="dummy-1_q31_0_all"  />
<polygon points="687,40 692,40 697,35 692,30 687,30 687,40 " style="fill:white; stroke-width:1; stroke:black; " description="&lt;b&gt;ctg21_118&lt;/b&gt;&lt;br&gt;ctg21 118&lt;br&gt;Location: 124905 - 125478" locus_tag="ctg21_118" class="clusterblast-orf" id="dummy-1_q32_0_all"  />
<polygon points="699,40 707,40 712,35 707,30 699,30 699,40 " style="fill:white; stroke-width:1; stroke:black; " description="&lt;b&gt;ctg21_119&lt;/b&gt;&lt;br&gt;ctg21 119&lt;br&gt;Location: 125559 - 126264" locus_tag="ctg21_119" class="clusterblast-orf" id="dummy-1_q33_0_all"  />
<polygon points="714,40 716,40 721,35 716,30 714,30 714,40 " style="fill:white; stroke-width:1; stroke:black; " description="&lt;b&gt;ctg21_120&lt;/b&gt;&lt;br&gt;ctg21 120&lt;br&gt;Location: 126363 - 126750" locus_tag="ctg21_120" class="clusterblast-orf" id="dummy-1_q34_0_all"  />
<polygon points="722,35 727,30 730,30 730,40 727,40 722,35 " style="fill:white; stroke-width:1; stroke:black; " description="&lt;b&gt;ctg21_121&lt;/b&gt;&lt;br&gt;ctg21 121&lt;br&gt;Location: 126774 - 127227" locus_tag="ctg21_121" class="clusterblast-orf" id="dummy-1_q35_0_all"  />
<polygon points="733,40 741,40 746,35 741,30 733,30 733,40 " style="fill:#d81515; stroke-width:1; stroke:black; " description="&lt;b&gt;ctg21_122&lt;/b&gt;&lt;br&gt;ctg21 122&lt;br&gt;Location: 127378 - 128086" locus_tag="ctg21_122" class="clusterblast-orf" id="dummy-1_q36_0_all"  />
<polygon points="745,40 752,40 757,35 752,30 745,30 745,40 " style="fill:#15d8d8; stroke-width:1; stroke:black; " description="&lt;b&gt;ctg21_123&lt;/b&gt;&lt;br&gt;ctg21 123&lt;br&gt;Location: 128030 - 128678" locus_tag="ctg21_123" class="clusterblast-orf" id="dummy-1_q37_0_all"  />
<polygon points="757,40 775,40 780,35 775,30 757,30 757,40 " style="fill:white; stroke-width:1; stroke:black; " description="&lt;b&gt;ctg21_124&lt;/b&gt;&lt;br&gt;ctg21 124&lt;br&gt;Location: 128688 - 129879" locus_tag="ctg21_124" class="clusterblast-orf" id="dummy-1_q38_0_all"  />
</g>
<g label="BGC0002284" description="BGC0002284_c1: corynecin III/corynecin I/corynecin II (13% of genes show similarity), Other" class="clusterblast-cluster"  >
<text x="5" y="70" class="clusterblast-acc"  >
<a xlink:href="https://mibig.secondarymetabolites.org/go/BGC0002284/1" target="_blank">BGC0002284</a>: corynecin III/corynecin I/corynecin II                                           (13% of genes show similarity), Other</text>
<line x1="10" y1="85" x2="778.0" y2="85" style="stroke-width:1; stroke:grey; "  />
</g>
<g id="a1_000"  >
<polygon points="222,85 227,80 249,80 249,90 227,90 222,85 " style="fill:white; stroke-width:1; stroke:black; " description="&lt;b&gt;CPI83_20065&lt;/b&gt;&lt;br&gt;hypothetical protein&lt;br&gt;Location: 17900 - 16452" locus_tag="CPI83_20065" class="clusterblast-orf" id="dummy-1_h1_4_0"  />
</g>
<g id="a1_001"  >
<polygon points="253,90 290,90 295,85 290,80 253,80 253,90 " style="fill:white; stroke-width:1; stroke:black; " description="&lt;b&gt;CPI83_20060&lt;/b&gt;&lt;br&gt;MMPL family transporter&lt;br&gt;Location: 16227 - 13981" locus_tag="CPI83_20060" class="clusterblast-orf" id="dummy-1_h1_4_1"  />
</g>
<g id="a1_002"  >
<polygon points="299,90 321,90 326,85 321,80 299,80 299,90 " style="fill:white; stroke-width:1; stroke:black; " description="&lt;b&gt;CPI83_20055&lt;/b&gt;&lt;br&gt;hypothetical protein&lt;br&gt;Location: 13797 - 12358" locus_tag="CPI83_20055" class="clusterblast-orf" id="dummy-1_h1_4_2"  />
</g>
<g id="a1_003"  >
<polygon points="326,90 346,90 351,85 346,80 326,80 326,90 " style="fill:white; stroke-width:1; stroke:black; " description="&lt;b&gt;CPI83_20050&lt;/b&gt;&lt;br&gt;hypothetical protein&lt;br&gt;Location: 12361 - 10997" locus_tag="CPI83_20050" class="clusterblast-orf" id="dummy-1_h1_4_3"  />
</g>
<g id="a1_004"  >
<polygon points="351,85 356,80 377,80 377,90 356,90 351,85 " style="fill:white; stroke-width:1; stroke:black; " description="&lt;b&gt;CPI83_20045&lt;/b&gt;&lt;br&gt;C4-dicarboxylate transporter DctA&lt;br&gt;Location: 11019 - 9613" locus_tag="CPI83_20045" class="clusterblast-orf" id="dummy-1_h1_4_4"  />
</g>
<g id="a1_005"  >
<polygon points="381,90 381,90 386,85 381,80 381,80 381,90 " style="fill:white; stroke-width:1; stroke:black; " description="&lt;b&gt;CPI83_20040&lt;/b&gt;&lt;br&gt;GlsB/YeaQ/YmgE family stress response membrane protein&lt;br&gt;Location: 9424 - 9164" locus_tag="CPI83_20040" class="clusterblast-orf" id="dummy-1_h1_4_5"  />
</g>
<g id="a1_006"  >
<polygon points="388,85 393,80 402,80 402,90 393,90 388,85 " style="fill:white; stroke-width:1; stroke:black; " description="&lt;b&gt;CPI83_20035&lt;/b&gt;&lt;br&gt;GTP pyrophosphokinase&lt;br&gt;Location: 9006 - 8260" locus_tag="CPI83_20035" class="clusterblast-orf" id="dummy-1_h1_4_6"  />
</g>
<g id="a1_007"  >
<polygon points="403,85 408,80 415,80 415,90 408,90 403,85 " style="fill:white; stroke-width:1; stroke:black; " description="&lt;b&gt;CPI83_20030&lt;/b&gt;&lt;br&gt;TetR/AcrR family transcriptional regulator&lt;br&gt;Location: 8211 - 7612" locus_tag="CPI83_20030" class="clusterblast-orf" id="dummy-1_h1_4_7"  />
</g>
<g id="a1_008"  >
<polygon points="416,90 441,90 446,85 441,80 416,80 416,90 " style="fill:white; stroke-width:1; stroke:black; " description="&lt;b&gt;CPI83_20025&lt;/b&gt;&lt;br&gt;methylcrotonoyl-CoA carboxylase&lt;br&gt;Location: 7513 - 5924" locus_tag="CPI83_20025" class="clusterblast-orf" id="dummy-1_h1_4_8"  />
</g>
<g id="a1_009"  >
<polygon points="446,90 479,90 484,85 479,80 446,80 446,90 " style="fill:white; stroke-width:1; stroke:black; " description="&lt;b&gt;CPI83_20020&lt;/b&gt;&lt;br&gt;acetyl/propionyl/methylcrotonyl-CoA carboxylase subunit alpha&lt;br&gt;Location: 5918 - 3879" locus_tag="CPI83_20020" class="clusterblast-orf" id="dummy-1_h1_4_9"  />
</g>
<g id="a1_0010"  >
<polygon points="484,90 501,90 506,85 501,80 484,80 484,90 " style="fill:white; stroke-width:1; stroke:black; " description="&lt;b&gt;CPI83_20015&lt;/b&gt;&lt;br&gt;acyl-CoA dehydrogenase&lt;br&gt;Location: 3879 - 2716" locus_tag="CPI83_20015" class="clusterblast-orf" id="dummy-1_h1_4_10"  />
</g>
<g id="a1_0011"  >
<polygon points="506,90 510,90 515,85 510,80 506,80 506,90 " style="fill:white; stroke-width:1; stroke:black; " description="&lt;b&gt;CPI83_20010&lt;/b&gt;&lt;br&gt;dehydratase&lt;br&gt;Location: 2719 - 2231" locus_tag="CPI83_20010" class="clusterblast-orf" id="dummy-1_h1_4_11"  />
</g>
<g id="a1_0012"  >
<polygon points="515,90 526,90 531,85 526,80 515,80 515,90 " style="fill:white; stroke-width:1; stroke:black; " description="&lt;b&gt;CPI83_20005&lt;/b&gt;&lt;br&gt;CoA ester lyase&lt;br&gt;Location: 2234 - 1407" locus_tag="CPI83_20005" class="clusterblast-orf" id="dummy-1_h1_4_12"  />
</g>
<g id="a1_0013"  >
<polygon points="531,90 540,90 545,85 540,80 531,80 531,90 " style="fill:#d81515; stroke-width:1; stroke:black; " description="&lt;b&gt;CPI83_20000&lt;/b&gt;&lt;br&gt;CoA transferase subunit A&lt;br&gt;Location: 1403 - 648&lt;br&gt;&lt;br&gt;&lt;b&gt;BlastP hit with ctg21_122&lt;/b&gt;&lt;br&gt;Percentage identity: 48&lt;br&gt;Percentage coverage: 101&lt;br&gt;BLAST bit score: 212&lt;br&gt;E-value: 1.09e-68" locus_tag="CPI83_20000" class="clusterblast-orf" id="dummy-1_h1_4_13"  />
</g>
<g id="a1_0014"  >
<polygon points="545,90 552,90 557,85 552,80 545,80 545,90 " style="fill:#15d8d8; stroke-width:1; stroke:black; " description="&lt;b&gt;CPI83_19995&lt;/b&gt;&lt;br&gt;succinyl-CoA--3-ketoacid-CoA transferase&lt;br&gt;Location: 627 - 1&lt;br&gt;&lt;br&gt;&lt;b&gt;BlastP hit with ctg21_123&lt;/b&gt;&lt;br&gt;Percentage identity: 61&lt;br&gt;Percentage coverage: 92&lt;br&gt;BLAST bit score: 248&lt;br&gt;E-value: 7.25e-84" locus_tag="CPI83_19995" class="clusterblast-orf" id="dummy-1_h1_4_14"  />
</g>
</svg>
