<svg xmlns="http://www.w3.org/2000/svg" xmlns:xlink="http://www.w3.org/1999/xlink" version="1.1" x="0" y="0" height="230" width="800" viewBox="0 0 800 230" preserveAspectRatio="none"  >
<g label="Query sequence" class="clusterblast-cluster"  >
<text x="5" y="20" class="clusterblast-acc"  >
Query sequence</text>
<line x1="10" y1="35" x2="778.0" y2="35" style="stroke-width:1; stroke:grey; "  />
<polygon points="212,35 217,30 220,30 220,40 217,40 212,35 " style="fill:white; stroke-width:1; stroke:black; " description="&lt;b&gt;ctg7_22&lt;/b&gt;&lt;br&gt;ctg7 22&lt;br&gt;Location: 23276 - 23687" locus_tag="ctg7_22" class="clusterblast-orf" id="dummy-1_q0_0_all"  />
<polygon points="220,35 225,30 253,30 253,40 225,40 220,35 " style="fill:white; stroke-width:1; stroke:black; " description="&lt;b&gt;ctg7_23&lt;/b&gt;&lt;br&gt;ctg7 23&lt;br&gt;Location: 23686 - 25372" locus_tag="ctg7_23" class="clusterblast-orf" id="dummy-1_q1_0_all"  />
<polygon points="254,40 264,40 269,35 264,30 254,30 254,40 " style="fill:white; stroke-width:1; stroke:black; " description="&lt;b&gt;ctg7_24&lt;/b&gt;&lt;br&gt;ctg7 24&lt;br&gt;Location: 25434 - 26232" locus_tag="ctg7_24" class="clusterblast-orf" id="dummy-1_q2_0_all"  />
<polygon points="270,35 274,30 274,40 270,35 " style="fill:white; stroke-width:1; stroke:black; " description="&lt;b&gt;ctg7_25&lt;/b&gt;&lt;br&gt;ctg7 25&lt;br&gt;Location: 26251 - 26461" locus_tag="ctg7_25" class="clusterblast-orf" id="dummy-1_q3_0_all"  />
<polygon points="274,35 279,30 298,30 298,40 279,40 274,35 " style="fill:white; stroke-width:1; stroke:black; " description="&lt;b&gt;ctg7_26&lt;/b&gt;&lt;br&gt;ctg7 26&lt;br&gt;Location: 26457 - 27720" locus_tag="ctg7_26" class="clusterblast-orf" id="dummy-1_q4_0_all"  />
<polygon points="301,40 324,40 329,35 324,30 301,30 301,40 " style="fill:white; stroke-width:1; stroke:black; " description="&lt;b&gt;ctg7_27&lt;/b&gt;&lt;br&gt;ctg7 27&lt;br&gt;Location: 27837 - 29277" locus_tag="ctg7_27" class="clusterblast-orf" id="dummy-1_q5_0_all"  />
<polygon points="330,40 333,40 338,35 333,30 330,30 330,40 " style="fill:white; stroke-width:1; stroke:black; " description="&lt;b&gt;ctg7_28&lt;/b&gt;&lt;br&gt;ctg7 28&lt;br&gt;Location: 29357 - 29765" locus_tag="ctg7_28" class="clusterblast-orf" id="dummy-1_q6_0_all"  />
<polygon points="338,40 345,40 350,35 345,30 338,30 338,40 " style="fill:white; stroke-width:1; stroke:black; " description="&lt;b&gt;ctg7_29&lt;/b&gt;&lt;br&gt;ctg7 29&lt;br&gt;Location: 29764 - 30379" locus_tag="ctg7_29" class="clusterblast-orf" id="dummy-1_q7_0_all"  />
<polygon points="350,40 379,40 384,35 379,30 350,30 350,40 " style="fill:white; stroke-width:1; stroke:black; " description="&lt;b&gt;ctg7_30&lt;/b&gt;&lt;br&gt;ctg7 30&lt;br&gt;Location: 30375 - 32091" locus_tag="ctg7_30" class="clusterblast-orf" id="dummy-1_q8_0_all"  />
<polygon points="384,35 389,30 405,30 405,40 389,40 384,35 " style="fill:white; stroke-width:1; stroke:black; " description="&lt;b&gt;ctg7_31&lt;/b&gt;&lt;br&gt;ctg7 31&lt;br&gt;Location: 32104 - 33181" locus_tag="ctg7_31" class="clusterblast-orf" id="dummy-1_q9_0_all"  />
<polygon points="405,35 410,30 425,30 425,40 410,40 405,35 " style="fill:white; stroke-width:1; stroke:black; " description="&lt;b&gt;ctg7_32&lt;/b&gt;&lt;br&gt;ctg7 32&lt;br&gt;Location: 33186 - 34170" locus_tag="ctg7_32" class="clusterblast-orf" id="dummy-1_q10_0_all"  />
<polygon points="426,40 438,40 443,35 438,30 426,30 426,40 " style="fill:white; stroke-width:1; stroke:black; " description="&lt;b&gt;ctg7_33&lt;/b&gt;&lt;br&gt;ctg7 33&lt;br&gt;Location: 34219 - 35125" locus_tag="ctg7_33" class="clusterblast-orf" id="dummy-1_q11_0_all"  />
<polygon points="447,35 452,30 485,30 485,40 452,40 447,35 " style="fill:white; stroke-width:1; stroke:black; " description="&lt;b&gt;ctg7_34&lt;/b&gt;&lt;br&gt;ctg7 34&lt;br&gt;Location: 35323 - 37246" locus_tag="ctg7_34" class="clusterblast-orf" id="dummy-1_q12_0_all"  />
<polygon points="486,40 490,40 495,35 490,30 486,30 486,40 " style="fill:white; stroke-width:1; stroke:black; " description="&lt;b&gt;ctg7_35&lt;/b&gt;&lt;br&gt;ctg7 35&lt;br&gt;Location: 37290 - 37791" locus_tag="ctg7_35" class="clusterblast-orf" id="dummy-1_q13_0_all"  />
<polygon points="497,40 500,40 505,35 500,30 497,30 497,40 " style="fill:white; stroke-width:1; stroke:black; " description="&lt;b&gt;ctg7_36&lt;/b&gt;&lt;br&gt;ctg7 36&lt;br&gt;Location: 37850 - 38294" locus_tag="ctg7_36" class="clusterblast-orf" id="dummy-1_q14_0_all"  />
<polygon points="506,40 510,35 506,30 506,40 " style="fill:white; stroke-width:1; stroke:black; " description="&lt;b&gt;ctg7_37&lt;/b&gt;&lt;br&gt;ctg7 37&lt;br&gt;Location: 38321 - 38534" locus_tag="ctg7_37" class="clusterblast-orf" id="dummy-1_q15_0_all"  />
<polygon points="511,35 516,30 533,30 533,40 516,40 511,35 " style="fill:#d81515; stroke-width:1; stroke:black; " description="&lt;b&gt;ctg7_38&lt;/b&gt;&lt;br&gt;ctg7 38&lt;br&gt;Location: 38591 - 39731" locus_tag="ctg7_38" class="clusterblast-orf" id="dummy-1_q16_0_all"  />
<polygon points="533,35 538,30 547,30 547,40 538,40 533,35 " style="fill:#15d8d8; stroke-width:1; stroke:black; " description="&lt;b&gt;ctg7_39&lt;/b&gt;&lt;br&gt;ctg7 39&lt;br&gt;Location: 39727 - 40411" locus_tag="ctg7_39" class="clusterblast-orf" id="dummy-1_q17_0_all"  />
<polygon points="547,35 552,30 568,30 568,40 552,40 547,35 " style="fill:white; stroke-width:1; stroke:black; " description="&lt;b&gt;ctg7_40&lt;/b&gt;&lt;br&gt;ctg7 40&lt;br&gt;Location: 40424 - 41492" locus_tag="ctg7_40" class="clusterblast-orf" id="dummy-1_q18_0_all"  />
</g>
<g label="BGC0001431" description="BGC0001431_c1: myxochromide S (16% of genes show similarity), NRP:Cyclic depsipeptide+Polyketide:Iterative type I polyketide" class="clusterblast-cluster"  >
<text x="5" y="70" class="clusterblast-acc"  >
<a xlink:href="https://mibig.secondarymetabolites.org/go/BGC0001431/1" target="_blank">BGC0001431</a>: myxochromide S                                                                   (16% of genes show similarity), NRP:Cyclic depsipeptide+Polyketide:Iterative type I polyketide</text>
<line x1="10" y1="85" x2="778.0" y2="85" style="stroke-width:1; stroke:grey; "  />
</g>
<g id="a1_000"  >
<polygon points="0,85 5,80 42,80 42,90 5,90 0,85 " style="fill:white; stroke-width:1; stroke:black; " description="&lt;b&gt;APZ78840.1&lt;/b&gt;&lt;br&gt;cation/H(+) antiporter&lt;br&gt;Location: 1 - 2151" locus_tag="APZ78840.1" class="clusterblast-orf" id="dummy-1_h1_2_0"  />
</g>
<g id="a1_001"  >
<polygon points="44,85 49,80 67,80 67,90 49,90 44,85 " style="fill:#d81515; stroke-width:1; stroke:black; " description="&lt;b&gt;APZ78841.1&lt;/b&gt;&lt;br&gt;hydrolase&lt;br&gt;Location: 2272 - 3477&lt;br&gt;&lt;br&gt;&lt;b&gt;BlastP hit with ctg7_38&lt;/b&gt;&lt;br&gt;Percentage identity: 46&lt;br&gt;Percentage coverage: 94&lt;br&gt;BLAST bit score: 308&lt;br&gt;E-value: 3.37e-102" locus_tag="APZ78841.1" class="clusterblast-orf" id="dummy-1_h1_2_1"  />
</g>
<g id="a1_002"  >
<polygon points="68,85 73,80 117,80 117,90 73,90 68,85 " style="fill:white; stroke-width:1; stroke:black; " description="&lt;b&gt;APZ78842.1&lt;/b&gt;&lt;br&gt;ABC transporter permease&lt;br&gt;Location: 3481 - 6021" locus_tag="APZ78842.1" class="clusterblast-orf" id="dummy-1_h1_2_2"  />
</g>
<g id="a1_003"  >
<polygon points="117,85 122,80 131,80 131,90 122,90 117,85 " style="fill:#15d8d8; stroke-width:1; stroke:black; " description="&lt;b&gt;APZ78843.1&lt;/b&gt;&lt;br&gt;ABC transporter ATP-binding protein&lt;br&gt;Location: 6018 - 6719&lt;br&gt;&lt;br&gt;&lt;b&gt;BlastP hit with ctg7_39&lt;/b&gt;&lt;br&gt;Percentage identity: 55&lt;br&gt;Percentage coverage: 97&lt;br&gt;BLAST bit score: 228&lt;br&gt;E-value: 1.42e-75" locus_tag="APZ78843.1" class="clusterblast-orf" id="dummy-1_h1_2_3"  />
</g>
<g id="a1_004"  >
<polygon points="138,90 260,90 265,85 260,80 138,80 138,90 " style="fill:white; stroke-width:1; stroke:black; " description="&lt;b&gt;APZ78844.1&lt;/b&gt;&lt;br&gt;polyketide synthase&lt;br&gt;Location: 7084 - 13584" locus_tag="APZ78844.1" class="clusterblast-orf" id="dummy-1_h1_2_4"  />
</g>
<g id="a1_005"  >
<polygon points="265,90 439,90 444,85 439,80 265,80 265,90 " style="fill:white; stroke-width:1; stroke:black; " description="&lt;b&gt;APZ78845.1&lt;/b&gt;&lt;br&gt;nonribosomal peptide synthetase&lt;br&gt;Location: 13581 - 22754" locus_tag="APZ78845.1" class="clusterblast-orf" id="dummy-1_h1_2_5"  />
</g>
<g id="a1_006"  >
<polygon points="445,90 702,90 707,85 702,80 445,80 445,90 " style="fill:white; stroke-width:1; stroke:black; " description="&lt;b&gt;APZ78846.1&lt;/b&gt;&lt;br&gt;nonribosomal peptide synthetase&lt;br&gt;Location: 22789 - 36195" locus_tag="APZ78846.1" class="clusterblast-orf" id="dummy-1_h1_2_6"  />
</g>
<g id="a1_007"  >
<polygon points="707,90 714,90 719,85 714,80 707,80 707,90 " style="fill:white; stroke-width:1; stroke:black; " description="&lt;b&gt;APZ78847.1&lt;/b&gt;&lt;br&gt;membrane protein&lt;br&gt;Location: 36199 - 36807" locus_tag="APZ78847.1" class="clusterblast-orf" id="dummy-1_h1_2_7"  />
</g>
<g id="a1_008"  >
<polygon points="716,85 721,80 732,80 732,90 721,90 716,85 " style="fill:white; stroke-width:1; stroke:black; " description="&lt;b&gt;APZ78848.1&lt;/b&gt;&lt;br&gt;alpha/beta hydrolase&lt;br&gt;Location: 36661 - 37479" locus_tag="APZ78848.1" class="clusterblast-orf" id="dummy-1_h1_2_8"  />
</g>
<g id="a1_009"  >
<polygon points="736,90 746,90 751,85 746,80 736,80 736,90 " style="fill:white; stroke-width:1; stroke:black; " description="&lt;b&gt;APZ78849.1&lt;/b&gt;&lt;br&gt;uncharacterized protein&lt;br&gt;Location: 37649 - 38407" locus_tag="APZ78849.1" class="clusterblast-orf" id="dummy-1_h1_2_9"  />
</g>
<g id="a1_0010"  >
<polygon points="751,90 764,90 769,85 764,80 751,80 751,90 " style="fill:white; stroke-width:1; stroke:black; " description="&lt;b&gt;APZ78850.1&lt;/b&gt;&lt;br&gt;coproporphyrinogen III oxidase&lt;br&gt;Location: 38416 - 39339" locus_tag="APZ78850.1" class="clusterblast-orf" id="dummy-1_h1_2_10"  />
</g>
<g id="a1_0011"  >
<polygon points="769,90 775,90 780,85 775,80 769,80 769,90 " style="fill:white; stroke-width:1; stroke:black; " description="&lt;b&gt;APZ78851.1&lt;/b&gt;&lt;br&gt;uncharacterized protein&lt;br&gt;Location: 39343 - 39885" locus_tag="APZ78851.1" class="clusterblast-orf" id="dummy-1_h1_2_11"  />
</g>
</svg>
