<svg xmlns="http://www.w3.org/2000/svg" xmlns:xlink="http://www.w3.org/1999/xlink" version="1.1" x="0" y="0" height="50" width="800" viewBox="0 0 800 50" preserveAspectRatio="none"  >
<g label="Query sequence" class="clusterblast-cluster"  >
<text x="5" y="20" class="clusterblast-acc"  >
Query sequence</text>
<line x1="10" y1="35" x2="778.0" y2="35" style="stroke-width:1; stroke:grey; "  />
<polygon points="0,40 31,40 36,35 31,30 0,30 0,40 " style="fill:white; stroke-width:1; stroke:black; " description="&lt;b&gt;ctg49_52&lt;/b&gt;&lt;br&gt;ctg49 52&lt;br&gt;Location: 53083 - 53602" locus_tag="ctg49_52" class="clusterblast-orf" id="knownclusterblast-1_q0_0_all"  />
<polygon points="36,40 63,40 68,35 63,30 36,30 36,40 " style="fill:white; stroke-width:1; stroke:black; " description="&lt;b&gt;ctg49_53&lt;/b&gt;&lt;br&gt;ctg49 53&lt;br&gt;Location: 53598 - 54060" locus_tag="ctg49_53" class="clusterblast-orf" id="knownclusterblast-1_q1_0_all"  />
<polygon points="71,40 179,40 184,35 179,30 71,30 71,40 " style="fill:white; stroke-width:1; stroke:black; " description="&lt;b&gt;ctg49_54&lt;/b&gt;&lt;br&gt;ctg49 54&lt;br&gt;Location: 54102 - 55731" locus_tag="ctg49_54" class="clusterblast-orf" id="knownclusterblast-1_q2_0_all"  />
<polygon points="183,40 193,40 198,35 193,30 183,30 183,40 " style="fill:white; stroke-width:1; stroke:black; " description="&lt;b&gt;ctg49_55&lt;/b&gt;&lt;br&gt;ctg49 55&lt;br&gt;Location: 55727 - 55934" locus_tag="ctg49_55" class="clusterblast-orf" id="knownclusterblast-1_q3_0_all"  />
<polygon points="199,35 204,30 326,30 326,40 204,40 199,35 " style="fill:white; stroke-width:1; stroke:black; " description="&lt;b&gt;ctg49_56&lt;/b&gt;&lt;br&gt;ctg49 56&lt;br&gt;Location: 55948 - 57793" locus_tag="ctg49_56" class="clusterblast-orf" id="knownclusterblast-1_q4_0_all"  />
<polygon points="341,40 449,40 454,35 449,30 341,30 341,40 " style="fill:white; stroke-width:1; stroke:black; " description="&lt;b&gt;ctg49_57&lt;/b&gt;&lt;br&gt;ctg49 57&lt;br&gt;Location: 58008 - 59640" locus_tag="ctg49_57" class="clusterblast-orf" id="knownclusterblast-1_q5_0_all"  />
<polygon points="490,35 495,30 518,30 518,40 495,40 490,35 " style="fill:white; stroke-width:1; stroke:black; " description="&lt;b&gt;ctg49_58&lt;/b&gt;&lt;br&gt;ctg49 58&lt;br&gt;Location: 60152 - 60554" locus_tag="ctg49_58" class="clusterblast-orf" id="knownclusterblast-1_q6_0_all"  />
<polygon points="533,40 562,40 567,35 562,30 533,30 533,40 " style="fill:white; stroke-width:1; stroke:black; " description="&lt;b&gt;ctg49_59&lt;/b&gt;&lt;br&gt;ctg49 59&lt;br&gt;Location: 60779 - 61271" locus_tag="ctg49_59" class="clusterblast-orf" id="knownclusterblast-1_q7_0_all"  />
<polygon points="567,35 572,30 631,30 631,40 572,40 567,35 " style="fill:white; stroke-width:1; stroke:black; " description="&lt;b&gt;ctg49_60&lt;/b&gt;&lt;br&gt;ctg49 60&lt;br&gt;Location: 61265 - 62192" locus_tag="ctg49_60" class="clusterblast-orf" id="knownclusterblast-1_q8_0_all"  />
<polygon points="632,35 637,30 681,30 681,40 637,40 632,35 " style="fill:white; stroke-width:1; stroke:black; " description="&lt;b&gt;ctg49_61&lt;/b&gt;&lt;br&gt;ctg49 61&lt;br&gt;Location: 62208 - 62907" locus_tag="ctg49_61" class="clusterblast-orf" id="knownclusterblast-1_q9_0_all"  />
<polygon points="683,35 688,30 721,30 721,40 688,40 683,35 " style="fill:white; stroke-width:1; stroke:black; " description="&lt;b&gt;ctg49_62&lt;/b&gt;&lt;br&gt;ctg49 62&lt;br&gt;Location: 62935 - 63487" locus_tag="ctg49_62" class="clusterblast-orf" id="knownclusterblast-1_q10_0_all"  />
<polygon points="723,40 775,40 780,35 775,30 723,30 723,40 " style="fill:white; stroke-width:1; stroke:black; " description="&lt;b&gt;ctg49_63&lt;/b&gt;&lt;br&gt;ctg49 63&lt;br&gt;Location: 63524 - 64343" locus_tag="ctg49_63" class="clusterblast-orf" id="knownclusterblast-1_q11_0_all"  />
</g>
</svg>
