<svg xmlns="http://www.w3.org/2000/svg" xmlns:xlink="http://www.w3.org/1999/xlink" version="1.1" x="0" y="0" height="50" width="800" viewBox="0 0 800 50" preserveAspectRatio="none"  >
<g label="Query sequence" class="clusterblast-cluster"  >
<text x="5" y="20" class="clusterblast-acc"  >
Query sequence</text>
<line x1="10" y1="35" x2="778.0" y2="35" style="stroke-width:1; stroke:grey; "  />
<polygon points="0,35 5,30 21,30 21,40 5,40 0,35 " style="fill:white; stroke-width:1; stroke:black; " description="&lt;b&gt;ctg14_45&lt;/b&gt;&lt;br&gt;ctg14 45&lt;br&gt;Location: 45175 - 46312" locus_tag="ctg14_45" class="clusterblast-orf" id="knownclusterblast-1_q0_0_all"  />
<polygon points="22,35 27,30 31,30 31,40 27,40 22,35 " style="fill:white; stroke-width:1; stroke:black; " description="&lt;b&gt;ctg14_46&lt;/b&gt;&lt;br&gt;ctg14 46&lt;br&gt;Location: 46379 - 46835" locus_tag="ctg14_46" class="clusterblast-orf" id="knownclusterblast-1_q1_0_all"  />
<polygon points="32,35 37,30 43,30 43,40 37,40 32,35 " style="fill:white; stroke-width:1; stroke:black; " description="&lt;b&gt;ctg14_47&lt;/b&gt;&lt;br&gt;ctg14 47&lt;br&gt;Location: 46881 - 47463" locus_tag="ctg14_47" class="clusterblast-orf" id="knownclusterblast-1_q2_0_all"  />
<polygon points="43,35 48,30 51,30 51,40 48,40 43,35 " style="fill:white; stroke-width:1; stroke:black; " description="&lt;b&gt;ctg14_48&lt;/b&gt;&lt;br&gt;ctg14 48&lt;br&gt;Location: 47470 - 47881" locus_tag="ctg14_48" class="clusterblast-orf" id="knownclusterblast-1_q3_0_all"  />
<polygon points="50,35 55,30 73,30 73,40 55,40 50,35 " style="fill:white; stroke-width:1; stroke:black; " description="&lt;b&gt;ctg14_49&lt;/b&gt;&lt;br&gt;ctg14 49&lt;br&gt;Location: 47864 - 49070" locus_tag="ctg14_49" class="clusterblast-orf" id="knownclusterblast-1_q4_0_all"  />
<polygon points="74,35 79,30 83,30 83,40 79,40 74,35 " style="fill:white; stroke-width:1; stroke:black; " description="&lt;b&gt;ctg14_50&lt;/b&gt;&lt;br&gt;ctg14 50&lt;br&gt;Location: 49134 - 49584" locus_tag="ctg14_50" class="clusterblast-orf" id="knownclusterblast-1_q5_0_all"  />
<polygon points="83,35 88,30 107,30 107,40 88,40 83,35 " style="fill:white; stroke-width:1; stroke:black; " description="&lt;b&gt;ctg14_51&lt;/b&gt;&lt;br&gt;ctg14 51&lt;br&gt;Location: 49594 - 50878" locus_tag="ctg14_51" class="clusterblast-orf" id="knownclusterblast-1_q6_0_all"  />
<polygon points="110,40 117,40 122,35 117,30 110,30 110,40 " style="fill:white; stroke-width:1; stroke:black; " description="&lt;b&gt;ctg14_52&lt;/b&gt;&lt;br&gt;ctg14 52&lt;br&gt;Location: 51002 - 51626" locus_tag="ctg14_52" class="clusterblast-orf" id="knownclusterblast-1_q7_0_all"  />
<polygon points="122,35 127,30 135,30 135,40 127,40 122,35 " style="fill:white; stroke-width:1; stroke:black; " description="&lt;b&gt;ctg14_53&lt;/b&gt;&lt;br&gt;ctg14 53&lt;br&gt;Location: 51631 - 52330" locus_tag="ctg14_53" class="clusterblast-orf" id="knownclusterblast-1_q8_0_all"  />
<polygon points="135,35 140,30 146,30 146,40 140,40 135,35 " style="fill:white; stroke-width:1; stroke:black; " description="&lt;b&gt;ctg14_54&lt;/b&gt;&lt;br&gt;ctg14 54&lt;br&gt;Location: 52340 - 52943" locus_tag="ctg14_54" class="clusterblast-orf" id="knownclusterblast-1_q9_0_all"  />
<polygon points="151,35 156,30 160,30 160,40 156,40 151,35 " style="fill:white; stroke-width:1; stroke:black; " description="&lt;b&gt;ctg14_55&lt;/b&gt;&lt;br&gt;ctg14 55&lt;br&gt;Location: 53193 - 53643" locus_tag="ctg14_55" class="clusterblast-orf" id="knownclusterblast-1_q10_0_all"  />
<polygon points="163,35 168,30 182,30 182,40 168,40 163,35 " style="fill:white; stroke-width:1; stroke:black; " description="&lt;b&gt;ctg14_56&lt;/b&gt;&lt;br&gt;ctg14 56&lt;br&gt;Location: 53804 - 54827" locus_tag="ctg14_56" class="clusterblast-orf" id="knownclusterblast-1_q11_0_all"  />
<polygon points="183,40 191,40 196,35 191,30 183,30 183,40 " style="fill:white; stroke-width:1; stroke:black; " description="&lt;b&gt;ctg14_57&lt;/b&gt;&lt;br&gt;ctg14 57&lt;br&gt;Location: 54898 - 55552" locus_tag="ctg14_57" class="clusterblast-orf" id="knownclusterblast-1_q12_0_all"  />
<polygon points="196,40 209,40 214,35 209,30 196,30 196,40 " style="fill:white; stroke-width:1; stroke:black; " description="&lt;b&gt;ctg14_58&lt;/b&gt;&lt;br&gt;ctg14 58&lt;br&gt;Location: 55548 - 56526" locus_tag="ctg14_58" class="clusterblast-orf" id="knownclusterblast-1_q13_0_all"  />
<polygon points="214,35 219,30 240,30 240,40 219,40 214,35 " style="fill:white; stroke-width:1; stroke:black; " description="&lt;b&gt;ctg14_59&lt;/b&gt;&lt;br&gt;ctg14 59&lt;br&gt;Location: 56539 - 57886" locus_tag="ctg14_59" class="clusterblast-orf" id="knownclusterblast-1_q14_0_all"  />
<polygon points="241,35 246,30 271,30 271,40 246,40 241,35 " style="fill:white; stroke-width:1; stroke:black; " description="&lt;b&gt;ctg14_60&lt;/b&gt;&lt;br&gt;ctg14 60&lt;br&gt;Location: 57926 - 59552" locus_tag="ctg14_60" class="clusterblast-orf" id="knownclusterblast-1_q15_0_all"  />
<polygon points="274,40 280,40 285,35 280,30 274,30 274,40 " style="fill:white; stroke-width:1; stroke:black; " description="&lt;b&gt;ctg14_61&lt;/b&gt;&lt;br&gt;ctg14 61&lt;br&gt;Location: 59671 - 60304" locus_tag="ctg14_61" class="clusterblast-orf" id="knownclusterblast-1_q16_0_all"  />
<polygon points="286,40 304,40 309,35 304,30 286,30 286,40 " style="fill:white; stroke-width:1; stroke:black; " description="&lt;b&gt;ctg14_62&lt;/b&gt;&lt;br&gt;ctg14 62&lt;br&gt;Location: 60339 - 61554" locus_tag="ctg14_62" class="clusterblast-orf" id="knownclusterblast-1_q17_0_all"  />
<polygon points="308,40 314,40 319,35 314,30 308,30 308,40 " style="fill:white; stroke-width:1; stroke:black; " description="&lt;b&gt;ctg14_63&lt;/b&gt;&lt;br&gt;ctg14 63&lt;br&gt;Location: 61496 - 62081" locus_tag="ctg14_63" class="clusterblast-orf" id="knownclusterblast-1_q18_0_all"  />
<polygon points="319,35 324,30 328,30 328,40 324,40 319,35 " style="fill:white; stroke-width:1; stroke:black; " description="&lt;b&gt;ctg14_64&lt;/b&gt;&lt;br&gt;ctg14 64&lt;br&gt;Location: 62102 - 62555" locus_tag="ctg14_64" class="clusterblast-orf" id="knownclusterblast-1_q19_0_all"  />
<polygon points="328,35 333,30 354,30 354,40 333,40 328,35 " style="fill:white; stroke-width:1; stroke:black; " description="&lt;b&gt;ctg14_65&lt;/b&gt;&lt;br&gt;ctg14 65&lt;br&gt;Location: 62559 - 63942" locus_tag="ctg14_65" class="clusterblast-orf" id="knownclusterblast-1_q20_0_all"  />
<polygon points="354,35 359,30 406,30 406,40 359,40 354,35 " style="fill:white; stroke-width:1; stroke:black; " description="&lt;b&gt;ctg14_66&lt;/b&gt;&lt;br&gt;ctg14 66&lt;br&gt;Location: 63938 - 66701" locus_tag="ctg14_66" class="clusterblast-orf" id="knownclusterblast-1_q21_0_all"  />
<polygon points="406,35 411,30 411,30 411,40 411,40 406,35 " style="fill:white; stroke-width:1; stroke:black; " description="&lt;b&gt;ctg14_67&lt;/b&gt;&lt;br&gt;ctg14 67&lt;br&gt;Location: 66705 - 66942" locus_tag="ctg14_67" class="clusterblast-orf" id="knownclusterblast-1_q22_0_all"  />
<polygon points="411,35 415,30 415,40 411,35 " style="fill:white; stroke-width:1; stroke:black; " description="&lt;b&gt;ctg14_68&lt;/b&gt;&lt;br&gt;ctg14 68&lt;br&gt;Location: 66955 - 67138" locus_tag="ctg14_68" class="clusterblast-orf" id="knownclusterblast-1_q23_0_all"  />
<polygon points="415,35 420,30 422,30 422,40 420,40 415,35 " style="fill:white; stroke-width:1; stroke:black; " description="&lt;b&gt;ctg14_69&lt;/b&gt;&lt;br&gt;ctg14 69&lt;br&gt;Location: 67142 - 67523" locus_tag="ctg14_69" class="clusterblast-orf" id="knownclusterblast-1_q24_0_all"  />
<polygon points="422,35 427,30 440,30 440,40 427,40 422,35 " style="fill:white; stroke-width:1; stroke:black; " description="&lt;b&gt;ctg14_70&lt;/b&gt;&lt;br&gt;ctg14 70&lt;br&gt;Location: 67532 - 68471" locus_tag="ctg14_70" class="clusterblast-orf" id="knownclusterblast-1_q25_0_all"  />
<polygon points="444,35 449,30 474,30 474,40 449,40 444,35 " style="fill:white; stroke-width:1; stroke:black; " description="&lt;b&gt;ctg14_71&lt;/b&gt;&lt;br&gt;ctg14 71&lt;br&gt;Location: 68703 - 70296" locus_tag="ctg14_71" class="clusterblast-orf" id="knownclusterblast-1_q26_0_all"  />
<polygon points="474,35 479,30 487,30 487,40 479,40 474,35 " style="fill:white; stroke-width:1; stroke:black; " description="&lt;b&gt;ctg14_72&lt;/b&gt;&lt;br&gt;ctg14 72&lt;br&gt;Location: 70285 - 70963" locus_tag="ctg14_72" class="clusterblast-orf" id="knownclusterblast-1_q27_0_all"  />
<polygon points="487,35 492,30 496,30 496,40 492,40 487,35 " style="fill:white; stroke-width:1; stroke:black; " description="&lt;b&gt;ctg14_73&lt;/b&gt;&lt;br&gt;ctg14 73&lt;br&gt;Location: 70959 - 71430" locus_tag="ctg14_73" class="clusterblast-orf" id="knownclusterblast-1_q28_0_all"  />
<polygon points="498,40 519,40 524,35 519,30 498,30 498,40 " style="fill:white; stroke-width:1; stroke:black; " description="&lt;b&gt;ctg14_74&lt;/b&gt;&lt;br&gt;ctg14 74&lt;br&gt;Location: 71546 - 72923" locus_tag="ctg14_74" class="clusterblast-orf" id="knownclusterblast-1_q29_0_all"  />
<polygon points="524,35 529,30 568,30 568,40 529,40 524,35 " style="fill:white; stroke-width:1; stroke:black; " description="&lt;b&gt;ctg14_75&lt;/b&gt;&lt;br&gt;ctg14 75&lt;br&gt;Location: 72909 - 75237" locus_tag="ctg14_75" class="clusterblast-orf" id="knownclusterblast-1_q30_0_all"  />
<polygon points="568,35 573,30 587,30 587,40 573,40 568,35 " style="fill:white; stroke-width:1; stroke:black; " description="&lt;b&gt;ctg14_76&lt;/b&gt;&lt;br&gt;ctg14 76&lt;br&gt;Location: 75245 - 76271" locus_tag="ctg14_76" class="clusterblast-orf" id="knownclusterblast-1_q31_0_all"  />
<polygon points="588,35 593,30 618,30 618,40 593,40 588,35 " style="fill:white; stroke-width:1; stroke:black; " description="&lt;b&gt;ctg14_77&lt;/b&gt;&lt;br&gt;ctg14 77&lt;br&gt;Location: 76310 - 77930" locus_tag="ctg14_77" class="clusterblast-orf" id="knownclusterblast-1_q32_0_all"  />
<polygon points="619,35 624,30 641,30 641,40 624,40 619,35 " style="fill:white; stroke-width:1; stroke:black; " description="&lt;b&gt;ctg14_78&lt;/b&gt;&lt;br&gt;ctg14 78&lt;br&gt;Location: 77942 - 79118" locus_tag="ctg14_78" class="clusterblast-orf" id="knownclusterblast-1_q33_0_all"  />
<polygon points="642,35 647,30 663,30 663,40 647,40 642,35 " style="fill:white; stroke-width:1; stroke:black; " description="&lt;b&gt;ctg14_79&lt;/b&gt;&lt;br&gt;ctg14 79&lt;br&gt;Location: 79191 - 80298" locus_tag="ctg14_79" class="clusterblast-orf" id="knownclusterblast-1_q34_0_all"  />
<polygon points="665,40 677,40 682,35 677,30 665,30 665,40 " style="fill:white; stroke-width:1; stroke:black; " description="&lt;b&gt;ctg14_80&lt;/b&gt;&lt;br&gt;ctg14 80&lt;br&gt;Location: 80411 - 81314" locus_tag="ctg14_80" class="clusterblast-orf" id="knownclusterblast-1_q35_0_all"  />
<polygon points="682,35 687,30 711,30 711,40 687,40 682,35 " style="fill:white; stroke-width:1; stroke:black; " description="&lt;b&gt;ctg14_81&lt;/b&gt;&lt;br&gt;ctg14 81&lt;br&gt;Location: 81310 - 82831" locus_tag="ctg14_81" class="clusterblast-orf" id="knownclusterblast-1_q36_0_all"  />
<polygon points="711,35 716,30 740,30 740,40 716,40 711,35 " style="fill:white; stroke-width:1; stroke:black; " description="&lt;b&gt;ctg14_82&lt;/b&gt;&lt;br&gt;ctg14 82&lt;br&gt;Location: 82827 - 84390" locus_tag="ctg14_82" class="clusterblast-orf" id="knownclusterblast-1_q37_0_all"  />
<polygon points="742,40 756,40 761,35 756,30 742,30 742,40 " style="fill:white; stroke-width:1; stroke:black; " description="&lt;b&gt;ctg14_83&lt;/b&gt;&lt;br&gt;ctg14 83&lt;br&gt;Location: 84471 - 85464" locus_tag="ctg14_83" class="clusterblast-orf" id="knownclusterblast-1_q38_0_all"  />
<polygon points="761,40 775,40 780,35 775,30 761,30 761,40 " style="fill:white; stroke-width:1; stroke:black; " description="&lt;b&gt;ctg14_84&lt;/b&gt;&lt;br&gt;ctg14 84&lt;br&gt;Location: 85460 - 86465" locus_tag="ctg14_84" class="clusterblast-orf" id="knownclusterblast-1_q39_0_all"  />
</g>
</svg>
