<svg xmlns="http://www.w3.org/2000/svg" xmlns:xlink="http://www.w3.org/1999/xlink" version="1.1" x="0" y="0" height="230" width="800" viewBox="0 0 800 230" preserveAspectRatio="none"  >
<g label="Query sequence" class="clusterblast-cluster"  >
<text x="5" y="20" class="clusterblast-acc"  >
Query sequence</text>
<line x1="10" y1="35" x2="778.0" y2="35" style="stroke-width:1; stroke:grey; "  />
<polygon points="26,35 29,30 29,40 26,35 " style="fill:white; stroke-width:1; stroke:black; " description="&lt;b&gt;ctg21_86&lt;/b&gt;&lt;br&gt;ctg21 86&lt;br&gt;Location: 88234 - 88402" locus_tag="ctg21_86" class="clusterblast-orf" id="dummy-1_q0_0_all"  />
<polygon points="30,40 32,40 37,35 32,30 30,30 30,40 " style="fill:white; stroke-width:1; stroke:black; " description="&lt;b&gt;ctg21_87&lt;/b&gt;&lt;br&gt;ctg21 87&lt;br&gt;Location: 88461 - 88878" locus_tag="ctg21_87" class="clusterblast-orf" id="dummy-1_q1_0_all"  />
<polygon points="39,40 41,40 46,35 41,30 39,30 39,40 " style="fill:white; stroke-width:1; stroke:black; " description="&lt;b&gt;ctg21_88&lt;/b&gt;&lt;br&gt;ctg21 88&lt;br&gt;Location: 88991 - 89393" locus_tag="ctg21_88" class="clusterblast-orf" id="dummy-1_q2_0_all"  />
<polygon points="48,40 50,40 55,35 50,30 48,30 48,40 " style="fill:white; stroke-width:1; stroke:black; " description="&lt;b&gt;ctg21_89&lt;/b&gt;&lt;br&gt;ctg21 89&lt;br&gt;Location: 89477 - 89921" locus_tag="ctg21_89" class="clusterblast-orf" id="dummy-1_q3_0_all"  />
<polygon points="55,35 60,30 75,30 75,40 60,40 55,35 " style="fill:white; stroke-width:1; stroke:black; " description="&lt;b&gt;ctg21_90&lt;/b&gt;&lt;br&gt;ctg21 90&lt;br&gt;Location: 89923 - 91063" locus_tag="ctg21_90" class="clusterblast-orf" id="dummy-1_q4_0_all"  />
<polygon points="78,40 80,40 85,35 80,30 78,30 78,40 " style="fill:white; stroke-width:1; stroke:black; " description="&lt;b&gt;ctg21_91&lt;/b&gt;&lt;br&gt;ctg21 91&lt;br&gt;Location: 91191 - 91602" locus_tag="ctg21_91" class="clusterblast-orf" id="dummy-1_q5_0_all"  />
<polygon points="84,40 103,40 108,35 103,30 84,30 84,40 " style="fill:white; stroke-width:1; stroke:black; " description="&lt;b&gt;ctg21_92&lt;/b&gt;&lt;br&gt;ctg21 92&lt;br&gt;Location: 91570 - 92926" locus_tag="ctg21_92" class="clusterblast-orf" id="dummy-1_q6_0_all"  />
<polygon points="108,40 112,40 117,35 112,30 108,30 108,40 " style="fill:white; stroke-width:1; stroke:black; " description="&lt;b&gt;ctg21_93&lt;/b&gt;&lt;br&gt;ctg21 93&lt;br&gt;Location: 92926 - 93424" locus_tag="ctg21_93" class="clusterblast-orf" id="dummy-1_q7_0_all"  />
<polygon points="117,40 120,40 125,35 120,30 117,30 117,40 " style="fill:white; stroke-width:1; stroke:black; " description="&lt;b&gt;ctg21_94&lt;/b&gt;&lt;br&gt;ctg21 94&lt;br&gt;Location: 93442 - 93916" locus_tag="ctg21_94" class="clusterblast-orf" id="dummy-1_q8_0_all"  />
<polygon points="125,40 147,40 152,35 147,30 125,30 125,40 " style="fill:white; stroke-width:1; stroke:black; " description="&lt;b&gt;ctg21_95&lt;/b&gt;&lt;br&gt;ctg21 95&lt;br&gt;Location: 93916 - 95470" locus_tag="ctg21_95" class="clusterblast-orf" id="dummy-1_q9_0_all"  />
<polygon points="153,40 180,40 185,35 180,30 153,30 153,40 " style="fill:white; stroke-width:1; stroke:black; " description="&lt;b&gt;ctg21_96&lt;/b&gt;&lt;br&gt;ctg21 96&lt;br&gt;Location: 95485 - 97324" locus_tag="ctg21_96" class="clusterblast-orf" id="dummy-1_q10_0_all"  />
<polygon points="184,35 188,30 188,40 184,35 " style="fill:white; stroke-width:1; stroke:black; " description="&lt;b&gt;ctg21_97&lt;/b&gt;&lt;br&gt;ctg21 97&lt;br&gt;Location: 97307 - 97526" locus_tag="ctg21_97" class="clusterblast-orf" id="dummy-1_q11_0_all"  />
<polygon points="189,35 194,30 221,30 221,40 194,40 189,35 " style="fill:white; stroke-width:1; stroke:black; " description="&lt;b&gt;ctg21_98&lt;/b&gt;&lt;br&gt;ctg21 98&lt;br&gt;Location: 97559 - 99425" locus_tag="ctg21_98" class="clusterblast-orf" id="dummy-1_q12_0_all"  />
<polygon points="224,35 229,30 251,30 251,40 229,40 224,35 " style="fill:white; stroke-width:1; stroke:black; " description="&lt;b&gt;ctg21_99&lt;/b&gt;&lt;br&gt;ctg21 99&lt;br&gt;Location: 99580 - 101140" locus_tag="ctg21_99" class="clusterblast-orf" id="dummy-1_q13_0_all"  />
<polygon points="252,35 257,30 329,30 329,40 257,40 252,35 " style="fill:white; stroke-width:1; stroke:black; " description="&lt;b&gt;ctg21_100&lt;/b&gt;&lt;br&gt;ctg21 100&lt;br&gt;Location: 101158 - 105565" locus_tag="ctg21_100" class="clusterblast-orf" id="dummy-1_q14_0_all"  />
<polygon points="331,35 336,30 364,30 364,40 336,40 331,35 " style="fill:white; stroke-width:1; stroke:black; " description="&lt;b&gt;ctg21_101&lt;/b&gt;&lt;br&gt;ctg21 101&lt;br&gt;Location: 105679 - 107578" locus_tag="ctg21_101" class="clusterblast-orf" id="dummy-1_q15_0_all"  />
<polygon points="365,35 370,30 416,30 416,40 370,40 365,35 " style="fill:white; stroke-width:1; stroke:black; " description="&lt;b&gt;ctg21_102&lt;/b&gt;&lt;br&gt;ctg21 102&lt;br&gt;Location: 107617 - 110572" locus_tag="ctg21_102" class="clusterblast-orf" id="dummy-1_q16_0_all"  />
<polygon points="417,35 422,30 442,30 442,40 422,40 417,35 " style="fill:white; stroke-width:1; stroke:black; " description="&lt;b&gt;ctg21_103&lt;/b&gt;&lt;br&gt;ctg21 103&lt;br&gt;Location: 110641 - 112024" locus_tag="ctg21_103" class="clusterblast-orf" id="dummy-1_q17_0_all"  />
<polygon points="443,40 450,40 455,35 450,30 443,30 443,40 " style="fill:white; stroke-width:1; stroke:black; " description="&lt;b&gt;ctg21_104&lt;/b&gt;&lt;br&gt;ctg21 104&lt;br&gt;Location: 112132 - 112822" locus_tag="ctg21_104" class="clusterblast-orf" id="dummy-1_q18_0_all"  />
<polygon points="456,35 461,30 462,30 462,40 461,40 456,35 " style="fill:white; stroke-width:1; stroke:black; " description="&lt;b&gt;ctg21_105&lt;/b&gt;&lt;br&gt;ctg21 105&lt;br&gt;Location: 112846 - 113188" locus_tag="ctg21_105" class="clusterblast-orf" id="dummy-1_q19_0_all"  />
<polygon points="465,40 483,40 488,35 483,30 465,30 465,40 " style="fill:white; stroke-width:1; stroke:black; " description="&lt;b&gt;ctg21_106&lt;/b&gt;&lt;br&gt;ctg21 106&lt;br&gt;Location: 113372 - 114680" locus_tag="ctg21_106" class="clusterblast-orf" id="dummy-1_q20_0_all"  />
<polygon points="488,35 493,30 513,30 513,40 493,40 488,35 " style="fill:white; stroke-width:1; stroke:black; " description="&lt;b&gt;ctg21_107&lt;/b&gt;&lt;br&gt;ctg21 107&lt;br&gt;Location: 114676 - 116104" locus_tag="ctg21_107" class="clusterblast-orf" id="dummy-1_q21_0_all"  />
<polygon points="517,40 528,40 533,35 528,30 517,30 517,40 " style="fill:white; stroke-width:1; stroke:black; " description="&lt;b&gt;ctg21_108&lt;/b&gt;&lt;br&gt;ctg21 108&lt;br&gt;Location: 116321 - 117272" locus_tag="ctg21_108" class="clusterblast-orf" id="dummy-1_q22_0_all"  />
<polygon points="533,40 536,40 541,35 536,30 533,30 533,40 " style="fill:white; stroke-width:1; stroke:black; " description="&lt;b&gt;ctg21_109&lt;/b&gt;&lt;br&gt;ctg21 109&lt;br&gt;Location: 117281 - 117713" locus_tag="ctg21_109" class="clusterblast-orf" id="dummy-1_q23_0_all"  />
<polygon points="543,40 564,40 569,35 564,30 543,30 543,40 " style="fill:white; stroke-width:1; stroke:black; " description="&lt;b&gt;ctg21_110&lt;/b&gt;&lt;br&gt;ctg21 110&lt;br&gt;Location: 117813 - 119310" locus_tag="ctg21_110" class="clusterblast-orf" id="dummy-1_q24_0_all"  />
<polygon points="570,35 575,30 589,30 589,40 575,40 570,35 " style="fill:white; stroke-width:1; stroke:black; " description="&lt;b&gt;ctg21_111&lt;/b&gt;&lt;br&gt;ctg21 111&lt;br&gt;Location: 119377 - 120481" locus_tag="ctg21_111" class="clusterblast-orf" id="dummy-1_q25_0_all"  />
<polygon points="592,40 594,40 599,35 594,30 592,30 592,40 " style="fill:white; stroke-width:1; stroke:black; " description="&lt;b&gt;ctg21_112&lt;/b&gt;&lt;br&gt;ctg21 112&lt;br&gt;Location: 120626 - 121025" locus_tag="ctg21_112" class="clusterblast-orf" id="dummy-1_q26_0_all"  />
<polygon points="598,40 604,40 609,35 604,30 598,30 598,40 " style="fill:white; stroke-width:1; stroke:black; " description="&lt;b&gt;ctg21_113&lt;/b&gt;&lt;br&gt;ctg21 113&lt;br&gt;Location: 121002 - 121629" locus_tag="ctg21_113" class="clusterblast-orf" id="dummy-1_q27_0_all"  />
<polygon points="609,40 629,40 634,35 629,30 609,30 609,40 " style="fill:white; stroke-width:1; stroke:black; " description="&lt;b&gt;ctg21_114&lt;/b&gt;&lt;br&gt;ctg21 114&lt;br&gt;Location: 121625 - 123032" locus_tag="ctg21_114" class="clusterblast-orf" id="dummy-1_q28_0_all"  />
<polygon points="635,35 638,30 638,40 635,35 " style="fill:white; stroke-width:1; stroke:black; " description="&lt;b&gt;ctg21_115&lt;/b&gt;&lt;br&gt;ctg21 115&lt;br&gt;Location: 123088 - 123244" locus_tag="ctg21_115" class="clusterblast-orf" id="dummy-1_q29_0_all"  />
<polygon points="643,35 648,30 653,30 653,40 648,40 643,35 " style="fill:white; stroke-width:1; stroke:black; " description="&lt;b&gt;ctg21_116&lt;/b&gt;&lt;br&gt;ctg21 116&lt;br&gt;Location: 123555 - 124146" locus_tag="ctg21_116" class="clusterblast-orf" id="dummy-1_q30_0_all"  />
<polygon points="656,40 660,40 665,35 660,30 656,30 656,40 " style="fill:white; stroke-width:1; stroke:black; " description="&lt;b&gt;ctg21_117&lt;/b&gt;&lt;br&gt;ctg21 117&lt;br&gt;Location: 124322 - 124805" locus_tag="ctg21_117" class="clusterblast-orf" id="dummy-1_q31_0_all"  />
<polygon points="667,40 672,40 677,35 672,30 667,30 667,40 " style="fill:white; stroke-width:1; stroke:black; " description="&lt;b&gt;ctg21_118&lt;/b&gt;&lt;br&gt;ctg21 118&lt;br&gt;Location: 124905 - 125478" locus_tag="ctg21_118" class="clusterblast-orf" id="dummy-1_q32_0_all"  />
<polygon points="678,40 685,40 690,35 685,30 678,30 678,40 " style="fill:white; stroke-width:1; stroke:black; " description="&lt;b&gt;ctg21_119&lt;/b&gt;&lt;br&gt;ctg21 119&lt;br&gt;Location: 125559 - 126264" locus_tag="ctg21_119" class="clusterblast-orf" id="dummy-1_q33_0_all"  />
<polygon points="692,40 694,40 699,35 694,30 692,30 692,40 " style="fill:white; stroke-width:1; stroke:black; " description="&lt;b&gt;ctg21_120&lt;/b&gt;&lt;br&gt;ctg21 120&lt;br&gt;Location: 126363 - 126750" locus_tag="ctg21_120" class="clusterblast-orf" id="dummy-1_q34_0_all"  />
<polygon points="699,35 704,30 707,30 707,40 704,40 699,35 " style="fill:white; stroke-width:1; stroke:black; " description="&lt;b&gt;ctg21_121&lt;/b&gt;&lt;br&gt;ctg21 121&lt;br&gt;Location: 126774 - 127227" locus_tag="ctg21_121" class="clusterblast-orf" id="dummy-1_q35_0_all"  />
<polygon points="710,40 717,40 722,35 717,30 710,30 710,40 " style="fill:#d81515; stroke-width:1; stroke:black; " description="&lt;b&gt;ctg21_122&lt;/b&gt;&lt;br&gt;ctg21 122&lt;br&gt;Location: 127378 - 128086" locus_tag="ctg21_122" class="clusterblast-orf" id="dummy-1_q36_0_all"  />
<polygon points="721,40 727,40 732,35 727,30 721,30 721,40 " style="fill:#15d8d8; stroke-width:1; stroke:black; " description="&lt;b&gt;ctg21_123&lt;/b&gt;&lt;br&gt;ctg21 123&lt;br&gt;Location: 128030 - 128678" locus_tag="ctg21_123" class="clusterblast-orf" id="dummy-1_q37_0_all"  />
<polygon points="733,40 748,40 753,35 748,30 733,30 733,40 " style="fill:white; stroke-width:1; stroke:black; " description="&lt;b&gt;ctg21_124&lt;/b&gt;&lt;br&gt;ctg21 124&lt;br&gt;Location: 128688 - 129879" locus_tag="ctg21_124" class="clusterblast-orf" id="dummy-1_q38_0_all"  />
</g>
<g label="BGC0001090" description="BGC0001090_c1: bacillomycin D (20% of genes show similarity), Polyketide+NRP:Lipopeptide" class="clusterblast-cluster"  >
<text x="5" y="70" class="clusterblast-acc"  >
<a xlink:href="https://mibig.secondarymetabolites.org/go/BGC0001090/1" target="_blank">BGC0001090</a>: bacillomycin D                                                                   (20% of genes show similarity), Polyketide+NRP:Lipopeptide</text>
<line x1="10" y1="85" x2="778.0" y2="85" style="stroke-width:1; stroke:grey; "  />
</g>
<g id="a1_000"  >
<polygon points="0,90 20,90 25,85 20,80 0,80 0,90 " style="fill:white; stroke-width:1; stroke:black; " description="&lt;b&gt;RBAM_018230&lt;/b&gt;&lt;br&gt;YxjC&lt;br&gt;Location: 44647 - 43211" locus_tag="RBAM_018230" class="clusterblast-orf" id="dummy-1_h1_1_0"  />
</g>
<g id="a1_001"  >
<polygon points="25,90 32,90 37,85 32,80 25,80 25,90 " style="fill:#d81515; stroke-width:1; stroke:black; " description="&lt;b&gt;RBAM_018220&lt;/b&gt;&lt;br&gt;ScoA&lt;br&gt;Location: 43186 - 42485&lt;br&gt;&lt;br&gt;&lt;b&gt;BlastP hit with ctg21_122&lt;/b&gt;&lt;br&gt;Percentage identity: 63&lt;br&gt;Percentage coverage: 94&lt;br&gt;BLAST bit score: 280&lt;br&gt;E-value: 1.24e-95" locus_tag="RBAM_018220" class="clusterblast-orf" id="dummy-1_h1_1_1"  />
</g>
<g id="a1_002"  >
<polygon points="38,90 44,90 49,85 44,80 38,80 38,90 " style="fill:#15d8d8; stroke-width:1; stroke:black; " description="&lt;b&gt;RBAM_018210&lt;/b&gt;&lt;br&gt;ScoB&lt;br&gt;Location: 42467 - 41805&lt;br&gt;&lt;br&gt;&lt;b&gt;BlastP hit with ctg21_123&lt;/b&gt;&lt;br&gt;Percentage identity: 57&lt;br&gt;Percentage coverage: 93&lt;br&gt;BLAST bit score: 235&lt;br&gt;E-value: 1.57e-78" locus_tag="RBAM_018210" class="clusterblast-orf" id="dummy-1_h1_1_2"  />
</g>
<g id="a1_003"  >
<polygon points="49,90 58,90 63,85 58,80 49,80 49,90 " style="fill:white; stroke-width:1; stroke:black; " description="&lt;b&gt;RBAM_018200&lt;/b&gt;&lt;br&gt;YxjF&lt;br&gt;Location: 41792 - 41007" locus_tag="RBAM_018200" class="clusterblast-orf" id="dummy-1_h1_1_3"  />
</g>
<g id="a1_004"  >
<polygon points="73,90 89,90 94,85 89,80 73,80 73,90 " style="fill:white; stroke-width:1; stroke:black; " description="&lt;b&gt;RBAM_018190&lt;/b&gt;&lt;br&gt;malonyl-CoA transacylase &lt;br&gt;Location: 40447 - 39245" locus_tag="RBAM_018190" class="clusterblast-orf" id="dummy-1_h1_1_4"  />
</g>
<g id="a1_005"  >
<polygon points="94,90 298,90 303,85 298,80 94,80 94,90 " style="fill:white; stroke-width:1; stroke:black; " description="&lt;b&gt;RBAM_018180&lt;/b&gt;&lt;br&gt;bacillomycin D synthetase A &lt;br&gt;Location: 39225 - 27277" locus_tag="RBAM_018180" class="clusterblast-orf" id="dummy-1_h1_1_5"  />
</g>
<g id="a1_006"  >
<polygon points="304,90 580,90 585,85 580,80 304,80 304,90 " style="fill:white; stroke-width:1; stroke:black; " description="&lt;b&gt;RBAM_018170&lt;/b&gt;&lt;br&gt;bacillomycin D synthetase B&lt;br&gt;Location: 27232 - 11141" locus_tag="RBAM_018170" class="clusterblast-orf" id="dummy-1_h1_1_6"  />
</g>
<g id="a1_007"  >
<polygon points="586,90 719,90 724,85 719,80 586,80 586,90 " style="fill:white; stroke-width:1; stroke:black; " description="&lt;b&gt;RBAM_018160&lt;/b&gt;&lt;br&gt;bacillomycin D synthetase C&lt;br&gt;Location: 11056 - 3197" locus_tag="RBAM_018160" class="clusterblast-orf" id="dummy-1_h1_1_7"  />
</g>
<g id="a1_008"  >
<polygon points="729,90 751,90 756,85 751,80 729,80 729,90 " style="fill:white; stroke-width:1; stroke:black; " description="&lt;b&gt;RBAM_018150&lt;/b&gt;&lt;br&gt;XynD&lt;br&gt;Location: 2872 - 1334" locus_tag="RBAM_018150" class="clusterblast-orf" id="dummy-1_h1_1_8"  />
</g>
<g id="a1_009"  >
<polygon points="757,90 775,90 780,85 775,80 757,80 757,90 " style="fill:white; stroke-width:1; stroke:black; " description="&lt;b&gt;RBAM_018140&lt;/b&gt;&lt;br&gt;YnfF&lt;br&gt;Location: 1272 - 1" locus_tag="RBAM_018140" class="clusterblast-orf" id="dummy-1_h1_1_9"  />
</g>
</svg>
