<svg xmlns="http://www.w3.org/2000/svg" xmlns:xlink="http://www.w3.org/1999/xlink" version="1.1" x="0" y="0" height="230" width="800" viewBox="0 0 800 230" preserveAspectRatio="none"  >
<g label="Query sequence" class="clusterblast-cluster"  >
<text x="5" y="20" class="clusterblast-acc"  >
Query sequence</text>
<line x1="10" y1="35" x2="778.0" y2="35" style="stroke-width:1; stroke:grey; "  />
<polygon points="0,35 3,30 3,40 0,35 " style="fill:white; stroke-width:1; stroke:black; " description="&lt;b&gt;ctg21_86&lt;/b&gt;&lt;br&gt;ctg21 86&lt;br&gt;Location: 88234 - 88402" locus_tag="ctg21_86" class="clusterblast-orf" id="dummy-1_q0_0_all"  />
<polygon points="4,40 7,40 12,35 7,30 4,30 4,40 " style="fill:white; stroke-width:1; stroke:black; " description="&lt;b&gt;ctg21_87&lt;/b&gt;&lt;br&gt;ctg21 87&lt;br&gt;Location: 88461 - 88878" locus_tag="ctg21_87" class="clusterblast-orf" id="dummy-1_q1_0_all"  />
<polygon points="14,40 16,40 21,35 16,30 14,30 14,40 " style="fill:white; stroke-width:1; stroke:black; " description="&lt;b&gt;ctg21_88&lt;/b&gt;&lt;br&gt;ctg21 88&lt;br&gt;Location: 88991 - 89393" locus_tag="ctg21_88" class="clusterblast-orf" id="dummy-1_q2_0_all"  />
<polygon points="23,40 26,40 31,35 26,30 23,30 23,40 " style="fill:white; stroke-width:1; stroke:black; " description="&lt;b&gt;ctg21_89&lt;/b&gt;&lt;br&gt;ctg21 89&lt;br&gt;Location: 89477 - 89921" locus_tag="ctg21_89" class="clusterblast-orf" id="dummy-1_q3_0_all"  />
<polygon points="31,35 36,30 53,30 53,40 36,40 31,35 " style="fill:white; stroke-width:1; stroke:black; " description="&lt;b&gt;ctg21_90&lt;/b&gt;&lt;br&gt;ctg21 90&lt;br&gt;Location: 89923 - 91063" locus_tag="ctg21_90" class="clusterblast-orf" id="dummy-1_q4_0_all"  />
<polygon points="55,40 58,40 63,35 58,30 55,30 55,40 " style="fill:white; stroke-width:1; stroke:black; " description="&lt;b&gt;ctg21_91&lt;/b&gt;&lt;br&gt;ctg21 91&lt;br&gt;Location: 91191 - 91602" locus_tag="ctg21_91" class="clusterblast-orf" id="dummy-1_q5_0_all"  />
<polygon points="62,40 83,40 88,35 83,30 62,30 62,40 " style="fill:white; stroke-width:1; stroke:black; " description="&lt;b&gt;ctg21_92&lt;/b&gt;&lt;br&gt;ctg21 92&lt;br&gt;Location: 91570 - 92926" locus_tag="ctg21_92" class="clusterblast-orf" id="dummy-1_q6_0_all"  />
<polygon points="88,40 92,40 97,35 92,30 88,30 88,40 " style="fill:white; stroke-width:1; stroke:black; " description="&lt;b&gt;ctg21_93&lt;/b&gt;&lt;br&gt;ctg21 93&lt;br&gt;Location: 92926 - 93424" locus_tag="ctg21_93" class="clusterblast-orf" id="dummy-1_q7_0_all"  />
<polygon points="97,40 101,40 106,35 101,30 97,30 97,40 " style="fill:white; stroke-width:1; stroke:black; " description="&lt;b&gt;ctg21_94&lt;/b&gt;&lt;br&gt;ctg21 94&lt;br&gt;Location: 93442 - 93916" locus_tag="ctg21_94" class="clusterblast-orf" id="dummy-1_q8_0_all"  />
<polygon points="106,40 130,40 135,35 130,30 106,30 106,40 " style="fill:white; stroke-width:1; stroke:black; " description="&lt;b&gt;ctg21_95&lt;/b&gt;&lt;br&gt;ctg21 95&lt;br&gt;Location: 93916 - 95470" locus_tag="ctg21_95" class="clusterblast-orf" id="dummy-1_q9_0_all"  />
<polygon points="135,40 165,40 170,35 165,30 135,30 135,40 " style="fill:white; stroke-width:1; stroke:black; " description="&lt;b&gt;ctg21_96&lt;/b&gt;&lt;br&gt;ctg21 96&lt;br&gt;Location: 95485 - 97324" locus_tag="ctg21_96" class="clusterblast-orf" id="dummy-1_q10_0_all"  />
<polygon points="170,35 174,30 174,40 170,35 " style="fill:white; stroke-width:1; stroke:black; " description="&lt;b&gt;ctg21_97&lt;/b&gt;&lt;br&gt;ctg21 97&lt;br&gt;Location: 97307 - 97526" locus_tag="ctg21_97" class="clusterblast-orf" id="dummy-1_q11_0_all"  />
<polygon points="174,35 179,30 209,30 209,40 179,40 174,35 " style="fill:white; stroke-width:1; stroke:black; " description="&lt;b&gt;ctg21_98&lt;/b&gt;&lt;br&gt;ctg21 98&lt;br&gt;Location: 97559 - 99425" locus_tag="ctg21_98" class="clusterblast-orf" id="dummy-1_q12_0_all"  />
<polygon points="212,35 217,30 241,30 241,40 217,40 212,35 " style="fill:white; stroke-width:1; stroke:black; " description="&lt;b&gt;ctg21_99&lt;/b&gt;&lt;br&gt;ctg21 99&lt;br&gt;Location: 99580 - 101140" locus_tag="ctg21_99" class="clusterblast-orf" id="dummy-1_q13_0_all"  />
<polygon points="242,35 247,30 324,30 324,40 247,40 242,35 " style="fill:white; stroke-width:1; stroke:black; " description="&lt;b&gt;ctg21_100&lt;/b&gt;&lt;br&gt;ctg21 100&lt;br&gt;Location: 101158 - 105565" locus_tag="ctg21_100" class="clusterblast-orf" id="dummy-1_q14_0_all"  />
<polygon points="326,35 331,30 362,30 362,40 331,40 326,35 " style="fill:white; stroke-width:1; stroke:black; " description="&lt;b&gt;ctg21_101&lt;/b&gt;&lt;br&gt;ctg21 101&lt;br&gt;Location: 105679 - 107578" locus_tag="ctg21_101" class="clusterblast-orf" id="dummy-1_q15_0_all"  />
<polygon points="363,35 368,30 418,30 418,40 368,40 363,35 " style="fill:white; stroke-width:1; stroke:black; " description="&lt;b&gt;ctg21_102&lt;/b&gt;&lt;br&gt;ctg21 102&lt;br&gt;Location: 107617 - 110572" locus_tag="ctg21_102" class="clusterblast-orf" id="dummy-1_q16_0_all"  />
<polygon points="419,35 424,30 445,30 445,40 424,40 419,35 " style="fill:white; stroke-width:1; stroke:black; " description="&lt;b&gt;ctg21_103&lt;/b&gt;&lt;br&gt;ctg21 103&lt;br&gt;Location: 110641 - 112024" locus_tag="ctg21_103" class="clusterblast-orf" id="dummy-1_q17_0_all"  />
<polygon points="447,40 455,40 460,35 455,30 447,30 447,40 " style="fill:white; stroke-width:1; stroke:black; " description="&lt;b&gt;ctg21_104&lt;/b&gt;&lt;br&gt;ctg21 104&lt;br&gt;Location: 112132 - 112822" locus_tag="ctg21_104" class="clusterblast-orf" id="dummy-1_q18_0_all"  />
<polygon points="461,35 466,30 467,30 467,40 466,40 461,35 " style="fill:white; stroke-width:1; stroke:black; " description="&lt;b&gt;ctg21_105&lt;/b&gt;&lt;br&gt;ctg21 105&lt;br&gt;Location: 112846 - 113188" locus_tag="ctg21_105" class="clusterblast-orf" id="dummy-1_q19_0_all"  />
<polygon points="471,40 490,40 495,35 490,30 471,30 471,40 " style="fill:white; stroke-width:1; stroke:black; " description="&lt;b&gt;ctg21_106&lt;/b&gt;&lt;br&gt;ctg21 106&lt;br&gt;Location: 113372 - 114680" locus_tag="ctg21_106" class="clusterblast-orf" id="dummy-1_q20_0_all"  />
<polygon points="495,35 500,30 522,30 522,40 500,40 495,35 " style="fill:white; stroke-width:1; stroke:black; " description="&lt;b&gt;ctg21_107&lt;/b&gt;&lt;br&gt;ctg21 107&lt;br&gt;Location: 114676 - 116104" locus_tag="ctg21_107" class="clusterblast-orf" id="dummy-1_q21_0_all"  />
<polygon points="526,40 539,40 544,35 539,30 526,30 526,40 " style="fill:white; stroke-width:1; stroke:black; " description="&lt;b&gt;ctg21_108&lt;/b&gt;&lt;br&gt;ctg21 108&lt;br&gt;Location: 116321 - 117272" locus_tag="ctg21_108" class="clusterblast-orf" id="dummy-1_q22_0_all"  />
<polygon points="544,40 547,40 552,35 547,30 544,30 544,40 " style="fill:white; stroke-width:1; stroke:black; " description="&lt;b&gt;ctg21_109&lt;/b&gt;&lt;br&gt;ctg21 109&lt;br&gt;Location: 117281 - 117713" locus_tag="ctg21_109" class="clusterblast-orf" id="dummy-1_q23_0_all"  />
<polygon points="554,40 577,40 582,35 577,30 554,30 554,40 " style="fill:white; stroke-width:1; stroke:black; " description="&lt;b&gt;ctg21_110&lt;/b&gt;&lt;br&gt;ctg21 110&lt;br&gt;Location: 117813 - 119310" locus_tag="ctg21_110" class="clusterblast-orf" id="dummy-1_q24_0_all"  />
<polygon points="583,35 588,30 604,30 604,40 588,40 583,35 " style="fill:white; stroke-width:1; stroke:black; " description="&lt;b&gt;ctg21_111&lt;/b&gt;&lt;br&gt;ctg21 111&lt;br&gt;Location: 119377 - 120481" locus_tag="ctg21_111" class="clusterblast-orf" id="dummy-1_q25_0_all"  />
<polygon points="606,40 609,40 614,35 609,30 606,30 606,40 " style="fill:white; stroke-width:1; stroke:black; " description="&lt;b&gt;ctg21_112&lt;/b&gt;&lt;br&gt;ctg21 112&lt;br&gt;Location: 120626 - 121025" locus_tag="ctg21_112" class="clusterblast-orf" id="dummy-1_q26_0_all"  />
<polygon points="613,40 620,40 625,35 620,30 613,30 613,40 " style="fill:white; stroke-width:1; stroke:black; " description="&lt;b&gt;ctg21_113&lt;/b&gt;&lt;br&gt;ctg21 113&lt;br&gt;Location: 121002 - 121629" locus_tag="ctg21_113" class="clusterblast-orf" id="dummy-1_q27_0_all"  />
<polygon points="625,40 646,40 651,35 646,30 625,30 625,40 " style="fill:white; stroke-width:1; stroke:black; " description="&lt;b&gt;ctg21_114&lt;/b&gt;&lt;br&gt;ctg21 114&lt;br&gt;Location: 121625 - 123032" locus_tag="ctg21_114" class="clusterblast-orf" id="dummy-1_q28_0_all"  />
<polygon points="652,35 655,30 655,40 652,35 " style="fill:white; stroke-width:1; stroke:black; " description="&lt;b&gt;ctg21_115&lt;/b&gt;&lt;br&gt;ctg21 115&lt;br&gt;Location: 123088 - 123244" locus_tag="ctg21_115" class="clusterblast-orf" id="dummy-1_q29_0_all"  />
<polygon points="661,35 666,30 672,30 672,40 666,40 661,35 " style="fill:white; stroke-width:1; stroke:black; " description="&lt;b&gt;ctg21_116&lt;/b&gt;&lt;br&gt;ctg21 116&lt;br&gt;Location: 123555 - 124146" locus_tag="ctg21_116" class="clusterblast-orf" id="dummy-1_q30_0_all"  />
<polygon points="676,40 680,40 685,35 680,30 676,30 676,40 " style="fill:white; stroke-width:1; stroke:black; " description="&lt;b&gt;ctg21_117&lt;/b&gt;&lt;br&gt;ctg21 117&lt;br&gt;Location: 124322 - 124805" locus_tag="ctg21_117" class="clusterblast-orf" id="dummy-1_q31_0_all"  />
<polygon points="687,40 692,40 697,35 692,30 687,30 687,40 " style="fill:white; stroke-width:1; stroke:black; " description="&lt;b&gt;ctg21_118&lt;/b&gt;&lt;br&gt;ctg21 118&lt;br&gt;Location: 124905 - 125478" locus_tag="ctg21_118" class="clusterblast-orf" id="dummy-1_q32_0_all"  />
<polygon points="699,40 707,40 712,35 707,30 699,30 699,40 " style="fill:white; stroke-width:1; stroke:black; " description="&lt;b&gt;ctg21_119&lt;/b&gt;&lt;br&gt;ctg21 119&lt;br&gt;Location: 125559 - 126264" locus_tag="ctg21_119" class="clusterblast-orf" id="dummy-1_q33_0_all"  />
<polygon points="714,40 716,40 721,35 716,30 714,30 714,40 " style="fill:white; stroke-width:1; stroke:black; " description="&lt;b&gt;ctg21_120&lt;/b&gt;&lt;br&gt;ctg21 120&lt;br&gt;Location: 126363 - 126750" locus_tag="ctg21_120" class="clusterblast-orf" id="dummy-1_q34_0_all"  />
<polygon points="722,35 727,30 730,30 730,40 727,40 722,35 " style="fill:white; stroke-width:1; stroke:black; " description="&lt;b&gt;ctg21_121&lt;/b&gt;&lt;br&gt;ctg21 121&lt;br&gt;Location: 126774 - 127227" locus_tag="ctg21_121" class="clusterblast-orf" id="dummy-1_q35_0_all"  />
<polygon points="733,40 741,40 746,35 741,30 733,30 733,40 " style="fill:#d81515; stroke-width:1; stroke:black; " description="&lt;b&gt;ctg21_122&lt;/b&gt;&lt;br&gt;ctg21 122&lt;br&gt;Location: 127378 - 128086" locus_tag="ctg21_122" class="clusterblast-orf" id="dummy-1_q36_0_all"  />
<polygon points="745,40 752,40 757,35 752,30 745,30 745,40 " style="fill:#15d8d8; stroke-width:1; stroke:black; " description="&lt;b&gt;ctg21_123&lt;/b&gt;&lt;br&gt;ctg21 123&lt;br&gt;Location: 128030 - 128678" locus_tag="ctg21_123" class="clusterblast-orf" id="dummy-1_q37_0_all"  />
<polygon points="757,40 775,40 780,35 775,30 757,30 757,40 " style="fill:white; stroke-width:1; stroke:black; " description="&lt;b&gt;ctg21_124&lt;/b&gt;&lt;br&gt;ctg21 124&lt;br&gt;Location: 128688 - 129879" locus_tag="ctg21_124" class="clusterblast-orf" id="dummy-1_q38_0_all"  />
</g>
<g label="BGC0000774" description="BGC0000774_c1: lipopolysaccharide (5% of genes show similarity), Saccharide:Lipopolysaccharide" class="clusterblast-cluster"  >
<text x="5" y="70" class="clusterblast-acc"  >
<a xlink:href="https://mibig.secondarymetabolites.org/go/BGC0000774/1" target="_blank">BGC0000774</a>: lipopolysaccharide                                                               (5% of genes show similarity), Saccharide:Lipopolysaccharide</text>
<line x1="10" y1="85" x2="778.0" y2="85" style="stroke-width:1; stroke:grey; "  />
</g>
<g id="a1_000"  >
<polygon points="37,85 42,80 49,80 49,90 42,90 37,85 " style="fill:white; stroke-width:1; stroke:black; " description="&lt;b&gt;AAK53492.1&lt;/b&gt;&lt;br&gt;putative ATP-dependent RNA helicase&lt;br&gt;Location: 37753 - 37148" locus_tag="AAK53492.1" class="clusterblast-orf" id="dummy-1_h1_3_0"  />
</g>
<g id="a1_001"  >
<polygon points="56,90 69,90 74,85 69,80 56,80 56,90 " style="fill:white; stroke-width:1; stroke:black; " description="&lt;b&gt;AAK53491.1&lt;/b&gt;&lt;br&gt;putative dioxygenase&lt;br&gt;Location: 36768 - 35779" locus_tag="AAK53491.1" class="clusterblast-orf" id="dummy-1_h1_3_1"  />
</g>
<g id="a1_002"  >
<polygon points="75,90 82,90 87,85 82,80 75,80 75,90 " style="fill:white; stroke-width:1; stroke:black; " description="&lt;b&gt;AAK53490.1&lt;/b&gt;&lt;br&gt;putative maleylacetoacetate isomerase&lt;br&gt;Location: 35735 - 35073" locus_tag="AAK53490.1" class="clusterblast-orf" id="dummy-1_h1_3_2"  />
</g>
<g id="a1_003"  >
<polygon points="97,85 102,80 118,80 118,90 102,90 97,85 " style="fill:white; stroke-width:1; stroke:black; " description="&lt;b&gt;AAK53489.1&lt;/b&gt;&lt;br&gt;type II secretion system protein-like protein&lt;br&gt;Location: 34553 - 33420" locus_tag="AAK53489.1" class="clusterblast-orf" id="dummy-1_h1_3_3"  />
</g>
<g id="a1_004"  >
<polygon points="120,90 122,90 127,85 122,80 120,80 120,90 " style="fill:white; stroke-width:1; stroke:black; " description="&lt;b&gt;AAK53488.1&lt;/b&gt;&lt;br&gt;putative outer membrane protein UptD precursor&lt;br&gt;Location: 33321 - 32938" locus_tag="AAK53488.1" class="clusterblast-orf" id="dummy-1_h1_3_4"  />
</g>
<g id="a1_005"  >
<polygon points="127,90 139,90 144,85 139,80 127,80 127,90 " style="fill:white; stroke-width:1; stroke:black; " description="&lt;b&gt;AAK53487.1&lt;/b&gt;&lt;br&gt;putative outer membrane protein UptE precursor&lt;br&gt;Location: 32941 - 32051" locus_tag="AAK53487.1" class="clusterblast-orf" id="dummy-1_h1_3_5"  />
</g>
<g id="a1_006"  >
<polygon points="145,90 149,90 154,85 149,80 145,80 145,90 " style="fill:white; stroke-width:1; stroke:black; " description="&lt;b&gt;AAK53486.1&lt;/b&gt;&lt;br&gt;UptF&lt;br&gt;Location: 31985 - 31491" locus_tag="AAK53486.1" class="clusterblast-orf" id="dummy-1_h1_3_6"  />
</g>
<g id="a1_007"  >
<polygon points="159,90 179,90 184,85 179,80 159,80 159,90 " style="fill:white; stroke-width:1; stroke:black; " description="&lt;b&gt;AAK53485.1&lt;/b&gt;&lt;br&gt;cystathionine beta-lyase&lt;br&gt;Location: 31259 - 29889" locus_tag="AAK53485.1" class="clusterblast-orf" id="dummy-1_h1_3_7"  />
</g>
<g id="a1_008"  >
<polygon points="186,90 204,90 209,85 204,80 186,80 186,90 " style="fill:white; stroke-width:1; stroke:black; " description="&lt;b&gt;AAK53484.1&lt;/b&gt;&lt;br&gt;cystathionine gamma-synthase&lt;br&gt;Location: 29795 - 28596" locus_tag="AAK53484.1" class="clusterblast-orf" id="dummy-1_h1_3_8"  />
</g>
<g id="a1_009"  >
<polygon points="209,90 230,90 235,85 230,80 209,80 209,90 " style="fill:white; stroke-width:1; stroke:black; " description="&lt;b&gt;AAK53483.1&lt;/b&gt;&lt;br&gt;glycosyltransferase&lt;br&gt;Location: 28599 - 27214" locus_tag="AAK53483.1" class="clusterblast-orf" id="dummy-1_h1_3_9"  />
</g>
<g id="a1_0010"  >
<polygon points="236,90 246,90 251,85 246,80 236,80 236,90 " style="fill:white; stroke-width:1; stroke:black; " description="&lt;b&gt;AAK53482.1&lt;/b&gt;&lt;br&gt;permease protein of an ABC-type polysaccaharide exporter&lt;br&gt;Location: 27130 - 26345" locus_tag="AAK53482.1" class="clusterblast-orf" id="dummy-1_h1_3_10"  />
</g>
<g id="a1_0011"  >
<polygon points="251,90 270,90 275,85 270,80 251,80 251,90 " style="fill:white; stroke-width:1; stroke:black; " description="&lt;b&gt;AAK53481.1&lt;/b&gt;&lt;br&gt;ATP-binding component of an ABC-type polysaccharide exporter&lt;br&gt;Location: 26348 - 25062" locus_tag="AAK53481.1" class="clusterblast-orf" id="dummy-1_h1_3_11"  />
</g>
<g id="a1_0012"  >
<polygon points="276,90 314,90 319,85 314,80 276,80 276,90 " style="fill:white; stroke-width:1; stroke:black; " description="&lt;b&gt;AAK53480.1&lt;/b&gt;&lt;br&gt;putative protein kinase&lt;br&gt;Location: 25022 - 22734" locus_tag="AAK53480.1" class="clusterblast-orf" id="dummy-1_h1_3_12"  />
</g>
<g id="a1_0013"  >
<polygon points="319,90 334,90 339,85 334,80 319,80 319,90 " style="fill:white; stroke-width:1; stroke:black; " description="&lt;b&gt;AAK53479.1&lt;/b&gt;&lt;br&gt;glycosyltransferase&lt;br&gt;Location: 22684 - 21623" locus_tag="AAK53479.1" class="clusterblast-orf" id="dummy-1_h1_3_13"  />
</g>
<g id="a1_0014"  >
<polygon points="340,90 367,90 372,85 367,80 340,80 340,90 " style="fill:white; stroke-width:1; stroke:black; " description="&lt;b&gt;AAK53478.1&lt;/b&gt;&lt;br&gt;putative glycosyltransferase&lt;br&gt;Location: 21602 - 19857" locus_tag="AAK53478.1" class="clusterblast-orf" id="dummy-1_h1_3_14"  />
</g>
<g id="a1_0015"  >
<polygon points="372,90 379,90 384,85 379,80 372,80 372,90 " style="fill:white; stroke-width:1; stroke:black; " description="&lt;b&gt;AAK53477.1&lt;/b&gt;&lt;br&gt;Unknown&lt;br&gt;Location: 19857 - 19222" locus_tag="AAK53477.1" class="clusterblast-orf" id="dummy-1_h1_3_15"  />
</g>
<g id="a1_0016"  >
<polygon points="386,90 400,90 405,85 400,80 386,80 386,90 " style="fill:white; stroke-width:1; stroke:black; " description="&lt;b&gt;AAK53476.1&lt;/b&gt;&lt;br&gt;GDP-mannose 4,6-dehydratase&lt;br&gt;Location: 19144 - 18110" locus_tag="AAK53476.1" class="clusterblast-orf" id="dummy-1_h1_3_16"  />
</g>
<g id="a1_0017"  >
<polygon points="405,90 417,90 422,85 417,80 405,80 405,90 " style="fill:white; stroke-width:1; stroke:black; " description="&lt;b&gt;AAK53475.1&lt;/b&gt;&lt;br&gt;GDP-4-dehydro-D-rhamnose reductase&lt;br&gt;Location: 18126 - 17188" locus_tag="AAK53475.1" class="clusterblast-orf" id="dummy-1_h1_3_17"  />
</g>
<g id="a1_0018"  >
<polygon points="425,85 430,80 467,80 467,90 430,90 425,85 " style="fill:white; stroke-width:1; stroke:black; " description="&lt;b&gt;AAK53474.1&lt;/b&gt;&lt;br&gt;integral membrane protein&lt;br&gt;Location: 17046 - 14794" locus_tag="AAK53474.1" class="clusterblast-orf" id="dummy-1_h1_3_18"  />
</g>
<g id="a1_0019"  >
<polygon points="469,85 474,80 477,80 477,90 474,90 469,85 " style="fill:white; stroke-width:1; stroke:black; " description="&lt;b&gt;AAK53473.1&lt;/b&gt;&lt;br&gt;putative integral membrane protein WxcN&lt;br&gt;Location: 14724 - 14284" locus_tag="AAK53473.1" class="clusterblast-orf" id="dummy-1_h1_3_19"  />
</g>
<g id="a1_0020"  >
<polygon points="477,85 482,80 494,80 494,90 482,90 477,85 " style="fill:white; stroke-width:1; stroke:black; " description="&lt;b&gt;AAK53472.1&lt;/b&gt;&lt;br&gt;bifunctional nucleotide hexosamine acetyltransferase / isomerase&lt;br&gt;Location: 14297 - 13368" locus_tag="AAK53472.1" class="clusterblast-orf" id="dummy-1_h1_3_20"  />
</g>
<g id="a1_0021"  >
<polygon points="494,85 499,80 512,80 512,90 499,90 494,85 " style="fill:white; stroke-width:1; stroke:black; " description="&lt;b&gt;AAK53471.1&lt;/b&gt;&lt;br&gt;glycosyltransferase&lt;br&gt;Location: 13371 - 12400" locus_tag="AAK53471.1" class="clusterblast-orf" id="dummy-1_h1_3_21"  />
</g>
<g id="a1_0022"  >
<polygon points="512,85 517,80 532,80 532,90 517,90 512,85 " style="fill:white; stroke-width:1; stroke:black; " description="&lt;b&gt;AAK53470.1&lt;/b&gt;&lt;br&gt;nucleotide sugar aminotransferase&lt;br&gt;Location: 12415 - 11312" locus_tag="AAK53470.1" class="clusterblast-orf" id="dummy-1_h1_3_22"  />
</g>
<g id="a1_0023"  >
<polygon points="533,85 538,80 540,80 540,90 538,90 533,85 " style="fill:white; stroke-width:1; stroke:black; " description="&lt;b&gt;AAK53469.1&lt;/b&gt;&lt;br&gt;WxcH&lt;br&gt;Location: 11263 - 10916" locus_tag="AAK53469.1" class="clusterblast-orf" id="dummy-1_h1_3_23"  />
</g>
<g id="a1_0024"  >
<polygon points="541,85 546,80 559,80 559,90 546,90 541,85 " style="fill:white; stroke-width:1; stroke:black; " description="&lt;b&gt;AAK53468.1&lt;/b&gt;&lt;br&gt;putative electron-transferring flavoprotein alpha subunit&lt;br&gt;Location: 10856 - 9912" locus_tag="AAK53468.1" class="clusterblast-orf" id="dummy-1_h1_3_24"  />
</g>
<g id="a1_0025"  >
<polygon points="559,85 564,80 573,80 573,90 564,90 559,85 " style="fill:white; stroke-width:1; stroke:black; " description="&lt;b&gt;AAK53467.1&lt;/b&gt;&lt;br&gt;putative electron-transferring flavoprotein beta subunit&lt;br&gt;Location: 9912 - 9166" locus_tag="AAK53467.1" class="clusterblast-orf" id="dummy-1_h1_3_25"  />
</g>
<g id="a1_0026"  >
<polygon points="577,90 592,90 597,85 592,80 577,80 577,90 " style="fill:white; stroke-width:1; stroke:black; " description="&lt;b&gt;AAK53466.1&lt;/b&gt;&lt;br&gt;dTDP-glucose 4,6-dehydratase&lt;br&gt;Location: 8937 - 7882" locus_tag="AAK53466.1" class="clusterblast-orf" id="dummy-1_h1_3_26"  />
</g>
<g id="a1_0027"  >
<polygon points="598,90 609,90 614,85 609,80 598,80 598,90 " style="fill:white; stroke-width:1; stroke:black; " description="&lt;b&gt;AAA16191.1&lt;/b&gt;&lt;br&gt;glucose-1-phosphate thymidylyltransferase&lt;br&gt;Location: 7818 - 6931" locus_tag="AAA16191.1" class="clusterblast-orf" id="dummy-1_h1_3_27"  />
</g>
<g id="a1_0028"  >
<polygon points="614,90 620,90 625,85 620,80 614,80 614,90 " style="fill:white; stroke-width:1; stroke:black; " description="&lt;b&gt;AAK53465.1&lt;/b&gt;&lt;br&gt;dTDP-4-dehydrorhamnose 3,5-epimerase&lt;br&gt;Location: 6934 - 6377" locus_tag="AAK53465.1" class="clusterblast-orf" id="dummy-1_h1_3_28"  />
</g>
<g id="a1_0029"  >
<polygon points="625,90 637,90 642,85 637,80 625,80 625,90 " style="fill:white; stroke-width:1; stroke:black; " description="&lt;b&gt;AAK53464.1&lt;/b&gt;&lt;br&gt;dTDP-4-dehydrorhamnose reductase&lt;br&gt;Location: 6380 - 5472" locus_tag="AAK53464.1" class="clusterblast-orf" id="dummy-1_h1_3_29"  />
</g>
<g id="a1_0030"  >
<polygon points="644,85 649,80 670,80 670,90 649,90 644,85 " style="fill:white; stroke-width:1; stroke:black; " description="&lt;b&gt;AAK53463.1&lt;/b&gt;&lt;br&gt;phosphomannose isomerase / GDP-mannose pyrophosphorylase&lt;br&gt;Location: 5350 - 3947" locus_tag="AAK53463.1" class="clusterblast-orf" id="dummy-1_h1_3_30"  />
</g>
<g id="a1_0031"  >
<polygon points="671,85 676,80 696,80 696,90 676,90 671,85 " style="fill:white; stroke-width:1; stroke:black; " description="&lt;b&gt;AAA27610.1&lt;/b&gt;&lt;br&gt;phosphoglucomutase / phosphomannomutase&lt;br&gt;Location: 3901 - 2555" locus_tag="AAA27610.1" class="clusterblast-orf" id="dummy-1_h1_3_31"  />
</g>
<g id="a1_0032"  >
<polygon points="699,90 708,90 713,85 708,80 699,80 699,90 " style="fill:#d81515; stroke-width:1; stroke:black; " description="&lt;b&gt;AAK53462.1&lt;/b&gt;&lt;br&gt;alpha subunit of putative 3-oxoacid CoA-transferase&lt;br&gt;Location: 2420 - 1692&lt;br&gt;&lt;br&gt;&lt;b&gt;BlastP hit with ctg21_122&lt;/b&gt;&lt;br&gt;Percentage identity: 59&lt;br&gt;Percentage coverage: 92&lt;br&gt;BLAST bit score: 256&lt;br&gt;E-value: 2.17e-86" locus_tag="AAK53462.1" class="clusterblast-orf" id="dummy-1_h1_3_32"  />
</g>
<g id="a1_0033"  >
<polygon points="713,90 720,90 725,85 720,80 713,80 713,90 " style="fill:#15d8d8; stroke-width:1; stroke:black; " description="&lt;b&gt;AAK53493.1&lt;/b&gt;&lt;br&gt;beta-subunit of putative 3-oxoacid CoA-transferase&lt;br&gt;Location: 1692 - 1054&lt;br&gt;&lt;br&gt;&lt;b&gt;BlastP hit with ctg21_123&lt;/b&gt;&lt;br&gt;Percentage identity: 64&lt;br&gt;Percentage coverage: 93&lt;br&gt;BLAST bit score: 249&lt;br&gt;E-value: 2.9e-84" locus_tag="AAK53493.1" class="clusterblast-orf" id="dummy-1_h1_3_33"  />
</g>
<g id="a1_0034"  >
<polygon points="730,85 735,80 742,80 742,90 735,90 730,85 " style="fill:white; stroke-width:1; stroke:black; " description="&lt;b&gt;AAK53494.1&lt;/b&gt;&lt;br&gt;conserved protein involved in carbohydrate biosynthesis&lt;br&gt;Location: 772 - 134" locus_tag="AAK53494.1" class="clusterblast-orf" id="dummy-1_h1_3_34"  />
</g>
</svg>
