<svg xmlns="http://www.w3.org/2000/svg" xmlns:xlink="http://www.w3.org/1999/xlink" version="1.1" x="0" y="0" height="50" width="800" viewBox="0 0 800 50" preserveAspectRatio="none"  >
<g label="Query sequence" class="clusterblast-cluster"  >
<text x="5" y="20" class="clusterblast-acc"  >
Query sequence</text>
<line x1="10" y1="35" x2="778.0" y2="35" style="stroke-width:1; stroke:grey; "  />
<polygon points="0,40 35,40 40,35 35,30 0,30 0,40 " style="fill:white; stroke-width:1; stroke:black; " description="&lt;b&gt;ctg1_160&lt;/b&gt;&lt;br&gt;ctg1 160&lt;br&gt;Location: 158077 - 159016" locus_tag="ctg1_160" class="clusterblast-orf" id="knownclusterblast-1_q0_0_all"  />
<polygon points="40,40 68,40 73,35 68,30 40,30 40,40 " style="fill:white; stroke-width:1; stroke:black; " description="&lt;b&gt;ctg1_161&lt;/b&gt;&lt;br&gt;ctg1 161&lt;br&gt;Location: 159009 - 159783" locus_tag="ctg1_161" class="clusterblast-orf" id="knownclusterblast-1_q1_0_all"  />
<polygon points="73,40 109,40 114,35 109,30 73,30 73,40 " style="fill:white; stroke-width:1; stroke:black; " description="&lt;b&gt;ctg1_162&lt;/b&gt;&lt;br&gt;ctg1 162&lt;br&gt;Location: 159779 - 160754" locus_tag="ctg1_162" class="clusterblast-orf" id="knownclusterblast-1_q2_0_all"  />
<polygon points="127,40 173,40 178,35 173,30 127,30 127,40 " style="fill:white; stroke-width:1; stroke:black; " description="&lt;b&gt;ctg1_163&lt;/b&gt;&lt;br&gt;ctg1 163&lt;br&gt;Location: 161064 - 162246" locus_tag="ctg1_163" class="clusterblast-orf" id="knownclusterblast-1_q3_0_all"  />
<polygon points="184,35 189,30 229,30 229,40 189,40 184,35 " style="fill:white; stroke-width:1; stroke:black; " description="&lt;b&gt;ctg1_164&lt;/b&gt;&lt;br&gt;ctg1 164&lt;br&gt;Location: 162388 - 163450" locus_tag="ctg1_164" class="clusterblast-orf" id="knownclusterblast-1_q4_0_all"  />
<polygon points="229,35 234,30 268,30 268,40 234,40 229,35 " style="fill:white; stroke-width:1; stroke:black; " description="&lt;b&gt;ctg1_165&lt;/b&gt;&lt;br&gt;ctg1 165&lt;br&gt;Location: 163446 - 164352" locus_tag="ctg1_165" class="clusterblast-orf" id="knownclusterblast-1_q5_0_all"  />
<polygon points="296,35 301,30 321,30 321,40 301,40 296,35 " style="fill:white; stroke-width:1; stroke:black; " description="&lt;b&gt;ctg1_166&lt;/b&gt;&lt;br&gt;ctg1 166&lt;br&gt;Location: 165006 - 165603" locus_tag="ctg1_166" class="clusterblast-orf" id="knownclusterblast-1_q6_0_all"  />
<polygon points="335,40 342,40 347,35 342,30 335,30 335,40 " style="fill:white; stroke-width:1; stroke:black; " description="&lt;b&gt;ctg1_167&lt;/b&gt;&lt;br&gt;ctg1 167&lt;br&gt;Location: 165930 - 166215" locus_tag="ctg1_167" class="clusterblast-orf" id="knownclusterblast-1_q7_0_all"  />
<polygon points="352,40 378,40 383,35 378,30 352,30 352,40 " style="fill:white; stroke-width:1; stroke:black; " description="&lt;b&gt;ctg1_168&lt;/b&gt;&lt;br&gt;ctg1 168&lt;br&gt;Location: 166311 - 167052" locus_tag="ctg1_168" class="clusterblast-orf" id="knownclusterblast-1_q8_0_all"  />
<polygon points="384,40 396,40 401,35 396,30 384,30 384,40 " style="fill:white; stroke-width:1; stroke:black; " description="&lt;b&gt;ctg1_169&lt;/b&gt;&lt;br&gt;ctg1 169&lt;br&gt;Location: 167065 - 167473" locus_tag="ctg1_169" class="clusterblast-orf" id="knownclusterblast-1_q9_0_all"  />
<polygon points="402,40 441,40 446,35 441,30 402,30 402,40 " style="fill:white; stroke-width:1; stroke:black; " description="&lt;b&gt;ctg1_170&lt;/b&gt;&lt;br&gt;ctg1 170&lt;br&gt;Location: 167495 - 168512" locus_tag="ctg1_170" class="clusterblast-orf" id="knownclusterblast-1_q10_0_all"  />
<polygon points="445,40 489,40 494,35 489,30 445,30 445,40 " style="fill:white; stroke-width:1; stroke:black; " description="&lt;b&gt;ctg1_171&lt;/b&gt;&lt;br&gt;ctg1 171&lt;br&gt;Location: 168508 - 169645" locus_tag="ctg1_171" class="clusterblast-orf" id="knownclusterblast-1_q11_0_all"  />
<polygon points="494,40 529,40 534,35 529,30 494,30 494,40 " style="fill:white; stroke-width:1; stroke:black; " description="&lt;b&gt;ctg1_172&lt;/b&gt;&lt;br&gt;ctg1 172&lt;br&gt;Location: 169641 - 170586" locus_tag="ctg1_172" class="clusterblast-orf" id="knownclusterblast-1_q12_0_all"  />
<polygon points="534,40 557,40 562,35 557,30 534,30 534,40 " style="fill:white; stroke-width:1; stroke:black; " description="&lt;b&gt;ctg1_173&lt;/b&gt;&lt;br&gt;ctg1 173&lt;br&gt;Location: 170582 - 171239" locus_tag="ctg1_173" class="clusterblast-orf" id="knownclusterblast-1_q13_0_all"  />
<polygon points="562,40 629,40 634,35 629,30 562,30 562,40 " style="fill:white; stroke-width:1; stroke:black; " description="&lt;b&gt;ctg1_174&lt;/b&gt;&lt;br&gt;ctg1 174&lt;br&gt;Location: 171235 - 172921" locus_tag="ctg1_174" class="clusterblast-orf" id="knownclusterblast-1_q14_0_all"  />
<polygon points="633,40 649,40 654,35 649,30 633,30 633,40 " style="fill:white; stroke-width:1; stroke:black; " description="&lt;b&gt;ctg1_175&lt;/b&gt;&lt;br&gt;ctg1 175&lt;br&gt;Location: 172899 - 173400" locus_tag="ctg1_175" class="clusterblast-orf" id="knownclusterblast-1_q15_0_all"  />
<polygon points="654,40 670,40 675,35 670,30 654,30 654,40 " style="fill:white; stroke-width:1; stroke:black; " description="&lt;b&gt;ctg1_176&lt;/b&gt;&lt;br&gt;ctg1 176&lt;br&gt;Location: 173392 - 173881" locus_tag="ctg1_176" class="clusterblast-orf" id="knownclusterblast-1_q16_0_all"  />
<polygon points="674,35 679,30 694,30 694,40 679,40 674,35 " style="fill:white; stroke-width:1; stroke:black; " description="&lt;b&gt;ctg1_177&lt;/b&gt;&lt;br&gt;ctg1 177&lt;br&gt;Location: 173849 - 174317" locus_tag="ctg1_177" class="clusterblast-orf" id="knownclusterblast-1_q17_0_all"  />
<polygon points="697,40 703,40 708,35 703,30 697,30 697,40 " style="fill:white; stroke-width:1; stroke:black; " description="&lt;b&gt;ctg1_178&lt;/b&gt;&lt;br&gt;ctg1 178&lt;br&gt;Location: 174387 - 174645" locus_tag="ctg1_178" class="clusterblast-orf" id="knownclusterblast-1_q18_0_all"  />
<polygon points="710,40 775,40 780,35 775,30 710,30 710,40 " style="fill:white; stroke-width:1; stroke:black; " description="&lt;b&gt;ctg1_179&lt;/b&gt;&lt;br&gt;ctg1 179&lt;br&gt;Location: 174705 - 176340" locus_tag="ctg1_179" class="clusterblast-orf" id="knownclusterblast-1_q19_0_all"  />
</g>
</svg>
