<svg xmlns="http://www.w3.org/2000/svg" xmlns:xlink="http://www.w3.org/1999/xlink" version="1.1" x="0" y="0" height="50" width="800" viewBox="0 0 800 50" preserveAspectRatio="none"  >
<g label="Query sequence" class="clusterblast-cluster"  >
<text x="5" y="20" class="clusterblast-acc"  >
Query sequence</text>
<line x1="10" y1="35" x2="778.0" y2="35" style="stroke-width:1; stroke:grey; "  />
<polygon points="0,40 18,40 23,35 18,30 0,30 0,40 " style="fill:white; stroke-width:1; stroke:black; " description="&lt;b&gt;ctg9_156&lt;/b&gt;&lt;br&gt;ctg9 156&lt;br&gt;Location: 206972 - 207305" locus_tag="ctg9_156" class="clusterblast-orf" id="knownclusterblast-1_q0_0_all"  />
<polygon points="19,40 26,40 31,35 26,30 19,30 19,40 " style="fill:white; stroke-width:1; stroke:black; " description="&lt;b&gt;ctg9_157&lt;/b&gt;&lt;br&gt;ctg9 157&lt;br&gt;Location: 207243 - 207417" locus_tag="ctg9_157" class="clusterblast-orf" id="knownclusterblast-1_q1_0_all"  />
<polygon points="31,35 36,30 69,30 69,40 36,40 31,35 " style="fill:white; stroke-width:1; stroke:black; " description="&lt;b&gt;ctg9_158&lt;/b&gt;&lt;br&gt;ctg9 158&lt;br&gt;Location: 207413 - 207968" locus_tag="ctg9_158" class="clusterblast-orf" id="knownclusterblast-1_q2_0_all"  />
<polygon points="66,35 71,30 134,30 134,40 71,40 66,35 " style="fill:white; stroke-width:1; stroke:black; " description="&lt;b&gt;ctg9_159&lt;/b&gt;&lt;br&gt;ctg9 159&lt;br&gt;Location: 207933 - 208917" locus_tag="ctg9_159" class="clusterblast-orf" id="knownclusterblast-1_q3_0_all"  />
<polygon points="135,40 172,40 177,35 172,30 135,30 135,40 " style="fill:white; stroke-width:1; stroke:black; " description="&lt;b&gt;ctg9_160&lt;/b&gt;&lt;br&gt;ctg9 160&lt;br&gt;Location: 208931 - 209537" locus_tag="ctg9_160" class="clusterblast-orf" id="knownclusterblast-1_q4_0_all"  />
<polygon points="176,35 181,30 231,30 231,40 181,40 176,35 " style="fill:white; stroke-width:1; stroke:black; " description="&lt;b&gt;ctg9_161&lt;/b&gt;&lt;br&gt;ctg9 161&lt;br&gt;Location: 209521 - 210319" locus_tag="ctg9_161" class="clusterblast-orf" id="knownclusterblast-1_q5_0_all"  />
<polygon points="237,40 320,40 325,35 320,30 237,30 237,40 " style="fill:white; stroke-width:1; stroke:black; " description="&lt;b&gt;ctg9_162&lt;/b&gt;&lt;br&gt;ctg9 162&lt;br&gt;Location: 210409 - 211681" locus_tag="ctg9_162" class="clusterblast-orf" id="knownclusterblast-1_q6_0_all"  />
<polygon points="325,40 441,40 446,35 441,30 325,30 325,40 " style="fill:white; stroke-width:1; stroke:black; " description="&lt;b&gt;ctg9_163&lt;/b&gt;&lt;br&gt;ctg9 163&lt;br&gt;Location: 211684 - 213433" locus_tag="ctg9_163" class="clusterblast-orf" id="knownclusterblast-1_q7_0_all"  />
<polygon points="446,35 451,30 504,30 504,40 451,40 446,35 " style="fill:white; stroke-width:1; stroke:black; " description="&lt;b&gt;ctg9_164&lt;/b&gt;&lt;br&gt;ctg9 164&lt;br&gt;Location: 213429 - 214278" locus_tag="ctg9_164" class="clusterblast-orf" id="knownclusterblast-1_q8_0_all"  />
<polygon points="508,35 513,30 547,30 547,40 513,40 508,35 " style="fill:white; stroke-width:1; stroke:black; " description="&lt;b&gt;ctg9_165&lt;/b&gt;&lt;br&gt;ctg9 165&lt;br&gt;Location: 214333 - 214894" locus_tag="ctg9_165" class="clusterblast-orf" id="knownclusterblast-1_q9_0_all"  />
<polygon points="555,40 614,40 619,35 614,30 555,30 555,40 " style="fill:white; stroke-width:1; stroke:black; " description="&lt;b&gt;ctg9_166&lt;/b&gt;&lt;br&gt;ctg9 166&lt;br&gt;Location: 215020 - 215941" locus_tag="ctg9_166" class="clusterblast-orf" id="knownclusterblast-1_q10_0_all"  />
<polygon points="618,40 661,40 666,35 661,30 618,30 618,40 " style="fill:white; stroke-width:1; stroke:black; " description="&lt;b&gt;ctg9_167&lt;/b&gt;&lt;br&gt;ctg9 167&lt;br&gt;Location: 215933 - 216617" locus_tag="ctg9_167" class="clusterblast-orf" id="knownclusterblast-1_q11_0_all"  />
<polygon points="669,40 716,40 721,35 716,30 669,30 669,40 " style="fill:white; stroke-width:1; stroke:black; " description="&lt;b&gt;ctg9_168&lt;/b&gt;&lt;br&gt;ctg9 168&lt;br&gt;Location: 216663 - 217422" locus_tag="ctg9_168" class="clusterblast-orf" id="knownclusterblast-1_q12_0_all"  />
<polygon points="725,40 775,40 780,35 775,30 725,30 725,40 " style="fill:white; stroke-width:1; stroke:black; " description="&lt;b&gt;ctg9_169&lt;/b&gt;&lt;br&gt;ctg9 169&lt;br&gt;Location: 217481 - 218279" locus_tag="ctg9_169" class="clusterblast-orf" id="knownclusterblast-1_q13_0_all"  />
</g>
</svg>
