<svg xmlns="http://www.w3.org/2000/svg" xmlns:xlink="http://www.w3.org/1999/xlink" version="1.1" x="0" y="0" height="250" width="800" viewBox="0 0 800 250" preserveAspectRatio="none"  >
<g label="Query sequence" class="clusterblast-cluster"  >
<text x="5" y="20" class="clusterblast-acc"  >
Query sequence</text>
<line x1="10" y1="35" x2="778.0" y2="35" style="stroke-width:1; stroke:grey; "  />
<polygon points="26,35 29,30 29,40 26,35 " style="fill:white; stroke-width:1; stroke:black; " description="&lt;b&gt;ctg21_86&lt;/b&gt;&lt;br&gt;ctg21 86&lt;br&gt;Location: 88234 - 88402" locus_tag="ctg21_86" class="clusterblast-orf" id="knownclusterblast-1_q0_0_all"  />
<polygon points="30,40 32,40 37,35 32,30 30,30 30,40 " style="fill:white; stroke-width:1; stroke:black; " description="&lt;b&gt;ctg21_87&lt;/b&gt;&lt;br&gt;ctg21 87&lt;br&gt;Location: 88461 - 88878" locus_tag="ctg21_87" class="clusterblast-orf" id="knownclusterblast-1_q1_0_all"  />
<polygon points="39,40 41,40 46,35 41,30 39,30 39,40 " style="fill:white; stroke-width:1; stroke:black; " description="&lt;b&gt;ctg21_88&lt;/b&gt;&lt;br&gt;ctg21 88&lt;br&gt;Location: 88991 - 89393" locus_tag="ctg21_88" class="clusterblast-orf" id="knownclusterblast-1_q2_0_all"  />
<polygon points="48,40 50,40 55,35 50,30 48,30 48,40 " style="fill:white; stroke-width:1; stroke:black; " description="&lt;b&gt;ctg21_89&lt;/b&gt;&lt;br&gt;ctg21 89&lt;br&gt;Location: 89477 - 89921" locus_tag="ctg21_89" class="clusterblast-orf" id="knownclusterblast-1_q3_0_all"  />
<polygon points="55,35 60,30 75,30 75,40 60,40 55,35 " style="fill:white; stroke-width:1; stroke:black; " description="&lt;b&gt;ctg21_90&lt;/b&gt;&lt;br&gt;ctg21 90&lt;br&gt;Location: 89923 - 91063" locus_tag="ctg21_90" class="clusterblast-orf" id="knownclusterblast-1_q4_0_all"  />
<polygon points="78,40 80,40 85,35 80,30 78,30 78,40 " style="fill:white; stroke-width:1; stroke:black; " description="&lt;b&gt;ctg21_91&lt;/b&gt;&lt;br&gt;ctg21 91&lt;br&gt;Location: 91191 - 91602" locus_tag="ctg21_91" class="clusterblast-orf" id="knownclusterblast-1_q5_0_all"  />
<polygon points="84,40 103,40 108,35 103,30 84,30 84,40 " style="fill:white; stroke-width:1; stroke:black; " description="&lt;b&gt;ctg21_92&lt;/b&gt;&lt;br&gt;ctg21 92&lt;br&gt;Location: 91570 - 92926" locus_tag="ctg21_92" class="clusterblast-orf" id="knownclusterblast-1_q6_0_all"  />
<polygon points="108,40 112,40 117,35 112,30 108,30 108,40 " style="fill:white; stroke-width:1; stroke:black; " description="&lt;b&gt;ctg21_93&lt;/b&gt;&lt;br&gt;ctg21 93&lt;br&gt;Location: 92926 - 93424" locus_tag="ctg21_93" class="clusterblast-orf" id="knownclusterblast-1_q7_0_all"  />
<polygon points="117,40 120,40 125,35 120,30 117,30 117,40 " style="fill:white; stroke-width:1; stroke:black; " description="&lt;b&gt;ctg21_94&lt;/b&gt;&lt;br&gt;ctg21 94&lt;br&gt;Location: 93442 - 93916" locus_tag="ctg21_94" class="clusterblast-orf" id="knownclusterblast-1_q8_0_all"  />
<polygon points="125,40 147,40 152,35 147,30 125,30 125,40 " style="fill:white; stroke-width:1; stroke:black; " description="&lt;b&gt;ctg21_95&lt;/b&gt;&lt;br&gt;ctg21 95&lt;br&gt;Location: 93916 - 95470" locus_tag="ctg21_95" class="clusterblast-orf" id="knownclusterblast-1_q9_0_all"  />
<polygon points="153,40 180,40 185,35 180,30 153,30 153,40 " style="fill:white; stroke-width:1; stroke:black; " description="&lt;b&gt;ctg21_96&lt;/b&gt;&lt;br&gt;ctg21 96&lt;br&gt;Location: 95485 - 97324" locus_tag="ctg21_96" class="clusterblast-orf" id="knownclusterblast-1_q10_0_all"  />
<polygon points="184,35 188,30 188,40 184,35 " style="fill:white; stroke-width:1; stroke:black; " description="&lt;b&gt;ctg21_97&lt;/b&gt;&lt;br&gt;ctg21 97&lt;br&gt;Location: 97307 - 97526" locus_tag="ctg21_97" class="clusterblast-orf" id="knownclusterblast-1_q11_0_all"  />
<polygon points="189,35 194,30 221,30 221,40 194,40 189,35 " style="fill:white; stroke-width:1; stroke:black; " description="&lt;b&gt;ctg21_98&lt;/b&gt;&lt;br&gt;ctg21 98&lt;br&gt;Location: 97559 - 99425" locus_tag="ctg21_98" class="clusterblast-orf" id="knownclusterblast-1_q12_0_all"  />
<polygon points="224,35 229,30 251,30 251,40 229,40 224,35 " style="fill:white; stroke-width:1; stroke:black; " description="&lt;b&gt;ctg21_99&lt;/b&gt;&lt;br&gt;ctg21 99&lt;br&gt;Location: 99580 - 101140" locus_tag="ctg21_99" class="clusterblast-orf" id="knownclusterblast-1_q13_0_all"  />
<polygon points="252,35 257,30 329,30 329,40 257,40 252,35 " style="fill:white; stroke-width:1; stroke:black; " description="&lt;b&gt;ctg21_100&lt;/b&gt;&lt;br&gt;ctg21 100&lt;br&gt;Location: 101158 - 105565" locus_tag="ctg21_100" class="clusterblast-orf" id="knownclusterblast-1_q14_0_all"  />
<polygon points="331,35 336,30 364,30 364,40 336,40 331,35 " style="fill:white; stroke-width:1; stroke:black; " description="&lt;b&gt;ctg21_101&lt;/b&gt;&lt;br&gt;ctg21 101&lt;br&gt;Location: 105679 - 107578" locus_tag="ctg21_101" class="clusterblast-orf" id="knownclusterblast-1_q15_0_all"  />
<polygon points="365,35 370,30 416,30 416,40 370,40 365,35 " style="fill:white; stroke-width:1; stroke:black; " description="&lt;b&gt;ctg21_102&lt;/b&gt;&lt;br&gt;ctg21 102&lt;br&gt;Location: 107617 - 110572" locus_tag="ctg21_102" class="clusterblast-orf" id="knownclusterblast-1_q16_0_all"  />
<polygon points="417,35 422,30 442,30 442,40 422,40 417,35 " style="fill:white; stroke-width:1; stroke:black; " description="&lt;b&gt;ctg21_103&lt;/b&gt;&lt;br&gt;ctg21 103&lt;br&gt;Location: 110641 - 112024" locus_tag="ctg21_103" class="clusterblast-orf" id="knownclusterblast-1_q17_0_all"  />
<polygon points="443,40 450,40 455,35 450,30 443,30 443,40 " style="fill:white; stroke-width:1; stroke:black; " description="&lt;b&gt;ctg21_104&lt;/b&gt;&lt;br&gt;ctg21 104&lt;br&gt;Location: 112132 - 112822" locus_tag="ctg21_104" class="clusterblast-orf" id="knownclusterblast-1_q18_0_all"  />
<polygon points="456,35 461,30 462,30 462,40 461,40 456,35 " style="fill:white; stroke-width:1; stroke:black; " description="&lt;b&gt;ctg21_105&lt;/b&gt;&lt;br&gt;ctg21 105&lt;br&gt;Location: 112846 - 113188" locus_tag="ctg21_105" class="clusterblast-orf" id="knownclusterblast-1_q19_0_all"  />
<polygon points="465,40 483,40 488,35 483,30 465,30 465,40 " style="fill:white; stroke-width:1; stroke:black; " description="&lt;b&gt;ctg21_106&lt;/b&gt;&lt;br&gt;ctg21 106&lt;br&gt;Location: 113372 - 114680" locus_tag="ctg21_106" class="clusterblast-orf" id="knownclusterblast-1_q20_0_all"  />
<polygon points="488,35 493,30 513,30 513,40 493,40 488,35 " style="fill:white; stroke-width:1; stroke:black; " description="&lt;b&gt;ctg21_107&lt;/b&gt;&lt;br&gt;ctg21 107&lt;br&gt;Location: 114676 - 116104" locus_tag="ctg21_107" class="clusterblast-orf" id="knownclusterblast-1_q21_0_all"  />
<polygon points="517,40 528,40 533,35 528,30 517,30 517,40 " style="fill:white; stroke-width:1; stroke:black; " description="&lt;b&gt;ctg21_108&lt;/b&gt;&lt;br&gt;ctg21 108&lt;br&gt;Location: 116321 - 117272" locus_tag="ctg21_108" class="clusterblast-orf" id="knownclusterblast-1_q22_0_all"  />
<polygon points="533,40 536,40 541,35 536,30 533,30 533,40 " style="fill:white; stroke-width:1; stroke:black; " description="&lt;b&gt;ctg21_109&lt;/b&gt;&lt;br&gt;ctg21 109&lt;br&gt;Location: 117281 - 117713" locus_tag="ctg21_109" class="clusterblast-orf" id="knownclusterblast-1_q23_0_all"  />
<polygon points="543,40 564,40 569,35 564,30 543,30 543,40 " style="fill:white; stroke-width:1; stroke:black; " description="&lt;b&gt;ctg21_110&lt;/b&gt;&lt;br&gt;ctg21 110&lt;br&gt;Location: 117813 - 119310" locus_tag="ctg21_110" class="clusterblast-orf" id="knownclusterblast-1_q24_0_all"  />
<polygon points="570,35 575,30 589,30 589,40 575,40 570,35 " style="fill:white; stroke-width:1; stroke:black; " description="&lt;b&gt;ctg21_111&lt;/b&gt;&lt;br&gt;ctg21 111&lt;br&gt;Location: 119377 - 120481" locus_tag="ctg21_111" class="clusterblast-orf" id="knownclusterblast-1_q25_0_all"  />
<polygon points="592,40 594,40 599,35 594,30 592,30 592,40 " style="fill:white; stroke-width:1; stroke:black; " description="&lt;b&gt;ctg21_112&lt;/b&gt;&lt;br&gt;ctg21 112&lt;br&gt;Location: 120626 - 121025" locus_tag="ctg21_112" class="clusterblast-orf" id="knownclusterblast-1_q26_0_all"  />
<polygon points="598,40 604,40 609,35 604,30 598,30 598,40 " style="fill:white; stroke-width:1; stroke:black; " description="&lt;b&gt;ctg21_113&lt;/b&gt;&lt;br&gt;ctg21 113&lt;br&gt;Location: 121002 - 121629" locus_tag="ctg21_113" class="clusterblast-orf" id="knownclusterblast-1_q27_0_all"  />
<polygon points="609,40 629,40 634,35 629,30 609,30 609,40 " style="fill:white; stroke-width:1; stroke:black; " description="&lt;b&gt;ctg21_114&lt;/b&gt;&lt;br&gt;ctg21 114&lt;br&gt;Location: 121625 - 123032" locus_tag="ctg21_114" class="clusterblast-orf" id="knownclusterblast-1_q28_0_all"  />
<polygon points="635,35 638,30 638,40 635,35 " style="fill:white; stroke-width:1; stroke:black; " description="&lt;b&gt;ctg21_115&lt;/b&gt;&lt;br&gt;ctg21 115&lt;br&gt;Location: 123088 - 123244" locus_tag="ctg21_115" class="clusterblast-orf" id="knownclusterblast-1_q29_0_all"  />
<polygon points="643,35 648,30 653,30 653,40 648,40 643,35 " style="fill:white; stroke-width:1; stroke:black; " description="&lt;b&gt;ctg21_116&lt;/b&gt;&lt;br&gt;ctg21 116&lt;br&gt;Location: 123555 - 124146" locus_tag="ctg21_116" class="clusterblast-orf" id="knownclusterblast-1_q30_0_all"  />
<polygon points="656,40 660,40 665,35 660,30 656,30 656,40 " style="fill:white; stroke-width:1; stroke:black; " description="&lt;b&gt;ctg21_117&lt;/b&gt;&lt;br&gt;ctg21 117&lt;br&gt;Location: 124322 - 124805" locus_tag="ctg21_117" class="clusterblast-orf" id="knownclusterblast-1_q31_0_all"  />
<polygon points="667,40 672,40 677,35 672,30 667,30 667,40 " style="fill:white; stroke-width:1; stroke:black; " description="&lt;b&gt;ctg21_118&lt;/b&gt;&lt;br&gt;ctg21 118&lt;br&gt;Location: 124905 - 125478" locus_tag="ctg21_118" class="clusterblast-orf" id="knownclusterblast-1_q32_0_all"  />
<polygon points="678,40 685,40 690,35 685,30 678,30 678,40 " style="fill:white; stroke-width:1; stroke:black; " description="&lt;b&gt;ctg21_119&lt;/b&gt;&lt;br&gt;ctg21 119&lt;br&gt;Location: 125559 - 126264" locus_tag="ctg21_119" class="clusterblast-orf" id="knownclusterblast-1_q33_0_all"  />
<polygon points="692,40 694,40 699,35 694,30 692,30 692,40 " style="fill:white; stroke-width:1; stroke:black; " description="&lt;b&gt;ctg21_120&lt;/b&gt;&lt;br&gt;ctg21 120&lt;br&gt;Location: 126363 - 126750" locus_tag="ctg21_120" class="clusterblast-orf" id="knownclusterblast-1_q34_0_all"  />
<polygon points="699,35 704,30 707,30 707,40 704,40 699,35 " style="fill:white; stroke-width:1; stroke:black; " description="&lt;b&gt;ctg21_121&lt;/b&gt;&lt;br&gt;ctg21 121&lt;br&gt;Location: 126774 - 127227" locus_tag="ctg21_121" class="clusterblast-orf" id="knownclusterblast-1_q35_0_all"  />
<polygon points="710,40 717,40 722,35 717,30 710,30 710,40 " style="fill:#d81515; stroke-width:1; stroke:black; " description="&lt;b&gt;ctg21_122&lt;/b&gt;&lt;br&gt;ctg21 122&lt;br&gt;Location: 127378 - 128086" locus_tag="ctg21_122" class="clusterblast-orf" id="knownclusterblast-1_q36_0_all"  />
<polygon points="721,40 727,40 732,35 727,30 721,30 721,40 " style="fill:#15d8d8; stroke-width:1; stroke:black; " description="&lt;b&gt;ctg21_123&lt;/b&gt;&lt;br&gt;ctg21 123&lt;br&gt;Location: 128030 - 128678" locus_tag="ctg21_123" class="clusterblast-orf" id="knownclusterblast-1_q37_0_all"  />
<polygon points="733,40 748,40 753,35 748,30 733,30 733,40 " style="fill:white; stroke-width:1; stroke:black; " description="&lt;b&gt;ctg21_124&lt;/b&gt;&lt;br&gt;ctg21 124&lt;br&gt;Location: 128688 - 129879" locus_tag="ctg21_124" class="clusterblast-orf" id="knownclusterblast-1_q38_0_all"  />
</g>
<g label="BGC0001090" description="BGC0001090_c1: bacillomycin D (20% of genes show similarity), Polyketide+NRP:Lipopeptide" class="clusterblast-cluster"  >
<text x="5" y="70" class="clusterblast-acc"  >
<a xlink:href="https://mibig.secondarymetabolites.org/go/BGC0001090/1" target="_blank">BGC0001090</a>: bacillomycin D                                                                   (20% of genes show similarity), Polyketide+NRP:Lipopeptide</text>
<line x1="10" y1="85" x2="778.0" y2="85" style="stroke-width:1; stroke:grey; "  />
</g>
<g id="a1_000"  >
<polygon points="0,90 20,90 25,85 20,80 0,80 0,90 " style="fill:white; stroke-width:1; stroke:black; " description="&lt;b&gt;RBAM_018230&lt;/b&gt;&lt;br&gt;YxjC&lt;br&gt;Location: 44647 - 43211" locus_tag="RBAM_018230" class="clusterblast-orf" id="knownclusterblast-1_all_1_1_0"  />
</g>
<g id="a1_001"  >
<polygon points="25,90 32,90 37,85 32,80 25,80 25,90 " style="fill:#d81515; stroke-width:1; stroke:black; " description="&lt;b&gt;RBAM_018220&lt;/b&gt;&lt;br&gt;ScoA&lt;br&gt;Location: 43186 - 42485&lt;br&gt;&lt;br&gt;&lt;b&gt;BlastP hit with ctg21_122&lt;/b&gt;&lt;br&gt;Percentage identity: 63&lt;br&gt;Percentage coverage: 94&lt;br&gt;BLAST bit score: 280&lt;br&gt;E-value: 1.24e-95" locus_tag="RBAM_018220" class="clusterblast-orf" id="knownclusterblast-1_all_1_1_1"  />
</g>
<g id="a1_002"  >
<polygon points="38,90 44,90 49,85 44,80 38,80 38,90 " style="fill:#15d8d8; stroke-width:1; stroke:black; " description="&lt;b&gt;RBAM_018210&lt;/b&gt;&lt;br&gt;ScoB&lt;br&gt;Location: 42467 - 41805&lt;br&gt;&lt;br&gt;&lt;b&gt;BlastP hit with ctg21_123&lt;/b&gt;&lt;br&gt;Percentage identity: 57&lt;br&gt;Percentage coverage: 93&lt;br&gt;BLAST bit score: 235&lt;br&gt;E-value: 1.57e-78" locus_tag="RBAM_018210" class="clusterblast-orf" id="knownclusterblast-1_all_1_1_2"  />
</g>
<g id="a1_003"  >
<polygon points="49,90 58,90 63,85 58,80 49,80 49,90 " style="fill:white; stroke-width:1; stroke:black; " description="&lt;b&gt;RBAM_018200&lt;/b&gt;&lt;br&gt;YxjF&lt;br&gt;Location: 41792 - 41007" locus_tag="RBAM_018200" class="clusterblast-orf" id="knownclusterblast-1_all_1_1_3"  />
</g>
<g id="a1_004"  >
<polygon points="73,90 89,90 94,85 89,80 73,80 73,90 " style="fill:white; stroke-width:1; stroke:black; " description="&lt;b&gt;RBAM_018190&lt;/b&gt;&lt;br&gt;malonyl-CoA transacylase &lt;br&gt;Location: 40447 - 39245" locus_tag="RBAM_018190" class="clusterblast-orf" id="knownclusterblast-1_all_1_1_4"  />
</g>
<g id="a1_005"  >
<polygon points="94,90 298,90 303,85 298,80 94,80 94,90 " style="fill:white; stroke-width:1; stroke:black; " description="&lt;b&gt;RBAM_018180&lt;/b&gt;&lt;br&gt;bacillomycin D synthetase A &lt;br&gt;Location: 39225 - 27277" locus_tag="RBAM_018180" class="clusterblast-orf" id="knownclusterblast-1_all_1_1_5"  />
</g>
<g id="a1_006"  >
<polygon points="304,90 580,90 585,85 580,80 304,80 304,90 " style="fill:white; stroke-width:1; stroke:black; " description="&lt;b&gt;RBAM_018170&lt;/b&gt;&lt;br&gt;bacillomycin D synthetase B&lt;br&gt;Location: 27232 - 11141" locus_tag="RBAM_018170" class="clusterblast-orf" id="knownclusterblast-1_all_1_1_6"  />
</g>
<g id="a1_007"  >
<polygon points="586,90 719,90 724,85 719,80 586,80 586,90 " style="fill:white; stroke-width:1; stroke:black; " description="&lt;b&gt;RBAM_018160&lt;/b&gt;&lt;br&gt;bacillomycin D synthetase C&lt;br&gt;Location: 11056 - 3197" locus_tag="RBAM_018160" class="clusterblast-orf" id="knownclusterblast-1_all_1_1_7"  />
</g>
<g id="a1_008"  >
<polygon points="729,90 751,90 756,85 751,80 729,80 729,90 " style="fill:white; stroke-width:1; stroke:black; " description="&lt;b&gt;RBAM_018150&lt;/b&gt;&lt;br&gt;XynD&lt;br&gt;Location: 2872 - 1334" locus_tag="RBAM_018150" class="clusterblast-orf" id="knownclusterblast-1_all_1_1_8"  />
</g>
<g id="a1_009"  >
<polygon points="757,90 775,90 780,85 775,80 757,80 757,90 " style="fill:white; stroke-width:1; stroke:black; " description="&lt;b&gt;RBAM_018140&lt;/b&gt;&lt;br&gt;YnfF&lt;br&gt;Location: 1272 - 1" locus_tag="RBAM_018140" class="clusterblast-orf" id="knownclusterblast-1_all_1_1_9"  />
</g>
<g label="BGC0001098" description="BGC0001098_c1: iturin (22% of genes show similarity), NRP+Polyketide" class="clusterblast-cluster"  >
<text x="5" y="120" class="clusterblast-acc"  >
<a xlink:href="https://mibig.secondarymetabolites.org/go/BGC0001098/1" target="_blank">BGC0001098</a>: iturin                                                                           (22% of genes show similarity), NRP+Polyketide</text>
<line x1="10" y1="135" x2="778.0" y2="135" style="stroke-width:1; stroke:grey; "  />
</g>
<g id="a1_000"  >
<polygon points="26,140 41,140 46,135 41,130 26,130 26,140 " style="fill:white; stroke-width:1; stroke:black; " description="&lt;b&gt;BAB69693.1&lt;/b&gt;&lt;br&gt;&lt;br&gt;Location: 1 - 1167" locus_tag="BAB69693.1" class="clusterblast-orf" id="knownclusterblast-1_all_1_2_0"  />
</g>
<g id="a1_001"  >
<polygon points="47,140 54,140 59,135 54,130 47,130 47,140 " style="fill:#d81515; stroke-width:1; stroke:black; " description="&lt;b&gt;BAB69694.1&lt;/b&gt;&lt;br&gt;&lt;br&gt;Location: 1192 - 1893&lt;br&gt;&lt;br&gt;&lt;b&gt;BlastP hit with ctg21_122&lt;/b&gt;&lt;br&gt;Percentage identity: 63&lt;br&gt;Percentage coverage: 94&lt;br&gt;BLAST bit score: 278&lt;br&gt;E-value: 7.14e-95" locus_tag="BAB69694.1" class="clusterblast-orf" id="knownclusterblast-1_all_1_2_1"  />
</g>
<g id="a1_002"  >
<polygon points="59,140 66,140 71,135 66,130 59,130 59,140 " style="fill:#15d8d8; stroke-width:1; stroke:black; " description="&lt;b&gt;BAB69695.1&lt;/b&gt;&lt;br&gt;&lt;br&gt;Location: 1911 - 2573&lt;br&gt;&lt;br&gt;&lt;b&gt;BlastP hit with ctg21_123&lt;/b&gt;&lt;br&gt;Percentage identity: 57&lt;br&gt;Percentage coverage: 93&lt;br&gt;BLAST bit score: 235&lt;br&gt;E-value: 1.57e-78" locus_tag="BAB69695.1" class="clusterblast-orf" id="knownclusterblast-1_all_1_2_2"  />
</g>
<g id="a1_003"  >
<polygon points="71,140 80,140 85,135 80,130 71,130 71,140 " style="fill:white; stroke-width:1; stroke:black; " description="&lt;b&gt;BAB69696.1&lt;/b&gt;&lt;br&gt;&lt;br&gt;Location: 2586 - 3371" locus_tag="BAB69696.1" class="clusterblast-orf" id="knownclusterblast-1_all_1_2_3"  />
</g>
<g id="a1_004"  >
<polygon points="95,140 111,140 116,135 111,130 95,130 95,140 " style="fill:white; stroke-width:1; stroke:black; " description="&lt;b&gt;BAB69697.1&lt;/b&gt;&lt;br&gt;putative malonyl-CoA transacylase&lt;br&gt;Location: 3930 - 5132" locus_tag="BAB69697.1" class="clusterblast-orf" id="knownclusterblast-1_all_1_2_4"  />
</g>
<g id="a1_005"  >
<polygon points="116,140 320,140 325,135 320,130 116,130 116,140 " style="fill:white; stroke-width:1; stroke:black; " description="&lt;b&gt;BAB69698.1&lt;/b&gt;&lt;br&gt;iturin A synthetase A&lt;br&gt;Location: 5152 - 17100" locus_tag="BAB69698.1" class="clusterblast-orf" id="knownclusterblast-1_all_1_2_5"  />
</g>
<g id="a1_006"  >
<polygon points="326,140 602,140 607,135 602,130 326,130 326,140 " style="fill:white; stroke-width:1; stroke:black; " description="&lt;b&gt;BAB69699.1&lt;/b&gt;&lt;br&gt;iturin A synthetase B&lt;br&gt;Location: 17145 - 33233" locus_tag="BAB69699.1" class="clusterblast-orf" id="knownclusterblast-1_all_1_2_6"  />
</g>
<g id="a1_007"  >
<polygon points="608,140 741,140 746,135 741,130 608,130 608,140 " style="fill:white; stroke-width:1; stroke:black; " description="&lt;b&gt;BAB69700.1&lt;/b&gt;&lt;br&gt;iturin A synthetase C&lt;br&gt;Location: 33322 - 41178" locus_tag="BAB69700.1" class="clusterblast-orf" id="knownclusterblast-1_all_1_2_7"  />
</g>
<g id="a1_008"  >
<polygon points="751,140 753,135 751,130 751,140 " style="fill:white; stroke-width:1; stroke:black; " description="&lt;b&gt;BAB69701.1&lt;/b&gt;&lt;br&gt;&lt;br&gt;Location: 41487 - 41599" locus_tag="BAB69701.1" class="clusterblast-orf" id="knownclusterblast-1_all_1_2_8"  />
</g>
<g label="BGC0000774" description="BGC0000774_c1: lipopolysaccharide (5% of genes show similarity), Saccharide:Lipopolysaccharide" class="clusterblast-cluster"  >
<text x="5" y="170" class="clusterblast-acc"  >
<a xlink:href="https://mibig.secondarymetabolites.org/go/BGC0000774/1" target="_blank">BGC0000774</a>: lipopolysaccharide                                                               (5% of genes show similarity), Saccharide:Lipopolysaccharide</text>
<line x1="10" y1="185" x2="778.0" y2="185" style="stroke-width:1; stroke:grey; "  />
</g>
<g id="a1_000"  >
<polygon points="61,185 66,180 71,180 71,190 66,190 61,185 " style="fill:white; stroke-width:1; stroke:black; " description="&lt;b&gt;AAK53492.1&lt;/b&gt;&lt;br&gt;putative ATP-dependent RNA helicase&lt;br&gt;Location: 37753 - 37148" locus_tag="AAK53492.1" class="clusterblast-orf" id="knownclusterblast-1_all_1_3_0"  />
</g>
<g id="a1_001"  >
<polygon points="78,190 90,190 95,185 90,180 78,180 78,190 " style="fill:white; stroke-width:1; stroke:black; " description="&lt;b&gt;AAK53491.1&lt;/b&gt;&lt;br&gt;putative dioxygenase&lt;br&gt;Location: 36768 - 35779" locus_tag="AAK53491.1" class="clusterblast-orf" id="knownclusterblast-1_all_1_3_1"  />
</g>
<g id="a1_002"  >
<polygon points="96,190 103,190 108,185 103,180 96,180 96,190 " style="fill:white; stroke-width:1; stroke:black; " description="&lt;b&gt;AAK53490.1&lt;/b&gt;&lt;br&gt;putative maleylacetoacetate isomerase&lt;br&gt;Location: 35735 - 35073" locus_tag="AAK53490.1" class="clusterblast-orf" id="knownclusterblast-1_all_1_3_2"  />
</g>
<g id="a1_003"  >
<polygon points="117,185 122,180 137,180 137,190 122,190 117,185 " style="fill:white; stroke-width:1; stroke:black; " description="&lt;b&gt;AAK53489.1&lt;/b&gt;&lt;br&gt;type II secretion system protein-like protein&lt;br&gt;Location: 34553 - 33420" locus_tag="AAK53489.1" class="clusterblast-orf" id="knownclusterblast-1_all_1_3_3"  />
</g>
<g id="a1_004"  >
<polygon points="138,190 140,190 145,185 140,180 138,180 138,190 " style="fill:white; stroke-width:1; stroke:black; " description="&lt;b&gt;AAK53488.1&lt;/b&gt;&lt;br&gt;putative outer membrane protein UptD precursor&lt;br&gt;Location: 33321 - 32938" locus_tag="AAK53488.1" class="clusterblast-orf" id="knownclusterblast-1_all_1_3_4"  />
</g>
<g id="a1_005"  >
<polygon points="145,190 155,190 160,185 155,180 145,180 145,190 " style="fill:white; stroke-width:1; stroke:black; " description="&lt;b&gt;AAK53487.1&lt;/b&gt;&lt;br&gt;putative outer membrane protein UptE precursor&lt;br&gt;Location: 32941 - 32051" locus_tag="AAK53487.1" class="clusterblast-orf" id="knownclusterblast-1_all_1_3_5"  />
</g>
<g id="a1_006"  >
<polygon points="162,190 165,190 170,185 165,180 162,180 162,190 " style="fill:white; stroke-width:1; stroke:black; " description="&lt;b&gt;AAK53486.1&lt;/b&gt;&lt;br&gt;UptF&lt;br&gt;Location: 31985 - 31491" locus_tag="AAK53486.1" class="clusterblast-orf" id="knownclusterblast-1_all_1_3_6"  />
</g>
<g id="a1_007"  >
<polygon points="174,190 193,190 198,185 193,180 174,180 174,190 " style="fill:white; stroke-width:1; stroke:black; " description="&lt;b&gt;AAK53485.1&lt;/b&gt;&lt;br&gt;cystathionine beta-lyase&lt;br&gt;Location: 31259 - 29889" locus_tag="AAK53485.1" class="clusterblast-orf" id="knownclusterblast-1_all_1_3_7"  />
</g>
<g id="a1_008"  >
<polygon points="200,190 216,190 221,185 216,180 200,180 200,190 " style="fill:white; stroke-width:1; stroke:black; " description="&lt;b&gt;AAK53484.1&lt;/b&gt;&lt;br&gt;cystathionine gamma-synthase&lt;br&gt;Location: 29795 - 28596" locus_tag="AAK53484.1" class="clusterblast-orf" id="knownclusterblast-1_all_1_3_8"  />
</g>
<g id="a1_009"  >
<polygon points="221,190 240,190 245,185 240,180 221,180 221,190 " style="fill:white; stroke-width:1; stroke:black; " description="&lt;b&gt;AAK53483.1&lt;/b&gt;&lt;br&gt;glycosyltransferase&lt;br&gt;Location: 28599 - 27214" locus_tag="AAK53483.1" class="clusterblast-orf" id="knownclusterblast-1_all_1_3_9"  />
</g>
<g id="a1_0010"  >
<polygon points="246,190 255,190 260,185 255,180 246,180 246,190 " style="fill:white; stroke-width:1; stroke:black; " description="&lt;b&gt;AAK53482.1&lt;/b&gt;&lt;br&gt;permease protein of an ABC-type polysaccaharide exporter&lt;br&gt;Location: 27130 - 26345" locus_tag="AAK53482.1" class="clusterblast-orf" id="knownclusterblast-1_all_1_3_10"  />
</g>
<g id="a1_0011"  >
<polygon points="260,190 278,190 283,185 278,180 260,180 260,190 " style="fill:white; stroke-width:1; stroke:black; " description="&lt;b&gt;AAK53481.1&lt;/b&gt;&lt;br&gt;ATP-binding component of an ABC-type polysaccharide exporter&lt;br&gt;Location: 26348 - 25062" locus_tag="AAK53481.1" class="clusterblast-orf" id="knownclusterblast-1_all_1_3_11"  />
</g>
<g id="a1_0012"  >
<polygon points="283,190 318,190 323,185 318,180 283,180 283,190 " style="fill:white; stroke-width:1; stroke:black; " description="&lt;b&gt;AAK53480.1&lt;/b&gt;&lt;br&gt;putative protein kinase&lt;br&gt;Location: 25022 - 22734" locus_tag="AAK53480.1" class="clusterblast-orf" id="knownclusterblast-1_all_1_3_12"  />
</g>
<g id="a1_0013"  >
<polygon points="324,190 338,190 343,185 338,180 324,180 324,190 " style="fill:white; stroke-width:1; stroke:black; " description="&lt;b&gt;AAK53479.1&lt;/b&gt;&lt;br&gt;glycosyltransferase&lt;br&gt;Location: 22684 - 21623" locus_tag="AAK53479.1" class="clusterblast-orf" id="knownclusterblast-1_all_1_3_13"  />
</g>
<g id="a1_0014"  >
<polygon points="343,190 369,190 374,185 369,180 343,180 343,190 " style="fill:white; stroke-width:1; stroke:black; " description="&lt;b&gt;AAK53478.1&lt;/b&gt;&lt;br&gt;putative glycosyltransferase&lt;br&gt;Location: 21602 - 19857" locus_tag="AAK53478.1" class="clusterblast-orf" id="knownclusterblast-1_all_1_3_14"  />
</g>
<g id="a1_0015"  >
<polygon points="374,190 380,190 385,185 380,180 374,180 374,190 " style="fill:white; stroke-width:1; stroke:black; " description="&lt;b&gt;AAK53477.1&lt;/b&gt;&lt;br&gt;Unknown&lt;br&gt;Location: 19857 - 19222" locus_tag="AAK53477.1" class="clusterblast-orf" id="knownclusterblast-1_all_1_3_15"  />
</g>
<g id="a1_0016"  >
<polygon points="386,190 399,190 404,185 399,180 386,180 386,190 " style="fill:white; stroke-width:1; stroke:black; " description="&lt;b&gt;AAK53476.1&lt;/b&gt;&lt;br&gt;GDP-mannose 4,6-dehydratase&lt;br&gt;Location: 19144 - 18110" locus_tag="AAK53476.1" class="clusterblast-orf" id="knownclusterblast-1_all_1_3_16"  />
</g>
<g id="a1_0017"  >
<polygon points="404,190 415,190 420,185 415,180 404,180 404,190 " style="fill:white; stroke-width:1; stroke:black; " description="&lt;b&gt;AAK53475.1&lt;/b&gt;&lt;br&gt;GDP-4-dehydro-D-rhamnose reductase&lt;br&gt;Location: 18126 - 17188" locus_tag="AAK53475.1" class="clusterblast-orf" id="knownclusterblast-1_all_1_3_17"  />
</g>
<g id="a1_0018"  >
<polygon points="423,185 428,180 462,180 462,190 428,190 423,185 " style="fill:white; stroke-width:1; stroke:black; " description="&lt;b&gt;AAK53474.1&lt;/b&gt;&lt;br&gt;integral membrane protein&lt;br&gt;Location: 17046 - 14794" locus_tag="AAK53474.1" class="clusterblast-orf" id="knownclusterblast-1_all_1_3_18"  />
</g>
<g id="a1_0019"  >
<polygon points="463,185 468,180 471,180 471,190 468,190 463,185 " style="fill:white; stroke-width:1; stroke:black; " description="&lt;b&gt;AAK53473.1&lt;/b&gt;&lt;br&gt;putative integral membrane protein WxcN&lt;br&gt;Location: 14724 - 14284" locus_tag="AAK53473.1" class="clusterblast-orf" id="knownclusterblast-1_all_1_3_19"  />
</g>
<g id="a1_0020"  >
<polygon points="471,185 476,180 487,180 487,190 476,190 471,185 " style="fill:white; stroke-width:1; stroke:black; " description="&lt;b&gt;AAK53472.1&lt;/b&gt;&lt;br&gt;bifunctional nucleotide hexosamine acetyltransferase / isomerase&lt;br&gt;Location: 14297 - 13368" locus_tag="AAK53472.1" class="clusterblast-orf" id="knownclusterblast-1_all_1_3_20"  />
</g>
<g id="a1_0021"  >
<polygon points="487,185 492,180 504,180 504,190 492,190 487,185 " style="fill:white; stroke-width:1; stroke:black; " description="&lt;b&gt;AAK53471.1&lt;/b&gt;&lt;br&gt;glycosyltransferase&lt;br&gt;Location: 13371 - 12400" locus_tag="AAK53471.1" class="clusterblast-orf" id="knownclusterblast-1_all_1_3_21"  />
</g>
<g id="a1_0022"  >
<polygon points="504,185 509,180 523,180 523,190 509,190 504,185 " style="fill:white; stroke-width:1; stroke:black; " description="&lt;b&gt;AAK53470.1&lt;/b&gt;&lt;br&gt;nucleotide sugar aminotransferase&lt;br&gt;Location: 12415 - 11312" locus_tag="AAK53470.1" class="clusterblast-orf" id="knownclusterblast-1_all_1_3_22"  />
</g>
<g id="a1_0023"  >
<polygon points="524,185 529,180 530,180 530,190 529,190 524,185 " style="fill:white; stroke-width:1; stroke:black; " description="&lt;b&gt;AAK53469.1&lt;/b&gt;&lt;br&gt;WxcH&lt;br&gt;Location: 11263 - 10916" locus_tag="AAK53469.1" class="clusterblast-orf" id="knownclusterblast-1_all_1_3_23"  />
</g>
<g id="a1_0024"  >
<polygon points="531,185 536,180 547,180 547,190 536,190 531,185 " style="fill:white; stroke-width:1; stroke:black; " description="&lt;b&gt;AAK53468.1&lt;/b&gt;&lt;br&gt;putative electron-transferring flavoprotein alpha subunit&lt;br&gt;Location: 10856 - 9912" locus_tag="AAK53468.1" class="clusterblast-orf" id="knownclusterblast-1_all_1_3_24"  />
</g>
<g id="a1_0025"  >
<polygon points="547,185 552,180 560,180 560,190 552,190 547,185 " style="fill:white; stroke-width:1; stroke:black; " description="&lt;b&gt;AAK53467.1&lt;/b&gt;&lt;br&gt;putative electron-transferring flavoprotein beta subunit&lt;br&gt;Location: 9912 - 9166" locus_tag="AAK53467.1" class="clusterblast-orf" id="knownclusterblast-1_all_1_3_25"  />
</g>
<g id="a1_0026"  >
<polygon points="564,190 578,190 583,185 578,180 564,180 564,190 " style="fill:white; stroke-width:1; stroke:black; " description="&lt;b&gt;AAK53466.1&lt;/b&gt;&lt;br&gt;dTDP-glucose 4,6-dehydratase&lt;br&gt;Location: 8937 - 7882" locus_tag="AAK53466.1" class="clusterblast-orf" id="knownclusterblast-1_all_1_3_26"  />
</g>
<g id="a1_0027"  >
<polygon points="584,190 594,190 599,185 594,180 584,180 584,190 " style="fill:white; stroke-width:1; stroke:black; " description="&lt;b&gt;AAA16191.1&lt;/b&gt;&lt;br&gt;glucose-1-phosphate thymidylyltransferase&lt;br&gt;Location: 7818 - 6931" locus_tag="AAA16191.1" class="clusterblast-orf" id="knownclusterblast-1_all_1_3_27"  />
</g>
<g id="a1_0028"  >
<polygon points="599,190 604,190 609,185 604,180 599,180 599,190 " style="fill:white; stroke-width:1; stroke:black; " description="&lt;b&gt;AAK53465.1&lt;/b&gt;&lt;br&gt;dTDP-4-dehydrorhamnose 3,5-epimerase&lt;br&gt;Location: 6934 - 6377" locus_tag="AAK53465.1" class="clusterblast-orf" id="knownclusterblast-1_all_1_3_28"  />
</g>
<g id="a1_0029"  >
<polygon points="609,190 620,190 625,185 620,180 609,180 609,190 " style="fill:white; stroke-width:1; stroke:black; " description="&lt;b&gt;AAK53464.1&lt;/b&gt;&lt;br&gt;dTDP-4-dehydrorhamnose reductase&lt;br&gt;Location: 6380 - 5472" locus_tag="AAK53464.1" class="clusterblast-orf" id="knownclusterblast-1_all_1_3_29"  />
</g>
<g id="a1_0030"  >
<polygon points="627,185 632,180 651,180 651,190 632,190 627,185 " style="fill:white; stroke-width:1; stroke:black; " description="&lt;b&gt;AAK53463.1&lt;/b&gt;&lt;br&gt;phosphomannose isomerase / GDP-mannose pyrophosphorylase&lt;br&gt;Location: 5350 - 3947" locus_tag="AAK53463.1" class="clusterblast-orf" id="knownclusterblast-1_all_1_3_30"  />
</g>
<g id="a1_0031"  >
<polygon points="652,185 657,180 676,180 676,190 657,190 652,185 " style="fill:white; stroke-width:1; stroke:black; " description="&lt;b&gt;AAA27610.1&lt;/b&gt;&lt;br&gt;phosphoglucomutase / phosphomannomutase&lt;br&gt;Location: 3901 - 2555" locus_tag="AAA27610.1" class="clusterblast-orf" id="knownclusterblast-1_all_1_3_31"  />
</g>
<g id="a1_0032"  >
<polygon points="678,190 686,190 691,185 686,180 678,180 678,190 " style="fill:#d81515; stroke-width:1; stroke:black; " description="&lt;b&gt;AAK53462.1&lt;/b&gt;&lt;br&gt;alpha subunit of putative 3-oxoacid CoA-transferase&lt;br&gt;Location: 2420 - 1692&lt;br&gt;&lt;br&gt;&lt;b&gt;BlastP hit with ctg21_122&lt;/b&gt;&lt;br&gt;Percentage identity: 59&lt;br&gt;Percentage coverage: 92&lt;br&gt;BLAST bit score: 256&lt;br&gt;E-value: 2.17e-86" locus_tag="AAK53462.1" class="clusterblast-orf" id="knownclusterblast-1_all_1_3_32"  />
</g>
<g id="a1_0033"  >
<polygon points="691,190 697,190 702,185 697,180 691,180 691,190 " style="fill:#15d8d8; stroke-width:1; stroke:black; " description="&lt;b&gt;AAK53493.1&lt;/b&gt;&lt;br&gt;beta-subunit of putative 3-oxoacid CoA-transferase&lt;br&gt;Location: 1692 - 1054&lt;br&gt;&lt;br&gt;&lt;b&gt;BlastP hit with ctg21_123&lt;/b&gt;&lt;br&gt;Percentage identity: 64&lt;br&gt;Percentage coverage: 93&lt;br&gt;BLAST bit score: 249&lt;br&gt;E-value: 2.9e-84" locus_tag="AAK53493.1" class="clusterblast-orf" id="knownclusterblast-1_all_1_3_33"  />
</g>
<g id="a1_0034"  >
<polygon points="707,185 712,180 718,180 718,190 712,190 707,185 " style="fill:white; stroke-width:1; stroke:black; " description="&lt;b&gt;AAK53494.1&lt;/b&gt;&lt;br&gt;conserved protein involved in carbohydrate biosynthesis&lt;br&gt;Location: 772 - 134" locus_tag="AAK53494.1" class="clusterblast-orf" id="knownclusterblast-1_all_1_3_34"  />
</g>
<g label="BGC0002284" description="BGC0002284_c1: corynecin III/corynecin I/corynecin II (13% of genes show similarity), Other" class="clusterblast-cluster"  >
<text x="5" y="220" class="clusterblast-acc"  >
<a xlink:href="https://mibig.secondarymetabolites.org/go/BGC0002284/1" target="_blank">BGC0002284</a>: corynecin III/corynecin I/corynecin II                                           (13% of genes show similarity), Other</text>
<line x1="10" y1="235" x2="778.0" y2="235" style="stroke-width:1; stroke:grey; "  />
</g>
<g id="a1_000"  >
<polygon points="233,235 238,230 258,230 258,240 238,240 233,235 " style="fill:white; stroke-width:1; stroke:black; " description="&lt;b&gt;CPI83_20065&lt;/b&gt;&lt;br&gt;hypothetical protein&lt;br&gt;Location: 17900 - 16452" locus_tag="CPI83_20065" class="clusterblast-orf" id="knownclusterblast-1_all_1_4_0"  />
</g>
<g id="a1_001"  >
<polygon points="262,240 297,240 302,235 297,230 262,230 262,240 " style="fill:white; stroke-width:1; stroke:black; " description="&lt;b&gt;CPI83_20060&lt;/b&gt;&lt;br&gt;MMPL family transporter&lt;br&gt;Location: 16227 - 13981" locus_tag="CPI83_20060" class="clusterblast-orf" id="knownclusterblast-1_all_1_4_1"  />
</g>
<g id="a1_002"  >
<polygon points="305,240 325,240 330,235 325,230 305,230 305,240 " style="fill:white; stroke-width:1; stroke:black; " description="&lt;b&gt;CPI83_20055&lt;/b&gt;&lt;br&gt;hypothetical protein&lt;br&gt;Location: 13797 - 12358" locus_tag="CPI83_20055" class="clusterblast-orf" id="knownclusterblast-1_all_1_4_2"  />
</g>
<g id="a1_003"  >
<polygon points="330,240 349,240 354,235 349,230 330,230 330,240 " style="fill:white; stroke-width:1; stroke:black; " description="&lt;b&gt;CPI83_20050&lt;/b&gt;&lt;br&gt;hypothetical protein&lt;br&gt;Location: 12361 - 10997" locus_tag="CPI83_20050" class="clusterblast-orf" id="knownclusterblast-1_all_1_4_3"  />
</g>
<g id="a1_004"  >
<polygon points="353,235 358,230 378,230 378,240 358,240 353,235 " style="fill:white; stroke-width:1; stroke:black; " description="&lt;b&gt;CPI83_20045&lt;/b&gt;&lt;br&gt;C4-dicarboxylate transporter DctA&lt;br&gt;Location: 11019 - 9613" locus_tag="CPI83_20045" class="clusterblast-orf" id="knownclusterblast-1_all_1_4_4"  />
</g>
<g id="a1_005"  >
<polygon points="381,240 381,240 386,235 381,230 381,230 381,240 " style="fill:white; stroke-width:1; stroke:black; " description="&lt;b&gt;CPI83_20040&lt;/b&gt;&lt;br&gt;GlsB/YeaQ/YmgE family stress response membrane protein&lt;br&gt;Location: 9424 - 9164" locus_tag="CPI83_20040" class="clusterblast-orf" id="knownclusterblast-1_all_1_4_5"  />
</g>
<g id="a1_006"  >
<polygon points="389,235 394,230 402,230 402,240 394,240 389,235 " style="fill:white; stroke-width:1; stroke:black; " description="&lt;b&gt;CPI83_20035&lt;/b&gt;&lt;br&gt;GTP pyrophosphokinase&lt;br&gt;Location: 9006 - 8260" locus_tag="CPI83_20035" class="clusterblast-orf" id="knownclusterblast-1_all_1_4_6"  />
</g>
<g id="a1_007"  >
<polygon points="402,235 407,230 413,230 413,240 407,240 402,235 " style="fill:white; stroke-width:1; stroke:black; " description="&lt;b&gt;CPI83_20030&lt;/b&gt;&lt;br&gt;TetR/AcrR family transcriptional regulator&lt;br&gt;Location: 8211 - 7612" locus_tag="CPI83_20030" class="clusterblast-orf" id="knownclusterblast-1_all_1_4_7"  />
</g>
<g id="a1_008"  >
<polygon points="415,240 437,240 442,235 437,230 415,230 415,240 " style="fill:white; stroke-width:1; stroke:black; " description="&lt;b&gt;CPI83_20025&lt;/b&gt;&lt;br&gt;methylcrotonoyl-CoA carboxylase&lt;br&gt;Location: 7513 - 5924" locus_tag="CPI83_20025" class="clusterblast-orf" id="knownclusterblast-1_all_1_4_8"  />
</g>
<g id="a1_009"  >
<polygon points="442,240 473,240 478,235 473,230 442,230 442,240 " style="fill:white; stroke-width:1; stroke:black; " description="&lt;b&gt;CPI83_20020&lt;/b&gt;&lt;br&gt;acetyl/propionyl/methylcrotonyl-CoA carboxylase subunit alpha&lt;br&gt;Location: 5918 - 3879" locus_tag="CPI83_20020" class="clusterblast-orf" id="knownclusterblast-1_all_1_4_9"  />
</g>
<g id="a1_0010"  >
<polygon points="478,240 493,240 498,235 493,230 478,230 478,240 " style="fill:white; stroke-width:1; stroke:black; " description="&lt;b&gt;CPI83_20015&lt;/b&gt;&lt;br&gt;acyl-CoA dehydrogenase&lt;br&gt;Location: 3879 - 2716" locus_tag="CPI83_20015" class="clusterblast-orf" id="knownclusterblast-1_all_1_4_10"  />
</g>
<g id="a1_0011"  >
<polygon points="498,240 502,240 507,235 502,230 498,230 498,240 " style="fill:white; stroke-width:1; stroke:black; " description="&lt;b&gt;CPI83_20010&lt;/b&gt;&lt;br&gt;dehydratase&lt;br&gt;Location: 2719 - 2231" locus_tag="CPI83_20010" class="clusterblast-orf" id="knownclusterblast-1_all_1_4_11"  />
</g>
<g id="a1_0012"  >
<polygon points="507,240 516,240 521,235 516,230 507,230 507,240 " style="fill:white; stroke-width:1; stroke:black; " description="&lt;b&gt;CPI83_20005&lt;/b&gt;&lt;br&gt;CoA ester lyase&lt;br&gt;Location: 2234 - 1407" locus_tag="CPI83_20005" class="clusterblast-orf" id="knownclusterblast-1_all_1_4_12"  />
</g>
<g id="a1_0013"  >
<polygon points="521,240 530,240 535,235 530,230 521,230 521,240 " style="fill:#d81515; stroke-width:1; stroke:black; " description="&lt;b&gt;CPI83_20000&lt;/b&gt;&lt;br&gt;CoA transferase subunit A&lt;br&gt;Location: 1403 - 648&lt;br&gt;&lt;br&gt;&lt;b&gt;BlastP hit with ctg21_122&lt;/b&gt;&lt;br&gt;Percentage identity: 48&lt;br&gt;Percentage coverage: 101&lt;br&gt;BLAST bit score: 212&lt;br&gt;E-value: 1.09e-68" locus_tag="CPI83_20000" class="clusterblast-orf" id="knownclusterblast-1_all_1_4_13"  />
</g>
<g id="a1_0014"  >
<polygon points="535,240 541,240 546,235 541,230 535,230 535,240 " style="fill:#15d8d8; stroke-width:1; stroke:black; " description="&lt;b&gt;CPI83_19995&lt;/b&gt;&lt;br&gt;succinyl-CoA--3-ketoacid-CoA transferase&lt;br&gt;Location: 627 - 1&lt;br&gt;&lt;br&gt;&lt;b&gt;BlastP hit with ctg21_123&lt;/b&gt;&lt;br&gt;Percentage identity: 61&lt;br&gt;Percentage coverage: 92&lt;br&gt;BLAST bit score: 248&lt;br&gt;E-value: 7.25e-84" locus_tag="CPI83_19995" class="clusterblast-orf" id="knownclusterblast-1_all_1_4_14"  />
</g>
</svg>
