<svg xmlns="http://www.w3.org/2000/svg" xmlns:xlink="http://www.w3.org/1999/xlink" version="1.1" x="0" y="0" height="50" width="800" viewBox="0 0 800 50" preserveAspectRatio="none"  >
<g label="Query sequence" class="clusterblast-cluster"  >
<text x="5" y="20" class="clusterblast-acc"  >
Query sequence</text>
<line x1="10" y1="35" x2="778.0" y2="35" style="stroke-width:1; stroke:grey; "  />
<polygon points="0,35 5,30 65,30 65,40 5,40 0,35 " style="fill:white; stroke-width:1; stroke:black; " description="&lt;b&gt;ctg3_202&lt;/b&gt;&lt;br&gt;ctg3 202&lt;br&gt;Location: 217416 - 219060" locus_tag="ctg3_202" class="clusterblast-orf" id="subclusterblast-1_q0_0_all"  />
<polygon points="65,35 70,30 88,30 88,40 70,40 65,35 " style="fill:white; stroke-width:1; stroke:black; " description="&lt;b&gt;ctg3_203&lt;/b&gt;&lt;br&gt;ctg3 203&lt;br&gt;Location: 219052 - 219643" locus_tag="ctg3_203" class="clusterblast-orf" id="subclusterblast-1_q1_0_all"  />
<polygon points="92,35 97,30 124,30 124,40 97,40 92,35 " style="fill:white; stroke-width:1; stroke:black; " description="&lt;b&gt;ctg3_204&lt;/b&gt;&lt;br&gt;ctg3 204&lt;br&gt;Location: 219751 - 220552" locus_tag="ctg3_204" class="clusterblast-orf" id="subclusterblast-1_q2_0_all"  />
<polygon points="124,35 129,30 137,30 137,40 129,40 124,35 " style="fill:white; stroke-width:1; stroke:black; " description="&lt;b&gt;ctg3_205&lt;/b&gt;&lt;br&gt;ctg3 205&lt;br&gt;Location: 220544 - 220865" locus_tag="ctg3_205" class="clusterblast-orf" id="subclusterblast-1_q3_0_all"  />
<polygon points="140,35 145,30 154,30 154,40 145,40 140,35 " style="fill:white; stroke-width:1; stroke:black; " description="&lt;b&gt;ctg3_206&lt;/b&gt;&lt;br&gt;ctg3 206&lt;br&gt;Location: 220948 - 221302" locus_tag="ctg3_206" class="clusterblast-orf" id="subclusterblast-1_q4_0_all"  />
<polygon points="155,35 160,30 168,30 168,40 160,40 155,35 " style="fill:white; stroke-width:1; stroke:black; " description="&lt;b&gt;ctg3_207&lt;/b&gt;&lt;br&gt;ctg3 207&lt;br&gt;Location: 221332 - 221668" locus_tag="ctg3_207" class="clusterblast-orf" id="subclusterblast-1_q5_0_all"  />
<polygon points="174,35 179,30 224,30 224,40 179,40 174,35 " style="fill:white; stroke-width:1; stroke:black; " description="&lt;b&gt;ctg3_208&lt;/b&gt;&lt;br&gt;ctg3 208&lt;br&gt;Location: 221803 - 223060" locus_tag="ctg3_208" class="clusterblast-orf" id="subclusterblast-1_q6_0_all"  />
<polygon points="223,35 228,30 252,30 252,40 228,40 223,35 " style="fill:white; stroke-width:1; stroke:black; " description="&lt;b&gt;ctg3_209&lt;/b&gt;&lt;br&gt;ctg3 209&lt;br&gt;Location: 223052 - 223763" locus_tag="ctg3_209" class="clusterblast-orf" id="subclusterblast-1_q7_0_all"  />
<polygon points="252,35 257,30 294,30 294,40 257,40 252,35 " style="fill:white; stroke-width:1; stroke:black; " description="&lt;b&gt;ctg3_210&lt;/b&gt;&lt;br&gt;ctg3 210&lt;br&gt;Location: 223781 - 224834" locus_tag="ctg3_210" class="clusterblast-orf" id="subclusterblast-1_q8_0_all"  />
<polygon points="295,35 300,30 331,30 331,40 300,40 295,35 " style="fill:white; stroke-width:1; stroke:black; " description="&lt;b&gt;ctg3_211&lt;/b&gt;&lt;br&gt;ctg3 211&lt;br&gt;Location: 224853 - 225774" locus_tag="ctg3_211" class="clusterblast-orf" id="subclusterblast-1_q9_0_all"  />
<polygon points="334,40 352,40 357,35 352,30 334,30 334,40 " style="fill:white; stroke-width:1; stroke:black; " description="&lt;b&gt;ctg3_212&lt;/b&gt;&lt;br&gt;ctg3 212&lt;br&gt;Location: 225834 - 226419" locus_tag="ctg3_212" class="clusterblast-orf" id="subclusterblast-1_q10_0_all"  />
<polygon points="357,35 362,30 437,30 437,40 362,40 357,35 " style="fill:white; stroke-width:1; stroke:black; " description="&lt;b&gt;ctg3_213&lt;/b&gt;&lt;br&gt;ctg3 213&lt;br&gt;Location: 226424 - 228443" locus_tag="ctg3_213" class="clusterblast-orf" id="subclusterblast-1_q11_0_all"  />
<polygon points="443,40 492,40 497,35 492,30 443,30 443,40 " style="fill:white; stroke-width:1; stroke:black; " description="&lt;b&gt;ctg3_214&lt;/b&gt;&lt;br&gt;ctg3 214&lt;br&gt;Location: 228581 - 229964" locus_tag="ctg3_214" class="clusterblast-orf" id="subclusterblast-1_q12_0_all"  />
<polygon points="499,40 600,40 605,35 600,30 499,30 499,40 " style="fill:white; stroke-width:1; stroke:black; " description="&lt;b&gt;ctg3_215&lt;/b&gt;&lt;br&gt;ctg3 215&lt;br&gt;Location: 230013 - 232668" locus_tag="ctg3_215" class="clusterblast-orf" id="subclusterblast-1_q13_0_all"  />
<polygon points="605,40 647,40 652,35 647,30 605,30 605,40 " style="fill:white; stroke-width:1; stroke:black; " description="&lt;b&gt;ctg3_216&lt;/b&gt;&lt;br&gt;ctg3 216&lt;br&gt;Location: 232685 - 233876" locus_tag="ctg3_216" class="clusterblast-orf" id="subclusterblast-1_q14_0_all"  />
<polygon points="657,40 683,40 688,35 683,30 657,30 657,40 " style="fill:white; stroke-width:1; stroke:black; " description="&lt;b&gt;ctg3_217&lt;/b&gt;&lt;br&gt;ctg3 217&lt;br&gt;Location: 233984 - 234767" locus_tag="ctg3_217" class="clusterblast-orf" id="subclusterblast-1_q15_0_all"  />
<polygon points="692,40 737,40 742,35 737,30 692,30 692,40 " style="fill:white; stroke-width:1; stroke:black; " description="&lt;b&gt;ctg3_218&lt;/b&gt;&lt;br&gt;ctg3 218&lt;br&gt;Location: 234868 - 236146" locus_tag="ctg3_218" class="clusterblast-orf" id="subclusterblast-1_q16_0_all"  />
<polygon points="742,40 775,40 780,35 775,30 742,30 742,40 " style="fill:white; stroke-width:1; stroke:black; " description="&lt;b&gt;ctg3_219&lt;/b&gt;&lt;br&gt;ctg3 219&lt;br&gt;Location: 236142 - 237090" locus_tag="ctg3_219" class="clusterblast-orf" id="subclusterblast-1_q17_0_all"  />
</g>
</svg>
