<svg xmlns="http://www.w3.org/2000/svg" xmlns:xlink="http://www.w3.org/1999/xlink" version="1.1" x="0" y="0" height="50" width="800" viewBox="0 0 800 50" preserveAspectRatio="none"  >
<g label="Query sequence" class="clusterblast-cluster"  >
<text x="5" y="20" class="clusterblast-acc"  >
Query sequence</text>
<line x1="10" y1="35" x2="778.0" y2="35" style="stroke-width:1; stroke:grey; "  />
<polygon points="0,35 5,30 172,30 172,40 5,40 0,35 " style="fill:white; stroke-width:1; stroke:black; " description="&lt;b&gt;ctg5_303&lt;/b&gt;&lt;br&gt;ctg5 303&lt;br&gt;Location: 315569 - 317609" locus_tag="ctg5_303" class="clusterblast-orf" id="subclusterblast-1_q0_0_all"  />
<polygon points="177,40 273,40 278,35 273,30 177,30 177,40 " style="fill:white; stroke-width:1; stroke:black; " description="&lt;b&gt;ctg5_304&lt;/b&gt;&lt;br&gt;ctg5 304&lt;br&gt;Location: 317671 - 318868" locus_tag="ctg5_304" class="clusterblast-orf" id="subclusterblast-1_q1_0_all"  />
<polygon points="279,40 378,40 383,35 378,30 279,30 279,40 " style="fill:white; stroke-width:1; stroke:black; " description="&lt;b&gt;ctg5_305&lt;/b&gt;&lt;br&gt;ctg5 305&lt;br&gt;Location: 318882 - 320118" locus_tag="ctg5_305" class="clusterblast-orf" id="subclusterblast-1_q2_0_all"  />
<polygon points="382,40 411,40 416,35 411,30 382,30 382,40 " style="fill:white; stroke-width:1; stroke:black; " description="&lt;b&gt;ctg5_306&lt;/b&gt;&lt;br&gt;ctg5 306&lt;br&gt;Location: 320114 - 320513" locus_tag="ctg5_306" class="clusterblast-orf" id="subclusterblast-1_q3_0_all"  />
<polygon points="419,40 456,40 461,35 456,30 419,30 419,40 " style="fill:white; stroke-width:1; stroke:black; " description="&lt;b&gt;ctg5_307&lt;/b&gt;&lt;br&gt;ctg5 307&lt;br&gt;Location: 320555 - 321056" locus_tag="ctg5_307" class="clusterblast-orf" id="subclusterblast-1_q4_0_all"  />
<polygon points="461,40 564,40 569,35 564,30 461,30 461,40 " style="fill:white; stroke-width:1; stroke:black; " description="&lt;b&gt;ctg5_308&lt;/b&gt;&lt;br&gt;ctg5 308&lt;br&gt;Location: 321057 - 322341" locus_tag="ctg5_308" class="clusterblast-orf" id="subclusterblast-1_q5_0_all"  />
<polygon points="569,40 651,40 656,35 651,30 569,30 569,40 " style="fill:white; stroke-width:1; stroke:black; " description="&lt;b&gt;ctg5_309&lt;/b&gt;&lt;br&gt;ctg5 309&lt;br&gt;Location: 322340 - 323372" locus_tag="ctg5_309" class="clusterblast-orf" id="subclusterblast-1_q6_0_all"  />
<polygon points="660,40 715,40 720,35 715,30 660,30 660,40 " style="fill:white; stroke-width:1; stroke:black; " description="&lt;b&gt;ctg5_310&lt;/b&gt;&lt;br&gt;ctg5 310&lt;br&gt;Location: 323418 - 324129" locus_tag="ctg5_310" class="clusterblast-orf" id="subclusterblast-1_q7_0_all"  />
<polygon points="720,35 725,30 780,30 780,40 725,40 720,35 " style="fill:white; stroke-width:1; stroke:black; " description="&lt;b&gt;ctg5_311&lt;/b&gt;&lt;br&gt;ctg5 311&lt;br&gt;Location: 324135 - 324852" locus_tag="ctg5_311" class="clusterblast-orf" id="subclusterblast-1_q8_0_all"  />
</g>
</svg>
