<svg xmlns="http://www.w3.org/2000/svg" xmlns:xlink="http://www.w3.org/1999/xlink" version="1.1" x="0" y="0" height="50" width="800" viewBox="0 0 800 50" preserveAspectRatio="none"  >
<g label="Query sequence" class="clusterblast-cluster"  >
<text x="5" y="20" class="clusterblast-acc"  >
Query sequence</text>
<line x1="10" y1="35" x2="778.0" y2="35" style="stroke-width:1; stroke:grey; "  />
<polygon points="0,35 5,30 44,30 44,40 5,40 0,35 " style="fill:white; stroke-width:1; stroke:black; " description="&lt;b&gt;ctg36_1&lt;/b&gt;&lt;br&gt;ctg36 1&lt;br&gt;Location: 1 - 661" locus_tag="ctg36_1" class="clusterblast-orf" id="subclusterblast-1_q0_0_all"  />
<polygon points="46,35 51,30 88,30 88,40 51,40 46,35 " style="fill:white; stroke-width:1; stroke:black; " description="&lt;b&gt;ctg36_2&lt;/b&gt;&lt;br&gt;ctg36 2&lt;br&gt;Location: 690 - 1326" locus_tag="ctg36_2" class="clusterblast-orf" id="subclusterblast-1_q1_0_all"  />
<polygon points="129,35 134,30 153,30 153,40 134,40 129,35 " style="fill:white; stroke-width:1; stroke:black; " description="&lt;b&gt;ctg36_3&lt;/b&gt;&lt;br&gt;ctg36 3&lt;br&gt;Location: 1954 - 2311" locus_tag="ctg36_3" class="clusterblast-orf" id="subclusterblast-1_q2_0_all"  />
<polygon points="164,40 189,40 194,35 189,30 164,30 164,40 " style="fill:white; stroke-width:1; stroke:black; " description="&lt;b&gt;ctg36_4&lt;/b&gt;&lt;br&gt;ctg36 4&lt;br&gt;Location: 2491 - 2932" locus_tag="ctg36_4" class="clusterblast-orf" id="subclusterblast-1_q3_0_all"  />
<polygon points="194,40 242,40 247,35 242,30 194,30 194,40 " style="fill:white; stroke-width:1; stroke:black; " description="&lt;b&gt;ctg36_5&lt;/b&gt;&lt;br&gt;ctg36 5&lt;br&gt;Location: 2943 - 3735" locus_tag="ctg36_5" class="clusterblast-orf" id="subclusterblast-1_q4_0_all"  />
<polygon points="267,40 295,40 300,35 295,30 267,30 267,40 " style="fill:white; stroke-width:1; stroke:black; " description="&lt;b&gt;ctg36_6&lt;/b&gt;&lt;br&gt;ctg36 6&lt;br&gt;Location: 4040 - 4547" locus_tag="ctg36_6" class="clusterblast-orf" id="subclusterblast-1_q5_0_all"  />
<polygon points="301,35 306,30 330,30 330,40 306,40 301,35 " style="fill:white; stroke-width:1; stroke:black; " description="&lt;b&gt;ctg36_7&lt;/b&gt;&lt;br&gt;ctg36 7&lt;br&gt;Location: 4560 - 5004" locus_tag="ctg36_7" class="clusterblast-orf" id="subclusterblast-1_q6_0_all"  />
<polygon points="332,35 337,30 369,30 369,40 337,40 332,35 " style="fill:white; stroke-width:1; stroke:black; " description="&lt;b&gt;ctg36_8&lt;/b&gt;&lt;br&gt;ctg36 8&lt;br&gt;Location: 5024 - 5585" locus_tag="ctg36_8" class="clusterblast-orf" id="subclusterblast-1_q7_0_all"  />
<polygon points="373,40 441,40 446,35 441,30 373,30 373,40 " style="fill:white; stroke-width:1; stroke:black; " description="&lt;b&gt;ctg36_9&lt;/b&gt;&lt;br&gt;ctg36 9&lt;br&gt;Location: 5654 - 6761" locus_tag="ctg36_9" class="clusterblast-orf" id="subclusterblast-1_q8_0_all"  />
<polygon points="455,40 573,40 578,35 573,30 455,30 455,40 " style="fill:white; stroke-width:1; stroke:black; " description="&lt;b&gt;ctg36_10&lt;/b&gt;&lt;br&gt;ctg36 10&lt;br&gt;Location: 6890 - 8750" locus_tag="ctg36_10" class="clusterblast-orf" id="subclusterblast-1_q9_0_all"  />
<polygon points="579,35 584,30 619,30 619,40 584,40 579,35 " style="fill:white; stroke-width:1; stroke:black; " description="&lt;b&gt;ctg36_11&lt;/b&gt;&lt;br&gt;ctg36 11&lt;br&gt;Location: 8774 - 9380" locus_tag="ctg36_11" class="clusterblast-orf" id="subclusterblast-1_q10_0_all"  />
<polygon points="619,35 624,30 656,30 656,40 624,40 619,35 " style="fill:white; stroke-width:1; stroke:black; " description="&lt;b&gt;ctg36_12&lt;/b&gt;&lt;br&gt;ctg36 12&lt;br&gt;Location: 9376 - 9937" locus_tag="ctg36_12" class="clusterblast-orf" id="subclusterblast-1_q11_0_all"  />
<polygon points="656,35 661,30 669,30 669,40 661,40 656,35 " style="fill:white; stroke-width:1; stroke:black; " description="&lt;b&gt;ctg36_13&lt;/b&gt;&lt;br&gt;ctg36 13&lt;br&gt;Location: 9937 - 10144" locus_tag="ctg36_13" class="clusterblast-orf" id="subclusterblast-1_q12_0_all"  />
<polygon points="673,35 678,30 742,30 742,40 678,40 673,35 " style="fill:white; stroke-width:1; stroke:black; " description="&lt;b&gt;ctg36_14&lt;/b&gt;&lt;br&gt;ctg36 14&lt;br&gt;Location: 10196 - 11237" locus_tag="ctg36_14" class="clusterblast-orf" id="subclusterblast-1_q13_0_all"  />
<polygon points="747,40 775,40 780,35 775,30 747,30 747,40 " style="fill:white; stroke-width:1; stroke:black; " description="&lt;b&gt;ctg36_15&lt;/b&gt;&lt;br&gt;ctg36 15&lt;br&gt;Location: 11320 - 11821" locus_tag="ctg36_15" class="clusterblast-orf" id="subclusterblast-1_q14_0_all"  />
</g>
</svg>
