<svg xmlns="http://www.w3.org/2000/svg" xmlns:xlink="http://www.w3.org/1999/xlink" version="1.1" x="0" y="0" height="50" width="800" viewBox="0 0 800 50" preserveAspectRatio="none"  >
<g label="Query sequence" class="clusterblast-cluster"  >
<text x="5" y="20" class="clusterblast-acc"  >
Query sequence</text>
<line x1="10" y1="35" x2="778.0" y2="35" style="stroke-width:1; stroke:grey; "  />
<polygon points="0,40 11,40 16,35 11,30 0,30 0,40 " style="fill:white; stroke-width:1; stroke:black; " description="&lt;b&gt;ctg33_19&lt;/b&gt;&lt;br&gt;ctg33 19&lt;br&gt;Location: 19301 - 20159" locus_tag="ctg33_19" class="clusterblast-orf" id="subclusterblast-1_q0_0_all"  />
<polygon points="16,40 42,40 47,35 42,30 16,30 16,40 " style="fill:white; stroke-width:1; stroke:black; " description="&lt;b&gt;ctg33_20&lt;/b&gt;&lt;br&gt;ctg33 20&lt;br&gt;Location: 20145 - 21756" locus_tag="ctg33_20" class="clusterblast-orf" id="subclusterblast-1_q1_0_all"  />
<polygon points="47,40 64,40 69,35 64,30 47,30 47,40 " style="fill:white; stroke-width:1; stroke:black; " description="&lt;b&gt;ctg33_21&lt;/b&gt;&lt;br&gt;ctg33 21&lt;br&gt;Location: 21768 - 22914" locus_tag="ctg33_21" class="clusterblast-orf" id="subclusterblast-1_q2_0_all"  />
<polygon points="69,40 99,40 104,35 99,30 69,30 69,40 " style="fill:white; stroke-width:1; stroke:black; " description="&lt;b&gt;ctg33_22&lt;/b&gt;&lt;br&gt;ctg33 22&lt;br&gt;Location: 22910 - 24785" locus_tag="ctg33_22" class="clusterblast-orf" id="subclusterblast-1_q3_0_all"  />
<polygon points="105,35 110,30 114,30 114,40 110,40 105,35 " style="fill:white; stroke-width:1; stroke:black; " description="&lt;b&gt;ctg33_23&lt;/b&gt;&lt;br&gt;ctg33 23&lt;br&gt;Location: 24810 - 25320" locus_tag="ctg33_23" class="clusterblast-orf" id="subclusterblast-1_q4_0_all"  />
<polygon points="116,35 121,30 127,30 127,40 121,40 116,35 " style="fill:white; stroke-width:1; stroke:black; " description="&lt;b&gt;ctg33_24&lt;/b&gt;&lt;br&gt;ctg33 24&lt;br&gt;Location: 25381 - 25981" locus_tag="ctg33_24" class="clusterblast-orf" id="subclusterblast-1_q5_0_all"  />
<polygon points="127,35 132,30 141,30 141,40 132,40 127,35 " style="fill:white; stroke-width:1; stroke:black; " description="&lt;b&gt;ctg33_25&lt;/b&gt;&lt;br&gt;ctg33 25&lt;br&gt;Location: 25977 - 26691" locus_tag="ctg33_25" class="clusterblast-orf" id="subclusterblast-1_q6_0_all"  />
<polygon points="141,35 146,30 184,30 184,40 146,40 141,35 " style="fill:white; stroke-width:1; stroke:black; " description="&lt;b&gt;ctg33_26&lt;/b&gt;&lt;br&gt;ctg33 26&lt;br&gt;Location: 26732 - 28967" locus_tag="ctg33_26" class="clusterblast-orf" id="subclusterblast-1_q7_0_all"  />
<polygon points="192,35 197,30 214,30 214,40 197,40 192,35 " style="fill:white; stroke-width:1; stroke:black; " description="&lt;b&gt;ctg33_27&lt;/b&gt;&lt;br&gt;ctg33 27&lt;br&gt;Location: 29392 - 30514" locus_tag="ctg33_27" class="clusterblast-orf" id="subclusterblast-1_q8_0_all"  />
<polygon points="218,40 233,40 238,35 233,30 218,30 218,40 " style="fill:white; stroke-width:1; stroke:black; " description="&lt;b&gt;ctg33_28&lt;/b&gt;&lt;br&gt;ctg33 28&lt;br&gt;Location: 30746 - 31793" locus_tag="ctg33_28" class="clusterblast-orf" id="subclusterblast-1_q9_0_all"  />
<polygon points="238,35 243,30 269,30 269,40 243,40 238,35 " style="fill:white; stroke-width:1; stroke:black; " description="&lt;b&gt;ctg33_29&lt;/b&gt;&lt;br&gt;ctg33 29&lt;br&gt;Location: 31798 - 33415" locus_tag="ctg33_29" class="clusterblast-orf" id="subclusterblast-1_q10_0_all"  />
<polygon points="269,35 274,30 301,30 301,40 274,40 269,35 " style="fill:white; stroke-width:1; stroke:black; " description="&lt;b&gt;ctg33_30&lt;/b&gt;&lt;br&gt;ctg33 30&lt;br&gt;Location: 33407 - 35090" locus_tag="ctg33_30" class="clusterblast-orf" id="subclusterblast-1_q11_0_all"  />
<polygon points="302,35 307,30 317,30 317,40 307,40 302,35 " style="fill:white; stroke-width:1; stroke:black; " description="&lt;b&gt;ctg33_31&lt;/b&gt;&lt;br&gt;ctg33 31&lt;br&gt;Location: 35156 - 35936" locus_tag="ctg33_31" class="clusterblast-orf" id="subclusterblast-1_q12_0_all"  />
<polygon points="317,35 322,30 323,30 323,40 322,40 317,35 " style="fill:white; stroke-width:1; stroke:black; " description="&lt;b&gt;ctg33_32&lt;/b&gt;&lt;br&gt;ctg33 32&lt;br&gt;Location: 35962 - 36277" locus_tag="ctg33_32" class="clusterblast-orf" id="subclusterblast-1_q13_0_all"  />
<polygon points="325,35 330,30 344,30 344,40 330,40 325,35 " style="fill:white; stroke-width:1; stroke:black; " description="&lt;b&gt;ctg33_33&lt;/b&gt;&lt;br&gt;ctg33 33&lt;br&gt;Location: 36343 - 37342" locus_tag="ctg33_33" class="clusterblast-orf" id="subclusterblast-1_q14_0_all"  />
<polygon points="344,35 349,30 369,30 369,40 349,40 344,35 " style="fill:white; stroke-width:1; stroke:black; " description="&lt;b&gt;ctg33_34&lt;/b&gt;&lt;br&gt;ctg33 34&lt;br&gt;Location: 37332 - 38652" locus_tag="ctg33_34" class="clusterblast-orf" id="subclusterblast-1_q15_0_all"  />
<polygon points="371,35 376,30 416,30 416,40 376,40 371,35 " style="fill:white; stroke-width:1; stroke:black; " description="&lt;b&gt;ctg33_35&lt;/b&gt;&lt;br&gt;ctg33 35&lt;br&gt;Location: 38784 - 41145" locus_tag="ctg33_35" class="clusterblast-orf" id="subclusterblast-1_q16_0_all"  />
<polygon points="416,35 421,30 431,30 431,40 421,40 416,35 " style="fill:white; stroke-width:1; stroke:black; " description="&lt;b&gt;ctg33_36&lt;/b&gt;&lt;br&gt;ctg33 36&lt;br&gt;Location: 41146 - 41938" locus_tag="ctg33_36" class="clusterblast-orf" id="subclusterblast-1_q17_0_all"  />
<polygon points="431,35 436,30 445,30 445,40 436,40 431,35 " style="fill:white; stroke-width:1; stroke:black; " description="&lt;b&gt;ctg33_37&lt;/b&gt;&lt;br&gt;ctg33 37&lt;br&gt;Location: 41934 - 42663" locus_tag="ctg33_37" class="clusterblast-orf" id="subclusterblast-1_q18_0_all"  />
<polygon points="446,35 451,30 470,30 470,40 451,40 446,35 " style="fill:white; stroke-width:1; stroke:black; " description="&lt;b&gt;ctg33_38&lt;/b&gt;&lt;br&gt;ctg33 38&lt;br&gt;Location: 42682 - 43981" locus_tag="ctg33_38" class="clusterblast-orf" id="subclusterblast-1_q19_0_all"  />
<polygon points="470,35 475,30 504,30 504,40 475,40 470,35 " style="fill:white; stroke-width:1; stroke:black; " description="&lt;b&gt;ctg33_39&lt;/b&gt;&lt;br&gt;ctg33 39&lt;br&gt;Location: 43987 - 45748" locus_tag="ctg33_39" class="clusterblast-orf" id="subclusterblast-1_q20_0_all"  />
<polygon points="504,35 509,30 522,30 522,40 509,40 504,35 " style="fill:white; stroke-width:1; stroke:black; " description="&lt;b&gt;ctg33_40&lt;/b&gt;&lt;br&gt;ctg33 40&lt;br&gt;Location: 45747 - 46674" locus_tag="ctg33_40" class="clusterblast-orf" id="subclusterblast-1_q21_0_all"  />
<polygon points="522,35 527,30 535,30 535,40 527,40 522,35 " style="fill:white; stroke-width:1; stroke:black; " description="&lt;b&gt;ctg33_41&lt;/b&gt;&lt;br&gt;ctg33 41&lt;br&gt;Location: 46680 - 47355" locus_tag="ctg33_41" class="clusterblast-orf" id="subclusterblast-1_q22_0_all"  />
<polygon points="535,35 540,30 569,30 569,40 540,40 535,35 " style="fill:white; stroke-width:1; stroke:black; " description="&lt;b&gt;ctg33_42&lt;/b&gt;&lt;br&gt;ctg33 42&lt;br&gt;Location: 47393 - 49151" locus_tag="ctg33_42" class="clusterblast-orf" id="subclusterblast-1_q23_0_all"  />
<polygon points="571,40 584,40 589,35 584,30 571,30 571,40 " style="fill:white; stroke-width:1; stroke:black; " description="&lt;b&gt;ctg33_43&lt;/b&gt;&lt;br&gt;ctg33 43&lt;br&gt;Location: 49253 - 50201" locus_tag="ctg33_43" class="clusterblast-orf" id="subclusterblast-1_q24_0_all"  />
<polygon points="592,40 606,40 611,35 606,30 592,30 592,40 " style="fill:white; stroke-width:1; stroke:black; " description="&lt;b&gt;ctg33_44&lt;/b&gt;&lt;br&gt;ctg33 44&lt;br&gt;Location: 50340 - 51384" locus_tag="ctg33_44" class="clusterblast-orf" id="subclusterblast-1_q25_0_all"  />
<polygon points="614,40 616,40 621,35 616,30 614,30 614,40 " style="fill:white; stroke-width:1; stroke:black; " description="&lt;b&gt;ctg33_45&lt;/b&gt;&lt;br&gt;ctg33 45&lt;br&gt;Location: 51499 - 51862" locus_tag="ctg33_45" class="clusterblast-orf" id="subclusterblast-1_q26_0_all"  />
<polygon points="628,40 653,40 658,35 653,30 628,30 628,40 " style="fill:white; stroke-width:1; stroke:black; " description="&lt;b&gt;ctg33_46&lt;/b&gt;&lt;br&gt;ctg33 46&lt;br&gt;Location: 52269 - 53844" locus_tag="ctg33_46" class="clusterblast-orf" id="subclusterblast-1_q27_0_all"  />
<polygon points="660,40 680,40 685,35 680,30 660,30 660,40 " style="fill:white; stroke-width:1; stroke:black; " description="&lt;b&gt;ctg33_47&lt;/b&gt;&lt;br&gt;ctg33 47&lt;br&gt;Location: 53953 - 55222" locus_tag="ctg33_47" class="clusterblast-orf" id="subclusterblast-1_q28_0_all"  />
<polygon points="685,40 694,40 699,35 694,30 685,30 685,40 " style="fill:white; stroke-width:1; stroke:black; " description="&lt;b&gt;ctg33_48&lt;/b&gt;&lt;br&gt;ctg33 48&lt;br&gt;Location: 55218 - 55995" locus_tag="ctg33_48" class="clusterblast-orf" id="subclusterblast-1_q29_0_all"  />
<polygon points="700,40 702,35 700,30 700,40 " style="fill:white; stroke-width:1; stroke:black; " description="&lt;b&gt;ctg33_49&lt;/b&gt;&lt;br&gt;ctg33 49&lt;br&gt;Location: 56033 - 56129" locus_tag="ctg33_49" class="clusterblast-orf" id="subclusterblast-1_q30_0_all"  />
<polygon points="701,40 711,40 716,35 711,30 701,30 701,40 " style="fill:white; stroke-width:1; stroke:black; " description="&lt;b&gt;ctg33_50&lt;/b&gt;&lt;br&gt;ctg33 50&lt;br&gt;Location: 56100 - 56871" locus_tag="ctg33_50" class="clusterblast-orf" id="subclusterblast-1_q31_0_all"  />
<polygon points="716,35 721,30 735,30 735,40 721,40 716,35 " style="fill:white; stroke-width:1; stroke:black; " description="&lt;b&gt;ctg33_51&lt;/b&gt;&lt;br&gt;ctg33 51&lt;br&gt;Location: 56875 - 57865" locus_tag="ctg33_51" class="clusterblast-orf" id="subclusterblast-1_q32_0_all"  />
<polygon points="736,35 741,30 742,30 742,40 741,40 736,35 " style="fill:white; stroke-width:1; stroke:black; " description="&lt;b&gt;ctg33_52&lt;/b&gt;&lt;br&gt;ctg33 52&lt;br&gt;Location: 57914 - 58226" locus_tag="ctg33_52" class="clusterblast-orf" id="subclusterblast-1_q33_0_all"  />
<polygon points="743,40 751,40 756,35 751,30 743,30 743,40 " style="fill:white; stroke-width:1; stroke:black; " description="&lt;b&gt;ctg33_53&lt;/b&gt;&lt;br&gt;ctg33 53&lt;br&gt;Location: 58297 - 58963" locus_tag="ctg33_53" class="clusterblast-orf" id="subclusterblast-1_q34_0_all"  />
<polygon points="757,40 775,40 780,35 775,30 757,30 757,40 " style="fill:white; stroke-width:1; stroke:black; " description="&lt;b&gt;ctg33_54&lt;/b&gt;&lt;br&gt;ctg33 54&lt;br&gt;Location: 59025 - 60207" locus_tag="ctg33_54" class="clusterblast-orf" id="subclusterblast-1_q35_0_all"  />
</g>
</svg>
