<svg xmlns="http://www.w3.org/2000/svg" xmlns:xlink="http://www.w3.org/1999/xlink" version="1.1" x="0" y="0" height="50" width="800" viewBox="0 0 800 50" preserveAspectRatio="none"  >
<g label="Query sequence" class="clusterblast-cluster"  >
<text x="5" y="20" class="clusterblast-acc"  >
Query sequence</text>
<line x1="10" y1="35" x2="778.0" y2="35" style="stroke-width:1; stroke:grey; "  />
<polygon points="0,40 10,40 15,35 10,30 0,30 0,40 " style="fill:white; stroke-width:1; stroke:black; " description="&lt;b&gt;ctg52_1&lt;/b&gt;&lt;br&gt;ctg52 1&lt;br&gt;Location: 0 - 600" locus_tag="ctg52_1" class="clusterblast-orf" id="subclusterblast-1_q0_0_all"  />
<polygon points="14,35 19,30 27,30 27,40 19,40 14,35 " style="fill:white; stroke-width:1; stroke:black; " description="&lt;b&gt;ctg52_2&lt;/b&gt;&lt;br&gt;ctg52 2&lt;br&gt;Location: 588 - 1092" locus_tag="ctg52_2" class="clusterblast-orf" id="subclusterblast-1_q1_0_all"  />
<polygon points="29,35 34,30 99,30 99,40 34,40 29,35 " style="fill:white; stroke-width:1; stroke:black; " description="&lt;b&gt;ctg52_3&lt;/b&gt;&lt;br&gt;ctg52 3&lt;br&gt;Location: 1181 - 3989" locus_tag="ctg52_3" class="clusterblast-orf" id="subclusterblast-1_q2_0_all"  />
<polygon points="100,40 102,40 107,35 102,30 100,30 100,40 " style="fill:white; stroke-width:1; stroke:black; " description="&lt;b&gt;ctg52_4&lt;/b&gt;&lt;br&gt;ctg52 4&lt;br&gt;Location: 4060 - 4315" locus_tag="ctg52_4" class="clusterblast-orf" id="subclusterblast-1_q3_0_all"  />
<polygon points="106,40 124,40 129,35 124,30 106,30 106,40 " style="fill:white; stroke-width:1; stroke:black; " description="&lt;b&gt;ctg52_5&lt;/b&gt;&lt;br&gt;ctg52 5&lt;br&gt;Location: 4311 - 5238" locus_tag="ctg52_5" class="clusterblast-orf" id="subclusterblast-1_q4_0_all"  />
<polygon points="132,40 280,40 285,35 280,30 132,30 132,40 " style="fill:white; stroke-width:1; stroke:black; " description="&lt;b&gt;ctg52_6&lt;/b&gt;&lt;br&gt;ctg52 6&lt;br&gt;Location: 5360 - 11534" locus_tag="ctg52_6" class="clusterblast-orf" id="subclusterblast-1_q5_0_all"  />
<polygon points="285,40 313,40 318,35 313,30 285,30 285,40 " style="fill:white; stroke-width:1; stroke:black; " description="&lt;b&gt;ctg52_7&lt;/b&gt;&lt;br&gt;ctg52 7&lt;br&gt;Location: 11530 - 12859" locus_tag="ctg52_7" class="clusterblast-orf" id="subclusterblast-1_q6_0_all"  />
<polygon points="320,35 325,30 340,30 340,40 325,40 320,35 " style="fill:white; stroke-width:1; stroke:black; " description="&lt;b&gt;ctg52_8&lt;/b&gt;&lt;br&gt;ctg52 8&lt;br&gt;Location: 12937 - 13726" locus_tag="ctg52_8" class="clusterblast-orf" id="subclusterblast-1_q7_0_all"  />
<polygon points="340,35 345,30 366,30 366,40 345,40 340,35 " style="fill:white; stroke-width:1; stroke:black; " description="&lt;b&gt;ctg52_9&lt;/b&gt;&lt;br&gt;ctg52 9&lt;br&gt;Location: 13722 - 14808" locus_tag="ctg52_9" class="clusterblast-orf" id="subclusterblast-1_q8_0_all"  />
<polygon points="369,40 388,40 393,35 388,30 369,30 369,40 " style="fill:white; stroke-width:1; stroke:black; " description="&lt;b&gt;ctg52_10&lt;/b&gt;&lt;br&gt;ctg52 10&lt;br&gt;Location: 14905 - 15868" locus_tag="ctg52_10" class="clusterblast-orf" id="subclusterblast-1_q9_0_all"  />
<polygon points="393,35 395,30 395,40 393,35 " style="fill:white; stroke-width:1; stroke:black; " description="&lt;b&gt;ctg52_11&lt;/b&gt;&lt;br&gt;ctg52 11&lt;br&gt;Location: 15864 - 15966" locus_tag="ctg52_11" class="clusterblast-orf" id="subclusterblast-1_q10_0_all"  />
<polygon points="400,40 458,40 463,35 458,30 400,30 400,40 " style="fill:white; stroke-width:1; stroke:black; " description="&lt;b&gt;ctg52_12&lt;/b&gt;&lt;br&gt;ctg52 12&lt;br&gt;Location: 16174 - 18724" locus_tag="ctg52_12" class="clusterblast-orf" id="subclusterblast-1_q11_0_all"  />
<polygon points="465,35 470,30 475,30 475,40 470,40 465,35 " style="fill:white; stroke-width:1; stroke:black; " description="&lt;b&gt;ctg52_13&lt;/b&gt;&lt;br&gt;ctg52 13&lt;br&gt;Location: 18795 - 19182" locus_tag="ctg52_13" class="clusterblast-orf" id="subclusterblast-1_q12_0_all"  />
<polygon points="481,40 500,40 505,35 500,30 481,30 481,40 " style="fill:white; stroke-width:1; stroke:black; " description="&lt;b&gt;ctg52_14&lt;/b&gt;&lt;br&gt;ctg52 14&lt;br&gt;Location: 19452 - 20418" locus_tag="ctg52_14" class="clusterblast-orf" id="subclusterblast-1_q13_0_all"  />
<polygon points="505,40 529,40 534,35 529,30 505,30 505,40 " style="fill:white; stroke-width:1; stroke:black; " description="&lt;b&gt;ctg52_15&lt;/b&gt;&lt;br&gt;ctg52 15&lt;br&gt;Location: 20418 - 21567" locus_tag="ctg52_15" class="clusterblast-orf" id="subclusterblast-1_q14_0_all"  />
<polygon points="533,35 538,30 548,30 548,40 538,40 533,35 " style="fill:white; stroke-width:1; stroke:black; " description="&lt;b&gt;ctg52_16&lt;/b&gt;&lt;br&gt;ctg52 16&lt;br&gt;Location: 21547 - 22138" locus_tag="ctg52_16" class="clusterblast-orf" id="subclusterblast-1_q15_0_all"  />
<polygon points="552,40 582,40 587,35 582,30 552,30 552,40 " style="fill:white; stroke-width:1; stroke:black; " description="&lt;b&gt;ctg52_17&lt;/b&gt;&lt;br&gt;ctg52 17&lt;br&gt;Location: 22290 - 23700" locus_tag="ctg52_17" class="clusterblast-orf" id="subclusterblast-1_q16_0_all"  />
<polygon points="587,40 610,40 615,35 610,30 587,30 587,40 " style="fill:white; stroke-width:1; stroke:black; " description="&lt;b&gt;ctg52_18&lt;/b&gt;&lt;br&gt;ctg52 18&lt;br&gt;Location: 23696 - 24848" locus_tag="ctg52_18" class="clusterblast-orf" id="subclusterblast-1_q17_0_all"  />
<polygon points="618,40 652,40 657,35 652,30 618,30 618,40 " style="fill:white; stroke-width:1; stroke:black; " description="&lt;b&gt;ctg52_19&lt;/b&gt;&lt;br&gt;ctg52 19&lt;br&gt;Location: 24971 - 26543" locus_tag="ctg52_19" class="clusterblast-orf" id="subclusterblast-1_q18_0_all"  />
<polygon points="659,35 664,30 685,30 685,40 664,40 659,35 " style="fill:white; stroke-width:1; stroke:black; " description="&lt;b&gt;ctg52_20&lt;/b&gt;&lt;br&gt;ctg52 20&lt;br&gt;Location: 26623 - 27685" locus_tag="ctg52_20" class="clusterblast-orf" id="subclusterblast-1_q19_0_all"  />
<polygon points="686,35 691,30 698,30 698,40 691,40 686,35 " style="fill:white; stroke-width:1; stroke:black; " description="&lt;b&gt;ctg52_21&lt;/b&gt;&lt;br&gt;ctg52 21&lt;br&gt;Location: 27709 - 28201" locus_tag="ctg52_21" class="clusterblast-orf" id="subclusterblast-1_q20_0_all"  />
<polygon points="700,35 705,30 715,30 715,40 705,40 700,35 " style="fill:white; stroke-width:1; stroke:black; " description="&lt;b&gt;ctg52_22&lt;/b&gt;&lt;br&gt;ctg52 22&lt;br&gt;Location: 28287 - 28890" locus_tag="ctg52_22" class="clusterblast-orf" id="subclusterblast-1_q21_0_all"  />
<polygon points="715,35 720,30 750,30 750,40 720,40 715,35 " style="fill:white; stroke-width:1; stroke:black; " description="&lt;b&gt;ctg52_23&lt;/b&gt;&lt;br&gt;ctg52 23&lt;br&gt;Location: 28886 - 30299" locus_tag="ctg52_23" class="clusterblast-orf" id="subclusterblast-1_q22_0_all"  />
<polygon points="752,40 775,40 780,35 775,30 752,30 752,40 " style="fill:white; stroke-width:1; stroke:black; " description="&lt;b&gt;ctg52_24&lt;/b&gt;&lt;br&gt;ctg52 24&lt;br&gt;Location: 30372 - 31500" locus_tag="ctg52_24" class="clusterblast-orf" id="subclusterblast-1_q23_0_all"  />
</g>
</svg>
