<svg xmlns="http://www.w3.org/2000/svg" xmlns:xlink="http://www.w3.org/1999/xlink" version="1.1" x="0" y="0" height="50" width="800" viewBox="0 0 800 50" preserveAspectRatio="none"  >
<g label="Query sequence" class="clusterblast-cluster"  >
<text x="5" y="20" class="clusterblast-acc"  >
Query sequence</text>
<line x1="10" y1="35" x2="778.0" y2="35" style="stroke-width:1; stroke:grey; "  />
<polygon points="0,40 40,40 45,35 40,30 0,30 0,40 " style="fill:white; stroke-width:1; stroke:black; " description="&lt;b&gt;ctg82_4&lt;/b&gt;&lt;br&gt;ctg82 4&lt;br&gt;Location: 2452 - 3115" locus_tag="ctg82_4" class="clusterblast-orf" id="subclusterblast-1_q0_0_all"  />
<polygon points="48,35 53,30 142,30 142,40 53,40 48,35 " style="fill:white; stroke-width:1; stroke:black; " description="&lt;b&gt;ctg82_5&lt;/b&gt;&lt;br&gt;ctg82 5&lt;br&gt;Location: 3152 - 4535" locus_tag="ctg82_5" class="clusterblast-orf" id="subclusterblast-1_q1_0_all"  />
<polygon points="143,35 148,30 207,30 207,40 148,40 143,35 " style="fill:white; stroke-width:1; stroke:black; " description="&lt;b&gt;ctg82_6&lt;/b&gt;&lt;br&gt;ctg82 6&lt;br&gt;Location: 4550 - 5492" locus_tag="ctg82_6" class="clusterblast-orf" id="subclusterblast-1_q2_0_all"  />
<polygon points="227,40 306,40 311,35 306,30 227,30 227,40 " style="fill:white; stroke-width:1; stroke:black; " description="&lt;b&gt;ctg82_7&lt;/b&gt;&lt;br&gt;ctg82 7&lt;br&gt;Location: 5793 - 7035" locus_tag="ctg82_7" class="clusterblast-orf" id="subclusterblast-1_q3_0_all"  />
<polygon points="311,40 367,40 372,35 367,30 311,30 311,40 " style="fill:white; stroke-width:1; stroke:black; " description="&lt;b&gt;ctg82_8&lt;/b&gt;&lt;br&gt;ctg82 8&lt;br&gt;Location: 7031 - 7931" locus_tag="ctg82_8" class="clusterblast-orf" id="subclusterblast-1_q4_0_all"  />
<polygon points="371,40 426,40 431,35 426,30 371,30 371,40 " style="fill:white; stroke-width:1; stroke:black; " description="&lt;b&gt;ctg82_9&lt;/b&gt;&lt;br&gt;ctg82 9&lt;br&gt;Location: 7917 - 8799" locus_tag="ctg82_9" class="clusterblast-orf" id="subclusterblast-1_q5_0_all"  />
<polygon points="432,35 437,30 442,30 442,40 437,40 432,35 " style="fill:white; stroke-width:1; stroke:black; " description="&lt;b&gt;ctg82_10&lt;/b&gt;&lt;br&gt;ctg82 10&lt;br&gt;Location: 8812 - 8965" locus_tag="ctg82_10" class="clusterblast-orf" id="subclusterblast-1_q6_0_all"  />
<polygon points="446,35 451,30 497,30 497,40 451,40 446,35 " style="fill:white; stroke-width:1; stroke:black; " description="&lt;b&gt;ctg82_11&lt;/b&gt;&lt;br&gt;ctg82 11&lt;br&gt;Location: 9026 - 9764" locus_tag="ctg82_11" class="clusterblast-orf" id="subclusterblast-1_q7_0_all"  />
<polygon points="499,40 593,40 598,35 593,30 499,30 499,40 " style="fill:white; stroke-width:1; stroke:black; " description="&lt;b&gt;ctg82_12&lt;/b&gt;&lt;br&gt;ctg82 12&lt;br&gt;Location: 9793 - 11251" locus_tag="ctg82_12" class="clusterblast-orf" id="subclusterblast-1_q8_0_all"  />
<polygon points="598,40 605,40 610,35 605,30 598,30 598,40 " style="fill:white; stroke-width:1; stroke:black; " description="&lt;b&gt;ctg82_13&lt;/b&gt;&lt;br&gt;ctg82 13&lt;br&gt;Location: 11261 - 11429" locus_tag="ctg82_13" class="clusterblast-orf" id="subclusterblast-1_q9_0_all"  />
<polygon points="613,40 626,40 631,35 626,30 613,30 613,40 " style="fill:white; stroke-width:1; stroke:black; " description="&lt;b&gt;ctg82_14&lt;/b&gt;&lt;br&gt;ctg82 14&lt;br&gt;Location: 11474 - 11744" locus_tag="ctg82_14" class="clusterblast-orf" id="subclusterblast-1_q10_0_all"  />
<polygon points="638,40 655,40 660,35 655,30 638,30 638,40 " style="fill:white; stroke-width:1; stroke:black; " description="&lt;b&gt;ctg82_15&lt;/b&gt;&lt;br&gt;ctg82 15&lt;br&gt;Location: 11851 - 12166" locus_tag="ctg82_15" class="clusterblast-orf" id="subclusterblast-1_q11_0_all"  />
<polygon points="659,40 775,40 780,35 775,30 659,30 659,40 " style="fill:white; stroke-width:1; stroke:black; " description="&lt;b&gt;ctg82_16&lt;/b&gt;&lt;br&gt;ctg82 16&lt;br&gt;Location: 12162 - 13941" locus_tag="ctg82_16" class="clusterblast-orf" id="subclusterblast-1_q12_0_all"  />
</g>
</svg>
