<svg xmlns="http://www.w3.org/2000/svg" xmlns:xlink="http://www.w3.org/1999/xlink" version="1.1" x="0" y="0" height="50" width="800" viewBox="0 0 800 50" preserveAspectRatio="none"  >
<g label="Query sequence" class="clusterblast-cluster"  >
<text x="5" y="20" class="clusterblast-acc"  >
Query sequence</text>
<line x1="10" y1="35" x2="778.0" y2="35" style="stroke-width:1; stroke:grey; "  />
<polygon points="0,40 15,40 20,35 15,30 0,30 0,40 " style="fill:white; stroke-width:1; stroke:black; " description="&lt;b&gt;ctg13_10&lt;/b&gt;&lt;br&gt;ctg13 10&lt;br&gt;Location: 9135 - 9615" locus_tag="ctg13_10" class="clusterblast-orf" id="subclusterblast-1_q0_0_all"  />
<polygon points="20,40 36,40 41,35 36,30 20,30 20,40 " style="fill:white; stroke-width:1; stroke:black; " description="&lt;b&gt;ctg13_11&lt;/b&gt;&lt;br&gt;ctg13 11&lt;br&gt;Location: 9620 - 10100" locus_tag="ctg13_11" class="clusterblast-orf" id="subclusterblast-1_q1_0_all"  />
<polygon points="45,40 83,40 88,35 83,30 45,30 45,40 " style="fill:white; stroke-width:1; stroke:black; " description="&lt;b&gt;ctg13_12&lt;/b&gt;&lt;br&gt;ctg13 12&lt;br&gt;Location: 10204 - 11221" locus_tag="ctg13_12" class="clusterblast-orf" id="subclusterblast-1_q2_0_all"  />
<polygon points="90,40 145,40 150,35 145,30 90,30 90,40 " style="fill:white; stroke-width:1; stroke:black; " description="&lt;b&gt;ctg13_13&lt;/b&gt;&lt;br&gt;ctg13 13&lt;br&gt;Location: 11271 - 12687" locus_tag="ctg13_13" class="clusterblast-orf" id="subclusterblast-1_q3_0_all"  />
<polygon points="151,40 184,40 189,35 184,30 151,30 151,40 " style="fill:white; stroke-width:1; stroke:black; " description="&lt;b&gt;ctg13_14&lt;/b&gt;&lt;br&gt;ctg13 14&lt;br&gt;Location: 12703 - 13588" locus_tag="ctg13_14" class="clusterblast-orf" id="subclusterblast-1_q4_0_all"  />
<polygon points="190,40 233,40 238,35 233,30 190,30 190,40 " style="fill:white; stroke-width:1; stroke:black; " description="&lt;b&gt;ctg13_15&lt;/b&gt;&lt;br&gt;ctg13 15&lt;br&gt;Location: 13629 - 14754" locus_tag="ctg13_15" class="clusterblast-orf" id="subclusterblast-1_q5_0_all"  />
<polygon points="238,35 243,30 267,30 267,40 243,40 238,35 " style="fill:white; stroke-width:1; stroke:black; " description="&lt;b&gt;ctg13_16&lt;/b&gt;&lt;br&gt;ctg13 16&lt;br&gt;Location: 14743 - 15445" locus_tag="ctg13_16" class="clusterblast-orf" id="subclusterblast-1_q6_0_all"  />
<polygon points="268,35 273,30 291,30 291,40 273,40 268,35 " style="fill:white; stroke-width:1; stroke:black; " description="&lt;b&gt;ctg13_17&lt;/b&gt;&lt;br&gt;ctg13 17&lt;br&gt;Location: 15454 - 15994" locus_tag="ctg13_17" class="clusterblast-orf" id="subclusterblast-1_q7_0_all"  />
<polygon points="291,35 296,30 314,30 314,40 296,40 291,35 " style="fill:white; stroke-width:1; stroke:black; " description="&lt;b&gt;ctg13_18&lt;/b&gt;&lt;br&gt;ctg13 18&lt;br&gt;Location: 15995 - 16544" locus_tag="ctg13_18" class="clusterblast-orf" id="subclusterblast-1_q8_0_all"  />
<polygon points="324,40 339,40 344,35 339,30 324,30 324,40 " style="fill:white; stroke-width:1; stroke:black; " description="&lt;b&gt;ctg13_19&lt;/b&gt;&lt;br&gt;ctg13 19&lt;br&gt;Location: 16790 - 17258" locus_tag="ctg13_19" class="clusterblast-orf" id="subclusterblast-1_q9_0_all"  />
<polygon points="344,40 384,40 389,35 384,30 344,30 344,40 " style="fill:white; stroke-width:1; stroke:black; " description="&lt;b&gt;ctg13_20&lt;/b&gt;&lt;br&gt;ctg13 20&lt;br&gt;Location: 17261 - 18308" locus_tag="ctg13_20" class="clusterblast-orf" id="subclusterblast-1_q10_0_all"  />
<polygon points="389,40 396,40 401,35 396,30 389,30 389,40 " style="fill:white; stroke-width:1; stroke:black; " description="&lt;b&gt;ctg13_21&lt;/b&gt;&lt;br&gt;ctg13 21&lt;br&gt;Location: 18320 - 18596" locus_tag="ctg13_21" class="clusterblast-orf" id="subclusterblast-1_q11_0_all"  />
<polygon points="400,40 431,40 436,35 431,30 400,30 400,40 " style="fill:white; stroke-width:1; stroke:black; " description="&lt;b&gt;ctg13_22&lt;/b&gt;&lt;br&gt;ctg13 22&lt;br&gt;Location: 18582 - 19434" locus_tag="ctg13_22" class="clusterblast-orf" id="subclusterblast-1_q12_0_all"  />
<polygon points="435,40 512,40 517,35 512,30 435,30 435,40 " style="fill:white; stroke-width:1; stroke:black; " description="&lt;b&gt;ctg13_23&lt;/b&gt;&lt;br&gt;ctg13 23&lt;br&gt;Location: 19405 - 21343" locus_tag="ctg13_23" class="clusterblast-orf" id="subclusterblast-1_q13_0_all"  />
<polygon points="527,35 532,30 617,30 617,40 532,40 527,35 " style="fill:white; stroke-width:1; stroke:black; " description="&lt;b&gt;ctg13_24&lt;/b&gt;&lt;br&gt;ctg13 24&lt;br&gt;Location: 21573 - 23691" locus_tag="ctg13_24" class="clusterblast-orf" id="subclusterblast-1_q14_0_all"  />
<polygon points="623,35 628,30 709,30 709,40 628,40 623,35 " style="fill:white; stroke-width:1; stroke:black; " description="&lt;b&gt;ctg13_25&lt;/b&gt;&lt;br&gt;ctg13 25&lt;br&gt;Location: 23827 - 25873" locus_tag="ctg13_25" class="clusterblast-orf" id="subclusterblast-1_q15_0_all"  />
<polygon points="712,35 717,30 780,30 780,40 717,40 712,35 " style="fill:white; stroke-width:1; stroke:black; " description="&lt;b&gt;ctg13_26&lt;/b&gt;&lt;br&gt;ctg13 26&lt;br&gt;Location: 25931 - 27539" locus_tag="ctg13_26" class="clusterblast-orf" id="subclusterblast-1_q16_0_all"  />
</g>
</svg>
