<svg xmlns="http://www.w3.org/2000/svg" xmlns:xlink="http://www.w3.org/1999/xlink" version="1.1" x="0" y="0" height="50" width="800" viewBox="0 0 800 50" preserveAspectRatio="none"  >
<g label="Query sequence" class="clusterblast-cluster"  >
<text x="5" y="20" class="clusterblast-acc"  >
Query sequence</text>
<line x1="10" y1="35" x2="778.0" y2="35" style="stroke-width:1; stroke:grey; "  />
<polygon points="0,35 5,30 24,30 24,40 5,40 0,35 " style="fill:white; stroke-width:1; stroke:black; " description="&lt;b&gt;ctg28_54&lt;/b&gt;&lt;br&gt;ctg28 54&lt;br&gt;Location: 59225 - 60368" locus_tag="ctg28_54" class="clusterblast-orf" id="subclusterblast-1_q0_0_all"  />
<polygon points="24,35 29,30 39,30 39,40 29,40 24,35 " style="fill:white; stroke-width:1; stroke:black; " description="&lt;b&gt;ctg28_55&lt;/b&gt;&lt;br&gt;ctg28 55&lt;br&gt;Location: 60352 - 61099" locus_tag="ctg28_55" class="clusterblast-orf" id="subclusterblast-1_q1_0_all"  />
<polygon points="43,40 58,40 63,35 58,30 43,30 43,40 " style="fill:white; stroke-width:1; stroke:black; " description="&lt;b&gt;ctg28_56&lt;/b&gt;&lt;br&gt;ctg28 56&lt;br&gt;Location: 61282 - 62227" locus_tag="ctg28_56" class="clusterblast-orf" id="subclusterblast-1_q2_0_all"  />
<polygon points="65,40 87,40 92,35 87,30 65,30 65,40 " style="fill:white; stroke-width:1; stroke:black; " description="&lt;b&gt;ctg28_57&lt;/b&gt;&lt;br&gt;ctg28 57&lt;br&gt;Location: 62290 - 63589" locus_tag="ctg28_57" class="clusterblast-orf" id="subclusterblast-1_q3_0_all"  />
<polygon points="92,35 97,30 107,30 107,40 97,40 92,35 " style="fill:white; stroke-width:1; stroke:black; " description="&lt;b&gt;ctg28_58&lt;/b&gt;&lt;br&gt;ctg28 58&lt;br&gt;Location: 63571 - 64270" locus_tag="ctg28_58" class="clusterblast-orf" id="subclusterblast-1_q4_0_all"  />
<polygon points="108,35 113,30 142,30 142,40 113,40 108,35 " style="fill:white; stroke-width:1; stroke:black; " description="&lt;b&gt;ctg28_59&lt;/b&gt;&lt;br&gt;ctg28 59&lt;br&gt;Location: 64343 - 65930" locus_tag="ctg28_59" class="clusterblast-orf" id="subclusterblast-1_q5_0_all"  />
<polygon points="142,35 147,30 160,30 160,40 147,40 142,35 " style="fill:white; stroke-width:1; stroke:black; " description="&lt;b&gt;ctg28_60&lt;/b&gt;&lt;br&gt;ctg28 60&lt;br&gt;Location: 65929 - 66802" locus_tag="ctg28_60" class="clusterblast-orf" id="subclusterblast-1_q6_0_all"  />
<polygon points="160,35 165,30 169,30 169,40 165,40 160,35 " style="fill:white; stroke-width:1; stroke:black; " description="&lt;b&gt;ctg28_61&lt;/b&gt;&lt;br&gt;ctg28 61&lt;br&gt;Location: 66798 - 67230" locus_tag="ctg28_61" class="clusterblast-orf" id="subclusterblast-1_q7_0_all"  />
<polygon points="170,35 175,30 191,30 191,40 175,40 170,35 " style="fill:white; stroke-width:1; stroke:black; " description="&lt;b&gt;ctg28_62&lt;/b&gt;&lt;br&gt;ctg28 62&lt;br&gt;Location: 67247 - 68252" locus_tag="ctg28_62" class="clusterblast-orf" id="subclusterblast-1_q8_0_all"  />
<polygon points="194,35 199,30 213,30 213,40 199,40 194,35 " style="fill:white; stroke-width:1; stroke:black; " description="&lt;b&gt;ctg28_63&lt;/b&gt;&lt;br&gt;ctg28 63&lt;br&gt;Location: 68415 - 69309" locus_tag="ctg28_63" class="clusterblast-orf" id="subclusterblast-1_q9_0_all"  />
<polygon points="216,40 224,40 229,35 224,30 216,30 216,40 " style="fill:white; stroke-width:1; stroke:black; " description="&lt;b&gt;ctg28_64&lt;/b&gt;&lt;br&gt;ctg28 64&lt;br&gt;Location: 69434 - 70031" locus_tag="ctg28_64" class="clusterblast-orf" id="subclusterblast-1_q10_0_all"  />
<polygon points="228,40 248,40 253,35 248,30 228,30 228,40 " style="fill:white; stroke-width:1; stroke:black; " description="&lt;b&gt;ctg28_65&lt;/b&gt;&lt;br&gt;ctg28 65&lt;br&gt;Location: 70021 - 71203" locus_tag="ctg28_65" class="clusterblast-orf" id="subclusterblast-1_q11_0_all"  />
<polygon points="254,40 273,40 278,35 273,30 254,30 254,40 " style="fill:white; stroke-width:1; stroke:black; " description="&lt;b&gt;ctg28_66&lt;/b&gt;&lt;br&gt;ctg28 66&lt;br&gt;Location: 71214 - 72351" locus_tag="ctg28_66" class="clusterblast-orf" id="subclusterblast-1_q12_0_all"  />
<polygon points="280,40 313,40 318,35 313,30 280,30 280,40 " style="fill:white; stroke-width:1; stroke:black; " description="&lt;b&gt;ctg28_67&lt;/b&gt;&lt;br&gt;ctg28 67&lt;br&gt;Location: 72477 - 74265" locus_tag="ctg28_67" class="clusterblast-orf" id="subclusterblast-1_q13_0_all"  />
<polygon points="323,35 328,30 349,30 349,40 328,40 323,35 " style="fill:white; stroke-width:1; stroke:black; " description="&lt;b&gt;ctg28_68&lt;/b&gt;&lt;br&gt;ctg28 68&lt;br&gt;Location: 74506 - 75703" locus_tag="ctg28_68" class="clusterblast-orf" id="subclusterblast-1_q14_0_all"  />
<polygon points="349,35 354,30 362,30 362,40 354,40 349,35 " style="fill:white; stroke-width:1; stroke:black; " description="&lt;b&gt;ctg28_69&lt;/b&gt;&lt;br&gt;ctg28 69&lt;br&gt;Location: 75729 - 76314" locus_tag="ctg28_69" class="clusterblast-orf" id="subclusterblast-1_q15_0_all"  />
<polygon points="362,35 367,30 396,30 396,40 367,40 362,35 " style="fill:white; stroke-width:1; stroke:black; " description="&lt;b&gt;ctg28_70&lt;/b&gt;&lt;br&gt;ctg28 70&lt;br&gt;Location: 76310 - 77957" locus_tag="ctg28_70" class="clusterblast-orf" id="subclusterblast-1_q16_0_all"  />
<polygon points="396,35 401,30 402,30 402,40 401,40 396,35 " style="fill:white; stroke-width:1; stroke:black; " description="&lt;b&gt;ctg28_71&lt;/b&gt;&lt;br&gt;ctg28 71&lt;br&gt;Location: 77953 - 78211" locus_tag="ctg28_71" class="clusterblast-orf" id="subclusterblast-1_q17_0_all"  />
<polygon points="402,35 407,30 412,30 412,40 407,40 402,35 " style="fill:white; stroke-width:1; stroke:black; " description="&lt;b&gt;ctg28_72&lt;/b&gt;&lt;br&gt;ctg28 72&lt;br&gt;Location: 78207 - 78714" locus_tag="ctg28_72" class="clusterblast-orf" id="subclusterblast-1_q18_0_all"  />
<polygon points="412,35 417,30 435,30 435,40 417,40 412,35 " style="fill:white; stroke-width:1; stroke:black; " description="&lt;b&gt;ctg28_73&lt;/b&gt;&lt;br&gt;ctg28 73&lt;br&gt;Location: 78718 - 79795" locus_tag="ctg28_73" class="clusterblast-orf" id="subclusterblast-1_q19_0_all"  />
<polygon points="435,35 440,30 453,30 453,40 440,40 435,35 " style="fill:white; stroke-width:1; stroke:black; " description="&lt;b&gt;ctg28_74&lt;/b&gt;&lt;br&gt;ctg28 74&lt;br&gt;Location: 79795 - 80617" locus_tag="ctg28_74" class="clusterblast-orf" id="subclusterblast-1_q20_0_all"  />
<polygon points="454,35 459,30 483,30 483,40 459,40 454,35 " style="fill:white; stroke-width:1; stroke:black; " description="&lt;b&gt;ctg28_75&lt;/b&gt;&lt;br&gt;ctg28 75&lt;br&gt;Location: 80692 - 82027" locus_tag="ctg28_75" class="clusterblast-orf" id="subclusterblast-1_q21_0_all"  />
<polygon points="482,35 487,30 508,30 508,40 487,40 482,35 " style="fill:white; stroke-width:1; stroke:black; " description="&lt;b&gt;ctg28_76&lt;/b&gt;&lt;br&gt;ctg28 76&lt;br&gt;Location: 82023 - 83220" locus_tag="ctg28_76" class="clusterblast-orf" id="subclusterblast-1_q22_0_all"  />
<polygon points="508,35 513,30 533,30 533,40 513,40 508,35 " style="fill:white; stroke-width:1; stroke:black; " description="&lt;b&gt;ctg28_77&lt;/b&gt;&lt;br&gt;ctg28 77&lt;br&gt;Location: 83216 - 84416" locus_tag="ctg28_77" class="clusterblast-orf" id="subclusterblast-1_q23_0_all"  />
<polygon points="534,35 539,30 548,30 548,40 539,40 534,35 " style="fill:white; stroke-width:1; stroke:black; " description="&lt;b&gt;ctg28_78&lt;/b&gt;&lt;br&gt;ctg28 78&lt;br&gt;Location: 84457 - 85108" locus_tag="ctg28_78" class="clusterblast-orf" id="subclusterblast-1_q24_0_all"  />
<polygon points="550,40 561,40 566,35 561,30 550,30 550,40 " style="fill:white; stroke-width:1; stroke:black; " description="&lt;b&gt;ctg28_79&lt;/b&gt;&lt;br&gt;ctg28 79&lt;br&gt;Location: 85193 - 85970" locus_tag="ctg28_79" class="clusterblast-orf" id="subclusterblast-1_q25_0_all"  />
<polygon points="567,40 582,40 587,35 582,30 567,30 567,40 " style="fill:white; stroke-width:1; stroke:black; " description="&lt;b&gt;ctg28_80&lt;/b&gt;&lt;br&gt;ctg28 80&lt;br&gt;Location: 86028 - 86943" locus_tag="ctg28_80" class="clusterblast-orf" id="subclusterblast-1_q26_0_all"  />
<polygon points="588,35 593,30 613,30 613,40 593,40 588,35 " style="fill:white; stroke-width:1; stroke:black; " description="&lt;b&gt;ctg28_81&lt;/b&gt;&lt;br&gt;ctg28 81&lt;br&gt;Location: 86995 - 88180" locus_tag="ctg28_81" class="clusterblast-orf" id="subclusterblast-1_q27_0_all"  />
<polygon points="613,35 618,30 649,30 649,40 618,40 613,35 " style="fill:white; stroke-width:1; stroke:black; " description="&lt;b&gt;ctg28_82&lt;/b&gt;&lt;br&gt;ctg28 82&lt;br&gt;Location: 88185 - 89877" locus_tag="ctg28_82" class="clusterblast-orf" id="subclusterblast-1_q28_0_all"  />
<polygon points="652,40 664,40 669,35 664,30 652,30 652,40 " style="fill:white; stroke-width:1; stroke:black; " description="&lt;b&gt;ctg28_83&lt;/b&gt;&lt;br&gt;ctg28 83&lt;br&gt;Location: 90035 - 90827" locus_tag="ctg28_83" class="clusterblast-orf" id="subclusterblast-1_q29_0_all"  />
<polygon points="669,35 674,30 674,30 674,40 674,40 669,35 " style="fill:white; stroke-width:1; stroke:black; " description="&lt;b&gt;ctg28_84&lt;/b&gt;&lt;br&gt;ctg28 84&lt;br&gt;Location: 90829 - 91084" locus_tag="ctg28_84" class="clusterblast-orf" id="subclusterblast-1_q30_0_all"  />
<polygon points="679,35 684,30 689,30 689,40 684,40 679,35 " style="fill:white; stroke-width:1; stroke:black; " description="&lt;b&gt;ctg28_85&lt;/b&gt;&lt;br&gt;ctg28 85&lt;br&gt;Location: 91304 - 91763" locus_tag="ctg28_85" class="clusterblast-orf" id="subclusterblast-1_q31_0_all"  />
<polygon points="698,40 705,40 710,35 705,30 698,30 698,40 " style="fill:white; stroke-width:1; stroke:black; " description="&lt;b&gt;ctg28_86&lt;/b&gt;&lt;br&gt;ctg28 86&lt;br&gt;Location: 92212 - 92782" locus_tag="ctg28_86" class="clusterblast-orf" id="subclusterblast-1_q32_0_all"  />
<polygon points="710,35 715,30 716,30 716,40 715,40 710,35 " style="fill:white; stroke-width:1; stroke:black; " description="&lt;b&gt;ctg28_87&lt;/b&gt;&lt;br&gt;ctg28 87&lt;br&gt;Location: 92764 - 93040" locus_tag="ctg28_87" class="clusterblast-orf" id="subclusterblast-1_q33_0_all"  />
<polygon points="719,40 743,40 748,35 743,30 719,30 719,40 " style="fill:white; stroke-width:1; stroke:black; " description="&lt;b&gt;ctg28_88&lt;/b&gt;&lt;br&gt;ctg28 88&lt;br&gt;Location: 93203 - 94550" locus_tag="ctg28_88" class="clusterblast-orf" id="subclusterblast-1_q34_0_all"  />
<polygon points="751,40 758,40 763,35 758,30 751,30 751,40 " style="fill:white; stroke-width:1; stroke:black; " description="&lt;b&gt;ctg28_89&lt;/b&gt;&lt;br&gt;ctg28 89&lt;br&gt;Location: 94700 - 95288" locus_tag="ctg28_89" class="clusterblast-orf" id="subclusterblast-1_q35_0_all"  />
<polygon points="764,40 765,40 770,35 765,30 764,30 764,40 " style="fill:white; stroke-width:1; stroke:black; " description="&lt;b&gt;ctg28_90&lt;/b&gt;&lt;br&gt;ctg28 90&lt;br&gt;Location: 95300 - 95612" locus_tag="ctg28_90" class="clusterblast-orf" id="subclusterblast-1_q36_0_all"  />
<polygon points="771,35 776,30 780,30 780,40 776,40 771,35 " style="fill:white; stroke-width:1; stroke:black; " description="&lt;b&gt;ctg28_91&lt;/b&gt;&lt;br&gt;ctg28 91&lt;br&gt;Location: 95633 - 96059" locus_tag="ctg28_91" class="clusterblast-orf" id="subclusterblast-1_q37_0_all"  />
</g>
</svg>
