<svg xmlns="http://www.w3.org/2000/svg" xmlns:xlink="http://www.w3.org/1999/xlink" version="1.1" x="0" y="0" height="50" width="800" viewBox="0 0 800 50" preserveAspectRatio="none"  >
<g label="Query sequence" class="clusterblast-cluster"  >
<text x="5" y="20" class="clusterblast-acc"  >
Query sequence</text>
<line x1="10" y1="35" x2="778.0" y2="35" style="stroke-width:1; stroke:grey; "  />
<polygon points="0,35 5,30 18,30 18,40 5,40 0,35 " style="fill:white; stroke-width:1; stroke:black; " description="&lt;b&gt;ctg7_22&lt;/b&gt;&lt;br&gt;ctg7 22&lt;br&gt;Location: 23276 - 23687" locus_tag="ctg7_22" class="clusterblast-orf" id="subclusterblast-1_q0_0_all"  />
<polygon points="17,35 22,30 90,30 90,40 22,40 17,35 " style="fill:white; stroke-width:1; stroke:black; " description="&lt;b&gt;ctg7_23&lt;/b&gt;&lt;br&gt;ctg7 23&lt;br&gt;Location: 23686 - 25372" locus_tag="ctg7_23" class="clusterblast-orf" id="subclusterblast-1_q1_0_all"  />
<polygon points="92,40 122,40 127,35 122,30 92,30 92,40 " style="fill:white; stroke-width:1; stroke:black; " description="&lt;b&gt;ctg7_24&lt;/b&gt;&lt;br&gt;ctg7 24&lt;br&gt;Location: 25434 - 26232" locus_tag="ctg7_24" class="clusterblast-orf" id="subclusterblast-1_q2_0_all"  />
<polygon points="127,35 132,30 136,30 136,40 132,40 127,35 " style="fill:white; stroke-width:1; stroke:black; " description="&lt;b&gt;ctg7_25&lt;/b&gt;&lt;br&gt;ctg7 25&lt;br&gt;Location: 26251 - 26461" locus_tag="ctg7_25" class="clusterblast-orf" id="subclusterblast-1_q3_0_all"  />
<polygon points="136,35 141,30 190,30 190,40 141,40 136,35 " style="fill:white; stroke-width:1; stroke:black; " description="&lt;b&gt;ctg7_26&lt;/b&gt;&lt;br&gt;ctg7 26&lt;br&gt;Location: 26457 - 27720" locus_tag="ctg7_26" class="clusterblast-orf" id="subclusterblast-1_q4_0_all"  />
<polygon points="195,40 252,40 257,35 252,30 195,30 195,40 " style="fill:white; stroke-width:1; stroke:black; " description="&lt;b&gt;ctg7_27&lt;/b&gt;&lt;br&gt;ctg7 27&lt;br&gt;Location: 27837 - 29277" locus_tag="ctg7_27" class="clusterblast-orf" id="subclusterblast-1_q5_0_all"  />
<polygon points="260,40 273,40 278,35 273,30 260,30 260,40 " style="fill:white; stroke-width:1; stroke:black; " description="&lt;b&gt;ctg7_28&lt;/b&gt;&lt;br&gt;ctg7 28&lt;br&gt;Location: 29357 - 29765" locus_tag="ctg7_28" class="clusterblast-orf" id="subclusterblast-1_q6_0_all"  />
<polygon points="278,40 299,40 304,35 299,30 278,30 278,40 " style="fill:white; stroke-width:1; stroke:black; " description="&lt;b&gt;ctg7_29&lt;/b&gt;&lt;br&gt;ctg7 29&lt;br&gt;Location: 29764 - 30379" locus_tag="ctg7_29" class="clusterblast-orf" id="subclusterblast-1_q7_0_all"  />
<polygon points="304,40 372,40 377,35 372,30 304,30 304,40 " style="fill:white; stroke-width:1; stroke:black; " description="&lt;b&gt;ctg7_30&lt;/b&gt;&lt;br&gt;ctg7 30&lt;br&gt;Location: 30375 - 32091" locus_tag="ctg7_30" class="clusterblast-orf" id="subclusterblast-1_q8_0_all"  />
<polygon points="378,35 383,30 424,30 424,40 383,40 378,35 " style="fill:white; stroke-width:1; stroke:black; " description="&lt;b&gt;ctg7_31&lt;/b&gt;&lt;br&gt;ctg7 31&lt;br&gt;Location: 32104 - 33181" locus_tag="ctg7_31" class="clusterblast-orf" id="subclusterblast-1_q9_0_all"  />
<polygon points="424,35 429,30 466,30 466,40 429,40 424,35 " style="fill:white; stroke-width:1; stroke:black; " description="&lt;b&gt;ctg7_32&lt;/b&gt;&lt;br&gt;ctg7 32&lt;br&gt;Location: 33186 - 34170" locus_tag="ctg7_32" class="clusterblast-orf" id="subclusterblast-1_q10_0_all"  />
<polygon points="469,40 502,40 507,35 502,30 469,30 469,40 " style="fill:white; stroke-width:1; stroke:black; " description="&lt;b&gt;ctg7_33&lt;/b&gt;&lt;br&gt;ctg7 33&lt;br&gt;Location: 34219 - 35125" locus_tag="ctg7_33" class="clusterblast-orf" id="subclusterblast-1_q11_0_all"  />
<polygon points="516,35 521,30 598,30 598,40 521,40 516,35 " style="fill:white; stroke-width:1; stroke:black; " description="&lt;b&gt;ctg7_34&lt;/b&gt;&lt;br&gt;ctg7 34&lt;br&gt;Location: 35323 - 37246" locus_tag="ctg7_34" class="clusterblast-orf" id="subclusterblast-1_q12_0_all"  />
<polygon points="600,40 616,40 621,35 616,30 600,30 600,40 " style="fill:white; stroke-width:1; stroke:black; " description="&lt;b&gt;ctg7_35&lt;/b&gt;&lt;br&gt;ctg7 35&lt;br&gt;Location: 37290 - 37791" locus_tag="ctg7_35" class="clusterblast-orf" id="subclusterblast-1_q13_0_all"  />
<polygon points="624,40 638,40 643,35 638,30 624,30 624,40 " style="fill:white; stroke-width:1; stroke:black; " description="&lt;b&gt;ctg7_36&lt;/b&gt;&lt;br&gt;ctg7 36&lt;br&gt;Location: 37850 - 38294" locus_tag="ctg7_36" class="clusterblast-orf" id="subclusterblast-1_q14_0_all"  />
<polygon points="644,40 648,40 653,35 648,30 644,30 644,40 " style="fill:white; stroke-width:1; stroke:black; " description="&lt;b&gt;ctg7_37&lt;/b&gt;&lt;br&gt;ctg7 37&lt;br&gt;Location: 38321 - 38534" locus_tag="ctg7_37" class="clusterblast-orf" id="subclusterblast-1_q15_0_all"  />
<polygon points="656,35 661,30 705,30 705,40 661,40 656,35 " style="fill:white; stroke-width:1; stroke:black; " description="&lt;b&gt;ctg7_38&lt;/b&gt;&lt;br&gt;ctg7 38&lt;br&gt;Location: 38591 - 39731" locus_tag="ctg7_38" class="clusterblast-orf" id="subclusterblast-1_q16_0_all"  />
<polygon points="704,35 709,30 734,30 734,40 709,40 704,35 " style="fill:white; stroke-width:1; stroke:black; " description="&lt;b&gt;ctg7_39&lt;/b&gt;&lt;br&gt;ctg7 39&lt;br&gt;Location: 39727 - 40411" locus_tag="ctg7_39" class="clusterblast-orf" id="subclusterblast-1_q17_0_all"  />
<polygon points="734,35 739,30 780,30 780,40 739,40 734,35 " style="fill:white; stroke-width:1; stroke:black; " description="&lt;b&gt;ctg7_40&lt;/b&gt;&lt;br&gt;ctg7 40&lt;br&gt;Location: 40424 - 41492" locus_tag="ctg7_40" class="clusterblast-orf" id="subclusterblast-1_q18_0_all"  />
</g>
</svg>
