<svg xmlns="http://www.w3.org/2000/svg" xmlns:xlink="http://www.w3.org/1999/xlink" version="1.1" x="0" y="0" height="50" width="800" viewBox="0 0 800 50" preserveAspectRatio="none"  >
<g label="Query sequence" class="clusterblast-cluster"  >
<text x="5" y="20" class="clusterblast-acc"  >
Query sequence</text>
<line x1="10" y1="35" x2="778.0" y2="35" style="stroke-width:1; stroke:grey; "  />
<polygon points="0,40 53,40 58,35 53,30 0,30 0,40 " style="fill:white; stroke-width:1; stroke:black; " description="&lt;b&gt;ctg11_161&lt;/b&gt;&lt;br&gt;ctg11 161&lt;br&gt;Location: 189030 - 191607" locus_tag="ctg11_161" class="clusterblast-orf" id="subclusterblast-1_q0_0_all"  />
<polygon points="58,35 63,30 69,30 69,40 63,40 58,35 " style="fill:white; stroke-width:1; stroke:black; " description="&lt;b&gt;ctg11_162&lt;/b&gt;&lt;br&gt;ctg11 162&lt;br&gt;Location: 191629 - 192127" locus_tag="ctg11_162" class="clusterblast-orf" id="subclusterblast-1_q1_0_all"  />
<polygon points="69,35 74,30 117,30 117,40 74,40 69,35 " style="fill:white; stroke-width:1; stroke:black; " description="&lt;b&gt;ctg11_163&lt;/b&gt;&lt;br&gt;ctg11 163&lt;br&gt;Location: 192128 - 194270" locus_tag="ctg11_163" class="clusterblast-orf" id="subclusterblast-1_q2_0_all"  />
<polygon points="117,35 122,30 148,30 148,40 122,40 117,35 " style="fill:white; stroke-width:1; stroke:black; " description="&lt;b&gt;ctg11_164&lt;/b&gt;&lt;br&gt;ctg11 164&lt;br&gt;Location: 194266 - 195649" locus_tag="ctg11_164" class="clusterblast-orf" id="subclusterblast-1_q3_0_all"  />
<polygon points="158,35 163,30 230,30 230,40 163,40 158,35 " style="fill:white; stroke-width:1; stroke:black; " description="&lt;b&gt;ctg11_165&lt;/b&gt;&lt;br&gt;ctg11 165&lt;br&gt;Location: 196093 - 199297" locus_tag="ctg11_165" class="clusterblast-orf" id="subclusterblast-1_q4_0_all"  />
<polygon points="232,40 248,40 253,35 248,30 232,30 232,40 " style="fill:white; stroke-width:1; stroke:black; " description="&lt;b&gt;ctg11_166&lt;/b&gt;&lt;br&gt;ctg11 166&lt;br&gt;Location: 199394 - 200330" locus_tag="ctg11_166" class="clusterblast-orf" id="subclusterblast-1_q5_0_all"  />
<polygon points="252,35 257,30 282,30 282,40 257,40 252,35 " style="fill:white; stroke-width:1; stroke:black; " description="&lt;b&gt;ctg11_167&lt;/b&gt;&lt;br&gt;ctg11 167&lt;br&gt;Location: 200288 - 201608" locus_tag="ctg11_167" class="clusterblast-orf" id="subclusterblast-1_q6_0_all"  />
<polygon points="282,35 287,30 298,30 298,40 287,40 282,35 " style="fill:white; stroke-width:1; stroke:black; " description="&lt;b&gt;ctg11_168&lt;/b&gt;&lt;br&gt;ctg11 168&lt;br&gt;Location: 201620 - 202337" locus_tag="ctg11_168" class="clusterblast-orf" id="subclusterblast-1_q7_0_all"  />
<polygon points="302,40 329,40 334,35 329,30 302,30 302,40 " style="fill:white; stroke-width:1; stroke:black; " description="&lt;b&gt;ctg11_169&lt;/b&gt;&lt;br&gt;ctg11 169&lt;br&gt;Location: 202489 - 203959" locus_tag="ctg11_169" class="clusterblast-orf" id="subclusterblast-1_q8_0_all"  />
<polygon points="334,35 339,30 361,30 361,40 339,40 334,35 " style="fill:white; stroke-width:1; stroke:black; " description="&lt;b&gt;ctg11_170&lt;/b&gt;&lt;br&gt;ctg11 170&lt;br&gt;Location: 203951 - 205145" locus_tag="ctg11_170" class="clusterblast-orf" id="subclusterblast-1_q9_0_all"  />
<polygon points="362,40 386,40 391,35 386,30 362,30 362,40 " style="fill:white; stroke-width:1; stroke:black; " description="&lt;b&gt;ctg11_171&lt;/b&gt;&lt;br&gt;ctg11 171&lt;br&gt;Location: 205184 - 206492" locus_tag="ctg11_171" class="clusterblast-orf" id="subclusterblast-1_q10_0_all"  />
<polygon points="390,35 395,30 405,30 405,40 395,40 390,35 " style="fill:white; stroke-width:1; stroke:black; " description="&lt;b&gt;ctg11_172&lt;/b&gt;&lt;br&gt;ctg11 172&lt;br&gt;Location: 206445 - 207099" locus_tag="ctg11_172" class="clusterblast-orf" id="subclusterblast-1_q11_0_all"  />
<polygon points="408,40 439,40 444,35 439,30 408,30 408,40 " style="fill:white; stroke-width:1; stroke:black; " description="&lt;b&gt;ctg11_173&lt;/b&gt;&lt;br&gt;ctg11 173&lt;br&gt;Location: 207243 - 208842" locus_tag="ctg11_173" class="clusterblast-orf" id="subclusterblast-1_q12_0_all"  />
<polygon points="444,40 601,40 606,35 601,30 444,30 444,40 " style="fill:white; stroke-width:1; stroke:black; " description="&lt;b&gt;ctg11_174&lt;/b&gt;&lt;br&gt;ctg11 174&lt;br&gt;Location: 208853 - 216086" locus_tag="ctg11_174" class="clusterblast-orf" id="subclusterblast-1_q13_0_all"  />
<polygon points="606,35 611,30 635,30 635,40 611,40 606,35 " style="fill:white; stroke-width:1; stroke:black; " description="&lt;b&gt;ctg11_175&lt;/b&gt;&lt;br&gt;ctg11 175&lt;br&gt;Location: 216075 - 217347" locus_tag="ctg11_175" class="clusterblast-orf" id="subclusterblast-1_q14_0_all"  />
<polygon points="637,40 639,40 644,35 639,30 637,30 637,40 " style="fill:white; stroke-width:1; stroke:black; " description="&lt;b&gt;ctg11_176&lt;/b&gt;&lt;br&gt;ctg11 176&lt;br&gt;Location: 217471 - 217747" locus_tag="ctg11_176" class="clusterblast-orf" id="subclusterblast-1_q15_0_all"  />
<polygon points="646,40 654,40 659,35 654,30 646,30 646,40 " style="fill:white; stroke-width:1; stroke:black; " description="&lt;b&gt;ctg11_177&lt;/b&gt;&lt;br&gt;ctg11 177&lt;br&gt;Location: 217859 - 218411" locus_tag="ctg11_177" class="clusterblast-orf" id="subclusterblast-1_q16_0_all"  />
<polygon points="658,40 670,40 675,35 670,30 658,30 658,40 " style="fill:white; stroke-width:1; stroke:black; " description="&lt;b&gt;ctg11_178&lt;/b&gt;&lt;br&gt;ctg11 178&lt;br&gt;Location: 218407 - 219142" locus_tag="ctg11_178" class="clusterblast-orf" id="subclusterblast-1_q17_0_all"  />
<polygon points="675,40 721,40 726,35 721,30 675,30 675,40 " style="fill:white; stroke-width:1; stroke:black; " description="&lt;b&gt;ctg11_179&lt;/b&gt;&lt;br&gt;ctg11 179&lt;br&gt;Location: 219156 - 221439" locus_tag="ctg11_179" class="clusterblast-orf" id="subclusterblast-1_q18_0_all"  />
<polygon points="728,40 775,40 780,35 775,30 728,30 728,40 " style="fill:white; stroke-width:1; stroke:black; " description="&lt;b&gt;ctg11_180&lt;/b&gt;&lt;br&gt;ctg11 180&lt;br&gt;Location: 221507 - 223817" locus_tag="ctg11_180" class="clusterblast-orf" id="subclusterblast-1_q19_0_all"  />
</g>
</svg>
