<svg xmlns="http://www.w3.org/2000/svg" xmlns:xlink="http://www.w3.org/1999/xlink" version="1.1" x="0" y="0" height="50" width="800" viewBox="0 0 800 50" preserveAspectRatio="none"  >
<g label="Query sequence" class="clusterblast-cluster"  >
<text x="5" y="20" class="clusterblast-acc"  >
Query sequence</text>
<line x1="10" y1="35" x2="778.0" y2="35" style="stroke-width:1; stroke:grey; "  />
<polygon points="0,35 5,30 46,30 46,40 5,40 0,35 " style="fill:white; stroke-width:1; stroke:black; " description="&lt;b&gt;ctg12_162&lt;/b&gt;&lt;br&gt;ctg12 162&lt;br&gt;Location: 179403 - 181485" locus_tag="ctg12_162" class="clusterblast-orf" id="subclusterblast-1_q0_0_all"  />
<polygon points="46,35 51,30 56,30 56,40 51,40 46,35 " style="fill:white; stroke-width:1; stroke:black; " description="&lt;b&gt;ctg12_163&lt;/b&gt;&lt;br&gt;ctg12 163&lt;br&gt;Location: 181481 - 181916" locus_tag="ctg12_163" class="clusterblast-orf" id="subclusterblast-1_q1_0_all"  />
<polygon points="59,40 67,40 72,35 67,30 59,30 59,40 " style="fill:white; stroke-width:1; stroke:black; " description="&lt;b&gt;ctg12_164&lt;/b&gt;&lt;br&gt;ctg12 164&lt;br&gt;Location: 182058 - 182610" locus_tag="ctg12_164" class="clusterblast-orf" id="subclusterblast-1_q2_0_all"  />
<polygon points="73,40 79,40 84,35 79,30 73,30 73,40 " style="fill:white; stroke-width:1; stroke:black; " description="&lt;b&gt;ctg12_165&lt;/b&gt;&lt;br&gt;ctg12 165&lt;br&gt;Location: 182696 - 183146" locus_tag="ctg12_165" class="clusterblast-orf" id="subclusterblast-1_q3_0_all"  />
<polygon points="83,35 88,30 131,30 131,40 88,40 83,35 " style="fill:white; stroke-width:1; stroke:black; " description="&lt;b&gt;ctg12_166&lt;/b&gt;&lt;br&gt;ctg12 166&lt;br&gt;Location: 183132 - 185283" locus_tag="ctg12_166" class="clusterblast-orf" id="subclusterblast-1_q4_0_all"  />
<polygon points="132,35 137,30 139,30 139,40 137,40 132,35 " style="fill:white; stroke-width:1; stroke:black; " description="&lt;b&gt;ctg12_167&lt;/b&gt;&lt;br&gt;ctg12 167&lt;br&gt;Location: 185323 - 185617" locus_tag="ctg12_167" class="clusterblast-orf" id="subclusterblast-1_q5_0_all"  />
<polygon points="139,35 144,30 161,30 161,40 144,40 139,35 " style="fill:white; stroke-width:1; stroke:black; " description="&lt;b&gt;ctg12_168&lt;/b&gt;&lt;br&gt;ctg12 168&lt;br&gt;Location: 185626 - 186598" locus_tag="ctg12_168" class="clusterblast-orf" id="subclusterblast-1_q6_0_all"  />
<polygon points="166,40 170,40 175,35 170,30 166,30 166,40 " style="fill:white; stroke-width:1; stroke:black; " description="&lt;b&gt;ctg12_169&lt;/b&gt;&lt;br&gt;ctg12 169&lt;br&gt;Location: 186853 - 187246" locus_tag="ctg12_169" class="clusterblast-orf" id="subclusterblast-1_q7_0_all"  />
<polygon points="175,35 180,30 188,30 188,40 180,40 175,35 " style="fill:white; stroke-width:1; stroke:black; " description="&lt;b&gt;ctg12_170&lt;/b&gt;&lt;br&gt;ctg12 170&lt;br&gt;Location: 187235 - 187799" locus_tag="ctg12_170" class="clusterblast-orf" id="subclusterblast-1_q8_0_all"  />
<polygon points="191,40 202,40 207,35 202,30 191,30 191,40 " style="fill:white; stroke-width:1; stroke:black; " description="&lt;b&gt;ctg12_171&lt;/b&gt;&lt;br&gt;ctg12 171&lt;br&gt;Location: 187934 - 188660" locus_tag="ctg12_171" class="clusterblast-orf" id="subclusterblast-1_q9_0_all"  />
<polygon points="207,35 212,30 230,30 230,40 212,40 207,35 " style="fill:white; stroke-width:1; stroke:black; " description="&lt;b&gt;ctg12_172&lt;/b&gt;&lt;br&gt;ctg12 172&lt;br&gt;Location: 188646 - 189669" locus_tag="ctg12_172" class="clusterblast-orf" id="subclusterblast-1_q10_0_all"  />
<polygon points="231,40 245,40 250,35 245,30 231,30 231,40 " style="fill:white; stroke-width:1; stroke:black; " description="&lt;b&gt;ctg12_173&lt;/b&gt;&lt;br&gt;ctg12 173&lt;br&gt;Location: 189733 - 190600" locus_tag="ctg12_173" class="clusterblast-orf" id="subclusterblast-1_q11_0_all"  />
<polygon points="251,40 265,40 270,35 265,30 251,30 251,40 " style="fill:white; stroke-width:1; stroke:black; " description="&lt;b&gt;ctg12_174&lt;/b&gt;&lt;br&gt;ctg12 174&lt;br&gt;Location: 190639 - 191479" locus_tag="ctg12_174" class="clusterblast-orf" id="subclusterblast-1_q12_0_all"  />
<polygon points="272,40 290,40 295,35 290,30 272,30 272,40 " style="fill:white; stroke-width:1; stroke:black; " description="&lt;b&gt;ctg12_175&lt;/b&gt;&lt;br&gt;ctg12 175&lt;br&gt;Location: 191547 - 192576" locus_tag="ctg12_175" class="clusterblast-orf" id="subclusterblast-1_q13_0_all"  />
<polygon points="295,35 300,30 332,30 332,40 300,40 295,35 " style="fill:white; stroke-width:1; stroke:black; " description="&lt;b&gt;ctg12_176&lt;/b&gt;&lt;br&gt;ctg12 176&lt;br&gt;Location: 192577 - 194266" locus_tag="ctg12_176" class="clusterblast-orf" id="subclusterblast-1_q14_0_all"  />
<polygon points="338,35 343,30 370,30 370,40 343,40 338,35 " style="fill:white; stroke-width:1; stroke:black; " description="&lt;b&gt;ctg12_177&lt;/b&gt;&lt;br&gt;ctg12 177&lt;br&gt;Location: 194523 - 195933" locus_tag="ctg12_177" class="clusterblast-orf" id="subclusterblast-1_q15_0_all"  />
<polygon points="373,35 378,30 388,30 388,40 378,40 373,35 " style="fill:white; stroke-width:1; stroke:black; " description="&lt;b&gt;ctg12_178&lt;/b&gt;&lt;br&gt;ctg12 178&lt;br&gt;Location: 196080 - 196767" locus_tag="ctg12_178" class="clusterblast-orf" id="subclusterblast-1_q16_0_all"  />
<polygon points="389,35 394,30 409,30 409,40 394,40 389,35 " style="fill:white; stroke-width:1; stroke:black; " description="&lt;b&gt;ctg12_179&lt;/b&gt;&lt;br&gt;ctg12 179&lt;br&gt;Location: 196805 - 197675" locus_tag="ctg12_179" class="clusterblast-orf" id="subclusterblast-1_q17_0_all"  />
<polygon points="409,35 414,30 426,30 426,40 414,40 409,35 " style="fill:white; stroke-width:1; stroke:black; " description="&lt;b&gt;ctg12_180&lt;/b&gt;&lt;br&gt;ctg12 180&lt;br&gt;Location: 197676 - 198462" locus_tag="ctg12_180" class="clusterblast-orf" id="subclusterblast-1_q18_0_all"  />
<polygon points="427,35 432,30 447,30 447,40 432,40 427,35 " style="fill:white; stroke-width:1; stroke:black; " description="&lt;b&gt;ctg12_181&lt;/b&gt;&lt;br&gt;ctg12 181&lt;br&gt;Location: 198484 - 199396" locus_tag="ctg12_181" class="clusterblast-orf" id="subclusterblast-1_q19_0_all"  />
<polygon points="449,40 452,40 457,35 452,30 449,30 449,40 " style="fill:white; stroke-width:1; stroke:black; " description="&lt;b&gt;ctg12_182&lt;/b&gt;&lt;br&gt;ctg12 182&lt;br&gt;Location: 199486 - 199810" locus_tag="ctg12_182" class="clusterblast-orf" id="subclusterblast-1_q20_0_all"  />
<polygon points="457,35 462,30 574,30 574,40 462,40 457,35 " style="fill:white; stroke-width:1; stroke:black; " description="&lt;b&gt;ctg12_183&lt;/b&gt;&lt;br&gt;ctg12 183&lt;br&gt;Location: 199823 - 205043" locus_tag="ctg12_183" class="clusterblast-orf" id="subclusterblast-1_q21_0_all"  />
<polygon points="592,40 599,40 604,35 599,30 592,30 592,40 " style="fill:white; stroke-width:1; stroke:black; " description="&lt;b&gt;ctg12_184&lt;/b&gt;&lt;br&gt;ctg12 184&lt;br&gt;Location: 205842 - 206382" locus_tag="ctg12_184" class="clusterblast-orf" id="subclusterblast-1_q22_0_all"  />
<polygon points="604,40 619,40 624,35 619,30 604,30 604,40 " style="fill:white; stroke-width:1; stroke:black; " description="&lt;b&gt;ctg12_185&lt;/b&gt;&lt;br&gt;ctg12 185&lt;br&gt;Location: 206378 - 207290" locus_tag="ctg12_185" class="clusterblast-orf" id="subclusterblast-1_q23_0_all"  />
<polygon points="634,35 639,30 657,30 657,40 639,40 634,35 " style="fill:white; stroke-width:1; stroke:black; " description="&lt;b&gt;ctg12_186&lt;/b&gt;&lt;br&gt;ctg12 186&lt;br&gt;Location: 207726 - 208767" locus_tag="ctg12_186" class="clusterblast-orf" id="subclusterblast-1_q24_0_all"  />
<polygon points="656,35 661,30 669,30 669,40 661,40 656,35 " style="fill:white; stroke-width:1; stroke:black; " description="&lt;b&gt;ctg12_187&lt;/b&gt;&lt;br&gt;ctg12 187&lt;br&gt;Location: 208712 - 209309" locus_tag="ctg12_187" class="clusterblast-orf" id="subclusterblast-1_q25_0_all"  />
<polygon points="678,35 683,30 701,30 701,40 683,40 678,35 " style="fill:white; stroke-width:1; stroke:black; " description="&lt;b&gt;ctg12_188&lt;/b&gt;&lt;br&gt;ctg12 188&lt;br&gt;Location: 209721 - 210747" locus_tag="ctg12_188" class="clusterblast-orf" id="subclusterblast-1_q26_0_all"  />
<polygon points="702,35 707,30 724,30 724,40 707,40 702,35 " style="fill:white; stroke-width:1; stroke:black; " description="&lt;b&gt;ctg12_189&lt;/b&gt;&lt;br&gt;ctg12 189&lt;br&gt;Location: 210798 - 211749" locus_tag="ctg12_189" class="clusterblast-orf" id="subclusterblast-1_q27_0_all"  />
<polygon points="724,35 729,30 736,30 736,40 729,40 724,35 " style="fill:white; stroke-width:1; stroke:black; " description="&lt;b&gt;ctg12_190&lt;/b&gt;&lt;br&gt;ctg12 190&lt;br&gt;Location: 211745 - 212306" locus_tag="ctg12_190" class="clusterblast-orf" id="subclusterblast-1_q28_0_all"  />
<polygon points="744,35 749,30 768,30 768,40 749,40 744,35 " style="fill:white; stroke-width:1; stroke:black; " description="&lt;b&gt;ctg12_191&lt;/b&gt;&lt;br&gt;ctg12 191&lt;br&gt;Location: 212666 - 213707" locus_tag="ctg12_191" class="clusterblast-orf" id="subclusterblast-1_q29_0_all"  />
<polygon points="766,35 771,30 780,30 780,40 771,40 766,35 " style="fill:white; stroke-width:1; stroke:black; " description="&lt;b&gt;ctg12_192&lt;/b&gt;&lt;br&gt;ctg12 192&lt;br&gt;Location: 213652 - 214249" locus_tag="ctg12_192" class="clusterblast-orf" id="subclusterblast-1_q30_0_all"  />
</g>
</svg>
