<svg xmlns="http://www.w3.org/2000/svg" xmlns:xlink="http://www.w3.org/1999/xlink" version="1.1" x="0" y="0" height="50" width="800" viewBox="0 0 800 50" preserveAspectRatio="none"  >
<g label="Query sequence" class="clusterblast-cluster"  >
<text x="5" y="20" class="clusterblast-acc"  >
Query sequence</text>
<line x1="10" y1="35" x2="778.0" y2="35" style="stroke-width:1; stroke:grey; "  />
<polygon points="0,35 5,30 13,30 13,40 5,40 0,35 " style="fill:white; stroke-width:1; stroke:black; " description="&lt;b&gt;ctg2_67&lt;/b&gt;&lt;br&gt;ctg2 67&lt;br&gt;Location: 96475 - 97690" locus_tag="ctg2_67" class="clusterblast-orf" id="subclusterblast-1_q0_0_all"  />
<polygon points="13,35 18,30 30,30 30,40 18,40 13,35 " style="fill:white; stroke-width:1; stroke:black; " description="&lt;b&gt;ctg2_68&lt;/b&gt;&lt;br&gt;ctg2 68&lt;br&gt;Location: 97686 - 99135" locus_tag="ctg2_68" class="clusterblast-orf" id="subclusterblast-1_q1_0_all"  />
<polygon points="34,40 40,40 45,35 40,30 34,30 34,40 " style="fill:white; stroke-width:1; stroke:black; " description="&lt;b&gt;ctg2_69&lt;/b&gt;&lt;br&gt;ctg2 69&lt;br&gt;Location: 99542 - 100544" locus_tag="ctg2_69" class="clusterblast-orf" id="subclusterblast-1_q2_0_all"  />
<polygon points="46,40 48,40 53,35 48,30 46,30 46,40 " style="fill:white; stroke-width:1; stroke:black; " description="&lt;b&gt;ctg2_70&lt;/b&gt;&lt;br&gt;ctg2 70&lt;br&gt;Location: 100643 - 101255" locus_tag="ctg2_70" class="clusterblast-orf" id="subclusterblast-1_q3_0_all"  />
<polygon points="53,35 58,30 66,30 66,40 58,40 53,35 " style="fill:white; stroke-width:1; stroke:black; " description="&lt;b&gt;ctg2_71&lt;/b&gt;&lt;br&gt;ctg2 71&lt;br&gt;Location: 101229 - 102339" locus_tag="ctg2_71" class="clusterblast-orf" id="subclusterblast-1_q4_0_all"  />
<polygon points="65,35 70,30 73,30 73,40 70,40 65,35 " style="fill:white; stroke-width:1; stroke:black; " description="&lt;b&gt;ctg2_72&lt;/b&gt;&lt;br&gt;ctg2 72&lt;br&gt;Location: 102328 - 103024" locus_tag="ctg2_72" class="clusterblast-orf" id="subclusterblast-1_q5_0_all"  />
<polygon points="73,35 78,30 85,30 85,40 78,40 73,35 " style="fill:white; stroke-width:1; stroke:black; " description="&lt;b&gt;ctg2_73&lt;/b&gt;&lt;br&gt;ctg2 73&lt;br&gt;Location: 103020 - 104070" locus_tag="ctg2_73" class="clusterblast-orf" id="subclusterblast-1_q6_0_all"  />
<polygon points="86,40 86,40 91,35 86,30 86,30 86,40 " style="fill:white; stroke-width:1; stroke:black; " description="&lt;b&gt;ctg2_74&lt;/b&gt;&lt;br&gt;ctg2 74&lt;br&gt;Location: 104193 - 104583" locus_tag="ctg2_74" class="clusterblast-orf" id="subclusterblast-1_q7_0_all"  />
<polygon points="91,35 95,30 95,40 91,35 " style="fill:white; stroke-width:1; stroke:black; " description="&lt;b&gt;ctg2_75&lt;/b&gt;&lt;br&gt;ctg2 75&lt;br&gt;Location: 104584 - 104926" locus_tag="ctg2_75" class="clusterblast-orf" id="subclusterblast-1_q8_0_all"  />
<polygon points="96,40 99,40 104,35 99,30 96,30 96,40 " style="fill:white; stroke-width:1; stroke:black; " description="&lt;b&gt;ctg2_76&lt;/b&gt;&lt;br&gt;ctg2 76&lt;br&gt;Location: 105067 - 105754" locus_tag="ctg2_76" class="clusterblast-orf" id="subclusterblast-1_q9_0_all"  />
<polygon points="105,40 109,40 114,35 109,30 105,30 105,40 " style="fill:white; stroke-width:1; stroke:black; " description="&lt;b&gt;ctg2_77&lt;/b&gt;&lt;br&gt;ctg2 77&lt;br&gt;Location: 105817 - 106672" locus_tag="ctg2_77" class="clusterblast-orf" id="subclusterblast-1_q10_0_all"  />
<polygon points="114,35 119,30 121,30 121,40 119,40 114,35 " style="fill:white; stroke-width:1; stroke:black; " description="&lt;b&gt;ctg2_78&lt;/b&gt;&lt;br&gt;ctg2 78&lt;br&gt;Location: 106658 - 107264" locus_tag="ctg2_78" class="clusterblast-orf" id="subclusterblast-1_q11_0_all"  />
<polygon points="121,35 126,30 129,30 129,40 126,40 121,35 " style="fill:white; stroke-width:1; stroke:black; " description="&lt;b&gt;ctg2_79&lt;/b&gt;&lt;br&gt;ctg2 79&lt;br&gt;Location: 107256 - 107988" locus_tag="ctg2_79" class="clusterblast-orf" id="subclusterblast-1_q12_0_all"  />
<polygon points="131,40 139,40 144,35 139,30 131,30 131,40 " style="fill:white; stroke-width:1; stroke:black; " description="&lt;b&gt;ctg2_80&lt;/b&gt;&lt;br&gt;ctg2 80&lt;br&gt;Location: 108148 - 109321" locus_tag="ctg2_80" class="clusterblast-orf" id="subclusterblast-1_q13_0_all"  />
<polygon points="144,40 147,40 152,35 147,30 144,30 144,40 " style="fill:white; stroke-width:1; stroke:black; " description="&lt;b&gt;ctg2_81&lt;/b&gt;&lt;br&gt;ctg2 81&lt;br&gt;Location: 109351 - 110002" locus_tag="ctg2_81" class="clusterblast-orf" id="subclusterblast-1_q14_0_all"  />
<polygon points="152,40 157,40 162,35 157,30 152,30 152,40 " style="fill:white; stroke-width:1; stroke:black; " description="&lt;b&gt;ctg2_82&lt;/b&gt;&lt;br&gt;ctg2 82&lt;br&gt;Location: 110065 - 110872" locus_tag="ctg2_82" class="clusterblast-orf" id="subclusterblast-1_q15_0_all"  />
<polygon points="163,40 167,40 172,35 167,30 163,30 163,40 " style="fill:white; stroke-width:1; stroke:black; " description="&lt;b&gt;ctg2_83&lt;/b&gt;&lt;br&gt;ctg2 83&lt;br&gt;Location: 111035 - 111788" locus_tag="ctg2_83" class="clusterblast-orf" id="subclusterblast-1_q16_0_all"  />
<polygon points="172,40 175,40 180,35 175,30 172,30 172,40 " style="fill:white; stroke-width:1; stroke:black; " description="&lt;b&gt;ctg2_84&lt;/b&gt;&lt;br&gt;ctg2 84&lt;br&gt;Location: 111813 - 112485" locus_tag="ctg2_84" class="clusterblast-orf" id="subclusterblast-1_q17_0_all"  />
<polygon points="182,40 185,35 182,30 182,40 " style="fill:white; stroke-width:1; stroke:black; " description="&lt;b&gt;ctg2_85&lt;/b&gt;&lt;br&gt;ctg2 85&lt;br&gt;Location: 112702 - 112957" locus_tag="ctg2_85" class="clusterblast-orf" id="subclusterblast-1_q18_0_all"  />
<polygon points="189,40 212,40 217,35 212,30 189,30 189,40 " style="fill:white; stroke-width:1; stroke:black; " description="&lt;b&gt;ctg2_86&lt;/b&gt;&lt;br&gt;ctg2 86&lt;br&gt;Location: 113288 - 115763" locus_tag="ctg2_86" class="clusterblast-orf" id="subclusterblast-1_q19_0_all"  />
<polygon points="217,35 222,30 227,30 227,40 222,40 217,35 " style="fill:white; stroke-width:1; stroke:black; " description="&lt;b&gt;ctg2_87&lt;/b&gt;&lt;br&gt;ctg2 87&lt;br&gt;Location: 115830 - 116652" locus_tag="ctg2_87" class="clusterblast-orf" id="subclusterblast-1_q20_0_all"  />
<polygon points="227,40 246,40 251,35 246,30 227,30 227,40 " style="fill:white; stroke-width:1; stroke:black; " description="&lt;b&gt;ctg2_88&lt;/b&gt;&lt;br&gt;ctg2 88&lt;br&gt;Location: 116727 - 118836" locus_tag="ctg2_88" class="clusterblast-orf" id="subclusterblast-1_q21_0_all"  />
<polygon points="252,40 254,40 259,35 254,30 252,30 252,40 " style="fill:white; stroke-width:1; stroke:black; " description="&lt;b&gt;ctg2_89&lt;/b&gt;&lt;br&gt;ctg2 89&lt;br&gt;Location: 118873 - 119533" locus_tag="ctg2_89" class="clusterblast-orf" id="subclusterblast-1_q22_0_all"  />
<polygon points="260,40 271,40 276,35 271,30 260,30 260,40 " style="fill:white; stroke-width:1; stroke:black; " description="&lt;b&gt;ctg2_90&lt;/b&gt;&lt;br&gt;ctg2 90&lt;br&gt;Location: 119583 - 121050" locus_tag="ctg2_90" class="clusterblast-orf" id="subclusterblast-1_q23_0_all"  />
<polygon points="276,35 281,30 285,30 285,40 281,40 276,35 " style="fill:white; stroke-width:1; stroke:black; " description="&lt;b&gt;ctg2_91&lt;/b&gt;&lt;br&gt;ctg2 91&lt;br&gt;Location: 121054 - 121831" locus_tag="ctg2_91" class="clusterblast-orf" id="subclusterblast-1_q24_0_all"  />
<polygon points="286,35 289,30 289,40 286,35 " style="fill:white; stroke-width:1; stroke:black; " description="&lt;b&gt;ctg2_92&lt;/b&gt;&lt;br&gt;ctg2 92&lt;br&gt;Location: 121929 - 122223" locus_tag="ctg2_92" class="clusterblast-orf" id="subclusterblast-1_q25_0_all"  />
<polygon points="291,35 296,30 305,30 305,40 296,40 291,35 " style="fill:white; stroke-width:1; stroke:black; " description="&lt;b&gt;ctg2_93&lt;/b&gt;&lt;br&gt;ctg2 93&lt;br&gt;Location: 122353 - 123589" locus_tag="ctg2_93" class="clusterblast-orf" id="subclusterblast-1_q26_0_all"  />
<polygon points="307,40 310,40 315,35 310,30 307,30 307,40 " style="fill:white; stroke-width:1; stroke:black; " description="&lt;b&gt;ctg2_94&lt;/b&gt;&lt;br&gt;ctg2 94&lt;br&gt;Location: 123824 - 124520" locus_tag="ctg2_94" class="clusterblast-orf" id="subclusterblast-1_q27_0_all"  />
<polygon points="316,35 321,30 323,30 323,40 321,40 316,35 " style="fill:white; stroke-width:1; stroke:black; " description="&lt;b&gt;ctg2_95&lt;/b&gt;&lt;br&gt;ctg2 95&lt;br&gt;Location: 124625 - 125252" locus_tag="ctg2_95" class="clusterblast-orf" id="subclusterblast-1_q28_0_all"  />
<polygon points="323,35 328,30 334,30 334,40 328,40 323,35 " style="fill:white; stroke-width:1; stroke:black; " description="&lt;b&gt;ctg2_96&lt;/b&gt;&lt;br&gt;ctg2 96&lt;br&gt;Location: 125248 - 126187" locus_tag="ctg2_96" class="clusterblast-orf" id="subclusterblast-1_q29_0_all"  />
<polygon points="336,40 336,40 341,35 336,30 336,30 336,40 " style="fill:white; stroke-width:1; stroke:black; " description="&lt;b&gt;ctg2_97&lt;/b&gt;&lt;br&gt;ctg2 97&lt;br&gt;Location: 126392 - 126782" locus_tag="ctg2_97" class="clusterblast-orf" id="subclusterblast-1_q30_0_all"  />
<polygon points="341,35 346,30 352,30 352,40 346,40 341,35 " style="fill:white; stroke-width:1; stroke:black; " description="&lt;b&gt;ctg2_98&lt;/b&gt;&lt;br&gt;ctg2 98&lt;br&gt;Location: 126796 - 127840" locus_tag="ctg2_98" class="clusterblast-orf" id="subclusterblast-1_q31_0_all"  />
<polygon points="352,35 357,30 370,30 370,40 357,40 352,35 " style="fill:white; stroke-width:1; stroke:black; " description="&lt;b&gt;ctg2_99&lt;/b&gt;&lt;br&gt;ctg2 99&lt;br&gt;Location: 127815 - 129381" locus_tag="ctg2_99" class="clusterblast-orf" id="subclusterblast-1_q32_0_all"  />
<polygon points="370,35 375,30 380,30 380,40 375,40 370,35 " style="fill:white; stroke-width:1; stroke:black; " description="&lt;b&gt;ctg2_100&lt;/b&gt;&lt;br&gt;ctg2 100&lt;br&gt;Location: 129377 - 130277" locus_tag="ctg2_100" class="clusterblast-orf" id="subclusterblast-1_q33_0_all"  />
<polygon points="380,35 385,30 414,30 414,40 385,40 380,35 " style="fill:white; stroke-width:1; stroke:black; " description="&lt;b&gt;ctg2_101&lt;/b&gt;&lt;br&gt;ctg2 101&lt;br&gt;Location: 130276 - 133342" locus_tag="ctg2_101" class="clusterblast-orf" id="subclusterblast-1_q34_0_all"  />
<polygon points="416,35 421,30 496,30 496,40 421,40 416,35 " style="fill:white; stroke-width:1; stroke:black; " description="&lt;b&gt;ctg2_102&lt;/b&gt;&lt;br&gt;ctg2 102&lt;br&gt;Location: 133471 - 140602" locus_tag="ctg2_102" class="clusterblast-orf" id="subclusterblast-1_q35_0_all"  />
<polygon points="496,35 501,30 581,30 581,40 501,40 496,35 " style="fill:white; stroke-width:1; stroke:black; " description="&lt;b&gt;ctg2_103&lt;/b&gt;&lt;br&gt;ctg2 103&lt;br&gt;Location: 140648 - 148175" locus_tag="ctg2_103" class="clusterblast-orf" id="subclusterblast-1_q36_0_all"  />
<polygon points="581,35 586,30 600,30 600,40 586,40 581,35 " style="fill:white; stroke-width:1; stroke:black; " description="&lt;b&gt;ctg2_104&lt;/b&gt;&lt;br&gt;ctg2 104&lt;br&gt;Location: 148193 - 149846" locus_tag="ctg2_104" class="clusterblast-orf" id="subclusterblast-1_q37_0_all"  />
<polygon points="603,40 604,40 609,35 604,30 603,30 603,40 " style="fill:white; stroke-width:1; stroke:black; " description="&lt;b&gt;ctg2_105&lt;/b&gt;&lt;br&gt;ctg2 105&lt;br&gt;Location: 150100 - 150691" locus_tag="ctg2_105" class="clusterblast-orf" id="subclusterblast-1_q38_0_all"  />
<polygon points="610,35 615,30 623,30 623,40 615,40 610,35 " style="fill:white; stroke-width:1; stroke:black; " description="&lt;b&gt;ctg2_106&lt;/b&gt;&lt;br&gt;ctg2 106&lt;br&gt;Location: 150760 - 151867" locus_tag="ctg2_106" class="clusterblast-orf" id="subclusterblast-1_q39_0_all"  />
<polygon points="625,40 630,40 635,35 630,30 625,30 625,40 " style="fill:white; stroke-width:1; stroke:black; " description="&lt;b&gt;ctg2_107&lt;/b&gt;&lt;br&gt;ctg2 107&lt;br&gt;Location: 152109 - 152997" locus_tag="ctg2_107" class="clusterblast-orf" id="subclusterblast-1_q40_0_all"  />
<polygon points="636,35 641,30 646,30 646,40 641,40 636,35 " style="fill:white; stroke-width:1; stroke:black; " description="&lt;b&gt;ctg2_108&lt;/b&gt;&lt;br&gt;ctg2 108&lt;br&gt;Location: 153021 - 153957" locus_tag="ctg2_108" class="clusterblast-orf" id="subclusterblast-1_q41_0_all"  />
<polygon points="648,40 649,40 654,35 649,30 648,30 648,40 " style="fill:white; stroke-width:1; stroke:black; " description="&lt;b&gt;ctg2_109&lt;/b&gt;&lt;br&gt;ctg2 109&lt;br&gt;Location: 154107 - 154662" locus_tag="ctg2_109" class="clusterblast-orf" id="subclusterblast-1_q42_0_all"  />
<polygon points="655,35 660,30 685,30 685,40 660,40 655,35 " style="fill:white; stroke-width:1; stroke:black; " description="&lt;b&gt;ctg2_110&lt;/b&gt;&lt;br&gt;ctg2 110&lt;br&gt;Location: 154706 - 157388" locus_tag="ctg2_110" class="clusterblast-orf" id="subclusterblast-1_q43_0_all"  />
<polygon points="686,40 712,40 717,35 712,30 686,30 686,40 " style="fill:white; stroke-width:1; stroke:black; " description="&lt;b&gt;ctg2_111&lt;/b&gt;&lt;br&gt;ctg2 111&lt;br&gt;Location: 157537 - 160297" locus_tag="ctg2_111" class="clusterblast-orf" id="subclusterblast-1_q44_0_all"  />
<polygon points="717,40 734,40 739,35 734,30 717,30 717,40 " style="fill:white; stroke-width:1; stroke:black; " description="&lt;b&gt;ctg2_112&lt;/b&gt;&lt;br&gt;ctg2 112&lt;br&gt;Location: 160293 - 162231" locus_tag="ctg2_112" class="clusterblast-orf" id="subclusterblast-1_q45_0_all"  />
<polygon points="740,40 750,40 755,35 750,30 740,30 740,40 " style="fill:white; stroke-width:1; stroke:black; " description="&lt;b&gt;ctg2_113&lt;/b&gt;&lt;br&gt;ctg2 113&lt;br&gt;Location: 162257 - 163601" locus_tag="ctg2_113" class="clusterblast-orf" id="subclusterblast-1_q46_0_all"  />
<polygon points="756,35 761,30 771,30 771,40 761,40 756,35 " style="fill:white; stroke-width:1; stroke:black; " description="&lt;b&gt;ctg2_114&lt;/b&gt;&lt;br&gt;ctg2 114&lt;br&gt;Location: 163698 - 165036" locus_tag="ctg2_114" class="clusterblast-orf" id="subclusterblast-1_q47_0_all"  />
<polygon points="771,35 776,30 780,30 780,40 776,40 771,35 " style="fill:white; stroke-width:1; stroke:black; " description="&lt;b&gt;ctg2_115&lt;/b&gt;&lt;br&gt;ctg2 115&lt;br&gt;Location: 165041 - 165821" locus_tag="ctg2_115" class="clusterblast-orf" id="subclusterblast-1_q48_0_all"  />
</g>
</svg>
