<svg xmlns="http://www.w3.org/2000/svg" xmlns:xlink="http://www.w3.org/1999/xlink" version="1.1" x="0" y="0" height="50" width="800" viewBox="0 0 800 50" preserveAspectRatio="none"  >
<g label="Query sequence" class="clusterblast-cluster"  >
<text x="5" y="20" class="clusterblast-acc"  >
Query sequence</text>
<line x1="10" y1="35" x2="778.0" y2="35" style="stroke-width:1; stroke:grey; "  />
<polygon points="0,35 5,30 107,30 107,40 5,40 0,35 " style="fill:white; stroke-width:1; stroke:black; " description="&lt;b&gt;ctg5_102&lt;/b&gt;&lt;br&gt;ctg5 102&lt;br&gt;Location: 101971 - 104638" locus_tag="ctg5_102" class="clusterblast-orf" id="knownclusterblast-1_q0_0_all"  />
<polygon points="114,40 125,40 130,35 125,30 114,30 114,40 " style="fill:white; stroke-width:1; stroke:black; " description="&lt;b&gt;ctg5_103&lt;/b&gt;&lt;br&gt;ctg5 103&lt;br&gt;Location: 104824 - 105217" locus_tag="ctg5_103" class="clusterblast-orf" id="knownclusterblast-1_q1_0_all"  />
<polygon points="135,40 188,40 193,35 188,30 135,30 135,40 " style="fill:white; stroke-width:1; stroke:black; " description="&lt;b&gt;ctg5_104&lt;/b&gt;&lt;br&gt;ctg5 104&lt;br&gt;Location: 105333 - 106800" locus_tag="ctg5_104" class="clusterblast-orf" id="knownclusterblast-1_q2_0_all"  />
<polygon points="193,35 198,30 294,30 294,40 198,40 193,35 " style="fill:white; stroke-width:1; stroke:black; " description="&lt;b&gt;ctg5_105&lt;/b&gt;&lt;br&gt;ctg5 105&lt;br&gt;Location: 106796 - 109310" locus_tag="ctg5_105" class="clusterblast-orf" id="knownclusterblast-1_q3_0_all"  />
<polygon points="298,35 303,30 353,30 353,40 303,40 298,35 " style="fill:white; stroke-width:1; stroke:black; " description="&lt;b&gt;ctg5_106&lt;/b&gt;&lt;br&gt;ctg5 106&lt;br&gt;Location: 109412 - 110786" locus_tag="ctg5_106" class="clusterblast-orf" id="knownclusterblast-1_q4_0_all"  />
<polygon points="361,40 436,40 441,35 436,30 361,30 361,40 " style="fill:white; stroke-width:1; stroke:black; " description="&lt;b&gt;ctg5_107&lt;/b&gt;&lt;br&gt;ctg5 107&lt;br&gt;Location: 110991 - 112998" locus_tag="ctg5_107" class="clusterblast-orf" id="knownclusterblast-1_q5_0_all"  />
<polygon points="442,35 447,30 484,30 484,40 447,40 442,35 " style="fill:white; stroke-width:1; stroke:black; " description="&lt;b&gt;ctg5_108&lt;/b&gt;&lt;br&gt;ctg5 108&lt;br&gt;Location: 113011 - 114049" locus_tag="ctg5_108" class="clusterblast-orf" id="knownclusterblast-1_q6_0_all"  />
<polygon points="488,35 493,30 509,30 509,40 493,40 488,35 " style="fill:white; stroke-width:1; stroke:black; " description="&lt;b&gt;ctg5_109&lt;/b&gt;&lt;br&gt;ctg5 109&lt;br&gt;Location: 114149 - 114695" locus_tag="ctg5_109" class="clusterblast-orf" id="knownclusterblast-1_q7_0_all"  />
<polygon points="510,40 544,40 549,35 544,30 510,30 510,40 " style="fill:white; stroke-width:1; stroke:black; " description="&lt;b&gt;ctg5_110&lt;/b&gt;&lt;br&gt;ctg5 110&lt;br&gt;Location: 114701 - 115679" locus_tag="ctg5_110" class="clusterblast-orf" id="knownclusterblast-1_q8_0_all"  />
<polygon points="549,40 586,40 591,35 586,30 549,30 549,40 " style="fill:white; stroke-width:1; stroke:black; " description="&lt;b&gt;ctg5_111&lt;/b&gt;&lt;br&gt;ctg5 111&lt;br&gt;Location: 115689 - 116736" locus_tag="ctg5_111" class="clusterblast-orf" id="knownclusterblast-1_q9_0_all"  />
<polygon points="591,40 614,40 619,35 614,30 591,30 591,40 " style="fill:white; stroke-width:1; stroke:black; " description="&lt;b&gt;ctg5_112&lt;/b&gt;&lt;br&gt;ctg5 112&lt;br&gt;Location: 116725 - 117430" locus_tag="ctg5_112" class="clusterblast-orf" id="knownclusterblast-1_q10_0_all"  />
<polygon points="619,40 664,40 669,35 664,30 619,30 619,40 " style="fill:white; stroke-width:1; stroke:black; " description="&lt;b&gt;ctg5_113&lt;/b&gt;&lt;br&gt;ctg5 113&lt;br&gt;Location: 117426 - 118683" locus_tag="ctg5_113" class="clusterblast-orf" id="knownclusterblast-1_q11_0_all"  />
<polygon points="673,40 682,40 687,35 682,30 673,30 673,40 " style="fill:white; stroke-width:1; stroke:black; " description="&lt;b&gt;ctg5_114&lt;/b&gt;&lt;br&gt;ctg5 114&lt;br&gt;Location: 118784 - 119132" locus_tag="ctg5_114" class="clusterblast-orf" id="knownclusterblast-1_q12_0_all"  />
<polygon points="689,40 698,40 703,35 698,30 689,30 689,40 " style="fill:white; stroke-width:1; stroke:black; " description="&lt;b&gt;ctg5_115&lt;/b&gt;&lt;br&gt;ctg5 115&lt;br&gt;Location: 119171 - 119525" locus_tag="ctg5_115" class="clusterblast-orf" id="knownclusterblast-1_q13_0_all"  />
<polygon points="707,40 715,40 720,35 715,30 707,30 707,40 " style="fill:white; stroke-width:1; stroke:black; " description="&lt;b&gt;ctg5_116&lt;/b&gt;&lt;br&gt;ctg5 116&lt;br&gt;Location: 119621 - 119954" locus_tag="ctg5_116" class="clusterblast-orf" id="knownclusterblast-1_q14_0_all"  />
<polygon points="720,40 747,40 752,35 747,30 720,30 720,40 " style="fill:white; stroke-width:1; stroke:black; " description="&lt;b&gt;ctg5_117&lt;/b&gt;&lt;br&gt;ctg5 117&lt;br&gt;Location: 119946 - 120747" locus_tag="ctg5_117" class="clusterblast-orf" id="knownclusterblast-1_q15_0_all"  />
<polygon points="756,40 775,40 780,35 775,30 756,30 756,40 " style="fill:white; stroke-width:1; stroke:black; " description="&lt;b&gt;ctg5_118&lt;/b&gt;&lt;br&gt;ctg5 118&lt;br&gt;Location: 120856 - 121450" locus_tag="ctg5_118" class="clusterblast-orf" id="knownclusterblast-1_q16_0_all"  />
</g>
</svg>
