<svg xmlns="http://www.w3.org/2000/svg" xmlns:xlink="http://www.w3.org/1999/xlink" version="1.1" x="0" y="0" height="230" width="800" viewBox="0 0 800 230" preserveAspectRatio="none"  >
<g label="Query sequence" class="clusterblast-cluster"  >
<text x="5" y="20" class="clusterblast-acc"  >
Query sequence</text>
<line x1="10" y1="35" x2="778.0" y2="35" style="stroke-width:1; stroke:grey; "  />
<polygon points="0,35 5,30 25,30 25,40 5,40 0,35 " style="fill:white; stroke-width:1; stroke:black; " description="&lt;b&gt;ctg34_66&lt;/b&gt;&lt;br&gt;ctg34 66&lt;br&gt;Location: 65491 - 66931" locus_tag="ctg34_66" class="clusterblast-orf" id="dummy-1_q0_0_all"  />
<polygon points="26,40 45,40 50,35 45,30 26,30 26,40 " style="fill:white; stroke-width:1; stroke:black; " description="&lt;b&gt;ctg34_67&lt;/b&gt;&lt;br&gt;ctg34 67&lt;br&gt;Location: 66959 - 68351" locus_tag="ctg34_67" class="clusterblast-orf" id="dummy-1_q1_0_all"  />
<polygon points="50,35 55,30 64,30 64,40 55,40 50,35 " style="fill:white; stroke-width:1; stroke:black; " description="&lt;b&gt;ctg34_68&lt;/b&gt;&lt;br&gt;ctg34 68&lt;br&gt;Location: 68302 - 69130" locus_tag="ctg34_68" class="clusterblast-orf" id="dummy-1_q2_0_all"  />
<polygon points="64,35 69,30 77,30 77,40 69,40 64,35 " style="fill:#d81515; stroke-width:1; stroke:black; " description="&lt;b&gt;ctg34_69&lt;/b&gt;&lt;br&gt;ctg34 69&lt;br&gt;Location: 69126 - 69849" locus_tag="ctg34_69" class="clusterblast-orf" id="dummy-1_q3_0_all"  />
<polygon points="79,40 95,40 100,35 95,30 79,30 79,40 " style="fill:#15d8d8; stroke-width:1; stroke:black; " description="&lt;b&gt;ctg34_70&lt;/b&gt;&lt;br&gt;ctg34 70&lt;br&gt;Location: 69943 - 71164" locus_tag="ctg34_70" class="clusterblast-orf" id="dummy-1_q4_0_all"  />
<polygon points="101,40 106,40 111,35 106,30 101,30 101,40 " style="fill:white; stroke-width:1; stroke:black; " description="&lt;b&gt;ctg34_71&lt;/b&gt;&lt;br&gt;ctg34 71&lt;br&gt;Location: 71191 - 71770" locus_tag="ctg34_71" class="clusterblast-orf" id="dummy-1_q5_0_all"  />
<polygon points="111,40 121,40 126,35 121,30 111,30 111,40 " style="fill:white; stroke-width:1; stroke:black; " description="&lt;b&gt;ctg34_72&lt;/b&gt;&lt;br&gt;ctg34 72&lt;br&gt;Location: 71753 - 72617" locus_tag="ctg34_72" class="clusterblast-orf" id="dummy-1_q6_0_all"  />
<polygon points="128,40 143,40 148,35 143,30 128,30 128,40 " style="fill:white; stroke-width:1; stroke:black; " description="&lt;b&gt;ctg34_73&lt;/b&gt;&lt;br&gt;ctg34 73&lt;br&gt;Location: 72750 - 73848" locus_tag="ctg34_73" class="clusterblast-orf" id="dummy-1_q7_0_all"  />
<polygon points="148,40 186,40 191,35 186,30 148,30 148,40 " style="fill:white; stroke-width:1; stroke:black; " description="&lt;b&gt;ctg34_74&lt;/b&gt;&lt;br&gt;ctg34 74&lt;br&gt;Location: 73857 - 76266" locus_tag="ctg34_74" class="clusterblast-orf" id="dummy-1_q8_0_all"  />
<polygon points="193,40 197,35 193,30 193,40 " style="fill:white; stroke-width:1; stroke:black; " description="&lt;b&gt;ctg34_75&lt;/b&gt;&lt;br&gt;ctg34 75&lt;br&gt;Location: 76363 - 76600" locus_tag="ctg34_75" class="clusterblast-orf" id="dummy-1_q9_0_all"  />
<polygon points="197,40 235,40 240,35 235,30 197,30 197,40 " style="fill:white; stroke-width:1; stroke:black; " description="&lt;b&gt;ctg34_76&lt;/b&gt;&lt;br&gt;ctg34 76&lt;br&gt;Location: 76604 - 79040" locus_tag="ctg34_76" class="clusterblast-orf" id="dummy-1_q10_0_all"  />
<polygon points="240,35 245,30 260,30 260,40 245,40 240,35 " style="fill:white; stroke-width:1; stroke:black; " description="&lt;b&gt;ctg34_77&lt;/b&gt;&lt;br&gt;ctg34 77&lt;br&gt;Location: 79020 - 80163" locus_tag="ctg34_77" class="clusterblast-orf" id="dummy-1_q11_0_all"  />
<polygon points="260,35 265,30 286,30 286,40 265,40 260,35 " style="fill:white; stroke-width:1; stroke:black; " description="&lt;b&gt;ctg34_78&lt;/b&gt;&lt;br&gt;ctg34 78&lt;br&gt;Location: 80159 - 81644" locus_tag="ctg34_78" class="clusterblast-orf" id="dummy-1_q12_0_all"  />
<polygon points="287,35 292,30 306,30 306,40 292,40 287,35 " style="fill:white; stroke-width:1; stroke:black; " description="&lt;b&gt;ctg34_79&lt;/b&gt;&lt;br&gt;ctg34 79&lt;br&gt;Location: 81662 - 82763" locus_tag="ctg34_79" class="clusterblast-orf" id="dummy-1_q13_0_all"  />
<polygon points="306,35 311,30 320,30 320,40 311,40 306,35 " style="fill:white; stroke-width:1; stroke:black; " description="&lt;b&gt;ctg34_80&lt;/b&gt;&lt;br&gt;ctg34 80&lt;br&gt;Location: 82759 - 83521" locus_tag="ctg34_80" class="clusterblast-orf" id="dummy-1_q14_0_all"  />
<polygon points="321,35 326,30 326,30 326,40 326,40 321,35 " style="fill:white; stroke-width:1; stroke:black; " description="&lt;b&gt;ctg34_81&lt;/b&gt;&lt;br&gt;ctg34 81&lt;br&gt;Location: 83616 - 83874" locus_tag="ctg34_81" class="clusterblast-orf" id="dummy-1_q15_0_all"  />
<polygon points="329,40 329,40 334,35 329,30 329,30 329,40 " style="fill:white; stroke-width:1; stroke:black; " description="&lt;b&gt;ctg34_82&lt;/b&gt;&lt;br&gt;ctg34 82&lt;br&gt;Location: 84042 - 84354" locus_tag="ctg34_82" class="clusterblast-orf" id="dummy-1_q16_0_all"  />
<polygon points="349,40 360,40 365,35 360,30 349,30 349,40 " style="fill:white; stroke-width:1; stroke:black; " description="&lt;b&gt;ctg34_83&lt;/b&gt;&lt;br&gt;ctg34 83&lt;br&gt;Location: 85182 - 86058" locus_tag="ctg34_83" class="clusterblast-orf" id="dummy-1_q17_0_all"  />
<polygon points="364,35 369,30 380,30 380,40 369,40 364,35 " style="fill:white; stroke-width:1; stroke:black; " description="&lt;b&gt;ctg34_84&lt;/b&gt;&lt;br&gt;ctg34 84&lt;br&gt;Location: 86024 - 86921" locus_tag="ctg34_84" class="clusterblast-orf" id="dummy-1_q18_0_all"  />
<polygon points="380,40 404,40 409,35 404,30 380,30 380,40 " style="fill:white; stroke-width:1; stroke:black; " description="&lt;b&gt;ctg34_85&lt;/b&gt;&lt;br&gt;ctg34 85&lt;br&gt;Location: 86922 - 88545" locus_tag="ctg34_85" class="clusterblast-orf" id="dummy-1_q19_0_all"  />
<polygon points="411,40 433,40 438,35 433,30 411,30 411,40 " style="fill:white; stroke-width:1; stroke:black; " description="&lt;b&gt;ctg34_86&lt;/b&gt;&lt;br&gt;ctg34 86&lt;br&gt;Location: 88651 - 90214" locus_tag="ctg34_86" class="clusterblast-orf" id="dummy-1_q20_0_all"  />
<polygon points="438,40 453,40 458,35 453,30 438,30 438,40 " style="fill:white; stroke-width:1; stroke:black; " description="&lt;b&gt;ctg34_87&lt;/b&gt;&lt;br&gt;ctg34 87&lt;br&gt;Location: 90200 - 91325" locus_tag="ctg34_87" class="clusterblast-orf" id="dummy-1_q21_0_all"  />
<polygon points="458,40 466,40 471,35 466,30 458,30 458,40 " style="fill:white; stroke-width:1; stroke:black; " description="&lt;b&gt;ctg34_88&lt;/b&gt;&lt;br&gt;ctg34 88&lt;br&gt;Location: 91321 - 92047" locus_tag="ctg34_88" class="clusterblast-orf" id="dummy-1_q22_0_all"  />
<polygon points="474,40 485,40 490,35 485,30 474,30 474,40 " style="fill:white; stroke-width:1; stroke:black; " description="&lt;b&gt;ctg34_89&lt;/b&gt;&lt;br&gt;ctg34 89&lt;br&gt;Location: 92200 - 93142" locus_tag="ctg34_89" class="clusterblast-orf" id="dummy-1_q23_0_all"  />
<polygon points="497,40 507,40 512,35 507,30 497,30 497,40 " style="fill:white; stroke-width:1; stroke:black; " description="&lt;b&gt;ctg34_90&lt;/b&gt;&lt;br&gt;ctg34 90&lt;br&gt;Location: 93536 - 94388" locus_tag="ctg34_90" class="clusterblast-orf" id="dummy-1_q24_0_all"  />
<polygon points="515,40 516,40 521,35 516,30 515,30 515,40 " style="fill:white; stroke-width:1; stroke:black; " description="&lt;b&gt;ctg34_91&lt;/b&gt;&lt;br&gt;ctg34 91&lt;br&gt;Location: 94558 - 94849" locus_tag="ctg34_91" class="clusterblast-orf" id="dummy-1_q25_0_all"  />
<polygon points="521,40 524,40 529,35 524,30 521,30 521,40 " style="fill:white; stroke-width:1; stroke:black; " description="&lt;b&gt;ctg34_92&lt;/b&gt;&lt;br&gt;ctg34 92&lt;br&gt;Location: 94863 - 95301" locus_tag="ctg34_92" class="clusterblast-orf" id="dummy-1_q26_0_all"  />
<polygon points="530,40 537,40 542,35 537,30 530,30 530,40 " style="fill:white; stroke-width:1; stroke:black; " description="&lt;b&gt;ctg34_93&lt;/b&gt;&lt;br&gt;ctg34 93&lt;br&gt;Location: 95383 - 96043" locus_tag="ctg34_93" class="clusterblast-orf" id="dummy-1_q27_0_all"  />
<polygon points="544,40 554,40 559,35 554,30 544,30 544,40 " style="fill:white; stroke-width:1; stroke:black; " description="&lt;b&gt;ctg34_94&lt;/b&gt;&lt;br&gt;ctg34 94&lt;br&gt;Location: 96186 - 97002" locus_tag="ctg34_94" class="clusterblast-orf" id="dummy-1_q28_0_all"  />
<polygon points="560,35 565,30 568,30 568,40 565,40 560,35 " style="fill:white; stroke-width:1; stroke:black; " description="&lt;b&gt;ctg34_95&lt;/b&gt;&lt;br&gt;ctg34 95&lt;br&gt;Location: 97089 - 97494" locus_tag="ctg34_95" class="clusterblast-orf" id="dummy-1_q29_0_all"  />
<polygon points="577,40 590,40 595,35 590,30 577,30 577,40 " style="fill:white; stroke-width:1; stroke:black; " description="&lt;b&gt;ctg34_96&lt;/b&gt;&lt;br&gt;ctg34 96&lt;br&gt;Location: 98012 - 99059" locus_tag="ctg34_96" class="clusterblast-orf" id="dummy-1_q30_0_all"  />
<polygon points="595,40 622,40 627,35 622,30 595,30 595,40 " style="fill:white; stroke-width:1; stroke:black; " description="&lt;b&gt;ctg34_97&lt;/b&gt;&lt;br&gt;ctg34 97&lt;br&gt;Location: 99065 - 100868" locus_tag="ctg34_97" class="clusterblast-orf" id="dummy-1_q31_0_all"  />
<polygon points="627,40 638,40 643,35 638,30 627,30 627,40 " style="fill:white; stroke-width:1; stroke:black; " description="&lt;b&gt;ctg34_98&lt;/b&gt;&lt;br&gt;ctg34 98&lt;br&gt;Location: 100864 - 101767" locus_tag="ctg34_98" class="clusterblast-orf" id="dummy-1_q32_0_all"  />
<polygon points="643,40 658,40 663,35 658,30 643,30 643,40 " style="fill:white; stroke-width:1; stroke:black; " description="&lt;b&gt;ctg34_99&lt;/b&gt;&lt;br&gt;ctg34 99&lt;br&gt;Location: 101763 - 102897" locus_tag="ctg34_99" class="clusterblast-orf" id="dummy-1_q33_0_all"  />
<polygon points="667,40 679,40 684,35 679,30 667,30 667,40 " style="fill:white; stroke-width:1; stroke:black; " description="&lt;b&gt;ctg34_100&lt;/b&gt;&lt;br&gt;ctg34 100&lt;br&gt;Location: 103082 - 104036" locus_tag="ctg34_100" class="clusterblast-orf" id="dummy-1_q34_0_all"  />
<polygon points="684,40 693,40 698,35 693,30 684,30 684,40 " style="fill:white; stroke-width:1; stroke:black; " description="&lt;b&gt;ctg34_101&lt;/b&gt;&lt;br&gt;ctg34 101&lt;br&gt;Location: 104047 - 104827" locus_tag="ctg34_101" class="clusterblast-orf" id="dummy-1_q35_0_all"  />
<polygon points="698,35 703,30 714,30 714,40 703,40 698,35 " style="fill:white; stroke-width:1; stroke:black; " description="&lt;b&gt;ctg34_102&lt;/b&gt;&lt;br&gt;ctg34 102&lt;br&gt;Location: 104852 - 105740" locus_tag="ctg34_102" class="clusterblast-orf" id="dummy-1_q36_0_all"  />
<polygon points="717,40 726,40 731,35 726,30 717,30 717,40 " style="fill:white; stroke-width:1; stroke:black; " description="&lt;b&gt;ctg34_103&lt;/b&gt;&lt;br&gt;ctg34 103&lt;br&gt;Location: 105910 - 106702" locus_tag="ctg34_103" class="clusterblast-orf" id="dummy-1_q37_0_all"  />
<polygon points="731,40 743,40 748,35 743,30 731,30 731,40 " style="fill:white; stroke-width:1; stroke:black; " description="&lt;b&gt;ctg34_104&lt;/b&gt;&lt;br&gt;ctg34 104&lt;br&gt;Location: 106708 - 107644" locus_tag="ctg34_104" class="clusterblast-orf" id="dummy-1_q38_0_all"  />
<polygon points="748,40 763,40 768,35 763,30 748,30 748,40 " style="fill:white; stroke-width:1; stroke:black; " description="&lt;b&gt;ctg34_105&lt;/b&gt;&lt;br&gt;ctg34 105&lt;br&gt;Location: 107640 - 108774" locus_tag="ctg34_105" class="clusterblast-orf" id="dummy-1_q39_0_all"  />
<polygon points="768,35 773,30 780,30 780,40 773,40 768,35 " style="fill:white; stroke-width:1; stroke:black; " description="&lt;b&gt;ctg34_106&lt;/b&gt;&lt;br&gt;ctg34 106&lt;br&gt;Location: 108770 - 109445" locus_tag="ctg34_106" class="clusterblast-orf" id="dummy-1_q40_0_all"  />
</g>
<g label="BGC0000257" description="BGC0000257_c1: prodigiosin (8% of genes show similarity), Polyketide" class="clusterblast-cluster"  >
<text x="5" y="70" class="clusterblast-acc"  >
<a xlink:href="https://mibig.secondarymetabolites.org/go/BGC0000257/1" target="_blank">BGC0000257</a>: prodigiosin                                                                      (8% of genes show similarity), Polyketide</text>
<line x1="10" y1="85" x2="778.0" y2="85" style="stroke-width:1; stroke:grey; "  />
</g>
<g id="a1_000"  >
<polygon points="29,85 34,80 35,80 35,90 34,90 29,85 " style="fill:white; stroke-width:1; stroke:black; " description="&lt;b&gt;BAG84240.1&lt;/b&gt;&lt;br&gt;hypothetical protein&lt;br&gt;Location: 2580 - 2906" locus_tag="BAG84240.1" class="clusterblast-orf" id="dummy-1_h1_1_0"  />
</g>
<g id="a1_001"  >
<polygon points="36,85 41,80 57,80 57,90 41,90 36,85 " style="fill:white; stroke-width:1; stroke:black; " description="&lt;b&gt;BAG84241.1&lt;/b&gt;&lt;br&gt;putative L-prolyl-PCP dehydrogenase&lt;br&gt;Location: 2982 - 4187" locus_tag="BAG84241.1" class="clusterblast-orf" id="dummy-1_h1_1_1"  />
</g>
<g id="a1_002"  >
<polygon points="57,85 62,80 107,80 107,90 62,90 57,85 " style="fill:white; stroke-width:1; stroke:black; " description="&lt;b&gt;BAG84242.1&lt;/b&gt;&lt;br&gt;putative beta-ketomyristoyl-ACP synthase&lt;br&gt;Location: 4184 - 6967" locus_tag="BAG84242.1" class="clusterblast-orf" id="dummy-1_h1_1_2"  />
</g>
<g id="a1_003"  >
<polygon points="110,85 115,80 123,80 123,90 115,90 110,85 " style="fill:white; stroke-width:1; stroke:black; " description="&lt;b&gt;BAG84243.1&lt;/b&gt;&lt;br&gt;putative transcriptional regulator&lt;br&gt;Location: 7132 - 7893" locus_tag="BAG84243.1" class="clusterblast-orf" id="dummy-1_h1_1_3"  />
</g>
<g id="a1_004"  >
<polygon points="133,85 138,80 174,80 174,90 138,90 133,85 " style="fill:white; stroke-width:1; stroke:black; " description="&lt;b&gt;BAG84244.1&lt;/b&gt;&lt;br&gt;putative ABC-transporter&lt;br&gt;Location: 8450 - 10783" locus_tag="BAG84244.1" class="clusterblast-orf" id="dummy-1_h1_1_4"  />
</g>
<g id="a1_005"  >
<polygon points="175,85 180,80 187,80 187,90 180,90 175,85 " style="fill:#d81515; stroke-width:1; stroke:black; " description="&lt;b&gt;BAG84245.1&lt;/b&gt;&lt;br&gt;putative ABC-transporter&lt;br&gt;Location: 10800 - 11525&lt;br&gt;&lt;br&gt;&lt;b&gt;BlastP hit with ctg34_69&lt;/b&gt;&lt;br&gt;Percentage identity: 49&lt;br&gt;Percentage coverage: 99&lt;br&gt;BLAST bit score: 228&lt;br&gt;E-value: 5.94e-75" locus_tag="BAG84245.1" class="clusterblast-orf" id="dummy-1_h1_1_5"  />
</g>
<g id="a1_006"  >
<polygon points="189,85 194,80 201,80 201,90 194,90 189,85 " style="fill:white; stroke-width:1; stroke:black; " description="&lt;b&gt;BAG84246.1&lt;/b&gt;&lt;br&gt;putative transcriptional regulator&lt;br&gt;Location: 11617 - 12294" locus_tag="BAG84246.1" class="clusterblast-orf" id="dummy-1_h1_1_6"  />
</g>
<g id="a1_007"  >
<polygon points="219,90 247,90 252,85 247,80 219,80 219,90 " style="fill:white; stroke-width:1; stroke:black; " description="&lt;b&gt;BAG84247.1&lt;/b&gt;&lt;br&gt;putative L-prolyl-AMP ligase&lt;br&gt;Location: 13296 - 15173" locus_tag="BAG84247.1" class="clusterblast-orf" id="dummy-1_h1_1_7"  />
</g>
<g id="a1_008"  >
<polygon points="254,90 377,90 382,85 377,80 254,80 254,90 " style="fill:#15d8d8; stroke-width:1; stroke:black; " description="&lt;b&gt;BAG84248.1&lt;/b&gt;&lt;br&gt;putative polyketide synthase&lt;br&gt;Location: 15281 - 22489&lt;br&gt;&lt;br&gt;&lt;b&gt;BlastP hit with ctg34_70&lt;/b&gt;&lt;br&gt;Percentage identity: 46&lt;br&gt;Percentage coverage: 98&lt;br&gt;BLAST bit score: 348&lt;br&gt;E-value: 1.43e-107" locus_tag="BAG84248.1" class="clusterblast-orf" id="dummy-1_h1_1_8"  />
</g>
<g id="a1_009"  >
<polygon points="382,90 397,90 402,85 397,80 382,80 382,90 " style="fill:white; stroke-width:1; stroke:black; " description="&lt;b&gt;BAG84249.1&lt;/b&gt;&lt;br&gt;putative oxidoreductase&lt;br&gt;Location: 22498 - 23610" locus_tag="BAG84249.1" class="clusterblast-orf" id="dummy-1_h1_1_9"  />
</g>
<g id="a1_0010"  >
<polygon points="403,90 420,90 425,85 420,80 403,80 403,90 " style="fill:white; stroke-width:1; stroke:black; " description="&lt;b&gt;BAG84250.1&lt;/b&gt;&lt;br&gt;putative thioesterase&lt;br&gt;Location: 23659 - 24921" locus_tag="BAG84250.1" class="clusterblast-orf" id="dummy-1_h1_1_10"  />
</g>
<g id="a1_0011"  >
<polygon points="426,90 445,90 450,85 445,80 426,80 426,90 " style="fill:white; stroke-width:1; stroke:black; " description="&lt;b&gt;BAG84251.1&lt;/b&gt;&lt;br&gt;putative oxygenase&lt;br&gt;Location: 24976 - 26304" locus_tag="BAG84251.1" class="clusterblast-orf" id="dummy-1_h1_1_11"  />
</g>
<g id="a1_0012"  >
<polygon points="452,90 464,90 469,85 464,80 452,80 452,90 " style="fill:white; stroke-width:1; stroke:black; " description="&lt;b&gt;BAG84252.1&lt;/b&gt;&lt;br&gt;putative oxygenase&lt;br&gt;Location: 26436 - 27416" locus_tag="BAG84252.1" class="clusterblast-orf" id="dummy-1_h1_1_12"  />
</g>
<g id="a1_0013"  >
<polygon points="470,90 485,90 490,85 485,80 470,80 470,90 " style="fill:white; stroke-width:1; stroke:black; " description="&lt;b&gt;BAG84253.1&lt;/b&gt;&lt;br&gt;putative oxygenase&lt;br&gt;Location: 27450 - 28550" locus_tag="BAG84253.1" class="clusterblast-orf" id="dummy-1_h1_1_13"  />
</g>
<g id="a1_0014"  >
<polygon points="490,90 504,90 509,85 504,80 490,80 490,90 " style="fill:white; stroke-width:1; stroke:black; " description="&lt;b&gt;BAG84254.1&lt;/b&gt;&lt;br&gt;putative O-methyltransferase&lt;br&gt;Location: 28562 - 29650" locus_tag="BAG84254.1" class="clusterblast-orf" id="dummy-1_h1_1_14"  />
</g>
<g id="a1_0015"  >
<polygon points="516,90 569,90 574,85 569,80 516,80 516,90 " style="fill:white; stroke-width:1; stroke:black; " description="&lt;b&gt;BAG84255.1&lt;/b&gt;&lt;br&gt;putative pyrrole-condensing enzyme&lt;br&gt;Location: 30049 - 33294" locus_tag="BAG84255.1" class="clusterblast-orf" id="dummy-1_h1_1_15"  />
</g>
<g id="a1_0016"  >
<polygon points="576,90 591,90 596,85 591,80 576,80 576,90 " style="fill:white; stroke-width:1; stroke:black; " description="&lt;b&gt;BAG84256.1&lt;/b&gt;&lt;br&gt;putative oxygenase&lt;br&gt;Location: 33398 - 34543" locus_tag="BAG84256.1" class="clusterblast-orf" id="dummy-1_h1_1_16"  />
</g>
<g id="a1_0017"  >
<polygon points="604,85 609,80 616,80 616,90 609,90 604,85 " style="fill:white; stroke-width:1; stroke:black; " description="&lt;b&gt;BAG84257.1&lt;/b&gt;&lt;br&gt;putative response regulator&lt;br&gt;Location: 35000 - 35680" locus_tag="BAG84257.1" class="clusterblast-orf" id="dummy-1_h1_1_17"  />
</g>
<g id="a1_0018"  >
<polygon points="619,85 624,80 643,80 643,90 624,90 619,85 " style="fill:white; stroke-width:1; stroke:black; " description="&lt;b&gt;BAG84258.1&lt;/b&gt;&lt;br&gt;putative dehydrogenase&lt;br&gt;Location: 35854 - 37206" locus_tag="BAG84258.1" class="clusterblast-orf" id="dummy-1_h1_1_18"  />
</g>
<g id="a1_0019"  >
<polygon points="643,85 648,80 659,80 659,90 648,90 643,85 " style="fill:white; stroke-width:1; stroke:black; " description="&lt;b&gt;BAG84259.1&lt;/b&gt;&lt;br&gt;putative 4'-phosphopantetheinyl transferase&lt;br&gt;Location: 37214 - 38080" locus_tag="BAG84259.1" class="clusterblast-orf" id="dummy-1_h1_1_19"  />
</g>
<g id="a1_0020"  >
<polygon points="659,85 664,80 675,80 675,90 664,90 659,85 " style="fill:white; stroke-width:1; stroke:black; " description="&lt;b&gt;BAG84260.1&lt;/b&gt;&lt;br&gt;hypothetical protein&lt;br&gt;Location: 38085 - 38978" locus_tag="BAG84260.1" class="clusterblast-orf" id="dummy-1_h1_1_20"  />
</g>
<g id="a1_0021"  >
<polygon points="692,90 705,90 710,85 705,80 692,80 692,90 " style="fill:white; stroke-width:1; stroke:black; " description="&lt;b&gt;BAG84261.1&lt;/b&gt;&lt;br&gt;putative 3-oxoacyl-ACP synthase&lt;br&gt;Location: 39949 - 40971" locus_tag="BAG84261.1" class="clusterblast-orf" id="dummy-1_h1_1_21"  />
</g>
<g id="a1_0022"  >
<polygon points="711,90 711,90 716,85 711,80 711,80 711,90 " style="fill:white; stroke-width:1; stroke:black; " description="&lt;b&gt;BAG84262.1&lt;/b&gt;&lt;br&gt;putative peptidyl carrier protein&lt;br&gt;Location: 41045 - 41323" locus_tag="BAG84262.1" class="clusterblast-orf" id="dummy-1_h1_1_22"  />
</g>
<g id="a1_0023"  >
<polygon points="716,90 745,90 750,85 745,80 716,80 716,90 " style="fill:white; stroke-width:1; stroke:black; " description="&lt;b&gt;BAG84263.1&lt;/b&gt;&lt;br&gt;putative 4-hydroxy-2,2'-bipyrrole-4-methanol synthase&lt;br&gt;Location: 41335 - 43239" locus_tag="BAG84263.1" class="clusterblast-orf" id="dummy-1_h1_1_23"  />
</g>
</svg>
