<svg xmlns="http://www.w3.org/2000/svg" xmlns:xlink="http://www.w3.org/1999/xlink" version="1.1" x="0" y="0" height="50" width="800" viewBox="0 0 800 50" preserveAspectRatio="none"  >
<g label="Query sequence" class="clusterblast-cluster"  >
<text x="5" y="20" class="clusterblast-acc"  >
Query sequence</text>
<line x1="10" y1="35" x2="778.0" y2="35" style="stroke-width:1; stroke:grey; "  />
<polygon points="0,40 4,40 9,35 4,30 0,30 0,40 " style="fill:white; stroke-width:1; stroke:black; " description="&lt;b&gt;ctg13_18&lt;/b&gt;&lt;br&gt;ctg13 18&lt;br&gt;Location: 13894 - 14392" locus_tag="ctg13_18" class="clusterblast-orf" id="knownclusterblast-1_q0_0_all"  />
<polygon points="10,40 21,40 26,35 21,30 10,30 10,40 " style="fill:white; stroke-width:1; stroke:black; " description="&lt;b&gt;ctg13_19&lt;/b&gt;&lt;br&gt;ctg13 19&lt;br&gt;Location: 14425 - 15283" locus_tag="ctg13_19" class="clusterblast-orf" id="knownclusterblast-1_q1_0_all"  />
<polygon points="27,35 32,30 62,30 62,40 32,40 27,35 " style="fill:white; stroke-width:1; stroke:black; " description="&lt;b&gt;ctg13_20&lt;/b&gt;&lt;br&gt;ctg13 20&lt;br&gt;Location: 15297 - 17112" locus_tag="ctg13_20" class="clusterblast-orf" id="knownclusterblast-1_q2_0_all"  />
<polygon points="63,40 65,40 70,35 65,30 63,30 63,40 " style="fill:white; stroke-width:1; stroke:black; " description="&lt;b&gt;ctg13_21&lt;/b&gt;&lt;br&gt;ctg13 21&lt;br&gt;Location: 17174 - 17534" locus_tag="ctg13_21" class="clusterblast-orf" id="knownclusterblast-1_q3_0_all"  />
<polygon points="73,40 96,40 101,35 96,30 73,30 73,40 " style="fill:white; stroke-width:1; stroke:black; " description="&lt;b&gt;ctg13_22&lt;/b&gt;&lt;br&gt;ctg13 22&lt;br&gt;Location: 17688 - 19170" locus_tag="ctg13_22" class="clusterblast-orf" id="knownclusterblast-1_q4_0_all"  />
<polygon points="101,35 106,30 121,30 121,40 106,40 101,35 " style="fill:white; stroke-width:1; stroke:black; " description="&lt;b&gt;ctg13_23&lt;/b&gt;&lt;br&gt;ctg13 23&lt;br&gt;Location: 19166 - 20204" locus_tag="ctg13_23" class="clusterblast-orf" id="knownclusterblast-1_q5_0_all"  />
<polygon points="125,40 128,40 133,35 128,30 125,30 125,40 " style="fill:white; stroke-width:1; stroke:black; " description="&lt;b&gt;ctg13_24&lt;/b&gt;&lt;br&gt;ctg13 24&lt;br&gt;Location: 20430 - 20811" locus_tag="ctg13_24" class="clusterblast-orf" id="knownclusterblast-1_q6_0_all"  />
<polygon points="133,35 138,30 145,30 145,40 138,40 133,35 " style="fill:white; stroke-width:1; stroke:black; " description="&lt;b&gt;ctg13_25&lt;/b&gt;&lt;br&gt;ctg13 25&lt;br&gt;Location: 20814 - 21450" locus_tag="ctg13_25" class="clusterblast-orf" id="knownclusterblast-1_q7_0_all"  />
<polygon points="147,40 161,40 166,35 161,30 147,30 147,40 " style="fill:white; stroke-width:1; stroke:black; " description="&lt;b&gt;ctg13_26&lt;/b&gt;&lt;br&gt;ctg13 26&lt;br&gt;Location: 21546 - 22518" locus_tag="ctg13_26" class="clusterblast-orf" id="knownclusterblast-1_q8_0_all"  />
<polygon points="165,35 170,30 176,30 176,40 170,40 165,35 " style="fill:white; stroke-width:1; stroke:black; " description="&lt;b&gt;ctg13_27&lt;/b&gt;&lt;br&gt;ctg13 27&lt;br&gt;Location: 22492 - 23062" locus_tag="ctg13_27" class="clusterblast-orf" id="knownclusterblast-1_q9_0_all"  />
<polygon points="179,35 184,30 243,30 243,40 184,40 179,35 " style="fill:white; stroke-width:1; stroke:black; " description="&lt;b&gt;ctg13_28&lt;/b&gt;&lt;br&gt;ctg13 28&lt;br&gt;Location: 23208 - 26559" locus_tag="ctg13_28" class="clusterblast-orf" id="knownclusterblast-1_q10_0_all"  />
<polygon points="246,40 276,40 281,35 276,30 246,30 246,40 " style="fill:white; stroke-width:1; stroke:black; " description="&lt;b&gt;ctg13_29&lt;/b&gt;&lt;br&gt;ctg13 29&lt;br&gt;Location: 26687 - 28547" locus_tag="ctg13_29" class="clusterblast-orf" id="knownclusterblast-1_q11_0_all"  />
<polygon points="282,40 304,40 309,35 304,30 282,30 282,40 " style="fill:white; stroke-width:1; stroke:black; " description="&lt;b&gt;ctg13_30&lt;/b&gt;&lt;br&gt;ctg13 30&lt;br&gt;Location: 28560 - 29979" locus_tag="ctg13_30" class="clusterblast-orf" id="knownclusterblast-1_q12_0_all"  />
<polygon points="309,40 323,40 328,35 323,30 309,30 309,40 " style="fill:white; stroke-width:1; stroke:black; " description="&lt;b&gt;ctg13_31&lt;/b&gt;&lt;br&gt;ctg13 31&lt;br&gt;Location: 29975 - 30962" locus_tag="ctg13_31" class="clusterblast-orf" id="knownclusterblast-1_q13_0_all"  />
<polygon points="331,35 334,30 334,40 331,35 " style="fill:white; stroke-width:1; stroke:black; " description="&lt;b&gt;ctg13_32&lt;/b&gt;&lt;br&gt;ctg13 32&lt;br&gt;Location: 31139 - 31256" locus_tag="ctg13_32" class="clusterblast-orf" id="knownclusterblast-1_q14_0_all"  />
<polygon points="337,40 355,40 360,35 355,30 337,30 337,40 " style="fill:white; stroke-width:1; stroke:black; " description="&lt;b&gt;ctg13_33&lt;/b&gt;&lt;br&gt;ctg13 33&lt;br&gt;Location: 31417 - 32650" locus_tag="ctg13_33" class="clusterblast-orf" id="knownclusterblast-1_q15_0_all"  />
<polygon points="360,40 406,40 411,35 406,30 360,30 360,40 " style="fill:white; stroke-width:1; stroke:black; " description="&lt;b&gt;ctg13_34&lt;/b&gt;&lt;br&gt;ctg13 34&lt;br&gt;Location: 32646 - 35283" locus_tag="ctg13_34" class="clusterblast-orf" id="knownclusterblast-1_q16_0_all"  />
<polygon points="411,35 416,30 438,30 438,40 416,40 411,35 " style="fill:white; stroke-width:1; stroke:black; " description="&lt;b&gt;ctg13_35&lt;/b&gt;&lt;br&gt;ctg13 35&lt;br&gt;Location: 35279 - 36698" locus_tag="ctg13_35" class="clusterblast-orf" id="knownclusterblast-1_q17_0_all"  />
<polygon points="440,40 453,40 458,35 453,30 440,30 440,40 " style="fill:white; stroke-width:1; stroke:black; " description="&lt;b&gt;ctg13_36&lt;/b&gt;&lt;br&gt;ctg13 36&lt;br&gt;Location: 36790 - 37741" locus_tag="ctg13_36" class="clusterblast-orf" id="knownclusterblast-1_q18_0_all"  />
<polygon points="460,35 465,30 465,30 465,40 465,40 460,35 " style="fill:white; stroke-width:1; stroke:black; " description="&lt;b&gt;ctg13_37&lt;/b&gt;&lt;br&gt;ctg13 37&lt;br&gt;Location: 37822 - 38113" locus_tag="ctg13_37" class="clusterblast-orf" id="knownclusterblast-1_q19_0_all"  />
<polygon points="468,40 501,40 506,35 501,30 468,30 468,40 " style="fill:white; stroke-width:1; stroke:black; " description="&lt;b&gt;ctg13_38&lt;/b&gt;&lt;br&gt;ctg13 38&lt;br&gt;Location: 38248 - 40204" locus_tag="ctg13_38" class="clusterblast-orf" id="knownclusterblast-1_q20_0_all"  />
<polygon points="506,40 507,40 512,35 507,30 506,30 506,40 " style="fill:white; stroke-width:1; stroke:black; " description="&lt;b&gt;ctg13_39&lt;/b&gt;&lt;br&gt;ctg13 39&lt;br&gt;Location: 40213 - 40546" locus_tag="ctg13_39" class="clusterblast-orf" id="knownclusterblast-1_q21_0_all"  />
<polygon points="514,40 539,40 544,35 539,30 514,30 514,40 " style="fill:white; stroke-width:1; stroke:black; " description="&lt;b&gt;ctg13_40&lt;/b&gt;&lt;br&gt;ctg13 40&lt;br&gt;Location: 40623 - 42210" locus_tag="ctg13_40" class="clusterblast-orf" id="knownclusterblast-1_q22_0_all"  />
<polygon points="544,40 549,40 554,35 549,30 544,30 544,40 " style="fill:white; stroke-width:1; stroke:black; " description="&lt;b&gt;ctg13_41&lt;/b&gt;&lt;br&gt;ctg13 41&lt;br&gt;Location: 42226 - 42715" locus_tag="ctg13_41" class="clusterblast-orf" id="knownclusterblast-1_q23_0_all"  />
<polygon points="555,40 584,40 589,35 584,30 555,30 555,40 " style="fill:white; stroke-width:1; stroke:black; " description="&lt;b&gt;ctg13_42&lt;/b&gt;&lt;br&gt;ctg13 42&lt;br&gt;Location: 42793 - 44557" locus_tag="ctg13_42" class="clusterblast-orf" id="knownclusterblast-1_q24_0_all"  />
<polygon points="589,40 636,40 641,35 636,30 589,30 589,40 " style="fill:white; stroke-width:1; stroke:black; " description="&lt;b&gt;ctg13_43&lt;/b&gt;&lt;br&gt;ctg13 43&lt;br&gt;Location: 44553 - 47235" locus_tag="ctg13_43" class="clusterblast-orf" id="knownclusterblast-1_q25_0_all"  />
<polygon points="644,40 658,40 663,35 658,30 644,30 644,40 " style="fill:white; stroke-width:1; stroke:black; " description="&lt;b&gt;ctg13_44&lt;/b&gt;&lt;br&gt;ctg13 44&lt;br&gt;Location: 47402 - 48401" locus_tag="ctg13_44" class="clusterblast-orf" id="knownclusterblast-1_q26_0_all"  />
<polygon points="664,40 680,40 685,35 680,30 664,30 664,40 " style="fill:white; stroke-width:1; stroke:black; " description="&lt;b&gt;ctg13_45&lt;/b&gt;&lt;br&gt;ctg13 45&lt;br&gt;Location: 48465 - 49539" locus_tag="ctg13_45" class="clusterblast-orf" id="knownclusterblast-1_q27_0_all"  />
<polygon points="687,40 702,40 707,35 702,30 687,30 687,40 " style="fill:white; stroke-width:1; stroke:black; " description="&lt;b&gt;ctg13_46&lt;/b&gt;&lt;br&gt;ctg13 46&lt;br&gt;Location: 49623 - 50667" locus_tag="ctg13_46" class="clusterblast-orf" id="knownclusterblast-1_q28_0_all"  />
<polygon points="708,40 715,40 720,35 715,30 708,30 708,40 " style="fill:white; stroke-width:1; stroke:black; " description="&lt;b&gt;ctg13_47&lt;/b&gt;&lt;br&gt;ctg13 47&lt;br&gt;Location: 50711 - 51350" locus_tag="ctg13_47" class="clusterblast-orf" id="knownclusterblast-1_q29_0_all"  />
<polygon points="731,35 736,30 739,30 739,40 736,40 731,35 " style="fill:white; stroke-width:1; stroke:black; " description="&lt;b&gt;ctg13_48&lt;/b&gt;&lt;br&gt;ctg13 48&lt;br&gt;Location: 51937 - 52357" locus_tag="ctg13_48" class="clusterblast-orf" id="knownclusterblast-1_q30_0_all"  />
<polygon points="747,35 752,30 763,30 763,40 752,40 747,35 " style="fill:white; stroke-width:1; stroke:black; " description="&lt;b&gt;ctg13_49&lt;/b&gt;&lt;br&gt;ctg13 49&lt;br&gt;Location: 52751 - 53597" locus_tag="ctg13_49" class="clusterblast-orf" id="knownclusterblast-1_q31_0_all"  />
<polygon points="768,35 773,30 780,30 780,40 773,40 768,35 " style="fill:white; stroke-width:1; stroke:black; " description="&lt;b&gt;ctg13_50&lt;/b&gt;&lt;br&gt;ctg13 50&lt;br&gt;Location: 53851 - 54463" locus_tag="ctg13_50" class="clusterblast-orf" id="knownclusterblast-1_q32_0_all"  />
</g>
</svg>
