<svg xmlns="http://www.w3.org/2000/svg" xmlns:xlink="http://www.w3.org/1999/xlink" version="1.1" x="0" y="0" height="230" width="800" viewBox="0 0 800 230" preserveAspectRatio="none"  >
<g label="Query sequence" class="clusterblast-cluster"  >
<text x="5" y="20" class="clusterblast-acc"  >
Query sequence</text>
<line x1="10" y1="35" x2="778.0" y2="35" style="stroke-width:1; stroke:grey; "  />
<polygon points="0,40 3,40 8,35 3,30 0,30 0,40 " style="fill:white; stroke-width:1; stroke:black; " description="&lt;b&gt;ctg16_80&lt;/b&gt;&lt;br&gt;ctg16 80&lt;br&gt;Location: 89138 - 89588" locus_tag="ctg16_80" class="clusterblast-orf" id="dummy-1_q0_0_all"  />
<polygon points="18,40 35,40 40,35 35,30 18,30 18,40 " style="fill:white; stroke-width:1; stroke:black; " description="&lt;b&gt;ctg16_81&lt;/b&gt;&lt;br&gt;ctg16 81&lt;br&gt;Location: 90139 - 91303" locus_tag="ctg16_81" class="clusterblast-orf" id="dummy-1_q1_0_all"  />
<polygon points="43,40 56,40 61,35 56,30 43,30 43,40 " style="fill:white; stroke-width:1; stroke:black; " description="&lt;b&gt;ctg16_82&lt;/b&gt;&lt;br&gt;ctg16 82&lt;br&gt;Location: 91425 - 92400" locus_tag="ctg16_82" class="clusterblast-orf" id="dummy-1_q2_0_all"  />
<polygon points="61,40 65,35 61,30 61,40 " style="fill:white; stroke-width:1; stroke:black; " description="&lt;b&gt;ctg16_83&lt;/b&gt;&lt;br&gt;ctg16 83&lt;br&gt;Location: 92404 - 92632" locus_tag="ctg16_83" class="clusterblast-orf" id="dummy-1_q3_0_all"  />
<polygon points="65,35 70,30 75,30 75,40 70,40 65,35 " style="fill:white; stroke-width:1; stroke:black; " description="&lt;b&gt;ctg16_84&lt;/b&gt;&lt;br&gt;ctg16 84&lt;br&gt;Location: 92636 - 93167" locus_tag="ctg16_84" class="clusterblast-orf" id="dummy-1_q4_0_all"  />
<polygon points="76,35 79,30 79,40 76,35 " style="fill:white; stroke-width:1; stroke:black; " description="&lt;b&gt;ctg16_85&lt;/b&gt;&lt;br&gt;ctg16 85&lt;br&gt;Location: 93208 - 93346" locus_tag="ctg16_85" class="clusterblast-orf" id="dummy-1_q5_0_all"  />
<polygon points="82,40 86,40 91,35 86,30 82,30 82,40 " style="fill:white; stroke-width:1; stroke:black; " description="&lt;b&gt;ctg16_86&lt;/b&gt;&lt;br&gt;ctg16 86&lt;br&gt;Location: 93511 - 93985" locus_tag="ctg16_86" class="clusterblast-orf" id="dummy-1_q6_0_all"  />
<polygon points="90,40 93,35 90,30 90,40 " style="fill:white; stroke-width:1; stroke:black; " description="&lt;b&gt;ctg16_87&lt;/b&gt;&lt;br&gt;ctg16 87&lt;br&gt;Location: 93981 - 94134" locus_tag="ctg16_87" class="clusterblast-orf" id="dummy-1_q7_0_all"  />
<polygon points="93,35 98,30 108,30 108,40 98,40 93,35 " style="fill:white; stroke-width:1; stroke:black; " description="&lt;b&gt;ctg16_88&lt;/b&gt;&lt;br&gt;ctg16 88&lt;br&gt;Location: 94141 - 94888" locus_tag="ctg16_88" class="clusterblast-orf" id="dummy-1_q8_0_all"  />
<polygon points="110,35 115,30 125,30 125,40 115,40 110,35 " style="fill:white; stroke-width:1; stroke:black; " description="&lt;b&gt;ctg16_89&lt;/b&gt;&lt;br&gt;ctg16 89&lt;br&gt;Location: 95023 - 95809" locus_tag="ctg16_89" class="clusterblast-orf" id="dummy-1_q9_0_all"  />
<polygon points="128,40 150,40 155,35 150,30 128,30 128,40 " style="fill:white; stroke-width:1; stroke:black; " description="&lt;b&gt;ctg16_90&lt;/b&gt;&lt;br&gt;ctg16 90&lt;br&gt;Location: 95996 - 97400" locus_tag="ctg16_90" class="clusterblast-orf" id="dummy-1_q10_0_all"  />
<polygon points="156,40 181,40 186,35 181,30 156,30 156,40 " style="fill:#d81515; stroke-width:1; stroke:black; " description="&lt;b&gt;ctg16_91&lt;/b&gt;&lt;br&gt;ctg16 91&lt;br&gt;Location: 97477 - 99088" locus_tag="ctg16_91" class="clusterblast-orf" id="dummy-1_q11_0_all"  />
<polygon points="186,40 209,40 214,35 209,30 186,30 186,40 " style="fill:#15d815; stroke-width:1; stroke:black; " description="&lt;b&gt;ctg16_92&lt;/b&gt;&lt;br&gt;ctg16 92&lt;br&gt;Location: 99100 - 100570" locus_tag="ctg16_92" class="clusterblast-orf" id="dummy-1_q12_0_all"  />
<polygon points="214,40 218,40 223,35 218,30 214,30 214,40 " style="fill:white; stroke-width:1; stroke:black; " description="&lt;b&gt;ctg16_93&lt;/b&gt;&lt;br&gt;ctg16 93&lt;br&gt;Location: 100569 - 101040" locus_tag="ctg16_93" class="clusterblast-orf" id="dummy-1_q13_0_all"  />
<polygon points="223,40 235,40 240,35 235,30 223,30 223,40 " style="fill:#1515d8; stroke-width:1; stroke:black; " description="&lt;b&gt;ctg16_94&lt;/b&gt;&lt;br&gt;ctg16 94&lt;br&gt;Location: 101054 - 101933" locus_tag="ctg16_94" class="clusterblast-orf" id="dummy-1_q14_0_all"  />
<polygon points="242,40 248,40 253,35 248,30 242,30 242,40 " style="fill:white; stroke-width:1; stroke:black; " description="&lt;b&gt;ctg16_95&lt;/b&gt;&lt;br&gt;ctg16 95&lt;br&gt;Location: 102043 - 102622" locus_tag="ctg16_95" class="clusterblast-orf" id="dummy-1_q15_0_all"  />
<polygon points="254,40 279,40 284,35 279,30 254,30 254,40 " style="fill:white; stroke-width:1; stroke:black; " description="&lt;b&gt;ctg16_96&lt;/b&gt;&lt;br&gt;ctg16 96&lt;br&gt;Location: 102678 - 104307" locus_tag="ctg16_96" class="clusterblast-orf" id="dummy-1_q16_0_all"  />
<polygon points="284,40 298,40 303,35 298,30 284,30 284,40 " style="fill:white; stroke-width:1; stroke:black; " description="&lt;b&gt;ctg16_97&lt;/b&gt;&lt;br&gt;ctg16 97&lt;br&gt;Location: 104303 - 105338" locus_tag="ctg16_97" class="clusterblast-orf" id="dummy-1_q17_0_all"  />
<polygon points="303,35 308,30 332,30 332,40 308,40 303,35 " style="fill:white; stroke-width:1; stroke:black; " description="&lt;b&gt;ctg16_98&lt;/b&gt;&lt;br&gt;ctg16 98&lt;br&gt;Location: 105339 - 106848" locus_tag="ctg16_98" class="clusterblast-orf" id="dummy-1_q18_0_all"  />
<polygon points="332,35 337,30 348,30 348,40 337,40 332,35 " style="fill:white; stroke-width:1; stroke:black; " description="&lt;b&gt;ctg16_99&lt;/b&gt;&lt;br&gt;ctg16 99&lt;br&gt;Location: 106869 - 107715" locus_tag="ctg16_99" class="clusterblast-orf" id="dummy-1_q19_0_all"  />
<polygon points="349,40 410,40 415,35 410,30 349,30 349,40 " style="fill:white; stroke-width:1; stroke:black; " description="&lt;b&gt;ctg16_100&lt;/b&gt;&lt;br&gt;ctg16 100&lt;br&gt;Location: 107788 - 111295" locus_tag="ctg16_100" class="clusterblast-orf" id="dummy-1_q20_0_all"  />
<polygon points="415,35 420,30 427,30 427,40 420,40 415,35 " style="fill:white; stroke-width:1; stroke:black; " description="&lt;b&gt;ctg16_101&lt;/b&gt;&lt;br&gt;ctg16 101&lt;br&gt;Location: 111299 - 111950" locus_tag="ctg16_101" class="clusterblast-orf" id="dummy-1_q21_0_all"  />
<polygon points="429,40 431,40 436,35 431,30 429,30 429,40 " style="fill:white; stroke-width:1; stroke:black; " description="&lt;b&gt;ctg16_102&lt;/b&gt;&lt;br&gt;ctg16 102&lt;br&gt;Location: 112040 - 112406" locus_tag="ctg16_102" class="clusterblast-orf" id="dummy-1_q22_0_all"  />
<polygon points="439,35 444,30 456,30 456,40 444,40 439,35 " style="fill:white; stroke-width:1; stroke:black; " description="&lt;b&gt;ctg16_103&lt;/b&gt;&lt;br&gt;ctg16 103&lt;br&gt;Location: 112578 - 113451" locus_tag="ctg16_103" class="clusterblast-orf" id="dummy-1_q23_0_all"  />
<polygon points="457,40 473,40 478,35 473,30 457,30 457,40 " style="fill:white; stroke-width:1; stroke:black; " description="&lt;b&gt;ctg16_104&lt;/b&gt;&lt;br&gt;ctg16 104&lt;br&gt;Location: 113535 - 114639" locus_tag="ctg16_104" class="clusterblast-orf" id="dummy-1_q24_0_all"  />
<polygon points="480,40 487,40 492,35 487,30 480,30 480,40 " style="fill:white; stroke-width:1; stroke:black; " description="&lt;b&gt;ctg16_105&lt;/b&gt;&lt;br&gt;ctg16 105&lt;br&gt;Location: 114773 - 115418" locus_tag="ctg16_105" class="clusterblast-orf" id="dummy-1_q25_0_all"  />
<polygon points="493,40 541,40 546,35 541,30 493,30 493,40 " style="fill:white; stroke-width:1; stroke:black; " description="&lt;b&gt;ctg16_106&lt;/b&gt;&lt;br&gt;ctg16 106&lt;br&gt;Location: 115430 - 118247" locus_tag="ctg16_106" class="clusterblast-orf" id="dummy-1_q26_0_all"  />
<polygon points="546,40 564,40 569,35 564,30 546,30 546,40 " style="fill:white; stroke-width:1; stroke:black; " description="&lt;b&gt;ctg16_107&lt;/b&gt;&lt;br&gt;ctg16 107&lt;br&gt;Location: 118289 - 119486" locus_tag="ctg16_107" class="clusterblast-orf" id="dummy-1_q27_0_all"  />
<polygon points="569,35 574,30 592,30 592,40 574,40 569,35 " style="fill:white; stroke-width:1; stroke:black; " description="&lt;b&gt;ctg16_108&lt;/b&gt;&lt;br&gt;ctg16 108&lt;br&gt;Location: 119482 - 120706" locus_tag="ctg16_108" class="clusterblast-orf" id="dummy-1_q28_0_all"  />
<polygon points="593,35 598,30 639,30 639,40 598,40 593,35 " style="fill:white; stroke-width:1; stroke:black; " description="&lt;b&gt;ctg16_109&lt;/b&gt;&lt;br&gt;ctg16 109&lt;br&gt;Location: 120781 - 123244" locus_tag="ctg16_109" class="clusterblast-orf" id="dummy-1_q29_0_all"  />
<polygon points="642,40 663,40 668,35 663,30 642,30 642,40 " style="fill:white; stroke-width:1; stroke:black; " description="&lt;b&gt;ctg16_110&lt;/b&gt;&lt;br&gt;ctg16 110&lt;br&gt;Location: 123370 - 124804" locus_tag="ctg16_110" class="clusterblast-orf" id="dummy-1_q30_0_all"  />
<polygon points="669,35 674,30 688,30 688,40 674,40 669,35 " style="fill:white; stroke-width:1; stroke:black; " description="&lt;b&gt;ctg16_111&lt;/b&gt;&lt;br&gt;ctg16 111&lt;br&gt;Location: 124812 - 125838" locus_tag="ctg16_111" class="clusterblast-orf" id="dummy-1_q31_0_all"  />
<polygon points="689,40 700,40 705,35 700,30 689,30 689,40 " style="fill:white; stroke-width:1; stroke:black; " description="&lt;b&gt;ctg16_112&lt;/b&gt;&lt;br&gt;ctg16 112&lt;br&gt;Location: 125908 - 126733" locus_tag="ctg16_112" class="clusterblast-orf" id="dummy-1_q32_0_all"  />
<polygon points="706,40 724,40 729,35 724,30 706,30 706,40 " style="fill:white; stroke-width:1; stroke:black; " description="&lt;b&gt;ctg16_113&lt;/b&gt;&lt;br&gt;ctg16 113&lt;br&gt;Location: 126828 - 128058" locus_tag="ctg16_113" class="clusterblast-orf" id="dummy-1_q33_0_all"  />
<polygon points="731,35 736,30 743,30 743,40 736,40 731,35 " style="fill:white; stroke-width:1; stroke:black; " description="&lt;b&gt;ctg16_114&lt;/b&gt;&lt;br&gt;ctg16 114&lt;br&gt;Location: 128134 - 128779" locus_tag="ctg16_114" class="clusterblast-orf" id="dummy-1_q34_0_all"  />
<polygon points="744,40 747,40 752,35 747,30 744,30 744,40 " style="fill:white; stroke-width:1; stroke:black; " description="&lt;b&gt;ctg16_115&lt;/b&gt;&lt;br&gt;ctg16 115&lt;br&gt;Location: 128821 - 129283" locus_tag="ctg16_115" class="clusterblast-orf" id="dummy-1_q35_0_all"  />
<polygon points="753,35 758,30 763,30 763,40 758,40 753,35 " style="fill:white; stroke-width:1; stroke:black; " description="&lt;b&gt;ctg16_116&lt;/b&gt;&lt;br&gt;ctg16 116&lt;br&gt;Location: 129295 - 129850" locus_tag="ctg16_116" class="clusterblast-orf" id="dummy-1_q36_0_all"  />
<polygon points="764,35 769,30 780,30 780,40 769,40 764,35 " style="fill:white; stroke-width:1; stroke:black; " description="&lt;b&gt;ctg16_117&lt;/b&gt;&lt;br&gt;ctg16 117&lt;br&gt;Location: 129908 - 130736" locus_tag="ctg16_117" class="clusterblast-orf" id="dummy-1_q37_0_all"  />
</g>
<g label="BGC0002284" description="BGC0002284_c1: corynecin III/corynecin I/corynecin II (13% of genes show similarity), Other" class="clusterblast-cluster"  >
<text x="5" y="70" class="clusterblast-acc"  >
<a xlink:href="https://mibig.secondarymetabolites.org/go/BGC0002284/1" target="_blank">BGC0002284</a>: corynecin III/corynecin I/corynecin II                                           (13% of genes show similarity), Other</text>
<line x1="10" y1="85" x2="778.0" y2="85" style="stroke-width:1; stroke:grey; "  />
</g>
<g id="a1_000"  >
<polygon points="222,85 227,80 249,80 249,90 227,90 222,85 " style="fill:white; stroke-width:1; stroke:black; " description="&lt;b&gt;CPI83_20065&lt;/b&gt;&lt;br&gt;hypothetical protein&lt;br&gt;Location: 17900 - 16452" locus_tag="CPI83_20065" class="clusterblast-orf" id="dummy-1_h1_2_0"  />
</g>
<g id="a1_001"  >
<polygon points="253,90 290,90 295,85 290,80 253,80 253,90 " style="fill:white; stroke-width:1; stroke:black; " description="&lt;b&gt;CPI83_20060&lt;/b&gt;&lt;br&gt;MMPL family transporter&lt;br&gt;Location: 16227 - 13981" locus_tag="CPI83_20060" class="clusterblast-orf" id="dummy-1_h1_2_1"  />
</g>
<g id="a1_002"  >
<polygon points="299,90 321,90 326,85 321,80 299,80 299,90 " style="fill:white; stroke-width:1; stroke:black; " description="&lt;b&gt;CPI83_20055&lt;/b&gt;&lt;br&gt;hypothetical protein&lt;br&gt;Location: 13797 - 12358" locus_tag="CPI83_20055" class="clusterblast-orf" id="dummy-1_h1_2_2"  />
</g>
<g id="a1_003"  >
<polygon points="326,90 346,90 351,85 346,80 326,80 326,90 " style="fill:white; stroke-width:1; stroke:black; " description="&lt;b&gt;CPI83_20050&lt;/b&gt;&lt;br&gt;hypothetical protein&lt;br&gt;Location: 12361 - 10997" locus_tag="CPI83_20050" class="clusterblast-orf" id="dummy-1_h1_2_3"  />
</g>
<g id="a1_004"  >
<polygon points="351,85 356,80 377,80 377,90 356,90 351,85 " style="fill:white; stroke-width:1; stroke:black; " description="&lt;b&gt;CPI83_20045&lt;/b&gt;&lt;br&gt;C4-dicarboxylate transporter DctA&lt;br&gt;Location: 11019 - 9613" locus_tag="CPI83_20045" class="clusterblast-orf" id="dummy-1_h1_2_4"  />
</g>
<g id="a1_005"  >
<polygon points="381,90 385,85 381,80 381,90 " style="fill:white; stroke-width:1; stroke:black; " description="&lt;b&gt;CPI83_20040&lt;/b&gt;&lt;br&gt;GlsB/YeaQ/YmgE family stress response membrane protein&lt;br&gt;Location: 9424 - 9164" locus_tag="CPI83_20040" class="clusterblast-orf" id="dummy-1_h1_2_5"  />
</g>
<g id="a1_006"  >
<polygon points="388,85 393,80 402,80 402,90 393,90 388,85 " style="fill:white; stroke-width:1; stroke:black; " description="&lt;b&gt;CPI83_20035&lt;/b&gt;&lt;br&gt;GTP pyrophosphokinase&lt;br&gt;Location: 9006 - 8260" locus_tag="CPI83_20035" class="clusterblast-orf" id="dummy-1_h1_2_6"  />
</g>
<g id="a1_007"  >
<polygon points="403,85 408,80 415,80 415,90 408,90 403,85 " style="fill:white; stroke-width:1; stroke:black; " description="&lt;b&gt;CPI83_20030&lt;/b&gt;&lt;br&gt;TetR/AcrR family transcriptional regulator&lt;br&gt;Location: 8211 - 7612" locus_tag="CPI83_20030" class="clusterblast-orf" id="dummy-1_h1_2_7"  />
</g>
<g id="a1_008"  >
<polygon points="416,90 441,90 446,85 441,80 416,80 416,90 " style="fill:#d81515; stroke-width:1; stroke:black; " description="&lt;b&gt;CPI83_20025&lt;/b&gt;&lt;br&gt;methylcrotonoyl-CoA carboxylase&lt;br&gt;Location: 7513 - 5924&lt;br&gt;&lt;br&gt;&lt;b&gt;BlastP hit with ctg16_91&lt;/b&gt;&lt;br&gt;Percentage identity: 67&lt;br&gt;Percentage coverage: 96&lt;br&gt;BLAST bit score: 714&lt;br&gt;E-value: 1.08e-257" locus_tag="CPI83_20025" class="clusterblast-orf" id="dummy-1_h1_2_8"  />
</g>
<g id="a1_009"  >
<polygon points="446,90 480,90 485,85 480,80 446,80 446,90 " style="fill:#15d815; stroke-width:1; stroke:black; " description="&lt;b&gt;CPI83_20020&lt;/b&gt;&lt;br&gt;acetyl/propionyl/methylcrotonyl-CoA carboxylase subunit alpha&lt;br&gt;Location: 5918 - 3879&lt;br&gt;&lt;br&gt;&lt;b&gt;BlastP hit with ctg16_92&lt;/b&gt;&lt;br&gt;Percentage identity: 48&lt;br&gt;Percentage coverage: 101&lt;br&gt;BLAST bit score: 424&lt;br&gt;E-value: 2.56e-142" locus_tag="CPI83_20020" class="clusterblast-orf" id="dummy-1_h1_2_9"  />
</g>
<g id="a1_0010"  >
<polygon points="485,90 501,90 506,85 501,80 485,80 485,90 " style="fill:white; stroke-width:1; stroke:black; " description="&lt;b&gt;CPI83_20015&lt;/b&gt;&lt;br&gt;acyl-CoA dehydrogenase&lt;br&gt;Location: 3879 - 2716" locus_tag="CPI83_20015" class="clusterblast-orf" id="dummy-1_h1_2_10"  />
</g>
<g id="a1_0011"  >
<polygon points="506,90 510,90 515,85 510,80 506,80 506,90 " style="fill:white; stroke-width:1; stroke:black; " description="&lt;b&gt;CPI83_20010&lt;/b&gt;&lt;br&gt;dehydratase&lt;br&gt;Location: 2719 - 2231" locus_tag="CPI83_20010" class="clusterblast-orf" id="dummy-1_h1_2_11"  />
</g>
<g id="a1_0012"  >
<polygon points="515,90 526,90 531,85 526,80 515,80 515,90 " style="fill:white; stroke-width:1; stroke:black; " description="&lt;b&gt;CPI83_20005&lt;/b&gt;&lt;br&gt;CoA ester lyase&lt;br&gt;Location: 2234 - 1407" locus_tag="CPI83_20005" class="clusterblast-orf" id="dummy-1_h1_2_12"  />
</g>
<g id="a1_0013"  >
<polygon points="531,90 540,90 545,85 540,80 531,80 531,90 " style="fill:white; stroke-width:1; stroke:black; " description="&lt;b&gt;CPI83_20000&lt;/b&gt;&lt;br&gt;CoA transferase subunit A&lt;br&gt;Location: 1403 - 648" locus_tag="CPI83_20000" class="clusterblast-orf" id="dummy-1_h1_2_13"  />
</g>
<g id="a1_0014"  >
<polygon points="546,90 552,90 557,85 552,80 546,80 546,90 " style="fill:white; stroke-width:1; stroke:black; " description="&lt;b&gt;CPI83_19995&lt;/b&gt;&lt;br&gt;succinyl-CoA--3-ketoacid-CoA transferase&lt;br&gt;Location: 627 - 1" locus_tag="CPI83_19995" class="clusterblast-orf" id="dummy-1_h1_2_14"  />
</g>
</svg>
