<svg xmlns="http://www.w3.org/2000/svg" xmlns:xlink="http://www.w3.org/1999/xlink" version="1.1" x="0" y="0" height="230" width="800" viewBox="0 0 800 230" preserveAspectRatio="none"  >
<g label="Query sequence" class="clusterblast-cluster"  >
<text x="5" y="20" class="clusterblast-acc"  >
Query sequence</text>
<line x1="10" y1="35" x2="778.0" y2="35" style="stroke-width:1; stroke:grey; "  />
<polygon points="214,40 238,40 243,35 238,30 214,30 214,40 " style="fill:white; stroke-width:1; stroke:black; " description="&lt;b&gt;ctg21_117&lt;/b&gt;&lt;br&gt;ctg21 117&lt;br&gt;Location: 134072 - 135560" locus_tag="ctg21_117" class="clusterblast-orf" id="dummy-1_q0_0_all"  />
<polygon points="244,35 249,30 252,30 252,40 249,40 244,35 " style="fill:white; stroke-width:1; stroke:black; " description="&lt;b&gt;ctg21_118&lt;/b&gt;&lt;br&gt;ctg21 118&lt;br&gt;Location: 135569 - 136016" locus_tag="ctg21_118" class="clusterblast-orf" id="dummy-1_q1_0_all"  />
<polygon points="254,40 264,40 269,35 264,30 254,30 254,40 " style="fill:white; stroke-width:1; stroke:black; " description="&lt;b&gt;ctg21_119&lt;/b&gt;&lt;br&gt;ctg21 119&lt;br&gt;Location: 136089 - 136860" locus_tag="ctg21_119" class="clusterblast-orf" id="dummy-1_q2_0_all"  />
<polygon points="269,35 273,30 273,40 269,35 " style="fill:white; stroke-width:1; stroke:black; " description="&lt;b&gt;ctg21_120&lt;/b&gt;&lt;br&gt;ctg21 120&lt;br&gt;Location: 136876 - 137074" locus_tag="ctg21_120" class="clusterblast-orf" id="dummy-1_q3_0_all"  />
<polygon points="273,35 278,30 298,30 298,40 278,40 273,35 " style="fill:white; stroke-width:1; stroke:black; " description="&lt;b&gt;ctg21_121&lt;/b&gt;&lt;br&gt;ctg21 121&lt;br&gt;Location: 137070 - 138342" locus_tag="ctg21_121" class="clusterblast-orf" id="dummy-1_q4_0_all"  />
<polygon points="300,40 321,40 326,35 321,30 300,30 300,40 " style="fill:white; stroke-width:1; stroke:black; " description="&lt;b&gt;ctg21_122&lt;/b&gt;&lt;br&gt;ctg21 122&lt;br&gt;Location: 138447 - 139803" locus_tag="ctg21_122" class="clusterblast-orf" id="dummy-1_q5_0_all"  />
<polygon points="328,40 331,40 336,35 331,30 328,30 328,40 " style="fill:white; stroke-width:1; stroke:black; " description="&lt;b&gt;ctg21_123&lt;/b&gt;&lt;br&gt;ctg21 123&lt;br&gt;Location: 139860 - 140298" locus_tag="ctg21_123" class="clusterblast-orf" id="dummy-1_q6_0_all"  />
<polygon points="336,40 343,40 348,35 343,30 336,30 336,40 " style="fill:white; stroke-width:1; stroke:black; " description="&lt;b&gt;ctg21_124&lt;/b&gt;&lt;br&gt;ctg21 124&lt;br&gt;Location: 140297 - 140915" locus_tag="ctg21_124" class="clusterblast-orf" id="dummy-1_q7_0_all"  />
<polygon points="348,40 376,40 381,35 376,30 348,30 348,40 " style="fill:white; stroke-width:1; stroke:black; " description="&lt;b&gt;ctg21_125&lt;/b&gt;&lt;br&gt;ctg21 125&lt;br&gt;Location: 140911 - 142615" locus_tag="ctg21_125" class="clusterblast-orf" id="dummy-1_q8_0_all"  />
<polygon points="382,35 387,30 403,30 403,40 387,40 382,35 " style="fill:white; stroke-width:1; stroke:black; " description="&lt;b&gt;ctg21_126&lt;/b&gt;&lt;br&gt;ctg21 126&lt;br&gt;Location: 142628 - 143708" locus_tag="ctg21_126" class="clusterblast-orf" id="dummy-1_q9_0_all"  />
<polygon points="403,35 408,30 423,30 423,40 408,40 403,35 " style="fill:white; stroke-width:1; stroke:black; " description="&lt;b&gt;ctg21_127&lt;/b&gt;&lt;br&gt;ctg21 127&lt;br&gt;Location: 143700 - 144723" locus_tag="ctg21_127" class="clusterblast-orf" id="dummy-1_q10_0_all"  />
<polygon points="424,40 435,40 440,35 435,30 424,30 424,40 " style="fill:white; stroke-width:1; stroke:black; " description="&lt;b&gt;ctg21_128&lt;/b&gt;&lt;br&gt;ctg21 128&lt;br&gt;Location: 144768 - 145629" locus_tag="ctg21_128" class="clusterblast-orf" id="dummy-1_q11_0_all"  />
<polygon points="446,40 453,40 458,35 453,30 446,30 446,40 " style="fill:white; stroke-width:1; stroke:black; " description="&lt;b&gt;ctg21_129&lt;/b&gt;&lt;br&gt;ctg21 129&lt;br&gt;Location: 145903 - 146512" locus_tag="ctg21_129" class="clusterblast-orf" id="dummy-1_q12_0_all"  />
<polygon points="458,40 462,40 467,35 462,30 458,30 458,40 " style="fill:white; stroke-width:1; stroke:black; " description="&lt;b&gt;ctg21_130&lt;/b&gt;&lt;br&gt;ctg21 130&lt;br&gt;Location: 146518 - 147004" locus_tag="ctg21_130" class="clusterblast-orf" id="dummy-1_q13_0_all"  />
<polygon points="467,35 472,30 489,30 489,40 472,40 467,35 " style="fill:white; stroke-width:1; stroke:black; " description="&lt;b&gt;ctg21_131&lt;/b&gt;&lt;br&gt;ctg21 131&lt;br&gt;Location: 147013 - 148120" locus_tag="ctg21_131" class="clusterblast-orf" id="dummy-1_q14_0_all"  />
<polygon points="490,35 495,30 509,30 509,40 495,40 490,35 " style="fill:white; stroke-width:1; stroke:black; " description="&lt;b&gt;ctg21_132&lt;/b&gt;&lt;br&gt;ctg21 132&lt;br&gt;Location: 148165 - 149122" locus_tag="ctg21_132" class="clusterblast-orf" id="dummy-1_q15_0_all"  />
<polygon points="509,35 514,30 531,30 531,40 514,40 509,35 " style="fill:#d81515; stroke-width:1; stroke:black; " description="&lt;b&gt;ctg21_133&lt;/b&gt;&lt;br&gt;ctg21 133&lt;br&gt;Location: 149118 - 150252" locus_tag="ctg21_133" class="clusterblast-orf" id="dummy-1_q16_0_all"  />
<polygon points="531,35 536,30 544,30 544,40 536,40 531,35 " style="fill:#15d8d8; stroke-width:1; stroke:black; " description="&lt;b&gt;ctg21_134&lt;/b&gt;&lt;br&gt;ctg21 134&lt;br&gt;Location: 150248 - 150920" locus_tag="ctg21_134" class="clusterblast-orf" id="dummy-1_q17_0_all"  />
<polygon points="544,35 549,30 565,30 565,40 549,40 544,35 " style="fill:white; stroke-width:1; stroke:black; " description="&lt;b&gt;ctg21_135&lt;/b&gt;&lt;br&gt;ctg21 135&lt;br&gt;Location: 150931 - 151999" locus_tag="ctg21_135" class="clusterblast-orf" id="dummy-1_q18_0_all"  />
</g>
<g label="BGC0001431" description="BGC0001431_c1: myxochromide S (16% of genes show similarity), NRP:Cyclic depsipeptide+Polyketide:Iterative type I polyketide" class="clusterblast-cluster"  >
<text x="5" y="70" class="clusterblast-acc"  >
<a xlink:href="https://mibig.secondarymetabolites.org/go/BGC0001431/1" target="_blank">BGC0001431</a>: myxochromide S                                                                   (16% of genes show similarity), NRP:Cyclic depsipeptide+Polyketide:Iterative type I polyketide</text>
<line x1="10" y1="85" x2="778.0" y2="85" style="stroke-width:1; stroke:grey; "  />
</g>
<g id="a1_000"  >
<polygon points="0,85 5,80 42,80 42,90 5,90 0,85 " style="fill:white; stroke-width:1; stroke:black; " description="&lt;b&gt;APZ78840.1&lt;/b&gt;&lt;br&gt;cation/H(+) antiporter&lt;br&gt;Location: 1 - 2151" locus_tag="APZ78840.1" class="clusterblast-orf" id="dummy-1_h1_1_0"  />
</g>
<g id="a1_001"  >
<polygon points="44,85 49,80 67,80 67,90 49,90 44,85 " style="fill:#d81515; stroke-width:1; stroke:black; " description="&lt;b&gt;APZ78841.1&lt;/b&gt;&lt;br&gt;hydrolase&lt;br&gt;Location: 2272 - 3477&lt;br&gt;&lt;br&gt;&lt;b&gt;BlastP hit with ctg21_133&lt;/b&gt;&lt;br&gt;Percentage identity: 47&lt;br&gt;Percentage coverage: 95&lt;br&gt;BLAST bit score: 333&lt;br&gt;E-value: 4.93e-112" locus_tag="APZ78841.1" class="clusterblast-orf" id="dummy-1_h1_1_1"  />
</g>
<g id="a1_002"  >
<polygon points="68,85 73,80 117,80 117,90 73,90 68,85 " style="fill:white; stroke-width:1; stroke:black; " description="&lt;b&gt;APZ78842.1&lt;/b&gt;&lt;br&gt;ABC transporter permease&lt;br&gt;Location: 3481 - 6021" locus_tag="APZ78842.1" class="clusterblast-orf" id="dummy-1_h1_1_2"  />
</g>
<g id="a1_003"  >
<polygon points="117,85 122,80 131,80 131,90 122,90 117,85 " style="fill:#15d8d8; stroke-width:1; stroke:black; " description="&lt;b&gt;APZ78843.1&lt;/b&gt;&lt;br&gt;ABC transporter ATP-binding protein&lt;br&gt;Location: 6018 - 6719&lt;br&gt;&lt;br&gt;&lt;b&gt;BlastP hit with ctg21_134&lt;/b&gt;&lt;br&gt;Percentage identity: 54&lt;br&gt;Percentage coverage: 98&lt;br&gt;BLAST bit score: 218&lt;br&gt;E-value: 1.07e-71" locus_tag="APZ78843.1" class="clusterblast-orf" id="dummy-1_h1_1_3"  />
</g>
<g id="a1_004"  >
<polygon points="138,90 260,90 265,85 260,80 138,80 138,90 " style="fill:white; stroke-width:1; stroke:black; " description="&lt;b&gt;APZ78844.1&lt;/b&gt;&lt;br&gt;polyketide synthase&lt;br&gt;Location: 7084 - 13584" locus_tag="APZ78844.1" class="clusterblast-orf" id="dummy-1_h1_1_4"  />
</g>
<g id="a1_005"  >
<polygon points="265,90 439,90 444,85 439,80 265,80 265,90 " style="fill:white; stroke-width:1; stroke:black; " description="&lt;b&gt;APZ78845.1&lt;/b&gt;&lt;br&gt;nonribosomal peptide synthetase&lt;br&gt;Location: 13581 - 22754" locus_tag="APZ78845.1" class="clusterblast-orf" id="dummy-1_h1_1_5"  />
</g>
<g id="a1_006"  >
<polygon points="445,90 702,90 707,85 702,80 445,80 445,90 " style="fill:white; stroke-width:1; stroke:black; " description="&lt;b&gt;APZ78846.1&lt;/b&gt;&lt;br&gt;nonribosomal peptide synthetase&lt;br&gt;Location: 22789 - 36195" locus_tag="APZ78846.1" class="clusterblast-orf" id="dummy-1_h1_1_6"  />
</g>
<g id="a1_007"  >
<polygon points="707,90 714,90 719,85 714,80 707,80 707,90 " style="fill:white; stroke-width:1; stroke:black; " description="&lt;b&gt;APZ78847.1&lt;/b&gt;&lt;br&gt;membrane protein&lt;br&gt;Location: 36199 - 36807" locus_tag="APZ78847.1" class="clusterblast-orf" id="dummy-1_h1_1_7"  />
</g>
<g id="a1_008"  >
<polygon points="716,85 721,80 732,80 732,90 721,90 716,85 " style="fill:white; stroke-width:1; stroke:black; " description="&lt;b&gt;APZ78848.1&lt;/b&gt;&lt;br&gt;alpha/beta hydrolase&lt;br&gt;Location: 36661 - 37479" locus_tag="APZ78848.1" class="clusterblast-orf" id="dummy-1_h1_1_8"  />
</g>
<g id="a1_009"  >
<polygon points="736,90 746,90 751,85 746,80 736,80 736,90 " style="fill:white; stroke-width:1; stroke:black; " description="&lt;b&gt;APZ78849.1&lt;/b&gt;&lt;br&gt;uncharacterized protein&lt;br&gt;Location: 37649 - 38407" locus_tag="APZ78849.1" class="clusterblast-orf" id="dummy-1_h1_1_9"  />
</g>
<g id="a1_0010"  >
<polygon points="751,90 764,90 769,85 764,80 751,80 751,90 " style="fill:white; stroke-width:1; stroke:black; " description="&lt;b&gt;APZ78850.1&lt;/b&gt;&lt;br&gt;coproporphyrinogen III oxidase&lt;br&gt;Location: 38416 - 39339" locus_tag="APZ78850.1" class="clusterblast-orf" id="dummy-1_h1_1_10"  />
</g>
<g id="a1_0011"  >
<polygon points="769,90 775,90 780,85 775,80 769,80 769,90 " style="fill:white; stroke-width:1; stroke:black; " description="&lt;b&gt;APZ78851.1&lt;/b&gt;&lt;br&gt;uncharacterized protein&lt;br&gt;Location: 39343 - 39885" locus_tag="APZ78851.1" class="clusterblast-orf" id="dummy-1_h1_1_11"  />
</g>
</svg>
