<svg xmlns="http://www.w3.org/2000/svg" xmlns:xlink="http://www.w3.org/1999/xlink" version="1.1" x="0" y="0" height="150" width="800" viewBox="0 0 800 150" preserveAspectRatio="none"  >
<g label="Query sequence" class="clusterblast-cluster"  >
<text x="5" y="20" class="clusterblast-acc"  >
Query sequence</text>
<line x1="10" y1="35" x2="778.0" y2="35" style="stroke-width:1; stroke:grey; "  />
<polygon points="215,40 239,40 244,35 239,30 215,30 215,40 " style="fill:white; stroke-width:1; stroke:black; " description="&lt;b&gt;ctg21_117&lt;/b&gt;&lt;br&gt;ctg21 117&lt;br&gt;Location: 134072 - 135560" locus_tag="ctg21_117" class="clusterblast-orf" id="knownclusterblast-1_q0_0_all"  />
<polygon points="244,35 249,30 253,30 253,40 249,40 244,35 " style="fill:white; stroke-width:1; stroke:black; " description="&lt;b&gt;ctg21_118&lt;/b&gt;&lt;br&gt;ctg21 118&lt;br&gt;Location: 135569 - 136016" locus_tag="ctg21_118" class="clusterblast-orf" id="knownclusterblast-1_q1_0_all"  />
<polygon points="254,40 264,40 269,35 264,30 254,30 254,40 " style="fill:white; stroke-width:1; stroke:black; " description="&lt;b&gt;ctg21_119&lt;/b&gt;&lt;br&gt;ctg21 119&lt;br&gt;Location: 136089 - 136860" locus_tag="ctg21_119" class="clusterblast-orf" id="knownclusterblast-1_q2_0_all"  />
<polygon points="270,35 273,30 273,40 270,35 " style="fill:white; stroke-width:1; stroke:black; " description="&lt;b&gt;ctg21_120&lt;/b&gt;&lt;br&gt;ctg21 120&lt;br&gt;Location: 136876 - 137074" locus_tag="ctg21_120" class="clusterblast-orf" id="knownclusterblast-1_q3_0_all"  />
<polygon points="273,35 278,30 298,30 298,40 278,40 273,35 " style="fill:white; stroke-width:1; stroke:black; " description="&lt;b&gt;ctg21_121&lt;/b&gt;&lt;br&gt;ctg21 121&lt;br&gt;Location: 137070 - 138342" locus_tag="ctg21_121" class="clusterblast-orf" id="knownclusterblast-1_q4_0_all"  />
<polygon points="300,40 322,40 327,35 322,30 300,30 300,40 " style="fill:white; stroke-width:1; stroke:black; " description="&lt;b&gt;ctg21_122&lt;/b&gt;&lt;br&gt;ctg21 122&lt;br&gt;Location: 138447 - 139803" locus_tag="ctg21_122" class="clusterblast-orf" id="knownclusterblast-1_q5_0_all"  />
<polygon points="328,40 331,40 336,35 331,30 328,30 328,40 " style="fill:white; stroke-width:1; stroke:black; " description="&lt;b&gt;ctg21_123&lt;/b&gt;&lt;br&gt;ctg21 123&lt;br&gt;Location: 139860 - 140298" locus_tag="ctg21_123" class="clusterblast-orf" id="knownclusterblast-1_q6_0_all"  />
<polygon points="336,40 343,40 348,35 343,30 336,30 336,40 " style="fill:white; stroke-width:1; stroke:black; " description="&lt;b&gt;ctg21_124&lt;/b&gt;&lt;br&gt;ctg21 124&lt;br&gt;Location: 140297 - 140915" locus_tag="ctg21_124" class="clusterblast-orf" id="knownclusterblast-1_q7_0_all"  />
<polygon points="348,40 376,40 381,35 376,30 348,30 348,40 " style="fill:white; stroke-width:1; stroke:black; " description="&lt;b&gt;ctg21_125&lt;/b&gt;&lt;br&gt;ctg21 125&lt;br&gt;Location: 140911 - 142615" locus_tag="ctg21_125" class="clusterblast-orf" id="knownclusterblast-1_q8_0_all"  />
<polygon points="382,35 387,30 403,30 403,40 387,40 382,35 " style="fill:white; stroke-width:1; stroke:black; " description="&lt;b&gt;ctg21_126&lt;/b&gt;&lt;br&gt;ctg21 126&lt;br&gt;Location: 142628 - 143708" locus_tag="ctg21_126" class="clusterblast-orf" id="knownclusterblast-1_q9_0_all"  />
<polygon points="403,35 408,30 423,30 423,40 408,40 403,35 " style="fill:white; stroke-width:1; stroke:black; " description="&lt;b&gt;ctg21_127&lt;/b&gt;&lt;br&gt;ctg21 127&lt;br&gt;Location: 143700 - 144723" locus_tag="ctg21_127" class="clusterblast-orf" id="knownclusterblast-1_q10_0_all"  />
<polygon points="423,40 435,40 440,35 435,30 423,30 423,40 " style="fill:white; stroke-width:1; stroke:black; " description="&lt;b&gt;ctg21_128&lt;/b&gt;&lt;br&gt;ctg21 128&lt;br&gt;Location: 144768 - 145629" locus_tag="ctg21_128" class="clusterblast-orf" id="knownclusterblast-1_q11_0_all"  />
<polygon points="446,40 452,40 457,35 452,30 446,30 446,40 " style="fill:white; stroke-width:1; stroke:black; " description="&lt;b&gt;ctg21_129&lt;/b&gt;&lt;br&gt;ctg21 129&lt;br&gt;Location: 145903 - 146512" locus_tag="ctg21_129" class="clusterblast-orf" id="knownclusterblast-1_q12_0_all"  />
<polygon points="458,40 462,40 467,35 462,30 458,30 458,40 " style="fill:white; stroke-width:1; stroke:black; " description="&lt;b&gt;ctg21_130&lt;/b&gt;&lt;br&gt;ctg21 130&lt;br&gt;Location: 146518 - 147004" locus_tag="ctg21_130" class="clusterblast-orf" id="knownclusterblast-1_q13_0_all"  />
<polygon points="467,35 472,30 489,30 489,40 472,40 467,35 " style="fill:white; stroke-width:1; stroke:black; " description="&lt;b&gt;ctg21_131&lt;/b&gt;&lt;br&gt;ctg21 131&lt;br&gt;Location: 147013 - 148120" locus_tag="ctg21_131" class="clusterblast-orf" id="knownclusterblast-1_q14_0_all"  />
<polygon points="490,35 495,30 508,30 508,40 495,40 490,35 " style="fill:white; stroke-width:1; stroke:black; " description="&lt;b&gt;ctg21_132&lt;/b&gt;&lt;br&gt;ctg21 132&lt;br&gt;Location: 148165 - 149122" locus_tag="ctg21_132" class="clusterblast-orf" id="knownclusterblast-1_q15_0_all"  />
<polygon points="508,35 513,30 530,30 530,40 513,40 508,35 " style="fill:#d81515; stroke-width:1; stroke:black; " description="&lt;b&gt;ctg21_133&lt;/b&gt;&lt;br&gt;ctg21 133&lt;br&gt;Location: 149118 - 150252" locus_tag="ctg21_133" class="clusterblast-orf" id="knownclusterblast-1_q16_0_all"  />
<polygon points="530,35 535,30 543,30 543,40 535,40 530,35 " style="fill:#15d8d8; stroke-width:1; stroke:black; " description="&lt;b&gt;ctg21_134&lt;/b&gt;&lt;br&gt;ctg21 134&lt;br&gt;Location: 150248 - 150920" locus_tag="ctg21_134" class="clusterblast-orf" id="knownclusterblast-1_q17_0_all"  />
<polygon points="544,35 549,30 565,30 565,40 549,40 544,35 " style="fill:white; stroke-width:1; stroke:black; " description="&lt;b&gt;ctg21_135&lt;/b&gt;&lt;br&gt;ctg21 135&lt;br&gt;Location: 150931 - 151999" locus_tag="ctg21_135" class="clusterblast-orf" id="knownclusterblast-1_q18_0_all"  />
</g>
<g label="BGC0001431" description="BGC0001431_c1: myxochromide S (16% of genes show similarity), NRP:Cyclic depsipeptide+Polyketide:Iterative type I polyketide" class="clusterblast-cluster"  >
<text x="5" y="70" class="clusterblast-acc"  >
<a xlink:href="https://mibig.secondarymetabolites.org/go/BGC0001431/1" target="_blank">BGC0001431</a>: myxochromide S                                                                   (16% of genes show similarity), NRP:Cyclic depsipeptide+Polyketide:Iterative type I polyketide</text>
<line x1="10" y1="85" x2="778.0" y2="85" style="stroke-width:1; stroke:grey; "  />
</g>
<g id="a1_000"  >
<polygon points="1,85 6,80 42,80 42,90 6,90 1,85 " style="fill:white; stroke-width:1; stroke:black; " description="&lt;b&gt;APZ78840.1&lt;/b&gt;&lt;br&gt;cation/H(+) antiporter&lt;br&gt;Location: 1 - 2151" locus_tag="APZ78840.1" class="clusterblast-orf" id="knownclusterblast-1_all_1_1_0"  />
</g>
<g id="a1_001"  >
<polygon points="45,85 50,80 68,80 68,90 50,90 45,85 " style="fill:#d81515; stroke-width:1; stroke:black; " description="&lt;b&gt;APZ78841.1&lt;/b&gt;&lt;br&gt;hydrolase&lt;br&gt;Location: 2272 - 3477&lt;br&gt;&lt;br&gt;&lt;b&gt;BlastP hit with ctg21_133&lt;/b&gt;&lt;br&gt;Percentage identity: 47&lt;br&gt;Percentage coverage: 95&lt;br&gt;BLAST bit score: 333&lt;br&gt;E-value: 4.93e-112" locus_tag="APZ78841.1" class="clusterblast-orf" id="knownclusterblast-1_all_1_1_1"  />
</g>
<g id="a1_002"  >
<polygon points="68,85 73,80 118,80 118,90 73,90 68,85 " style="fill:white; stroke-width:1; stroke:black; " description="&lt;b&gt;APZ78842.1&lt;/b&gt;&lt;br&gt;ABC transporter permease&lt;br&gt;Location: 3481 - 6021" locus_tag="APZ78842.1" class="clusterblast-orf" id="knownclusterblast-1_all_1_1_2"  />
</g>
<g id="a1_003"  >
<polygon points="118,85 123,80 132,80 132,90 123,90 118,85 " style="fill:#15d8d8; stroke-width:1; stroke:black; " description="&lt;b&gt;APZ78843.1&lt;/b&gt;&lt;br&gt;ABC transporter ATP-binding protein&lt;br&gt;Location: 6018 - 6719&lt;br&gt;&lt;br&gt;&lt;b&gt;BlastP hit with ctg21_134&lt;/b&gt;&lt;br&gt;Percentage identity: 54&lt;br&gt;Percentage coverage: 98&lt;br&gt;BLAST bit score: 218&lt;br&gt;E-value: 1.07e-71" locus_tag="APZ78843.1" class="clusterblast-orf" id="knownclusterblast-1_all_1_1_3"  />
</g>
<g id="a1_004"  >
<polygon points="139,90 260,90 265,85 260,80 139,80 139,90 " style="fill:white; stroke-width:1; stroke:black; " description="&lt;b&gt;APZ78844.1&lt;/b&gt;&lt;br&gt;polyketide synthase&lt;br&gt;Location: 7084 - 13584" locus_tag="APZ78844.1" class="clusterblast-orf" id="knownclusterblast-1_all_1_1_4"  />
</g>
<g id="a1_005"  >
<polygon points="265,90 439,90 444,85 439,80 265,80 265,90 " style="fill:white; stroke-width:1; stroke:black; " description="&lt;b&gt;APZ78845.1&lt;/b&gt;&lt;br&gt;nonribosomal peptide synthetase&lt;br&gt;Location: 13581 - 22754" locus_tag="APZ78845.1" class="clusterblast-orf" id="knownclusterblast-1_all_1_1_5"  />
</g>
<g id="a1_006"  >
<polygon points="445,90 702,90 707,85 702,80 445,80 445,90 " style="fill:white; stroke-width:1; stroke:black; " description="&lt;b&gt;APZ78846.1&lt;/b&gt;&lt;br&gt;nonribosomal peptide synthetase&lt;br&gt;Location: 22789 - 36195" locus_tag="APZ78846.1" class="clusterblast-orf" id="knownclusterblast-1_all_1_1_6"  />
</g>
<g id="a1_007"  >
<polygon points="707,90 713,90 718,85 713,80 707,80 707,90 " style="fill:white; stroke-width:1; stroke:black; " description="&lt;b&gt;APZ78847.1&lt;/b&gt;&lt;br&gt;membrane protein&lt;br&gt;Location: 36199 - 36807" locus_tag="APZ78847.1" class="clusterblast-orf" id="knownclusterblast-1_all_1_1_7"  />
</g>
<g id="a1_008"  >
<polygon points="716,85 721,80 732,80 732,90 721,90 716,85 " style="fill:white; stroke-width:1; stroke:black; " description="&lt;b&gt;APZ78848.1&lt;/b&gt;&lt;br&gt;alpha/beta hydrolase&lt;br&gt;Location: 36661 - 37479" locus_tag="APZ78848.1" class="clusterblast-orf" id="knownclusterblast-1_all_1_1_8"  />
</g>
<g id="a1_009"  >
<polygon points="735,90 745,90 750,85 745,80 735,80 735,90 " style="fill:white; stroke-width:1; stroke:black; " description="&lt;b&gt;APZ78849.1&lt;/b&gt;&lt;br&gt;uncharacterized protein&lt;br&gt;Location: 37649 - 38407" locus_tag="APZ78849.1" class="clusterblast-orf" id="knownclusterblast-1_all_1_1_9"  />
</g>
<g id="a1_0010"  >
<polygon points="750,90 763,90 768,85 763,80 750,80 750,90 " style="fill:white; stroke-width:1; stroke:black; " description="&lt;b&gt;APZ78850.1&lt;/b&gt;&lt;br&gt;coproporphyrinogen III oxidase&lt;br&gt;Location: 38416 - 39339" locus_tag="APZ78850.1" class="clusterblast-orf" id="knownclusterblast-1_all_1_1_10"  />
</g>
<g id="a1_0011"  >
<polygon points="768,90 773,90 778,85 773,80 768,80 768,90 " style="fill:white; stroke-width:1; stroke:black; " description="&lt;b&gt;APZ78851.1&lt;/b&gt;&lt;br&gt;uncharacterized protein&lt;br&gt;Location: 39343 - 39885" locus_tag="APZ78851.1" class="clusterblast-orf" id="knownclusterblast-1_all_1_1_11"  />
</g>
<g label="BGC0001429" description="BGC0001429_c1: myxochromide S1 (16% of genes show similarity), NRP:Cyclic depsipeptide+Polyketide:Iterative type I polyketide" class="clusterblast-cluster"  >
<text x="5" y="120" class="clusterblast-acc"  >
<a xlink:href="https://mibig.secondarymetabolites.org/go/BGC0001429/1" target="_blank">BGC0001429</a>: myxochromide S1                                                                  (16% of genes show similarity), NRP:Cyclic depsipeptide+Polyketide:Iterative type I polyketide</text>
<line x1="10" y1="135" x2="778.0" y2="135" style="stroke-width:1; stroke:grey; "  />
</g>
<g id="a1_000"  >
<polygon points="0,135 5,130 41,130 41,140 5,140 0,135 " style="fill:white; stroke-width:1; stroke:black; " description="&lt;b&gt;APZ78816.1&lt;/b&gt;&lt;br&gt;cation/H(+) antiporter&lt;br&gt;Location: 1 - 2154" locus_tag="APZ78816.1" class="clusterblast-orf" id="knownclusterblast-1_all_1_2_0"  />
</g>
<g id="a1_001"  >
<polygon points="44,135 49,130 67,130 67,140 49,140 44,135 " style="fill:#d81515; stroke-width:1; stroke:black; " description="&lt;b&gt;APZ78817.1&lt;/b&gt;&lt;br&gt;hydrolase&lt;br&gt;Location: 2276 - 3481&lt;br&gt;&lt;br&gt;&lt;b&gt;BlastP hit with ctg21_133&lt;/b&gt;&lt;br&gt;Percentage identity: 46&lt;br&gt;Percentage coverage: 95&lt;br&gt;BLAST bit score: 331&lt;br&gt;E-value: 3.97e-111" locus_tag="APZ78817.1" class="clusterblast-orf" id="knownclusterblast-1_all_1_2_1"  />
</g>
<g id="a1_002"  >
<polygon points="67,135 72,130 117,130 117,140 72,140 67,135 " style="fill:white; stroke-width:1; stroke:black; " description="&lt;b&gt;APZ78818.1&lt;/b&gt;&lt;br&gt;ABC transporter permease&lt;br&gt;Location: 3485 - 6025" locus_tag="APZ78818.1" class="clusterblast-orf" id="knownclusterblast-1_all_1_2_2"  />
</g>
<g id="a1_003"  >
<polygon points="117,135 122,130 131,130 131,140 122,140 117,135 " style="fill:#15d8d8; stroke-width:1; stroke:black; " description="&lt;b&gt;APZ78819.1&lt;/b&gt;&lt;br&gt;ABC transporter ATP-binding protein&lt;br&gt;Location: 6022 - 6723&lt;br&gt;&lt;br&gt;&lt;b&gt;BlastP hit with ctg21_134&lt;/b&gt;&lt;br&gt;Percentage identity: 54&lt;br&gt;Percentage coverage: 99&lt;br&gt;BLAST bit score: 215&lt;br&gt;E-value: 2.47e-70" locus_tag="APZ78819.1" class="clusterblast-orf" id="knownclusterblast-1_all_1_2_3"  />
</g>
<g id="a1_004"  >
<polygon points="138,140 260,140 265,135 260,130 138,130 138,140 " style="fill:white; stroke-width:1; stroke:black; " description="&lt;b&gt;APZ78820.1&lt;/b&gt;&lt;br&gt;polyketide synthase&lt;br&gt;Location: 7105 - 13605" locus_tag="APZ78820.1" class="clusterblast-orf" id="knownclusterblast-1_all_1_2_4"  />
</g>
<g id="a1_005"  >
<polygon points="265,140 439,140 444,135 439,130 265,130 265,140 " style="fill:white; stroke-width:1; stroke:black; " description="&lt;b&gt;APZ78821.1&lt;/b&gt;&lt;br&gt;nonribosomal peptide synthetase&lt;br&gt;Location: 13602 - 22775" locus_tag="APZ78821.1" class="clusterblast-orf" id="knownclusterblast-1_all_1_2_5"  />
</g>
<g id="a1_006"  >
<polygon points="444,140 701,140 706,135 701,130 444,130 444,140 " style="fill:white; stroke-width:1; stroke:black; " description="&lt;b&gt;APZ78822.1&lt;/b&gt;&lt;br&gt;nonribosomal peptide synthetase&lt;br&gt;Location: 22809 - 36215" locus_tag="APZ78822.1" class="clusterblast-orf" id="knownclusterblast-1_all_1_2_6"  />
</g>
<g id="a1_007"  >
<polygon points="706,140 710,140 715,135 710,130 706,130 706,140 " style="fill:white; stroke-width:1; stroke:black; " description="&lt;b&gt;APZ78823.1&lt;/b&gt;&lt;br&gt;membrane protein&lt;br&gt;Location: 36219 - 36701" locus_tag="APZ78823.1" class="clusterblast-orf" id="knownclusterblast-1_all_1_2_7"  />
</g>
<g id="a1_008"  >
<polygon points="717,135 722,130 733,130 733,140 722,140 717,135 " style="fill:white; stroke-width:1; stroke:black; " description="&lt;b&gt;APZ78824.1&lt;/b&gt;&lt;br&gt;alpha/beta hydrolase&lt;br&gt;Location: 36764 - 37582" locus_tag="APZ78824.1" class="clusterblast-orf" id="knownclusterblast-1_all_1_2_8"  />
</g>
<g id="a1_009"  >
<polygon points="736,140 746,140 751,135 746,130 736,130 736,140 " style="fill:white; stroke-width:1; stroke:black; " description="&lt;b&gt;APZ78825.1&lt;/b&gt;&lt;br&gt;uncharacterized protein&lt;br&gt;Location: 37753 - 38511" locus_tag="APZ78825.1" class="clusterblast-orf" id="knownclusterblast-1_all_1_2_9"  />
</g>
<g id="a1_0010"  >
<polygon points="751,140 764,140 769,135 764,130 751,130 751,140 " style="fill:white; stroke-width:1; stroke:black; " description="&lt;b&gt;APZ78826.1&lt;/b&gt;&lt;br&gt;coproporphyrinogen III oxidase&lt;br&gt;Location: 38520 - 39443" locus_tag="APZ78826.1" class="clusterblast-orf" id="knownclusterblast-1_all_1_2_10"  />
</g>
<g id="a1_0011"  >
<polygon points="769,140 775,140 780,135 775,130 769,130 769,140 " style="fill:white; stroke-width:1; stroke:black; " description="&lt;b&gt;APZ78827.1&lt;/b&gt;&lt;br&gt;uncharacterized protein&lt;br&gt;Location: 39453 - 39989" locus_tag="APZ78827.1" class="clusterblast-orf" id="knownclusterblast-1_all_1_2_11"  />
</g>
</svg>
