<svg xmlns="http://www.w3.org/2000/svg" xmlns:xlink="http://www.w3.org/1999/xlink" version="1.1" x="0" y="0" height="230" width="800" viewBox="0 0 800 230" preserveAspectRatio="none"  >
<g label="Query sequence" class="clusterblast-cluster"  >
<text x="5" y="20" class="clusterblast-acc"  >
Query sequence</text>
<line x1="10" y1="35" x2="778.0" y2="35" style="stroke-width:1; stroke:grey; "  />
<polygon points="62,40 64,40 69,35 64,30 62,30 62,40 " style="fill:white; stroke-width:1; stroke:black; " description="&lt;b&gt;ctg16_80&lt;/b&gt;&lt;br&gt;ctg16 80&lt;br&gt;Location: 89138 - 89588" locus_tag="ctg16_80" class="clusterblast-orf" id="dummy-1_q0_0_all"  />
<polygon points="78,40 91,40 96,35 91,30 78,30 78,40 " style="fill:white; stroke-width:1; stroke:black; " description="&lt;b&gt;ctg16_81&lt;/b&gt;&lt;br&gt;ctg16 81&lt;br&gt;Location: 90139 - 91303" locus_tag="ctg16_81" class="clusterblast-orf" id="dummy-1_q1_0_all"  />
<polygon points="98,40 109,40 114,35 109,30 98,30 98,40 " style="fill:white; stroke-width:1; stroke:black; " description="&lt;b&gt;ctg16_82&lt;/b&gt;&lt;br&gt;ctg16 82&lt;br&gt;Location: 91425 - 92400" locus_tag="ctg16_82" class="clusterblast-orf" id="dummy-1_q2_0_all"  />
<polygon points="114,40 117,35 114,30 114,40 " style="fill:white; stroke-width:1; stroke:black; " description="&lt;b&gt;ctg16_83&lt;/b&gt;&lt;br&gt;ctg16 83&lt;br&gt;Location: 92404 - 92632" locus_tag="ctg16_83" class="clusterblast-orf" id="dummy-1_q3_0_all"  />
<polygon points="117,35 122,30 126,30 126,40 122,40 117,35 " style="fill:white; stroke-width:1; stroke:black; " description="&lt;b&gt;ctg16_84&lt;/b&gt;&lt;br&gt;ctg16 84&lt;br&gt;Location: 92636 - 93167" locus_tag="ctg16_84" class="clusterblast-orf" id="dummy-1_q4_0_all"  />
<polygon points="126,35 128,30 128,40 126,35 " style="fill:white; stroke-width:1; stroke:black; " description="&lt;b&gt;ctg16_85&lt;/b&gt;&lt;br&gt;ctg16 85&lt;br&gt;Location: 93208 - 93346" locus_tag="ctg16_85" class="clusterblast-orf" id="dummy-1_q5_0_all"  />
<polygon points="131,40 133,40 138,35 133,30 131,30 131,40 " style="fill:white; stroke-width:1; stroke:black; " description="&lt;b&gt;ctg16_86&lt;/b&gt;&lt;br&gt;ctg16 86&lt;br&gt;Location: 93511 - 93985" locus_tag="ctg16_86" class="clusterblast-orf" id="dummy-1_q6_0_all"  />
<polygon points="138,40 141,35 138,30 138,40 " style="fill:white; stroke-width:1; stroke:black; " description="&lt;b&gt;ctg16_87&lt;/b&gt;&lt;br&gt;ctg16 87&lt;br&gt;Location: 93981 - 94134" locus_tag="ctg16_87" class="clusterblast-orf" id="dummy-1_q7_0_all"  />
<polygon points="141,35 146,30 153,30 153,40 146,40 141,35 " style="fill:white; stroke-width:1; stroke:black; " description="&lt;b&gt;ctg16_88&lt;/b&gt;&lt;br&gt;ctg16 88&lt;br&gt;Location: 94141 - 94888" locus_tag="ctg16_88" class="clusterblast-orf" id="dummy-1_q8_0_all"  />
<polygon points="155,35 160,30 167,30 167,40 160,40 155,35 " style="fill:white; stroke-width:1; stroke:black; " description="&lt;b&gt;ctg16_89&lt;/b&gt;&lt;br&gt;ctg16 89&lt;br&gt;Location: 95023 - 95809" locus_tag="ctg16_89" class="clusterblast-orf" id="dummy-1_q9_0_all"  />
<polygon points="170,40 187,40 192,35 187,30 170,30 170,40 " style="fill:white; stroke-width:1; stroke:black; " description="&lt;b&gt;ctg16_90&lt;/b&gt;&lt;br&gt;ctg16 90&lt;br&gt;Location: 95996 - 97400" locus_tag="ctg16_90" class="clusterblast-orf" id="dummy-1_q10_0_all"  />
<polygon points="193,40 214,40 219,35 214,30 193,30 193,40 " style="fill:#d81515; stroke-width:1; stroke:black; " description="&lt;b&gt;ctg16_91&lt;/b&gt;&lt;br&gt;ctg16 91&lt;br&gt;Location: 97477 - 99088" locus_tag="ctg16_91" class="clusterblast-orf" id="dummy-1_q11_0_all"  />
<polygon points="219,40 237,40 242,35 237,30 219,30 219,40 " style="fill:#15d815; stroke-width:1; stroke:black; " description="&lt;b&gt;ctg16_92&lt;/b&gt;&lt;br&gt;ctg16 92&lt;br&gt;Location: 99100 - 100570" locus_tag="ctg16_92" class="clusterblast-orf" id="dummy-1_q12_0_all"  />
<polygon points="242,40 245,40 250,35 245,30 242,30 242,40 " style="fill:white; stroke-width:1; stroke:black; " description="&lt;b&gt;ctg16_93&lt;/b&gt;&lt;br&gt;ctg16 93&lt;br&gt;Location: 100569 - 101040" locus_tag="ctg16_93" class="clusterblast-orf" id="dummy-1_q13_0_all"  />
<polygon points="250,40 259,40 264,35 259,30 250,30 250,40 " style="fill:#1515d8; stroke-width:1; stroke:black; " description="&lt;b&gt;ctg16_94&lt;/b&gt;&lt;br&gt;ctg16 94&lt;br&gt;Location: 101054 - 101933" locus_tag="ctg16_94" class="clusterblast-orf" id="dummy-1_q14_0_all"  />
<polygon points="265,40 269,40 274,35 269,30 265,30 265,40 " style="fill:white; stroke-width:1; stroke:black; " description="&lt;b&gt;ctg16_95&lt;/b&gt;&lt;br&gt;ctg16 95&lt;br&gt;Location: 102043 - 102622" locus_tag="ctg16_95" class="clusterblast-orf" id="dummy-1_q15_0_all"  />
<polygon points="275,40 296,40 301,35 296,30 275,30 275,40 " style="fill:white; stroke-width:1; stroke:black; " description="&lt;b&gt;ctg16_96&lt;/b&gt;&lt;br&gt;ctg16 96&lt;br&gt;Location: 102678 - 104307" locus_tag="ctg16_96" class="clusterblast-orf" id="dummy-1_q16_0_all"  />
<polygon points="301,40 312,40 317,35 312,30 301,30 301,40 " style="fill:white; stroke-width:1; stroke:black; " description="&lt;b&gt;ctg16_97&lt;/b&gt;&lt;br&gt;ctg16 97&lt;br&gt;Location: 104303 - 105338" locus_tag="ctg16_97" class="clusterblast-orf" id="dummy-1_q17_0_all"  />
<polygon points="317,35 322,30 341,30 341,40 322,40 317,35 " style="fill:white; stroke-width:1; stroke:black; " description="&lt;b&gt;ctg16_98&lt;/b&gt;&lt;br&gt;ctg16 98&lt;br&gt;Location: 105339 - 106848" locus_tag="ctg16_98" class="clusterblast-orf" id="dummy-1_q18_0_all"  />
<polygon points="341,35 346,30 355,30 355,40 346,40 341,35 " style="fill:white; stroke-width:1; stroke:black; " description="&lt;b&gt;ctg16_99&lt;/b&gt;&lt;br&gt;ctg16 99&lt;br&gt;Location: 106869 - 107715" locus_tag="ctg16_99" class="clusterblast-orf" id="dummy-1_q19_0_all"  />
<polygon points="356,40 406,40 411,35 406,30 356,30 356,40 " style="fill:white; stroke-width:1; stroke:black; " description="&lt;b&gt;ctg16_100&lt;/b&gt;&lt;br&gt;ctg16 100&lt;br&gt;Location: 107788 - 111295" locus_tag="ctg16_100" class="clusterblast-orf" id="dummy-1_q20_0_all"  />
<polygon points="411,35 416,30 421,30 421,40 416,40 411,35 " style="fill:white; stroke-width:1; stroke:black; " description="&lt;b&gt;ctg16_101&lt;/b&gt;&lt;br&gt;ctg16 101&lt;br&gt;Location: 111299 - 111950" locus_tag="ctg16_101" class="clusterblast-orf" id="dummy-1_q21_0_all"  />
<polygon points="423,40 424,40 429,35 424,30 423,30 423,40 " style="fill:white; stroke-width:1; stroke:black; " description="&lt;b&gt;ctg16_102&lt;/b&gt;&lt;br&gt;ctg16 102&lt;br&gt;Location: 112040 - 112406" locus_tag="ctg16_102" class="clusterblast-orf" id="dummy-1_q22_0_all"  />
<polygon points="431,35 436,30 445,30 445,40 436,40 431,35 " style="fill:white; stroke-width:1; stroke:black; " description="&lt;b&gt;ctg16_103&lt;/b&gt;&lt;br&gt;ctg16 103&lt;br&gt;Location: 112578 - 113451" locus_tag="ctg16_103" class="clusterblast-orf" id="dummy-1_q23_0_all"  />
<polygon points="446,40 459,40 464,35 459,30 446,30 446,40 " style="fill:white; stroke-width:1; stroke:black; " description="&lt;b&gt;ctg16_104&lt;/b&gt;&lt;br&gt;ctg16 104&lt;br&gt;Location: 113535 - 114639" locus_tag="ctg16_104" class="clusterblast-orf" id="dummy-1_q24_0_all"  />
<polygon points="466,40 471,40 476,35 471,30 466,30 466,40 " style="fill:white; stroke-width:1; stroke:black; " description="&lt;b&gt;ctg16_105&lt;/b&gt;&lt;br&gt;ctg16 105&lt;br&gt;Location: 114773 - 115418" locus_tag="ctg16_105" class="clusterblast-orf" id="dummy-1_q25_0_all"  />
<polygon points="476,40 515,40 520,35 515,30 476,30 476,40 " style="fill:white; stroke-width:1; stroke:black; " description="&lt;b&gt;ctg16_106&lt;/b&gt;&lt;br&gt;ctg16 106&lt;br&gt;Location: 115430 - 118247" locus_tag="ctg16_106" class="clusterblast-orf" id="dummy-1_q26_0_all"  />
<polygon points="521,40 535,40 540,35 535,30 521,30 521,40 " style="fill:white; stroke-width:1; stroke:black; " description="&lt;b&gt;ctg16_107&lt;/b&gt;&lt;br&gt;ctg16 107&lt;br&gt;Location: 118289 - 119486" locus_tag="ctg16_107" class="clusterblast-orf" id="dummy-1_q27_0_all"  />
<polygon points="540,35 545,30 559,30 559,40 545,40 540,35 " style="fill:white; stroke-width:1; stroke:black; " description="&lt;b&gt;ctg16_108&lt;/b&gt;&lt;br&gt;ctg16 108&lt;br&gt;Location: 119482 - 120706" locus_tag="ctg16_108" class="clusterblast-orf" id="dummy-1_q28_0_all"  />
<polygon points="560,35 565,30 599,30 599,40 565,40 560,35 " style="fill:white; stroke-width:1; stroke:black; " description="&lt;b&gt;ctg16_109&lt;/b&gt;&lt;br&gt;ctg16 109&lt;br&gt;Location: 120781 - 123244" locus_tag="ctg16_109" class="clusterblast-orf" id="dummy-1_q29_0_all"  />
<polygon points="601,40 619,40 624,35 619,30 601,30 601,40 " style="fill:white; stroke-width:1; stroke:black; " description="&lt;b&gt;ctg16_110&lt;/b&gt;&lt;br&gt;ctg16 110&lt;br&gt;Location: 123370 - 124804" locus_tag="ctg16_110" class="clusterblast-orf" id="dummy-1_q30_0_all"  />
<polygon points="624,35 629,30 640,30 640,40 629,40 624,35 " style="fill:white; stroke-width:1; stroke:black; " description="&lt;b&gt;ctg16_111&lt;/b&gt;&lt;br&gt;ctg16 111&lt;br&gt;Location: 124812 - 125838" locus_tag="ctg16_111" class="clusterblast-orf" id="dummy-1_q31_0_all"  />
<polygon points="641,40 649,40 654,35 649,30 641,30 641,40 " style="fill:white; stroke-width:1; stroke:black; " description="&lt;b&gt;ctg16_112&lt;/b&gt;&lt;br&gt;ctg16 112&lt;br&gt;Location: 125908 - 126733" locus_tag="ctg16_112" class="clusterblast-orf" id="dummy-1_q32_0_all"  />
<polygon points="656,40 670,40 675,35 670,30 656,30 656,40 " style="fill:white; stroke-width:1; stroke:black; " description="&lt;b&gt;ctg16_113&lt;/b&gt;&lt;br&gt;ctg16 113&lt;br&gt;Location: 126828 - 128058" locus_tag="ctg16_113" class="clusterblast-orf" id="dummy-1_q33_0_all"  />
<polygon points="676,35 681,30 686,30 686,40 681,40 676,35 " style="fill:white; stroke-width:1; stroke:black; " description="&lt;b&gt;ctg16_114&lt;/b&gt;&lt;br&gt;ctg16 114&lt;br&gt;Location: 128134 - 128779" locus_tag="ctg16_114" class="clusterblast-orf" id="dummy-1_q34_0_all"  />
<polygon points="687,40 689,40 694,35 689,30 687,30 687,40 " style="fill:white; stroke-width:1; stroke:black; " description="&lt;b&gt;ctg16_115&lt;/b&gt;&lt;br&gt;ctg16 115&lt;br&gt;Location: 128821 - 129283" locus_tag="ctg16_115" class="clusterblast-orf" id="dummy-1_q35_0_all"  />
<polygon points="694,35 699,30 703,30 703,40 699,40 694,35 " style="fill:white; stroke-width:1; stroke:black; " description="&lt;b&gt;ctg16_116&lt;/b&gt;&lt;br&gt;ctg16 116&lt;br&gt;Location: 129295 - 129850" locus_tag="ctg16_116" class="clusterblast-orf" id="dummy-1_q36_0_all"  />
<polygon points="704,35 709,30 717,30 717,40 709,40 704,35 " style="fill:white; stroke-width:1; stroke:black; " description="&lt;b&gt;ctg16_117&lt;/b&gt;&lt;br&gt;ctg16 117&lt;br&gt;Location: 129908 - 130736" locus_tag="ctg16_117" class="clusterblast-orf" id="dummy-1_q37_0_all"  />
</g>
<g label="BGC0001095" description="BGC0001095_c1: fengycin (13% of genes show similarity), NRP" class="clusterblast-cluster"  >
<text x="5" y="70" class="clusterblast-acc"  >
<a xlink:href="https://mibig.secondarymetabolites.org/go/BGC0001095/1" target="_blank">BGC0001095</a>: fengycin                                                                         (13% of genes show similarity), NRP</text>
<line x1="10" y1="85" x2="778.0" y2="85" style="stroke-width:1; stroke:grey; "  />
</g>
<g id="a1_000"  >
<polygon points="0,90 18,90 23,85 18,80 0,80 0,90 " style="fill:white; stroke-width:1; stroke:black; " description="&lt;b&gt;RBAM_018470&lt;/b&gt;&lt;br&gt;DacC&lt;br&gt;Location: 49542 - 48067" locus_tag="RBAM_018470" class="clusterblast-orf" id="dummy-1_h1_1_0"  />
</g>
<g id="a1_001"  >
<polygon points="30,90 146,90 151,85 146,80 30,80 30,90 " style="fill:white; stroke-width:1; stroke:black; " description="&lt;b&gt;RBAM_018460&lt;/b&gt;&lt;br&gt;fengycin synthetase A&lt;br&gt;Location: 47586 - 39928" locus_tag="RBAM_018460" class="clusterblast-orf" id="dummy-1_h1_1_1"  />
</g>
<g id="a1_002"  >
<polygon points="151,90 267,90 272,85 267,80 151,80 151,90 " style="fill:white; stroke-width:1; stroke:black; " description="&lt;b&gt;RBAM_018450&lt;/b&gt;&lt;br&gt;fengycin synthetase B&lt;br&gt;Location: 39902 - 32205" locus_tag="RBAM_018450" class="clusterblast-orf" id="dummy-1_h1_1_2"  />
</g>
<g id="a1_003"  >
<polygon points="273,90 388,90 393,85 388,80 273,80 273,90 " style="fill:white; stroke-width:1; stroke:black; " description="&lt;b&gt;RBAM_018440&lt;/b&gt;&lt;br&gt;fengycin synthetase C&lt;br&gt;Location: 32189 - 24540" locus_tag="RBAM_018440" class="clusterblast-orf" id="dummy-1_h1_1_3"  />
</g>
<g id="a1_004"  >
<polygon points="394,90 558,90 563,85 558,80 394,80 394,90 " style="fill:white; stroke-width:1; stroke:black; " description="&lt;b&gt;RBAM_018430&lt;/b&gt;&lt;br&gt;fengycin synthetase D&lt;br&gt;Location: 24514 - 13739" locus_tag="RBAM_018430" class="clusterblast-orf" id="dummy-1_h1_1_4"  />
</g>
<g id="a1_005"  >
<polygon points="564,90 618,90 623,85 618,80 564,80 564,90 " style="fill:white; stroke-width:1; stroke:black; " description="&lt;b&gt;RBAM_018420&lt;/b&gt;&lt;br&gt;fengycin synthetase E&lt;br&gt;Location: 13720 - 9917" locus_tag="RBAM_018420" class="clusterblast-orf" id="dummy-1_h1_1_5"  />
</g>
<g id="a1_006"  >
<polygon points="624,90 626,90 631,85 626,80 624,80 624,90 " style="fill:white; stroke-width:1; stroke:black; " description="&lt;b&gt;RBAM_018410&lt;/b&gt;&lt;br&gt;YngL&lt;br&gt;Location: 9895 - 9464" locus_tag="RBAM_018410" class="clusterblast-orf" id="dummy-1_h1_1_6"  />
</g>
<g id="a1_007"  >
<polygon points="632,90 652,90 657,85 652,80 632,80 632,90 " style="fill:white; stroke-width:1; stroke:black; " description="&lt;b&gt;RBAM_018400&lt;/b&gt;&lt;br&gt;YngK&lt;br&gt;Location: 9342 - 7804" locus_tag="RBAM_018400" class="clusterblast-orf" id="dummy-1_h1_1_7"  />
</g>
<g id="a1_008"  >
<polygon points="659,90 672,90 677,85 672,80 659,80 659,90 " style="fill:white; stroke-width:1; stroke:black; " description="&lt;b&gt;RBAM_018390&lt;/b&gt;&lt;br&gt;YngJ&lt;br&gt;Location: 7664 - 6522" locus_tag="RBAM_018390" class="clusterblast-orf" id="dummy-1_h1_1_8"  />
</g>
<g id="a1_009"  >
<polygon points="678,90 698,90 703,85 698,80 678,80 678,90 " style="fill:white; stroke-width:1; stroke:black; " description="&lt;b&gt;RBAM_018380&lt;/b&gt;&lt;br&gt;YngI&lt;br&gt;Location: 6476 - 4836" locus_tag="RBAM_018380" class="clusterblast-orf" id="dummy-1_h1_1_9"  />
</g>
<g id="a1_0010"  >
<polygon points="704,90 720,90 725,85 720,80 704,80 704,90 " style="fill:#15d815; stroke-width:1; stroke:black; " description="&lt;b&gt;RBAM_018370&lt;/b&gt;&lt;br&gt;YngH&lt;br&gt;Location: 4814 - 3465&lt;br&gt;&lt;br&gt;&lt;b&gt;BlastP hit with ctg16_92&lt;/b&gt;&lt;br&gt;Percentage identity: 47&lt;br&gt;Percentage coverage: 92&lt;br&gt;BLAST bit score: 376&lt;br&gt;E-value: 1.95e-126" locus_tag="RBAM_018370" class="clusterblast-orf" id="dummy-1_h1_1_10"  />
</g>
<g id="a1_0011"  >
<polygon points="725,90 728,85 725,80 725,90 " style="fill:white; stroke-width:1; stroke:black; " description="&lt;b&gt;RBAM_018360&lt;/b&gt;&lt;br&gt;hypothetical protein&lt;br&gt;Location: 3468 - 3256" locus_tag="RBAM_018360" class="clusterblast-orf" id="dummy-1_h1_1_11"  />
</g>
<g id="a1_0012"  >
<polygon points="729,90 738,90 743,85 738,80 729,80 729,90 " style="fill:#1515d8; stroke-width:1; stroke:black; " description="&lt;b&gt;RBAM_018350&lt;/b&gt;&lt;br&gt;YngG&lt;br&gt;Location: 3240 - 2341&lt;br&gt;&lt;br&gt;&lt;b&gt;BlastP hit with ctg16_94&lt;/b&gt;&lt;br&gt;Percentage identity: 47&lt;br&gt;Percentage coverage: 99&lt;br&gt;BLAST bit score: 258&lt;br&gt;E-value: 2.72e-85" locus_tag="RBAM_018350" class="clusterblast-orf" id="dummy-1_h1_1_12"  />
</g>
<g id="a1_0013"  >
<polygon points="743,90 750,90 755,85 750,80 743,80 743,90 " style="fill:white; stroke-width:1; stroke:black; " description="&lt;b&gt;RBAM_018340&lt;/b&gt;&lt;br&gt;YngF&lt;br&gt;Location: 2327 - 1548" locus_tag="RBAM_018340" class="clusterblast-orf" id="dummy-1_h1_1_13"  />
</g>
<g id="a1_0014"  >
<polygon points="755,90 775,90 780,85 775,80 755,80 755,90 " style="fill:white; stroke-width:1; stroke:black; " description="&lt;b&gt;RBAM_018330&lt;/b&gt;&lt;br&gt;YngE&lt;br&gt;Location: 1530 - 1" locus_tag="RBAM_018330" class="clusterblast-orf" id="dummy-1_h1_1_14"  />
</g>
</svg>
