<svg xmlns="http://www.w3.org/2000/svg" xmlns:xlink="http://www.w3.org/1999/xlink" version="1.1" x="0" y="0" height="50" width="800" viewBox="0 0 800 50" preserveAspectRatio="none"  >
<g label="Query sequence" class="clusterblast-cluster"  >
<text x="5" y="20" class="clusterblast-acc"  >
Query sequence</text>
<line x1="10" y1="35" x2="778.0" y2="35" style="stroke-width:1; stroke:grey; "  />
<polygon points="0,40 42,40 47,35 42,30 0,30 0,40 " style="fill:white; stroke-width:1; stroke:black; " description="&lt;b&gt;ctg11_21&lt;/b&gt;&lt;br&gt;ctg11 21&lt;br&gt;Location: 21533 - 22307" locus_tag="ctg11_21" class="clusterblast-orf" id="knownclusterblast-1_q0_0_all"  />
<polygon points="46,40 70,40 75,35 70,30 46,30 46,40 " style="fill:white; stroke-width:1; stroke:black; " description="&lt;b&gt;ctg11_22&lt;/b&gt;&lt;br&gt;ctg11 22&lt;br&gt;Location: 22303 - 22774" locus_tag="ctg11_22" class="clusterblast-orf" id="knownclusterblast-1_q1_0_all"  />
<polygon points="74,40 97,40 102,35 97,30 74,30 74,40 " style="fill:white; stroke-width:1; stroke:black; " description="&lt;b&gt;ctg11_23&lt;/b&gt;&lt;br&gt;ctg11 23&lt;br&gt;Location: 22770 - 23223" locus_tag="ctg11_23" class="clusterblast-orf" id="knownclusterblast-1_q2_0_all"  />
<polygon points="101,40 149,40 154,35 149,30 101,30 101,40 " style="fill:white; stroke-width:1; stroke:black; " description="&lt;b&gt;ctg11_24&lt;/b&gt;&lt;br&gt;ctg11 24&lt;br&gt;Location: 23219 - 24089" locus_tag="ctg11_24" class="clusterblast-orf" id="knownclusterblast-1_q3_0_all"  />
<polygon points="155,35 160,30 181,30 181,40 160,40 155,35 " style="fill:white; stroke-width:1; stroke:black; " description="&lt;b&gt;ctg11_25&lt;/b&gt;&lt;br&gt;ctg11 25&lt;br&gt;Location: 24107 - 24539" locus_tag="ctg11_25" class="clusterblast-orf" id="knownclusterblast-1_q4_0_all"  />
<polygon points="181,35 186,30 292,30 292,40 186,40 181,35 " style="fill:white; stroke-width:1; stroke:black; " description="&lt;b&gt;ctg11_26&lt;/b&gt;&lt;br&gt;ctg11 26&lt;br&gt;Location: 24551 - 26393" locus_tag="ctg11_26" class="clusterblast-orf" id="knownclusterblast-1_q5_0_all"  />
<polygon points="299,40 396,40 401,35 396,30 299,30 299,40 " style="fill:white; stroke-width:1; stroke:black; " description="&lt;b&gt;ctg11_27&lt;/b&gt;&lt;br&gt;ctg11 27&lt;br&gt;Location: 26507 - 28217" locus_tag="ctg11_27" class="clusterblast-orf" id="knownclusterblast-1_q6_0_all"  />
<polygon points="401,40 493,40 498,35 493,30 401,30 401,40 " style="fill:white; stroke-width:1; stroke:black; " description="&lt;b&gt;ctg11_28&lt;/b&gt;&lt;br&gt;ctg11 28&lt;br&gt;Location: 28204 - 29830" locus_tag="ctg11_28" class="clusterblast-orf" id="knownclusterblast-1_q7_0_all"  />
<polygon points="521,40 552,40 557,35 552,30 521,30 521,40 " style="fill:white; stroke-width:1; stroke:black; " description="&lt;b&gt;ctg11_29&lt;/b&gt;&lt;br&gt;ctg11 29&lt;br&gt;Location: 30209 - 30815" locus_tag="ctg11_29" class="clusterblast-orf" id="knownclusterblast-1_q8_0_all"  />
<polygon points="561,35 566,30 601,30 601,40 566,40 561,35 " style="fill:white; stroke-width:1; stroke:black; " description="&lt;b&gt;ctg11_30&lt;/b&gt;&lt;br&gt;ctg11 30&lt;br&gt;Location: 30881 - 31550" locus_tag="ctg11_30" class="clusterblast-orf" id="knownclusterblast-1_q9_0_all"  />
<polygon points="610,40 623,40 628,35 623,30 610,30 610,40 " style="fill:white; stroke-width:1; stroke:black; " description="&lt;b&gt;ctg11_31&lt;/b&gt;&lt;br&gt;ctg11 31&lt;br&gt;Location: 31686 - 31986" locus_tag="ctg11_31" class="clusterblast-orf" id="knownclusterblast-1_q10_0_all"  />
<polygon points="632,40 650,40 655,35 650,30 632,30 632,40 " style="fill:white; stroke-width:1; stroke:black; " description="&lt;b&gt;ctg11_32&lt;/b&gt;&lt;br&gt;ctg11 32&lt;br&gt;Location: 32067 - 32448" locus_tag="ctg11_32" class="clusterblast-orf" id="knownclusterblast-1_q11_0_all"  />
<polygon points="656,40 691,40 696,35 691,30 656,30 656,40 " style="fill:white; stroke-width:1; stroke:black; " description="&lt;b&gt;ctg11_33&lt;/b&gt;&lt;br&gt;ctg11 33&lt;br&gt;Location: 32452 - 33133" locus_tag="ctg11_33" class="clusterblast-orf" id="knownclusterblast-1_q12_0_all"  />
<polygon points="697,35 702,30 780,30 780,40 702,40 697,35 " style="fill:white; stroke-width:1; stroke:black; " description="&lt;b&gt;ctg11_34&lt;/b&gt;&lt;br&gt;ctg11 34&lt;br&gt;Location: 33137 - 34526" locus_tag="ctg11_34" class="clusterblast-orf" id="knownclusterblast-1_q13_0_all"  />
</g>
</svg>
