<svg xmlns="http://www.w3.org/2000/svg" xmlns:xlink="http://www.w3.org/1999/xlink" version="1.1" x="0" y="0" height="50" width="800" viewBox="0 0 800 50" preserveAspectRatio="none"  >
<g label="Query sequence" class="clusterblast-cluster"  >
<text x="5" y="20" class="clusterblast-acc"  >
Query sequence</text>
<line x1="10" y1="35" x2="778.0" y2="35" style="stroke-width:1; stroke:grey; "  />
<polygon points="0,35 5,30 11,30 11,40 5,40 0,35 " style="fill:white; stroke-width:1; stroke:black; " description="&lt;b&gt;ctg2_350&lt;/b&gt;&lt;br&gt;ctg2 350&lt;br&gt;Location: 367386 - 367962" locus_tag="ctg2_350" class="clusterblast-orf" id="knownclusterblast-2_q0_0_all"  />
<polygon points="12,35 17,30 19,30 19,40 17,40 12,35 " style="fill:white; stroke-width:1; stroke:black; " description="&lt;b&gt;ctg2_351&lt;/b&gt;&lt;br&gt;ctg2 351&lt;br&gt;Location: 368012 - 368360" locus_tag="ctg2_351" class="clusterblast-orf" id="knownclusterblast-2_q1_0_all"  />
<polygon points="23,35 28,30 40,30 40,40 28,40 23,35 " style="fill:white; stroke-width:1; stroke:black; " description="&lt;b&gt;ctg2_352&lt;/b&gt;&lt;br&gt;ctg2 352&lt;br&gt;Location: 368556 - 369435" locus_tag="ctg2_352" class="clusterblast-orf" id="knownclusterblast-2_q2_0_all"  />
<polygon points="40,35 45,30 68,30 68,40 45,40 40,35 " style="fill:white; stroke-width:1; stroke:black; " description="&lt;b&gt;ctg2_353&lt;/b&gt;&lt;br&gt;ctg2 353&lt;br&gt;Location: 369454 - 370879" locus_tag="ctg2_353" class="clusterblast-orf" id="knownclusterblast-2_q3_0_all"  />
<polygon points="71,40 113,40 118,35 113,30 71,30 71,40 " style="fill:white; stroke-width:1; stroke:black; " description="&lt;b&gt;ctg2_354&lt;/b&gt;&lt;br&gt;ctg2 354&lt;br&gt;Location: 371021 - 373391" locus_tag="ctg2_354" class="clusterblast-orf" id="knownclusterblast-2_q4_0_all"  />
<polygon points="118,40 128,40 133,35 128,30 118,30 118,40 " style="fill:white; stroke-width:1; stroke:black; " description="&lt;b&gt;ctg2_355&lt;/b&gt;&lt;br&gt;ctg2 355&lt;br&gt;Location: 373374 - 374163" locus_tag="ctg2_355" class="clusterblast-orf" id="knownclusterblast-2_q5_0_all"  />
<polygon points="133,40 138,40 143,35 138,30 133,30 133,40 " style="fill:white; stroke-width:1; stroke:black; " description="&lt;b&gt;ctg2_356&lt;/b&gt;&lt;br&gt;ctg2 356&lt;br&gt;Location: 374159 - 374648" locus_tag="ctg2_356" class="clusterblast-orf" id="knownclusterblast-2_q6_0_all"  />
<polygon points="143,40 147,40 152,35 147,30 143,30 143,40 " style="fill:white; stroke-width:1; stroke:black; " description="&lt;b&gt;ctg2_357&lt;/b&gt;&lt;br&gt;ctg2 357&lt;br&gt;Location: 374644 - 375112" locus_tag="ctg2_357" class="clusterblast-orf" id="knownclusterblast-2_q7_0_all"  />
<polygon points="153,35 157,30 157,40 153,35 " style="fill:white; stroke-width:1; stroke:black; " description="&lt;b&gt;ctg2_358&lt;/b&gt;&lt;br&gt;ctg2 358&lt;br&gt;Location: 375197 - 375389" locus_tag="ctg2_358" class="clusterblast-orf" id="knownclusterblast-2_q8_0_all"  />
<polygon points="160,40 214,40 219,35 214,30 160,30 160,40 " style="fill:white; stroke-width:1; stroke:black; " description="&lt;b&gt;ctg2_359&lt;/b&gt;&lt;br&gt;ctg2 359&lt;br&gt;Location: 375539 - 378503" locus_tag="ctg2_359" class="clusterblast-orf" id="knownclusterblast-2_q9_0_all"  />
<polygon points="220,40 241,40 246,35 241,30 220,30 220,40 " style="fill:white; stroke-width:1; stroke:black; " description="&lt;b&gt;ctg2_360&lt;/b&gt;&lt;br&gt;ctg2 360&lt;br&gt;Location: 378554 - 379916" locus_tag="ctg2_360" class="clusterblast-orf" id="knownclusterblast-2_q10_0_all"  />
<polygon points="251,40 263,40 268,35 263,30 251,30 251,40 " style="fill:white; stroke-width:1; stroke:black; " description="&lt;b&gt;ctg2_361&lt;/b&gt;&lt;br&gt;ctg2 361&lt;br&gt;Location: 380134 - 381013" locus_tag="ctg2_361" class="clusterblast-orf" id="knownclusterblast-2_q11_0_all"  />
<polygon points="278,35 283,30 297,30 297,40 283,40 278,35 " style="fill:white; stroke-width:1; stroke:black; " description="&lt;b&gt;ctg2_362&lt;/b&gt;&lt;br&gt;ctg2 362&lt;br&gt;Location: 381518 - 382505" locus_tag="ctg2_362" class="clusterblast-orf" id="knownclusterblast-2_q12_0_all"  />
<polygon points="300,40 323,40 328,35 323,30 300,30 300,40 " style="fill:white; stroke-width:1; stroke:black; " description="&lt;b&gt;ctg2_363&lt;/b&gt;&lt;br&gt;ctg2 363&lt;br&gt;Location: 382620 - 384057" locus_tag="ctg2_363" class="clusterblast-orf" id="knownclusterblast-2_q13_0_all"  />
<polygon points="328,40 341,40 346,35 341,30 328,30 328,40 " style="fill:white; stroke-width:1; stroke:black; " description="&lt;b&gt;ctg2_364&lt;/b&gt;&lt;br&gt;ctg2 364&lt;br&gt;Location: 384053 - 384989" locus_tag="ctg2_364" class="clusterblast-orf" id="knownclusterblast-2_q14_0_all"  />
<polygon points="346,40 360,40 365,35 360,30 346,30 346,40 " style="fill:white; stroke-width:1; stroke:black; " description="&lt;b&gt;ctg2_365&lt;/b&gt;&lt;br&gt;ctg2 365&lt;br&gt;Location: 384985 - 385945" locus_tag="ctg2_365" class="clusterblast-orf" id="knownclusterblast-2_q15_0_all"  />
<polygon points="365,35 370,30 410,30 410,40 370,40 365,35 " style="fill:white; stroke-width:1; stroke:black; " description="&lt;b&gt;ctg2_366&lt;/b&gt;&lt;br&gt;ctg2 366&lt;br&gt;Location: 385953 - 388212" locus_tag="ctg2_366" class="clusterblast-orf" id="knownclusterblast-2_q16_0_all"  />
<polygon points="409,35 414,30 424,30 424,40 414,40 409,35 " style="fill:white; stroke-width:1; stroke:black; " description="&lt;b&gt;ctg2_367&lt;/b&gt;&lt;br&gt;ctg2 367&lt;br&gt;Location: 388202 - 388958" locus_tag="ctg2_367" class="clusterblast-orf" id="knownclusterblast-2_q17_0_all"  />
<polygon points="424,35 429,30 435,30 435,40 429,40 424,35 " style="fill:white; stroke-width:1; stroke:black; " description="&lt;b&gt;ctg2_368&lt;/b&gt;&lt;br&gt;ctg2 368&lt;br&gt;Location: 388954 - 389485" locus_tag="ctg2_368" class="clusterblast-orf" id="knownclusterblast-2_q18_0_all"  />
<polygon points="438,40 477,40 482,35 477,30 438,30 438,40 " style="fill:white; stroke-width:1; stroke:black; " description="&lt;b&gt;ctg2_369&lt;/b&gt;&lt;br&gt;ctg2 369&lt;br&gt;Location: 389675 - 391874" locus_tag="ctg2_369" class="clusterblast-orf" id="knownclusterblast-2_q19_0_all"  />
<polygon points="484,40 488,40 493,35 488,30 484,30 484,40 " style="fill:white; stroke-width:1; stroke:black; " description="&lt;b&gt;ctg2_370&lt;/b&gt;&lt;br&gt;ctg2 370&lt;br&gt;Location: 391977 - 392451" locus_tag="ctg2_370" class="clusterblast-orf" id="knownclusterblast-2_q20_0_all"  />
<polygon points="493,35 498,30 509,30 509,40 498,40 493,35 " style="fill:white; stroke-width:1; stroke:black; " description="&lt;b&gt;ctg2_371&lt;/b&gt;&lt;br&gt;ctg2 371&lt;br&gt;Location: 392447 - 393269" locus_tag="ctg2_371" class="clusterblast-orf" id="knownclusterblast-2_q21_0_all"  />
<polygon points="512,40 516,40 521,35 516,30 512,30 512,40 " style="fill:white; stroke-width:1; stroke:black; " description="&lt;b&gt;ctg2_372&lt;/b&gt;&lt;br&gt;ctg2 372&lt;br&gt;Location: 393418 - 393865" locus_tag="ctg2_372" class="clusterblast-orf" id="knownclusterblast-2_q22_0_all"  />
<polygon points="521,35 526,30 532,30 532,40 526,40 521,35 " style="fill:white; stroke-width:1; stroke:black; " description="&lt;b&gt;ctg2_373&lt;/b&gt;&lt;br&gt;ctg2 373&lt;br&gt;Location: 393866 - 394415" locus_tag="ctg2_373" class="clusterblast-orf" id="knownclusterblast-2_q23_0_all"  />
<polygon points="532,35 537,30 552,30 552,40 537,40 532,35 " style="fill:white; stroke-width:1; stroke:black; " description="&lt;b&gt;ctg2_374&lt;/b&gt;&lt;br&gt;ctg2 374&lt;br&gt;Location: 394442 - 395438" locus_tag="ctg2_374" class="clusterblast-orf" id="knownclusterblast-2_q24_0_all"  />
<polygon points="552,35 557,30 579,30 579,40 557,40 552,35 " style="fill:white; stroke-width:1; stroke:black; " description="&lt;b&gt;ctg2_375&lt;/b&gt;&lt;br&gt;ctg2 375&lt;br&gt;Location: 395441 - 396806" locus_tag="ctg2_375" class="clusterblast-orf" id="knownclusterblast-2_q25_0_all"  />
<polygon points="582,40 591,40 596,35 591,30 582,30 582,40 " style="fill:white; stroke-width:1; stroke:black; " description="&lt;b&gt;ctg2_376&lt;/b&gt;&lt;br&gt;ctg2 376&lt;br&gt;Location: 396984 - 397659" locus_tag="ctg2_376" class="clusterblast-orf" id="knownclusterblast-2_q26_0_all"  />
<polygon points="601,40 602,40 607,35 602,30 601,30 601,40 " style="fill:white; stroke-width:1; stroke:black; " description="&lt;b&gt;ctg2_377&lt;/b&gt;&lt;br&gt;ctg2 377&lt;br&gt;Location: 397939 - 398215" locus_tag="ctg2_377" class="clusterblast-orf" id="knownclusterblast-2_q27_0_all"  />
<polygon points="609,35 614,30 621,30 621,40 614,40 609,35 " style="fill:white; stroke-width:1; stroke:black; " description="&lt;b&gt;ctg2_378&lt;/b&gt;&lt;br&gt;ctg2 378&lt;br&gt;Location: 398321 - 398948" locus_tag="ctg2_378" class="clusterblast-orf" id="knownclusterblast-2_q28_0_all"  />
<polygon points="625,40 630,40 635,35 630,30 625,30 625,40 " style="fill:white; stroke-width:1; stroke:black; " description="&lt;b&gt;ctg2_379&lt;/b&gt;&lt;br&gt;ctg2 379&lt;br&gt;Location: 399130 - 399688" locus_tag="ctg2_379" class="clusterblast-orf" id="knownclusterblast-2_q29_0_all"  />
<polygon points="637,35 642,30 648,30 648,40 642,40 637,35 " style="fill:white; stroke-width:1; stroke:black; " description="&lt;b&gt;ctg2_380&lt;/b&gt;&lt;br&gt;ctg2 380&lt;br&gt;Location: 399787 - 400312" locus_tag="ctg2_380" class="clusterblast-orf" id="knownclusterblast-2_q30_0_all"  />
<polygon points="648,35 653,30 666,30 666,40 653,40 648,35 " style="fill:white; stroke-width:1; stroke:black; " description="&lt;b&gt;ctg2_381&lt;/b&gt;&lt;br&gt;ctg2 381&lt;br&gt;Location: 400308 - 401256" locus_tag="ctg2_381" class="clusterblast-orf" id="knownclusterblast-2_q31_0_all"  />
<polygon points="666,35 671,30 682,30 682,40 671,40 666,35 " style="fill:white; stroke-width:1; stroke:black; " description="&lt;b&gt;ctg2_382&lt;/b&gt;&lt;br&gt;ctg2 382&lt;br&gt;Location: 401262 - 402072" locus_tag="ctg2_382" class="clusterblast-orf" id="knownclusterblast-2_q32_0_all"  />
<polygon points="684,35 689,30 699,30 699,40 689,40 684,35 " style="fill:white; stroke-width:1; stroke:black; " description="&lt;b&gt;ctg2_383&lt;/b&gt;&lt;br&gt;ctg2 383&lt;br&gt;Location: 402168 - 402927" locus_tag="ctg2_383" class="clusterblast-orf" id="knownclusterblast-2_q33_0_all"  />
<polygon points="701,40 719,40 724,35 719,30 701,30 701,40 " style="fill:white; stroke-width:1; stroke:black; " description="&lt;b&gt;ctg2_384&lt;/b&gt;&lt;br&gt;ctg2 384&lt;br&gt;Location: 403006 - 404185" locus_tag="ctg2_384" class="clusterblast-orf" id="knownclusterblast-2_q34_0_all"  />
<polygon points="724,35 729,30 780,30 780,40 729,40 724,35 " style="fill:white; stroke-width:1; stroke:black; " description="&lt;b&gt;ctg2_385&lt;/b&gt;&lt;br&gt;ctg2 385&lt;br&gt;Location: 404200 - 407014" locus_tag="ctg2_385" class="clusterblast-orf" id="knownclusterblast-2_q35_0_all"  />
</g>
</svg>
