<svg xmlns="http://www.w3.org/2000/svg" xmlns:xlink="http://www.w3.org/1999/xlink" version="1.1" x="0" y="0" height="50" width="800" viewBox="0 0 800 50" preserveAspectRatio="none"  >
<g label="Query sequence" class="clusterblast-cluster"  >
<text x="5" y="20" class="clusterblast-acc"  >
Query sequence</text>
<line x1="10" y1="35" x2="778.0" y2="35" style="stroke-width:1; stroke:grey; "  />
<polygon points="0,40 30,40 35,35 30,30 0,30 0,40 " style="fill:white; stroke-width:1; stroke:black; " description="&lt;b&gt;ctg1_386&lt;/b&gt;&lt;br&gt;ctg1 386&lt;br&gt;Location: 428360 - 430301" locus_tag="ctg1_386" class="clusterblast-orf" id="knownclusterblast-2_q0_0_all"  />
<polygon points="35,40 66,40 71,35 66,30 35,30 35,40 " style="fill:white; stroke-width:1; stroke:black; " description="&lt;b&gt;ctg1_387&lt;/b&gt;&lt;br&gt;ctg1 387&lt;br&gt;Location: 430297 - 432205" locus_tag="ctg1_387" class="clusterblast-orf" id="knownclusterblast-2_q1_0_all"  />
<polygon points="72,40 89,40 94,35 89,30 72,30 72,40 " style="fill:white; stroke-width:1; stroke:black; " description="&lt;b&gt;ctg1_388&lt;/b&gt;&lt;br&gt;ctg1 388&lt;br&gt;Location: 432254 - 433448" locus_tag="ctg1_388" class="clusterblast-orf" id="knownclusterblast-2_q2_0_all"  />
<polygon points="94,35 99,30 119,30 119,40 99,40 94,35 " style="fill:white; stroke-width:1; stroke:black; " description="&lt;b&gt;ctg1_389&lt;/b&gt;&lt;br&gt;ctg1 389&lt;br&gt;Location: 433464 - 434814" locus_tag="ctg1_389" class="clusterblast-orf" id="knownclusterblast-2_q3_0_all"  />
<polygon points="122,40 145,40 150,35 145,30 122,30 122,40 " style="fill:white; stroke-width:1; stroke:black; " description="&lt;b&gt;ctg1_390&lt;/b&gt;&lt;br&gt;ctg1 390&lt;br&gt;Location: 434999 - 436502" locus_tag="ctg1_390" class="clusterblast-orf" id="knownclusterblast-2_q4_0_all"  />
<polygon points="149,40 171,40 176,35 171,30 149,30 149,40 " style="fill:white; stroke-width:1; stroke:black; " description="&lt;b&gt;ctg1_391&lt;/b&gt;&lt;br&gt;ctg1 391&lt;br&gt;Location: 436447 - 437899" locus_tag="ctg1_391" class="clusterblast-orf" id="knownclusterblast-2_q5_0_all"  />
<polygon points="176,35 181,30 190,30 190,40 181,40 176,35 " style="fill:white; stroke-width:1; stroke:black; " description="&lt;b&gt;ctg1_392&lt;/b&gt;&lt;br&gt;ctg1 392&lt;br&gt;Location: 437924 - 438665" locus_tag="ctg1_392" class="clusterblast-orf" id="knownclusterblast-2_q6_0_all"  />
<polygon points="192,40 228,40 233,35 228,30 192,30 192,40 " style="fill:white; stroke-width:1; stroke:black; " description="&lt;b&gt;ctg1_393&lt;/b&gt;&lt;br&gt;ctg1 393&lt;br&gt;Location: 438784 - 441019" locus_tag="ctg1_393" class="clusterblast-orf" id="knownclusterblast-2_q7_0_all"  />
<polygon points="233,35 238,30 253,30 253,40 238,40 233,35 " style="fill:white; stroke-width:1; stroke:black; " description="&lt;b&gt;ctg1_394&lt;/b&gt;&lt;br&gt;ctg1 394&lt;br&gt;Location: 441015 - 442098" locus_tag="ctg1_394" class="clusterblast-orf" id="knownclusterblast-2_q8_0_all"  />
<polygon points="254,35 259,30 283,30 283,40 259,40 254,35 " style="fill:white; stroke-width:1; stroke:black; " description="&lt;b&gt;ctg1_395&lt;/b&gt;&lt;br&gt;ctg1 395&lt;br&gt;Location: 442158 - 443703" locus_tag="ctg1_395" class="clusterblast-orf" id="knownclusterblast-2_q9_0_all"  />
<polygon points="286,35 291,30 299,30 299,40 291,40 286,35 " style="fill:white; stroke-width:1; stroke:black; " description="&lt;b&gt;ctg1_396&lt;/b&gt;&lt;br&gt;ctg1 396&lt;br&gt;Location: 443866 - 444595" locus_tag="ctg1_396" class="clusterblast-orf" id="knownclusterblast-2_q10_0_all"  />
<polygon points="299,35 304,30 310,30 310,40 304,40 299,35 " style="fill:white; stroke-width:1; stroke:black; " description="&lt;b&gt;ctg1_397&lt;/b&gt;&lt;br&gt;ctg1 397&lt;br&gt;Location: 444604 - 445162" locus_tag="ctg1_397" class="clusterblast-orf" id="knownclusterblast-2_q11_0_all"  />
<polygon points="311,35 316,30 320,30 320,40 316,40 311,35 " style="fill:white; stroke-width:1; stroke:black; " description="&lt;b&gt;ctg1_398&lt;/b&gt;&lt;br&gt;ctg1 398&lt;br&gt;Location: 445238 - 445697" locus_tag="ctg1_398" class="clusterblast-orf" id="knownclusterblast-2_q12_0_all"  />
<polygon points="321,40 333,40 338,35 333,30 321,30 321,40 " style="fill:white; stroke-width:1; stroke:black; " description="&lt;b&gt;ctg1_399&lt;/b&gt;&lt;br&gt;ctg1 399&lt;br&gt;Location: 445796 - 446723" locus_tag="ctg1_399" class="clusterblast-orf" id="knownclusterblast-2_q13_0_all"  />
<polygon points="339,40 350,40 355,35 350,30 339,30 339,40 " style="fill:white; stroke-width:1; stroke:black; " description="&lt;b&gt;ctg1_400&lt;/b&gt;&lt;br&gt;ctg1 400&lt;br&gt;Location: 446731 - 447640" locus_tag="ctg1_400" class="clusterblast-orf" id="knownclusterblast-2_q14_0_all"  />
<polygon points="355,40 361,40 366,35 361,30 355,30 355,40 " style="fill:white; stroke-width:1; stroke:black; " description="&lt;b&gt;ctg1_401&lt;/b&gt;&lt;br&gt;ctg1 401&lt;br&gt;Location: 447641 - 448241" locus_tag="ctg1_401" class="clusterblast-orf" id="knownclusterblast-2_q15_0_all"  />
<polygon points="368,40 414,40 419,35 414,30 368,30 368,40 " style="fill:white; stroke-width:1; stroke:black; " description="&lt;b&gt;ctg1_402&lt;/b&gt;&lt;br&gt;ctg1 402&lt;br&gt;Location: 448329 - 451092" locus_tag="ctg1_402" class="clusterblast-orf" id="knownclusterblast-2_q16_0_all"  />
<polygon points="419,35 424,30 428,30 428,40 424,40 419,35 " style="fill:white; stroke-width:1; stroke:black; " description="&lt;b&gt;ctg1_403&lt;/b&gt;&lt;br&gt;ctg1 403&lt;br&gt;Location: 451088 - 451562" locus_tag="ctg1_403" class="clusterblast-orf" id="knownclusterblast-2_q17_0_all"  />
<polygon points="436,40 450,40 455,35 450,30 436,30 436,40 " style="fill:white; stroke-width:1; stroke:black; " description="&lt;b&gt;ctg1_404&lt;/b&gt;&lt;br&gt;ctg1 404&lt;br&gt;Location: 452022 - 453036" locus_tag="ctg1_404" class="clusterblast-orf" id="knownclusterblast-2_q18_0_all"  />
<polygon points="455,35 460,30 464,30 464,40 460,40 455,35 " style="fill:white; stroke-width:1; stroke:black; " description="&lt;b&gt;ctg1_405&lt;/b&gt;&lt;br&gt;ctg1 405&lt;br&gt;Location: 453037 - 453535" locus_tag="ctg1_405" class="clusterblast-orf" id="knownclusterblast-2_q19_0_all"  />
<polygon points="466,35 471,30 487,30 487,40 471,40 466,35 " style="fill:white; stroke-width:1; stroke:black; " description="&lt;b&gt;ctg1_406&lt;/b&gt;&lt;br&gt;ctg1 406&lt;br&gt;Location: 453644 - 454790" locus_tag="ctg1_406" class="clusterblast-orf" id="knownclusterblast-2_q20_0_all"  />
<polygon points="489,40 506,40 511,35 506,30 489,30 489,40 " style="fill:white; stroke-width:1; stroke:black; " description="&lt;b&gt;ctg1_407&lt;/b&gt;&lt;br&gt;ctg1 407&lt;br&gt;Location: 454893 - 456087" locus_tag="ctg1_407" class="clusterblast-orf" id="knownclusterblast-2_q21_0_all"  />
<polygon points="511,35 516,30 533,30 533,40 516,40 511,35 " style="fill:white; stroke-width:1; stroke:black; " description="&lt;b&gt;ctg1_408&lt;/b&gt;&lt;br&gt;ctg1 408&lt;br&gt;Location: 456083 - 457259" locus_tag="ctg1_408" class="clusterblast-orf" id="knownclusterblast-2_q22_0_all"  />
<polygon points="535,40 539,35 535,30 535,40 " style="fill:white; stroke-width:1; stroke:black; " description="&lt;b&gt;ctg1_409&lt;/b&gt;&lt;br&gt;ctg1 409&lt;br&gt;Location: 457401 - 457578" locus_tag="ctg1_409" class="clusterblast-orf" id="knownclusterblast-2_q23_0_all"  />
<polygon points="540,40 545,40 550,35 545,30 540,30 540,40 " style="fill:white; stroke-width:1; stroke:black; " description="&lt;b&gt;ctg1_410&lt;/b&gt;&lt;br&gt;ctg1 410&lt;br&gt;Location: 457662 - 458193" locus_tag="ctg1_410" class="clusterblast-orf" id="knownclusterblast-2_q24_0_all"  />
<polygon points="550,35 555,30 560,30 560,40 555,40 550,35 " style="fill:white; stroke-width:1; stroke:black; " description="&lt;b&gt;ctg1_411&lt;/b&gt;&lt;br&gt;ctg1 411&lt;br&gt;Location: 458200 - 458722" locus_tag="ctg1_411" class="clusterblast-orf" id="knownclusterblast-2_q25_0_all"  />
<polygon points="561,35 566,30 579,30 579,40 566,40 561,35 " style="fill:white; stroke-width:1; stroke:black; " description="&lt;b&gt;ctg1_412&lt;/b&gt;&lt;br&gt;ctg1 412&lt;br&gt;Location: 458811 - 459741" locus_tag="ctg1_412" class="clusterblast-orf" id="knownclusterblast-2_q26_0_all"  />
<polygon points="580,40 583,40 588,35 583,30 580,30 580,40 " style="fill:white; stroke-width:1; stroke:black; " description="&lt;b&gt;ctg1_413&lt;/b&gt;&lt;br&gt;ctg1 413&lt;br&gt;Location: 459816 - 460233" locus_tag="ctg1_413" class="clusterblast-orf" id="knownclusterblast-2_q27_0_all"  />
<polygon points="589,40 592,35 589,30 589,40 " style="fill:white; stroke-width:1; stroke:black; " description="&lt;b&gt;ctg1_414&lt;/b&gt;&lt;br&gt;ctg1 414&lt;br&gt;Location: 460285 - 460447" locus_tag="ctg1_414" class="clusterblast-orf" id="knownclusterblast-2_q28_0_all"  />
<polygon points="592,40 596,35 592,30 592,40 " style="fill:white; stroke-width:1; stroke:black; " description="&lt;b&gt;ctg1_415&lt;/b&gt;&lt;br&gt;ctg1 415&lt;br&gt;Location: 460443 - 460656" locus_tag="ctg1_415" class="clusterblast-orf" id="knownclusterblast-2_q29_0_all"  />
<polygon points="595,40 623,40 628,35 623,30 595,30 595,40 " style="fill:white; stroke-width:1; stroke:black; " description="&lt;b&gt;ctg1_416&lt;/b&gt;&lt;br&gt;ctg1 416&lt;br&gt;Location: 460655 - 462440" locus_tag="ctg1_416" class="clusterblast-orf" id="knownclusterblast-2_q30_0_all"  />
<polygon points="631,35 636,30 636,30 636,40 636,40 631,35 " style="fill:white; stroke-width:1; stroke:black; " description="&lt;b&gt;ctg1_417&lt;/b&gt;&lt;br&gt;ctg1 417&lt;br&gt;Location: 462572 - 462824" locus_tag="ctg1_417" class="clusterblast-orf" id="knownclusterblast-2_q31_0_all"  />
<polygon points="636,35 641,30 671,30 671,40 641,40 636,35 " style="fill:white; stroke-width:1; stroke:black; " description="&lt;b&gt;ctg1_418&lt;/b&gt;&lt;br&gt;ctg1 418&lt;br&gt;Location: 462859 - 464764" locus_tag="ctg1_418" class="clusterblast-orf" id="knownclusterblast-2_q32_0_all"  />
<polygon points="673,35 678,30 695,30 695,40 678,40 673,35 " style="fill:white; stroke-width:1; stroke:black; " description="&lt;b&gt;ctg1_419&lt;/b&gt;&lt;br&gt;ctg1 419&lt;br&gt;Location: 464836 - 466024" locus_tag="ctg1_419" class="clusterblast-orf" id="knownclusterblast-2_q33_0_all"  />
<polygon points="696,40 701,40 706,35 701,30 696,30 696,40 " style="fill:white; stroke-width:1; stroke:black; " description="&lt;b&gt;ctg1_420&lt;/b&gt;&lt;br&gt;ctg1 420&lt;br&gt;Location: 466114 - 466639" locus_tag="ctg1_420" class="clusterblast-orf" id="knownclusterblast-2_q34_0_all"  />
<polygon points="706,35 711,30 717,30 717,40 711,40 706,35 " style="fill:white; stroke-width:1; stroke:black; " description="&lt;b&gt;ctg1_421&lt;/b&gt;&lt;br&gt;ctg1 421&lt;br&gt;Location: 466654 - 467215" locus_tag="ctg1_421" class="clusterblast-orf" id="knownclusterblast-2_q35_0_all"  />
<polygon points="718,40 737,40 742,35 737,30 718,30 718,40 " style="fill:white; stroke-width:1; stroke:black; " description="&lt;b&gt;ctg1_422&lt;/b&gt;&lt;br&gt;ctg1 422&lt;br&gt;Location: 467287 - 468604" locus_tag="ctg1_422" class="clusterblast-orf" id="knownclusterblast-2_q36_0_all"  />
<polygon points="742,35 747,30 780,30 780,40 747,40 742,35 " style="fill:white; stroke-width:1; stroke:black; " description="&lt;b&gt;ctg1_423&lt;/b&gt;&lt;br&gt;ctg1 423&lt;br&gt;Location: 468587 - 470639" locus_tag="ctg1_423" class="clusterblast-orf" id="knownclusterblast-2_q37_0_all"  />
</g>
</svg>
