<svg xmlns="http://www.w3.org/2000/svg" xmlns:xlink="http://www.w3.org/1999/xlink" version="1.1" x="0" y="0" height="50" width="800" viewBox="0 0 800 50" preserveAspectRatio="none"  >
<g label="Query sequence" class="clusterblast-cluster"  >
<text x="5" y="20" class="clusterblast-acc"  >
Query sequence</text>
<line x1="10" y1="35" x2="778.0" y2="35" style="stroke-width:1; stroke:grey; "  />
<polygon points="0,35 4,30 4,40 0,35 " style="fill:white; stroke-width:1; stroke:black; " description="&lt;b&gt;ctg14_150&lt;/b&gt;&lt;br&gt;ctg14 150&lt;br&gt;Location: 157159 - 157384" locus_tag="ctg14_150" class="clusterblast-orf" id="knownclusterblast-1_q0_0_all"  />
<polygon points="5,35 10,30 38,30 38,40 10,40 5,35 " style="fill:white; stroke-width:1; stroke:black; " description="&lt;b&gt;ctg14_151&lt;/b&gt;&lt;br&gt;ctg14 151&lt;br&gt;Location: 157444 - 159175" locus_tag="ctg14_151" class="clusterblast-orf" id="knownclusterblast-1_q1_0_all"  />
<polygon points="38,35 43,30 46,30 46,40 43,40 38,35 " style="fill:white; stroke-width:1; stroke:black; " description="&lt;b&gt;ctg14_152&lt;/b&gt;&lt;br&gt;ctg14 152&lt;br&gt;Location: 159196 - 159574" locus_tag="ctg14_152" class="clusterblast-orf" id="knownclusterblast-1_q2_0_all"  />
<polygon points="46,35 51,30 63,30 63,40 51,40 46,35 " style="fill:white; stroke-width:1; stroke:black; " description="&lt;b&gt;ctg14_153&lt;/b&gt;&lt;br&gt;ctg14 153&lt;br&gt;Location: 159584 - 160499" locus_tag="ctg14_153" class="clusterblast-orf" id="knownclusterblast-1_q3_0_all"  />
<polygon points="64,35 68,30 68,40 64,35 " style="fill:white; stroke-width:1; stroke:black; " description="&lt;b&gt;ctg14_154&lt;/b&gt;&lt;br&gt;ctg14 154&lt;br&gt;Location: 160540 - 160744" locus_tag="ctg14_154" class="clusterblast-orf" id="knownclusterblast-1_q4_0_all"  />
<polygon points="67,35 72,30 76,30 76,40 72,40 67,35 " style="fill:white; stroke-width:1; stroke:black; " description="&lt;b&gt;ctg14_155&lt;/b&gt;&lt;br&gt;ctg14 155&lt;br&gt;Location: 160718 - 161171" locus_tag="ctg14_155" class="clusterblast-orf" id="knownclusterblast-1_q5_0_all"  />
<polygon points="85,40 85,40 90,35 85,30 85,30 85,40 " style="fill:white; stroke-width:1; stroke:black; " description="&lt;b&gt;ctg14_156&lt;/b&gt;&lt;br&gt;ctg14 156&lt;br&gt;Location: 161634 - 161922" locus_tag="ctg14_156" class="clusterblast-orf" id="knownclusterblast-1_q6_0_all"  />
<polygon points="101,40 117,40 122,35 117,30 101,30 101,40 " style="fill:white; stroke-width:1; stroke:black; " description="&lt;b&gt;ctg14_157&lt;/b&gt;&lt;br&gt;ctg14 157&lt;br&gt;Location: 162474 - 163575" locus_tag="ctg14_157" class="clusterblast-orf" id="knownclusterblast-1_q7_0_all"  />
<polygon points="124,40 136,40 141,35 136,30 124,30 124,40 " style="fill:white; stroke-width:1; stroke:black; " description="&lt;b&gt;ctg14_158&lt;/b&gt;&lt;br&gt;ctg14 158&lt;br&gt;Location: 163719 - 164625" locus_tag="ctg14_158" class="clusterblast-orf" id="knownclusterblast-1_q8_0_all"  />
<polygon points="174,40 178,35 174,30 174,40 " style="fill:white; stroke-width:1; stroke:black; " description="&lt;b&gt;ctg14_159&lt;/b&gt;&lt;br&gt;ctg14 159&lt;br&gt;Location: 166325 - 166556" locus_tag="ctg14_159" class="clusterblast-orf" id="knownclusterblast-1_q9_0_all"  />
<polygon points="178,35 183,30 193,30 193,40 183,40 178,35 " style="fill:white; stroke-width:1; stroke:black; " description="&lt;b&gt;ctg14_160&lt;/b&gt;&lt;br&gt;ctg14 160&lt;br&gt;Location: 166547 - 167318" locus_tag="ctg14_160" class="clusterblast-orf" id="knownclusterblast-1_q10_0_all"  />
<polygon points="193,35 198,30 212,30 212,40 198,40 193,35 " style="fill:white; stroke-width:1; stroke:black; " description="&lt;b&gt;ctg14_161&lt;/b&gt;&lt;br&gt;ctg14 161&lt;br&gt;Location: 167355 - 168339" locus_tag="ctg14_161" class="clusterblast-orf" id="knownclusterblast-1_q11_0_all"  />
<polygon points="213,35 218,30 246,30 246,40 218,40 213,35 " style="fill:white; stroke-width:1; stroke:black; " description="&lt;b&gt;ctg14_162&lt;/b&gt;&lt;br&gt;ctg14 162&lt;br&gt;Location: 168384 - 170151" locus_tag="ctg14_162" class="clusterblast-orf" id="knownclusterblast-1_q12_0_all"  />
<polygon points="246,35 251,30 269,30 269,40 251,40 246,35 " style="fill:white; stroke-width:1; stroke:black; " description="&lt;b&gt;ctg14_163&lt;/b&gt;&lt;br&gt;ctg14 163&lt;br&gt;Location: 170154 - 171318" locus_tag="ctg14_163" class="clusterblast-orf" id="knownclusterblast-1_q13_0_all"  />
<polygon points="268,35 273,30 284,30 284,40 273,40 268,35 " style="fill:white; stroke-width:1; stroke:black; " description="&lt;b&gt;ctg14_164&lt;/b&gt;&lt;br&gt;ctg14 164&lt;br&gt;Location: 171314 - 172154" locus_tag="ctg14_164" class="clusterblast-orf" id="knownclusterblast-1_q14_0_all"  />
<polygon points="284,35 289,30 299,30 299,40 289,40 284,35 " style="fill:white; stroke-width:1; stroke:black; " description="&lt;b&gt;ctg14_165&lt;/b&gt;&lt;br&gt;ctg14 165&lt;br&gt;Location: 172150 - 172924" locus_tag="ctg14_165" class="clusterblast-orf" id="knownclusterblast-1_q15_0_all"  />
<polygon points="302,35 307,30 313,30 313,40 307,40 302,35 " style="fill:white; stroke-width:1; stroke:black; " description="&lt;b&gt;ctg14_166&lt;/b&gt;&lt;br&gt;ctg14 166&lt;br&gt;Location: 173101 - 173650" locus_tag="ctg14_166" class="clusterblast-orf" id="knownclusterblast-1_q16_0_all"  />
<polygon points="313,35 318,30 327,30 327,40 318,40 313,35 " style="fill:white; stroke-width:1; stroke:black; " description="&lt;b&gt;ctg14_167&lt;/b&gt;&lt;br&gt;ctg14 167&lt;br&gt;Location: 173649 - 174414" locus_tag="ctg14_167" class="clusterblast-orf" id="knownclusterblast-1_q17_0_all"  />
<polygon points="330,35 335,30 337,30 337,40 335,40 330,35 " style="fill:white; stroke-width:1; stroke:black; " description="&lt;b&gt;ctg14_168&lt;/b&gt;&lt;br&gt;ctg14 168&lt;br&gt;Location: 174556 - 174940" locus_tag="ctg14_168" class="clusterblast-orf" id="knownclusterblast-1_q18_0_all"  />
<polygon points="339,35 344,30 358,30 358,40 344,40 339,35 " style="fill:white; stroke-width:1; stroke:black; " description="&lt;b&gt;ctg14_169&lt;/b&gt;&lt;br&gt;ctg14 169&lt;br&gt;Location: 175054 - 176032" locus_tag="ctg14_169" class="clusterblast-orf" id="knownclusterblast-1_q19_0_all"  />
<polygon points="358,35 363,30 406,30 406,40 363,40 358,35 " style="fill:white; stroke-width:1; stroke:black; " description="&lt;b&gt;ctg14_170&lt;/b&gt;&lt;br&gt;ctg14 170&lt;br&gt;Location: 176028 - 178557" locus_tag="ctg14_170" class="clusterblast-orf" id="knownclusterblast-1_q20_0_all"  />
<polygon points="406,35 411,30 411,30 411,40 411,40 406,35 " style="fill:white; stroke-width:1; stroke:black; " description="&lt;b&gt;ctg14_171&lt;/b&gt;&lt;br&gt;ctg14 171&lt;br&gt;Location: 178540 - 178843" locus_tag="ctg14_171" class="clusterblast-orf" id="knownclusterblast-1_q21_0_all"  />
<polygon points="411,35 416,30 420,30 420,40 416,40 411,35 " style="fill:white; stroke-width:1; stroke:black; " description="&lt;b&gt;ctg14_172&lt;/b&gt;&lt;br&gt;ctg14 172&lt;br&gt;Location: 178835 - 179285" locus_tag="ctg14_172" class="clusterblast-orf" id="knownclusterblast-1_q22_0_all"  />
<polygon points="419,35 424,30 426,30 426,40 424,40 419,35 " style="fill:white; stroke-width:1; stroke:black; " description="&lt;b&gt;ctg14_173&lt;/b&gt;&lt;br&gt;ctg14 173&lt;br&gt;Location: 179247 - 179634" locus_tag="ctg14_173" class="clusterblast-orf" id="knownclusterblast-1_q23_0_all"  />
<polygon points="427,40 438,40 443,35 438,30 427,30 427,40 " style="fill:white; stroke-width:1; stroke:black; " description="&lt;b&gt;ctg14_174&lt;/b&gt;&lt;br&gt;ctg14 174&lt;br&gt;Location: 179674 - 180523" locus_tag="ctg14_174" class="clusterblast-orf" id="knownclusterblast-1_q24_0_all"  />
<polygon points="443,40 472,40 477,35 472,30 443,30 443,40 " style="fill:white; stroke-width:1; stroke:black; " description="&lt;b&gt;ctg14_175&lt;/b&gt;&lt;br&gt;ctg14 175&lt;br&gt;Location: 180519 - 182271" locus_tag="ctg14_175" class="clusterblast-orf" id="knownclusterblast-1_q25_0_all"  />
<polygon points="476,35 481,30 481,30 481,40 481,40 476,35 " style="fill:white; stroke-width:1; stroke:black; " description="&lt;b&gt;ctg14_176&lt;/b&gt;&lt;br&gt;ctg14 176&lt;br&gt;Location: 182242 - 182494" locus_tag="ctg14_176" class="clusterblast-orf" id="knownclusterblast-1_q26_0_all"  />
<polygon points="485,40 495,40 500,35 495,30 485,30 485,40 " style="fill:white; stroke-width:1; stroke:black; " description="&lt;b&gt;ctg14_177&lt;/b&gt;&lt;br&gt;ctg14 177&lt;br&gt;Location: 182733 - 183498" locus_tag="ctg14_177" class="clusterblast-orf" id="knownclusterblast-1_q27_0_all"  />
<polygon points="501,40 505,40 510,35 505,30 501,30 501,40 " style="fill:white; stroke-width:1; stroke:black; " description="&lt;b&gt;ctg14_178&lt;/b&gt;&lt;br&gt;ctg14 178&lt;br&gt;Location: 183570 - 184020" locus_tag="ctg14_178" class="clusterblast-orf" id="knownclusterblast-1_q28_0_all"  />
<polygon points="510,35 515,30 521,30 521,40 515,40 510,35 " style="fill:white; stroke-width:1; stroke:black; " description="&lt;b&gt;ctg14_179&lt;/b&gt;&lt;br&gt;ctg14 179&lt;br&gt;Location: 184029 - 184626" locus_tag="ctg14_179" class="clusterblast-orf" id="knownclusterblast-1_q29_0_all"  />
<polygon points="521,35 526,30 531,30 531,40 526,40 521,35 " style="fill:white; stroke-width:1; stroke:black; " description="&lt;b&gt;ctg14_180&lt;/b&gt;&lt;br&gt;ctg14 180&lt;br&gt;Location: 184622 - 185138" locus_tag="ctg14_180" class="clusterblast-orf" id="knownclusterblast-1_q30_0_all"  />
<polygon points="531,35 536,30 575,30 575,40 536,40 531,35 " style="fill:white; stroke-width:1; stroke:black; " description="&lt;b&gt;ctg14_181&lt;/b&gt;&lt;br&gt;ctg14 181&lt;br&gt;Location: 185134 - 187447" locus_tag="ctg14_181" class="clusterblast-orf" id="knownclusterblast-1_q31_0_all"  />
<polygon points="575,35 580,30 615,30 615,40 580,40 575,35 " style="fill:white; stroke-width:1; stroke:black; " description="&lt;b&gt;ctg14_182&lt;/b&gt;&lt;br&gt;ctg14 182&lt;br&gt;Location: 187454 - 189572" locus_tag="ctg14_182" class="clusterblast-orf" id="knownclusterblast-1_q32_0_all"  />
<polygon points="619,35 624,30 630,30 630,40 624,40 619,35 " style="fill:white; stroke-width:1; stroke:black; " description="&lt;b&gt;ctg14_183&lt;/b&gt;&lt;br&gt;ctg14 183&lt;br&gt;Location: 189763 - 190348" locus_tag="ctg14_183" class="clusterblast-orf" id="knownclusterblast-1_q33_0_all"  />
<polygon points="632,35 637,30 650,30 650,40 637,40 632,35 " style="fill:white; stroke-width:1; stroke:black; " description="&lt;b&gt;ctg14_184&lt;/b&gt;&lt;br&gt;ctg14 184&lt;br&gt;Location: 190437 - 191412" locus_tag="ctg14_184" class="clusterblast-orf" id="knownclusterblast-1_q34_0_all"  />
<polygon points="652,40 667,40 672,35 667,30 652,30 652,40 " style="fill:white; stroke-width:1; stroke:black; " description="&lt;b&gt;ctg14_185&lt;/b&gt;&lt;br&gt;ctg14 185&lt;br&gt;Location: 191510 - 192566" locus_tag="ctg14_185" class="clusterblast-orf" id="knownclusterblast-1_q35_0_all"  />
<polygon points="672,40 678,40 683,35 678,30 672,30 672,40 " style="fill:white; stroke-width:1; stroke:black; " description="&lt;b&gt;ctg14_186&lt;/b&gt;&lt;br&gt;ctg14 186&lt;br&gt;Location: 192562 - 193123" locus_tag="ctg14_186" class="clusterblast-orf" id="knownclusterblast-1_q36_0_all"  />
<polygon points="683,35 688,30 708,30 708,40 688,40 683,35 " style="fill:white; stroke-width:1; stroke:black; " description="&lt;b&gt;ctg14_187&lt;/b&gt;&lt;br&gt;ctg14 187&lt;br&gt;Location: 193139 - 194435" locus_tag="ctg14_187" class="clusterblast-orf" id="knownclusterblast-1_q37_0_all"  />
<polygon points="711,40 757,40 762,35 757,30 711,30 711,40 " style="fill:white; stroke-width:1; stroke:black; " description="&lt;b&gt;ctg14_188&lt;/b&gt;&lt;br&gt;ctg14 188&lt;br&gt;Location: 194638 - 197296" locus_tag="ctg14_188" class="clusterblast-orf" id="knownclusterblast-1_q38_0_all"  />
<polygon points="775,40 775,40 780,35 775,30 775,30 775,40 " style="fill:white; stroke-width:1; stroke:black; " description="&lt;b&gt;ctg14_189&lt;/b&gt;&lt;br&gt;ctg14 189&lt;br&gt;Location: 197981 - 198236" locus_tag="ctg14_189" class="clusterblast-orf" id="knownclusterblast-1_q39_0_all"  />
</g>
</svg>
