<svg xmlns="http://www.w3.org/2000/svg" xmlns:xlink="http://www.w3.org/1999/xlink" version="1.1" x="0" y="0" height="100" width="800" viewBox="0 0 800 100" preserveAspectRatio="none"  >
<g label="Query sequence" class="clusterblast-cluster"  >
<text x="5" y="20" class="clusterblast-acc"  >
Query sequence</text>
<line x1="10" y1="35" x2="778.0" y2="35" style="stroke-width:1; stroke:grey; "  />
<polygon points="0,35 5,30 21,30 21,40 5,40 0,35 " style="fill:white; stroke-width:1; stroke:black; " description="&lt;b&gt;ctg6_279&lt;/b&gt;&lt;br&gt;ctg6 279&lt;br&gt;Location: 305823 - 306639" locus_tag="ctg6_279" class="clusterblast-orf" id="knownclusterblast-1_q0_0_all"  />
<polygon points="25,40 44,40 49,35 44,30 25,30 25,40 " style="fill:white; stroke-width:1; stroke:black; " description="&lt;b&gt;ctg6_280&lt;/b&gt;&lt;br&gt;ctg6 280&lt;br&gt;Location: 306769 - 307714" locus_tag="ctg6_280" class="clusterblast-orf" id="knownclusterblast-1_q1_0_all"  />
<polygon points="52,40 80,40 85,35 80,30 52,30 52,40 " style="fill:white; stroke-width:1; stroke:black; " description="&lt;b&gt;ctg6_281&lt;/b&gt;&lt;br&gt;ctg6 281&lt;br&gt;Location: 307828 - 309088" locus_tag="ctg6_281" class="clusterblast-orf" id="knownclusterblast-1_q2_0_all"  />
<polygon points="88,40 110,40 115,35 110,30 88,30 88,40 " style="fill:white; stroke-width:1; stroke:black; " description="&lt;b&gt;ctg6_282&lt;/b&gt;&lt;br&gt;ctg6 282&lt;br&gt;Location: 309172 - 310213" locus_tag="ctg6_282" class="clusterblast-orf" id="knownclusterblast-1_q3_0_all"  />
<polygon points="116,40 123,40 128,35 123,30 116,30 116,40 " style="fill:white; stroke-width:1; stroke:black; " description="&lt;b&gt;ctg6_283&lt;/b&gt;&lt;br&gt;ctg6 283&lt;br&gt;Location: 310266 - 310710" locus_tag="ctg6_283" class="clusterblast-orf" id="knownclusterblast-1_q4_0_all"  />
<polygon points="128,35 133,30 146,30 146,40 133,40 128,35 " style="fill:white; stroke-width:1; stroke:black; " description="&lt;b&gt;ctg6_284&lt;/b&gt;&lt;br&gt;ctg6 284&lt;br&gt;Location: 310726 - 311416" locus_tag="ctg6_284" class="clusterblast-orf" id="knownclusterblast-1_q5_0_all"  />
<polygon points="146,35 151,30 189,30 189,40 151,40 146,35 " style="fill:white; stroke-width:1; stroke:black; " description="&lt;b&gt;ctg6_285&lt;/b&gt;&lt;br&gt;ctg6 285&lt;br&gt;Location: 311415 - 313047" locus_tag="ctg6_285" class="clusterblast-orf" id="knownclusterblast-1_q6_0_all"  />
<polygon points="189,35 194,30 208,30 208,40 194,40 189,35 " style="fill:white; stroke-width:1; stroke:black; " description="&lt;b&gt;ctg6_286&lt;/b&gt;&lt;br&gt;ctg6 286&lt;br&gt;Location: 313037 - 313772" locus_tag="ctg6_286" class="clusterblast-orf" id="knownclusterblast-1_q7_0_all"  />
<polygon points="208,35 213,30 220,30 220,40 213,40 208,35 " style="fill:white; stroke-width:1; stroke:black; " description="&lt;b&gt;ctg6_287&lt;/b&gt;&lt;br&gt;ctg6 287&lt;br&gt;Location: 313765 - 314221" locus_tag="ctg6_287" class="clusterblast-orf" id="knownclusterblast-1_q8_0_all"  />
<polygon points="220,35 225,30 249,30 249,40 225,40 220,35 " style="fill:white; stroke-width:1; stroke:black; " description="&lt;b&gt;ctg6_288&lt;/b&gt;&lt;br&gt;ctg6 288&lt;br&gt;Location: 314217 - 315309" locus_tag="ctg6_288" class="clusterblast-orf" id="knownclusterblast-1_q9_0_all"  />
<polygon points="250,35 255,30 273,30 273,40 255,40 250,35 " style="fill:white; stroke-width:1; stroke:black; " description="&lt;b&gt;ctg6_289&lt;/b&gt;&lt;br&gt;ctg6 289&lt;br&gt;Location: 315381 - 316257" locus_tag="ctg6_289" class="clusterblast-orf" id="knownclusterblast-1_q10_0_all"  />
<polygon points="275,40 286,40 291,35 286,30 275,30 275,40 " style="fill:white; stroke-width:1; stroke:black; " description="&lt;b&gt;ctg6_290&lt;/b&gt;&lt;br&gt;ctg6 290&lt;br&gt;Location: 316323 - 316935" locus_tag="ctg6_290" class="clusterblast-orf" id="knownclusterblast-1_q11_0_all"  />
<polygon points="291,40 317,40 322,35 317,30 291,30 291,40 " style="fill:white; stroke-width:1; stroke:black; " description="&lt;b&gt;ctg6_291&lt;/b&gt;&lt;br&gt;ctg6 291&lt;br&gt;Location: 316935 - 318114" locus_tag="ctg6_291" class="clusterblast-orf" id="knownclusterblast-1_q12_0_all"  />
<polygon points="321,40 348,40 353,35 348,30 321,30 321,40 " style="fill:white; stroke-width:1; stroke:black; " description="&lt;b&gt;ctg6_292&lt;/b&gt;&lt;br&gt;ctg6 292&lt;br&gt;Location: 318080 - 319271" locus_tag="ctg6_292" class="clusterblast-orf" id="knownclusterblast-1_q13_0_all"  />
<polygon points="354,40 396,40 401,35 396,30 354,30 354,40 " style="fill:white; stroke-width:1; stroke:black; " description="&lt;b&gt;ctg6_293&lt;/b&gt;&lt;br&gt;ctg6 293&lt;br&gt;Location: 319341 - 321105" locus_tag="ctg6_293" class="clusterblast-orf" id="knownclusterblast-1_q14_0_all"  />
<polygon points="402,40 406,35 402,30 402,40 " style="fill:white; stroke-width:1; stroke:black; " description="&lt;b&gt;ctg6_294&lt;/b&gt;&lt;br&gt;ctg6 294&lt;br&gt;Location: 321176 - 321296" locus_tag="ctg6_294" class="clusterblast-orf" id="knownclusterblast-1_q15_0_all"  />
<polygon points="410,35 415,30 441,30 441,40 415,40 410,35 " style="fill:white; stroke-width:1; stroke:black; " description="&lt;b&gt;ctg6_295&lt;/b&gt;&lt;br&gt;ctg6 295&lt;br&gt;Location: 321451 - 322636" locus_tag="ctg6_295" class="clusterblast-orf" id="knownclusterblast-1_q16_0_all"  />
<polygon points="441,35 446,30 484,30 484,40 446,40 441,35 " style="fill:white; stroke-width:1; stroke:black; " description="&lt;b&gt;ctg6_296&lt;/b&gt;&lt;br&gt;ctg6 296&lt;br&gt;Location: 322641 - 324276" locus_tag="ctg6_296" class="clusterblast-orf" id="knownclusterblast-1_q17_0_all"  />
<polygon points="484,35 489,30 490,30 490,40 489,40 484,35 " style="fill:white; stroke-width:1; stroke:black; " description="&lt;b&gt;ctg6_297&lt;/b&gt;&lt;br&gt;ctg6 297&lt;br&gt;Location: 324272 - 324518" locus_tag="ctg6_297" class="clusterblast-orf" id="knownclusterblast-1_q18_0_all"  />
<polygon points="490,35 495,30 503,30 503,40 495,40 490,35 " style="fill:#d81515; stroke-width:1; stroke:black; " description="&lt;b&gt;ctg6_298&lt;/b&gt;&lt;br&gt;ctg6 298&lt;br&gt;Location: 324514 - 325012" locus_tag="ctg6_298" class="clusterblast-orf" id="knownclusterblast-1_q19_0_all"  />
<polygon points="503,35 508,30 531,30 531,40 508,40 503,35 " style="fill:#15d8d8; stroke-width:1; stroke:black; " description="&lt;b&gt;ctg6_299&lt;/b&gt;&lt;br&gt;ctg6 299&lt;br&gt;Location: 325011 - 326088" locus_tag="ctg6_299" class="clusterblast-orf" id="knownclusterblast-1_q20_0_all"  />
<polygon points="531,35 536,30 553,30 553,40 536,40 531,35 " style="fill:white; stroke-width:1; stroke:black; " description="&lt;b&gt;ctg6_300&lt;/b&gt;&lt;br&gt;ctg6 300&lt;br&gt;Location: 326087 - 326903" locus_tag="ctg6_300" class="clusterblast-orf" id="knownclusterblast-1_q21_0_all"  />
<polygon points="555,35 560,30 561,30 561,40 560,40 555,35 " style="fill:white; stroke-width:1; stroke:black; " description="&lt;b&gt;ctg6_301&lt;/b&gt;&lt;br&gt;ctg6 301&lt;br&gt;Location: 326978 - 327236" locus_tag="ctg6_301" class="clusterblast-orf" id="knownclusterblast-1_q22_0_all"  />
<polygon points="565,40 573,40 578,35 573,30 565,30 565,40 " style="fill:white; stroke-width:1; stroke:black; " description="&lt;b&gt;ctg6_302&lt;/b&gt;&lt;br&gt;ctg6 302&lt;br&gt;Location: 327385 - 327850" locus_tag="ctg6_302" class="clusterblast-orf" id="knownclusterblast-1_q23_0_all"  />
<polygon points="580,40 616,40 621,35 616,30 580,30 580,40 " style="fill:white; stroke-width:1; stroke:black; " description="&lt;b&gt;ctg6_303&lt;/b&gt;&lt;br&gt;ctg6 303&lt;br&gt;Location: 327927 - 329514" locus_tag="ctg6_303" class="clusterblast-orf" id="knownclusterblast-1_q24_0_all"  />
<polygon points="621,35 626,30 660,30 660,40 626,40 621,35 " style="fill:white; stroke-width:1; stroke:black; " description="&lt;b&gt;ctg6_304&lt;/b&gt;&lt;br&gt;ctg6 304&lt;br&gt;Location: 329510 - 330992" locus_tag="ctg6_304" class="clusterblast-orf" id="knownclusterblast-1_q25_0_all"  />
<polygon points="662,35 667,30 684,30 684,40 667,40 662,35 " style="fill:white; stroke-width:1; stroke:black; " description="&lt;b&gt;ctg6_305&lt;/b&gt;&lt;br&gt;ctg6 305&lt;br&gt;Location: 331058 - 331895" locus_tag="ctg6_305" class="clusterblast-orf" id="knownclusterblast-1_q26_0_all"  />
<polygon points="687,40 734,40 739,35 734,30 687,30 687,40 " style="fill:white; stroke-width:1; stroke:black; " description="&lt;b&gt;ctg6_306&lt;/b&gt;&lt;br&gt;ctg6 306&lt;br&gt;Location: 332011 - 334015" locus_tag="ctg6_306" class="clusterblast-orf" id="knownclusterblast-1_q27_0_all"  />
<polygon points="743,35 748,30 762,30 762,40 748,40 743,35 " style="fill:white; stroke-width:1; stroke:black; " description="&lt;b&gt;ctg6_307&lt;/b&gt;&lt;br&gt;ctg6 307&lt;br&gt;Location: 334172 - 334868" locus_tag="ctg6_307" class="clusterblast-orf" id="knownclusterblast-1_q28_0_all"  />
<polygon points="763,35 768,30 780,30 780,40 768,40 763,35 " style="fill:white; stroke-width:1; stroke:black; " description="&lt;b&gt;ctg6_308&lt;/b&gt;&lt;br&gt;ctg6 308&lt;br&gt;Location: 334910 - 335558" locus_tag="ctg6_308" class="clusterblast-orf" id="knownclusterblast-1_q29_0_all"  />
</g>
<g label="BGC0000282" description="BGC0000282_c1: alkylresorcinol (66% of genes show similarity), Polyketide" class="clusterblast-cluster"  >
<text x="5" y="70" class="clusterblast-acc"  >
<a xlink:href="https://mibig.secondarymetabolites.org/go/BGC0000282/1" target="_blank">BGC0000282</a>: alkylresorcinol                                                                  (66% of genes show similarity), Polyketide</text>
<line x1="10" y1="85" x2="778.0" y2="85" style="stroke-width:1; stroke:grey; "  />
</g>
<g id="a1_000"  >
<polygon points="355,85 360,80 382,80 382,90 360,90 355,85 " style="fill:white; stroke-width:1; stroke:black; " description="&lt;b&gt;SGR_470&lt;/b&gt;&lt;br&gt;monooxygenase&lt;br&gt;Location: 1 - 1017" locus_tag="SGR_470" class="clusterblast-orf" id="knownclusterblast-1_all_1_1_0"  />
</g>
<g id="a1_001"  >
<polygon points="382,85 387,80 396,80 396,90 387,90 382,85 " style="fill:#d81515; stroke-width:1; stroke:black; " description="&lt;b&gt;SGR_471&lt;/b&gt;&lt;br&gt;methyltransferase&lt;br&gt;Location: 1014 - 1547&lt;br&gt;&lt;br&gt;&lt;b&gt;BlastP hit with ctg6_298&lt;/b&gt;&lt;br&gt;Percentage identity: 50&lt;br&gt;Percentage coverage: 101&lt;br&gt;BLAST bit score: 147&lt;br&gt;E-value: 2.36e-45" locus_tag="SGR_471" class="clusterblast-orf" id="knownclusterblast-1_all_1_1_1"  />
</g>
<g id="a1_002"  >
<polygon points="396,85 401,80 424,80 424,90 401,90 396,85 " style="fill:#15d8d8; stroke-width:1; stroke:black; " description="&lt;b&gt;SGR_472&lt;/b&gt;&lt;br&gt;type-III PKS&lt;br&gt;Location: 1561 - 2613&lt;br&gt;&lt;br&gt;&lt;b&gt;BlastP hit with ctg6_299&lt;/b&gt;&lt;br&gt;Percentage identity: 47&lt;br&gt;Percentage coverage: 90&lt;br&gt;BLAST bit score: 275&lt;br&gt;E-value: 3.04e-90" locus_tag="SGR_472" class="clusterblast-orf" id="knownclusterblast-1_all_1_1_2"  />
</g>
</svg>
