<svg xmlns="http://www.w3.org/2000/svg" xmlns:xlink="http://www.w3.org/1999/xlink" version="1.1" x="0" y="0" height="50" width="800" viewBox="0 0 800 50" preserveAspectRatio="none"  >
<g label="Query sequence" class="clusterblast-cluster"  >
<text x="5" y="20" class="clusterblast-acc"  >
Query sequence</text>
<line x1="10" y1="35" x2="778.0" y2="35" style="stroke-width:1; stroke:grey; "  />
<polygon points="0,40 31,40 36,35 31,30 0,30 0,40 " style="fill:white; stroke-width:1; stroke:black; " description="&lt;b&gt;ctg28_4&lt;/b&gt;&lt;br&gt;ctg28 4&lt;br&gt;Location: 4567 - 6031" locus_tag="ctg28_4" class="clusterblast-orf" id="knownclusterblast-1_q0_0_all"  />
<polygon points="36,40 63,40 68,35 63,30 36,30 36,40 " style="fill:white; stroke-width:1; stroke:black; " description="&lt;b&gt;ctg28_5&lt;/b&gt;&lt;br&gt;ctg28 5&lt;br&gt;Location: 6027 - 7326" locus_tag="ctg28_5" class="clusterblast-orf" id="knownclusterblast-1_q1_0_all"  />
<polygon points="68,40 85,40 90,35 85,30 68,30 68,40 " style="fill:white; stroke-width:1; stroke:black; " description="&lt;b&gt;ctg28_6&lt;/b&gt;&lt;br&gt;ctg28 6&lt;br&gt;Location: 7318 - 8191" locus_tag="ctg28_6" class="clusterblast-orf" id="knownclusterblast-1_q2_0_all"  />
<polygon points="90,40 139,40 144,35 139,30 90,30 90,40 " style="fill:white; stroke-width:1; stroke:black; " description="&lt;b&gt;ctg28_7&lt;/b&gt;&lt;br&gt;ctg28 7&lt;br&gt;Location: 8187 - 10362" locus_tag="ctg28_7" class="clusterblast-orf" id="knownclusterblast-1_q3_0_all"  />
<polygon points="143,40 208,40 213,35 208,30 143,30 143,40 " style="fill:white; stroke-width:1; stroke:black; " description="&lt;b&gt;ctg28_8&lt;/b&gt;&lt;br&gt;ctg28 8&lt;br&gt;Location: 10358 - 13169" locus_tag="ctg28_8" class="clusterblast-orf" id="knownclusterblast-1_q4_0_all"  />
<polygon points="214,40 220,40 225,35 220,30 214,30 214,40 " style="fill:white; stroke-width:1; stroke:black; " description="&lt;b&gt;ctg28_9&lt;/b&gt;&lt;br&gt;ctg28 9&lt;br&gt;Location: 13201 - 13645" locus_tag="ctg28_9" class="clusterblast-orf" id="knownclusterblast-1_q5_0_all"  />
<polygon points="226,40 296,40 301,35 296,30 226,30 226,40 " style="fill:white; stroke-width:1; stroke:black; " description="&lt;b&gt;ctg28_10&lt;/b&gt;&lt;br&gt;ctg28 10&lt;br&gt;Location: 13694 - 16700" locus_tag="ctg28_10" class="clusterblast-orf" id="knownclusterblast-1_q6_0_all"  />
<polygon points="301,40 330,40 335,35 330,30 301,30 301,40 " style="fill:white; stroke-width:1; stroke:black; " description="&lt;b&gt;ctg28_11&lt;/b&gt;&lt;br&gt;ctg28 11&lt;br&gt;Location: 16701 - 18090" locus_tag="ctg28_11" class="clusterblast-orf" id="knownclusterblast-1_q7_0_all"  />
<polygon points="339,40 348,40 353,35 348,30 339,30 339,40 " style="fill:white; stroke-width:1; stroke:black; " description="&lt;b&gt;ctg28_12&lt;/b&gt;&lt;br&gt;ctg28 12&lt;br&gt;Location: 18239 - 18791" locus_tag="ctg28_12" class="clusterblast-orf" id="knownclusterblast-1_q8_0_all"  />
<polygon points="355,40 384,40 389,35 384,30 355,30 355,40 " style="fill:white; stroke-width:1; stroke:black; " description="&lt;b&gt;ctg28_13&lt;/b&gt;&lt;br&gt;ctg28 13&lt;br&gt;Location: 18883 - 20251" locus_tag="ctg28_13" class="clusterblast-orf" id="knownclusterblast-1_q9_0_all"  />
<polygon points="389,40 432,40 437,35 432,30 389,30 389,40 " style="fill:white; stroke-width:1; stroke:black; " description="&lt;b&gt;ctg28_14&lt;/b&gt;&lt;br&gt;ctg28 14&lt;br&gt;Location: 20247 - 22173" locus_tag="ctg28_14" class="clusterblast-orf" id="knownclusterblast-1_q10_0_all"  />
<polygon points="437,35 442,30 460,30 460,40 442,40 437,35 " style="fill:white; stroke-width:1; stroke:black; " description="&lt;b&gt;ctg28_15&lt;/b&gt;&lt;br&gt;ctg28 15&lt;br&gt;Location: 22189 - 23098" locus_tag="ctg28_15" class="clusterblast-orf" id="knownclusterblast-1_q11_0_all"  />
<polygon points="461,40 483,40 488,35 483,30 461,30 461,40 " style="fill:white; stroke-width:1; stroke:black; " description="&lt;b&gt;ctg28_16&lt;/b&gt;&lt;br&gt;ctg28 16&lt;br&gt;Location: 23155 - 24256" locus_tag="ctg28_16" class="clusterblast-orf" id="knownclusterblast-1_q12_0_all"  />
<polygon points="490,40 494,40 499,35 494,30 490,30 490,40 " style="fill:white; stroke-width:1; stroke:black; " description="&lt;b&gt;ctg28_17&lt;/b&gt;&lt;br&gt;ctg28 17&lt;br&gt;Location: 24320 - 24692" locus_tag="ctg28_17" class="clusterblast-orf" id="knownclusterblast-1_q13_0_all"  />
<polygon points="499,40 513,40 518,35 513,30 499,30 499,40 " style="fill:white; stroke-width:1; stroke:black; " description="&lt;b&gt;ctg28_18&lt;/b&gt;&lt;br&gt;ctg28 18&lt;br&gt;Location: 24688 - 25459" locus_tag="ctg28_18" class="clusterblast-orf" id="knownclusterblast-1_q14_0_all"  />
<polygon points="519,35 524,30 538,30 538,40 524,40 519,35 " style="fill:white; stroke-width:1; stroke:black; " description="&lt;b&gt;ctg28_19&lt;/b&gt;&lt;br&gt;ctg28 19&lt;br&gt;Location: 25477 - 26245" locus_tag="ctg28_19" class="clusterblast-orf" id="knownclusterblast-1_q15_0_all"  />
<polygon points="537,35 542,30 585,30 585,40 542,40 537,35 " style="fill:white; stroke-width:1; stroke:black; " description="&lt;b&gt;ctg28_20&lt;/b&gt;&lt;br&gt;ctg28 20&lt;br&gt;Location: 26241 - 28155" locus_tag="ctg28_20" class="clusterblast-orf" id="knownclusterblast-1_q16_0_all"  />
<polygon points="586,40 616,40 621,35 616,30 586,30 586,40 " style="fill:white; stroke-width:1; stroke:black; " description="&lt;b&gt;ctg28_21&lt;/b&gt;&lt;br&gt;ctg28 21&lt;br&gt;Location: 28212 - 29619" locus_tag="ctg28_21" class="clusterblast-orf" id="knownclusterblast-1_q17_0_all"  />
<polygon points="621,40 663,40 668,35 663,30 621,30 621,40 " style="fill:white; stroke-width:1; stroke:black; " description="&lt;b&gt;ctg28_22&lt;/b&gt;&lt;br&gt;ctg28 22&lt;br&gt;Location: 29615 - 31490" locus_tag="ctg28_22" class="clusterblast-orf" id="knownclusterblast-1_q18_0_all"  />
<polygon points="668,40 714,40 719,35 714,30 668,30 668,40 " style="fill:white; stroke-width:1; stroke:black; " description="&lt;b&gt;ctg28_23&lt;/b&gt;&lt;br&gt;ctg28 23&lt;br&gt;Location: 31506 - 33546" locus_tag="ctg28_23" class="clusterblast-orf" id="knownclusterblast-1_q19_0_all"  />
<polygon points="719,35 724,30 741,30 741,40 724,40 719,35 " style="fill:white; stroke-width:1; stroke:black; " description="&lt;b&gt;ctg28_24&lt;/b&gt;&lt;br&gt;ctg28 24&lt;br&gt;Location: 33553 - 34426" locus_tag="ctg28_24" class="clusterblast-orf" id="knownclusterblast-1_q20_0_all"  />
<polygon points="749,40 770,40 775,35 770,30 749,30 749,40 " style="fill:white; stroke-width:1; stroke:black; " description="&lt;b&gt;ctg28_25&lt;/b&gt;&lt;br&gt;ctg28 25&lt;br&gt;Location: 34747 - 35827" locus_tag="ctg28_25" class="clusterblast-orf" id="knownclusterblast-1_q21_0_all"  />
<polygon points="776,35 780,30 780,40 776,35 " style="fill:white; stroke-width:1; stroke:black; " description="&lt;b&gt;ctg28_26&lt;/b&gt;&lt;br&gt;ctg28 26&lt;br&gt;Location: 35843 - 36005" locus_tag="ctg28_26" class="clusterblast-orf" id="knownclusterblast-1_q22_0_all"  />
</g>
</svg>
