<svg xmlns="http://www.w3.org/2000/svg" xmlns:xlink="http://www.w3.org/1999/xlink" version="1.1" x="0" y="0" height="50" width="800" viewBox="0 0 800 50" preserveAspectRatio="none"  >
<g label="Query sequence" class="clusterblast-cluster"  >
<text x="5" y="20" class="clusterblast-acc"  >
Query sequence</text>
<line x1="10" y1="35" x2="778.0" y2="35" style="stroke-width:1; stroke:grey; "  />
<polygon points="0,35 5,30 28,30 28,40 5,40 0,35 " style="fill:white; stroke-width:1; stroke:black; " description="&lt;b&gt;ctg31_101&lt;/b&gt;&lt;br&gt;ctg31 101&lt;br&gt;Location: 99874 - 100558" locus_tag="ctg31_101" class="clusterblast-orf" id="knownclusterblast-1_q0_0_all"  />
<polygon points="33,40 35,40 40,35 35,30 33,30 33,40 " style="fill:white; stroke-width:1; stroke:black; " description="&lt;b&gt;ctg31_102&lt;/b&gt;&lt;br&gt;ctg31 102&lt;br&gt;Location: 100676 - 100838" locus_tag="ctg31_102" class="clusterblast-orf" id="knownclusterblast-1_q1_0_all"  />
<polygon points="56,40 62,40 67,35 62,30 56,30 56,40 " style="fill:white; stroke-width:1; stroke:black; " description="&lt;b&gt;ctg31_103&lt;/b&gt;&lt;br&gt;ctg31 103&lt;br&gt;Location: 101218 - 101476" locus_tag="ctg31_103" class="clusterblast-orf" id="knownclusterblast-1_q2_0_all"  />
<polygon points="112,35 117,30 132,30 132,40 117,40 112,35 " style="fill:white; stroke-width:1; stroke:black; " description="&lt;b&gt;ctg31_104&lt;/b&gt;&lt;br&gt;ctg31 104&lt;br&gt;Location: 102567 - 103044" locus_tag="ctg31_104" class="clusterblast-orf" id="knownclusterblast-1_q3_0_all"  />
<polygon points="149,40 207,40 212,35 207,30 149,30 149,40 " style="fill:white; stroke-width:1; stroke:black; " description="&lt;b&gt;ctg31_105&lt;/b&gt;&lt;br&gt;ctg31 105&lt;br&gt;Location: 103446 - 104958" locus_tag="ctg31_105" class="clusterblast-orf" id="knownclusterblast-1_q4_0_all"  />
<polygon points="215,35 220,30 227,30 227,40 220,40 215,35 " style="fill:white; stroke-width:1; stroke:black; " description="&lt;b&gt;ctg31_106&lt;/b&gt;&lt;br&gt;ctg31 106&lt;br&gt;Location: 105022 - 105310" locus_tag="ctg31_106" class="clusterblast-orf" id="knownclusterblast-1_q5_0_all"  />
<polygon points="228,35 233,30 250,30 250,40 233,40 228,35 " style="fill:white; stroke-width:1; stroke:black; " description="&lt;b&gt;ctg31_107&lt;/b&gt;&lt;br&gt;ctg31 107&lt;br&gt;Location: 105332 - 105872" locus_tag="ctg31_107" class="clusterblast-orf" id="knownclusterblast-1_q6_0_all"  />
<polygon points="273,35 278,30 285,30 285,40 278,40 273,35 " style="fill:white; stroke-width:1; stroke:black; " description="&lt;b&gt;ctg31_108&lt;/b&gt;&lt;br&gt;ctg31 108&lt;br&gt;Location: 106413 - 106701" locus_tag="ctg31_108" class="clusterblast-orf" id="knownclusterblast-1_q7_0_all"  />
<polygon points="289,40 323,40 328,35 323,30 289,30 289,40 " style="fill:white; stroke-width:1; stroke:black; " description="&lt;b&gt;ctg31_109&lt;/b&gt;&lt;br&gt;ctg31 109&lt;br&gt;Location: 106806 - 107745" locus_tag="ctg31_109" class="clusterblast-orf" id="knownclusterblast-1_q8_0_all"  />
<polygon points="327,35 332,30 362,30 362,40 332,40 327,35 " style="fill:white; stroke-width:1; stroke:black; " description="&lt;b&gt;ctg31_110&lt;/b&gt;&lt;br&gt;ctg31 110&lt;br&gt;Location: 107707 - 108541" locus_tag="ctg31_110" class="clusterblast-orf" id="knownclusterblast-1_q9_0_all"  />
<polygon points="366,40 386,40 391,35 386,30 366,30 366,40 " style="fill:white; stroke-width:1; stroke:black; " description="&lt;b&gt;ctg31_111&lt;/b&gt;&lt;br&gt;ctg31 111&lt;br&gt;Location: 108645 - 109254" locus_tag="ctg31_111" class="clusterblast-orf" id="knownclusterblast-1_q10_0_all"  />
<polygon points="393,40 429,40 434,35 429,30 393,30 393,40 " style="fill:white; stroke-width:1; stroke:black; " description="&lt;b&gt;ctg31_112&lt;/b&gt;&lt;br&gt;ctg31 112&lt;br&gt;Location: 109290 - 110268" locus_tag="ctg31_112" class="clusterblast-orf" id="knownclusterblast-1_q11_0_all"  />
<polygon points="439,40 458,40 463,35 458,30 439,30 439,40 " style="fill:white; stroke-width:1; stroke:black; " description="&lt;b&gt;ctg31_113&lt;/b&gt;&lt;br&gt;ctg31 113&lt;br&gt;Location: 110397 - 110973" locus_tag="ctg31_113" class="clusterblast-orf" id="knownclusterblast-1_q12_0_all"  />
<polygon points="463,35 468,30 480,30 480,40 468,40 463,35 " style="fill:white; stroke-width:1; stroke:black; " description="&lt;b&gt;ctg31_114&lt;/b&gt;&lt;br&gt;ctg31 114&lt;br&gt;Location: 110969 - 111368" locus_tag="ctg31_114" class="clusterblast-orf" id="knownclusterblast-1_q13_0_all"  />
<polygon points="481,35 486,30 503,30 503,40 486,40 481,35 " style="fill:white; stroke-width:1; stroke:black; " description="&lt;b&gt;ctg31_115&lt;/b&gt;&lt;br&gt;ctg31 115&lt;br&gt;Location: 111404 - 111938" locus_tag="ctg31_115" class="clusterblast-orf" id="knownclusterblast-1_q14_0_all"  />
<polygon points="505,40 635,40 640,35 635,30 505,30 505,40 " style="fill:white; stroke-width:1; stroke:black; " description="&lt;b&gt;ctg31_116&lt;/b&gt;&lt;br&gt;ctg31 116&lt;br&gt;Location: 111972 - 115203" locus_tag="ctg31_116" class="clusterblast-orf" id="knownclusterblast-1_q15_0_all"  />
<polygon points="648,35 653,30 675,30 675,40 653,40 648,35 " style="fill:white; stroke-width:1; stroke:black; " description="&lt;b&gt;ctg31_117&lt;/b&gt;&lt;br&gt;ctg31 117&lt;br&gt;Location: 115407 - 116052" locus_tag="ctg31_117" class="clusterblast-orf" id="knownclusterblast-1_q16_0_all"  />
<polygon points="678,35 683,30 720,30 720,40 683,40 678,35 " style="fill:white; stroke-width:1; stroke:black; " description="&lt;b&gt;ctg31_118&lt;/b&gt;&lt;br&gt;ctg31 118&lt;br&gt;Location: 116125 - 117139" locus_tag="ctg31_118" class="clusterblast-orf" id="knownclusterblast-1_q17_0_all"  />
<polygon points="721,35 725,30 725,40 721,35 " style="fill:white; stroke-width:1; stroke:black; " description="&lt;b&gt;ctg31_119&lt;/b&gt;&lt;br&gt;ctg31 119&lt;br&gt;Location: 117151 - 117250" locus_tag="ctg31_119" class="clusterblast-orf" id="knownclusterblast-1_q18_0_all"  />
<polygon points="731,35 736,30 752,30 752,40 736,40 731,35 " style="fill:white; stroke-width:1; stroke:black; " description="&lt;b&gt;ctg31_120&lt;/b&gt;&lt;br&gt;ctg31 120&lt;br&gt;Location: 117386 - 117902" locus_tag="ctg31_120" class="clusterblast-orf" id="knownclusterblast-1_q19_0_all"  />
<polygon points="756,40 775,40 780,35 775,30 756,30 756,40 " style="fill:white; stroke-width:1; stroke:black; " description="&lt;b&gt;ctg31_121&lt;/b&gt;&lt;br&gt;ctg31 121&lt;br&gt;Location: 118000 - 118564" locus_tag="ctg31_121" class="clusterblast-orf" id="knownclusterblast-1_q20_0_all"  />
</g>
</svg>
