<svg xmlns="http://www.w3.org/2000/svg" xmlns:xlink="http://www.w3.org/1999/xlink" version="1.1" x="0" y="0" height="50" width="800" viewBox="0 0 800 50" preserveAspectRatio="none"  >
<g label="Query sequence" class="clusterblast-cluster"  >
<text x="5" y="20" class="clusterblast-acc"  >
Query sequence</text>
<line x1="10" y1="35" x2="778.0" y2="35" style="stroke-width:1; stroke:grey; "  />
<polygon points="0,35 5,30 33,30 33,40 5,40 0,35 " style="fill:white; stroke-width:1; stroke:black; " description="&lt;b&gt;ctg11_197&lt;/b&gt;&lt;br&gt;ctg11 197&lt;br&gt;Location: 221962 - 222916" locus_tag="ctg11_197" class="clusterblast-orf" id="knownclusterblast-2_q0_0_all"  />
<polygon points="36,35 39,30 39,40 36,35 " style="fill:white; stroke-width:1; stroke:black; " description="&lt;b&gt;ctg11_198&lt;/b&gt;&lt;br&gt;ctg11 198&lt;br&gt;Location: 222977 - 223073" locus_tag="ctg11_198" class="clusterblast-orf" id="knownclusterblast-2_q1_0_all"  />
<polygon points="43,40 115,40 120,35 115,30 43,30 43,40 " style="fill:white; stroke-width:1; stroke:black; " description="&lt;b&gt;ctg11_199&lt;/b&gt;&lt;br&gt;ctg11 199&lt;br&gt;Location: 223189 - 225376" locus_tag="ctg11_199" class="clusterblast-orf" id="knownclusterblast-2_q2_0_all"  />
<polygon points="121,35 126,30 193,30 193,40 126,40 121,35 " style="fill:white; stroke-width:1; stroke:black; " description="&lt;b&gt;ctg11_200&lt;/b&gt;&lt;br&gt;ctg11 200&lt;br&gt;Location: 225394 - 227449" locus_tag="ctg11_200" class="clusterblast-orf" id="knownclusterblast-2_q3_0_all"  />
<polygon points="193,35 198,30 203,30 203,40 198,40 193,35 " style="fill:white; stroke-width:1; stroke:black; " description="&lt;b&gt;ctg11_201&lt;/b&gt;&lt;br&gt;ctg11 201&lt;br&gt;Location: 227445 - 227724" locus_tag="ctg11_201" class="clusterblast-orf" id="knownclusterblast-2_q4_0_all"  />
<polygon points="202,35 207,30 264,30 264,40 207,40 202,35 " style="fill:white; stroke-width:1; stroke:black; " description="&lt;b&gt;ctg11_202&lt;/b&gt;&lt;br&gt;ctg11 202&lt;br&gt;Location: 227707 - 229462" locus_tag="ctg11_202" class="clusterblast-orf" id="knownclusterblast-2_q5_0_all"  />
<polygon points="267,35 272,30 333,30 333,40 272,40 267,35 " style="fill:white; stroke-width:1; stroke:black; " description="&lt;b&gt;ctg11_203&lt;/b&gt;&lt;br&gt;ctg11 203&lt;br&gt;Location: 229562 - 231434" locus_tag="ctg11_203" class="clusterblast-orf" id="knownclusterblast-2_q6_0_all"  />
<polygon points="335,40 379,40 384,35 379,30 335,30 335,40 " style="fill:white; stroke-width:1; stroke:black; " description="&lt;b&gt;ctg11_204&lt;/b&gt;&lt;br&gt;ctg11 204&lt;br&gt;Location: 231484 - 232861" locus_tag="ctg11_204" class="clusterblast-orf" id="knownclusterblast-2_q7_0_all"  />
<polygon points="383,40 405,40 410,35 405,30 383,30 383,40 " style="fill:white; stroke-width:1; stroke:black; " description="&lt;b&gt;ctg11_205&lt;/b&gt;&lt;br&gt;ctg11 205&lt;br&gt;Location: 232857 - 233616" locus_tag="ctg11_205" class="clusterblast-orf" id="knownclusterblast-2_q8_0_all"  />
<polygon points="410,35 415,30 429,30 429,40 415,40 410,35 " style="fill:white; stroke-width:1; stroke:black; " description="&lt;b&gt;ctg11_206&lt;/b&gt;&lt;br&gt;ctg11 206&lt;br&gt;Location: 233608 - 234160" locus_tag="ctg11_206" class="clusterblast-orf" id="knownclusterblast-2_q9_0_all"  />
<polygon points="436,35 441,30 450,30 450,40 441,40 436,35 " style="fill:white; stroke-width:1; stroke:black; " description="&lt;b&gt;ctg11_207&lt;/b&gt;&lt;br&gt;ctg11 207&lt;br&gt;Location: 234338 - 234743" locus_tag="ctg11_207" class="clusterblast-orf" id="knownclusterblast-2_q10_0_all"  />
<polygon points="453,35 458,30 521,30 521,40 458,40 453,35 " style="fill:white; stroke-width:1; stroke:black; " description="&lt;b&gt;ctg11_208&lt;/b&gt;&lt;br&gt;ctg11 208&lt;br&gt;Location: 234838 - 236752" locus_tag="ctg11_208" class="clusterblast-orf" id="knownclusterblast-2_q11_0_all"  />
<polygon points="520,35 525,30 562,30 562,40 525,40 520,35 " style="fill:white; stroke-width:1; stroke:black; " description="&lt;b&gt;ctg11_209&lt;/b&gt;&lt;br&gt;ctg11 209&lt;br&gt;Location: 236748 - 237921" locus_tag="ctg11_209" class="clusterblast-orf" id="knownclusterblast-2_q12_0_all"  />
<polygon points="562,35 567,30 593,30 593,40 567,40 562,35 " style="fill:white; stroke-width:1; stroke:black; " description="&lt;b&gt;ctg11_210&lt;/b&gt;&lt;br&gt;ctg11 210&lt;br&gt;Location: 237917 - 238820" locus_tag="ctg11_210" class="clusterblast-orf" id="knownclusterblast-2_q13_0_all"  />
<polygon points="593,35 598,30 653,30 653,40 598,40 593,35 " style="fill:white; stroke-width:1; stroke:black; " description="&lt;b&gt;ctg11_211&lt;/b&gt;&lt;br&gt;ctg11 211&lt;br&gt;Location: 238804 - 240529" locus_tag="ctg11_211" class="clusterblast-orf" id="knownclusterblast-2_q14_0_all"  />
<polygon points="662,40 665,40 670,35 665,30 662,30 662,40 " style="fill:white; stroke-width:1; stroke:black; " description="&lt;b&gt;ctg11_212&lt;/b&gt;&lt;br&gt;ctg11 212&lt;br&gt;Location: 240771 - 241011" locus_tag="ctg11_212" class="clusterblast-orf" id="knownclusterblast-2_q15_0_all"  />
<polygon points="690,40 752,40 757,35 752,30 690,30 690,40 " style="fill:white; stroke-width:1; stroke:black; " description="&lt;b&gt;ctg11_213&lt;/b&gt;&lt;br&gt;ctg11 213&lt;br&gt;Location: 241566 - 243465" locus_tag="ctg11_213" class="clusterblast-orf" id="knownclusterblast-2_q16_0_all"  />
<polygon points="759,35 764,30 780,30 780,40 764,40 759,35 " style="fill:white; stroke-width:1; stroke:black; " description="&lt;b&gt;ctg11_214&lt;/b&gt;&lt;br&gt;ctg11 214&lt;br&gt;Location: 243513 - 244119" locus_tag="ctg11_214" class="clusterblast-orf" id="knownclusterblast-2_q17_0_all"  />
</g>
</svg>
