<svg xmlns="http://www.w3.org/2000/svg" xmlns:xlink="http://www.w3.org/1999/xlink" version="1.1" x="0" y="0" height="50" width="800" viewBox="0 0 800 50" preserveAspectRatio="none"  >
<g label="Query sequence" class="clusterblast-cluster"  >
<text x="5" y="20" class="clusterblast-acc"  >
Query sequence</text>
<line x1="10" y1="35" x2="778.0" y2="35" style="stroke-width:1; stroke:grey; "  />
<polygon points="0,40 48,40 53,35 48,30 0,30 0,40 " style="fill:white; stroke-width:1; stroke:black; " description="&lt;b&gt;ctg7_118&lt;/b&gt;&lt;br&gt;ctg7 118&lt;br&gt;Location: 142625 - 143273" locus_tag="ctg7_118" class="clusterblast-orf" id="knownclusterblast-2_q0_0_all"  />
<polygon points="53,40 145,40 150,35 145,30 53,30 53,40 " style="fill:white; stroke-width:1; stroke:black; " description="&lt;b&gt;ctg7_119&lt;/b&gt;&lt;br&gt;ctg7 119&lt;br&gt;Location: 143281 - 144475" locus_tag="ctg7_119" class="clusterblast-orf" id="knownclusterblast-2_q1_0_all"  />
<polygon points="152,40 242,40 247,35 242,30 152,30 152,40 " style="fill:white; stroke-width:1; stroke:black; " description="&lt;b&gt;ctg7_120&lt;/b&gt;&lt;br&gt;ctg7 120&lt;br&gt;Location: 144502 - 145672" locus_tag="ctg7_120" class="clusterblast-orf" id="knownclusterblast-2_q2_0_all"  />
<polygon points="252,40 309,40 314,35 309,30 252,30 252,40 " style="fill:white; stroke-width:1; stroke:black; " description="&lt;b&gt;ctg7_121&lt;/b&gt;&lt;br&gt;ctg7 121&lt;br&gt;Location: 145731 - 146505" locus_tag="ctg7_121" class="clusterblast-orf" id="knownclusterblast-2_q3_0_all"  />
<polygon points="320,40 352,40 357,35 352,30 320,30 320,40 " style="fill:white; stroke-width:1; stroke:black; " description="&lt;b&gt;ctg7_122&lt;/b&gt;&lt;br&gt;ctg7 122&lt;br&gt;Location: 146579 - 147029" locus_tag="ctg7_122" class="clusterblast-orf" id="knownclusterblast-2_q4_0_all"  />
<polygon points="356,35 361,30 388,30 388,40 361,40 356,35 " style="fill:white; stroke-width:1; stroke:black; " description="&lt;b&gt;ctg7_123&lt;/b&gt;&lt;br&gt;ctg7 123&lt;br&gt;Location: 147025 - 147415" locus_tag="ctg7_123" class="clusterblast-orf" id="knownclusterblast-2_q5_0_all"  />
<polygon points="404,40 556,40 561,35 556,30 404,30 404,40 " style="fill:white; stroke-width:1; stroke:black; " description="&lt;b&gt;ctg7_124&lt;/b&gt;&lt;br&gt;ctg7 124&lt;br&gt;Location: 147610 - 149551" locus_tag="ctg7_124" class="clusterblast-orf" id="knownclusterblast-2_q6_0_all"  />
<polygon points="565,35 570,30 618,30 618,40 570,40 565,35 " style="fill:white; stroke-width:1; stroke:black; " description="&lt;b&gt;ctg7_125&lt;/b&gt;&lt;br&gt;ctg7 125&lt;br&gt;Location: 149604 - 150252" locus_tag="ctg7_125" class="clusterblast-orf" id="knownclusterblast-2_q7_0_all"  />
<polygon points="649,40 775,40 780,35 775,30 649,30 649,40 " style="fill:white; stroke-width:1; stroke:black; " description="&lt;b&gt;ctg7_126&lt;/b&gt;&lt;br&gt;ctg7 126&lt;br&gt;Location: 150642 - 152262" locus_tag="ctg7_126" class="clusterblast-orf" id="knownclusterblast-2_q8_0_all"  />
</g>
</svg>
