<svg xmlns="http://www.w3.org/2000/svg" xmlns:xlink="http://www.w3.org/1999/xlink" version="1.1" x="0" y="0" height="50" width="800" viewBox="0 0 800 50" preserveAspectRatio="none"  >
<g label="Query sequence" class="clusterblast-cluster"  >
<text x="5" y="20" class="clusterblast-acc"  >
Query sequence</text>
<line x1="10" y1="35" x2="778.0" y2="35" style="stroke-width:1; stroke:grey; "  />
<polygon points="0,40 18,40 23,35 18,30 0,30 0,40 " style="fill:white; stroke-width:1; stroke:black; " description="&lt;b&gt;ctg42_53&lt;/b&gt;&lt;br&gt;ctg42 53&lt;br&gt;Location: 55906 - 56389" locus_tag="ctg42_53" class="clusterblast-orf" id="knownclusterblast-1_q0_0_all"  />
<polygon points="24,40 42,40 47,35 42,30 24,30 24,40 " style="fill:white; stroke-width:1; stroke:black; " description="&lt;b&gt;ctg42_54&lt;/b&gt;&lt;br&gt;ctg42 54&lt;br&gt;Location: 56411 - 56915" locus_tag="ctg42_54" class="clusterblast-orf" id="knownclusterblast-1_q1_0_all"  />
<polygon points="50,40 57,40 62,35 57,30 50,30 50,40 " style="fill:white; stroke-width:1; stroke:black; " description="&lt;b&gt;ctg42_55&lt;/b&gt;&lt;br&gt;ctg42 55&lt;br&gt;Location: 56976 - 57225" locus_tag="ctg42_55" class="clusterblast-orf" id="knownclusterblast-1_q2_0_all"  />
<polygon points="62,35 67,30 123,30 123,40 67,40 62,35 " style="fill:white; stroke-width:1; stroke:black; " description="&lt;b&gt;ctg42_56&lt;/b&gt;&lt;br&gt;ctg42 56&lt;br&gt;Location: 57238 - 58531" locus_tag="ctg42_56" class="clusterblast-orf" id="knownclusterblast-1_q3_0_all"  />
<polygon points="121,35 126,30 191,30 191,40 126,40 121,35 " style="fill:white; stroke-width:1; stroke:black; " description="&lt;b&gt;ctg42_57&lt;/b&gt;&lt;br&gt;ctg42 57&lt;br&gt;Location: 58493 - 59981" locus_tag="ctg42_57" class="clusterblast-orf" id="knownclusterblast-1_q4_0_all"  />
<polygon points="191,35 196,30 247,30 247,40 196,40 191,35 " style="fill:white; stroke-width:1; stroke:black; " description="&lt;b&gt;ctg42_58&lt;/b&gt;&lt;br&gt;ctg42 58&lt;br&gt;Location: 59988 - 61176" locus_tag="ctg42_58" class="clusterblast-orf" id="knownclusterblast-1_q5_0_all"  />
<polygon points="247,35 252,30 318,30 318,40 252,40 247,35 " style="fill:white; stroke-width:1; stroke:black; " description="&lt;b&gt;ctg42_59&lt;/b&gt;&lt;br&gt;ctg42 59&lt;br&gt;Location: 61172 - 62681" locus_tag="ctg42_59" class="clusterblast-orf" id="knownclusterblast-1_q6_0_all"  />
<polygon points="318,35 323,30 377,30 377,40 323,40 318,35 " style="fill:white; stroke-width:1; stroke:black; " description="&lt;b&gt;ctg42_60&lt;/b&gt;&lt;br&gt;ctg42 60&lt;br&gt;Location: 62680 - 63955" locus_tag="ctg42_60" class="clusterblast-orf" id="knownclusterblast-1_q7_0_all"  />
<polygon points="382,40 446,40 451,35 446,30 382,30 382,40 " style="fill:white; stroke-width:1; stroke:black; " description="&lt;b&gt;ctg42_61&lt;/b&gt;&lt;br&gt;ctg42 61&lt;br&gt;Location: 64049 - 65537" locus_tag="ctg42_61" class="clusterblast-orf" id="knownclusterblast-1_q8_0_all"  />
<polygon points="456,40 490,40 495,35 490,30 456,30 456,40 " style="fill:white; stroke-width:1; stroke:black; " description="&lt;b&gt;ctg42_62&lt;/b&gt;&lt;br&gt;ctg42 62&lt;br&gt;Location: 65626 - 66460" locus_tag="ctg42_62" class="clusterblast-orf" id="knownclusterblast-1_q9_0_all"  />
<polygon points="496,40 537,40 542,35 537,30 496,30 496,40 " style="fill:white; stroke-width:1; stroke:black; " description="&lt;b&gt;ctg42_63&lt;/b&gt;&lt;br&gt;ctg42 63&lt;br&gt;Location: 66493 - 67477" locus_tag="ctg42_63" class="clusterblast-orf" id="knownclusterblast-1_q10_0_all"  />
<polygon points="542,35 547,30 557,30 557,40 547,40 542,35 " style="fill:white; stroke-width:1; stroke:black; " description="&lt;b&gt;ctg42_64&lt;/b&gt;&lt;br&gt;ctg42 64&lt;br&gt;Location: 67473 - 67782" locus_tag="ctg42_64" class="clusterblast-orf" id="knownclusterblast-1_q11_0_all"  />
<polygon points="560,35 565,30 580,30 580,40 565,40 560,35 " style="fill:white; stroke-width:1; stroke:black; " description="&lt;b&gt;ctg42_65&lt;/b&gt;&lt;br&gt;ctg42 65&lt;br&gt;Location: 67861 - 68287" locus_tag="ctg42_65" class="clusterblast-orf" id="knownclusterblast-1_q12_0_all"  />
<polygon points="584,35 589,30 621,30 621,40 589,40 584,35 " style="fill:white; stroke-width:1; stroke:black; " description="&lt;b&gt;ctg42_66&lt;/b&gt;&lt;br&gt;ctg42 66&lt;br&gt;Location: 68372 - 69164" locus_tag="ctg42_66" class="clusterblast-orf" id="knownclusterblast-1_q13_0_all"  />
<polygon points="628,40 674,40 679,35 674,30 628,30 628,40 " style="fill:white; stroke-width:1; stroke:black; " description="&lt;b&gt;ctg42_67&lt;/b&gt;&lt;br&gt;ctg42 67&lt;br&gt;Location: 69296 - 70385" locus_tag="ctg42_67" class="clusterblast-orf" id="knownclusterblast-1_q14_0_all"  />
<polygon points="695,40 775,40 780,35 775,30 695,30 695,40 " style="fill:white; stroke-width:1; stroke:black; " description="&lt;b&gt;ctg42_68&lt;/b&gt;&lt;br&gt;ctg42 68&lt;br&gt;Location: 70739 - 72545" locus_tag="ctg42_68" class="clusterblast-orf" id="knownclusterblast-1_q15_0_all"  />
</g>
</svg>
