<svg xmlns="http://www.w3.org/2000/svg" xmlns:xlink="http://www.w3.org/1999/xlink" version="1.1" x="0" y="0" height="50" width="800" viewBox="0 0 800 50" preserveAspectRatio="none"  >
<g label="Query sequence" class="clusterblast-cluster"  >
<text x="5" y="20" class="clusterblast-acc"  >
Query sequence</text>
<line x1="10" y1="35" x2="778.0" y2="35" style="stroke-width:1; stroke:grey; "  />
<polygon points="0,35 5,30 5,30 5,40 5,40 0,35 " style="fill:white; stroke-width:1; stroke:black; " description="&lt;b&gt;ctg28_53&lt;/b&gt;&lt;br&gt;ctg28 53&lt;br&gt;Location: 65895 - 66015" locus_tag="ctg28_53" class="clusterblast-orf" id="subclusterblast-2_q0_0_all"  />
<polygon points="12,35 17,30 31,30 31,40 17,40 12,35 " style="fill:white; stroke-width:1; stroke:black; " description="&lt;b&gt;ctg28_54&lt;/b&gt;&lt;br&gt;ctg28 54&lt;br&gt;Location: 66199 - 66670" locus_tag="ctg28_54" class="clusterblast-orf" id="subclusterblast-2_q1_0_all"  />
<polygon points="31,35 36,30 52,30 52,40 36,40 31,35 " style="fill:white; stroke-width:1; stroke:black; " description="&lt;b&gt;ctg28_55&lt;/b&gt;&lt;br&gt;ctg28 55&lt;br&gt;Location: 66686 - 67202" locus_tag="ctg28_55" class="clusterblast-orf" id="subclusterblast-2_q2_0_all"  />
<polygon points="56,35 61,30 195,30 195,40 61,40 56,35 " style="fill:white; stroke-width:1; stroke:black; " description="&lt;b&gt;ctg28_56&lt;/b&gt;&lt;br&gt;ctg28 56&lt;br&gt;Location: 67313 - 70820" locus_tag="ctg28_56" class="clusterblast-orf" id="subclusterblast-2_q3_0_all"  />
<polygon points="202,40 292,40 297,35 292,30 202,30 202,40 " style="fill:white; stroke-width:1; stroke:black; " description="&lt;b&gt;ctg28_57&lt;/b&gt;&lt;br&gt;ctg28 57&lt;br&gt;Location: 70995 - 73419" locus_tag="ctg28_57" class="clusterblast-orf" id="subclusterblast-2_q4_0_all"  />
<polygon points="297,35 302,30 382,30 382,40 302,40 297,35 " style="fill:white; stroke-width:1; stroke:black; " description="&lt;b&gt;ctg28_58&lt;/b&gt;&lt;br&gt;ctg28 58&lt;br&gt;Location: 73408 - 75565" locus_tag="ctg28_58" class="clusterblast-orf" id="subclusterblast-2_q5_0_all"  />
<polygon points="387,40 461,40 466,35 461,30 387,30 387,40 " style="fill:white; stroke-width:1; stroke:black; " description="&lt;b&gt;ctg28_59&lt;/b&gt;&lt;br&gt;ctg28 59&lt;br&gt;Location: 75673 - 77668" locus_tag="ctg28_59" class="clusterblast-orf" id="subclusterblast-2_q6_0_all"  />
<polygon points="467,40 535,40 540,35 535,30 467,30 467,40 " style="fill:white; stroke-width:1; stroke:black; " description="&lt;b&gt;ctg28_60&lt;/b&gt;&lt;br&gt;ctg28 60&lt;br&gt;Location: 77710 - 79549" locus_tag="ctg28_60" class="clusterblast-orf" id="subclusterblast-2_q7_0_all"  />
<polygon points="539,35 544,30 578,30 578,40 544,40 539,35 " style="fill:white; stroke-width:1; stroke:black; " description="&lt;b&gt;ctg28_61&lt;/b&gt;&lt;br&gt;ctg28 61&lt;br&gt;Location: 79526 - 80504" locus_tag="ctg28_61" class="clusterblast-orf" id="subclusterblast-2_q8_0_all"  />
<polygon points="582,40 687,40 692,35 687,30 582,30 582,40 " style="fill:white; stroke-width:1; stroke:black; " description="&lt;b&gt;ctg28_62&lt;/b&gt;&lt;br&gt;ctg28 62&lt;br&gt;Location: 80615 - 83399" locus_tag="ctg28_62" class="clusterblast-orf" id="subclusterblast-2_q9_0_all"  />
<polygon points="695,40 752,40 757,35 752,30 695,30 695,40 " style="fill:white; stroke-width:1; stroke:black; " description="&lt;b&gt;ctg28_63&lt;/b&gt;&lt;br&gt;ctg28 63&lt;br&gt;Location: 83476 - 85048" locus_tag="ctg28_63" class="clusterblast-orf" id="subclusterblast-2_q10_0_all"  />
<polygon points="761,40 775,40 780,35 775,30 761,30 761,40 " style="fill:white; stroke-width:1; stroke:black; " description="&lt;b&gt;ctg28_64&lt;/b&gt;&lt;br&gt;ctg28 64&lt;br&gt;Location: 85127 - 85616" locus_tag="ctg28_64" class="clusterblast-orf" id="subclusterblast-2_q11_0_all"  />
</g>
</svg>
