<svg xmlns="http://www.w3.org/2000/svg" xmlns:xlink="http://www.w3.org/1999/xlink" version="1.1" x="0" y="0" height="50" width="800" viewBox="0 0 800 50" preserveAspectRatio="none"  >
<g label="Query sequence" class="clusterblast-cluster"  >
<text x="5" y="20" class="clusterblast-acc"  >
Query sequence</text>
<line x1="10" y1="35" x2="778.0" y2="35" style="stroke-width:1; stroke:grey; "  />
<polygon points="0,35 2,30 2,40 0,35 " style="fill:white; stroke-width:1; stroke:black; " description="&lt;b&gt;ctg20_1&lt;/b&gt;&lt;br&gt;ctg20 1&lt;br&gt;Location: 1 - 151" locus_tag="ctg20_1" class="clusterblast-orf" id="subclusterblast-1_q0_0_all"  />
<polygon points="2,35 7,30 7,30 7,40 7,40 2,35 " style="fill:white; stroke-width:1; stroke:black; " description="&lt;b&gt;ctg20_2&lt;/b&gt;&lt;br&gt;ctg20 2&lt;br&gt;Location: 168 - 513" locus_tag="ctg20_2" class="clusterblast-orf" id="subclusterblast-1_q1_0_all"  />
<polygon points="7,35 12,30 21,30 21,40 12,40 7,35 " style="fill:white; stroke-width:1; stroke:black; " description="&lt;b&gt;ctg20_3&lt;/b&gt;&lt;br&gt;ctg20 3&lt;br&gt;Location: 525 - 1545" locus_tag="ctg20_3" class="clusterblast-orf" id="subclusterblast-1_q2_0_all"  />
<polygon points="23,40 37,40 42,35 37,30 23,30 23,40 " style="fill:white; stroke-width:1; stroke:black; " description="&lt;b&gt;ctg20_4&lt;/b&gt;&lt;br&gt;ctg20 4&lt;br&gt;Location: 1629 - 2994" locus_tag="ctg20_4" class="clusterblast-orf" id="subclusterblast-1_q3_0_all"  />
<polygon points="42,40 138,40 143,35 138,30 42,30 42,40 " style="fill:white; stroke-width:1; stroke:black; " description="&lt;b&gt;ctg20_5&lt;/b&gt;&lt;br&gt;ctg20 5&lt;br&gt;Location: 3007 - 10144" locus_tag="ctg20_5" class="clusterblast-orf" id="subclusterblast-1_q4_0_all"  />
<polygon points="144,40 239,40 244,35 239,30 144,30 144,40 " style="fill:white; stroke-width:1; stroke:black; " description="&lt;b&gt;ctg20_6&lt;/b&gt;&lt;br&gt;ctg20 6&lt;br&gt;Location: 10213 - 17251" locus_tag="ctg20_6" class="clusterblast-orf" id="subclusterblast-1_q5_0_all"  />
<polygon points="246,40 284,40 289,35 284,30 246,30 246,40 " style="fill:white; stroke-width:1; stroke:black; " description="&lt;b&gt;ctg20_7&lt;/b&gt;&lt;br&gt;ctg20 7&lt;br&gt;Location: 17413 - 20476" locus_tag="ctg20_7" class="clusterblast-orf" id="subclusterblast-1_q6_0_all"  />
<polygon points="289,40 297,40 302,35 297,30 289,30 289,40 " style="fill:white; stroke-width:1; stroke:black; " description="&lt;b&gt;ctg20_8&lt;/b&gt;&lt;br&gt;ctg20 8&lt;br&gt;Location: 20472 - 21360" locus_tag="ctg20_8" class="clusterblast-orf" id="subclusterblast-1_q7_0_all"  />
<polygon points="302,40 319,40 324,35 319,30 302,30 302,40 " style="fill:white; stroke-width:1; stroke:black; " description="&lt;b&gt;ctg20_9&lt;/b&gt;&lt;br&gt;ctg20 9&lt;br&gt;Location: 21356 - 22922" locus_tag="ctg20_9" class="clusterblast-orf" id="subclusterblast-1_q8_0_all"  />
<polygon points="323,40 333,40 338,35 333,30 323,30 323,40 " style="fill:white; stroke-width:1; stroke:black; " description="&lt;b&gt;ctg20_10&lt;/b&gt;&lt;br&gt;ctg20 10&lt;br&gt;Location: 22897 - 23935" locus_tag="ctg20_10" class="clusterblast-orf" id="subclusterblast-1_q9_0_all"  />
<polygon points="338,35 343,30 343,30 343,40 343,40 338,35 " style="fill:white; stroke-width:1; stroke:black; " description="&lt;b&gt;ctg20_11&lt;/b&gt;&lt;br&gt;ctg20 11&lt;br&gt;Location: 23931 - 24315" locus_tag="ctg20_11" class="clusterblast-orf" id="subclusterblast-1_q10_0_all"  />
<polygon points="344,40 346,35 344,30 344,40 " style="fill:white; stroke-width:1; stroke:black; " description="&lt;b&gt;ctg20_12&lt;/b&gt;&lt;br&gt;ctg20 12&lt;br&gt;Location: 24362 - 24479" locus_tag="ctg20_12" class="clusterblast-orf" id="subclusterblast-1_q11_0_all"  />
<polygon points="346,40 354,40 359,35 354,30 346,30 346,40 " style="fill:white; stroke-width:1; stroke:black; " description="&lt;b&gt;ctg20_13&lt;/b&gt;&lt;br&gt;ctg20 13&lt;br&gt;Location: 24494 - 25439" locus_tag="ctg20_13" class="clusterblast-orf" id="subclusterblast-1_q12_0_all"  />
<polygon points="359,40 363,40 368,35 363,30 359,30 359,40 " style="fill:white; stroke-width:1; stroke:black; " description="&lt;b&gt;ctg20_14&lt;/b&gt;&lt;br&gt;ctg20 14&lt;br&gt;Location: 25435 - 26065" locus_tag="ctg20_14" class="clusterblast-orf" id="subclusterblast-1_q13_0_all"  />
<polygon points="371,35 376,30 381,30 381,40 376,40 371,35 " style="fill:white; stroke-width:1; stroke:black; " description="&lt;b&gt;ctg20_15&lt;/b&gt;&lt;br&gt;ctg20 15&lt;br&gt;Location: 26263 - 26944" locus_tag="ctg20_15" class="clusterblast-orf" id="subclusterblast-1_q14_0_all"  />
<polygon points="384,40 397,40 402,35 397,30 384,30 384,40 " style="fill:white; stroke-width:1; stroke:black; " description="&lt;b&gt;ctg20_16&lt;/b&gt;&lt;br&gt;ctg20 16&lt;br&gt;Location: 27206 - 28463" locus_tag="ctg20_16" class="clusterblast-orf" id="subclusterblast-1_q15_0_all"  />
<polygon points="403,40 403,40 408,35 403,30 403,30 403,40 " style="fill:white; stroke-width:1; stroke:black; " description="&lt;b&gt;ctg20_17&lt;/b&gt;&lt;br&gt;ctg20 17&lt;br&gt;Location: 28559 - 28853" locus_tag="ctg20_17" class="clusterblast-orf" id="subclusterblast-1_q16_0_all"  />
<polygon points="410,40 416,40 421,35 416,30 410,30 410,40 " style="fill:white; stroke-width:1; stroke:black; " description="&lt;b&gt;ctg20_18&lt;/b&gt;&lt;br&gt;ctg20 18&lt;br&gt;Location: 29014 - 29788" locus_tag="ctg20_18" class="clusterblast-orf" id="subclusterblast-1_q17_0_all"  />
<polygon points="421,35 426,30 442,30 442,40 426,40 421,35 " style="fill:white; stroke-width:1; stroke:black; " description="&lt;b&gt;ctg20_19&lt;/b&gt;&lt;br&gt;ctg20 19&lt;br&gt;Location: 29791 - 31276" locus_tag="ctg20_19" class="clusterblast-orf" id="subclusterblast-1_q18_0_all"  />
<polygon points="442,35 447,30 451,30 451,40 447,40 442,35 " style="fill:white; stroke-width:1; stroke:black; " description="&lt;b&gt;ctg20_20&lt;/b&gt;&lt;br&gt;ctg20 20&lt;br&gt;Location: 31272 - 31914" locus_tag="ctg20_20" class="clusterblast-orf" id="subclusterblast-1_q19_0_all"  />
<polygon points="452,35 457,30 458,30 458,40 457,40 452,35 " style="fill:white; stroke-width:1; stroke:black; " description="&lt;b&gt;ctg20_21&lt;/b&gt;&lt;br&gt;ctg20 21&lt;br&gt;Location: 31988 - 32402" locus_tag="ctg20_21" class="clusterblast-orf" id="subclusterblast-1_q20_0_all"  />
<polygon points="458,40 466,40 471,35 466,30 458,30 458,40 " style="fill:white; stroke-width:1; stroke:black; " description="&lt;b&gt;ctg20_22&lt;/b&gt;&lt;br&gt;ctg20 22&lt;br&gt;Location: 32424 - 33315" locus_tag="ctg20_22" class="clusterblast-orf" id="subclusterblast-1_q21_0_all"  />
<polygon points="470,35 475,30 499,30 499,40 475,40 470,35 " style="fill:white; stroke-width:1; stroke:black; " description="&lt;b&gt;ctg20_23&lt;/b&gt;&lt;br&gt;ctg20 23&lt;br&gt;Location: 33303 - 35298" locus_tag="ctg20_23" class="clusterblast-orf" id="subclusterblast-1_q22_0_all"  />
<polygon points="502,35 507,30 539,30 539,40 507,40 502,35 " style="fill:white; stroke-width:1; stroke:black; " description="&lt;b&gt;ctg20_24&lt;/b&gt;&lt;br&gt;ctg20 24&lt;br&gt;Location: 35524 - 38137" locus_tag="ctg20_24" class="clusterblast-orf" id="subclusterblast-1_q23_0_all"  />
<polygon points="543,35 547,30 547,40 543,35 " style="fill:white; stroke-width:1; stroke:black; " description="&lt;b&gt;ctg20_25&lt;/b&gt;&lt;br&gt;ctg20 25&lt;br&gt;Location: 38455 - 38710" locus_tag="ctg20_25" class="clusterblast-orf" id="subclusterblast-1_q24_0_all"  />
<polygon points="550,35 555,30 559,30 559,40 555,40 550,35 " style="fill:white; stroke-width:1; stroke:black; " description="&lt;b&gt;ctg20_26&lt;/b&gt;&lt;br&gt;ctg20 26&lt;br&gt;Location: 38922 - 39582" locus_tag="ctg20_26" class="clusterblast-orf" id="subclusterblast-1_q25_0_all"  />
<polygon points="560,35 565,30 570,30 570,40 565,40 560,35 " style="fill:white; stroke-width:1; stroke:black; " description="&lt;b&gt;ctg20_27&lt;/b&gt;&lt;br&gt;ctg20 27&lt;br&gt;Location: 39604 - 40345" locus_tag="ctg20_27" class="clusterblast-orf" id="subclusterblast-1_q26_0_all"  />
<polygon points="572,35 577,30 583,30 583,40 577,40 572,35 " style="fill:white; stroke-width:1; stroke:black; " description="&lt;b&gt;ctg20_28&lt;/b&gt;&lt;br&gt;ctg20 28&lt;br&gt;Location: 40459 - 41266" locus_tag="ctg20_28" class="clusterblast-orf" id="subclusterblast-1_q27_0_all"  />
<polygon points="583,35 588,30 592,30 592,40 588,40 583,35 " style="fill:white; stroke-width:1; stroke:black; " description="&lt;b&gt;ctg20_29&lt;/b&gt;&lt;br&gt;ctg20 29&lt;br&gt;Location: 41255 - 41903" locus_tag="ctg20_29" class="clusterblast-orf" id="subclusterblast-1_q28_0_all"  />
<polygon points="592,35 597,30 609,30 609,40 597,40 592,35 " style="fill:white; stroke-width:1; stroke:black; " description="&lt;b&gt;ctg20_30&lt;/b&gt;&lt;br&gt;ctg20 30&lt;br&gt;Location: 41895 - 43071" locus_tag="ctg20_30" class="clusterblast-orf" id="subclusterblast-1_q29_0_all"  />
<polygon points="611,40 616,40 621,35 616,30 611,30 611,40 " style="fill:white; stroke-width:1; stroke:black; " description="&lt;b&gt;ctg20_31&lt;/b&gt;&lt;br&gt;ctg20 31&lt;br&gt;Location: 43241 - 43925" locus_tag="ctg20_31" class="clusterblast-orf" id="subclusterblast-1_q30_0_all"  />
<polygon points="620,40 624,40 629,35 624,30 620,30 620,40 " style="fill:white; stroke-width:1; stroke:black; " description="&lt;b&gt;ctg20_32&lt;/b&gt;&lt;br&gt;ctg20 32&lt;br&gt;Location: 43917 - 44505" locus_tag="ctg20_32" class="clusterblast-orf" id="subclusterblast-1_q31_0_all"  />
<polygon points="628,35 633,30 640,30 640,40 633,40 628,35 " style="fill:white; stroke-width:1; stroke:black; " description="&lt;b&gt;ctg20_33&lt;/b&gt;&lt;br&gt;ctg20 33&lt;br&gt;Location: 44478 - 45333" locus_tag="ctg20_33" class="clusterblast-orf" id="subclusterblast-1_q32_0_all"  />
<polygon points="641,35 646,30 650,30 650,40 646,40 641,35 " style="fill:white; stroke-width:1; stroke:black; " description="&lt;b&gt;ctg20_34&lt;/b&gt;&lt;br&gt;ctg20 34&lt;br&gt;Location: 45339 - 46005" locus_tag="ctg20_34" class="clusterblast-orf" id="subclusterblast-1_q33_0_all"  />
<polygon points="652,40 652,40 657,35 652,30 652,30 652,40 " style="fill:white; stroke-width:1; stroke:black; " description="&lt;b&gt;ctg20_35&lt;/b&gt;&lt;br&gt;ctg20 35&lt;br&gt;Location: 46154 - 46478" locus_tag="ctg20_35" class="clusterblast-orf" id="subclusterblast-1_q34_0_all"  />
<polygon points="657,35 662,30 662,30 662,40 662,40 657,35 " style="fill:white; stroke-width:1; stroke:black; " description="&lt;b&gt;ctg20_36&lt;/b&gt;&lt;br&gt;ctg20 36&lt;br&gt;Location: 46481 - 46868" locus_tag="ctg20_36" class="clusterblast-orf" id="subclusterblast-1_q35_0_all"  />
<polygon points="663,40 673,40 678,35 673,30 663,30 663,40 " style="fill:white; stroke-width:1; stroke:black; " description="&lt;b&gt;ctg20_37&lt;/b&gt;&lt;br&gt;ctg20 37&lt;br&gt;Location: 46903 - 47962" locus_tag="ctg20_37" class="clusterblast-orf" id="subclusterblast-1_q36_0_all"  />
<polygon points="678,40 682,40 687,35 682,30 678,30 678,40 " style="fill:white; stroke-width:1; stroke:black; " description="&lt;b&gt;ctg20_38&lt;/b&gt;&lt;br&gt;ctg20 38&lt;br&gt;Location: 47958 - 48642" locus_tag="ctg20_38" class="clusterblast-orf" id="subclusterblast-1_q37_0_all"  />
<polygon points="687,40 698,40 703,35 698,30 687,30 687,40 " style="fill:white; stroke-width:1; stroke:black; " description="&lt;b&gt;ctg20_39&lt;/b&gt;&lt;br&gt;ctg20 39&lt;br&gt;Location: 48638 - 49736" locus_tag="ctg20_39" class="clusterblast-orf" id="subclusterblast-1_q38_0_all"  />
<polygon points="702,35 707,30 710,30 710,40 707,40 702,35 " style="fill:white; stroke-width:1; stroke:black; " description="&lt;b&gt;ctg20_40&lt;/b&gt;&lt;br&gt;ctg20 40&lt;br&gt;Location: 49684 - 50272" locus_tag="ctg20_40" class="clusterblast-orf" id="subclusterblast-1_q39_0_all"  />
<polygon points="711,35 716,30 726,30 726,40 716,40 711,35 " style="fill:white; stroke-width:1; stroke:black; " description="&lt;b&gt;ctg20_41&lt;/b&gt;&lt;br&gt;ctg20 41&lt;br&gt;Location: 50350 - 51352" locus_tag="ctg20_41" class="clusterblast-orf" id="subclusterblast-1_q40_0_all"  />
<polygon points="730,40 738,40 743,35 738,30 730,30 730,40 " style="fill:white; stroke-width:1; stroke:black; " description="&lt;b&gt;ctg20_42&lt;/b&gt;&lt;br&gt;ctg20 42&lt;br&gt;Location: 51662 - 52586" locus_tag="ctg20_42" class="clusterblast-orf" id="subclusterblast-1_q41_0_all"  />
<polygon points="748,35 753,30 767,30 767,40 753,40 748,35 " style="fill:white; stroke-width:1; stroke:black; " description="&lt;b&gt;ctg20_43&lt;/b&gt;&lt;br&gt;ctg20 43&lt;br&gt;Location: 52927 - 54283" locus_tag="ctg20_43" class="clusterblast-orf" id="subclusterblast-1_q42_0_all"  />
<polygon points="768,35 773,30 780,30 780,40 773,40 768,35 " style="fill:white; stroke-width:1; stroke:black; " description="&lt;b&gt;ctg20_44&lt;/b&gt;&lt;br&gt;ctg20 44&lt;br&gt;Location: 54360 - 55176" locus_tag="ctg20_44" class="clusterblast-orf" id="subclusterblast-1_q43_0_all"  />
</g>
</svg>
