<svg xmlns="http://www.w3.org/2000/svg" xmlns:xlink="http://www.w3.org/1999/xlink" version="1.1" x="0" y="0" height="50" width="800" viewBox="0 0 800 50" preserveAspectRatio="none"  >
<g label="Query sequence" class="clusterblast-cluster"  >
<text x="5" y="20" class="clusterblast-acc"  >
Query sequence</text>
<line x1="10" y1="35" x2="778.0" y2="35" style="stroke-width:1; stroke:grey; "  />
<polygon points="0,35 5,30 6,30 6,40 5,40 0,35 " style="fill:white; stroke-width:1; stroke:black; " description="&lt;b&gt;ctg4_133&lt;/b&gt;&lt;br&gt;ctg4 133&lt;br&gt;Location: 144028 - 144409" locus_tag="ctg4_133" class="clusterblast-orf" id="subclusterblast-1_q0_0_all"  />
<polygon points="6,35 11,30 30,30 30,40 11,40 6,35 " style="fill:white; stroke-width:1; stroke:black; " description="&lt;b&gt;ctg4_134&lt;/b&gt;&lt;br&gt;ctg4 134&lt;br&gt;Location: 144405 - 145737" locus_tag="ctg4_134" class="clusterblast-orf" id="subclusterblast-1_q1_0_all"  />
<polygon points="31,40 35,40 40,35 35,30 31,30 31,40 " style="fill:white; stroke-width:1; stroke:black; " description="&lt;b&gt;ctg4_135&lt;/b&gt;&lt;br&gt;ctg4 135&lt;br&gt;Location: 145827 - 146298" locus_tag="ctg4_135" class="clusterblast-orf" id="subclusterblast-1_q2_0_all"  />
<polygon points="45,35 50,30 67,30 67,40 50,40 45,35 " style="fill:white; stroke-width:1; stroke:black; " description="&lt;b&gt;ctg4_136&lt;/b&gt;&lt;br&gt;ctg4 136&lt;br&gt;Location: 146590 - 147850" locus_tag="ctg4_136" class="clusterblast-orf" id="subclusterblast-1_q3_0_all"  />
<polygon points="67,35 72,30 81,30 81,40 72,40 67,35 " style="fill:white; stroke-width:1; stroke:black; " description="&lt;b&gt;ctg4_137&lt;/b&gt;&lt;br&gt;ctg4 137&lt;br&gt;Location: 147846 - 148659" locus_tag="ctg4_137" class="clusterblast-orf" id="subclusterblast-1_q4_0_all"  />
<polygon points="80,35 85,30 103,30 103,40 85,40 80,35 " style="fill:white; stroke-width:1; stroke:black; " description="&lt;b&gt;ctg4_138&lt;/b&gt;&lt;br&gt;ctg4 138&lt;br&gt;Location: 148600 - 149875" locus_tag="ctg4_138" class="clusterblast-orf" id="subclusterblast-1_q5_0_all"  />
<polygon points="103,35 108,30 111,30 111,40 108,40 103,35 " style="fill:white; stroke-width:1; stroke:black; " description="&lt;b&gt;ctg4_139&lt;/b&gt;&lt;br&gt;ctg4 139&lt;br&gt;Location: 149864 - 150332" locus_tag="ctg4_139" class="clusterblast-orf" id="subclusterblast-1_q6_0_all"  />
<polygon points="112,35 117,30 132,30 132,40 117,40 112,35 " style="fill:white; stroke-width:1; stroke:black; " description="&lt;b&gt;ctg4_140&lt;/b&gt;&lt;br&gt;ctg4 140&lt;br&gt;Location: 150376 - 151522" locus_tag="ctg4_140" class="clusterblast-orf" id="subclusterblast-1_q7_0_all"  />
<polygon points="133,35 138,30 157,30 157,40 138,40 133,35 " style="fill:white; stroke-width:1; stroke:black; " description="&lt;b&gt;ctg4_141&lt;/b&gt;&lt;br&gt;ctg4 141&lt;br&gt;Location: 151562 - 152963" locus_tag="ctg4_141" class="clusterblast-orf" id="subclusterblast-1_q8_0_all"  />
<polygon points="159,35 164,30 186,30 186,40 164,40 159,35 " style="fill:white; stroke-width:1; stroke:black; " description="&lt;b&gt;ctg4_142&lt;/b&gt;&lt;br&gt;ctg4 142&lt;br&gt;Location: 153038 - 154607" locus_tag="ctg4_142" class="clusterblast-orf" id="subclusterblast-1_q9_0_all"  />
<polygon points="187,40 201,40 206,35 201,30 187,30 187,40 " style="fill:white; stroke-width:1; stroke:black; " description="&lt;b&gt;ctg4_143&lt;/b&gt;&lt;br&gt;ctg4 143&lt;br&gt;Location: 154623 - 155685" locus_tag="ctg4_143" class="clusterblast-orf" id="subclusterblast-1_q10_0_all"  />
<polygon points="206,35 211,30 232,30 232,40 211,40 206,35 " style="fill:white; stroke-width:1; stroke:black; " description="&lt;b&gt;ctg4_144&lt;/b&gt;&lt;br&gt;ctg4 144&lt;br&gt;Location: 155701 - 157156" locus_tag="ctg4_144" class="clusterblast-orf" id="subclusterblast-1_q11_0_all"  />
<polygon points="232,35 237,30 245,30 245,40 237,40 232,35 " style="fill:white; stroke-width:1; stroke:black; " description="&lt;b&gt;ctg4_145&lt;/b&gt;&lt;br&gt;ctg4 145&lt;br&gt;Location: 157160 - 157946" locus_tag="ctg4_145" class="clusterblast-orf" id="subclusterblast-1_q12_0_all"  />
<polygon points="247,40 252,40 257,35 252,30 247,30 247,40 " style="fill:white; stroke-width:1; stroke:black; " description="&lt;b&gt;ctg4_146&lt;/b&gt;&lt;br&gt;ctg4 146&lt;br&gt;Location: 158023 - 158581" locus_tag="ctg4_146" class="clusterblast-orf" id="subclusterblast-1_q13_0_all"  />
<polygon points="257,40 265,40 270,35 265,30 257,30 257,40 " style="fill:white; stroke-width:1; stroke:black; " description="&lt;b&gt;ctg4_147&lt;/b&gt;&lt;br&gt;ctg4 147&lt;br&gt;Location: 158596 - 159337" locus_tag="ctg4_147" class="clusterblast-orf" id="subclusterblast-1_q14_0_all"  />
<polygon points="272,35 277,30 286,30 286,40 277,40 272,35 " style="fill:white; stroke-width:1; stroke:black; " description="&lt;b&gt;ctg4_148&lt;/b&gt;&lt;br&gt;ctg4 148&lt;br&gt;Location: 159424 - 160219" locus_tag="ctg4_148" class="clusterblast-orf" id="subclusterblast-1_q15_0_all"  />
<polygon points="287,35 292,30 303,30 303,40 292,40 287,35 " style="fill:white; stroke-width:1; stroke:black; " description="&lt;b&gt;ctg4_149&lt;/b&gt;&lt;br&gt;ctg4 149&lt;br&gt;Location: 160280 - 161183" locus_tag="ctg4_149" class="clusterblast-orf" id="subclusterblast-1_q16_0_all"  />
<polygon points="303,35 308,30 323,30 323,40 308,40 303,35 " style="fill:white; stroke-width:1; stroke:black; " description="&lt;b&gt;ctg4_150&lt;/b&gt;&lt;br&gt;ctg4 150&lt;br&gt;Location: 161182 - 162346" locus_tag="ctg4_150" class="clusterblast-orf" id="subclusterblast-1_q17_0_all"  />
<polygon points="324,35 329,30 345,30 345,40 329,40 324,35 " style="fill:white; stroke-width:1; stroke:black; " description="&lt;b&gt;ctg4_151&lt;/b&gt;&lt;br&gt;ctg4 151&lt;br&gt;Location: 162419 - 163568" locus_tag="ctg4_151" class="clusterblast-orf" id="subclusterblast-1_q18_0_all"  />
<polygon points="345,35 350,30 443,30 443,40 350,40 345,35 " style="fill:white; stroke-width:1; stroke:black; " description="&lt;b&gt;ctg4_152&lt;/b&gt;&lt;br&gt;ctg4 152&lt;br&gt;Location: 163590 - 169110" locus_tag="ctg4_152" class="clusterblast-orf" id="subclusterblast-1_q19_0_all"  />
<polygon points="444,40 450,40 455,35 450,30 444,30 444,40 " style="fill:white; stroke-width:1; stroke:black; " description="&lt;b&gt;ctg4_153&lt;/b&gt;&lt;br&gt;ctg4 153&lt;br&gt;Location: 169213 - 169801" locus_tag="ctg4_153" class="clusterblast-orf" id="subclusterblast-1_q20_0_all"  />
<polygon points="455,40 484,40 489,35 484,30 455,30 455,40 " style="fill:white; stroke-width:1; stroke:black; " description="&lt;b&gt;ctg4_154&lt;/b&gt;&lt;br&gt;ctg4 154&lt;br&gt;Location: 169797 - 171765" locus_tag="ctg4_154" class="clusterblast-orf" id="subclusterblast-1_q21_0_all"  />
<polygon points="490,40 493,40 498,35 493,30 490,30 490,40 " style="fill:white; stroke-width:1; stroke:black; " description="&lt;b&gt;ctg4_155&lt;/b&gt;&lt;br&gt;ctg4 155&lt;br&gt;Location: 171782 - 172265" locus_tag="ctg4_155" class="clusterblast-orf" id="subclusterblast-1_q22_0_all"  />
<polygon points="501,40 523,40 528,35 523,30 501,30 501,40 " style="fill:white; stroke-width:1; stroke:black; " description="&lt;b&gt;ctg4_156&lt;/b&gt;&lt;br&gt;ctg4 156&lt;br&gt;Location: 172432 - 173926" locus_tag="ctg4_156" class="clusterblast-orf" id="subclusterblast-1_q23_0_all"  />
<polygon points="528,40 551,40 556,35 551,30 528,30 528,40 " style="fill:white; stroke-width:1; stroke:black; " description="&lt;b&gt;ctg4_157&lt;/b&gt;&lt;br&gt;ctg4 157&lt;br&gt;Location: 173922 - 175533" locus_tag="ctg4_157" class="clusterblast-orf" id="subclusterblast-1_q24_0_all"  />
<polygon points="556,35 561,30 564,30 564,40 561,40 556,35 " style="fill:white; stroke-width:1; stroke:black; " description="&lt;b&gt;ctg4_158&lt;/b&gt;&lt;br&gt;ctg4 158&lt;br&gt;Location: 175519 - 176002" locus_tag="ctg4_158" class="clusterblast-orf" id="subclusterblast-1_q25_0_all"  />
<polygon points="566,40 600,40 605,35 600,30 566,30 566,40 " style="fill:white; stroke-width:1; stroke:black; " description="&lt;b&gt;ctg4_159&lt;/b&gt;&lt;br&gt;ctg4 159&lt;br&gt;Location: 176083 - 178330" locus_tag="ctg4_159" class="clusterblast-orf" id="subclusterblast-1_q26_0_all"  />
<polygon points="606,40 610,40 615,35 610,30 606,30 606,40 " style="fill:white; stroke-width:1; stroke:black; " description="&lt;b&gt;ctg4_160&lt;/b&gt;&lt;br&gt;ctg4 160&lt;br&gt;Location: 178376 - 178847" locus_tag="ctg4_160" class="clusterblast-orf" id="subclusterblast-1_q27_0_all"  />
<polygon points="614,40 623,40 628,35 623,30 614,30 614,40 " style="fill:white; stroke-width:1; stroke:black; " description="&lt;b&gt;ctg4_161&lt;/b&gt;&lt;br&gt;ctg4 161&lt;br&gt;Location: 178827 - 179634" locus_tag="ctg4_161" class="clusterblast-orf" id="subclusterblast-1_q28_0_all"  />
<polygon points="629,35 634,30 637,30 637,40 634,40 629,35 " style="fill:white; stroke-width:1; stroke:black; " description="&lt;b&gt;ctg4_162&lt;/b&gt;&lt;br&gt;ctg4 162&lt;br&gt;Location: 179643 - 180126" locus_tag="ctg4_162" class="clusterblast-orf" id="subclusterblast-1_q29_0_all"  />
<polygon points="638,35 643,30 654,30 654,40 643,40 638,35 " style="fill:white; stroke-width:1; stroke:black; " description="&lt;b&gt;ctg4_163&lt;/b&gt;&lt;br&gt;ctg4 163&lt;br&gt;Location: 180163 - 181087" locus_tag="ctg4_163" class="clusterblast-orf" id="subclusterblast-1_q30_0_all"  />
<polygon points="654,35 659,30 683,30 683,40 659,40 654,35 " style="fill:white; stroke-width:1; stroke:black; " description="&lt;b&gt;ctg4_164&lt;/b&gt;&lt;br&gt;ctg4 164&lt;br&gt;Location: 181086 - 182739" locus_tag="ctg4_164" class="clusterblast-orf" id="subclusterblast-1_q31_0_all"  />
<polygon points="684,40 746,40 751,35 746,30 684,30 684,40 " style="fill:white; stroke-width:1; stroke:black; " description="&lt;b&gt;ctg4_165&lt;/b&gt;&lt;br&gt;ctg4 165&lt;br&gt;Location: 182794 - 186568" locus_tag="ctg4_165" class="clusterblast-orf" id="subclusterblast-1_q32_0_all"  />
<polygon points="752,35 757,30 764,30 764,40 757,40 752,35 " style="fill:white; stroke-width:1; stroke:black; " description="&lt;b&gt;ctg4_166&lt;/b&gt;&lt;br&gt;ctg4 166&lt;br&gt;Location: 186609 - 187281" locus_tag="ctg4_166" class="clusterblast-orf" id="subclusterblast-1_q33_0_all"  />
<polygon points="765,35 770,30 770,30 770,40 770,40 765,35 " style="fill:white; stroke-width:1; stroke:black; " description="&lt;b&gt;ctg4_167&lt;/b&gt;&lt;br&gt;ctg4 167&lt;br&gt;Location: 187378 - 187621" locus_tag="ctg4_167" class="clusterblast-orf" id="subclusterblast-1_q34_0_all"  />
<polygon points="771,40 775,40 780,35 775,30 771,30 771,40 " style="fill:white; stroke-width:1; stroke:black; " description="&lt;b&gt;ctg4_168&lt;/b&gt;&lt;br&gt;ctg4 168&lt;br&gt;Location: 187732 - 188197" locus_tag="ctg4_168" class="clusterblast-orf" id="subclusterblast-1_q35_0_all"  />
</g>
</svg>
