<svg xmlns="http://www.w3.org/2000/svg" xmlns:xlink="http://www.w3.org/1999/xlink" version="1.1" x="0" y="0" height="50" width="800" viewBox="0 0 800 50" preserveAspectRatio="none"  >
<g label="Query sequence" class="clusterblast-cluster"  >
<text x="5" y="20" class="clusterblast-acc"  >
Query sequence</text>
<line x1="10" y1="35" x2="778.0" y2="35" style="stroke-width:1; stroke:grey; "  />
<polygon points="0,35 2,30 2,40 0,35 " style="fill:white; stroke-width:1; stroke:black; " description="&lt;b&gt;ctg7_51&lt;/b&gt;&lt;br&gt;ctg7 51&lt;br&gt;Location: 61591 - 61840" locus_tag="ctg7_51" class="clusterblast-orf" id="subclusterblast-1_q0_0_all"  />
<polygon points="3,35 8,30 11,30 11,40 8,40 3,35 " style="fill:white; stroke-width:1; stroke:black; " description="&lt;b&gt;ctg7_52&lt;/b&gt;&lt;br&gt;ctg7 52&lt;br&gt;Location: 61856 - 62606" locus_tag="ctg7_52" class="clusterblast-orf" id="subclusterblast-1_q1_0_all"  />
<polygon points="11,35 16,30 22,30 22,40 16,40 11,35 " style="fill:white; stroke-width:1; stroke:black; " description="&lt;b&gt;ctg7_53&lt;/b&gt;&lt;br&gt;ctg7 53&lt;br&gt;Location: 62602 - 63622" locus_tag="ctg7_53" class="clusterblast-orf" id="subclusterblast-1_q2_0_all"  />
<polygon points="25,35 30,30 30,30 30,40 30,40 25,35 " style="fill:white; stroke-width:1; stroke:black; " description="&lt;b&gt;ctg7_54&lt;/b&gt;&lt;br&gt;ctg7 54&lt;br&gt;Location: 63868 - 64396" locus_tag="ctg7_54" class="clusterblast-orf" id="subclusterblast-1_q3_0_all"  />
<polygon points="32,35 37,30 43,30 43,40 37,40 32,35 " style="fill:white; stroke-width:1; stroke:black; " description="&lt;b&gt;ctg7_55&lt;/b&gt;&lt;br&gt;ctg7 55&lt;br&gt;Location: 64508 - 65543" locus_tag="ctg7_55" class="clusterblast-orf" id="subclusterblast-1_q4_0_all"  />
<polygon points="43,35 48,30 61,30 61,40 48,40 43,35 " style="fill:white; stroke-width:1; stroke:black; " description="&lt;b&gt;ctg7_56&lt;/b&gt;&lt;br&gt;ctg7 56&lt;br&gt;Location: 65553 - 67212" locus_tag="ctg7_56" class="clusterblast-orf" id="subclusterblast-1_q5_0_all"  />
<polygon points="64,40 71,40 76,35 71,30 64,30 64,40 " style="fill:white; stroke-width:1; stroke:black; " description="&lt;b&gt;ctg7_57&lt;/b&gt;&lt;br&gt;ctg7 57&lt;br&gt;Location: 67413 - 68505" locus_tag="ctg7_57" class="clusterblast-orf" id="subclusterblast-1_q6_0_all"  />
<polygon points="76,35 81,30 92,30 92,40 81,40 76,35 " style="fill:white; stroke-width:1; stroke:black; " description="&lt;b&gt;ctg7_58&lt;/b&gt;&lt;br&gt;ctg7 58&lt;br&gt;Location: 68501 - 70022" locus_tag="ctg7_58" class="clusterblast-orf" id="subclusterblast-1_q7_0_all"  />
<polygon points="93,35 98,30 103,30 103,40 98,40 93,35 " style="fill:white; stroke-width:1; stroke:black; " description="&lt;b&gt;ctg7_59&lt;/b&gt;&lt;br&gt;ctg7 59&lt;br&gt;Location: 70092 - 70974" locus_tag="ctg7_59" class="clusterblast-orf" id="subclusterblast-1_q8_0_all"  />
<polygon points="103,35 108,30 121,30 121,40 108,40 103,35 " style="fill:white; stroke-width:1; stroke:black; " description="&lt;b&gt;ctg7_60&lt;/b&gt;&lt;br&gt;ctg7 60&lt;br&gt;Location: 70960 - 72616" locus_tag="ctg7_60" class="clusterblast-orf" id="subclusterblast-1_q9_0_all"  />
<polygon points="121,35 126,30 128,30 128,40 126,40 121,35 " style="fill:white; stroke-width:1; stroke:black; " description="&lt;b&gt;ctg7_61&lt;/b&gt;&lt;br&gt;ctg7 61&lt;br&gt;Location: 72608 - 73286" locus_tag="ctg7_61" class="clusterblast-orf" id="subclusterblast-1_q10_0_all"  />
<polygon points="129,35 134,30 138,30 138,40 134,40 129,35 " style="fill:white; stroke-width:1; stroke:black; " description="&lt;b&gt;ctg7_62&lt;/b&gt;&lt;br&gt;ctg7 62&lt;br&gt;Location: 73355 - 74195" locus_tag="ctg7_62" class="clusterblast-orf" id="subclusterblast-1_q11_0_all"  />
<polygon points="138,35 142,30 142,40 138,35 " style="fill:white; stroke-width:1; stroke:black; " description="&lt;b&gt;ctg7_63&lt;/b&gt;&lt;br&gt;ctg7 63&lt;br&gt;Location: 74169 - 74580" locus_tag="ctg7_63" class="clusterblast-orf" id="subclusterblast-1_q12_0_all"  />
<polygon points="143,40 153,40 158,35 153,30 143,30 143,40 " style="fill:white; stroke-width:1; stroke:black; " description="&lt;b&gt;ctg7_64&lt;/b&gt;&lt;br&gt;ctg7 64&lt;br&gt;Location: 74632 - 75991" locus_tag="ctg7_64" class="clusterblast-orf" id="subclusterblast-1_q13_0_all"  />
<polygon points="158,40 158,40 163,35 158,30 158,30 158,40 " style="fill:white; stroke-width:1; stroke:black; " description="&lt;b&gt;ctg7_65&lt;/b&gt;&lt;br&gt;ctg7 65&lt;br&gt;Location: 75987 - 76488" locus_tag="ctg7_65" class="clusterblast-orf" id="subclusterblast-1_q14_0_all"  />
<polygon points="164,35 168,30 168,40 164,35 " style="fill:white; stroke-width:1; stroke:black; " description="&lt;b&gt;ctg7_66&lt;/b&gt;&lt;br&gt;ctg7 66&lt;br&gt;Location: 76551 - 76920" locus_tag="ctg7_66" class="clusterblast-orf" id="subclusterblast-1_q15_0_all"  />
<polygon points="169,40 185,40 190,35 185,30 169,30 169,40 " style="fill:white; stroke-width:1; stroke:black; " description="&lt;b&gt;ctg7_67&lt;/b&gt;&lt;br&gt;ctg7 67&lt;br&gt;Location: 77031 - 78870" locus_tag="ctg7_67" class="clusterblast-orf" id="subclusterblast-1_q16_0_all"  />
<polygon points="190,35 193,30 193,40 190,35 " style="fill:white; stroke-width:1; stroke:black; " description="&lt;b&gt;ctg7_68&lt;/b&gt;&lt;br&gt;ctg7 68&lt;br&gt;Location: 78938 - 79157" locus_tag="ctg7_68" class="clusterblast-orf" id="subclusterblast-1_q17_0_all"  />
<polygon points="193,35 198,30 211,30 211,40 198,40 193,35 " style="fill:white; stroke-width:1; stroke:black; " description="&lt;b&gt;ctg7_69&lt;/b&gt;&lt;br&gt;ctg7 69&lt;br&gt;Location: 79171 - 80782" locus_tag="ctg7_69" class="clusterblast-orf" id="subclusterblast-1_q18_0_all"  />
<polygon points="212,35 217,30 244,30 244,40 217,40 212,35 " style="fill:white; stroke-width:1; stroke:black; " description="&lt;b&gt;ctg7_70&lt;/b&gt;&lt;br&gt;ctg7 70&lt;br&gt;Location: 80883 - 83841" locus_tag="ctg7_70" class="clusterblast-orf" id="subclusterblast-1_q19_0_all"  />
<polygon points="246,40 246,40 251,35 246,30 246,30 246,40 " style="fill:white; stroke-width:1; stroke:black; " description="&lt;b&gt;ctg7_71&lt;/b&gt;&lt;br&gt;ctg7 71&lt;br&gt;Location: 83959 - 84481" locus_tag="ctg7_71" class="clusterblast-orf" id="subclusterblast-1_q20_0_all"  />
<polygon points="251,40 255,40 260,35 255,30 251,30 251,40 " style="fill:white; stroke-width:1; stroke:black; " description="&lt;b&gt;ctg7_72&lt;/b&gt;&lt;br&gt;ctg7 72&lt;br&gt;Location: 84473 - 85268" locus_tag="ctg7_72" class="clusterblast-orf" id="subclusterblast-1_q21_0_all"  />
<polygon points="261,40 263,35 261,30 261,40 " style="fill:white; stroke-width:1; stroke:black; " description="&lt;b&gt;ctg7_73&lt;/b&gt;&lt;br&gt;ctg7 73&lt;br&gt;Location: 85328 - 85544" locus_tag="ctg7_73" class="clusterblast-orf" id="subclusterblast-1_q22_0_all"  />
<polygon points="263,35 268,30 298,30 298,40 268,40 263,35 " style="fill:white; stroke-width:1; stroke:black; " description="&lt;b&gt;ctg7_74&lt;/b&gt;&lt;br&gt;ctg7 74&lt;br&gt;Location: 85517 - 88691" locus_tag="ctg7_74" class="clusterblast-orf" id="subclusterblast-1_q23_0_all"  />
<polygon points="298,35 303,30 305,30 305,40 303,40 298,35 " style="fill:white; stroke-width:1; stroke:black; " description="&lt;b&gt;ctg7_75&lt;/b&gt;&lt;br&gt;ctg7 75&lt;br&gt;Location: 88687 - 89371" locus_tag="ctg7_75" class="clusterblast-orf" id="subclusterblast-1_q24_0_all"  />
<polygon points="305,35 310,30 314,30 314,40 310,40 305,35 " style="fill:white; stroke-width:1; stroke:black; " description="&lt;b&gt;ctg7_76&lt;/b&gt;&lt;br&gt;ctg7 76&lt;br&gt;Location: 89360 - 90167" locus_tag="ctg7_76" class="clusterblast-orf" id="subclusterblast-1_q25_0_all"  />
<polygon points="315,40 326,40 331,35 326,30 315,30 315,40 " style="fill:white; stroke-width:1; stroke:black; " description="&lt;b&gt;ctg7_77&lt;/b&gt;&lt;br&gt;ctg7 77&lt;br&gt;Location: 90260 - 91772" locus_tag="ctg7_77" class="clusterblast-orf" id="subclusterblast-1_q26_0_all"  />
<polygon points="331,35 336,30 347,30 347,40 336,40 331,35 " style="fill:white; stroke-width:1; stroke:black; " description="&lt;b&gt;ctg7_78&lt;/b&gt;&lt;br&gt;ctg7 78&lt;br&gt;Location: 91701 - 93150" locus_tag="ctg7_78" class="clusterblast-orf" id="subclusterblast-1_q27_0_all"  />
<polygon points="348,35 353,30 358,30 358,40 353,40 348,35 " style="fill:white; stroke-width:1; stroke:black; " description="&lt;b&gt;ctg7_79&lt;/b&gt;&lt;br&gt;ctg7 79&lt;br&gt;Location: 93320 - 94202" locus_tag="ctg7_79" class="clusterblast-orf" id="subclusterblast-1_q28_0_all"  />
<polygon points="359,40 367,40 372,35 367,30 359,30 359,40 " style="fill:white; stroke-width:1; stroke:black; " description="&lt;b&gt;ctg7_80&lt;/b&gt;&lt;br&gt;ctg7 80&lt;br&gt;Location: 94264 - 95434" locus_tag="ctg7_80" class="clusterblast-orf" id="subclusterblast-1_q29_0_all"  />
<polygon points="372,40 378,40 383,35 378,30 372,30 372,40 " style="fill:white; stroke-width:1; stroke:black; " description="&lt;b&gt;ctg7_81&lt;/b&gt;&lt;br&gt;ctg7 81&lt;br&gt;Location: 95430 - 96456" locus_tag="ctg7_81" class="clusterblast-orf" id="subclusterblast-1_q30_0_all"  />
<polygon points="383,40 388,40 393,35 388,30 383,30 383,40 " style="fill:white; stroke-width:1; stroke:black; " description="&lt;b&gt;ctg7_82&lt;/b&gt;&lt;br&gt;ctg7 82&lt;br&gt;Location: 96452 - 97331" locus_tag="ctg7_82" class="clusterblast-orf" id="subclusterblast-1_q31_0_all"  />
<polygon points="392,40 401,40 406,35 401,30 392,30 392,40 " style="fill:white; stroke-width:1; stroke:black; " description="&lt;b&gt;ctg7_83&lt;/b&gt;&lt;br&gt;ctg7 83&lt;br&gt;Location: 97311 - 98583" locus_tag="ctg7_83" class="clusterblast-orf" id="subclusterblast-1_q32_0_all"  />
<polygon points="407,35 412,30 436,30 436,40 412,40 407,35 " style="fill:white; stroke-width:1; stroke:black; " description="&lt;b&gt;ctg7_84&lt;/b&gt;&lt;br&gt;ctg7 84&lt;br&gt;Location: 98683 - 101311" locus_tag="ctg7_84" class="clusterblast-orf" id="subclusterblast-1_q33_0_all"  />
<polygon points="442,35 447,30 452,30 452,40 447,40 442,35 " style="fill:white; stroke-width:1; stroke:black; " description="&lt;b&gt;ctg7_85&lt;/b&gt;&lt;br&gt;ctg7 85&lt;br&gt;Location: 101857 - 102739" locus_tag="ctg7_85" class="clusterblast-orf" id="subclusterblast-1_q34_0_all"  />
<polygon points="453,35 458,30 467,30 467,40 458,40 453,35 " style="fill:white; stroke-width:1; stroke:black; " description="&lt;b&gt;ctg7_86&lt;/b&gt;&lt;br&gt;ctg7 86&lt;br&gt;Location: 102806 - 104078" locus_tag="ctg7_86" class="clusterblast-orf" id="subclusterblast-1_q35_0_all"  />
<polygon points="468,40 481,40 486,35 481,30 468,30 468,40 " style="fill:white; stroke-width:1; stroke:black; " description="&lt;b&gt;ctg7_87&lt;/b&gt;&lt;br&gt;ctg7 87&lt;br&gt;Location: 104165 - 105806" locus_tag="ctg7_87" class="clusterblast-orf" id="subclusterblast-1_q36_0_all"  />
<polygon points="486,40 489,40 494,35 489,30 486,30 486,40 " style="fill:white; stroke-width:1; stroke:black; " description="&lt;b&gt;ctg7_88&lt;/b&gt;&lt;br&gt;ctg7 88&lt;br&gt;Location: 105802 - 106540" locus_tag="ctg7_88" class="clusterblast-orf" id="subclusterblast-1_q37_0_all"  />
<polygon points="494,40 500,40 505,35 500,30 494,30 494,40 " style="fill:white; stroke-width:1; stroke:black; " description="&lt;b&gt;ctg7_89&lt;/b&gt;&lt;br&gt;ctg7 89&lt;br&gt;Location: 106536 - 107517" locus_tag="ctg7_89" class="clusterblast-orf" id="subclusterblast-1_q38_0_all"  />
<polygon points="505,40 508,40 513,35 508,30 505,30 505,40 " style="fill:white; stroke-width:1; stroke:black; " description="&lt;b&gt;ctg7_90&lt;/b&gt;&lt;br&gt;ctg7 90&lt;br&gt;Location: 107513 - 108311" locus_tag="ctg7_90" class="clusterblast-orf" id="subclusterblast-1_q39_0_all"  />
<polygon points="513,40 563,40 568,35 563,30 513,30 513,40 " style="fill:white; stroke-width:1; stroke:black; " description="&lt;b&gt;ctg7_91&lt;/b&gt;&lt;br&gt;ctg7 91&lt;br&gt;Location: 108307 - 113326" locus_tag="ctg7_91" class="clusterblast-orf" id="subclusterblast-1_q40_0_all"  />
<polygon points="568,40 576,40 581,35 576,30 568,30 568,40 " style="fill:white; stroke-width:1; stroke:black; " description="&lt;b&gt;ctg7_92&lt;/b&gt;&lt;br&gt;ctg7 92&lt;br&gt;Location: 113322 - 114510" locus_tag="ctg7_92" class="clusterblast-orf" id="subclusterblast-1_q41_0_all"  />
<polygon points="581,40 590,40 595,35 590,30 581,30 581,40 " style="fill:white; stroke-width:1; stroke:black; " description="&lt;b&gt;ctg7_93&lt;/b&gt;&lt;br&gt;ctg7 93&lt;br&gt;Location: 114506 - 115754" locus_tag="ctg7_93" class="clusterblast-orf" id="subclusterblast-1_q42_0_all"  />
<polygon points="595,40 607,40 612,35 607,30 595,30 595,40 " style="fill:white; stroke-width:1; stroke:black; " description="&lt;b&gt;ctg7_94&lt;/b&gt;&lt;br&gt;ctg7 94&lt;br&gt;Location: 115750 - 117298" locus_tag="ctg7_94" class="clusterblast-orf" id="subclusterblast-1_q43_0_all"  />
<polygon points="612,35 617,30 623,30 623,40 617,40 612,35 " style="fill:white; stroke-width:1; stroke:black; " description="&lt;b&gt;ctg7_95&lt;/b&gt;&lt;br&gt;ctg7 95&lt;br&gt;Location: 117314 - 118256" locus_tag="ctg7_95" class="clusterblast-orf" id="subclusterblast-1_q44_0_all"  />
<polygon points="624,35 629,30 639,30 639,40 629,40 624,35 " style="fill:white; stroke-width:1; stroke:black; " description="&lt;b&gt;ctg7_96&lt;/b&gt;&lt;br&gt;ctg7 96&lt;br&gt;Location: 118358 - 119759" locus_tag="ctg7_96" class="clusterblast-orf" id="subclusterblast-1_q45_0_all"  />
<polygon points="640,35 645,30 658,30 658,40 645,40 640,35 " style="fill:white; stroke-width:1; stroke:black; " description="&lt;b&gt;ctg7_97&lt;/b&gt;&lt;br&gt;ctg7 97&lt;br&gt;Location: 119857 - 121474" locus_tag="ctg7_97" class="clusterblast-orf" id="subclusterblast-1_q46_0_all"  />
<polygon points="659,40 660,40 665,35 660,30 659,30 659,40 " style="fill:white; stroke-width:1; stroke:black; " description="&lt;b&gt;ctg7_98&lt;/b&gt;&lt;br&gt;ctg7 98&lt;br&gt;Location: 121541 - 122123" locus_tag="ctg7_98" class="clusterblast-orf" id="subclusterblast-1_q47_0_all"  />
<polygon points="666,35 671,30 671,30 671,40 671,40 666,35 " style="fill:white; stroke-width:1; stroke:black; " description="&lt;b&gt;ctg7_99&lt;/b&gt;&lt;br&gt;ctg7 99&lt;br&gt;Location: 122213 - 122675" locus_tag="ctg7_99" class="clusterblast-orf" id="subclusterblast-1_q48_0_all"  />
<polygon points="672,35 677,30 688,30 688,40 677,40 672,35 " style="fill:white; stroke-width:1; stroke:black; " description="&lt;b&gt;ctg7_100&lt;/b&gt;&lt;br&gt;ctg7 100&lt;br&gt;Location: 122717 - 124238" locus_tag="ctg7_100" class="clusterblast-orf" id="subclusterblast-1_q49_0_all"  />
<polygon points="689,35 694,30 702,30 702,40 694,40 689,35 " style="fill:white; stroke-width:1; stroke:black; " description="&lt;b&gt;ctg7_101&lt;/b&gt;&lt;br&gt;ctg7 101&lt;br&gt;Location: 124258 - 125497" locus_tag="ctg7_101" class="clusterblast-orf" id="subclusterblast-1_q50_0_all"  />
<polygon points="703,40 707,40 712,35 707,30 703,30 703,40 " style="fill:white; stroke-width:1; stroke:black; " description="&lt;b&gt;ctg7_102&lt;/b&gt;&lt;br&gt;ctg7 102&lt;br&gt;Location: 125604 - 126402" locus_tag="ctg7_102" class="clusterblast-orf" id="subclusterblast-1_q51_0_all"  />
<polygon points="713,40 713,40 718,35 713,30 713,30 713,40 " style="fill:white; stroke-width:1; stroke:black; " description="&lt;b&gt;ctg7_103&lt;/b&gt;&lt;br&gt;ctg7 103&lt;br&gt;Location: 126461 - 126947" locus_tag="ctg7_103" class="clusterblast-orf" id="subclusterblast-1_q52_0_all"  />
<polygon points="718,40 722,40 727,35 722,30 718,30 718,40 " style="fill:white; stroke-width:1; stroke:black; " description="&lt;b&gt;ctg7_104&lt;/b&gt;&lt;br&gt;ctg7 104&lt;br&gt;Location: 126966 - 127701" locus_tag="ctg7_104" class="clusterblast-orf" id="subclusterblast-1_q53_0_all"  />
<polygon points="726,40 730,40 735,35 730,30 726,30 726,40 " style="fill:white; stroke-width:1; stroke:black; " description="&lt;b&gt;ctg7_105&lt;/b&gt;&lt;br&gt;ctg7 105&lt;br&gt;Location: 127697 - 128444" locus_tag="ctg7_105" class="clusterblast-orf" id="subclusterblast-1_q54_0_all"  />
<polygon points="734,35 739,30 750,30 750,40 739,40 734,35 " style="fill:white; stroke-width:1; stroke:black; " description="&lt;b&gt;ctg7_106&lt;/b&gt;&lt;br&gt;ctg7 106&lt;br&gt;Location: 128404 - 129814" locus_tag="ctg7_106" class="clusterblast-orf" id="subclusterblast-1_q55_0_all"  />
<polygon points="752,40 754,40 759,35 754,30 752,30 752,40 " style="fill:white; stroke-width:1; stroke:black; " description="&lt;b&gt;ctg7_107&lt;/b&gt;&lt;br&gt;ctg7 107&lt;br&gt;Location: 130008 - 130662" locus_tag="ctg7_107" class="clusterblast-orf" id="subclusterblast-1_q56_0_all"  />
<polygon points="759,40 760,40 765,35 760,30 759,30 759,40 " style="fill:white; stroke-width:1; stroke:black; " description="&lt;b&gt;ctg7_108&lt;/b&gt;&lt;br&gt;ctg7 108&lt;br&gt;Location: 130697 - 131192" locus_tag="ctg7_108" class="clusterblast-orf" id="subclusterblast-1_q57_0_all"  />
<polygon points="765,35 770,30 774,30 774,40 770,40 765,35 " style="fill:white; stroke-width:1; stroke:black; " description="&lt;b&gt;ctg7_109&lt;/b&gt;&lt;br&gt;ctg7 109&lt;br&gt;Location: 131202 - 132045" locus_tag="ctg7_109" class="clusterblast-orf" id="subclusterblast-1_q58_0_all"  />
<polygon points="774,35 779,30 780,30 780,40 779,40 774,35 " style="fill:white; stroke-width:1; stroke:black; " description="&lt;b&gt;ctg7_110&lt;/b&gt;&lt;br&gt;ctg7 110&lt;br&gt;Location: 132045 - 132531" locus_tag="ctg7_110" class="clusterblast-orf" id="subclusterblast-1_q59_0_all"  />
</g>
</svg>
