<svg xmlns="http://www.w3.org/2000/svg" xmlns:xlink="http://www.w3.org/1999/xlink" version="1.1" x="0" y="0" height="50" width="800" viewBox="0 0 800 50" preserveAspectRatio="none"  >
<g label="Query sequence" class="clusterblast-cluster"  >
<text x="5" y="20" class="clusterblast-acc"  >
Query sequence</text>
<line x1="10" y1="35" x2="778.0" y2="35" style="stroke-width:1; stroke:grey; "  />
<polygon points="0,35 5,30 82,30 82,40 5,40 0,35 " style="fill:white; stroke-width:1; stroke:black; " description="&lt;b&gt;ctg30_64&lt;/b&gt;&lt;br&gt;ctg30 64&lt;br&gt;Location: 68458 - 70327" locus_tag="ctg30_64" class="clusterblast-orf" id="subclusterblast-1_q0_0_all"  />
<polygon points="82,35 87,30 128,30 128,40 87,40 82,35 " style="fill:white; stroke-width:1; stroke:black; " description="&lt;b&gt;ctg30_65&lt;/b&gt;&lt;br&gt;ctg30 65&lt;br&gt;Location: 70327 - 71380" locus_tag="ctg30_65" class="clusterblast-orf" id="subclusterblast-1_q1_0_all"  />
<polygon points="129,35 134,30 185,30 185,40 134,40 129,35 " style="fill:white; stroke-width:1; stroke:black; " description="&lt;b&gt;ctg30_66&lt;/b&gt;&lt;br&gt;ctg30 66&lt;br&gt;Location: 71403 - 72690" locus_tag="ctg30_66" class="clusterblast-orf" id="subclusterblast-1_q2_0_all"  />
<polygon points="186,35 191,30 209,30 209,40 191,40 186,35 " style="fill:white; stroke-width:1; stroke:black; " description="&lt;b&gt;ctg30_67&lt;/b&gt;&lt;br&gt;ctg30 67&lt;br&gt;Location: 72700 - 73237" locus_tag="ctg30_67" class="clusterblast-orf" id="subclusterblast-1_q3_0_all"  />
<polygon points="209,35 214,30 226,30 226,40 214,40 209,35 " style="fill:white; stroke-width:1; stroke:black; " description="&lt;b&gt;ctg30_68&lt;/b&gt;&lt;br&gt;ctg30 68&lt;br&gt;Location: 73233 - 73611" locus_tag="ctg30_68" class="clusterblast-orf" id="subclusterblast-1_q4_0_all"  />
<polygon points="226,40 245,40 250,35 245,30 226,30 226,40 " style="fill:white; stroke-width:1; stroke:black; " description="&lt;b&gt;ctg30_69&lt;/b&gt;&lt;br&gt;ctg30 69&lt;br&gt;Location: 73620 - 74166" locus_tag="ctg30_69" class="clusterblast-orf" id="subclusterblast-1_q5_0_all"  />
<polygon points="250,35 255,30 262,30 262,40 255,40 250,35 " style="fill:white; stroke-width:1; stroke:black; " description="&lt;b&gt;ctg30_70&lt;/b&gt;&lt;br&gt;ctg30 70&lt;br&gt;Location: 74170 - 74440" locus_tag="ctg30_70" class="clusterblast-orf" id="subclusterblast-1_q6_0_all"  />
<polygon points="265,35 270,30 302,30 302,40 270,40 265,35 " style="fill:white; stroke-width:1; stroke:black; " description="&lt;b&gt;ctg30_71&lt;/b&gt;&lt;br&gt;ctg30 71&lt;br&gt;Location: 74501 - 75347" locus_tag="ctg30_71" class="clusterblast-orf" id="subclusterblast-1_q7_0_all"  />
<polygon points="313,35 318,30 342,30 342,40 318,40 313,35 " style="fill:white; stroke-width:1; stroke:black; " description="&lt;b&gt;ctg30_72&lt;/b&gt;&lt;br&gt;ctg30 72&lt;br&gt;Location: 75598 - 76264" locus_tag="ctg30_72" class="clusterblast-orf" id="subclusterblast-1_q8_0_all"  />
<polygon points="342,35 347,30 382,30 382,40 347,40 342,35 " style="fill:white; stroke-width:1; stroke:black; " description="&lt;b&gt;ctg30_73&lt;/b&gt;&lt;br&gt;ctg30 73&lt;br&gt;Location: 76260 - 77175" locus_tag="ctg30_73" class="clusterblast-orf" id="subclusterblast-1_q9_0_all"  />
<polygon points="387,40 429,40 434,35 429,30 387,30 387,40 " style="fill:white; stroke-width:1; stroke:black; " description="&lt;b&gt;ctg30_74&lt;/b&gt;&lt;br&gt;ctg30 74&lt;br&gt;Location: 77287 - 78370" locus_tag="ctg30_74" class="clusterblast-orf" id="subclusterblast-1_q10_0_all"  />
<polygon points="434,40 441,40 446,35 441,30 434,30 434,40 " style="fill:white; stroke-width:1; stroke:black; " description="&lt;b&gt;ctg30_75&lt;/b&gt;&lt;br&gt;ctg30 75&lt;br&gt;Location: 78362 - 78632" locus_tag="ctg30_75" class="clusterblast-orf" id="subclusterblast-1_q11_0_all"  />
<polygon points="446,40 477,40 482,35 477,30 446,30 446,40 " style="fill:white; stroke-width:1; stroke:black; " description="&lt;b&gt;ctg30_76&lt;/b&gt;&lt;br&gt;ctg30 76&lt;br&gt;Location: 78631 - 79459" locus_tag="ctg30_76" class="clusterblast-orf" id="subclusterblast-1_q12_0_all"  />
<polygon points="482,40 551,40 556,35 551,30 482,30 482,40 " style="fill:white; stroke-width:1; stroke:black; " description="&lt;b&gt;ctg30_77&lt;/b&gt;&lt;br&gt;ctg30 77&lt;br&gt;Location: 79455 - 81147" locus_tag="ctg30_77" class="clusterblast-orf" id="subclusterblast-1_q13_0_all"  />
<polygon points="557,40 561,35 557,30 557,40 " style="fill:white; stroke-width:1; stroke:black; " description="&lt;b&gt;ctg30_78&lt;/b&gt;&lt;br&gt;ctg30 78&lt;br&gt;Location: 81158 - 81251" locus_tag="ctg30_78" class="clusterblast-orf" id="subclusterblast-1_q14_0_all"  />
<polygon points="561,40 561,40 566,35 561,30 561,30 561,40 " style="fill:white; stroke-width:1; stroke:black; " description="&lt;b&gt;ctg30_79&lt;/b&gt;&lt;br&gt;ctg30 79&lt;br&gt;Location: 81266 - 81365" locus_tag="ctg30_79" class="clusterblast-orf" id="subclusterblast-1_q15_0_all"  />
<polygon points="573,40 601,40 606,35 601,30 573,30 573,40 " style="fill:white; stroke-width:1; stroke:black; " description="&lt;b&gt;ctg30_80&lt;/b&gt;&lt;br&gt;ctg30 80&lt;br&gt;Location: 81539 - 82295" locus_tag="ctg30_80" class="clusterblast-orf" id="subclusterblast-1_q16_0_all"  />
<polygon points="607,35 612,30 626,30 626,40 612,40 607,35 " style="fill:white; stroke-width:1; stroke:black; " description="&lt;b&gt;ctg30_81&lt;/b&gt;&lt;br&gt;ctg30 81&lt;br&gt;Location: 82315 - 82741" locus_tag="ctg30_81" class="clusterblast-orf" id="subclusterblast-1_q17_0_all"  />
<polygon points="632,40 686,40 691,35 686,30 632,30 632,40 " style="fill:white; stroke-width:1; stroke:black; " description="&lt;b&gt;ctg30_82&lt;/b&gt;&lt;br&gt;ctg30 82&lt;br&gt;Location: 82880 - 84221" locus_tag="ctg30_82" class="clusterblast-orf" id="subclusterblast-1_q18_0_all"  />
<polygon points="691,40 751,40 756,35 751,30 691,30 691,40 " style="fill:white; stroke-width:1; stroke:black; " description="&lt;b&gt;ctg30_83&lt;/b&gt;&lt;br&gt;ctg30 83&lt;br&gt;Location: 84217 - 85702" locus_tag="ctg30_83" class="clusterblast-orf" id="subclusterblast-1_q19_0_all"  />
<polygon points="756,35 761,30 780,30 780,40 761,40 756,35 " style="fill:white; stroke-width:1; stroke:black; " description="&lt;b&gt;ctg30_84&lt;/b&gt;&lt;br&gt;ctg30 84&lt;br&gt;Location: 85714 - 86254" locus_tag="ctg30_84" class="clusterblast-orf" id="subclusterblast-1_q20_0_all"  />
</g>
</svg>
