<svg xmlns="http://www.w3.org/2000/svg" xmlns:xlink="http://www.w3.org/1999/xlink" version="1.1" x="0" y="0" height="50" width="800" viewBox="0 0 800 50" preserveAspectRatio="none"  >
<g label="Query sequence" class="clusterblast-cluster"  >
<text x="5" y="20" class="clusterblast-acc"  >
Query sequence</text>
<line x1="10" y1="35" x2="778.0" y2="35" style="stroke-width:1; stroke:grey; "  />
<polygon points="0,40 6,40 11,35 6,30 0,30 0,40 " style="fill:white; stroke-width:1; stroke:black; " description="&lt;b&gt;ctg1_308&lt;/b&gt;&lt;br&gt;ctg1 308&lt;br&gt;Location: 331517 - 332198" locus_tag="ctg1_308" class="clusterblast-orf" id="subclusterblast-1_q0_0_all"  />
<polygon points="13,40 17,35 13,30 13,40 " style="fill:white; stroke-width:1; stroke:black; " description="&lt;b&gt;ctg1_309&lt;/b&gt;&lt;br&gt;ctg1 309&lt;br&gt;Location: 332291 - 332522" locus_tag="ctg1_309" class="clusterblast-orf" id="subclusterblast-1_q1_0_all"  />
<polygon points="17,35 22,30 40,30 40,40 22,40 17,35 " style="fill:white; stroke-width:1; stroke:black; " description="&lt;b&gt;ctg1_310&lt;/b&gt;&lt;br&gt;ctg1 310&lt;br&gt;Location: 332547 - 333855" locus_tag="ctg1_310" class="clusterblast-orf" id="subclusterblast-1_q2_0_all"  />
<polygon points="40,35 45,30 55,30 55,40 45,40 40,35 " style="fill:white; stroke-width:1; stroke:black; " description="&lt;b&gt;ctg1_311&lt;/b&gt;&lt;br&gt;ctg1 311&lt;br&gt;Location: 333847 - 334750" locus_tag="ctg1_311" class="clusterblast-orf" id="subclusterblast-1_q3_0_all"  />
<polygon points="58,35 63,30 66,30 66,40 63,40 58,35 " style="fill:white; stroke-width:1; stroke:black; " description="&lt;b&gt;ctg1_312&lt;/b&gt;&lt;br&gt;ctg1 312&lt;br&gt;Location: 334891 - 335389" locus_tag="ctg1_312" class="clusterblast-orf" id="subclusterblast-1_q4_0_all"  />
<polygon points="70,35 75,30 79,30 79,40 75,40 70,35 " style="fill:white; stroke-width:1; stroke:black; " description="&lt;b&gt;ctg1_313&lt;/b&gt;&lt;br&gt;ctg1 313&lt;br&gt;Location: 335621 - 336119" locus_tag="ctg1_313" class="clusterblast-orf" id="subclusterblast-1_q5_0_all"  />
<polygon points="83,35 88,30 92,30 92,40 88,40 83,35 " style="fill:white; stroke-width:1; stroke:black; " description="&lt;b&gt;ctg1_314&lt;/b&gt;&lt;br&gt;ctg1 314&lt;br&gt;Location: 336368 - 336878" locus_tag="ctg1_314" class="clusterblast-orf" id="subclusterblast-1_q6_0_all"  />
<polygon points="96,40 126,40 131,35 126,30 96,30 96,40 " style="fill:white; stroke-width:1; stroke:black; " description="&lt;b&gt;ctg1_315&lt;/b&gt;&lt;br&gt;ctg1 315&lt;br&gt;Location: 337131 - 339150" locus_tag="ctg1_315" class="clusterblast-orf" id="subclusterblast-1_q7_0_all"  />
<polygon points="131,40 146,40 151,35 146,30 131,30 131,40 " style="fill:white; stroke-width:1; stroke:black; " description="&lt;b&gt;ctg1_316&lt;/b&gt;&lt;br&gt;ctg1 316&lt;br&gt;Location: 339146 - 340295" locus_tag="ctg1_316" class="clusterblast-orf" id="subclusterblast-1_q8_0_all"  />
<polygon points="151,40 152,40 157,35 152,30 151,30 151,40 " style="fill:white; stroke-width:1; stroke:black; " description="&lt;b&gt;ctg1_317&lt;/b&gt;&lt;br&gt;ctg1 317&lt;br&gt;Location: 340302 - 340653" locus_tag="ctg1_317" class="clusterblast-orf" id="subclusterblast-1_q9_0_all"  />
<polygon points="157,40 158,40 163,35 158,30 157,30 157,40 " style="fill:white; stroke-width:1; stroke:black; " description="&lt;b&gt;ctg1_318&lt;/b&gt;&lt;br&gt;ctg1 318&lt;br&gt;Location: 340653 - 340992" locus_tag="ctg1_318" class="clusterblast-orf" id="subclusterblast-1_q10_0_all"  />
<polygon points="163,40 166,40 171,35 166,30 163,30 163,40 " style="fill:white; stroke-width:1; stroke:black; " description="&lt;b&gt;ctg1_319&lt;/b&gt;&lt;br&gt;ctg1 319&lt;br&gt;Location: 341004 - 341475" locus_tag="ctg1_319" class="clusterblast-orf" id="subclusterblast-1_q11_0_all"  />
<polygon points="172,35 177,30 197,30 197,40 177,40 172,35 " style="fill:white; stroke-width:1; stroke:black; " description="&lt;b&gt;ctg1_320&lt;/b&gt;&lt;br&gt;ctg1 320&lt;br&gt;Location: 341492 - 342956" locus_tag="ctg1_320" class="clusterblast-orf" id="subclusterblast-1_q12_0_all"  />
<polygon points="199,35 204,30 209,30 209,40 204,40 199,35 " style="fill:white; stroke-width:1; stroke:black; " description="&lt;b&gt;ctg1_321&lt;/b&gt;&lt;br&gt;ctg1 321&lt;br&gt;Location: 343083 - 343656" locus_tag="ctg1_321" class="clusterblast-orf" id="subclusterblast-1_q13_0_all"  />
<polygon points="210,40 218,40 223,35 218,30 210,30 210,40 " style="fill:white; stroke-width:1; stroke:black; " description="&lt;b&gt;ctg1_322&lt;/b&gt;&lt;br&gt;ctg1 322&lt;br&gt;Location: 343739 - 344471" locus_tag="ctg1_322" class="clusterblast-orf" id="subclusterblast-1_q14_0_all"  />
<polygon points="225,40 226,40 231,35 226,30 225,30 225,40 " style="fill:white; stroke-width:1; stroke:black; " description="&lt;b&gt;ctg1_323&lt;/b&gt;&lt;br&gt;ctg1 323&lt;br&gt;Location: 344560 - 344929" locus_tag="ctg1_323" class="clusterblast-orf" id="subclusterblast-1_q15_0_all"  />
<polygon points="232,40 239,40 244,35 239,30 232,30 232,40 " style="fill:white; stroke-width:1; stroke:black; " description="&lt;b&gt;ctg1_324&lt;/b&gt;&lt;br&gt;ctg1 324&lt;br&gt;Location: 344993 - 345665" locus_tag="ctg1_324" class="clusterblast-orf" id="subclusterblast-1_q16_0_all"  />
<polygon points="244,40 257,40 262,35 257,30 244,30 244,40 " style="fill:white; stroke-width:1; stroke:black; " description="&lt;b&gt;ctg1_325&lt;/b&gt;&lt;br&gt;ctg1 325&lt;br&gt;Location: 345714 - 346722" locus_tag="ctg1_325" class="clusterblast-orf" id="subclusterblast-1_q17_0_all"  />
<polygon points="262,40 273,40 278,35 273,30 262,30 262,40 " style="fill:white; stroke-width:1; stroke:black; " description="&lt;b&gt;ctg1_326&lt;/b&gt;&lt;br&gt;ctg1 326&lt;br&gt;Location: 346721 - 347678" locus_tag="ctg1_326" class="clusterblast-orf" id="subclusterblast-1_q18_0_all"  />
<polygon points="281,40 284,35 281,30 281,40 " style="fill:white; stroke-width:1; stroke:black; " description="&lt;b&gt;ctg1_327&lt;/b&gt;&lt;br&gt;ctg1 327&lt;br&gt;Location: 347849 - 347981" locus_tag="ctg1_327" class="clusterblast-orf" id="subclusterblast-1_q19_0_all"  />
<polygon points="285,40 290,40 295,35 290,30 285,30 285,40 " style="fill:white; stroke-width:1; stroke:black; " description="&lt;b&gt;ctg1_328&lt;/b&gt;&lt;br&gt;ctg1 328&lt;br&gt;Location: 348079 - 348655" locus_tag="ctg1_328" class="clusterblast-orf" id="subclusterblast-1_q20_0_all"  />
<polygon points="296,40 305,40 310,35 305,30 296,30 296,40 " style="fill:white; stroke-width:1; stroke:black; " description="&lt;b&gt;ctg1_329&lt;/b&gt;&lt;br&gt;ctg1 329&lt;br&gt;Location: 348684 - 349491" locus_tag="ctg1_329" class="clusterblast-orf" id="subclusterblast-1_q21_0_all"  />
<polygon points="309,35 314,30 334,30 334,40 314,40 309,35 " style="fill:white; stroke-width:1; stroke:black; " description="&lt;b&gt;ctg1_330&lt;/b&gt;&lt;br&gt;ctg1 330&lt;br&gt;Location: 349470 - 350898" locus_tag="ctg1_330" class="clusterblast-orf" id="subclusterblast-1_q22_0_all"  />
<polygon points="334,35 339,30 439,30 439,40 339,40 334,35 " style="fill:white; stroke-width:1; stroke:black; " description="&lt;b&gt;ctg1_331&lt;/b&gt;&lt;br&gt;ctg1 331&lt;br&gt;Location: 350894 - 357002" locus_tag="ctg1_331" class="clusterblast-orf" id="subclusterblast-1_q23_0_all"  />
<polygon points="442,40 509,40 514,35 509,30 442,30 442,40 " style="fill:white; stroke-width:1; stroke:black; " description="&lt;b&gt;ctg1_332&lt;/b&gt;&lt;br&gt;ctg1 332&lt;br&gt;Location: 357148 - 361369" locus_tag="ctg1_332" class="clusterblast-orf" id="subclusterblast-1_q24_0_all"  />
<polygon points="520,40 537,40 542,35 537,30 520,30 520,40 " style="fill:white; stroke-width:1; stroke:black; " description="&lt;b&gt;ctg1_333&lt;/b&gt;&lt;br&gt;ctg1 333&lt;br&gt;Location: 361670 - 362999" locus_tag="ctg1_333" class="clusterblast-orf" id="subclusterblast-1_q25_0_all"  />
<polygon points="545,40 564,40 569,35 564,30 545,30 545,40 " style="fill:white; stroke-width:1; stroke:black; " description="&lt;b&gt;ctg1_334&lt;/b&gt;&lt;br&gt;ctg1 334&lt;br&gt;Location: 363123 - 364512" locus_tag="ctg1_334" class="clusterblast-orf" id="subclusterblast-1_q26_0_all"  />
<polygon points="565,35 570,30 581,30 581,40 570,40 565,35 " style="fill:white; stroke-width:1; stroke:black; " description="&lt;b&gt;ctg1_335&lt;/b&gt;&lt;br&gt;ctg1 335&lt;br&gt;Location: 364317 - 365211" locus_tag="ctg1_335" class="clusterblast-orf" id="subclusterblast-1_q27_0_all"  />
<polygon points="582,40 586,35 582,30 582,40 " style="fill:white; stroke-width:1; stroke:black; " description="&lt;b&gt;ctg1_336&lt;/b&gt;&lt;br&gt;ctg1 336&lt;br&gt;Location: 365305 - 365521" locus_tag="ctg1_336" class="clusterblast-orf" id="subclusterblast-1_q28_0_all"  />
<polygon points="587,35 592,30 603,30 603,40 592,40 587,35 " style="fill:white; stroke-width:1; stroke:black; " description="&lt;b&gt;ctg1_337&lt;/b&gt;&lt;br&gt;ctg1 337&lt;br&gt;Location: 365590 - 366502" locus_tag="ctg1_337" class="clusterblast-orf" id="subclusterblast-1_q29_0_all"  />
<polygon points="605,40 636,40 641,35 636,30 605,30 605,40 " style="fill:white; stroke-width:1; stroke:black; " description="&lt;b&gt;ctg1_338&lt;/b&gt;&lt;br&gt;ctg1 338&lt;br&gt;Location: 366602 - 368732" locus_tag="ctg1_338" class="clusterblast-orf" id="subclusterblast-1_q30_0_all"  />
<polygon points="641,35 646,30 656,30 656,40 646,40 641,35 " style="fill:white; stroke-width:1; stroke:black; " description="&lt;b&gt;ctg1_339&lt;/b&gt;&lt;br&gt;ctg1 339&lt;br&gt;Location: 368736 - 369561" locus_tag="ctg1_339" class="clusterblast-orf" id="subclusterblast-1_q31_0_all"  />
<polygon points="656,35 661,30 670,30 670,40 661,40 656,35 " style="fill:white; stroke-width:1; stroke:black; " description="&lt;b&gt;ctg1_340&lt;/b&gt;&lt;br&gt;ctg1 340&lt;br&gt;Location: 369557 - 370391" locus_tag="ctg1_340" class="clusterblast-orf" id="subclusterblast-1_q32_0_all"  />
<polygon points="671,35 676,30 692,30 692,40 676,40 671,35 " style="fill:white; stroke-width:1; stroke:black; " description="&lt;b&gt;ctg1_341&lt;/b&gt;&lt;br&gt;ctg1 341&lt;br&gt;Location: 370427 - 371687" locus_tag="ctg1_341" class="clusterblast-orf" id="subclusterblast-1_q33_0_all"  />
<polygon points="692,35 697,30 700,30 700,40 697,40 692,35 " style="fill:white; stroke-width:1; stroke:black; " description="&lt;b&gt;ctg1_342&lt;/b&gt;&lt;br&gt;ctg1 342&lt;br&gt;Location: 371683 - 372154" locus_tag="ctg1_342" class="clusterblast-orf" id="subclusterblast-1_q34_0_all"  />
<polygon points="702,40 742,40 747,35 742,30 702,30 702,40 " style="fill:white; stroke-width:1; stroke:black; " description="&lt;b&gt;ctg1_343&lt;/b&gt;&lt;br&gt;ctg1 343&lt;br&gt;Location: 372276 - 374877" locus_tag="ctg1_343" class="clusterblast-orf" id="subclusterblast-1_q35_0_all"  />
<polygon points="748,35 753,30 780,30 780,40 753,40 748,35 " style="fill:white; stroke-width:1; stroke:black; " description="&lt;b&gt;ctg1_344&lt;/b&gt;&lt;br&gt;ctg1 344&lt;br&gt;Location: 374898 - 376755" locus_tag="ctg1_344" class="clusterblast-orf" id="subclusterblast-1_q36_0_all"  />
</g>
</svg>
