<svg xmlns="http://www.w3.org/2000/svg" xmlns:xlink="http://www.w3.org/1999/xlink" version="1.1" x="0" y="0" height="50" width="800" viewBox="0 0 800 50" preserveAspectRatio="none"  >
<g label="Query sequence" class="clusterblast-cluster"  >
<text x="5" y="20" class="clusterblast-acc"  >
Query sequence</text>
<line x1="10" y1="35" x2="778.0" y2="35" style="stroke-width:1; stroke:grey; "  />
<polygon points="0,40 60,40 65,35 60,30 0,30 0,40 " style="fill:white; stroke-width:1; stroke:black; " description="&lt;b&gt;ctg21_117&lt;/b&gt;&lt;br&gt;ctg21 117&lt;br&gt;Location: 134072 - 135560" locus_tag="ctg21_117" class="clusterblast-orf" id="subclusterblast-1_q0_0_all"  />
<polygon points="65,35 70,30 85,30 85,40 70,40 65,35 " style="fill:white; stroke-width:1; stroke:black; " description="&lt;b&gt;ctg21_118&lt;/b&gt;&lt;br&gt;ctg21 118&lt;br&gt;Location: 135569 - 136016" locus_tag="ctg21_118" class="clusterblast-orf" id="subclusterblast-1_q1_0_all"  />
<polygon points="88,40 116,40 121,35 116,30 88,30 88,40 " style="fill:white; stroke-width:1; stroke:black; " description="&lt;b&gt;ctg21_119&lt;/b&gt;&lt;br&gt;ctg21 119&lt;br&gt;Location: 136089 - 136860" locus_tag="ctg21_119" class="clusterblast-orf" id="subclusterblast-1_q2_0_all"  />
<polygon points="122,35 127,30 131,30 131,40 127,40 122,35 " style="fill:white; stroke-width:1; stroke:black; " description="&lt;b&gt;ctg21_120&lt;/b&gt;&lt;br&gt;ctg21 120&lt;br&gt;Location: 136876 - 137074" locus_tag="ctg21_120" class="clusterblast-orf" id="subclusterblast-1_q3_0_all"  />
<polygon points="130,35 135,30 186,30 186,40 135,40 130,35 " style="fill:white; stroke-width:1; stroke:black; " description="&lt;b&gt;ctg21_121&lt;/b&gt;&lt;br&gt;ctg21 121&lt;br&gt;Location: 137070 - 138342" locus_tag="ctg21_121" class="clusterblast-orf" id="subclusterblast-1_q4_0_all"  />
<polygon points="190,40 244,40 249,35 244,30 190,30 190,40 " style="fill:white; stroke-width:1; stroke:black; " description="&lt;b&gt;ctg21_122&lt;/b&gt;&lt;br&gt;ctg21 122&lt;br&gt;Location: 138447 - 139803" locus_tag="ctg21_122" class="clusterblast-orf" id="subclusterblast-1_q5_0_all"  />
<polygon points="252,40 266,40 271,35 266,30 252,30 252,40 " style="fill:white; stroke-width:1; stroke:black; " description="&lt;b&gt;ctg21_123&lt;/b&gt;&lt;br&gt;ctg21 123&lt;br&gt;Location: 139860 - 140298" locus_tag="ctg21_123" class="clusterblast-orf" id="subclusterblast-1_q6_0_all"  />
<polygon points="271,40 293,40 298,35 293,30 271,30 271,40 " style="fill:white; stroke-width:1; stroke:black; " description="&lt;b&gt;ctg21_124&lt;/b&gt;&lt;br&gt;ctg21 124&lt;br&gt;Location: 140297 - 140915" locus_tag="ctg21_124" class="clusterblast-orf" id="subclusterblast-1_q7_0_all"  />
<polygon points="297,40 367,40 372,35 367,30 297,30 297,40 " style="fill:white; stroke-width:1; stroke:black; " description="&lt;b&gt;ctg21_125&lt;/b&gt;&lt;br&gt;ctg21 125&lt;br&gt;Location: 140911 - 142615" locus_tag="ctg21_125" class="clusterblast-orf" id="subclusterblast-1_q8_0_all"  />
<polygon points="372,35 377,30 419,30 419,40 377,40 372,35 " style="fill:white; stroke-width:1; stroke:black; " description="&lt;b&gt;ctg21_126&lt;/b&gt;&lt;br&gt;ctg21 126&lt;br&gt;Location: 142628 - 143708" locus_tag="ctg21_126" class="clusterblast-orf" id="subclusterblast-1_q9_0_all"  />
<polygon points="419,35 424,30 463,30 463,40 424,40 419,35 " style="fill:white; stroke-width:1; stroke:black; " description="&lt;b&gt;ctg21_127&lt;/b&gt;&lt;br&gt;ctg21 127&lt;br&gt;Location: 143700 - 144723" locus_tag="ctg21_127" class="clusterblast-orf" id="subclusterblast-1_q10_0_all"  />
<polygon points="465,40 498,40 503,35 498,30 465,30 465,40 " style="fill:white; stroke-width:1; stroke:black; " description="&lt;b&gt;ctg21_128&lt;/b&gt;&lt;br&gt;ctg21 128&lt;br&gt;Location: 144768 - 145629" locus_tag="ctg21_128" class="clusterblast-orf" id="subclusterblast-1_q11_0_all"  />
<polygon points="515,40 536,40 541,35 536,30 515,30 515,40 " style="fill:white; stroke-width:1; stroke:black; " description="&lt;b&gt;ctg21_129&lt;/b&gt;&lt;br&gt;ctg21 129&lt;br&gt;Location: 145903 - 146512" locus_tag="ctg21_129" class="clusterblast-orf" id="subclusterblast-1_q12_0_all"  />
<polygon points="541,40 558,40 563,35 558,30 541,30 541,40 " style="fill:white; stroke-width:1; stroke:black; " description="&lt;b&gt;ctg21_130&lt;/b&gt;&lt;br&gt;ctg21 130&lt;br&gt;Location: 146518 - 147004" locus_tag="ctg21_130" class="clusterblast-orf" id="subclusterblast-1_q13_0_all"  />
<polygon points="563,35 568,30 611,30 611,40 568,40 563,35 " style="fill:white; stroke-width:1; stroke:black; " description="&lt;b&gt;ctg21_131&lt;/b&gt;&lt;br&gt;ctg21 131&lt;br&gt;Location: 147013 - 148120" locus_tag="ctg21_131" class="clusterblast-orf" id="subclusterblast-1_q14_0_all"  />
<polygon points="613,35 618,30 655,30 655,40 618,40 613,35 " style="fill:white; stroke-width:1; stroke:black; " description="&lt;b&gt;ctg21_132&lt;/b&gt;&lt;br&gt;ctg21 132&lt;br&gt;Location: 148165 - 149122" locus_tag="ctg21_132" class="clusterblast-orf" id="subclusterblast-1_q15_0_all"  />
<polygon points="655,35 660,30 704,30 704,40 660,40 655,35 " style="fill:white; stroke-width:1; stroke:black; " description="&lt;b&gt;ctg21_133&lt;/b&gt;&lt;br&gt;ctg21 133&lt;br&gt;Location: 149118 - 150252" locus_tag="ctg21_133" class="clusterblast-orf" id="subclusterblast-1_q16_0_all"  />
<polygon points="704,35 709,30 733,30 733,40 709,40 704,35 " style="fill:white; stroke-width:1; stroke:black; " description="&lt;b&gt;ctg21_134&lt;/b&gt;&lt;br&gt;ctg21 134&lt;br&gt;Location: 150248 - 150920" locus_tag="ctg21_134" class="clusterblast-orf" id="subclusterblast-1_q17_0_all"  />
<polygon points="733,35 738,30 780,30 780,40 738,40 733,35 " style="fill:white; stroke-width:1; stroke:black; " description="&lt;b&gt;ctg21_135&lt;/b&gt;&lt;br&gt;ctg21 135&lt;br&gt;Location: 150931 - 151999" locus_tag="ctg21_135" class="clusterblast-orf" id="subclusterblast-1_q18_0_all"  />
</g>
</svg>
