<svg xmlns="http://www.w3.org/2000/svg" xmlns:xlink="http://www.w3.org/1999/xlink" version="1.1" x="0" y="0" height="50" width="800" viewBox="0 0 800 50" preserveAspectRatio="none"  >
<g label="Query sequence" class="clusterblast-cluster"  >
<text x="5" y="20" class="clusterblast-acc"  >
Query sequence</text>
<line x1="10" y1="35" x2="778.0" y2="35" style="stroke-width:1; stroke:grey; "  />
<polygon points="0,40 13,40 18,35 13,30 0,30 0,40 " style="fill:white; stroke-width:1; stroke:black; " description="&lt;b&gt;ctg12_178&lt;/b&gt;&lt;br&gt;ctg12 178&lt;br&gt;Location: 202853 - 203429" locus_tag="ctg12_178" class="clusterblast-orf" id="subclusterblast-1_q0_0_all"  />
<polygon points="17,40 53,40 58,35 53,30 17,30 17,40 " style="fill:white; stroke-width:1; stroke:black; " description="&lt;b&gt;ctg12_179&lt;/b&gt;&lt;br&gt;ctg12 179&lt;br&gt;Location: 203425 - 204751" locus_tag="ctg12_179" class="clusterblast-orf" id="subclusterblast-1_q1_0_all"  />
<polygon points="60,40 151,40 156,35 151,30 60,30 60,40 " style="fill:white; stroke-width:1; stroke:black; " description="&lt;b&gt;ctg12_180&lt;/b&gt;&lt;br&gt;ctg12 180&lt;br&gt;Location: 204790 - 207910" locus_tag="ctg12_180" class="clusterblast-orf" id="subclusterblast-1_q2_0_all"  />
<polygon points="155,35 160,30 213,30 213,40 160,40 155,35 " style="fill:white; stroke-width:1; stroke:black; " description="&lt;b&gt;ctg12_181&lt;/b&gt;&lt;br&gt;ctg12 181&lt;br&gt;Location: 207893 - 209768" locus_tag="ctg12_181" class="clusterblast-orf" id="subclusterblast-1_q3_0_all"  />
<polygon points="213,35 218,30 239,30 239,40 218,40 213,35 " style="fill:white; stroke-width:1; stroke:black; " description="&lt;b&gt;ctg12_182&lt;/b&gt;&lt;br&gt;ctg12 182&lt;br&gt;Location: 209754 - 210606" locus_tag="ctg12_182" class="clusterblast-orf" id="subclusterblast-1_q4_0_all"  />
<polygon points="240,35 245,30 299,30 299,40 245,40 240,35 " style="fill:white; stroke-width:1; stroke:black; " description="&lt;b&gt;ctg12_183&lt;/b&gt;&lt;br&gt;ctg12 183&lt;br&gt;Location: 210640 - 212545" locus_tag="ctg12_183" class="clusterblast-orf" id="subclusterblast-1_q5_0_all"  />
<polygon points="299,35 304,30 342,30 342,40 304,40 299,35 " style="fill:white; stroke-width:1; stroke:black; " description="&lt;b&gt;ctg12_184&lt;/b&gt;&lt;br&gt;ctg12 184&lt;br&gt;Location: 212548 - 213937" locus_tag="ctg12_184" class="clusterblast-orf" id="subclusterblast-1_q6_0_all"  />
<polygon points="342,35 347,30 358,30 358,40 347,40 342,35 " style="fill:white; stroke-width:1; stroke:black; " description="&lt;b&gt;ctg12_185&lt;/b&gt;&lt;br&gt;ctg12 185&lt;br&gt;Location: 213933 - 214464" locus_tag="ctg12_185" class="clusterblast-orf" id="subclusterblast-1_q7_0_all"  />
<polygon points="362,35 367,30 390,30 390,40 367,40 362,35 " style="fill:white; stroke-width:1; stroke:black; " description="&lt;b&gt;ctg12_186&lt;/b&gt;&lt;br&gt;ctg12 186&lt;br&gt;Location: 214587 - 215487" locus_tag="ctg12_186" class="clusterblast-orf" id="subclusterblast-1_q8_0_all"  />
<polygon points="395,40 414,40 419,35 414,30 395,30 395,40 " style="fill:white; stroke-width:1; stroke:black; " description="&lt;b&gt;ctg12_187&lt;/b&gt;&lt;br&gt;ctg12 187&lt;br&gt;Location: 215668 - 216421" locus_tag="ctg12_187" class="clusterblast-orf" id="subclusterblast-1_q9_0_all"  />
<polygon points="420,35 425,30 443,30 443,40 425,40 420,35 " style="fill:white; stroke-width:1; stroke:black; " description="&lt;b&gt;ctg12_188&lt;/b&gt;&lt;br&gt;ctg12 188&lt;br&gt;Location: 216454 - 217222" locus_tag="ctg12_188" class="clusterblast-orf" id="subclusterblast-1_q10_0_all"  />
<polygon points="447,40 485,40 490,35 485,30 447,30 447,40 " style="fill:white; stroke-width:1; stroke:black; " description="&lt;b&gt;ctg12_189&lt;/b&gt;&lt;br&gt;ctg12 189&lt;br&gt;Location: 217333 - 218737" locus_tag="ctg12_189" class="clusterblast-orf" id="subclusterblast-1_q11_0_all"  />
<polygon points="490,40 543,40 548,35 543,30 490,30 490,40 " style="fill:white; stroke-width:1; stroke:black; " description="&lt;b&gt;ctg12_190&lt;/b&gt;&lt;br&gt;ctg12 190&lt;br&gt;Location: 218733 - 220614" locus_tag="ctg12_190" class="clusterblast-orf" id="subclusterblast-1_q12_0_all"  />
<polygon points="550,40 576,40 581,35 576,30 550,30 550,40 " style="fill:white; stroke-width:1; stroke:black; " description="&lt;b&gt;ctg12_191&lt;/b&gt;&lt;br&gt;ctg12 191&lt;br&gt;Location: 220665 - 221673" locus_tag="ctg12_191" class="clusterblast-orf" id="subclusterblast-1_q13_0_all"  />
<polygon points="583,35 588,30 600,30 600,40 588,40 583,35 " style="fill:white; stroke-width:1; stroke:black; " description="&lt;b&gt;ctg12_192&lt;/b&gt;&lt;br&gt;ctg12 192&lt;br&gt;Location: 221734 - 222304" locus_tag="ctg12_192" class="clusterblast-orf" id="subclusterblast-1_q14_0_all"  />
<polygon points="610,40 633,40 638,35 633,30 610,30 610,40 " style="fill:white; stroke-width:1; stroke:black; " description="&lt;b&gt;ctg12_193&lt;/b&gt;&lt;br&gt;ctg12 193&lt;br&gt;Location: 222609 - 223539" locus_tag="ctg12_193" class="clusterblast-orf" id="subclusterblast-1_q15_0_all"  />
<polygon points="639,35 644,30 650,30 650,40 644,40 639,35 " style="fill:white; stroke-width:1; stroke:black; " description="&lt;b&gt;ctg12_194&lt;/b&gt;&lt;br&gt;ctg12 194&lt;br&gt;Location: 223553 - 223925" locus_tag="ctg12_194" class="clusterblast-orf" id="subclusterblast-1_q16_0_all"  />
<polygon points="658,40 660,40 665,35 660,30 658,30 658,40 " style="fill:white; stroke-width:1; stroke:black; " description="&lt;b&gt;ctg12_195&lt;/b&gt;&lt;br&gt;ctg12 195&lt;br&gt;Location: 224166 - 224400" locus_tag="ctg12_195" class="clusterblast-orf" id="subclusterblast-1_q17_0_all"  />
<polygon points="665,35 670,30 728,30 728,40 670,40 665,35 " style="fill:white; stroke-width:1; stroke:black; " description="&lt;b&gt;ctg12_196&lt;/b&gt;&lt;br&gt;ctg12 196&lt;br&gt;Location: 224403 - 226455" locus_tag="ctg12_196" class="clusterblast-orf" id="subclusterblast-1_q18_0_all"  />
<polygon points="730,35 735,30 780,30 780,40 735,40 730,35 " style="fill:white; stroke-width:1; stroke:black; " description="&lt;b&gt;ctg12_197&lt;/b&gt;&lt;br&gt;ctg12 197&lt;br&gt;Location: 226516 - 228121" locus_tag="ctg12_197" class="clusterblast-orf" id="subclusterblast-1_q19_0_all"  />
</g>
</svg>
