<svg xmlns="http://www.w3.org/2000/svg" xmlns:xlink="http://www.w3.org/1999/xlink" version="1.1" x="0" y="0" height="50" width="800" viewBox="0 0 800 50" preserveAspectRatio="none"  >
<g label="Query sequence" class="clusterblast-cluster"  >
<text x="5" y="20" class="clusterblast-acc"  >
Query sequence</text>
<line x1="10" y1="35" x2="778.0" y2="35" style="stroke-width:1; stroke:grey; "  />
<polygon points="0,40 26,40 31,35 26,30 0,30 0,40 " style="fill:white; stroke-width:1; stroke:black; " description="&lt;b&gt;ctg2_1&lt;/b&gt;&lt;br&gt;ctg2 1&lt;br&gt;Location: 358 - 1021" locus_tag="ctg2_1" class="clusterblast-orf" id="subclusterblast-1_q0_0_all"  />
<polygon points="31,40 55,40 60,35 55,30 31,30 31,40 " style="fill:white; stroke-width:1; stroke:black; " description="&lt;b&gt;ctg2_2&lt;/b&gt;&lt;br&gt;ctg2 2&lt;br&gt;Location: 1010 - 1646" locus_tag="ctg2_2" class="clusterblast-orf" id="subclusterblast-1_q1_0_all"  />
<polygon points="60,40 76,40 81,35 76,30 60,30 60,40 " style="fill:white; stroke-width:1; stroke:black; " description="&lt;b&gt;ctg2_3&lt;/b&gt;&lt;br&gt;ctg2 3&lt;br&gt;Location: 1642 - 2080" locus_tag="ctg2_3" class="clusterblast-orf" id="subclusterblast-1_q2_0_all"  />
<polygon points="82,35 87,30 100,30 100,40 87,40 82,35 " style="fill:white; stroke-width:1; stroke:black; " description="&lt;b&gt;ctg2_4&lt;/b&gt;&lt;br&gt;ctg2 4&lt;br&gt;Location: 2106 - 2481" locus_tag="ctg2_4" class="clusterblast-orf" id="subclusterblast-1_q3_0_all"  />
<polygon points="101,40 153,40 158,35 153,30 101,30 101,40 " style="fill:white; stroke-width:1; stroke:black; " description="&lt;b&gt;ctg2_5&lt;/b&gt;&lt;br&gt;ctg2 5&lt;br&gt;Location: 2503 - 3730" locus_tag="ctg2_5" class="clusterblast-orf" id="subclusterblast-1_q4_0_all"  />
<polygon points="158,35 163,30 271,30 271,40 163,40 158,35 " style="fill:white; stroke-width:1; stroke:black; " description="&lt;b&gt;ctg2_6&lt;/b&gt;&lt;br&gt;ctg2 6&lt;br&gt;Location: 3712 - 6136" locus_tag="ctg2_6" class="clusterblast-orf" id="subclusterblast-1_q5_0_all"  />
<polygon points="273,40 301,40 306,35 301,30 273,30 273,40 " style="fill:white; stroke-width:1; stroke:black; " description="&lt;b&gt;ctg2_7&lt;/b&gt;&lt;br&gt;ctg2 7&lt;br&gt;Location: 6176 - 6878" locus_tag="ctg2_7" class="clusterblast-orf" id="subclusterblast-1_q6_0_all"  />
<polygon points="308,40 322,40 327,35 322,30 308,30 308,40 " style="fill:white; stroke-width:1; stroke:black; " description="&lt;b&gt;ctg2_8&lt;/b&gt;&lt;br&gt;ctg2 8&lt;br&gt;Location: 6915 - 7317" locus_tag="ctg2_8" class="clusterblast-orf" id="subclusterblast-1_q7_0_all"  />
<polygon points="327,40 369,40 374,35 369,30 327,30 327,40 " style="fill:white; stroke-width:1; stroke:black; " description="&lt;b&gt;ctg2_9&lt;/b&gt;&lt;br&gt;ctg2 9&lt;br&gt;Location: 7318 - 8323" locus_tag="ctg2_9" class="clusterblast-orf" id="subclusterblast-1_q8_0_all"  />
<polygon points="376,40 423,40 428,35 423,30 376,30 376,40 " style="fill:white; stroke-width:1; stroke:black; " description="&lt;b&gt;ctg2_10&lt;/b&gt;&lt;br&gt;ctg2 10&lt;br&gt;Location: 8361 - 9459" locus_tag="ctg2_10" class="clusterblast-orf" id="subclusterblast-1_q9_0_all"  />
<polygon points="427,40 499,40 504,35 499,30 427,30 427,40 " style="fill:white; stroke-width:1; stroke:black; " description="&lt;b&gt;ctg2_11&lt;/b&gt;&lt;br&gt;ctg2 11&lt;br&gt;Location: 9455 - 11081" locus_tag="ctg2_11" class="clusterblast-orf" id="subclusterblast-1_q10_0_all"  />
<polygon points="504,40 509,40 514,35 509,30 504,30 504,40 " style="fill:white; stroke-width:1; stroke:black; " description="&lt;b&gt;ctg2_12&lt;/b&gt;&lt;br&gt;ctg2 12&lt;br&gt;Location: 11077 - 11293" locus_tag="ctg2_12" class="clusterblast-orf" id="subclusterblast-1_q11_0_all"  />
<polygon points="514,35 519,30 557,30 557,40 519,40 514,35 " style="fill:white; stroke-width:1; stroke:black; " description="&lt;b&gt;ctg2_13&lt;/b&gt;&lt;br&gt;ctg2 13&lt;br&gt;Location: 11304 - 12207" locus_tag="ctg2_13" class="clusterblast-orf" id="subclusterblast-1_q12_0_all"  />
<polygon points="560,40 599,40 604,35 599,30 560,30 560,40 " style="fill:white; stroke-width:1; stroke:black; " description="&lt;b&gt;ctg2_14&lt;/b&gt;&lt;br&gt;ctg2 14&lt;br&gt;Location: 12283 - 13207" locus_tag="ctg2_14" class="clusterblast-orf" id="subclusterblast-1_q13_0_all"  />
<polygon points="603,40 635,40 640,35 635,30 603,30 603,40 " style="fill:white; stroke-width:1; stroke:black; " description="&lt;b&gt;ctg2_15&lt;/b&gt;&lt;br&gt;ctg2 15&lt;br&gt;Location: 13203 - 13986" locus_tag="ctg2_15" class="clusterblast-orf" id="subclusterblast-1_q14_0_all"  />
<polygon points="644,40 734,40 739,35 734,30 644,30 644,40 " style="fill:white; stroke-width:1; stroke:black; " description="&lt;b&gt;ctg2_16&lt;/b&gt;&lt;br&gt;ctg2 16&lt;br&gt;Location: 14070 - 16080" locus_tag="ctg2_16" class="clusterblast-orf" id="subclusterblast-1_q15_0_all"  />
<polygon points="738,40 775,40 780,35 775,30 738,30 738,40 " style="fill:white; stroke-width:1; stroke:black; " description="&lt;b&gt;ctg2_17&lt;/b&gt;&lt;br&gt;ctg2 17&lt;br&gt;Location: 16076 - 16961" locus_tag="ctg2_17" class="clusterblast-orf" id="subclusterblast-1_q16_0_all"  />
</g>
</svg>
