<svg xmlns="http://www.w3.org/2000/svg" xmlns:xlink="http://www.w3.org/1999/xlink" version="1.1" x="0" y="0" height="230" width="800" viewBox="0 0 800 230" preserveAspectRatio="none"  >
<g label="Query sequence" class="clusterblast-cluster"  >
<text x="5" y="20" class="clusterblast-acc"  >
Query sequence</text>
<line x1="10" y1="35" x2="778.0" y2="35" style="stroke-width:1; stroke:grey; "  />
<polygon points="0,35 5,30 7,30 7,40 5,40 0,35 " style="fill:white; stroke-width:1; stroke:black; " description="&lt;b&gt;ctg7_203&lt;/b&gt;&lt;br&gt;ctg7 203&lt;br&gt;Location: 215753 - 216143" locus_tag="ctg7_203" class="clusterblast-orf" id="dummy-1_q0_0_all"  />
<polygon points="13,35 18,30 18,30 18,40 18,40 13,35 " style="fill:white; stroke-width:1; stroke:black; " description="&lt;b&gt;ctg7_204&lt;/b&gt;&lt;br&gt;ctg7 204&lt;br&gt;Location: 216460 - 216736" locus_tag="ctg7_204" class="clusterblast-orf" id="dummy-1_q1_0_all"  />
<polygon points="24,35 29,30 81,30 81,40 29,40 24,35 " style="fill:white; stroke-width:1; stroke:black; " description="&lt;b&gt;ctg7_205&lt;/b&gt;&lt;br&gt;ctg7 205&lt;br&gt;Location: 217100 - 220163" locus_tag="ctg7_205" class="clusterblast-orf" id="dummy-1_q2_0_all"  />
<polygon points="82,40 136,40 141,35 136,30 82,30 82,40 " style="fill:white; stroke-width:1; stroke:black; " description="&lt;b&gt;ctg7_206&lt;/b&gt;&lt;br&gt;ctg7 206&lt;br&gt;Location: 220206 - 223422" locus_tag="ctg7_206" class="clusterblast-orf" id="dummy-1_q3_0_all"  />
<polygon points="148,35 153,30 192,30 192,40 153,40 148,35 " style="fill:white; stroke-width:1; stroke:black; " description="&lt;b&gt;ctg7_207&lt;/b&gt;&lt;br&gt;ctg7 207&lt;br&gt;Location: 223782 - 226185" locus_tag="ctg7_207" class="clusterblast-orf" id="dummy-1_q4_0_all"  />
<polygon points="198,40 199,40 204,35 199,30 198,30 198,40 " style="fill:white; stroke-width:1; stroke:black; " description="&lt;b&gt;ctg7_208&lt;/b&gt;&lt;br&gt;ctg7 208&lt;br&gt;Location: 226519 - 226852" locus_tag="ctg7_208" class="clusterblast-orf" id="dummy-1_q5_0_all"  />
<polygon points="201,35 206,30 211,30 211,40 206,40 201,35 " style="fill:white; stroke-width:1; stroke:black; " description="&lt;b&gt;ctg7_209&lt;/b&gt;&lt;br&gt;ctg7 209&lt;br&gt;Location: 226696 - 227224" locus_tag="ctg7_209" class="clusterblast-orf" id="dummy-1_q6_0_all"  />
<polygon points="213,35 218,30 237,30 237,40 218,40 213,35 " style="fill:white; stroke-width:1; stroke:black; " description="&lt;b&gt;ctg7_210&lt;/b&gt;&lt;br&gt;ctg7 210&lt;br&gt;Location: 227355 - 228624" locus_tag="ctg7_210" class="clusterblast-orf" id="dummy-1_q7_0_all"  />
<polygon points="238,40 252,40 257,35 252,30 238,30 238,40 " style="fill:white; stroke-width:1; stroke:black; " description="&lt;b&gt;ctg7_211&lt;/b&gt;&lt;br&gt;ctg7 211&lt;br&gt;Location: 228676 - 229702" locus_tag="ctg7_211" class="clusterblast-orf" id="dummy-1_q8_0_all"  />
<polygon points="257,40 270,40 275,35 270,30 257,30 257,40 " style="fill:white; stroke-width:1; stroke:black; " description="&lt;b&gt;ctg7_212&lt;/b&gt;&lt;br&gt;ctg7 212&lt;br&gt;Location: 229698 - 230697" locus_tag="ctg7_212" class="clusterblast-orf" id="dummy-1_q9_0_all"  />
<polygon points="273,35 278,30 280,30 280,40 278,40 273,35 " style="fill:white; stroke-width:1; stroke:black; " description="&lt;b&gt;ctg7_213&lt;/b&gt;&lt;br&gt;ctg7 213&lt;br&gt;Location: 230617 - 230998" locus_tag="ctg7_213" class="clusterblast-orf" id="dummy-1_q10_0_all"  />
<polygon points="280,35 285,30 295,30 295,40 285,40 280,35 " style="fill:white; stroke-width:1; stroke:black; " description="&lt;b&gt;ctg7_214&lt;/b&gt;&lt;br&gt;ctg7 214&lt;br&gt;Location: 230987 - 231794" locus_tag="ctg7_214" class="clusterblast-orf" id="dummy-1_q11_0_all"  />
<polygon points="298,40 302,40 307,35 302,30 298,30 298,40 " style="fill:white; stroke-width:1; stroke:black; " description="&lt;b&gt;ctg7_215&lt;/b&gt;&lt;br&gt;ctg7 215&lt;br&gt;Location: 231938 - 232436" locus_tag="ctg7_215" class="clusterblast-orf" id="dummy-1_q12_0_all"  />
<polygon points="310,35 315,30 337,30 337,40 315,40 310,35 " style="fill:white; stroke-width:1; stroke:black; " description="&lt;b&gt;ctg7_216&lt;/b&gt;&lt;br&gt;ctg7 216&lt;br&gt;Location: 232606 - 234046" locus_tag="ctg7_216" class="clusterblast-orf" id="dummy-1_q13_0_all"  />
<polygon points="340,40 345,40 350,35 345,30 340,30 340,40 " style="fill:white; stroke-width:1; stroke:black; " description="&lt;b&gt;ctg7_217&lt;/b&gt;&lt;br&gt;ctg7 217&lt;br&gt;Location: 234219 - 234753" locus_tag="ctg7_217" class="clusterblast-orf" id="dummy-1_q14_0_all"  />
<polygon points="350,35 355,30 372,30 372,40 355,40 350,35 " style="fill:#d81515; stroke-width:1; stroke:black; " description="&lt;b&gt;ctg7_218&lt;/b&gt;&lt;br&gt;ctg7 218&lt;br&gt;Location: 234764 - 235964" locus_tag="ctg7_218" class="clusterblast-orf" id="dummy-1_q15_0_all"  />
<polygon points="372,35 377,30 385,30 385,40 377,40 372,35 " style="fill:#15d815; stroke-width:1; stroke:black; " description="&lt;b&gt;ctg7_219&lt;/b&gt;&lt;br&gt;ctg7 219&lt;br&gt;Location: 235984 - 236698" locus_tag="ctg7_219" class="clusterblast-orf" id="dummy-1_q16_0_all"  />
<polygon points="385,35 390,30 393,30 393,40 390,40 385,35 " style="fill:white; stroke-width:1; stroke:black; " description="&lt;b&gt;ctg7_220&lt;/b&gt;&lt;br&gt;ctg7 220&lt;br&gt;Location: 236694 - 237117" locus_tag="ctg7_220" class="clusterblast-orf" id="dummy-1_q17_0_all"  />
<polygon points="393,35 398,30 415,30 415,40 398,40 393,35 " style="fill:#1515d8; stroke-width:1; stroke:black; " description="&lt;b&gt;ctg7_221&lt;/b&gt;&lt;br&gt;ctg7 221&lt;br&gt;Location: 237120 - 238314" locus_tag="ctg7_221" class="clusterblast-orf" id="dummy-1_q18_0_all"  />
<polygon points="415,35 420,30 427,30 427,40 420,40 415,35 " style="fill:white; stroke-width:1; stroke:black; " description="&lt;b&gt;ctg7_222&lt;/b&gt;&lt;br&gt;ctg7 222&lt;br&gt;Location: 238310 - 238952" locus_tag="ctg7_222" class="clusterblast-orf" id="dummy-1_q19_0_all"  />
<polygon points="427,35 432,30 457,30 457,40 432,40 427,35 " style="fill:white; stroke-width:1; stroke:black; " description="&lt;b&gt;ctg7_223&lt;/b&gt;&lt;br&gt;ctg7 223&lt;br&gt;Location: 238955 - 240560" locus_tag="ctg7_223" class="clusterblast-orf" id="dummy-1_q20_0_all"  />
<polygon points="458,40 467,40 472,35 467,30 458,30 458,40 " style="fill:white; stroke-width:1; stroke:black; " description="&lt;b&gt;ctg7_224&lt;/b&gt;&lt;br&gt;ctg7 224&lt;br&gt;Location: 240651 - 241419" locus_tag="ctg7_224" class="clusterblast-orf" id="dummy-1_q21_0_all"  />
<polygon points="472,40 482,40 487,35 482,30 472,30 472,40 " style="fill:white; stroke-width:1; stroke:black; " description="&lt;b&gt;ctg7_225&lt;/b&gt;&lt;br&gt;ctg7 225&lt;br&gt;Location: 241415 - 242213" locus_tag="ctg7_225" class="clusterblast-orf" id="dummy-1_q22_0_all"  />
<polygon points="487,40 487,40 492,35 487,30 487,30 487,40 " style="fill:#d815d8; stroke-width:1; stroke:black; " description="&lt;b&gt;ctg7_226&lt;/b&gt;&lt;br&gt;ctg7 226&lt;br&gt;Location: 242223 - 242493" locus_tag="ctg7_226" class="clusterblast-orf" id="dummy-1_q23_0_all"  />
<polygon points="492,40 496,35 492,30 492,40 " style="fill:#d8d815; stroke-width:1; stroke:black; " description="&lt;b&gt;ctg7_227&lt;/b&gt;&lt;br&gt;ctg7 227&lt;br&gt;Location: 242476 - 242725" locus_tag="ctg7_227" class="clusterblast-orf" id="dummy-1_q24_0_all"  />
<polygon points="496,40 502,40 507,35 502,30 496,30 496,40 " style="fill:white; stroke-width:1; stroke:black; " description="&lt;b&gt;ctg7_228&lt;/b&gt;&lt;br&gt;ctg7 228&lt;br&gt;Location: 242717 - 243311" locus_tag="ctg7_228" class="clusterblast-orf" id="dummy-1_q25_0_all"  />
<polygon points="507,40 533,40 538,35 533,30 507,30 507,40 " style="fill:white; stroke-width:1; stroke:black; " description="&lt;b&gt;ctg7_229&lt;/b&gt;&lt;br&gt;ctg7 229&lt;br&gt;Location: 243307 - 245002" locus_tag="ctg7_229" class="clusterblast-orf" id="dummy-1_q26_0_all"  />
<polygon points="538,40 565,40 570,35 565,30 538,30 538,40 " style="fill:white; stroke-width:1; stroke:black; " description="&lt;b&gt;ctg7_230&lt;/b&gt;&lt;br&gt;ctg7 230&lt;br&gt;Location: 244991 - 246707" locus_tag="ctg7_230" class="clusterblast-orf" id="dummy-1_q27_0_all"  />
<polygon points="569,40 593,40 598,35 593,30 569,30 569,40 " style="fill:#15d8d8; stroke-width:1; stroke:black; " description="&lt;b&gt;ctg7_231&lt;/b&gt;&lt;br&gt;ctg7 231&lt;br&gt;Location: 246687 - 248253" locus_tag="ctg7_231" class="clusterblast-orf" id="dummy-1_q28_0_all"  />
<polygon points="598,40 601,40 606,35 601,30 598,30 598,40 " style="fill:white; stroke-width:1; stroke:black; " description="&lt;b&gt;ctg7_232&lt;/b&gt;&lt;br&gt;ctg7 232&lt;br&gt;Location: 248245 - 248665" locus_tag="ctg7_232" class="clusterblast-orf" id="dummy-1_q29_0_all"  />
<polygon points="606,40 613,40 618,35 613,30 606,30 606,40 " style="fill:white; stroke-width:1; stroke:black; " description="&lt;b&gt;ctg7_233&lt;/b&gt;&lt;br&gt;ctg7 233&lt;br&gt;Location: 248661 - 249327" locus_tag="ctg7_233" class="clusterblast-orf" id="dummy-1_q30_0_all"  />
<polygon points="618,40 656,40 661,35 656,30 618,30 618,40 " style="fill:white; stroke-width:1; stroke:black; " description="&lt;b&gt;ctg7_234&lt;/b&gt;&lt;br&gt;ctg7 234&lt;br&gt;Location: 249316 - 251659" locus_tag="ctg7_234" class="clusterblast-orf" id="dummy-1_q31_0_all"  />
<polygon points="662,40 665,40 670,35 665,30 662,30 662,40 " style="fill:white; stroke-width:1; stroke:black; " description="&lt;b&gt;ctg7_235&lt;/b&gt;&lt;br&gt;ctg7 235&lt;br&gt;Location: 251700 - 252129" locus_tag="ctg7_235" class="clusterblast-orf" id="dummy-1_q32_0_all"  />
<polygon points="673,40 681,40 686,35 681,30 673,30 673,40 " style="fill:white; stroke-width:1; stroke:black; " description="&lt;b&gt;ctg7_236&lt;/b&gt;&lt;br&gt;ctg7 236&lt;br&gt;Location: 252320 - 252995" locus_tag="ctg7_236" class="clusterblast-orf" id="dummy-1_q33_0_all"  />
<polygon points="693,40 700,40 705,35 700,30 693,30 693,40 " style="fill:white; stroke-width:1; stroke:black; " description="&lt;b&gt;ctg7_237&lt;/b&gt;&lt;br&gt;ctg7 237&lt;br&gt;Location: 253413 - 254064" locus_tag="ctg7_237" class="clusterblast-orf" id="dummy-1_q34_0_all"  />
<polygon points="705,40 719,40 724,35 719,30 705,30 705,40 " style="fill:white; stroke-width:1; stroke:black; " description="&lt;b&gt;ctg7_238&lt;/b&gt;&lt;br&gt;ctg7 238&lt;br&gt;Location: 254073 - 255057" locus_tag="ctg7_238" class="clusterblast-orf" id="dummy-1_q35_0_all"  />
<polygon points="724,35 729,30 756,30 756,40 729,40 724,35 " style="fill:white; stroke-width:1; stroke:black; " description="&lt;b&gt;ctg7_239&lt;/b&gt;&lt;br&gt;ctg7 239&lt;br&gt;Location: 255070 - 256828" locus_tag="ctg7_239" class="clusterblast-orf" id="dummy-1_q36_0_all"  />
<polygon points="759,35 764,30 772,30 772,40 764,40 759,35 " style="fill:white; stroke-width:1; stroke:black; " description="&lt;b&gt;ctg7_240&lt;/b&gt;&lt;br&gt;ctg7 240&lt;br&gt;Location: 256976 - 257684" locus_tag="ctg7_240" class="clusterblast-orf" id="dummy-1_q37_0_all"  />
<polygon points="774,35 779,30 780,30 780,40 779,40 774,35 " style="fill:white; stroke-width:1; stroke:black; " description="&lt;b&gt;ctg7_241&lt;/b&gt;&lt;br&gt;ctg7 241&lt;br&gt;Location: 257795 - 258104" locus_tag="ctg7_241" class="clusterblast-orf" id="dummy-1_q38_0_all"  />
</g>
<g label="BGC0000837" description="BGC0000837_c1: APE Vf (30% of genes show similarity), Other" class="clusterblast-cluster"  >
<text x="5" y="70" class="clusterblast-acc"  >
<a xlink:href="https://mibig.secondarymetabolites.org/go/BGC0000837/1" target="_blank">BGC0000837</a>: APE Vf                                                                           (30% of genes show similarity), Other</text>
<line x1="10" y1="85" x2="778.0" y2="85" style="stroke-width:1; stroke:grey; "  />
</g>
<g id="a1_000"  >
<polygon points="219,85 224,80 241,80 241,90 224,90 219,85 " style="fill:white; stroke-width:1; stroke:black; " description="&lt;b&gt;VF_0841&lt;/b&gt;&lt;br&gt;dehydrogenase&lt;br&gt;Location: 1 - 1233" locus_tag="VF_0841" class="clusterblast-orf" id="dummy-1_h1_1_0"  />
</g>
<g id="a1_001"  >
<polygon points="243,85 248,80 263,80 263,90 248,90 243,85 " style="fill:white; stroke-width:1; stroke:black; " description="&lt;b&gt;VF_0842&lt;/b&gt;&lt;br&gt;putative O-methyltransferase&lt;br&gt;Location: 1333 - 2400" locus_tag="VF_0842" class="clusterblast-orf" id="dummy-1_h1_1_1"  />
</g>
<g id="a1_002"  >
<polygon points="265,85 270,80 275,80 275,90 270,90 265,85 " style="fill:white; stroke-width:1; stroke:black; " description="&lt;b&gt;VF_0843&lt;/b&gt;&lt;br&gt;lipoprotein, putative&lt;br&gt;Location: 2504 - 3079" locus_tag="VF_0843" class="clusterblast-orf" id="dummy-1_h1_1_2"  />
</g>
<g id="a1_003"  >
<polygon points="278,90 286,90 291,85 286,80 278,80 278,90 " style="fill:white; stroke-width:1; stroke:black; " description="&lt;b&gt;VF_0844&lt;/b&gt;&lt;br&gt;hypothetical protein&lt;br&gt;Location: 3209 - 3937" locus_tag="VF_0844" class="clusterblast-orf" id="dummy-1_h1_1_3"  />
</g>
<g id="a1_004"  >
<polygon points="291,90 301,90 306,85 301,80 291,80 291,90 " style="fill:white; stroke-width:1; stroke:black; " description="&lt;b&gt;VF_0845&lt;/b&gt;&lt;br&gt;1-acyl-sn-glycerol-3-phosphate acyltransferase&lt;br&gt;Location: 3942 - 4739" locus_tag="VF_0845" class="clusterblast-orf" id="dummy-1_h1_1_4"  />
</g>
<g id="a1_005"  >
<polygon points="305,90 306,90 311,85 306,80 305,80 305,90 " style="fill:#d815d8; stroke-width:1; stroke:black; " description="&lt;b&gt;VF_0846&lt;/b&gt;&lt;br&gt;acyl carrier protein&lt;br&gt;Location: 4708 - 5004&lt;br&gt;&lt;br&gt;&lt;b&gt;BlastP hit with ctg7_226&lt;/b&gt;&lt;br&gt;Percentage identity: 51&lt;br&gt;Percentage coverage: 90&lt;br&gt;BLAST bit score: 77&lt;br&gt;E-value: 5.67e-20" locus_tag="VF_0846" class="clusterblast-orf" id="dummy-1_h1_1_5"  />
</g>
<g id="a1_006"  >
<polygon points="311,90 311,90 316,85 311,80 311,80 311,90 " style="fill:#d8d815; stroke-width:1; stroke:black; " description="&lt;b&gt;VF_0847&lt;/b&gt;&lt;br&gt;acyl carrier protein&lt;br&gt;Location: 5016 - 5273&lt;br&gt;&lt;br&gt;&lt;b&gt;BlastP hit with ctg7_227&lt;/b&gt;&lt;br&gt;Percentage identity: 50&lt;br&gt;Percentage coverage: 98&lt;br&gt;BLAST bit score: 90&lt;br&gt;E-value: 4.16e-25" locus_tag="VF_0847" class="clusterblast-orf" id="dummy-1_h1_1_6"  />
</g>
<g id="a1_007"  >
<polygon points="316,90 321,90 326,85 321,80 316,80 316,90 " style="fill:white; stroke-width:1; stroke:black; " description="&lt;b&gt;VF_0848&lt;/b&gt;&lt;br&gt;DNA gyrase subunit B&lt;br&gt;Location: 5273 - 5833" locus_tag="VF_0848" class="clusterblast-orf" id="dummy-1_h1_1_7"  />
</g>
<g id="a1_008"  >
<polygon points="325,90 346,90 351,85 346,80 325,80 325,90 " style="fill:white; stroke-width:1; stroke:black; " description="&lt;b&gt;VF_0849&lt;/b&gt;&lt;br&gt;AMP-(fatty)acid ligase&lt;br&gt;Location: 5794 - 7197" locus_tag="VF_0849" class="clusterblast-orf" id="dummy-1_h1_1_8"  />
</g>
<g id="a1_009"  >
<polygon points="352,90 353,90 358,85 353,80 352,80 352,90 " style="fill:white; stroke-width:1; stroke:black; " description="&lt;b&gt;VF_0850&lt;/b&gt;&lt;br&gt;AMP-(fatty)acid ligase&lt;br&gt;Location: 7211 - 7585" locus_tag="VF_0850" class="clusterblast-orf" id="dummy-1_h1_1_9"  />
</g>
<g id="a1_0010"  >
<polygon points="359,90 385,90 390,85 385,80 359,80 359,90 " style="fill:white; stroke-width:1; stroke:black; " description="&lt;b&gt;VF_0851&lt;/b&gt;&lt;br&gt;predicted acyltransferase&lt;br&gt;Location: 7588 - 9279" locus_tag="VF_0851" class="clusterblast-orf" id="dummy-1_h1_1_10"  />
</g>
<g id="a1_0011"  >
<polygon points="389,90 413,90 418,85 413,80 389,80 389,90 " style="fill:#15d8d8; stroke-width:1; stroke:black; " description="&lt;b&gt;VF_0852&lt;/b&gt;&lt;br&gt;phenylalanine and histidine ammonia-lyase&lt;br&gt;Location: 9269 - 10804&lt;br&gt;&lt;br&gt;&lt;b&gt;BlastP hit with ctg7_231&lt;/b&gt;&lt;br&gt;Percentage identity: 61&lt;br&gt;Percentage coverage: 99&lt;br&gt;BLAST bit score: 631&lt;br&gt;E-value: 3e-225" locus_tag="VF_0852" class="clusterblast-orf" id="dummy-1_h1_1_11"  />
</g>
<g id="a1_0012"  >
<polygon points="418,90 421,90 426,85 421,80 418,80 418,90 " style="fill:white; stroke-width:1; stroke:black; " description="&lt;b&gt;VF_0853&lt;/b&gt;&lt;br&gt;esterase&lt;br&gt;Location: 10816 - 11262" locus_tag="VF_0853" class="clusterblast-orf" id="dummy-1_h1_1_12"  />
</g>
<g id="a1_0013"  >
<polygon points="426,90 432,90 437,85 432,80 426,80 426,90 " style="fill:white; stroke-width:1; stroke:black; " description="&lt;b&gt;VF_0854&lt;/b&gt;&lt;br&gt;hypothetical protein&lt;br&gt;Location: 11255 - 11875" locus_tag="VF_0854" class="clusterblast-orf" id="dummy-1_h1_1_13"  />
</g>
<g id="a1_0014"  >
<polygon points="447,90 477,90 482,85 477,80 447,80 447,90 " style="fill:white; stroke-width:1; stroke:black; " description="&lt;b&gt;VF_0855&lt;/b&gt;&lt;br&gt;transporter&lt;br&gt;Location: 12397 - 14292" locus_tag="VF_0855" class="clusterblast-orf" id="dummy-1_h1_1_14"  />
</g>
<g id="a1_0015"  >
<polygon points="482,90 488,90 493,85 488,80 482,80 482,90 " style="fill:white; stroke-width:1; stroke:black; " description="&lt;b&gt;VF_0856&lt;/b&gt;&lt;br&gt;phospho-N-acetylmuramoyl-pentapeptide- transferase&lt;br&gt;Location: 14282 - 14908" locus_tag="VF_0856" class="clusterblast-orf" id="dummy-1_h1_1_15"  />
</g>
<g id="a1_0016"  >
<polygon points="493,90 510,90 515,85 510,80 493,80 493,90 " style="fill:#1515d8; stroke-width:1; stroke:black; " description="&lt;b&gt;VF_0857&lt;/b&gt;&lt;br&gt;3-oxoacyl-(acyl carrier protein) synthase&lt;br&gt;Location: 14914 - 16101&lt;br&gt;&lt;br&gt;&lt;b&gt;BlastP hit with ctg7_221&lt;/b&gt;&lt;br&gt;Percentage identity: 51&lt;br&gt;Percentage coverage: 88&lt;br&gt;BLAST bit score: 335&lt;br&gt;E-value: 1.44e-112" locus_tag="VF_0857" class="clusterblast-orf" id="dummy-1_h1_1_16"  />
</g>
<g id="a1_0017"  >
<polygon points="515,90 519,90 524,85 519,80 515,80 515,90 " style="fill:white; stroke-width:1; stroke:black; " description="&lt;b&gt;VF_0858&lt;/b&gt;&lt;br&gt;predicted 3-hydroxylacyl-(acyl carrier protein) dehydratase&lt;br&gt;Location: 16092 - 16562" locus_tag="VF_0858" class="clusterblast-orf" id="dummy-1_h1_1_17"  />
</g>
<g id="a1_0018"  >
<polygon points="524,90 533,90 538,85 533,80 524,80 524,90 " style="fill:#15d815; stroke-width:1; stroke:black; " description="&lt;b&gt;VF_0859&lt;/b&gt;&lt;br&gt;3-oxoacyl-(acyl-carrier-protein) reductase, putative&lt;br&gt;Location: 16582 - 17307&lt;br&gt;&lt;br&gt;&lt;b&gt;BlastP hit with ctg7_219&lt;/b&gt;&lt;br&gt;Percentage identity: 67&lt;br&gt;Percentage coverage: 101&lt;br&gt;BLAST bit score: 322&lt;br&gt;E-value: 3.31e-112" locus_tag="VF_0859" class="clusterblast-orf" id="dummy-1_h1_1_18"  />
</g>
<g id="a1_0019"  >
<polygon points="537,90 555,90 560,85 555,80 537,80 537,90 " style="fill:#d81515; stroke-width:1; stroke:black; " description="&lt;b&gt;VF_0860&lt;/b&gt;&lt;br&gt;3-oxoacyl-(acyl carrier protein) synthase&lt;br&gt;Location: 17304 - 18539&lt;br&gt;&lt;br&gt;&lt;b&gt;BlastP hit with ctg7_218&lt;/b&gt;&lt;br&gt;Percentage identity: 60&lt;br&gt;Percentage coverage: 100&lt;br&gt;BLAST bit score: 485&lt;br&gt;E-value: 3.14e-171" locus_tag="VF_0860" class="clusterblast-orf" id="dummy-1_h1_1_19"  />
</g>
</svg>
