<svg xmlns="http://www.w3.org/2000/svg" xmlns:xlink="http://www.w3.org/1999/xlink" version="1.1" x="0" y="0" height="50" width="800" viewBox="0 0 800 50" preserveAspectRatio="none"  >
<g label="Query sequence" class="clusterblast-cluster"  >
<text x="5" y="20" class="clusterblast-acc"  >
Query sequence</text>
<line x1="10" y1="35" x2="778.0" y2="35" style="stroke-width:1; stroke:grey; "  />
<polygon points="0,35 5,30 23,30 23,40 5,40 0,35 " style="fill:white; stroke-width:1; stroke:black; " description="&lt;b&gt;ctg8_80&lt;/b&gt;&lt;br&gt;ctg8 80&lt;br&gt;Location: 88802 - 89393" locus_tag="ctg8_80" class="clusterblast-orf" id="knownclusterblast-1_q0_0_all"  />
<polygon points="27,35 32,30 58,30 58,40 32,40 27,35 " style="fill:white; stroke-width:1; stroke:black; " description="&lt;b&gt;ctg8_81&lt;/b&gt;&lt;br&gt;ctg8 81&lt;br&gt;Location: 89502 - 90303" locus_tag="ctg8_81" class="clusterblast-orf" id="knownclusterblast-1_q1_0_all"  />
<polygon points="58,35 63,30 77,30 77,40 63,40 58,35 " style="fill:white; stroke-width:1; stroke:black; " description="&lt;b&gt;ctg8_82&lt;/b&gt;&lt;br&gt;ctg8 82&lt;br&gt;Location: 90295 - 90772" locus_tag="ctg8_82" class="clusterblast-orf" id="knownclusterblast-1_q2_0_all"  />
<polygon points="75,35 80,30 89,30 89,40 80,40 75,35 " style="fill:white; stroke-width:1; stroke:black; " description="&lt;b&gt;ctg8_83&lt;/b&gt;&lt;br&gt;ctg8 83&lt;br&gt;Location: 90725 - 91079" locus_tag="ctg8_83" class="clusterblast-orf" id="knownclusterblast-1_q3_0_all"  />
<polygon points="90,35 95,30 104,30 104,40 95,40 90,35 " style="fill:white; stroke-width:1; stroke:black; " description="&lt;b&gt;ctg8_84&lt;/b&gt;&lt;br&gt;ctg8 84&lt;br&gt;Location: 91118 - 91466" locus_tag="ctg8_84" class="clusterblast-orf" id="knownclusterblast-1_q4_0_all"  />
<polygon points="108,35 113,30 156,30 156,40 113,40 108,35 " style="fill:white; stroke-width:1; stroke:black; " description="&lt;b&gt;ctg8_85&lt;/b&gt;&lt;br&gt;ctg8 85&lt;br&gt;Location: 91567 - 92824" locus_tag="ctg8_85" class="clusterblast-orf" id="knownclusterblast-1_q5_0_all"  />
<polygon points="156,35 161,30 184,30 184,40 161,40 156,35 " style="fill:white; stroke-width:1; stroke:black; " description="&lt;b&gt;ctg8_86&lt;/b&gt;&lt;br&gt;ctg8 86&lt;br&gt;Location: 92820 - 93525" locus_tag="ctg8_86" class="clusterblast-orf" id="knownclusterblast-1_q6_0_all"  />
<polygon points="183,35 188,30 224,30 224,40 188,40 183,35 " style="fill:white; stroke-width:1; stroke:black; " description="&lt;b&gt;ctg8_87&lt;/b&gt;&lt;br&gt;ctg8 87&lt;br&gt;Location: 93514 - 94561" locus_tag="ctg8_87" class="clusterblast-orf" id="knownclusterblast-1_q7_0_all"  />
<polygon points="224,35 229,30 262,30 262,40 229,40 224,35 " style="fill:white; stroke-width:1; stroke:black; " description="&lt;b&gt;ctg8_88&lt;/b&gt;&lt;br&gt;ctg8 88&lt;br&gt;Location: 94571 - 95546" locus_tag="ctg8_88" class="clusterblast-orf" id="knownclusterblast-1_q8_0_all"  />
<polygon points="263,40 279,40 284,35 279,30 263,30 263,40 " style="fill:white; stroke-width:1; stroke:black; " description="&lt;b&gt;ctg8_89&lt;/b&gt;&lt;br&gt;ctg8 89&lt;br&gt;Location: 95555 - 96098" locus_tag="ctg8_89" class="clusterblast-orf" id="knownclusterblast-1_q9_0_all"  />
<polygon points="286,40 321,40 326,35 321,30 286,30 286,40 " style="fill:white; stroke-width:1; stroke:black; " description="&lt;b&gt;ctg8_90&lt;/b&gt;&lt;br&gt;ctg8 90&lt;br&gt;Location: 96157 - 97183" locus_tag="ctg8_90" class="clusterblast-orf" id="knownclusterblast-1_q10_0_all"  />
<polygon points="328,35 333,30 404,30 404,40 333,40 328,35 " style="fill:white; stroke-width:1; stroke:black; " description="&lt;b&gt;ctg8_91&lt;/b&gt;&lt;br&gt;ctg8 91&lt;br&gt;Location: 97240 - 99193" locus_tag="ctg8_91" class="clusterblast-orf" id="knownclusterblast-1_q11_0_all"  />
<polygon points="421,40 469,40 474,35 469,30 421,30 421,40 " style="fill:white; stroke-width:1; stroke:black; " description="&lt;b&gt;ctg8_92&lt;/b&gt;&lt;br&gt;ctg8 92&lt;br&gt;Location: 99612 - 100986" locus_tag="ctg8_92" class="clusterblast-orf" id="knownclusterblast-1_q12_0_all"  />
<polygon points="478,40 571,40 576,35 571,30 478,30 478,40 " style="fill:white; stroke-width:1; stroke:black; " description="&lt;b&gt;ctg8_93&lt;/b&gt;&lt;br&gt;ctg8 93&lt;br&gt;Location: 101088 - 103614" locus_tag="ctg8_93" class="clusterblast-orf" id="knownclusterblast-1_q13_0_all"  />
<polygon points="577,35 582,30 634,30 634,40 582,40 577,35 " style="fill:white; stroke-width:1; stroke:black; " description="&lt;b&gt;ctg8_94&lt;/b&gt;&lt;br&gt;ctg8 94&lt;br&gt;Location: 103633 - 105100" locus_tag="ctg8_94" class="clusterblast-orf" id="knownclusterblast-1_q14_0_all"  />
<polygon points="643,40 689,40 694,35 689,30 643,30 643,40 " style="fill:white; stroke-width:1; stroke:black; " description="&lt;b&gt;ctg8_95&lt;/b&gt;&lt;br&gt;ctg8 95&lt;br&gt;Location: 105328 - 106642" locus_tag="ctg8_95" class="clusterblast-orf" id="knownclusterblast-1_q15_0_all"  />
<polygon points="695,40 732,40 737,35 732,30 695,30 695,40 " style="fill:white; stroke-width:1; stroke:black; " description="&lt;b&gt;ctg8_96&lt;/b&gt;&lt;br&gt;ctg8 96&lt;br&gt;Location: 106652 - 107741" locus_tag="ctg8_96" class="clusterblast-orf" id="knownclusterblast-1_q16_0_all"  />
<polygon points="737,40 775,40 780,35 775,30 737,30 737,40 " style="fill:white; stroke-width:1; stroke:black; " description="&lt;b&gt;ctg8_97&lt;/b&gt;&lt;br&gt;ctg8 97&lt;br&gt;Location: 107744 - 108839" locus_tag="ctg8_97" class="clusterblast-orf" id="knownclusterblast-1_q17_0_all"  />
</g>
</svg>
