<svg xmlns="http://www.w3.org/2000/svg" xmlns:xlink="http://www.w3.org/1999/xlink" version="1.1" x="0" y="0" height="50" width="800" viewBox="0 0 800 50" preserveAspectRatio="none"  >
<g label="Query sequence" class="clusterblast-cluster"  >
<text x="5" y="20" class="clusterblast-acc"  >
Query sequence</text>
<line x1="10" y1="35" x2="778.0" y2="35" style="stroke-width:1; stroke:grey; "  />
<polygon points="0,40 58,40 63,35 58,30 0,30 0,40 " style="fill:white; stroke-width:1; stroke:black; " description="&lt;b&gt;ctg36_1&lt;/b&gt;&lt;br&gt;ctg36 1&lt;br&gt;Location: 1 - 856" locus_tag="ctg36_1" class="clusterblast-orf" id="knownclusterblast-1_q0_0_all"  />
<polygon points="60,35 65,30 109,30 109,40 65,40 60,35 " style="fill:white; stroke-width:1; stroke:black; " description="&lt;b&gt;ctg36_2&lt;/b&gt;&lt;br&gt;ctg36 2&lt;br&gt;Location: 818 - 1487" locus_tag="ctg36_2" class="clusterblast-orf" id="knownclusterblast-1_q1_0_all"  />
<polygon points="129,40 168,40 173,35 168,30 129,30 129,40 " style="fill:white; stroke-width:1; stroke:black; " description="&lt;b&gt;ctg36_3&lt;/b&gt;&lt;br&gt;ctg36 3&lt;br&gt;Location: 1756 - 2359" locus_tag="ctg36_3" class="clusterblast-orf" id="knownclusterblast-1_q2_0_all"  />
<polygon points="176,40 242,40 247,35 242,30 176,30 176,40 " style="fill:white; stroke-width:1; stroke:black; " description="&lt;b&gt;ctg36_4&lt;/b&gt;&lt;br&gt;ctg36 4&lt;br&gt;Location: 2395 - 3373" locus_tag="ctg36_4" class="clusterblast-orf" id="knownclusterblast-1_q3_0_all"  />
<polygon points="253,40 294,40 299,35 294,30 253,30 253,40 " style="fill:white; stroke-width:1; stroke:black; " description="&lt;b&gt;ctg36_5&lt;/b&gt;&lt;br&gt;ctg36 5&lt;br&gt;Location: 3445 - 4078" locus_tag="ctg36_5" class="clusterblast-orf" id="knownclusterblast-1_q4_0_all"  />
<polygon points="299,35 304,30 329,30 329,40 304,40 299,35 " style="fill:white; stroke-width:1; stroke:black; " description="&lt;b&gt;ctg36_6&lt;/b&gt;&lt;br&gt;ctg36 6&lt;br&gt;Location: 4074 - 4494" locus_tag="ctg36_6" class="clusterblast-orf" id="knownclusterblast-1_q5_0_all"  />
<polygon points="331,35 336,30 377,30 377,40 336,40 331,35 " style="fill:white; stroke-width:1; stroke:black; " description="&lt;b&gt;ctg36_7&lt;/b&gt;&lt;br&gt;ctg36 7&lt;br&gt;Location: 4512 - 5136" locus_tag="ctg36_7" class="clusterblast-orf" id="knownclusterblast-1_q6_0_all"  />
<polygon points="381,40 602,40 607,35 602,30 381,30 381,40 " style="fill:white; stroke-width:1; stroke:black; " description="&lt;b&gt;ctg36_8&lt;/b&gt;&lt;br&gt;ctg36 8&lt;br&gt;Location: 5194 - 8287" locus_tag="ctg36_8" class="clusterblast-orf" id="knownclusterblast-1_q7_0_all"  />
<polygon points="608,40 636,40 641,35 636,30 608,30 608,40 " style="fill:white; stroke-width:1; stroke:black; " description="&lt;b&gt;ctg36_9&lt;/b&gt;&lt;br&gt;ctg36 9&lt;br&gt;Location: 8294 - 8747" locus_tag="ctg36_9" class="clusterblast-orf" id="knownclusterblast-1_q8_0_all"  />
<polygon points="643,35 648,30 665,30 665,40 648,40 643,35 " style="fill:white; stroke-width:1; stroke:black; " description="&lt;b&gt;ctg36_10&lt;/b&gt;&lt;br&gt;ctg36 10&lt;br&gt;Location: 8776 - 9070" locus_tag="ctg36_10" class="clusterblast-orf" id="knownclusterblast-1_q9_0_all"  />
<polygon points="666,35 671,30 727,30 727,40 671,40 666,35 " style="fill:white; stroke-width:1; stroke:black; " description="&lt;b&gt;ctg36_11&lt;/b&gt;&lt;br&gt;ctg36 11&lt;br&gt;Location: 9085 - 9913" locus_tag="ctg36_11" class="clusterblast-orf" id="knownclusterblast-1_q10_0_all"  />
<polygon points="739,40 775,40 780,35 775,30 739,30 739,40 " style="fill:white; stroke-width:1; stroke:black; " description="&lt;b&gt;ctg36_12&lt;/b&gt;&lt;br&gt;ctg36 12&lt;br&gt;Location: 10081 - 10645" locus_tag="ctg36_12" class="clusterblast-orf" id="knownclusterblast-1_q11_0_all"  />
</g>
</svg>
