<svg xmlns="http://www.w3.org/2000/svg" xmlns:xlink="http://www.w3.org/1999/xlink" version="1.1" x="0" y="0" height="50" width="800" viewBox="0 0 800 50" preserveAspectRatio="none"  >
<g label="Query sequence" class="clusterblast-cluster"  >
<text x="5" y="20" class="clusterblast-acc"  >
Query sequence</text>
<line x1="10" y1="35" x2="778.0" y2="35" style="stroke-width:1; stroke:grey; "  />
<polygon points="0,40 0,40 5,35 0,30 0,30 0,40 " style="fill:white; stroke-width:1; stroke:black; " description="&lt;b&gt;ctg2_74&lt;/b&gt;&lt;br&gt;ctg2 74&lt;br&gt;Location: 79777 - 80263" locus_tag="ctg2_74" class="clusterblast-orf" id="knownclusterblast-2_q0_0_all"  />
<polygon points="5,40 8,40 13,35 8,30 5,30 5,40 " style="fill:white; stroke-width:1; stroke:black; " description="&lt;b&gt;ctg2_75&lt;/b&gt;&lt;br&gt;ctg2 75&lt;br&gt;Location: 80263 - 81106" locus_tag="ctg2_75" class="clusterblast-orf" id="knownclusterblast-2_q1_0_all"  />
<polygon points="13,35 18,30 19,30 19,40 18,40 13,35 " style="fill:white; stroke-width:1; stroke:black; " description="&lt;b&gt;ctg2_76&lt;/b&gt;&lt;br&gt;ctg2 76&lt;br&gt;Location: 81110 - 81605" locus_tag="ctg2_76" class="clusterblast-orf" id="knownclusterblast-2_q2_0_all"  />
<polygon points="19,35 24,30 26,30 26,40 24,40 19,35 " style="fill:white; stroke-width:1; stroke:black; " description="&lt;b&gt;ctg2_77&lt;/b&gt;&lt;br&gt;ctg2 77&lt;br&gt;Location: 81640 - 82294" locus_tag="ctg2_77" class="clusterblast-orf" id="knownclusterblast-2_q3_0_all"  />
<polygon points="27,40 37,40 42,35 37,30 27,30 27,40 " style="fill:white; stroke-width:1; stroke:black; " description="&lt;b&gt;ctg2_78&lt;/b&gt;&lt;br&gt;ctg2 78&lt;br&gt;Location: 82454 - 83864" locus_tag="ctg2_78" class="clusterblast-orf" id="knownclusterblast-2_q4_0_all"  />
<polygon points="42,35 47,30 49,30 49,40 47,40 42,35 " style="fill:white; stroke-width:1; stroke:black; " description="&lt;b&gt;ctg2_79&lt;/b&gt;&lt;br&gt;ctg2 79&lt;br&gt;Location: 83836 - 84553" locus_tag="ctg2_79" class="clusterblast-orf" id="knownclusterblast-2_q5_0_all"  />
<polygon points="49,35 54,30 57,30 57,40 54,40 49,35 " style="fill:white; stroke-width:1; stroke:black; " description="&lt;b&gt;ctg2_80&lt;/b&gt;&lt;br&gt;ctg2 80&lt;br&gt;Location: 84567 - 85341" locus_tag="ctg2_80" class="clusterblast-orf" id="knownclusterblast-2_q6_0_all"  />
<polygon points="57,35 62,30 62,30 62,40 62,40 57,35 " style="fill:white; stroke-width:1; stroke:black; " description="&lt;b&gt;ctg2_81&lt;/b&gt;&lt;br&gt;ctg2 81&lt;br&gt;Location: 85321 - 85807" locus_tag="ctg2_81" class="clusterblast-orf" id="knownclusterblast-2_q7_0_all"  />
<polygon points="63,35 68,30 71,30 71,40 68,40 63,35 " style="fill:white; stroke-width:1; stroke:black; " description="&lt;b&gt;ctg2_82&lt;/b&gt;&lt;br&gt;ctg2 82&lt;br&gt;Location: 85866 - 86664" locus_tag="ctg2_82" class="clusterblast-orf" id="knownclusterblast-2_q8_0_all"  />
<polygon points="72,40 80,40 85,35 80,30 72,30 72,40 " style="fill:white; stroke-width:1; stroke:black; " description="&lt;b&gt;ctg2_83&lt;/b&gt;&lt;br&gt;ctg2 83&lt;br&gt;Location: 86771 - 88022" locus_tag="ctg2_83" class="clusterblast-orf" id="knownclusterblast-2_q9_0_all"  />
<polygon points="85,40 96,40 101,35 96,30 85,30 85,40 " style="fill:white; stroke-width:1; stroke:black; " description="&lt;b&gt;ctg2_84&lt;/b&gt;&lt;br&gt;ctg2 84&lt;br&gt;Location: 88042 - 89563" locus_tag="ctg2_84" class="clusterblast-orf" id="knownclusterblast-2_q10_0_all"  />
<polygon points="101,40 101,40 106,35 101,30 101,30 101,40 " style="fill:white; stroke-width:1; stroke:black; " description="&lt;b&gt;ctg2_85&lt;/b&gt;&lt;br&gt;ctg2 85&lt;br&gt;Location: 89605 - 90067" locus_tag="ctg2_85" class="clusterblast-orf" id="knownclusterblast-2_q11_0_all"  />
<polygon points="107,35 112,30 113,30 113,40 112,40 107,35 " style="fill:white; stroke-width:1; stroke:black; " description="&lt;b&gt;ctg2_86&lt;/b&gt;&lt;br&gt;ctg2 86&lt;br&gt;Location: 90152 - 90734" locus_tag="ctg2_86" class="clusterblast-orf" id="knownclusterblast-2_q12_0_all"  />
<polygon points="113,40 124,40 129,35 124,30 113,30 113,40 " style="fill:white; stroke-width:1; stroke:black; " description="&lt;b&gt;ctg2_87&lt;/b&gt;&lt;br&gt;ctg2 87&lt;br&gt;Location: 90752 - 92225" locus_tag="ctg2_87" class="clusterblast-orf" id="knownclusterblast-2_q13_0_all"  />
<polygon points="129,40 139,40 144,35 139,30 129,30 129,40 " style="fill:white; stroke-width:1; stroke:black; " description="&lt;b&gt;ctg2_88&lt;/b&gt;&lt;br&gt;ctg2 88&lt;br&gt;Location: 92301 - 93702" locus_tag="ctg2_88" class="clusterblast-orf" id="knownclusterblast-2_q14_0_all"  />
<polygon points="145,40 150,40 155,35 150,30 145,30 145,40 " style="fill:white; stroke-width:1; stroke:black; " description="&lt;b&gt;ctg2_89&lt;/b&gt;&lt;br&gt;ctg2 89&lt;br&gt;Location: 93804 - 94746" locus_tag="ctg2_89" class="clusterblast-orf" id="knownclusterblast-2_q15_0_all"  />
<polygon points="155,35 160,30 170,30 170,40 160,40 155,35 " style="fill:white; stroke-width:1; stroke:black; " description="&lt;b&gt;ctg2_90&lt;/b&gt;&lt;br&gt;ctg2 90&lt;br&gt;Location: 94759 - 96217" locus_tag="ctg2_90" class="clusterblast-orf" id="knownclusterblast-2_q16_0_all"  />
<polygon points="171,35 176,30 184,30 184,40 176,40 171,35 " style="fill:white; stroke-width:1; stroke:black; " description="&lt;b&gt;ctg2_91&lt;/b&gt;&lt;br&gt;ctg2 91&lt;br&gt;Location: 96303 - 97527" locus_tag="ctg2_91" class="clusterblast-orf" id="knownclusterblast-2_q17_0_all"  />
<polygon points="184,35 189,30 196,30 196,40 189,40 184,35 " style="fill:white; stroke-width:1; stroke:black; " description="&lt;b&gt;ctg2_92&lt;/b&gt;&lt;br&gt;ctg2 92&lt;br&gt;Location: 97547 - 98735" locus_tag="ctg2_92" class="clusterblast-orf" id="knownclusterblast-2_q18_0_all"  />
<polygon points="196,35 201,30 248,30 248,40 201,40 196,35 " style="fill:white; stroke-width:1; stroke:black; " description="&lt;b&gt;ctg2_93&lt;/b&gt;&lt;br&gt;ctg2 93&lt;br&gt;Location: 98731 - 103750" locus_tag="ctg2_93" class="clusterblast-orf" id="knownclusterblast-2_q19_0_all"  />
<polygon points="248,35 253,30 256,30 256,40 253,40 248,35 " style="fill:white; stroke-width:1; stroke:black; " description="&lt;b&gt;ctg2_94&lt;/b&gt;&lt;br&gt;ctg2 94&lt;br&gt;Location: 103746 - 104544" locus_tag="ctg2_94" class="clusterblast-orf" id="knownclusterblast-2_q20_0_all"  />
<polygon points="256,35 261,30 266,30 266,40 261,40 256,35 " style="fill:white; stroke-width:1; stroke:black; " description="&lt;b&gt;ctg2_95&lt;/b&gt;&lt;br&gt;ctg2 95&lt;br&gt;Location: 104540 - 105518" locus_tag="ctg2_95" class="clusterblast-orf" id="knownclusterblast-2_q21_0_all"  />
<polygon points="266,35 271,30 274,30 274,40 271,40 266,35 " style="fill:white; stroke-width:1; stroke:black; " description="&lt;b&gt;ctg2_96&lt;/b&gt;&lt;br&gt;ctg2 96&lt;br&gt;Location: 105514 - 106252" locus_tag="ctg2_96" class="clusterblast-orf" id="knownclusterblast-2_q22_0_all"  />
<polygon points="274,35 279,30 291,30 291,40 279,40 274,35 " style="fill:white; stroke-width:1; stroke:black; " description="&lt;b&gt;ctg2_97&lt;/b&gt;&lt;br&gt;ctg2 97&lt;br&gt;Location: 106248 - 107889" locus_tag="ctg2_97" class="clusterblast-orf" id="knownclusterblast-2_q23_0_all"  />
<polygon points="292,40 300,40 305,35 300,30 292,30 292,40 " style="fill:white; stroke-width:1; stroke:black; " description="&lt;b&gt;ctg2_98&lt;/b&gt;&lt;br&gt;ctg2 98&lt;br&gt;Location: 107976 - 109248" locus_tag="ctg2_98" class="clusterblast-orf" id="knownclusterblast-2_q24_0_all"  />
<polygon points="306,40 310,40 315,35 310,30 306,30 306,40 " style="fill:white; stroke-width:1; stroke:black; " description="&lt;b&gt;ctg2_99&lt;/b&gt;&lt;br&gt;ctg2 99&lt;br&gt;Location: 109315 - 110203" locus_tag="ctg2_99" class="clusterblast-orf" id="knownclusterblast-2_q25_0_all"  />
<polygon points="321,35 326,30 327,30 327,40 326,40 321,35 " style="fill:white; stroke-width:1; stroke:black; " description="&lt;b&gt;ctg2_100&lt;/b&gt;&lt;br&gt;ctg2 100&lt;br&gt;Location: 110824 - 111400" locus_tag="ctg2_100" class="clusterblast-orf" id="knownclusterblast-2_q26_0_all"  />
<polygon points="328,40 332,35 328,30 328,40 " style="fill:white; stroke-width:1; stroke:black; " description="&lt;b&gt;ctg2_101&lt;/b&gt;&lt;br&gt;ctg2 101&lt;br&gt;Location: 111492 - 111828" locus_tag="ctg2_101" class="clusterblast-orf" id="knownclusterblast-2_q27_0_all"  />
<polygon points="330,35 335,30 343,30 343,40 335,40 330,35 " style="fill:white; stroke-width:1; stroke:black; " description="&lt;b&gt;ctg2_102&lt;/b&gt;&lt;br&gt;ctg2 102&lt;br&gt;Location: 111677 - 112907" locus_tag="ctg2_102" class="clusterblast-orf" id="knownclusterblast-2_q28_0_all"  />
<polygon points="345,40 397,40 402,35 397,30 345,30 345,40 " style="fill:white; stroke-width:1; stroke:black; " description="&lt;b&gt;ctg2_103&lt;/b&gt;&lt;br&gt;ctg2 103&lt;br&gt;Location: 113128 - 118579" locus_tag="ctg2_103" class="clusterblast-orf" id="knownclusterblast-2_q29_0_all"  />
<polygon points="402,35 407,30 415,30 415,40 407,40 402,35 " style="fill:white; stroke-width:1; stroke:black; " description="&lt;b&gt;ctg2_104&lt;/b&gt;&lt;br&gt;ctg2 104&lt;br&gt;Location: 118594 - 119866" locus_tag="ctg2_104" class="clusterblast-orf" id="knownclusterblast-2_q30_0_all"  />
<polygon points="415,35 420,30 424,30 424,40 420,40 415,35 " style="fill:white; stroke-width:1; stroke:black; " description="&lt;b&gt;ctg2_105&lt;/b&gt;&lt;br&gt;ctg2 105&lt;br&gt;Location: 119858 - 120725" locus_tag="ctg2_105" class="clusterblast-orf" id="knownclusterblast-2_q31_0_all"  />
<polygon points="424,35 429,30 435,30 435,40 429,40 424,35 " style="fill:white; stroke-width:1; stroke:black; " description="&lt;b&gt;ctg2_106&lt;/b&gt;&lt;br&gt;ctg2 106&lt;br&gt;Location: 120721 - 121747" locus_tag="ctg2_106" class="clusterblast-orf" id="knownclusterblast-2_q32_0_all"  />
<polygon points="435,35 440,30 447,30 447,40 440,40 435,35 " style="fill:white; stroke-width:1; stroke:black; " description="&lt;b&gt;ctg2_107&lt;/b&gt;&lt;br&gt;ctg2 107&lt;br&gt;Location: 121743 - 122910" locus_tag="ctg2_107" class="clusterblast-orf" id="knownclusterblast-2_q33_0_all"  />
<polygon points="447,40 451,40 456,35 451,30 447,30 447,40 " style="fill:white; stroke-width:1; stroke:black; " description="&lt;b&gt;ctg2_108&lt;/b&gt;&lt;br&gt;ctg2 108&lt;br&gt;Location: 122948 - 123854" locus_tag="ctg2_108" class="clusterblast-orf" id="knownclusterblast-2_q34_0_all"  />
<polygon points="457,40 468,40 473,35 468,30 457,30 457,40 " style="fill:white; stroke-width:1; stroke:black; " description="&lt;b&gt;ctg2_109&lt;/b&gt;&lt;br&gt;ctg2 109&lt;br&gt;Location: 123931 - 125473" locus_tag="ctg2_109" class="clusterblast-orf" id="knownclusterblast-2_q35_0_all"  />
<polygon points="472,35 477,30 488,30 488,40 477,40 472,35 " style="fill:white; stroke-width:1; stroke:black; " description="&lt;b&gt;ctg2_110&lt;/b&gt;&lt;br&gt;ctg2 110&lt;br&gt;Location: 125402 - 126914" locus_tag="ctg2_110" class="clusterblast-orf" id="knownclusterblast-2_q36_0_all"  />
<polygon points="489,40 492,40 497,35 492,30 489,30 489,40 " style="fill:white; stroke-width:1; stroke:black; " description="&lt;b&gt;ctg2_111&lt;/b&gt;&lt;br&gt;ctg2 111&lt;br&gt;Location: 127008 - 127815" locus_tag="ctg2_111" class="clusterblast-orf" id="knownclusterblast-2_q37_0_all"  />
<polygon points="497,40 499,40 504,35 499,30 497,30 497,40 " style="fill:white; stroke-width:1; stroke:black; " description="&lt;b&gt;ctg2_112&lt;/b&gt;&lt;br&gt;ctg2 112&lt;br&gt;Location: 127777 - 128488" locus_tag="ctg2_112" class="clusterblast-orf" id="knownclusterblast-2_q38_0_all"  />
<polygon points="504,40 532,40 537,35 532,30 504,30 504,40 " style="fill:white; stroke-width:1; stroke:black; " description="&lt;b&gt;ctg2_113&lt;/b&gt;&lt;br&gt;ctg2 113&lt;br&gt;Location: 128484 - 131661" locus_tag="ctg2_113" class="clusterblast-orf" id="knownclusterblast-2_q39_0_all"  />
<polygon points="537,35 540,30 540,40 537,35 " style="fill:white; stroke-width:1; stroke:black; " description="&lt;b&gt;ctg2_114&lt;/b&gt;&lt;br&gt;ctg2 114&lt;br&gt;Location: 131634 - 131883" locus_tag="ctg2_114" class="clusterblast-orf" id="knownclusterblast-2_q40_0_all"  />
<polygon points="540,35 545,30 548,30 548,40 545,40 540,35 " style="fill:white; stroke-width:1; stroke:black; " description="&lt;b&gt;ctg2_115&lt;/b&gt;&lt;br&gt;ctg2 115&lt;br&gt;Location: 131910 - 132705" locus_tag="ctg2_115" class="clusterblast-orf" id="knownclusterblast-2_q41_0_all"  />
<polygon points="548,35 553,30 553,30 553,40 553,40 548,35 " style="fill:white; stroke-width:1; stroke:black; " description="&lt;b&gt;ctg2_116&lt;/b&gt;&lt;br&gt;ctg2 116&lt;br&gt;Location: 132697 - 133219" locus_tag="ctg2_116" class="clusterblast-orf" id="knownclusterblast-2_q42_0_all"  />
<polygon points="555,40 580,40 585,35 580,30 555,30 555,40 " style="fill:white; stroke-width:1; stroke:black; " description="&lt;b&gt;ctg2_117&lt;/b&gt;&lt;br&gt;ctg2 117&lt;br&gt;Location: 133337 - 136277" locus_tag="ctg2_117" class="clusterblast-orf" id="knownclusterblast-2_q43_0_all"  />
<polygon points="586,40 597,40 602,35 597,30 586,30 586,40 " style="fill:white; stroke-width:1; stroke:black; " description="&lt;b&gt;ctg2_118&lt;/b&gt;&lt;br&gt;ctg2 118&lt;br&gt;Location: 136324 - 137932" locus_tag="ctg2_118" class="clusterblast-orf" id="knownclusterblast-2_q44_0_all"  />
<polygon points="603,40 605,35 603,30 603,40 " style="fill:white; stroke-width:1; stroke:black; " description="&lt;b&gt;ctg2_119&lt;/b&gt;&lt;br&gt;ctg2 119&lt;br&gt;Location: 138006 - 138225" locus_tag="ctg2_119" class="clusterblast-orf" id="knownclusterblast-2_q45_0_all"  />
<polygon points="606,35 611,30 613,30 613,40 611,40 606,35 " style="fill:white; stroke-width:1; stroke:black; " description="&lt;b&gt;ctg2_120&lt;/b&gt;&lt;br&gt;ctg2 120&lt;br&gt;Location: 138296 - 139007" locus_tag="ctg2_120" class="clusterblast-orf" id="knownclusterblast-2_q46_0_all"  />
<polygon points="614,35 619,30 624,30 624,40 619,40 614,35 " style="fill:white; stroke-width:1; stroke:black; " description="&lt;b&gt;ctg2_121&lt;/b&gt;&lt;br&gt;ctg2 121&lt;br&gt;Location: 139104 - 139998" locus_tag="ctg2_121" class="clusterblast-orf" id="knownclusterblast-2_q47_0_all"  />
<polygon points="625,35 630,30 644,30 644,40 630,40 625,35 " style="fill:white; stroke-width:1; stroke:black; " description="&lt;b&gt;ctg2_122&lt;/b&gt;&lt;br&gt;ctg2 122&lt;br&gt;Location: 140079 - 141918" locus_tag="ctg2_122" class="clusterblast-orf" id="knownclusterblast-2_q48_0_all"  />
<polygon points="645,40 649,35 645,30 645,40 " style="fill:white; stroke-width:1; stroke:black; " description="&lt;b&gt;ctg2_123&lt;/b&gt;&lt;br&gt;ctg2 123&lt;br&gt;Location: 142029 - 142398" locus_tag="ctg2_123" class="clusterblast-orf" id="knownclusterblast-2_q49_0_all"  />
<polygon points="649,35 654,30 654,30 654,40 654,40 649,35 " style="fill:white; stroke-width:1; stroke:black; " description="&lt;b&gt;ctg2_124&lt;/b&gt;&lt;br&gt;ctg2 124&lt;br&gt;Location: 142452 - 142953" locus_tag="ctg2_124" class="clusterblast-orf" id="knownclusterblast-2_q50_0_all"  />
<polygon points="654,35 659,30 668,30 668,40 659,40 654,35 " style="fill:white; stroke-width:1; stroke:black; " description="&lt;b&gt;ctg2_125&lt;/b&gt;&lt;br&gt;ctg2 125&lt;br&gt;Location: 142949 - 144308" locus_tag="ctg2_125" class="clusterblast-orf" id="knownclusterblast-2_q51_0_all"  />
<polygon points="669,40 673,35 669,30 669,40 " style="fill:white; stroke-width:1; stroke:black; " description="&lt;b&gt;ctg2_126&lt;/b&gt;&lt;br&gt;ctg2 126&lt;br&gt;Location: 144324 - 144771" locus_tag="ctg2_126" class="clusterblast-orf" id="knownclusterblast-2_q52_0_all"  />
<polygon points="673,40 677,40 682,35 677,30 673,30 673,40 " style="fill:white; stroke-width:1; stroke:black; " description="&lt;b&gt;ctg2_127&lt;/b&gt;&lt;br&gt;ctg2 127&lt;br&gt;Location: 144745 - 145585" locus_tag="ctg2_127" class="clusterblast-orf" id="knownclusterblast-2_q53_0_all"  />
<polygon points="682,40 684,40 689,35 684,30 682,30 682,40 " style="fill:white; stroke-width:1; stroke:black; " description="&lt;b&gt;ctg2_128&lt;/b&gt;&lt;br&gt;ctg2 128&lt;br&gt;Location: 145655 - 146333" locus_tag="ctg2_128" class="clusterblast-orf" id="knownclusterblast-2_q54_0_all"  />
<polygon points="689,40 701,40 706,35 701,30 689,30 689,40 " style="fill:white; stroke-width:1; stroke:black; " description="&lt;b&gt;ctg2_129&lt;/b&gt;&lt;br&gt;ctg2 129&lt;br&gt;Location: 146325 - 147981" locus_tag="ctg2_129" class="clusterblast-orf" id="knownclusterblast-2_q55_0_all"  />
<polygon points="706,40 710,40 715,35 710,30 706,30 706,40 " style="fill:white; stroke-width:1; stroke:black; " description="&lt;b&gt;ctg2_130&lt;/b&gt;&lt;br&gt;ctg2 130&lt;br&gt;Location: 147967 - 148849" locus_tag="ctg2_130" class="clusterblast-orf" id="knownclusterblast-2_q56_0_all"  />
<polygon points="716,40 727,40 732,35 727,30 716,30 716,40 " style="fill:white; stroke-width:1; stroke:black; " description="&lt;b&gt;ctg2_131&lt;/b&gt;&lt;br&gt;ctg2 131&lt;br&gt;Location: 148908 - 150429" locus_tag="ctg2_131" class="clusterblast-orf" id="knownclusterblast-2_q57_0_all"  />
<polygon points="732,35 737,30 743,30 743,40 737,40 732,35 " style="fill:white; stroke-width:1; stroke:black; " description="&lt;b&gt;ctg2_132&lt;/b&gt;&lt;br&gt;ctg2 132&lt;br&gt;Location: 150425 - 151517" locus_tag="ctg2_132" class="clusterblast-orf" id="knownclusterblast-2_q58_0_all"  />
<polygon points="745,40 757,40 762,35 757,30 745,30 745,40 " style="fill:white; stroke-width:1; stroke:black; " description="&lt;b&gt;ctg2_133&lt;/b&gt;&lt;br&gt;ctg2 133&lt;br&gt;Location: 151718 - 153377" locus_tag="ctg2_133" class="clusterblast-orf" id="knownclusterblast-2_q59_0_all"  />
<polygon points="762,40 768,40 773,35 768,30 762,30 762,40 " style="fill:white; stroke-width:1; stroke:black; " description="&lt;b&gt;ctg2_134&lt;/b&gt;&lt;br&gt;ctg2 134&lt;br&gt;Location: 153366 - 154398" locus_tag="ctg2_134" class="clusterblast-orf" id="knownclusterblast-2_q60_0_all"  />
<polygon points="774,40 775,40 780,35 775,30 774,30 774,40 " style="fill:white; stroke-width:1; stroke:black; " description="&lt;b&gt;ctg2_135&lt;/b&gt;&lt;br&gt;ctg2 135&lt;br&gt;Location: 154510 - 155038" locus_tag="ctg2_135" class="clusterblast-orf" id="knownclusterblast-2_q61_0_all"  />
</g>
</svg>
