<svg xmlns="http://www.w3.org/2000/svg" xmlns:xlink="http://www.w3.org/1999/xlink" version="1.1" x="0" y="0" height="230" width="800" viewBox="0 0 800 230" preserveAspectRatio="none"  >
<g label="Query sequence" class="clusterblast-cluster"  >
<text x="5" y="20" class="clusterblast-acc"  >
Query sequence</text>
<line x1="10" y1="35" x2="778.0" y2="35" style="stroke-width:1; stroke:grey; "  />
<polygon points="0,35 5,30 7,30 7,40 5,40 0,35 " style="fill:white; stroke-width:1; stroke:black; " description="&lt;b&gt;ctg7_203&lt;/b&gt;&lt;br&gt;ctg7 203&lt;br&gt;Location: 215753 - 216143" locus_tag="ctg7_203" class="clusterblast-orf" id="dummy-1_q0_0_all"  />
<polygon points="13,35 18,30 18,30 18,40 18,40 13,35 " style="fill:white; stroke-width:1; stroke:black; " description="&lt;b&gt;ctg7_204&lt;/b&gt;&lt;br&gt;ctg7 204&lt;br&gt;Location: 216460 - 216736" locus_tag="ctg7_204" class="clusterblast-orf" id="dummy-1_q1_0_all"  />
<polygon points="24,35 29,30 81,30 81,40 29,40 24,35 " style="fill:white; stroke-width:1; stroke:black; " description="&lt;b&gt;ctg7_205&lt;/b&gt;&lt;br&gt;ctg7 205&lt;br&gt;Location: 217100 - 220163" locus_tag="ctg7_205" class="clusterblast-orf" id="dummy-1_q2_0_all"  />
<polygon points="82,40 136,40 141,35 136,30 82,30 82,40 " style="fill:white; stroke-width:1; stroke:black; " description="&lt;b&gt;ctg7_206&lt;/b&gt;&lt;br&gt;ctg7 206&lt;br&gt;Location: 220206 - 223422" locus_tag="ctg7_206" class="clusterblast-orf" id="dummy-1_q3_0_all"  />
<polygon points="148,35 153,30 192,30 192,40 153,40 148,35 " style="fill:white; stroke-width:1; stroke:black; " description="&lt;b&gt;ctg7_207&lt;/b&gt;&lt;br&gt;ctg7 207&lt;br&gt;Location: 223782 - 226185" locus_tag="ctg7_207" class="clusterblast-orf" id="dummy-1_q4_0_all"  />
<polygon points="198,40 199,40 204,35 199,30 198,30 198,40 " style="fill:white; stroke-width:1; stroke:black; " description="&lt;b&gt;ctg7_208&lt;/b&gt;&lt;br&gt;ctg7 208&lt;br&gt;Location: 226519 - 226852" locus_tag="ctg7_208" class="clusterblast-orf" id="dummy-1_q5_0_all"  />
<polygon points="201,35 206,30 211,30 211,40 206,40 201,35 " style="fill:white; stroke-width:1; stroke:black; " description="&lt;b&gt;ctg7_209&lt;/b&gt;&lt;br&gt;ctg7 209&lt;br&gt;Location: 226696 - 227224" locus_tag="ctg7_209" class="clusterblast-orf" id="dummy-1_q6_0_all"  />
<polygon points="213,35 218,30 237,30 237,40 218,40 213,35 " style="fill:white; stroke-width:1; stroke:black; " description="&lt;b&gt;ctg7_210&lt;/b&gt;&lt;br&gt;ctg7 210&lt;br&gt;Location: 227355 - 228624" locus_tag="ctg7_210" class="clusterblast-orf" id="dummy-1_q7_0_all"  />
<polygon points="238,40 252,40 257,35 252,30 238,30 238,40 " style="fill:white; stroke-width:1; stroke:black; " description="&lt;b&gt;ctg7_211&lt;/b&gt;&lt;br&gt;ctg7 211&lt;br&gt;Location: 228676 - 229702" locus_tag="ctg7_211" class="clusterblast-orf" id="dummy-1_q8_0_all"  />
<polygon points="257,40 270,40 275,35 270,30 257,30 257,40 " style="fill:white; stroke-width:1; stroke:black; " description="&lt;b&gt;ctg7_212&lt;/b&gt;&lt;br&gt;ctg7 212&lt;br&gt;Location: 229698 - 230697" locus_tag="ctg7_212" class="clusterblast-orf" id="dummy-1_q9_0_all"  />
<polygon points="273,35 278,30 280,30 280,40 278,40 273,35 " style="fill:white; stroke-width:1; stroke:black; " description="&lt;b&gt;ctg7_213&lt;/b&gt;&lt;br&gt;ctg7 213&lt;br&gt;Location: 230617 - 230998" locus_tag="ctg7_213" class="clusterblast-orf" id="dummy-1_q10_0_all"  />
<polygon points="280,35 285,30 295,30 295,40 285,40 280,35 " style="fill:white; stroke-width:1; stroke:black; " description="&lt;b&gt;ctg7_214&lt;/b&gt;&lt;br&gt;ctg7 214&lt;br&gt;Location: 230987 - 231794" locus_tag="ctg7_214" class="clusterblast-orf" id="dummy-1_q11_0_all"  />
<polygon points="298,40 302,40 307,35 302,30 298,30 298,40 " style="fill:white; stroke-width:1; stroke:black; " description="&lt;b&gt;ctg7_215&lt;/b&gt;&lt;br&gt;ctg7 215&lt;br&gt;Location: 231938 - 232436" locus_tag="ctg7_215" class="clusterblast-orf" id="dummy-1_q12_0_all"  />
<polygon points="310,35 315,30 337,30 337,40 315,40 310,35 " style="fill:white; stroke-width:1; stroke:black; " description="&lt;b&gt;ctg7_216&lt;/b&gt;&lt;br&gt;ctg7 216&lt;br&gt;Location: 232606 - 234046" locus_tag="ctg7_216" class="clusterblast-orf" id="dummy-1_q13_0_all"  />
<polygon points="340,40 345,40 350,35 345,30 340,30 340,40 " style="fill:white; stroke-width:1; stroke:black; " description="&lt;b&gt;ctg7_217&lt;/b&gt;&lt;br&gt;ctg7 217&lt;br&gt;Location: 234219 - 234753" locus_tag="ctg7_217" class="clusterblast-orf" id="dummy-1_q14_0_all"  />
<polygon points="350,35 355,30 372,30 372,40 355,40 350,35 " style="fill:#d81515; stroke-width:1; stroke:black; " description="&lt;b&gt;ctg7_218&lt;/b&gt;&lt;br&gt;ctg7 218&lt;br&gt;Location: 234764 - 235964" locus_tag="ctg7_218" class="clusterblast-orf" id="dummy-1_q15_0_all"  />
<polygon points="372,35 377,30 385,30 385,40 377,40 372,35 " style="fill:#15d815; stroke-width:1; stroke:black; " description="&lt;b&gt;ctg7_219&lt;/b&gt;&lt;br&gt;ctg7 219&lt;br&gt;Location: 235984 - 236698" locus_tag="ctg7_219" class="clusterblast-orf" id="dummy-1_q16_0_all"  />
<polygon points="385,35 390,30 393,30 393,40 390,40 385,35 " style="fill:white; stroke-width:1; stroke:black; " description="&lt;b&gt;ctg7_220&lt;/b&gt;&lt;br&gt;ctg7 220&lt;br&gt;Location: 236694 - 237117" locus_tag="ctg7_220" class="clusterblast-orf" id="dummy-1_q17_0_all"  />
<polygon points="393,35 398,30 415,30 415,40 398,40 393,35 " style="fill:#1515d8; stroke-width:1; stroke:black; " description="&lt;b&gt;ctg7_221&lt;/b&gt;&lt;br&gt;ctg7 221&lt;br&gt;Location: 237120 - 238314" locus_tag="ctg7_221" class="clusterblast-orf" id="dummy-1_q18_0_all"  />
<polygon points="415,35 420,30 427,30 427,40 420,40 415,35 " style="fill:white; stroke-width:1; stroke:black; " description="&lt;b&gt;ctg7_222&lt;/b&gt;&lt;br&gt;ctg7 222&lt;br&gt;Location: 238310 - 238952" locus_tag="ctg7_222" class="clusterblast-orf" id="dummy-1_q19_0_all"  />
<polygon points="427,35 432,30 457,30 457,40 432,40 427,35 " style="fill:white; stroke-width:1; stroke:black; " description="&lt;b&gt;ctg7_223&lt;/b&gt;&lt;br&gt;ctg7 223&lt;br&gt;Location: 238955 - 240560" locus_tag="ctg7_223" class="clusterblast-orf" id="dummy-1_q20_0_all"  />
<polygon points="458,40 467,40 472,35 467,30 458,30 458,40 " style="fill:white; stroke-width:1; stroke:black; " description="&lt;b&gt;ctg7_224&lt;/b&gt;&lt;br&gt;ctg7 224&lt;br&gt;Location: 240651 - 241419" locus_tag="ctg7_224" class="clusterblast-orf" id="dummy-1_q21_0_all"  />
<polygon points="472,40 482,40 487,35 482,30 472,30 472,40 " style="fill:white; stroke-width:1; stroke:black; " description="&lt;b&gt;ctg7_225&lt;/b&gt;&lt;br&gt;ctg7 225&lt;br&gt;Location: 241415 - 242213" locus_tag="ctg7_225" class="clusterblast-orf" id="dummy-1_q22_0_all"  />
<polygon points="487,40 487,40 492,35 487,30 487,30 487,40 " style="fill:#d815d8; stroke-width:1; stroke:black; " description="&lt;b&gt;ctg7_226&lt;/b&gt;&lt;br&gt;ctg7 226&lt;br&gt;Location: 242223 - 242493" locus_tag="ctg7_226" class="clusterblast-orf" id="dummy-1_q23_0_all"  />
<polygon points="492,40 496,35 492,30 492,40 " style="fill:#d8d815; stroke-width:1; stroke:black; " description="&lt;b&gt;ctg7_227&lt;/b&gt;&lt;br&gt;ctg7 227&lt;br&gt;Location: 242476 - 242725" locus_tag="ctg7_227" class="clusterblast-orf" id="dummy-1_q24_0_all"  />
<polygon points="496,40 502,40 507,35 502,30 496,30 496,40 " style="fill:white; stroke-width:1; stroke:black; " description="&lt;b&gt;ctg7_228&lt;/b&gt;&lt;br&gt;ctg7 228&lt;br&gt;Location: 242717 - 243311" locus_tag="ctg7_228" class="clusterblast-orf" id="dummy-1_q25_0_all"  />
<polygon points="507,40 533,40 538,35 533,30 507,30 507,40 " style="fill:white; stroke-width:1; stroke:black; " description="&lt;b&gt;ctg7_229&lt;/b&gt;&lt;br&gt;ctg7 229&lt;br&gt;Location: 243307 - 245002" locus_tag="ctg7_229" class="clusterblast-orf" id="dummy-1_q26_0_all"  />
<polygon points="538,40 565,40 570,35 565,30 538,30 538,40 " style="fill:white; stroke-width:1; stroke:black; " description="&lt;b&gt;ctg7_230&lt;/b&gt;&lt;br&gt;ctg7 230&lt;br&gt;Location: 244991 - 246707" locus_tag="ctg7_230" class="clusterblast-orf" id="dummy-1_q27_0_all"  />
<polygon points="569,40 593,40 598,35 593,30 569,30 569,40 " style="fill:#15d8d8; stroke-width:1; stroke:black; " description="&lt;b&gt;ctg7_231&lt;/b&gt;&lt;br&gt;ctg7 231&lt;br&gt;Location: 246687 - 248253" locus_tag="ctg7_231" class="clusterblast-orf" id="dummy-1_q28_0_all"  />
<polygon points="598,40 601,40 606,35 601,30 598,30 598,40 " style="fill:white; stroke-width:1; stroke:black; " description="&lt;b&gt;ctg7_232&lt;/b&gt;&lt;br&gt;ctg7 232&lt;br&gt;Location: 248245 - 248665" locus_tag="ctg7_232" class="clusterblast-orf" id="dummy-1_q29_0_all"  />
<polygon points="606,40 613,40 618,35 613,30 606,30 606,40 " style="fill:white; stroke-width:1; stroke:black; " description="&lt;b&gt;ctg7_233&lt;/b&gt;&lt;br&gt;ctg7 233&lt;br&gt;Location: 248661 - 249327" locus_tag="ctg7_233" class="clusterblast-orf" id="dummy-1_q30_0_all"  />
<polygon points="618,40 656,40 661,35 656,30 618,30 618,40 " style="fill:white; stroke-width:1; stroke:black; " description="&lt;b&gt;ctg7_234&lt;/b&gt;&lt;br&gt;ctg7 234&lt;br&gt;Location: 249316 - 251659" locus_tag="ctg7_234" class="clusterblast-orf" id="dummy-1_q31_0_all"  />
<polygon points="662,40 665,40 670,35 665,30 662,30 662,40 " style="fill:white; stroke-width:1; stroke:black; " description="&lt;b&gt;ctg7_235&lt;/b&gt;&lt;br&gt;ctg7 235&lt;br&gt;Location: 251700 - 252129" locus_tag="ctg7_235" class="clusterblast-orf" id="dummy-1_q32_0_all"  />
<polygon points="673,40 681,40 686,35 681,30 673,30 673,40 " style="fill:white; stroke-width:1; stroke:black; " description="&lt;b&gt;ctg7_236&lt;/b&gt;&lt;br&gt;ctg7 236&lt;br&gt;Location: 252320 - 252995" locus_tag="ctg7_236" class="clusterblast-orf" id="dummy-1_q33_0_all"  />
<polygon points="693,40 700,40 705,35 700,30 693,30 693,40 " style="fill:white; stroke-width:1; stroke:black; " description="&lt;b&gt;ctg7_237&lt;/b&gt;&lt;br&gt;ctg7 237&lt;br&gt;Location: 253413 - 254064" locus_tag="ctg7_237" class="clusterblast-orf" id="dummy-1_q34_0_all"  />
<polygon points="705,40 719,40 724,35 719,30 705,30 705,40 " style="fill:white; stroke-width:1; stroke:black; " description="&lt;b&gt;ctg7_238&lt;/b&gt;&lt;br&gt;ctg7 238&lt;br&gt;Location: 254073 - 255057" locus_tag="ctg7_238" class="clusterblast-orf" id="dummy-1_q35_0_all"  />
<polygon points="724,35 729,30 756,30 756,40 729,40 724,35 " style="fill:white; stroke-width:1; stroke:black; " description="&lt;b&gt;ctg7_239&lt;/b&gt;&lt;br&gt;ctg7 239&lt;br&gt;Location: 255070 - 256828" locus_tag="ctg7_239" class="clusterblast-orf" id="dummy-1_q36_0_all"  />
<polygon points="759,35 764,30 772,30 772,40 764,40 759,35 " style="fill:white; stroke-width:1; stroke:black; " description="&lt;b&gt;ctg7_240&lt;/b&gt;&lt;br&gt;ctg7 240&lt;br&gt;Location: 256976 - 257684" locus_tag="ctg7_240" class="clusterblast-orf" id="dummy-1_q37_0_all"  />
<polygon points="774,35 779,30 780,30 780,40 779,40 774,35 " style="fill:white; stroke-width:1; stroke:black; " description="&lt;b&gt;ctg7_241&lt;/b&gt;&lt;br&gt;ctg7 241&lt;br&gt;Location: 257795 - 258104" locus_tag="ctg7_241" class="clusterblast-orf" id="dummy-1_q38_0_all"  />
</g>
<g label="BGC0002008" description="BGC0002008_c1: aryl polyenes (22% of genes show similarity), Other" class="clusterblast-cluster"  >
<text x="5" y="70" class="clusterblast-acc"  >
<a xlink:href="https://mibig.secondarymetabolites.org/go/BGC0002008/1" target="_blank">BGC0002008</a>: aryl polyenes                                                                    (22% of genes show similarity), Other</text>
<line x1="10" y1="85" x2="778.0" y2="85" style="stroke-width:1; stroke:grey; "  />
</g>
<g id="a1_000"  >
<polygon points="249,90 251,90 256,85 251,80 249,80 249,90 " style="fill:white; stroke-width:1; stroke:black; " description="&lt;b&gt;XDD1_RS15980&lt;/b&gt;&lt;br&gt;hypothetical protein&lt;br&gt;Location: 1 - 390" locus_tag="XDD1_RS15980" class="clusterblast-orf" id="dummy-1_h1_2_0"  />
</g>
<g id="a1_001"  >
<polygon points="258,90 273,90 278,85 273,80 258,80 258,90 " style="fill:white; stroke-width:1; stroke:black; " description="&lt;b&gt;XDD1_RS15985&lt;/b&gt;&lt;br&gt;SAM-dependent methyltransferase&lt;br&gt;Location: 503 - 1576" locus_tag="XDD1_RS15985" class="clusterblast-orf" id="dummy-1_h1_2_1"  />
</g>
<g id="a1_002"  >
<polygon points="278,90 287,90 292,85 287,80 278,80 278,90 " style="fill:white; stroke-width:1; stroke:black; " description="&lt;b&gt;XDD1_RS15990&lt;/b&gt;&lt;br&gt;beta-ketoacyl synthase chain length factor&lt;br&gt;Location: 1590 - 2309" locus_tag="XDD1_RS15990" class="clusterblast-orf" id="dummy-1_h1_2_2"  />
</g>
<g id="a1_003"  >
<polygon points="292,90 301,90 306,85 301,80 292,80 292,90 " style="fill:white; stroke-width:1; stroke:black; " description="&lt;b&gt;XDD1_RS15995&lt;/b&gt;&lt;br&gt;1-acyl-sn-glycerol-3-phosphate acyltransferase&lt;br&gt;Location: 2311 - 3102" locus_tag="XDD1_RS15995" class="clusterblast-orf" id="dummy-1_h1_2_3"  />
</g>
<g id="a1_004"  >
<polygon points="307,90 311,85 307,80 307,90 " style="fill:#d815d8; stroke-width:1; stroke:black; " description="&lt;b&gt;XDD1_RS16000&lt;/b&gt;&lt;br&gt;phosphopantetheine-binding protein&lt;br&gt;Location: 3121 - 3378&lt;br&gt;&lt;br&gt;&lt;b&gt;BlastP hit with ctg7_226&lt;/b&gt;&lt;br&gt;Percentage identity: 58&lt;br&gt;Percentage coverage: 91&lt;br&gt;BLAST bit score: 84&lt;br&gt;E-value: 1.05e-22" locus_tag="XDD1_RS16000" class="clusterblast-orf" id="dummy-1_h1_2_4"  />
</g>
<g id="a1_005"  >
<polygon points="311,90 311,90 316,85 311,80 311,80 311,90 " style="fill:#d8d815; stroke-width:1; stroke:black; " description="&lt;b&gt;XDD1_RS16005&lt;/b&gt;&lt;br&gt;acyl carrier protein&lt;br&gt;Location: 3390 - 3641&lt;br&gt;&lt;br&gt;&lt;b&gt;BlastP hit with ctg7_227&lt;/b&gt;&lt;br&gt;Percentage identity: 48&lt;br&gt;Percentage coverage: 99&lt;br&gt;BLAST bit score: 87&lt;br&gt;E-value: 3.23e-24" locus_tag="XDD1_RS16005" class="clusterblast-orf" id="dummy-1_h1_2_5"  />
</g>
<g id="a1_006"  >
<polygon points="317,90 322,90 327,85 322,80 317,80 317,90 " style="fill:white; stroke-width:1; stroke:black; " description="&lt;b&gt;XDD1_RS16010&lt;/b&gt;&lt;br&gt;hypothetical protein&lt;br&gt;Location: 3691 - 4254" locus_tag="XDD1_RS16010" class="clusterblast-orf" id="dummy-1_h1_2_6"  />
</g>
<g id="a1_007"  >
<polygon points="327,90 348,90 353,85 348,80 327,80 327,90 " style="fill:white; stroke-width:1; stroke:black; " description="&lt;b&gt;XDD1_RS16015&lt;/b&gt;&lt;br&gt;AMP-binding protein&lt;br&gt;Location: 4251 - 5636" locus_tag="XDD1_RS16015" class="clusterblast-orf" id="dummy-1_h1_2_7"  />
</g>
<g id="a1_008"  >
<polygon points="353,90 354,90 359,85 354,80 353,80 353,90 " style="fill:white; stroke-width:1; stroke:black; " description="&lt;b&gt;XDD1_RS16020&lt;/b&gt;&lt;br&gt;hydroxymyristoyl-ACP dehydratase&lt;br&gt;Location: 5623 - 5982" locus_tag="XDD1_RS16020" class="clusterblast-orf" id="dummy-1_h1_2_8"  />
</g>
<g id="a1_009"  >
<polygon points="359,90 386,90 391,85 386,80 359,80 359,90 " style="fill:white; stroke-width:1; stroke:black; " description="&lt;b&gt;XDD1_RS16025&lt;/b&gt;&lt;br&gt;glycosyltransferase family 2 protein&lt;br&gt;Location: 5973 - 7688" locus_tag="XDD1_RS16025" class="clusterblast-orf" id="dummy-1_h1_2_9"  />
</g>
<g id="a1_0010"  >
<polygon points="391,90 393,90 398,85 393,80 391,80 391,90 " style="fill:white; stroke-width:1; stroke:black; " description="&lt;b&gt;XDD1_RS16030&lt;/b&gt;&lt;br&gt;acyl-CoA thioesterase&lt;br&gt;Location: 7693 - 8115" locus_tag="XDD1_RS16030" class="clusterblast-orf" id="dummy-1_h1_2_10"  />
</g>
<g id="a1_0011"  >
<polygon points="399,90 405,90 410,85 405,80 399,80 399,90 " style="fill:white; stroke-width:1; stroke:black; " description="&lt;b&gt;XDD1_RS16035&lt;/b&gt;&lt;br&gt;outer membrane lipoprotein carrier protein LolA&lt;br&gt;Location: 8133 - 8735" locus_tag="XDD1_RS16035" class="clusterblast-orf" id="dummy-1_h1_2_11"  />
</g>
<g id="a1_0012"  >
<polygon points="409,90 447,90 452,85 447,80 409,80 409,90 " style="fill:white; stroke-width:1; stroke:black; " description="&lt;b&gt;XDD1_RS16040&lt;/b&gt;&lt;br&gt;MMPL family transporter&lt;br&gt;Location: 8707 - 11031" locus_tag="XDD1_RS16040" class="clusterblast-orf" id="dummy-1_h1_2_12"  />
</g>
<g id="a1_0013"  >
<polygon points="452,90 458,90 463,85 458,80 452,80 452,90 " style="fill:white; stroke-width:1; stroke:black; " description="&lt;b&gt;XDD1_RS16045&lt;/b&gt;&lt;br&gt;DUF3261 domain-containing protein&lt;br&gt;Location: 11028 - 11591" locus_tag="XDD1_RS16045" class="clusterblast-orf" id="dummy-1_h1_2_13"  />
</g>
<g id="a1_0014"  >
<polygon points="463,90 479,90 484,85 479,80 463,80 463,90 " style="fill:white; stroke-width:1; stroke:black; " description="&lt;b&gt;XDD1_RS16050&lt;/b&gt;&lt;br&gt;beta-ketoacyl-[acyl-carrier-protein] synthase family protein&lt;br&gt;Location: 11595 - 12770" locus_tag="XDD1_RS16050" class="clusterblast-orf" id="dummy-1_h1_2_14"  />
</g>
<g id="a1_0015"  >
<polygon points="484,90 488,90 493,85 488,80 484,80 484,90 " style="fill:white; stroke-width:1; stroke:black; " description="&lt;b&gt;XDD1_RS16055&lt;/b&gt;&lt;br&gt;hotdog family protein&lt;br&gt;Location: 12770 - 13267" locus_tag="XDD1_RS16055" class="clusterblast-orf" id="dummy-1_h1_2_15"  />
</g>
<g id="a1_0016"  >
<polygon points="493,90 502,90 507,85 502,80 493,80 493,90 " style="fill:#15d815; stroke-width:1; stroke:black; " description="&lt;b&gt;XDD1_RS16060&lt;/b&gt;&lt;br&gt;3-ketoacyl-ACP reductase FabG2&lt;br&gt;Location: 13264 - 13995&lt;br&gt;&lt;br&gt;&lt;b&gt;BlastP hit with ctg7_219&lt;/b&gt;&lt;br&gt;Percentage identity: 63&lt;br&gt;Percentage coverage: 102&lt;br&gt;BLAST bit score: 308&lt;br&gt;E-value: 1.06e-106" locus_tag="XDD1_RS16060" class="clusterblast-orf" id="dummy-1_h1_2_16"  />
</g>
<g id="a1_0017"  >
<polygon points="507,90 525,90 530,85 525,80 507,80 507,90 " style="fill:#d81515; stroke-width:1; stroke:black; " description="&lt;b&gt;XDD1_RS16065&lt;/b&gt;&lt;br&gt;beta-ketoacyl-ACP synthase&lt;br&gt;Location: 13992 - 15251&lt;br&gt;&lt;br&gt;&lt;b&gt;BlastP hit with ctg7_218&lt;/b&gt;&lt;br&gt;Percentage identity: 58&lt;br&gt;Percentage coverage: 100&lt;br&gt;BLAST bit score: 486&lt;br&gt;E-value: 1.46e-171" locus_tag="XDD1_RS16065" class="clusterblast-orf" id="dummy-1_h1_2_17"  />
</g>
</svg>
