<svg xmlns="http://www.w3.org/2000/svg" xmlns:xlink="http://www.w3.org/1999/xlink" version="1.1" x="0" y="0" height="50" width="800" viewBox="0 0 800 50" preserveAspectRatio="none"  >
<g label="Query sequence" class="clusterblast-cluster"  >
<text x="5" y="20" class="clusterblast-acc"  >
Query sequence</text>
<line x1="10" y1="35" x2="778.0" y2="35" style="stroke-width:1; stroke:grey; "  />
<polygon points="0,35 5,30 14,30 14,40 5,40 0,35 " style="fill:white; stroke-width:1; stroke:black; " description="&lt;b&gt;ctg54_3&lt;/b&gt;&lt;br&gt;ctg54 3&lt;br&gt;Location: 1334 - 1955" locus_tag="ctg54_3" class="clusterblast-orf" id="knownclusterblast-1_q0_0_all"  />
<polygon points="16,40 45,40 50,35 45,30 16,30 16,40 " style="fill:white; stroke-width:1; stroke:black; " description="&lt;b&gt;ctg54_4&lt;/b&gt;&lt;br&gt;ctg54 4&lt;br&gt;Location: 2044 - 3508" locus_tag="ctg54_4" class="clusterblast-orf" id="knownclusterblast-1_q1_0_all"  />
<polygon points="50,40 75,40 80,35 75,30 50,30 50,40 " style="fill:white; stroke-width:1; stroke:black; " description="&lt;b&gt;ctg54_5&lt;/b&gt;&lt;br&gt;ctg54 5&lt;br&gt;Location: 3504 - 4806" locus_tag="ctg54_5" class="clusterblast-orf" id="knownclusterblast-1_q2_0_all"  />
<polygon points="81,40 95,40 100,35 95,30 81,30 81,40 " style="fill:white; stroke-width:1; stroke:black; " description="&lt;b&gt;ctg54_6&lt;/b&gt;&lt;br&gt;ctg54 6&lt;br&gt;Location: 4861 - 5671" locus_tag="ctg54_6" class="clusterblast-orf" id="knownclusterblast-1_q3_0_all"  />
<polygon points="99,40 145,40 150,35 145,30 99,30 99,40 " style="fill:white; stroke-width:1; stroke:black; " description="&lt;b&gt;ctg54_7&lt;/b&gt;&lt;br&gt;ctg54 7&lt;br&gt;Location: 5667 - 7842" locus_tag="ctg54_7" class="clusterblast-orf" id="knownclusterblast-1_q4_0_all"  />
<polygon points="149,40 209,40 214,35 209,30 149,30 149,40 " style="fill:white; stroke-width:1; stroke:black; " description="&lt;b&gt;ctg54_8&lt;/b&gt;&lt;br&gt;ctg54 8&lt;br&gt;Location: 7838 - 10649" locus_tag="ctg54_8" class="clusterblast-orf" id="knownclusterblast-1_q5_0_all"  />
<polygon points="217,40 220,40 225,35 220,30 217,30 217,40 " style="fill:white; stroke-width:1; stroke:black; " description="&lt;b&gt;ctg54_9&lt;/b&gt;&lt;br&gt;ctg54 9&lt;br&gt;Location: 10794 - 11130" locus_tag="ctg54_9" class="clusterblast-orf" id="knownclusterblast-1_q6_0_all"  />
<polygon points="224,40 291,40 296,35 291,30 224,30 224,40 " style="fill:white; stroke-width:1; stroke:black; " description="&lt;b&gt;ctg54_10&lt;/b&gt;&lt;br&gt;ctg54 10&lt;br&gt;Location: 11080 - 14188" locus_tag="ctg54_10" class="clusterblast-orf" id="knownclusterblast-1_q7_0_all"  />
<polygon points="296,40 323,40 328,35 323,30 296,30 296,40 " style="fill:white; stroke-width:1; stroke:black; " description="&lt;b&gt;ctg54_11&lt;/b&gt;&lt;br&gt;ctg54 11&lt;br&gt;Location: 14189 - 15578" locus_tag="ctg54_11" class="clusterblast-orf" id="knownclusterblast-1_q8_0_all"  />
<polygon points="328,40 356,40 361,35 356,30 328,30 328,40 " style="fill:white; stroke-width:1; stroke:black; " description="&lt;b&gt;ctg54_12&lt;/b&gt;&lt;br&gt;ctg54 12&lt;br&gt;Location: 15589 - 17053" locus_tag="ctg54_12" class="clusterblast-orf" id="knownclusterblast-1_q9_0_all"  />
<polygon points="361,40 401,40 406,35 401,30 361,30 361,40 " style="fill:white; stroke-width:1; stroke:black; " description="&lt;b&gt;ctg54_13&lt;/b&gt;&lt;br&gt;ctg54 13&lt;br&gt;Location: 17049 - 18975" locus_tag="ctg54_13" class="clusterblast-orf" id="knownclusterblast-1_q10_0_all"  />
<polygon points="406,35 411,30 427,30 427,40 411,40 406,35 " style="fill:white; stroke-width:1; stroke:black; " description="&lt;b&gt;ctg54_14&lt;/b&gt;&lt;br&gt;ctg54 14&lt;br&gt;Location: 19000 - 19909" locus_tag="ctg54_14" class="clusterblast-orf" id="knownclusterblast-1_q11_0_all"  />
<polygon points="429,40 449,40 454,35 449,30 429,30 429,40 " style="fill:white; stroke-width:1; stroke:black; " description="&lt;b&gt;ctg54_15&lt;/b&gt;&lt;br&gt;ctg54 15&lt;br&gt;Location: 19966 - 21067" locus_tag="ctg54_15" class="clusterblast-orf" id="knownclusterblast-1_q12_0_all"  />
<polygon points="455,40 459,40 464,35 459,30 455,30 455,40 " style="fill:white; stroke-width:1; stroke:black; " description="&lt;b&gt;ctg54_16&lt;/b&gt;&lt;br&gt;ctg54 16&lt;br&gt;Location: 21131 - 21503" locus_tag="ctg54_16" class="clusterblast-orf" id="knownclusterblast-1_q13_0_all"  />
<polygon points="464,40 477,40 482,35 477,30 464,30 464,40 " style="fill:white; stroke-width:1; stroke:black; " description="&lt;b&gt;ctg54_17&lt;/b&gt;&lt;br&gt;ctg54 17&lt;br&gt;Location: 21499 - 22270" locus_tag="ctg54_17" class="clusterblast-orf" id="knownclusterblast-1_q14_0_all"  />
<polygon points="482,35 487,30 499,30 499,40 487,40 482,35 " style="fill:white; stroke-width:1; stroke:black; " description="&lt;b&gt;ctg54_18&lt;/b&gt;&lt;br&gt;ctg54 18&lt;br&gt;Location: 22271 - 23039" locus_tag="ctg54_18" class="clusterblast-orf" id="knownclusterblast-1_q15_0_all"  />
<polygon points="499,35 504,30 543,30 543,40 504,40 499,35 " style="fill:white; stroke-width:1; stroke:black; " description="&lt;b&gt;ctg54_19&lt;/b&gt;&lt;br&gt;ctg54 19&lt;br&gt;Location: 23035 - 24949" locus_tag="ctg54_19" class="clusterblast-orf" id="knownclusterblast-1_q16_0_all"  />
<polygon points="544,40 572,40 577,35 572,30 544,30 544,40 " style="fill:white; stroke-width:1; stroke:black; " description="&lt;b&gt;ctg54_20&lt;/b&gt;&lt;br&gt;ctg54 20&lt;br&gt;Location: 25005 - 26412" locus_tag="ctg54_20" class="clusterblast-orf" id="knownclusterblast-1_q17_0_all"  />
<polygon points="577,40 615,40 620,35 615,30 577,30 577,40 " style="fill:white; stroke-width:1; stroke:black; " description="&lt;b&gt;ctg54_21&lt;/b&gt;&lt;br&gt;ctg54 21&lt;br&gt;Location: 26420 - 28283" locus_tag="ctg54_21" class="clusterblast-orf" id="knownclusterblast-1_q18_0_all"  />
<polygon points="620,40 662,40 667,35 662,30 620,30 620,40 " style="fill:white; stroke-width:1; stroke:black; " description="&lt;b&gt;ctg54_22&lt;/b&gt;&lt;br&gt;ctg54 22&lt;br&gt;Location: 28275 - 30348" locus_tag="ctg54_22" class="clusterblast-orf" id="knownclusterblast-1_q19_0_all"  />
<polygon points="667,35 672,30 682,30 682,40 672,40 667,35 " style="fill:white; stroke-width:1; stroke:black; " description="&lt;b&gt;ctg54_23&lt;/b&gt;&lt;br&gt;ctg54 23&lt;br&gt;Location: 30339 - 30963" locus_tag="ctg54_23" class="clusterblast-orf" id="knownclusterblast-1_q20_0_all"  />
<polygon points="689,35 694,30 723,30 723,40 694,40 689,35 " style="fill:white; stroke-width:1; stroke:black; " description="&lt;b&gt;ctg54_24&lt;/b&gt;&lt;br&gt;ctg54 24&lt;br&gt;Location: 31290 - 32778" locus_tag="ctg54_24" class="clusterblast-orf" id="knownclusterblast-1_q21_0_all"  />
<polygon points="728,35 733,30 734,30 734,40 733,40 728,35 " style="fill:white; stroke-width:1; stroke:black; " description="&lt;b&gt;ctg54_25&lt;/b&gt;&lt;br&gt;ctg54 25&lt;br&gt;Location: 32973 - 33234" locus_tag="ctg54_25" class="clusterblast-orf" id="knownclusterblast-1_q22_0_all"  />
<polygon points="737,40 737,40 742,35 737,30 737,30 737,40 " style="fill:white; stroke-width:1; stroke:black; " description="&lt;b&gt;ctg54_26&lt;/b&gt;&lt;br&gt;ctg54 26&lt;br&gt;Location: 33381 - 33570" locus_tag="ctg54_26" class="clusterblast-orf" id="knownclusterblast-1_q23_0_all"  />
<polygon points="747,35 752,30 759,30 759,40 752,40 747,35 " style="fill:white; stroke-width:1; stroke:black; " description="&lt;b&gt;ctg54_27&lt;/b&gt;&lt;br&gt;ctg54 27&lt;br&gt;Location: 33784 - 34309" locus_tag="ctg54_27" class="clusterblast-orf" id="knownclusterblast-1_q24_0_all"  />
<polygon points="763,35 768,30 780,30 780,40 768,40 763,35 " style="fill:white; stroke-width:1; stroke:black; " description="&lt;b&gt;ctg54_28&lt;/b&gt;&lt;br&gt;ctg54 28&lt;br&gt;Location: 34501 - 35227" locus_tag="ctg54_28" class="clusterblast-orf" id="knownclusterblast-1_q25_0_all"  />
</g>
</svg>
