<svg xmlns="http://www.w3.org/2000/svg" xmlns:xlink="http://www.w3.org/1999/xlink" version="1.1" x="0" y="0" height="50" width="800" viewBox="0 0 800 50" preserveAspectRatio="none"  >
<g label="Query sequence" class="clusterblast-cluster"  >
<text x="5" y="20" class="clusterblast-acc"  >
Query sequence</text>
<line x1="10" y1="35" x2="778.0" y2="35" style="stroke-width:1; stroke:grey; "  />
<polygon points="0,40 10,40 15,35 10,30 0,30 0,40 " style="fill:white; stroke-width:1; stroke:black; " description="&lt;b&gt;ctg18_55&lt;/b&gt;&lt;br&gt;ctg18 55&lt;br&gt;Location: 55336 - 56680" locus_tag="ctg18_55" class="clusterblast-orf" id="knownclusterblast-2_q0_0_all"  />
<polygon points="16,40 40,40 45,35 40,30 16,30 16,40 " style="fill:white; stroke-width:1; stroke:black; " description="&lt;b&gt;ctg18_56&lt;/b&gt;&lt;br&gt;ctg18 56&lt;br&gt;Location: 56763 - 59430" locus_tag="ctg18_56" class="clusterblast-orf" id="knownclusterblast-2_q1_0_all"  />
<polygon points="49,40 51,40 56,35 51,30 49,30 49,40 " style="fill:white; stroke-width:1; stroke:black; " description="&lt;b&gt;ctg18_57&lt;/b&gt;&lt;br&gt;ctg18 57&lt;br&gt;Location: 59774 - 60404" locus_tag="ctg18_57" class="clusterblast-orf" id="knownclusterblast-2_q2_0_all"  />
<polygon points="56,35 61,30 66,30 66,40 61,40 56,35 " style="fill:white; stroke-width:1; stroke:black; " description="&lt;b&gt;ctg18_58&lt;/b&gt;&lt;br&gt;ctg18 58&lt;br&gt;Location: 60407 - 61310" locus_tag="ctg18_58" class="clusterblast-orf" id="knownclusterblast-2_q3_0_all"  />
<polygon points="68,40 76,40 81,35 76,30 68,30 68,40 " style="fill:white; stroke-width:1; stroke:black; " description="&lt;b&gt;ctg18_59&lt;/b&gt;&lt;br&gt;ctg18 59&lt;br&gt;Location: 61487 - 62645" locus_tag="ctg18_59" class="clusterblast-orf" id="knownclusterblast-2_q4_0_all"  />
<polygon points="81,35 86,30 111,30 111,40 86,40 81,35 " style="fill:white; stroke-width:1; stroke:black; " description="&lt;b&gt;ctg18_60&lt;/b&gt;&lt;br&gt;ctg18 60&lt;br&gt;Location: 62641 - 65293" locus_tag="ctg18_60" class="clusterblast-orf" id="knownclusterblast-2_q5_0_all"  />
<polygon points="112,40 116,40 121,35 116,30 112,30 112,40 " style="fill:white; stroke-width:1; stroke:black; " description="&lt;b&gt;ctg18_61&lt;/b&gt;&lt;br&gt;ctg18 61&lt;br&gt;Location: 65435 - 66209" locus_tag="ctg18_61" class="clusterblast-orf" id="knownclusterblast-2_q6_0_all"  />
<polygon points="121,40 123,40 128,35 123,30 121,30 121,40 " style="fill:white; stroke-width:1; stroke:black; " description="&lt;b&gt;ctg18_62&lt;/b&gt;&lt;br&gt;ctg18 62&lt;br&gt;Location: 66228 - 66831" locus_tag="ctg18_62" class="clusterblast-orf" id="knownclusterblast-2_q7_0_all"  />
<polygon points="129,40 138,40 143,35 138,30 129,30 129,40 " style="fill:white; stroke-width:1; stroke:black; " description="&lt;b&gt;ctg18_63&lt;/b&gt;&lt;br&gt;ctg18 63&lt;br&gt;Location: 66942 - 68184" locus_tag="ctg18_63" class="clusterblast-orf" id="knownclusterblast-2_q8_0_all"  />
<polygon points="152,35 157,30 161,30 161,40 157,40 152,35 " style="fill:white; stroke-width:1; stroke:black; " description="&lt;b&gt;ctg18_64&lt;/b&gt;&lt;br&gt;ctg18 64&lt;br&gt;Location: 69002 - 69770" locus_tag="ctg18_64" class="clusterblast-orf" id="knownclusterblast-2_q9_0_all"  />
<polygon points="161,35 166,30 168,30 168,40 166,40 161,35 " style="fill:white; stroke-width:1; stroke:black; " description="&lt;b&gt;ctg18_65&lt;/b&gt;&lt;br&gt;ctg18 65&lt;br&gt;Location: 69771 - 70437" locus_tag="ctg18_65" class="clusterblast-orf" id="knownclusterblast-2_q10_0_all"  />
<polygon points="173,35 178,30 181,30 181,40 178,40 173,35 " style="fill:white; stroke-width:1; stroke:black; " description="&lt;b&gt;ctg18_66&lt;/b&gt;&lt;br&gt;ctg18 66&lt;br&gt;Location: 70865 - 71633" locus_tag="ctg18_66" class="clusterblast-orf" id="knownclusterblast-2_q11_0_all"  />
<polygon points="182,40 195,40 200,35 195,30 182,30 182,40 " style="fill:white; stroke-width:1; stroke:black; " description="&lt;b&gt;ctg18_67&lt;/b&gt;&lt;br&gt;ctg18 67&lt;br&gt;Location: 71676 - 73335" locus_tag="ctg18_67" class="clusterblast-orf" id="knownclusterblast-2_q12_0_all"  />
<polygon points="201,40 275,40 280,35 275,30 201,30 201,40 " style="fill:white; stroke-width:1; stroke:black; " description="&lt;b&gt;ctg18_68&lt;/b&gt;&lt;br&gt;ctg18 68&lt;br&gt;Location: 73348 - 80476" locus_tag="ctg18_68" class="clusterblast-orf" id="knownclusterblast-2_q13_0_all"  />
<polygon points="281,40 354,40 359,35 354,30 281,30 281,40 " style="fill:white; stroke-width:1; stroke:black; " description="&lt;b&gt;ctg18_69&lt;/b&gt;&lt;br&gt;ctg18 69&lt;br&gt;Location: 80544 - 87573" locus_tag="ctg18_69" class="clusterblast-orf" id="knownclusterblast-2_q14_0_all"  />
<polygon points="361,40 390,40 395,35 390,30 361,30 361,40 " style="fill:white; stroke-width:1; stroke:black; " description="&lt;b&gt;ctg18_70&lt;/b&gt;&lt;br&gt;ctg18 70&lt;br&gt;Location: 87735 - 90798" locus_tag="ctg18_70" class="clusterblast-orf" id="knownclusterblast-2_q15_0_all"  />
<polygon points="395,40 400,40 405,35 400,30 395,30 395,40 " style="fill:white; stroke-width:1; stroke:black; " description="&lt;b&gt;ctg18_71&lt;/b&gt;&lt;br&gt;ctg18 71&lt;br&gt;Location: 90794 - 91682" locus_tag="ctg18_71" class="clusterblast-orf" id="knownclusterblast-2_q16_0_all"  />
<polygon points="405,40 418,40 423,35 418,30 405,30 405,40 " style="fill:white; stroke-width:1; stroke:black; " description="&lt;b&gt;ctg18_72&lt;/b&gt;&lt;br&gt;ctg18 72&lt;br&gt;Location: 91678 - 93244" locus_tag="ctg18_72" class="clusterblast-orf" id="knownclusterblast-2_q17_0_all"  />
<polygon points="425,40 430,40 435,35 430,30 425,30 425,40 " style="fill:white; stroke-width:1; stroke:black; " description="&lt;b&gt;ctg18_73&lt;/b&gt;&lt;br&gt;ctg18 73&lt;br&gt;Location: 93424 - 94369" locus_tag="ctg18_73" class="clusterblast-orf" id="knownclusterblast-2_q18_0_all"  />
<polygon points="435,35 439,30 439,40 435,35 " style="fill:white; stroke-width:1; stroke:black; " description="&lt;b&gt;ctg18_74&lt;/b&gt;&lt;br&gt;ctg18 74&lt;br&gt;Location: 94365 - 94758" locus_tag="ctg18_74" class="clusterblast-orf" id="knownclusterblast-2_q19_0_all"  />
<polygon points="441,40 447,40 452,35 447,30 441,30 441,40 " style="fill:white; stroke-width:1; stroke:black; " description="&lt;b&gt;ctg18_75&lt;/b&gt;&lt;br&gt;ctg18 75&lt;br&gt;Location: 94931 - 95882" locus_tag="ctg18_75" class="clusterblast-orf" id="knownclusterblast-2_q20_0_all"  />
<polygon points="452,40 454,40 459,35 454,30 452,30 452,40 " style="fill:white; stroke-width:1; stroke:black; " description="&lt;b&gt;ctg18_76&lt;/b&gt;&lt;br&gt;ctg18 76&lt;br&gt;Location: 95878 - 96508" locus_tag="ctg18_76" class="clusterblast-orf" id="knownclusterblast-2_q21_0_all"  />
<polygon points="461,35 466,30 468,30 468,40 466,40 461,35 " style="fill:white; stroke-width:1; stroke:black; " description="&lt;b&gt;ctg18_77&lt;/b&gt;&lt;br&gt;ctg18 77&lt;br&gt;Location: 96675 - 97356" locus_tag="ctg18_77" class="clusterblast-orf" id="knownclusterblast-2_q22_0_all"  />
<polygon points="471,40 480,40 485,35 480,30 471,30 471,40 " style="fill:white; stroke-width:1; stroke:black; " description="&lt;b&gt;ctg18_78&lt;/b&gt;&lt;br&gt;ctg18 78&lt;br&gt;Location: 97579 - 98875" locus_tag="ctg18_78" class="clusterblast-orf" id="knownclusterblast-2_q23_0_all"  />
<polygon points="486,40 490,35 486,30 486,40 " style="fill:white; stroke-width:1; stroke:black; " description="&lt;b&gt;ctg18_79&lt;/b&gt;&lt;br&gt;ctg18 79&lt;br&gt;Location: 98972 - 99266" locus_tag="ctg18_79" class="clusterblast-orf" id="knownclusterblast-2_q24_0_all"  />
<polygon points="491,40 495,40 500,35 495,30 491,30 491,40 " style="fill:white; stroke-width:1; stroke:black; " description="&lt;b&gt;ctg18_80&lt;/b&gt;&lt;br&gt;ctg18 80&lt;br&gt;Location: 99424 - 100198" locus_tag="ctg18_80" class="clusterblast-orf" id="knownclusterblast-2_q25_0_all"  />
<polygon points="500,35 505,30 516,30 516,40 505,40 500,35 " style="fill:white; stroke-width:1; stroke:black; " description="&lt;b&gt;ctg18_81&lt;/b&gt;&lt;br&gt;ctg18 81&lt;br&gt;Location: 100194 - 101646" locus_tag="ctg18_81" class="clusterblast-orf" id="knownclusterblast-2_q26_0_all"  />
<polygon points="517,35 522,30 524,30 524,40 522,40 517,35 " style="fill:white; stroke-width:1; stroke:black; " description="&lt;b&gt;ctg18_82&lt;/b&gt;&lt;br&gt;ctg18 82&lt;br&gt;Location: 101675 - 102317" locus_tag="ctg18_82" class="clusterblast-orf" id="knownclusterblast-2_q27_0_all"  />
<polygon points="525,40 534,40 539,35 534,30 525,30 525,40 " style="fill:white; stroke-width:1; stroke:black; " description="&lt;b&gt;ctg18_83&lt;/b&gt;&lt;br&gt;ctg18 83&lt;br&gt;Location: 102442 - 103696" locus_tag="ctg18_83" class="clusterblast-orf" id="knownclusterblast-2_q28_0_all"  />
<polygon points="539,35 544,30 563,30 563,40 544,40 539,35 " style="fill:white; stroke-width:1; stroke:black; " description="&lt;b&gt;ctg18_84&lt;/b&gt;&lt;br&gt;ctg18 84&lt;br&gt;Location: 103684 - 105799" locus_tag="ctg18_84" class="clusterblast-orf" id="knownclusterblast-2_q29_0_all"  />
<polygon points="564,35 569,30 594,30 594,40 569,40 564,35 " style="fill:white; stroke-width:1; stroke:black; " description="&lt;b&gt;ctg18_85&lt;/b&gt;&lt;br&gt;ctg18 85&lt;br&gt;Location: 105905 - 108608" locus_tag="ctg18_85" class="clusterblast-orf" id="knownclusterblast-2_q30_0_all"  />
<polygon points="597,35 600,30 600,40 597,35 " style="fill:white; stroke-width:1; stroke:black; " description="&lt;b&gt;ctg18_86&lt;/b&gt;&lt;br&gt;ctg18 86&lt;br&gt;Location: 108926 - 109181" locus_tag="ctg18_86" class="clusterblast-orf" id="knownclusterblast-2_q31_0_all"  />
<polygon points="603,35 608,30 610,30 610,40 608,40 603,35 " style="fill:white; stroke-width:1; stroke:black; " description="&lt;b&gt;ctg18_87&lt;/b&gt;&lt;br&gt;ctg18 87&lt;br&gt;Location: 109392 - 110058" locus_tag="ctg18_87" class="clusterblast-orf" id="knownclusterblast-2_q32_0_all"  />
<polygon points="610,35 615,30 619,30 619,40 615,40 610,35 " style="fill:white; stroke-width:1; stroke:black; " description="&lt;b&gt;ctg18_88&lt;/b&gt;&lt;br&gt;ctg18 88&lt;br&gt;Location: 110081 - 110822" locus_tag="ctg18_88" class="clusterblast-orf" id="knownclusterblast-2_q33_0_all"  />
<polygon points="620,35 625,30 629,30 629,40 625,40 620,35 " style="fill:white; stroke-width:1; stroke:black; " description="&lt;b&gt;ctg18_89&lt;/b&gt;&lt;br&gt;ctg18 89&lt;br&gt;Location: 110934 - 111768" locus_tag="ctg18_89" class="clusterblast-orf" id="knownclusterblast-2_q34_0_all"  />
<polygon points="629,35 634,30 636,30 636,40 634,40 629,35 " style="fill:white; stroke-width:1; stroke:black; " description="&lt;b&gt;ctg18_90&lt;/b&gt;&lt;br&gt;ctg18 90&lt;br&gt;Location: 111730 - 112378" locus_tag="ctg18_90" class="clusterblast-orf" id="knownclusterblast-2_q35_0_all"  />
<polygon points="636,35 641,30 649,30 649,40 641,40 636,35 " style="fill:white; stroke-width:1; stroke:black; " description="&lt;b&gt;ctg18_91&lt;/b&gt;&lt;br&gt;ctg18 91&lt;br&gt;Location: 112370 - 113546" locus_tag="ctg18_91" class="clusterblast-orf" id="knownclusterblast-2_q36_0_all"  />
<polygon points="650,40 654,40 659,35 654,30 650,30 650,40 " style="fill:white; stroke-width:1; stroke:black; " description="&lt;b&gt;ctg18_92&lt;/b&gt;&lt;br&gt;ctg18 92&lt;br&gt;Location: 113668 - 114400" locus_tag="ctg18_92" class="clusterblast-orf" id="knownclusterblast-2_q37_0_all"  />
<polygon points="658,40 660,40 665,35 660,30 658,30 658,40 " style="fill:white; stroke-width:1; stroke:black; " description="&lt;b&gt;ctg18_93&lt;/b&gt;&lt;br&gt;ctg18 93&lt;br&gt;Location: 114392 - 114980" locus_tag="ctg18_93" class="clusterblast-orf" id="knownclusterblast-2_q38_0_all"  />
<polygon points="665,35 670,30 674,30 674,40 670,40 665,35 " style="fill:white; stroke-width:1; stroke:black; " description="&lt;b&gt;ctg18_94&lt;/b&gt;&lt;br&gt;ctg18 94&lt;br&gt;Location: 114953 - 115808" locus_tag="ctg18_94" class="clusterblast-orf" id="knownclusterblast-2_q39_0_all"  />
<polygon points="674,35 679,30 681,30 681,40 679,40 674,35 " style="fill:white; stroke-width:1; stroke:black; " description="&lt;b&gt;ctg18_95&lt;/b&gt;&lt;br&gt;ctg18 95&lt;br&gt;Location: 115814 - 116420" locus_tag="ctg18_95" class="clusterblast-orf" id="knownclusterblast-2_q40_0_all"  />
<polygon points="683,40 687,35 683,30 683,40 " style="fill:white; stroke-width:1; stroke:black; " description="&lt;b&gt;ctg18_96&lt;/b&gt;&lt;br&gt;ctg18 96&lt;br&gt;Location: 116629 - 116953" locus_tag="ctg18_96" class="clusterblast-orf" id="knownclusterblast-2_q41_0_all"  />
<polygon points="687,35 691,30 691,40 687,35 " style="fill:white; stroke-width:1; stroke:black; " description="&lt;b&gt;ctg18_97&lt;/b&gt;&lt;br&gt;ctg18 97&lt;br&gt;Location: 116956 - 117343" locus_tag="ctg18_97" class="clusterblast-orf" id="knownclusterblast-2_q42_0_all"  />
<polygon points="692,40 699,40 704,35 699,30 692,30 692,40 " style="fill:white; stroke-width:1; stroke:black; " description="&lt;b&gt;ctg18_98&lt;/b&gt;&lt;br&gt;ctg18 98&lt;br&gt;Location: 117378 - 118437" locus_tag="ctg18_98" class="clusterblast-orf" id="knownclusterblast-2_q43_0_all"  />
<polygon points="704,40 706,40 711,35 706,30 704,30 704,40 " style="fill:white; stroke-width:1; stroke:black; " description="&lt;b&gt;ctg18_99&lt;/b&gt;&lt;br&gt;ctg18 99&lt;br&gt;Location: 118433 - 119117" locus_tag="ctg18_99" class="clusterblast-orf" id="knownclusterblast-2_q44_0_all"  />
<polygon points="711,40 718,40 723,35 718,30 711,30 711,40 " style="fill:white; stroke-width:1; stroke:black; " description="&lt;b&gt;ctg18_100&lt;/b&gt;&lt;br&gt;ctg18 100&lt;br&gt;Location: 119113 - 120211" locus_tag="ctg18_100" class="clusterblast-orf" id="knownclusterblast-2_q45_0_all"  />
<polygon points="723,35 728,30 729,30 729,40 728,40 723,35 " style="fill:white; stroke-width:1; stroke:black; " description="&lt;b&gt;ctg18_101&lt;/b&gt;&lt;br&gt;ctg18 101&lt;br&gt;Location: 120159 - 120747" locus_tag="ctg18_101" class="clusterblast-orf" id="knownclusterblast-2_q46_0_all"  />
<polygon points="730,35 735,30 741,30 741,40 735,40 730,35 " style="fill:white; stroke-width:1; stroke:black; " description="&lt;b&gt;ctg18_102&lt;/b&gt;&lt;br&gt;ctg18 102&lt;br&gt;Location: 120825 - 121827" locus_tag="ctg18_102" class="clusterblast-orf" id="knownclusterblast-2_q47_0_all"  />
<polygon points="741,40 743,35 741,30 741,40 " style="fill:white; stroke-width:1; stroke:black; " description="&lt;b&gt;ctg18_103&lt;/b&gt;&lt;br&gt;ctg18 103&lt;br&gt;Location: 121833 - 121947" locus_tag="ctg18_103" class="clusterblast-orf" id="knownclusterblast-2_q48_0_all"  />
<polygon points="745,40 750,40 755,35 750,30 745,30 745,40 " style="fill:white; stroke-width:1; stroke:black; " description="&lt;b&gt;ctg18_104&lt;/b&gt;&lt;br&gt;ctg18 104&lt;br&gt;Location: 122136 - 123057" locus_tag="ctg18_104" class="clusterblast-orf" id="knownclusterblast-2_q49_0_all"  />
<polygon points="755,35 760,30 764,30 764,40 760,40 755,35 " style="fill:white; stroke-width:1; stroke:black; " description="&lt;b&gt;ctg18_105&lt;/b&gt;&lt;br&gt;ctg18 105&lt;br&gt;Location: 123012 - 123867" locus_tag="ctg18_105" class="clusterblast-orf" id="knownclusterblast-2_q50_0_all"  />
<polygon points="764,35 769,30 780,30 780,40 769,40 764,35 " style="fill:white; stroke-width:1; stroke:black; " description="&lt;b&gt;ctg18_106&lt;/b&gt;&lt;br&gt;ctg18 106&lt;br&gt;Location: 123898 - 125254" locus_tag="ctg18_106" class="clusterblast-orf" id="knownclusterblast-2_q51_0_all"  />
</g>
</svg>
