<svg xmlns="http://www.w3.org/2000/svg" xmlns:xlink="http://www.w3.org/1999/xlink" version="1.1" x="0" y="0" height="200" width="800" viewBox="0 0 800 200" preserveAspectRatio="none"  >
<g label="Query sequence" class="clusterblast-cluster"  >
<text x="5" y="20" class="clusterblast-acc"  >
Query sequence</text>
<line x1="10" y1="35" x2="778.0" y2="35" style="stroke-width:1; stroke:grey; "  />
<polygon points="0,40 3,35 0,30 0,40 " style="fill:white; stroke-width:1; stroke:black; " description="&lt;b&gt;ctg62_14&lt;/b&gt;&lt;br&gt;ctg62 14&lt;br&gt;Location: 12470 - 12599" locus_tag="ctg62_14" class="clusterblast-orf" id="knownclusterblast-1_q0_0_all"  />
<polygon points="3,40 32,40 37,35 32,30 3,30 3,40 " style="fill:white; stroke-width:1; stroke:black; " description="&lt;b&gt;ctg62_15&lt;/b&gt;&lt;br&gt;ctg62 15&lt;br&gt;Location: 12595 - 13855" locus_tag="ctg62_15" class="clusterblast-orf" id="knownclusterblast-1_q1_0_all"  />
<polygon points="40,40 63,40 68,35 63,30 40,30 40,40 " style="fill:white; stroke-width:1; stroke:black; " description="&lt;b&gt;ctg62_16&lt;/b&gt;&lt;br&gt;ctg62 16&lt;br&gt;Location: 13949 - 14990" locus_tag="ctg62_16" class="clusterblast-orf" id="knownclusterblast-1_q2_0_all"  />
<polygon points="69,40 77,40 82,35 77,30 69,30 69,40 " style="fill:white; stroke-width:1; stroke:black; " description="&lt;b&gt;ctg62_17&lt;/b&gt;&lt;br&gt;ctg62 17&lt;br&gt;Location: 15005 - 15491" locus_tag="ctg62_17" class="clusterblast-orf" id="knownclusterblast-1_q3_0_all"  />
<polygon points="82,35 87,30 101,30 101,40 87,40 82,35 " style="fill:white; stroke-width:1; stroke:black; " description="&lt;b&gt;ctg62_18&lt;/b&gt;&lt;br&gt;ctg62 18&lt;br&gt;Location: 15506 - 16196" locus_tag="ctg62_18" class="clusterblast-orf" id="knownclusterblast-1_q4_0_all"  />
<polygon points="101,35 106,30 145,30 145,40 106,40 101,35 " style="fill:white; stroke-width:1; stroke:black; " description="&lt;b&gt;ctg62_19&lt;/b&gt;&lt;br&gt;ctg62 19&lt;br&gt;Location: 16195 - 17827" locus_tag="ctg62_19" class="clusterblast-orf" id="knownclusterblast-1_q5_0_all"  />
<polygon points="145,35 150,30 165,30 165,40 150,40 145,35 " style="fill:white; stroke-width:1; stroke:black; " description="&lt;b&gt;ctg62_20&lt;/b&gt;&lt;br&gt;ctg62 20&lt;br&gt;Location: 17817 - 18552" locus_tag="ctg62_20" class="clusterblast-orf" id="knownclusterblast-1_q6_0_all"  />
<polygon points="165,35 170,30 177,30 177,40 170,40 165,35 " style="fill:white; stroke-width:1; stroke:black; " description="&lt;b&gt;ctg62_21&lt;/b&gt;&lt;br&gt;ctg62 21&lt;br&gt;Location: 18545 - 19001" locus_tag="ctg62_21" class="clusterblast-orf" id="knownclusterblast-1_q7_0_all"  />
<polygon points="177,35 182,30 203,30 203,40 182,40 177,35 " style="fill:white; stroke-width:1; stroke:black; " description="&lt;b&gt;ctg62_22&lt;/b&gt;&lt;br&gt;ctg62 22&lt;br&gt;Location: 18997 - 19942" locus_tag="ctg62_22" class="clusterblast-orf" id="knownclusterblast-1_q8_0_all"  />
<polygon points="203,40 203,40 208,35 203,30 203,30 203,40 " style="fill:white; stroke-width:1; stroke:black; " description="&lt;b&gt;ctg62_23&lt;/b&gt;&lt;br&gt;ctg62 23&lt;br&gt;Location: 19945 - 20131" locus_tag="ctg62_23" class="clusterblast-orf" id="knownclusterblast-1_q9_0_all"  />
<polygon points="209,35 214,30 231,30 231,40 214,40 209,35 " style="fill:white; stroke-width:1; stroke:black; " description="&lt;b&gt;ctg62_24&lt;/b&gt;&lt;br&gt;ctg62 24&lt;br&gt;Location: 20161 - 20977" locus_tag="ctg62_24" class="clusterblast-orf" id="knownclusterblast-1_q10_0_all"  />
<polygon points="235,40 246,40 251,35 246,30 235,30 235,40 " style="fill:white; stroke-width:1; stroke:black; " description="&lt;b&gt;ctg62_25&lt;/b&gt;&lt;br&gt;ctg62 25&lt;br&gt;Location: 21117 - 21714" locus_tag="ctg62_25" class="clusterblast-orf" id="knownclusterblast-1_q11_0_all"  />
<polygon points="251,40 278,40 283,35 278,30 251,30 251,40 " style="fill:white; stroke-width:1; stroke:black; " description="&lt;b&gt;ctg62_26&lt;/b&gt;&lt;br&gt;ctg62 26&lt;br&gt;Location: 21714 - 22893" locus_tag="ctg62_26" class="clusterblast-orf" id="knownclusterblast-1_q12_0_all"  />
<polygon points="282,40 309,40 314,35 309,30 282,30 282,40 " style="fill:white; stroke-width:1; stroke:black; " description="&lt;b&gt;ctg62_27&lt;/b&gt;&lt;br&gt;ctg62 27&lt;br&gt;Location: 22859 - 24053" locus_tag="ctg62_27" class="clusterblast-orf" id="knownclusterblast-1_q13_0_all"  />
<polygon points="319,40 359,40 364,35 359,30 319,30 319,40 " style="fill:white; stroke-width:1; stroke:black; " description="&lt;b&gt;ctg62_28&lt;/b&gt;&lt;br&gt;ctg62 28&lt;br&gt;Location: 24231 - 25887" locus_tag="ctg62_28" class="clusterblast-orf" id="knownclusterblast-1_q14_0_all"  />
<polygon points="364,40 364,40 369,35 364,30 364,30 364,40 " style="fill:white; stroke-width:1; stroke:black; " description="&lt;b&gt;ctg62_29&lt;/b&gt;&lt;br&gt;ctg62 29&lt;br&gt;Location: 25889 - 26078" locus_tag="ctg62_29" class="clusterblast-orf" id="knownclusterblast-1_q15_0_all"  />
<polygon points="373,40 401,40 406,35 401,30 373,30 373,40 " style="fill:white; stroke-width:1; stroke:black; " description="&lt;b&gt;ctg62_30&lt;/b&gt;&lt;br&gt;ctg62 30&lt;br&gt;Location: 26195 - 27428" locus_tag="ctg62_30" class="clusterblast-orf" id="knownclusterblast-1_q16_0_all"  />
<polygon points="405,40 412,40 417,35 412,30 405,30 405,40 " style="fill:white; stroke-width:1; stroke:black; " description="&lt;b&gt;ctg62_31&lt;/b&gt;&lt;br&gt;ctg62 31&lt;br&gt;Location: 27397 - 27820" locus_tag="ctg62_31" class="clusterblast-orf" id="knownclusterblast-1_q17_0_all"  />
<polygon points="416,40 429,40 434,35 429,30 416,30 416,40 " style="fill:white; stroke-width:1; stroke:black; " description="&lt;b&gt;ctg62_32&lt;/b&gt;&lt;br&gt;ctg62 32&lt;br&gt;Location: 27800 - 28442" locus_tag="ctg62_32" class="clusterblast-orf" id="knownclusterblast-1_q18_0_all"  />
<polygon points="434,35 439,30 466,30 466,40 439,40 434,35 " style="fill:white; stroke-width:1; stroke:black; " description="&lt;b&gt;ctg62_33&lt;/b&gt;&lt;br&gt;ctg62 33&lt;br&gt;Location: 28454 - 29639" locus_tag="ctg62_33" class="clusterblast-orf" id="knownclusterblast-1_q19_0_all"  />
<polygon points="466,35 471,30 511,30 511,40 471,40 466,35 " style="fill:white; stroke-width:1; stroke:black; " description="&lt;b&gt;ctg62_34&lt;/b&gt;&lt;br&gt;ctg62 34&lt;br&gt;Location: 29644 - 31279" locus_tag="ctg62_34" class="clusterblast-orf" id="knownclusterblast-1_q20_0_all"  />
<polygon points="511,35 516,30 517,30 517,40 516,40 511,35 " style="fill:#d81515; stroke-width:1; stroke:black; " description="&lt;b&gt;ctg62_35&lt;/b&gt;&lt;br&gt;ctg62 35&lt;br&gt;Location: 31275 - 31515" locus_tag="ctg62_35" class="clusterblast-orf" id="knownclusterblast-1_q21_0_all"  />
<polygon points="517,35 522,30 531,30 531,40 522,40 517,35 " style="fill:#15d815; stroke-width:1; stroke:black; " description="&lt;b&gt;ctg62_36&lt;/b&gt;&lt;br&gt;ctg62 36&lt;br&gt;Location: 31517 - 32015" locus_tag="ctg62_36" class="clusterblast-orf" id="knownclusterblast-1_q22_0_all"  />
<polygon points="531,35 536,30 560,30 560,40 536,40 531,35 " style="fill:#1515d8; stroke-width:1; stroke:black; " description="&lt;b&gt;ctg62_37&lt;/b&gt;&lt;br&gt;ctg62 37&lt;br&gt;Location: 32014 - 33091" locus_tag="ctg62_37" class="clusterblast-orf" id="knownclusterblast-1_q23_0_all"  />
<polygon points="560,35 565,30 573,30 573,40 565,40 560,35 " style="fill:white; stroke-width:1; stroke:black; " description="&lt;b&gt;ctg62_38&lt;/b&gt;&lt;br&gt;ctg62 38&lt;br&gt;Location: 33090 - 33564" locus_tag="ctg62_38" class="clusterblast-orf" id="knownclusterblast-1_q24_0_all"  />
<polygon points="575,40 586,40 591,35 586,30 575,30 575,40 " style="fill:white; stroke-width:1; stroke:black; " description="&lt;b&gt;ctg62_39&lt;/b&gt;&lt;br&gt;ctg62 39&lt;br&gt;Location: 33651 - 34248" locus_tag="ctg62_39" class="clusterblast-orf" id="knownclusterblast-1_q25_0_all"  />
<polygon points="596,40 600,35 596,30 596,40 " style="fill:white; stroke-width:1; stroke:black; " description="&lt;b&gt;ctg62_40&lt;/b&gt;&lt;br&gt;ctg62 40&lt;br&gt;Location: 34403 - 34550" locus_tag="ctg62_40" class="clusterblast-orf" id="knownclusterblast-1_q26_0_all"  />
<polygon points="601,40 609,40 614,35 609,30 601,30 601,40 " style="fill:white; stroke-width:1; stroke:black; " description="&lt;b&gt;ctg62_41&lt;/b&gt;&lt;br&gt;ctg62 41&lt;br&gt;Location: 34614 - 35079" locus_tag="ctg62_41" class="clusterblast-orf" id="knownclusterblast-1_q27_0_all"  />
<polygon points="614,35 619,30 631,30 631,40 619,40 614,35 " style="fill:white; stroke-width:1; stroke:black; " description="&lt;b&gt;ctg62_42&lt;/b&gt;&lt;br&gt;ctg62 42&lt;br&gt;Location: 35084 - 35714" locus_tag="ctg62_42" class="clusterblast-orf" id="knownclusterblast-1_q28_0_all"  />
<polygon points="635,40 653,40 658,35 653,30 635,30 635,40 " style="fill:white; stroke-width:1; stroke:black; " description="&lt;b&gt;ctg62_43&lt;/b&gt;&lt;br&gt;ctg62 43&lt;br&gt;Location: 35849 - 36683" locus_tag="ctg62_43" class="clusterblast-orf" id="knownclusterblast-1_q29_0_all"  />
<polygon points="657,35 662,30 698,30 698,40 662,40 657,35 " style="fill:white; stroke-width:1; stroke:black; " description="&lt;b&gt;ctg62_44&lt;/b&gt;&lt;br&gt;ctg62 44&lt;br&gt;Location: 36679 - 38161" locus_tag="ctg62_44" class="clusterblast-orf" id="knownclusterblast-1_q30_0_all"  />
<polygon points="700,35 705,30 725,30 725,40 705,40 700,35 " style="fill:white; stroke-width:1; stroke:black; " description="&lt;b&gt;ctg62_45&lt;/b&gt;&lt;br&gt;ctg62 45&lt;br&gt;Location: 38227 - 39148" locus_tag="ctg62_45" class="clusterblast-orf" id="knownclusterblast-1_q31_0_all"  />
<polygon points="725,40 775,40 780,35 775,30 725,30 725,40 " style="fill:white; stroke-width:1; stroke:black; " description="&lt;b&gt;ctg62_46&lt;/b&gt;&lt;br&gt;ctg62 46&lt;br&gt;Location: 39180 - 41181" locus_tag="ctg62_46" class="clusterblast-orf" id="knownclusterblast-1_q32_0_all"  />
</g>
<g label="BGC0000282" description="BGC0000282_c1: alkylresorcinol (66% of genes show similarity), Polyketide" class="clusterblast-cluster"  >
<text x="5" y="70" class="clusterblast-acc"  >
<a xlink:href="https://mibig.secondarymetabolites.org/go/BGC0000282/1" target="_blank">BGC0000282</a>: alkylresorcinol                                                                  (66% of genes show similarity), Polyketide</text>
<line x1="10" y1="85" x2="778.0" y2="85" style="stroke-width:1; stroke:grey; "  />
</g>
<g id="a1_000"  >
<polygon points="354,85 359,80 382,80 382,90 359,90 354,85 " style="fill:white; stroke-width:1; stroke:black; " description="&lt;b&gt;SGR_470&lt;/b&gt;&lt;br&gt;monooxygenase&lt;br&gt;Location: 1 - 1017" locus_tag="SGR_470" class="clusterblast-orf" id="knownclusterblast-1_all_1_1_0"  />
</g>
<g id="a1_001"  >
<polygon points="382,85 387,80 396,80 396,90 387,90 382,85 " style="fill:#15d815; stroke-width:1; stroke:black; " description="&lt;b&gt;SGR_471&lt;/b&gt;&lt;br&gt;methyltransferase&lt;br&gt;Location: 1014 - 1547&lt;br&gt;&lt;br&gt;&lt;b&gt;BlastP hit with ctg62_36&lt;/b&gt;&lt;br&gt;Percentage identity: 51&lt;br&gt;Percentage coverage: 101&lt;br&gt;BLAST bit score: 151&lt;br&gt;E-value: 7.24e-47" locus_tag="SGR_471" class="clusterblast-orf" id="knownclusterblast-1_all_1_1_1"  />
</g>
<g id="a1_002"  >
<polygon points="396,85 401,80 425,80 425,90 401,90 396,85 " style="fill:#1515d8; stroke-width:1; stroke:black; " description="&lt;b&gt;SGR_472&lt;/b&gt;&lt;br&gt;type-III PKS&lt;br&gt;Location: 1561 - 2613&lt;br&gt;&lt;br&gt;&lt;b&gt;BlastP hit with ctg62_37&lt;/b&gt;&lt;br&gt;Percentage identity: 47&lt;br&gt;Percentage coverage: 90&lt;br&gt;BLAST bit score: 278&lt;br&gt;E-value: 1.34e-91" locus_tag="SGR_472" class="clusterblast-orf" id="knownclusterblast-1_all_1_1_2"  />
</g>
<g label="BGC0001647" description="BGC0001647_c1: lagunapyrone A/lagunapyrone B/lagunapyrone C (22% of genes show similarity), Polyketide" class="clusterblast-cluster"  >
<text x="5" y="120" class="clusterblast-acc"  >
<a xlink:href="https://mibig.secondarymetabolites.org/go/BGC0001647/1" target="_blank">BGC0001647</a>: lagunapyrone A/lagunapyrone B/lagunapyrone C                                     (22% of genes show similarity), Polyketide</text>
<line x1="10" y1="135" x2="778.0" y2="135" style="stroke-width:1; stroke:grey; "  />
</g>
<g id="a1_000"  >
<polygon points="141,135 146,130 202,130 202,140 146,140 141,135 " style="fill:white; stroke-width:1; stroke:black; " description="&lt;b&gt;STBA_03870&lt;/b&gt;&lt;br&gt;Regulatory protein AfsR&lt;br&gt;Location: 1 - 2247" locus_tag="STBA_03870" class="clusterblast-orf" id="knownclusterblast-1_all_1_2_0"  />
</g>
<g id="a1_001"  >
<polygon points="206,135 211,130 220,130 220,140 211,140 206,135 " style="fill:#15d815; stroke-width:1; stroke:black; " description="&lt;b&gt;STBA_03880&lt;/b&gt;&lt;br&gt;putative protein-S-isoprenylcysteine methyltransferase&lt;br&gt;Location: 2391 - 2915&lt;br&gt;&lt;br&gt;&lt;b&gt;BlastP hit with ctg62_36&lt;/b&gt;&lt;br&gt;Percentage identity: 46&lt;br&gt;Percentage coverage: 102&lt;br&gt;BLAST bit score: 140&lt;br&gt;E-value: 1.62e-42" locus_tag="STBA_03880" class="clusterblast-orf" id="knownclusterblast-1_all_1_2_1"  />
</g>
<g id="a1_002"  >
<polygon points="220,135 225,130 249,130 249,140 225,140 220,135 " style="fill:#1515d8; stroke-width:1; stroke:black; " description="&lt;b&gt;STBA_03890&lt;/b&gt;&lt;br&gt;Alpha-pyrone synthesis polyketide synthase-like Pks11&lt;br&gt;Location: 2929 - 3981&lt;br&gt;&lt;br&gt;&lt;b&gt;BlastP hit with ctg62_37&lt;/b&gt;&lt;br&gt;Percentage identity: 46&lt;br&gt;Percentage coverage: 87&lt;br&gt;BLAST bit score: 248&lt;br&gt;E-value: 7.25e-80" locus_tag="STBA_03890" class="clusterblast-orf" id="knownclusterblast-1_all_1_2_2"  />
</g>
<g id="a1_003"  >
<polygon points="257,140 462,140 467,135 462,130 257,130 257,140 " style="fill:white; stroke-width:1; stroke:black; " description="&lt;b&gt;STBA_03900&lt;/b&gt;&lt;br&gt;Beta-ketoacyl-acyl-carrier-protein synthase I&lt;br&gt;Location: 4273 - 12006" locus_tag="STBA_03900" class="clusterblast-orf" id="knownclusterblast-1_all_1_2_3"  />
</g>
<g id="a1_004"  >
<polygon points="468,140 503,140 508,135 503,130 468,130 468,140 " style="fill:white; stroke-width:1; stroke:black; " description="&lt;b&gt;STBA_03920&lt;/b&gt;&lt;br&gt;tricarballylate dehydrogenase&lt;br&gt;Location: 12060 - 13532" locus_tag="STBA_03920" class="clusterblast-orf" id="knownclusterblast-1_all_1_2_4"  />
</g>
<g id="a1_005"  >
<polygon points="513,140 520,140 525,135 520,130 513,130 513,140 " style="fill:white; stroke-width:1; stroke:black; " description="&lt;b&gt;STBA_03930&lt;/b&gt;&lt;br&gt;alkylhydroperoxidase AhpD family core domain protein&lt;br&gt;Location: 13684 - 14157" locus_tag="STBA_03930" class="clusterblast-orf" id="knownclusterblast-1_all_1_2_5"  />
</g>
<g id="a1_006"  >
<polygon points="528,135 533,130 575,130 575,140 533,140 528,135 " style="fill:white; stroke-width:1; stroke:black; " description="&lt;b&gt;STBA_03940&lt;/b&gt;&lt;br&gt;FAD-linked oxidoreductase&lt;br&gt;Location: 14246 - 15988" locus_tag="STBA_03940" class="clusterblast-orf" id="knownclusterblast-1_all_1_2_6"  />
</g>
<g id="a1_007"  >
<polygon points="580,140 600,140 605,135 600,130 580,130 580,140 " style="fill:white; stroke-width:1; stroke:black; " description="&lt;b&gt;STBA_03950&lt;/b&gt;&lt;br&gt;Nodulation protein NolA&lt;br&gt;Location: 16175 - 17092" locus_tag="STBA_03950" class="clusterblast-orf" id="knownclusterblast-1_all_1_2_7"  />
</g>
<g id="a1_008"  >
<polygon points="609,140 633,140 638,135 633,130 609,130 609,140 " style="fill:white; stroke-width:1; stroke:black; " description="&lt;b&gt;STBA_03960&lt;/b&gt;&lt;br&gt;D-arabitol-phosphate dehydrogenase&lt;br&gt;Location: 17245 - 18309" locus_tag="STBA_03960" class="clusterblast-orf" id="knownclusterblast-1_all_1_2_8"  />
</g>
<g label="BGC0001831" description="BGC0001831_c1: alkylpyrone-407/alkylpyrone-393 (33% of genes show similarity), Polyketide" class="clusterblast-cluster"  >
<text x="5" y="170" class="clusterblast-acc"  >
<a xlink:href="https://mibig.secondarymetabolites.org/go/BGC0001831/1" target="_blank">BGC0001831</a>: alkylpyrone-407/alkylpyrone-393                                                  (33% of genes show similarity), Polyketide</text>
<line x1="10" y1="185" x2="778.0" y2="185" style="stroke-width:1; stroke:grey; "  />
</g>
<g id="a1_000"  >
<polygon points="306,185 311,180 341,180 341,190 311,190 306,185 " style="fill:white; stroke-width:1; stroke:black; " description="&lt;b&gt;MXAN_6634&lt;/b&gt;&lt;br&gt;conserved hypothetical protein&lt;br&gt;Location: 2 - 1276" locus_tag="MXAN_6634" class="clusterblast-orf" id="knownclusterblast-1_all_1_3_0"  />
</g>
<g id="a1_001"  >
<polygon points="340,185 345,180 370,180 370,190 345,190 340,185 " style="fill:white; stroke-width:1; stroke:black; " description="&lt;b&gt;MXAN_6635&lt;/b&gt;&lt;br&gt;monooxygenase, FAD-binding&lt;br&gt;Location: 1273 - 2370" locus_tag="MXAN_6635" class="clusterblast-orf" id="knownclusterblast-1_all_1_3_1"  />
</g>
<g id="a1_002"  >
<polygon points="373,185 378,180 421,180 421,190 378,190 373,185 " style="fill:white; stroke-width:1; stroke:black; " description="&lt;b&gt;MXAN_6636&lt;/b&gt;&lt;br&gt;AMP-binding protein&lt;br&gt;Location: 2452 - 4230" locus_tag="MXAN_6636" class="clusterblast-orf" id="knownclusterblast-1_all_1_3_2"  />
</g>
<g id="a1_003"  >
<polygon points="421,185 426,180 428,180 428,190 426,190 421,185 " style="fill:#d81515; stroke-width:1; stroke:black; " description="&lt;b&gt;MXAN_6637&lt;/b&gt;&lt;br&gt;acyl carrier protein&lt;br&gt;Location: 4227 - 4484&lt;br&gt;&lt;br&gt;&lt;b&gt;BlastP hit with ctg62_35&lt;/b&gt;&lt;br&gt;Percentage identity: 47&lt;br&gt;Percentage coverage: 65&lt;br&gt;BLAST bit score: 50&lt;br&gt;E-value: 1.13e-09" locus_tag="MXAN_6637" class="clusterblast-orf" id="knownclusterblast-1_all_1_3_3"  />
</g>
<g id="a1_004"  >
<polygon points="428,185 433,180 445,180 445,190 433,190 428,185 " style="fill:white; stroke-width:1; stroke:black; " description="&lt;b&gt;MXAN_6638&lt;/b&gt;&lt;br&gt;conserved hypothetical protein&lt;br&gt;Location: 4501 - 5133" locus_tag="MXAN_6638" class="clusterblast-orf" id="knownclusterblast-1_all_1_3_4"  />
</g>
<g id="a1_005"  >
<polygon points="444,185 449,180 473,180 473,190 449,190 444,185 " style="fill:#1515d8; stroke-width:1; stroke:black; " description="&lt;b&gt;MXAN_6639&lt;/b&gt;&lt;br&gt;chalcone/stilbene synthase family protein&lt;br&gt;Location: 5070 - 6152&lt;br&gt;&lt;br&gt;&lt;b&gt;BlastP hit with ctg62_37&lt;/b&gt;&lt;br&gt;Percentage identity: 49&lt;br&gt;Percentage coverage: 101&lt;br&gt;BLAST bit score: 313&lt;br&gt;E-value: 3.41e-105" locus_tag="MXAN_6639" class="clusterblast-orf" id="knownclusterblast-1_all_1_3_5"  />
</g>
</svg>
