<svg xmlns="http://www.w3.org/2000/svg" xmlns:xlink="http://www.w3.org/1999/xlink" version="1.1" x="0" y="0" height="50" width="800" viewBox="0 0 800 50" preserveAspectRatio="none"  >
<g label="Query sequence" class="clusterblast-cluster"  >
<text x="5" y="20" class="clusterblast-acc"  >
Query sequence</text>
<line x1="10" y1="35" x2="778.0" y2="35" style="stroke-width:1; stroke:grey; "  />
<polygon points="0,40 15,40 20,35 15,30 0,30 0,40 " style="fill:white; stroke-width:1; stroke:black; " description="&lt;b&gt;ctg52_19&lt;/b&gt;&lt;br&gt;ctg52 19&lt;br&gt;Location: 16553 - 17675" locus_tag="ctg52_19" class="clusterblast-orf" id="knownclusterblast-1_q0_0_all"  />
<polygon points="20,40 27,40 32,35 27,30 20,30 20,40 " style="fill:white; stroke-width:1; stroke:black; " description="&lt;b&gt;ctg52_20&lt;/b&gt;&lt;br&gt;ctg52 20&lt;br&gt;Location: 17690 - 18371" locus_tag="ctg52_20" class="clusterblast-orf" id="knownclusterblast-1_q1_0_all"  />
<polygon points="34,40 38,35 34,30 34,40 " style="fill:white; stroke-width:1; stroke:black; " description="&lt;b&gt;ctg52_21&lt;/b&gt;&lt;br&gt;ctg52 21&lt;br&gt;Location: 18463 - 18694" locus_tag="ctg52_21" class="clusterblast-orf" id="knownclusterblast-1_q2_0_all"  />
<polygon points="39,35 44,30 62,30 62,40 44,40 39,35 " style="fill:white; stroke-width:1; stroke:black; " description="&lt;b&gt;ctg52_22&lt;/b&gt;&lt;br&gt;ctg52 22&lt;br&gt;Location: 18753 - 20067" locus_tag="ctg52_22" class="clusterblast-orf" id="knownclusterblast-1_q3_0_all"  />
<polygon points="62,35 67,30 78,30 78,40 67,40 62,35 " style="fill:white; stroke-width:1; stroke:black; " description="&lt;b&gt;ctg52_23&lt;/b&gt;&lt;br&gt;ctg52 23&lt;br&gt;Location: 20059 - 20962" locus_tag="ctg52_23" class="clusterblast-orf" id="knownclusterblast-1_q4_0_all"  />
<polygon points="81,35 86,30 91,30 91,40 86,40 81,35 " style="fill:white; stroke-width:1; stroke:black; " description="&lt;b&gt;ctg52_24&lt;/b&gt;&lt;br&gt;ctg52 24&lt;br&gt;Location: 21103 - 21676" locus_tag="ctg52_24" class="clusterblast-orf" id="knownclusterblast-1_q5_0_all"  />
<polygon points="94,35 99,30 103,30 103,40 99,40 94,35 " style="fill:white; stroke-width:1; stroke:black; " description="&lt;b&gt;ctg52_25&lt;/b&gt;&lt;br&gt;ctg52 25&lt;br&gt;Location: 21820 - 22327" locus_tag="ctg52_25" class="clusterblast-orf" id="knownclusterblast-1_q6_0_all"  />
<polygon points="107,35 112,30 117,30 117,40 112,40 107,35 " style="fill:white; stroke-width:1; stroke:black; " description="&lt;b&gt;ctg52_26&lt;/b&gt;&lt;br&gt;ctg52 26&lt;br&gt;Location: 22590 - 23127" locus_tag="ctg52_26" class="clusterblast-orf" id="knownclusterblast-1_q7_0_all"  />
<polygon points="121,40 152,40 157,35 152,30 121,30 121,40 " style="fill:white; stroke-width:1; stroke:black; " description="&lt;b&gt;ctg52_27&lt;/b&gt;&lt;br&gt;ctg52 27&lt;br&gt;Location: 23338 - 25357" locus_tag="ctg52_27" class="clusterblast-orf" id="knownclusterblast-1_q8_0_all"  />
<polygon points="156,40 172,40 177,35 172,30 156,30 156,40 " style="fill:white; stroke-width:1; stroke:black; " description="&lt;b&gt;ctg52_28&lt;/b&gt;&lt;br&gt;ctg52 28&lt;br&gt;Location: 25353 - 26502" locus_tag="ctg52_28" class="clusterblast-orf" id="knownclusterblast-1_q9_0_all"  />
<polygon points="177,40 178,40 183,35 178,30 177,30 177,40 " style="fill:white; stroke-width:1; stroke:black; " description="&lt;b&gt;ctg52_29&lt;/b&gt;&lt;br&gt;ctg52 29&lt;br&gt;Location: 26509 - 26860" locus_tag="ctg52_29" class="clusterblast-orf" id="knownclusterblast-1_q10_0_all"  />
<polygon points="183,40 184,40 189,35 184,30 183,30 183,40 " style="fill:white; stroke-width:1; stroke:black; " description="&lt;b&gt;ctg52_30&lt;/b&gt;&lt;br&gt;ctg52 30&lt;br&gt;Location: 26860 - 27199" locus_tag="ctg52_30" class="clusterblast-orf" id="knownclusterblast-1_q11_0_all"  />
<polygon points="190,35 195,30 203,30 203,40 195,40 190,35 " style="fill:white; stroke-width:1; stroke:black; " description="&lt;b&gt;ctg52_31&lt;/b&gt;&lt;br&gt;ctg52 31&lt;br&gt;Location: 27242 - 27965" locus_tag="ctg52_31" class="clusterblast-orf" id="knownclusterblast-1_q12_0_all"  />
<polygon points="205,40 212,40 217,35 212,30 205,30 205,40 " style="fill:white; stroke-width:1; stroke:black; " description="&lt;b&gt;ctg52_32&lt;/b&gt;&lt;br&gt;ctg52 32&lt;br&gt;Location: 28065 - 28776" locus_tag="ctg52_32" class="clusterblast-orf" id="knownclusterblast-1_q13_0_all"  />
<polygon points="219,40 221,40 226,35 221,30 219,30 219,40 " style="fill:white; stroke-width:1; stroke:black; " description="&lt;b&gt;ctg52_33&lt;/b&gt;&lt;br&gt;ctg52 33&lt;br&gt;Location: 28867 - 29236" locus_tag="ctg52_33" class="clusterblast-orf" id="knownclusterblast-1_q14_0_all"  />
<polygon points="228,40 234,40 239,35 234,30 228,30 228,40 " style="fill:white; stroke-width:1; stroke:black; " description="&lt;b&gt;ctg52_34&lt;/b&gt;&lt;br&gt;ctg52 34&lt;br&gt;Location: 29355 - 29973" locus_tag="ctg52_34" class="clusterblast-orf" id="knownclusterblast-1_q15_0_all"  />
<polygon points="245,40 252,40 257,35 252,30 245,30 245,40 " style="fill:white; stroke-width:1; stroke:black; " description="&lt;b&gt;ctg52_35&lt;/b&gt;&lt;br&gt;ctg52 35&lt;br&gt;Location: 30332 - 31019" locus_tag="ctg52_35" class="clusterblast-orf" id="knownclusterblast-1_q16_0_all"  />
<polygon points="257,40 269,40 274,35 269,30 257,30 257,40 " style="fill:white; stroke-width:1; stroke:black; " description="&lt;b&gt;ctg52_36&lt;/b&gt;&lt;br&gt;ctg52 36&lt;br&gt;Location: 31018 - 31975" locus_tag="ctg52_36" class="clusterblast-orf" id="knownclusterblast-1_q17_0_all"  />
<polygon points="282,40 287,40 292,35 287,30 282,30 282,40 " style="fill:white; stroke-width:1; stroke:black; " description="&lt;b&gt;ctg52_37&lt;/b&gt;&lt;br&gt;ctg52 37&lt;br&gt;Location: 32383 - 32959" locus_tag="ctg52_37" class="clusterblast-orf" id="knownclusterblast-1_q18_0_all"  />
<polygon points="292,40 302,40 307,35 302,30 292,30 292,40 " style="fill:white; stroke-width:1; stroke:black; " description="&lt;b&gt;ctg52_38&lt;/b&gt;&lt;br&gt;ctg52 38&lt;br&gt;Location: 32988 - 33795" locus_tag="ctg52_38" class="clusterblast-orf" id="knownclusterblast-1_q19_0_all"  />
<polygon points="306,35 311,30 331,30 331,40 311,40 306,35 " style="fill:white; stroke-width:1; stroke:black; " description="&lt;b&gt;ctg52_39&lt;/b&gt;&lt;br&gt;ctg52 39&lt;br&gt;Location: 33774 - 35154" locus_tag="ctg52_39" class="clusterblast-orf" id="knownclusterblast-1_q20_0_all"  />
<polygon points="332,35 337,30 441,30 441,40 337,40 332,35 " style="fill:white; stroke-width:1; stroke:black; " description="&lt;b&gt;ctg52_40&lt;/b&gt;&lt;br&gt;ctg52 40&lt;br&gt;Location: 35198 - 41306" locus_tag="ctg52_40" class="clusterblast-orf" id="knownclusterblast-1_q21_0_all"  />
<polygon points="443,40 517,40 522,35 517,30 443,30 443,40 " style="fill:white; stroke-width:1; stroke:black; " description="&lt;b&gt;ctg52_41&lt;/b&gt;&lt;br&gt;ctg52 41&lt;br&gt;Location: 41452 - 45886" locus_tag="ctg52_41" class="clusterblast-orf" id="knownclusterblast-1_q22_0_all"  />
<polygon points="523,40 526,35 523,30 523,40 " style="fill:white; stroke-width:1; stroke:black; " description="&lt;b&gt;ctg52_42&lt;/b&gt;&lt;br&gt;ctg52 42&lt;br&gt;Location: 45906 - 46083" locus_tag="ctg52_42" class="clusterblast-orf" id="knownclusterblast-1_q23_0_all"  />
<polygon points="528,40 544,40 549,35 544,30 528,30 528,40 " style="fill:white; stroke-width:1; stroke:black; " description="&lt;b&gt;ctg52_43&lt;/b&gt;&lt;br&gt;ctg52 43&lt;br&gt;Location: 46188 - 47400" locus_tag="ctg52_43" class="clusterblast-orf" id="knownclusterblast-1_q24_0_all"  />
<polygon points="549,35 554,30 564,30 564,40 554,40 549,35 " style="fill:white; stroke-width:1; stroke:black; " description="&lt;b&gt;ctg52_44&lt;/b&gt;&lt;br&gt;ctg52 44&lt;br&gt;Location: 47362 - 48256" locus_tag="ctg52_44" class="clusterblast-orf" id="knownclusterblast-1_q25_0_all"  />
<polygon points="566,40 570,35 566,30 566,40 " style="fill:white; stroke-width:1; stroke:black; " description="&lt;b&gt;ctg52_45&lt;/b&gt;&lt;br&gt;ctg52 45&lt;br&gt;Location: 48349 - 48565" locus_tag="ctg52_45" class="clusterblast-orf" id="knownclusterblast-1_q26_0_all"  />
<polygon points="571,35 576,30 587,30 587,40 576,40 571,35 " style="fill:white; stroke-width:1; stroke:black; " description="&lt;b&gt;ctg52_46&lt;/b&gt;&lt;br&gt;ctg52 46&lt;br&gt;Location: 48634 - 49546" locus_tag="ctg52_46" class="clusterblast-orf" id="knownclusterblast-1_q27_0_all"  />
<polygon points="588,40 622,40 627,35 622,30 588,30 588,40 " style="fill:white; stroke-width:1; stroke:black; " description="&lt;b&gt;ctg52_47&lt;/b&gt;&lt;br&gt;ctg52 47&lt;br&gt;Location: 49575 - 51777" locus_tag="ctg52_47" class="clusterblast-orf" id="knownclusterblast-1_q28_0_all"  />
<polygon points="627,35 632,30 642,30 642,40 632,40 627,35 " style="fill:white; stroke-width:1; stroke:black; " description="&lt;b&gt;ctg52_48&lt;/b&gt;&lt;br&gt;ctg52 48&lt;br&gt;Location: 51773 - 52598" locus_tag="ctg52_48" class="clusterblast-orf" id="knownclusterblast-1_q29_0_all"  />
<polygon points="642,35 647,30 657,30 657,40 647,40 642,35 " style="fill:white; stroke-width:1; stroke:black; " description="&lt;b&gt;ctg52_49&lt;/b&gt;&lt;br&gt;ctg52 49&lt;br&gt;Location: 52594 - 53428" locus_tag="ctg52_49" class="clusterblast-orf" id="knownclusterblast-1_q30_0_all"  />
<polygon points="657,35 662,30 680,30 680,40 662,40 657,35 " style="fill:white; stroke-width:1; stroke:black; " description="&lt;b&gt;ctg52_50&lt;/b&gt;&lt;br&gt;ctg52 50&lt;br&gt;Location: 53464 - 54724" locus_tag="ctg52_50" class="clusterblast-orf" id="knownclusterblast-1_q31_0_all"  />
<polygon points="680,35 685,30 688,30 688,40 685,40 680,35 " style="fill:white; stroke-width:1; stroke:black; " description="&lt;b&gt;ctg52_51&lt;/b&gt;&lt;br&gt;ctg52 51&lt;br&gt;Location: 54720 - 55191" locus_tag="ctg52_51" class="clusterblast-orf" id="knownclusterblast-1_q32_0_all"  />
<polygon points="690,40 731,40 736,35 731,30 690,30 690,40 " style="fill:white; stroke-width:1; stroke:black; " description="&lt;b&gt;ctg52_52&lt;/b&gt;&lt;br&gt;ctg52 52&lt;br&gt;Location: 55303 - 57904" locus_tag="ctg52_52" class="clusterblast-orf" id="knownclusterblast-1_q33_0_all"  />
<polygon points="737,35 742,30 761,30 761,40 742,40 737,35 " style="fill:white; stroke-width:1; stroke:black; " description="&lt;b&gt;ctg52_53&lt;/b&gt;&lt;br&gt;ctg52 53&lt;br&gt;Location: 57953 - 59294" locus_tag="ctg52_53" class="clusterblast-orf" id="knownclusterblast-1_q34_0_all"  />
<polygon points="762,40 762,40 767,35 762,30 762,30 762,40 " style="fill:white; stroke-width:1; stroke:black; " description="&lt;b&gt;ctg52_54&lt;/b&gt;&lt;br&gt;ctg52 54&lt;br&gt;Location: 59318 - 59618" locus_tag="ctg52_54" class="clusterblast-orf" id="knownclusterblast-1_q35_0_all"  />
<polygon points="767,40 771,40 776,35 771,30 767,30 767,40 " style="fill:white; stroke-width:1; stroke:black; " description="&lt;b&gt;ctg52_55&lt;/b&gt;&lt;br&gt;ctg52 55&lt;br&gt;Location: 59619 - 60120" locus_tag="ctg52_55" class="clusterblast-orf" id="knownclusterblast-1_q36_0_all"  />
<polygon points="777,35 780,30 780,40 777,35 " style="fill:white; stroke-width:1; stroke:black; " description="&lt;b&gt;ctg52_56&lt;/b&gt;&lt;br&gt;ctg52 56&lt;br&gt;Location: 60167 - 60335" locus_tag="ctg52_56" class="clusterblast-orf" id="knownclusterblast-1_q37_0_all"  />
</g>
</svg>
