<svg xmlns="http://www.w3.org/2000/svg" xmlns:xlink="http://www.w3.org/1999/xlink" version="1.1" x="0" y="0" height="50" width="800" viewBox="0 0 800 50" preserveAspectRatio="none"  >
<g label="Query sequence" class="clusterblast-cluster"  >
<text x="5" y="20" class="clusterblast-acc"  >
Query sequence</text>
<line x1="10" y1="35" x2="778.0" y2="35" style="stroke-width:1; stroke:grey; "  />
<polygon points="0,35 5,30 82,30 82,40 5,40 0,35 " style="fill:white; stroke-width:1; stroke:black; " description="&lt;b&gt;ctg8_206&lt;/b&gt;&lt;br&gt;ctg8 206&lt;br&gt;Location: 221944 - 223813" locus_tag="ctg8_206" class="clusterblast-orf" id="knownclusterblast-2_q0_0_all"  />
<polygon points="82,35 87,30 129,30 129,40 87,40 82,35 " style="fill:white; stroke-width:1; stroke:black; " description="&lt;b&gt;ctg8_207&lt;/b&gt;&lt;br&gt;ctg8 207&lt;br&gt;Location: 223813 - 224884" locus_tag="ctg8_207" class="clusterblast-orf" id="knownclusterblast-2_q1_0_all"  />
<polygon points="130,35 135,30 186,30 186,40 135,40 130,35 " style="fill:white; stroke-width:1; stroke:black; " description="&lt;b&gt;ctg8_208&lt;/b&gt;&lt;br&gt;ctg8 208&lt;br&gt;Location: 224889 - 226176" locus_tag="ctg8_208" class="clusterblast-orf" id="knownclusterblast-2_q2_0_all"  />
<polygon points="187,35 192,30 210,30 210,40 192,40 187,35 " style="fill:white; stroke-width:1; stroke:black; " description="&lt;b&gt;ctg8_209&lt;/b&gt;&lt;br&gt;ctg8 209&lt;br&gt;Location: 226186 - 226723" locus_tag="ctg8_209" class="clusterblast-orf" id="knownclusterblast-2_q3_0_all"  />
<polygon points="210,35 215,30 228,30 228,40 215,40 210,35 " style="fill:white; stroke-width:1; stroke:black; " description="&lt;b&gt;ctg8_210&lt;/b&gt;&lt;br&gt;ctg8 210&lt;br&gt;Location: 226719 - 227121" locus_tag="ctg8_210" class="clusterblast-orf" id="knownclusterblast-2_q4_0_all"  />
<polygon points="231,40 246,40 251,35 246,30 231,30 231,40 " style="fill:white; stroke-width:1; stroke:black; " description="&lt;b&gt;ctg8_211&lt;/b&gt;&lt;br&gt;ctg8 211&lt;br&gt;Location: 227187 - 227652" locus_tag="ctg8_211" class="clusterblast-orf" id="knownclusterblast-2_q5_0_all"  />
<polygon points="251,35 256,30 263,30 263,40 256,40 251,35 " style="fill:white; stroke-width:1; stroke:black; " description="&lt;b&gt;ctg8_212&lt;/b&gt;&lt;br&gt;ctg8 212&lt;br&gt;Location: 227656 - 227926" locus_tag="ctg8_212" class="clusterblast-orf" id="knownclusterblast-2_q6_0_all"  />
<polygon points="266,35 271,30 303,30 303,40 271,40 266,35 " style="fill:white; stroke-width:1; stroke:black; " description="&lt;b&gt;ctg8_213&lt;/b&gt;&lt;br&gt;ctg8 213&lt;br&gt;Location: 227987 - 228833" locus_tag="ctg8_213" class="clusterblast-orf" id="knownclusterblast-2_q7_0_all"  />
<polygon points="314,35 319,30 344,30 344,40 319,40 314,35 " style="fill:white; stroke-width:1; stroke:black; " description="&lt;b&gt;ctg8_214&lt;/b&gt;&lt;br&gt;ctg8 214&lt;br&gt;Location: 229084 - 229750" locus_tag="ctg8_214" class="clusterblast-orf" id="knownclusterblast-2_q8_0_all"  />
<polygon points="343,35 348,30 384,30 384,40 348,40 343,35 " style="fill:white; stroke-width:1; stroke:black; " description="&lt;b&gt;ctg8_215&lt;/b&gt;&lt;br&gt;ctg8 215&lt;br&gt;Location: 229746 - 230661" locus_tag="ctg8_215" class="clusterblast-orf" id="knownclusterblast-2_q9_0_all"  />
<polygon points="388,40 431,40 436,35 431,30 388,30 388,40 " style="fill:white; stroke-width:1; stroke:black; " description="&lt;b&gt;ctg8_216&lt;/b&gt;&lt;br&gt;ctg8 216&lt;br&gt;Location: 230757 - 231843" locus_tag="ctg8_216" class="clusterblast-orf" id="knownclusterblast-2_q10_0_all"  />
<polygon points="435,40 442,40 447,35 442,30 435,30 435,40 " style="fill:white; stroke-width:1; stroke:black; " description="&lt;b&gt;ctg8_217&lt;/b&gt;&lt;br&gt;ctg8 217&lt;br&gt;Location: 231835 - 232105" locus_tag="ctg8_217" class="clusterblast-orf" id="knownclusterblast-2_q11_0_all"  />
<polygon points="447,40 479,40 484,35 479,30 447,30 447,40 " style="fill:white; stroke-width:1; stroke:black; " description="&lt;b&gt;ctg8_218&lt;/b&gt;&lt;br&gt;ctg8 218&lt;br&gt;Location: 232104 - 232932" locus_tag="ctg8_218" class="clusterblast-orf" id="knownclusterblast-2_q12_0_all"  />
<polygon points="484,40 553,40 558,35 553,30 484,30 484,40 " style="fill:white; stroke-width:1; stroke:black; " description="&lt;b&gt;ctg8_219&lt;/b&gt;&lt;br&gt;ctg8 219&lt;br&gt;Location: 232928 - 234617" locus_tag="ctg8_219" class="clusterblast-orf" id="knownclusterblast-2_q13_0_all"  />
<polygon points="558,40 558,40 563,35 558,30 558,30 558,40 " style="fill:white; stroke-width:1; stroke:black; " description="&lt;b&gt;ctg8_220&lt;/b&gt;&lt;br&gt;ctg8 220&lt;br&gt;Location: 234626 - 234722" locus_tag="ctg8_220" class="clusterblast-orf" id="knownclusterblast-2_q14_0_all"  />
<polygon points="582,40 590,40 595,35 590,30 582,30 582,40 " style="fill:white; stroke-width:1; stroke:black; " description="&lt;b&gt;ctg8_221&lt;/b&gt;&lt;br&gt;ctg8 221&lt;br&gt;Location: 235154 - 235451" locus_tag="ctg8_221" class="clusterblast-orf" id="knownclusterblast-2_q15_0_all"  />
<polygon points="599,40 603,35 599,30 599,40 " style="fill:white; stroke-width:1; stroke:black; " description="&lt;b&gt;ctg8_222&lt;/b&gt;&lt;br&gt;ctg8 222&lt;br&gt;Location: 235539 - 235632" locus_tag="ctg8_222" class="clusterblast-orf" id="knownclusterblast-2_q16_0_all"  />
<polygon points="606,35 611,30 625,30 625,40 611,40 606,35 " style="fill:white; stroke-width:1; stroke:black; " description="&lt;b&gt;ctg8_223&lt;/b&gt;&lt;br&gt;ctg8 223&lt;br&gt;Location: 235717 - 236143" locus_tag="ctg8_223" class="clusterblast-orf" id="knownclusterblast-2_q17_0_all"  />
<polygon points="631,40 685,40 690,35 685,30 631,30 631,40 " style="fill:white; stroke-width:1; stroke:black; " description="&lt;b&gt;ctg8_224&lt;/b&gt;&lt;br&gt;ctg8 224&lt;br&gt;Location: 236282 - 237623" locus_tag="ctg8_224" class="clusterblast-orf" id="knownclusterblast-2_q18_0_all"  />
<polygon points="690,40 751,40 756,35 751,30 690,30 690,40 " style="fill:white; stroke-width:1; stroke:black; " description="&lt;b&gt;ctg8_225&lt;/b&gt;&lt;br&gt;ctg8 225&lt;br&gt;Location: 237619 - 239107" locus_tag="ctg8_225" class="clusterblast-orf" id="knownclusterblast-2_q19_0_all"  />
<polygon points="756,35 761,30 780,30 780,40 761,40 756,35 " style="fill:white; stroke-width:1; stroke:black; " description="&lt;b&gt;ctg8_226&lt;/b&gt;&lt;br&gt;ctg8 226&lt;br&gt;Location: 239119 - 239659" locus_tag="ctg8_226" class="clusterblast-orf" id="knownclusterblast-2_q20_0_all"  />
</g>
</svg>
