<svg xmlns="http://www.w3.org/2000/svg" xmlns:xlink="http://www.w3.org/1999/xlink" version="1.1" x="0" y="0" height="230" width="800" viewBox="0 0 800 230" preserveAspectRatio="none"  >
<g label="Query sequence" class="clusterblast-cluster"  >
<text x="5" y="20" class="clusterblast-acc"  >
Query sequence</text>
<line x1="10" y1="35" x2="778.0" y2="35" style="stroke-width:1; stroke:grey; "  />
<polygon points="0,35 5,30 7,30 7,40 5,40 0,35 " style="fill:white; stroke-width:1; stroke:black; " description="&lt;b&gt;ctg7_203&lt;/b&gt;&lt;br&gt;ctg7 203&lt;br&gt;Location: 215753 - 216143" locus_tag="ctg7_203" class="clusterblast-orf" id="dummy-1_q0_0_all"  />
<polygon points="13,35 18,30 18,30 18,40 18,40 13,35 " style="fill:white; stroke-width:1; stroke:black; " description="&lt;b&gt;ctg7_204&lt;/b&gt;&lt;br&gt;ctg7 204&lt;br&gt;Location: 216460 - 216736" locus_tag="ctg7_204" class="clusterblast-orf" id="dummy-1_q1_0_all"  />
<polygon points="24,35 29,30 81,30 81,40 29,40 24,35 " style="fill:white; stroke-width:1; stroke:black; " description="&lt;b&gt;ctg7_205&lt;/b&gt;&lt;br&gt;ctg7 205&lt;br&gt;Location: 217100 - 220163" locus_tag="ctg7_205" class="clusterblast-orf" id="dummy-1_q2_0_all"  />
<polygon points="82,40 136,40 141,35 136,30 82,30 82,40 " style="fill:white; stroke-width:1; stroke:black; " description="&lt;b&gt;ctg7_206&lt;/b&gt;&lt;br&gt;ctg7 206&lt;br&gt;Location: 220206 - 223422" locus_tag="ctg7_206" class="clusterblast-orf" id="dummy-1_q3_0_all"  />
<polygon points="148,35 153,30 192,30 192,40 153,40 148,35 " style="fill:white; stroke-width:1; stroke:black; " description="&lt;b&gt;ctg7_207&lt;/b&gt;&lt;br&gt;ctg7 207&lt;br&gt;Location: 223782 - 226185" locus_tag="ctg7_207" class="clusterblast-orf" id="dummy-1_q4_0_all"  />
<polygon points="198,40 199,40 204,35 199,30 198,30 198,40 " style="fill:white; stroke-width:1; stroke:black; " description="&lt;b&gt;ctg7_208&lt;/b&gt;&lt;br&gt;ctg7 208&lt;br&gt;Location: 226519 - 226852" locus_tag="ctg7_208" class="clusterblast-orf" id="dummy-1_q5_0_all"  />
<polygon points="201,35 206,30 211,30 211,40 206,40 201,35 " style="fill:white; stroke-width:1; stroke:black; " description="&lt;b&gt;ctg7_209&lt;/b&gt;&lt;br&gt;ctg7 209&lt;br&gt;Location: 226696 - 227224" locus_tag="ctg7_209" class="clusterblast-orf" id="dummy-1_q6_0_all"  />
<polygon points="213,35 218,30 237,30 237,40 218,40 213,35 " style="fill:white; stroke-width:1; stroke:black; " description="&lt;b&gt;ctg7_210&lt;/b&gt;&lt;br&gt;ctg7 210&lt;br&gt;Location: 227355 - 228624" locus_tag="ctg7_210" class="clusterblast-orf" id="dummy-1_q7_0_all"  />
<polygon points="238,40 252,40 257,35 252,30 238,30 238,40 " style="fill:white; stroke-width:1; stroke:black; " description="&lt;b&gt;ctg7_211&lt;/b&gt;&lt;br&gt;ctg7 211&lt;br&gt;Location: 228676 - 229702" locus_tag="ctg7_211" class="clusterblast-orf" id="dummy-1_q8_0_all"  />
<polygon points="257,40 270,40 275,35 270,30 257,30 257,40 " style="fill:white; stroke-width:1; stroke:black; " description="&lt;b&gt;ctg7_212&lt;/b&gt;&lt;br&gt;ctg7 212&lt;br&gt;Location: 229698 - 230697" locus_tag="ctg7_212" class="clusterblast-orf" id="dummy-1_q9_0_all"  />
<polygon points="273,35 278,30 280,30 280,40 278,40 273,35 " style="fill:white; stroke-width:1; stroke:black; " description="&lt;b&gt;ctg7_213&lt;/b&gt;&lt;br&gt;ctg7 213&lt;br&gt;Location: 230617 - 230998" locus_tag="ctg7_213" class="clusterblast-orf" id="dummy-1_q10_0_all"  />
<polygon points="280,35 285,30 295,30 295,40 285,40 280,35 " style="fill:white; stroke-width:1; stroke:black; " description="&lt;b&gt;ctg7_214&lt;/b&gt;&lt;br&gt;ctg7 214&lt;br&gt;Location: 230987 - 231794" locus_tag="ctg7_214" class="clusterblast-orf" id="dummy-1_q11_0_all"  />
<polygon points="298,40 302,40 307,35 302,30 298,30 298,40 " style="fill:white; stroke-width:1; stroke:black; " description="&lt;b&gt;ctg7_215&lt;/b&gt;&lt;br&gt;ctg7 215&lt;br&gt;Location: 231938 - 232436" locus_tag="ctg7_215" class="clusterblast-orf" id="dummy-1_q12_0_all"  />
<polygon points="310,35 315,30 337,30 337,40 315,40 310,35 " style="fill:white; stroke-width:1; stroke:black; " description="&lt;b&gt;ctg7_216&lt;/b&gt;&lt;br&gt;ctg7 216&lt;br&gt;Location: 232606 - 234046" locus_tag="ctg7_216" class="clusterblast-orf" id="dummy-1_q13_0_all"  />
<polygon points="340,40 345,40 350,35 345,30 340,30 340,40 " style="fill:white; stroke-width:1; stroke:black; " description="&lt;b&gt;ctg7_217&lt;/b&gt;&lt;br&gt;ctg7 217&lt;br&gt;Location: 234219 - 234753" locus_tag="ctg7_217" class="clusterblast-orf" id="dummy-1_q14_0_all"  />
<polygon points="350,35 355,30 372,30 372,40 355,40 350,35 " style="fill:#d81515; stroke-width:1; stroke:black; " description="&lt;b&gt;ctg7_218&lt;/b&gt;&lt;br&gt;ctg7 218&lt;br&gt;Location: 234764 - 235964" locus_tag="ctg7_218" class="clusterblast-orf" id="dummy-1_q15_0_all"  />
<polygon points="372,35 377,30 385,30 385,40 377,40 372,35 " style="fill:#15d815; stroke-width:1; stroke:black; " description="&lt;b&gt;ctg7_219&lt;/b&gt;&lt;br&gt;ctg7 219&lt;br&gt;Location: 235984 - 236698" locus_tag="ctg7_219" class="clusterblast-orf" id="dummy-1_q16_0_all"  />
<polygon points="385,35 390,30 393,30 393,40 390,40 385,35 " style="fill:white; stroke-width:1; stroke:black; " description="&lt;b&gt;ctg7_220&lt;/b&gt;&lt;br&gt;ctg7 220&lt;br&gt;Location: 236694 - 237117" locus_tag="ctg7_220" class="clusterblast-orf" id="dummy-1_q17_0_all"  />
<polygon points="393,35 398,30 415,30 415,40 398,40 393,35 " style="fill:#1515d8; stroke-width:1; stroke:black; " description="&lt;b&gt;ctg7_221&lt;/b&gt;&lt;br&gt;ctg7 221&lt;br&gt;Location: 237120 - 238314" locus_tag="ctg7_221" class="clusterblast-orf" id="dummy-1_q18_0_all"  />
<polygon points="415,35 420,30 427,30 427,40 420,40 415,35 " style="fill:white; stroke-width:1; stroke:black; " description="&lt;b&gt;ctg7_222&lt;/b&gt;&lt;br&gt;ctg7 222&lt;br&gt;Location: 238310 - 238952" locus_tag="ctg7_222" class="clusterblast-orf" id="dummy-1_q19_0_all"  />
<polygon points="427,35 432,30 457,30 457,40 432,40 427,35 " style="fill:white; stroke-width:1; stroke:black; " description="&lt;b&gt;ctg7_223&lt;/b&gt;&lt;br&gt;ctg7 223&lt;br&gt;Location: 238955 - 240560" locus_tag="ctg7_223" class="clusterblast-orf" id="dummy-1_q20_0_all"  />
<polygon points="458,40 467,40 472,35 467,30 458,30 458,40 " style="fill:white; stroke-width:1; stroke:black; " description="&lt;b&gt;ctg7_224&lt;/b&gt;&lt;br&gt;ctg7 224&lt;br&gt;Location: 240651 - 241419" locus_tag="ctg7_224" class="clusterblast-orf" id="dummy-1_q21_0_all"  />
<polygon points="472,40 482,40 487,35 482,30 472,30 472,40 " style="fill:white; stroke-width:1; stroke:black; " description="&lt;b&gt;ctg7_225&lt;/b&gt;&lt;br&gt;ctg7 225&lt;br&gt;Location: 241415 - 242213" locus_tag="ctg7_225" class="clusterblast-orf" id="dummy-1_q22_0_all"  />
<polygon points="487,40 487,40 492,35 487,30 487,30 487,40 " style="fill:#d815d8; stroke-width:1; stroke:black; " description="&lt;b&gt;ctg7_226&lt;/b&gt;&lt;br&gt;ctg7 226&lt;br&gt;Location: 242223 - 242493" locus_tag="ctg7_226" class="clusterblast-orf" id="dummy-1_q23_0_all"  />
<polygon points="492,40 496,35 492,30 492,40 " style="fill:#d8d815; stroke-width:1; stroke:black; " description="&lt;b&gt;ctg7_227&lt;/b&gt;&lt;br&gt;ctg7 227&lt;br&gt;Location: 242476 - 242725" locus_tag="ctg7_227" class="clusterblast-orf" id="dummy-1_q24_0_all"  />
<polygon points="496,40 502,40 507,35 502,30 496,30 496,40 " style="fill:white; stroke-width:1; stroke:black; " description="&lt;b&gt;ctg7_228&lt;/b&gt;&lt;br&gt;ctg7 228&lt;br&gt;Location: 242717 - 243311" locus_tag="ctg7_228" class="clusterblast-orf" id="dummy-1_q25_0_all"  />
<polygon points="507,40 533,40 538,35 533,30 507,30 507,40 " style="fill:white; stroke-width:1; stroke:black; " description="&lt;b&gt;ctg7_229&lt;/b&gt;&lt;br&gt;ctg7 229&lt;br&gt;Location: 243307 - 245002" locus_tag="ctg7_229" class="clusterblast-orf" id="dummy-1_q26_0_all"  />
<polygon points="538,40 565,40 570,35 565,30 538,30 538,40 " style="fill:white; stroke-width:1; stroke:black; " description="&lt;b&gt;ctg7_230&lt;/b&gt;&lt;br&gt;ctg7 230&lt;br&gt;Location: 244991 - 246707" locus_tag="ctg7_230" class="clusterblast-orf" id="dummy-1_q27_0_all"  />
<polygon points="569,40 593,40 598,35 593,30 569,30 569,40 " style="fill:#15d8d8; stroke-width:1; stroke:black; " description="&lt;b&gt;ctg7_231&lt;/b&gt;&lt;br&gt;ctg7 231&lt;br&gt;Location: 246687 - 248253" locus_tag="ctg7_231" class="clusterblast-orf" id="dummy-1_q28_0_all"  />
<polygon points="598,40 601,40 606,35 601,30 598,30 598,40 " style="fill:white; stroke-width:1; stroke:black; " description="&lt;b&gt;ctg7_232&lt;/b&gt;&lt;br&gt;ctg7 232&lt;br&gt;Location: 248245 - 248665" locus_tag="ctg7_232" class="clusterblast-orf" id="dummy-1_q29_0_all"  />
<polygon points="606,40 613,40 618,35 613,30 606,30 606,40 " style="fill:white; stroke-width:1; stroke:black; " description="&lt;b&gt;ctg7_233&lt;/b&gt;&lt;br&gt;ctg7 233&lt;br&gt;Location: 248661 - 249327" locus_tag="ctg7_233" class="clusterblast-orf" id="dummy-1_q30_0_all"  />
<polygon points="618,40 656,40 661,35 656,30 618,30 618,40 " style="fill:white; stroke-width:1; stroke:black; " description="&lt;b&gt;ctg7_234&lt;/b&gt;&lt;br&gt;ctg7 234&lt;br&gt;Location: 249316 - 251659" locus_tag="ctg7_234" class="clusterblast-orf" id="dummy-1_q31_0_all"  />
<polygon points="662,40 665,40 670,35 665,30 662,30 662,40 " style="fill:white; stroke-width:1; stroke:black; " description="&lt;b&gt;ctg7_235&lt;/b&gt;&lt;br&gt;ctg7 235&lt;br&gt;Location: 251700 - 252129" locus_tag="ctg7_235" class="clusterblast-orf" id="dummy-1_q32_0_all"  />
<polygon points="673,40 681,40 686,35 681,30 673,30 673,40 " style="fill:white; stroke-width:1; stroke:black; " description="&lt;b&gt;ctg7_236&lt;/b&gt;&lt;br&gt;ctg7 236&lt;br&gt;Location: 252320 - 252995" locus_tag="ctg7_236" class="clusterblast-orf" id="dummy-1_q33_0_all"  />
<polygon points="693,40 700,40 705,35 700,30 693,30 693,40 " style="fill:white; stroke-width:1; stroke:black; " description="&lt;b&gt;ctg7_237&lt;/b&gt;&lt;br&gt;ctg7 237&lt;br&gt;Location: 253413 - 254064" locus_tag="ctg7_237" class="clusterblast-orf" id="dummy-1_q34_0_all"  />
<polygon points="705,40 719,40 724,35 719,30 705,30 705,40 " style="fill:white; stroke-width:1; stroke:black; " description="&lt;b&gt;ctg7_238&lt;/b&gt;&lt;br&gt;ctg7 238&lt;br&gt;Location: 254073 - 255057" locus_tag="ctg7_238" class="clusterblast-orf" id="dummy-1_q35_0_all"  />
<polygon points="724,35 729,30 756,30 756,40 729,40 724,35 " style="fill:white; stroke-width:1; stroke:black; " description="&lt;b&gt;ctg7_239&lt;/b&gt;&lt;br&gt;ctg7 239&lt;br&gt;Location: 255070 - 256828" locus_tag="ctg7_239" class="clusterblast-orf" id="dummy-1_q36_0_all"  />
<polygon points="759,35 764,30 772,30 772,40 764,40 759,35 " style="fill:white; stroke-width:1; stroke:black; " description="&lt;b&gt;ctg7_240&lt;/b&gt;&lt;br&gt;ctg7 240&lt;br&gt;Location: 256976 - 257684" locus_tag="ctg7_240" class="clusterblast-orf" id="dummy-1_q37_0_all"  />
<polygon points="774,35 779,30 780,30 780,40 779,40 774,35 " style="fill:white; stroke-width:1; stroke:black; " description="&lt;b&gt;ctg7_241&lt;/b&gt;&lt;br&gt;ctg7 241&lt;br&gt;Location: 257795 - 258104" locus_tag="ctg7_241" class="clusterblast-orf" id="dummy-1_q38_0_all"  />
</g>
<g label="BGC0000836" description="BGC0000836_c1: APE Ec (21% of genes show similarity), Other" class="clusterblast-cluster"  >
<text x="5" y="70" class="clusterblast-acc"  >
<a xlink:href="https://mibig.secondarymetabolites.org/go/BGC0000836/1" target="_blank">BGC0000836</a>: APE Ec                                                                           (21% of genes show similarity), Other</text>
<line x1="10" y1="85" x2="778.0" y2="85" style="stroke-width:1; stroke:grey; "  />
</g>
<g id="a1_000"  >
<polygon points="251,90 253,90 258,85 253,80 251,80 251,90 " style="fill:white; stroke-width:1; stroke:black; " description="&lt;b&gt;c1204&lt;/b&gt;&lt;br&gt;Conserved hypothetical protein&lt;br&gt;Location: 15022 - 14633" locus_tag="c1204" class="clusterblast-orf" id="dummy-1_h1_3_0"  />
</g>
<g id="a1_001"  >
<polygon points="260,90 274,90 279,85 274,80 260,80 260,90 " style="fill:white; stroke-width:1; stroke:black; " description="&lt;b&gt;c1203&lt;/b&gt;&lt;br&gt;Putative O-methyltransferase&lt;br&gt;Location: 14568 - 13510" locus_tag="c1203" class="clusterblast-orf" id="dummy-1_h1_3_1"  />
</g>
<g id="a1_002"  >
<polygon points="279,90 288,90 293,85 288,80 279,80 279,90 " style="fill:white; stroke-width:1; stroke:black; " description="&lt;b&gt;c1202&lt;/b&gt;&lt;br&gt;Conserved hypothetical protein&lt;br&gt;Location: 13493 - 12747" locus_tag="c1202" class="clusterblast-orf" id="dummy-1_h1_3_2"  />
</g>
<g id="a1_003"  >
<polygon points="293,90 303,90 308,85 303,80 293,80 293,90 " style="fill:white; stroke-width:1; stroke:black; " description="&lt;b&gt;c1201&lt;/b&gt;&lt;br&gt;Putative phospholipid biosynthesis acyltransferase&lt;br&gt;Location: 12768 - 11929" locus_tag="c1201" class="clusterblast-orf" id="dummy-1_h1_3_3"  />
</g>
<g id="a1_004"  >
<polygon points="308,90 312,85 308,80 308,90 " style="fill:#d815d8; stroke-width:1; stroke:black; " description="&lt;b&gt;c1200&lt;/b&gt;&lt;br&gt;Putative acyl carrier protein&lt;br&gt;Location: 11954 - 11697&lt;br&gt;&lt;br&gt;&lt;b&gt;BlastP hit with ctg7_226&lt;/b&gt;&lt;br&gt;Percentage identity: 54&lt;br&gt;Percentage coverage: 90&lt;br&gt;BLAST bit score: 79&lt;br&gt;E-value: 6.99e-21" locus_tag="c1200" class="clusterblast-orf" id="dummy-1_h1_3_4"  />
</g>
<g id="a1_005"  >
<polygon points="313,90 317,85 313,80 313,90 " style="fill:#d8d815; stroke-width:1; stroke:black; " description="&lt;b&gt;c1199&lt;/b&gt;&lt;br&gt;Putative acyl carrier protein&lt;br&gt;Location: 11685 - 11434&lt;br&gt;&lt;br&gt;&lt;b&gt;BlastP hit with ctg7_227&lt;/b&gt;&lt;br&gt;Percentage identity: 49&lt;br&gt;Percentage coverage: 99&lt;br&gt;BLAST bit score: 90&lt;br&gt;E-value: 3.94e-25" locus_tag="c1199" class="clusterblast-orf" id="dummy-1_h1_3_5"  />
</g>
<g id="a1_006"  >
<polygon points="317,90 323,90 328,85 323,80 317,80 317,90 " style="fill:white; stroke-width:1; stroke:black; " description="&lt;b&gt;c1198&lt;/b&gt;&lt;br&gt;Conserved hypothetical protein&lt;br&gt;Location: 11432 - 10848" locus_tag="c1198" class="clusterblast-orf" id="dummy-1_h1_3_6"  />
</g>
<g id="a1_007"  >
<polygon points="328,90 348,90 353,85 348,80 328,80 328,90 " style="fill:white; stroke-width:1; stroke:black; " description="&lt;b&gt;c1197&lt;/b&gt;&lt;br&gt;Putative enzyme&lt;br&gt;Location: 10851 - 9493" locus_tag="c1197" class="clusterblast-orf" id="dummy-1_h1_3_7"  />
</g>
<g id="a1_008"  >
<polygon points="352,90 354,90 359,85 354,80 352,80 352,90 " style="fill:white; stroke-width:1; stroke:black; " description="&lt;b&gt;c1196&lt;/b&gt;&lt;br&gt;Conserved hypothetical protein&lt;br&gt;Location: 9530 - 9153" locus_tag="c1196" class="clusterblast-orf" id="dummy-1_h1_3_8"  />
</g>
<g id="a1_009"  >
<polygon points="358,90 361,85 358,80 358,90 " style="fill:white; stroke-width:1; stroke:black; " description="&lt;b&gt;c1195&lt;/b&gt;&lt;br&gt;Hypothetical protein&lt;br&gt;Location: 9202 - 9080" locus_tag="c1195" class="clusterblast-orf" id="dummy-1_h1_3_9"  />
</g>
<g id="a1_0010"  >
<polygon points="360,90 385,90 390,85 385,80 360,80 360,90 " style="fill:white; stroke-width:1; stroke:black; " description="&lt;b&gt;c1194&lt;/b&gt;&lt;br&gt;Putative enzyme&lt;br&gt;Location: 9108 - 7486" locus_tag="c1194" class="clusterblast-orf" id="dummy-1_h1_3_10"  />
</g>
<g id="a1_0011"  >
<polygon points="390,90 393,90 398,85 393,80 390,80 390,90 " style="fill:white; stroke-width:1; stroke:black; " description="&lt;b&gt;c1193&lt;/b&gt;&lt;br&gt;Hypothetical protein&lt;br&gt;Location: 7482 - 7060" locus_tag="c1193" class="clusterblast-orf" id="dummy-1_h1_3_11"  />
</g>
<g id="a1_0012"  >
<polygon points="398,90 404,90 409,85 404,80 398,80 398,90 " style="fill:white; stroke-width:1; stroke:black; " description="&lt;b&gt;c1192&lt;/b&gt;&lt;br&gt;Conserved hypothetical protein&lt;br&gt;Location: 7063 - 6458" locus_tag="c1192" class="clusterblast-orf" id="dummy-1_h1_3_12"  />
</g>
<g id="a1_0013"  >
<polygon points="408,90 446,90 451,85 446,80 408,80 408,90 " style="fill:white; stroke-width:1; stroke:black; " description="&lt;b&gt;c1191&lt;/b&gt;&lt;br&gt;Conserved hypothetical protein&lt;br&gt;Location: 6489 - 4171" locus_tag="c1191" class="clusterblast-orf" id="dummy-1_h1_3_13"  />
</g>
<g id="a1_0014"  >
<polygon points="451,90 457,90 462,85 457,80 451,80 451,90 " style="fill:white; stroke-width:1; stroke:black; " description="&lt;b&gt;c1190&lt;/b&gt;&lt;br&gt;Conserved hypothetical protein&lt;br&gt;Location: 4174 - 3590" locus_tag="c1190" class="clusterblast-orf" id="dummy-1_h1_3_14"  />
</g>
<g id="a1_0015"  >
<polygon points="462,90 478,90 483,85 478,80 462,80 462,90 " style="fill:white; stroke-width:1; stroke:black; " description="&lt;b&gt;c1189&lt;/b&gt;&lt;br&gt;Putative 3-oxoacyl-[ACP] synthase&lt;br&gt;Location: 3597 - 2419" locus_tag="c1189" class="clusterblast-orf" id="dummy-1_h1_3_15"  />
</g>
<g id="a1_0016"  >
<polygon points="483,90 487,90 492,85 487,80 483,80 483,90 " style="fill:white; stroke-width:1; stroke:black; " description="&lt;b&gt;c1188&lt;/b&gt;&lt;br&gt;Conserved hypothetical protein&lt;br&gt;Location: 2422 - 1958" locus_tag="c1188" class="clusterblast-orf" id="dummy-1_h1_3_16"  />
</g>
<g id="a1_0017"  >
<polygon points="492,90 500,90 505,85 500,80 492,80 492,90 " style="fill:#15d815; stroke-width:1; stroke:black; " description="&lt;b&gt;c1187&lt;/b&gt;&lt;br&gt;3-oxoacyl-[acyl-carrier protein] reductase&lt;br&gt;Location: 1958 - 1227&lt;br&gt;&lt;br&gt;&lt;b&gt;BlastP hit with ctg7_219&lt;/b&gt;&lt;br&gt;Percentage identity: 61&lt;br&gt;Percentage coverage: 101&lt;br&gt;BLAST bit score: 302&lt;br&gt;E-value: 2.03e-104" locus_tag="c1187" class="clusterblast-orf" id="dummy-1_h1_3_17"  />
</g>
<g id="a1_0018"  >
<polygon points="505,90 523,90 528,85 523,80 505,80 505,90 " style="fill:#d81515; stroke-width:1; stroke:black; " description="&lt;b&gt;c1186&lt;/b&gt;&lt;br&gt;Putative beta-ketoacyl-ACP synthase&lt;br&gt;Location: 1230 - 1&lt;br&gt;&lt;br&gt;&lt;b&gt;BlastP hit with ctg7_218&lt;/b&gt;&lt;br&gt;Percentage identity: 55&lt;br&gt;Percentage coverage: 100&lt;br&gt;BLAST bit score: 462&lt;br&gt;E-value: 1.87e-162" locus_tag="c1186" class="clusterblast-orf" id="dummy-1_h1_3_18"  />
</g>
</svg>
