<svg xmlns="http://www.w3.org/2000/svg" xmlns:xlink="http://www.w3.org/1999/xlink" version="1.1" x="0" y="0" height="230" width="800" viewBox="0 0 800 230" preserveAspectRatio="none"  >
<g label="Query sequence" class="clusterblast-cluster"  >
<text x="5" y="20" class="clusterblast-acc"  >
Query sequence</text>
<line x1="10" y1="35" x2="778.0" y2="35" style="stroke-width:1; stroke:grey; "  />
<polygon points="122,40 124,35 122,30 122,40 " style="fill:white; stroke-width:1; stroke:black; " description="&lt;b&gt;ctg32_1&lt;/b&gt;&lt;br&gt;ctg32 1&lt;br&gt;Location: 403 - 499" locus_tag="ctg32_1" class="clusterblast-orf" id="dummy-1_q0_0_all"  />
<polygon points="125,35 130,30 139,30 139,40 130,40 125,35 " style="fill:white; stroke-width:1; stroke:black; " description="&lt;b&gt;ctg32_2&lt;/b&gt;&lt;br&gt;ctg32 2&lt;br&gt;Location: 580 - 1306" locus_tag="ctg32_2" class="clusterblast-orf" id="dummy-1_q1_0_all"  />
<polygon points="139,35 144,30 161,30 161,40 144,40 139,35 " style="fill:white; stroke-width:1; stroke:black; " description="&lt;b&gt;ctg32_3&lt;/b&gt;&lt;br&gt;ctg32 3&lt;br&gt;Location: 1302 - 2427" locus_tag="ctg32_3" class="clusterblast-orf" id="dummy-1_q2_0_all"  />
<polygon points="161,35 166,30 192,30 192,40 166,40 161,35 " style="fill:white; stroke-width:1; stroke:black; " description="&lt;b&gt;ctg32_4&lt;/b&gt;&lt;br&gt;ctg32 4&lt;br&gt;Location: 2413 - 4036" locus_tag="ctg32_4" class="clusterblast-orf" id="dummy-1_q3_0_all"  />
<polygon points="193,35 198,30 222,30 222,40 198,40 193,35 " style="fill:white; stroke-width:1; stroke:black; " description="&lt;b&gt;ctg32_5&lt;/b&gt;&lt;br&gt;ctg32 5&lt;br&gt;Location: 4082 - 5630" locus_tag="ctg32_5" class="clusterblast-orf" id="dummy-1_q4_0_all"  />
<polygon points="226,35 231,30 237,30 237,40 231,40 226,35 " style="fill:white; stroke-width:1; stroke:black; " description="&lt;b&gt;ctg32_6&lt;/b&gt;&lt;br&gt;ctg32 6&lt;br&gt;Location: 5800 - 6385" locus_tag="ctg32_6" class="clusterblast-orf" id="dummy-1_q5_0_all"  />
<polygon points="237,40 250,40 255,35 250,30 237,30 237,40 " style="fill:white; stroke-width:1; stroke:black; " description="&lt;b&gt;ctg32_7&lt;/b&gt;&lt;br&gt;ctg32 7&lt;br&gt;Location: 6389 - 7325" locus_tag="ctg32_7" class="clusterblast-orf" id="dummy-1_q6_0_all"  />
<polygon points="254,35 259,30 271,30 271,40 259,40 254,35 " style="fill:white; stroke-width:1; stroke:black; " description="&lt;b&gt;ctg32_8&lt;/b&gt;&lt;br&gt;ctg32 8&lt;br&gt;Location: 7291 - 8167" locus_tag="ctg32_8" class="clusterblast-orf" id="dummy-1_q7_0_all"  />
<polygon points="281,40 286,40 291,35 286,30 281,30 281,40 " style="fill:white; stroke-width:1; stroke:black; " description="&lt;b&gt;ctg32_9&lt;/b&gt;&lt;br&gt;ctg32 9&lt;br&gt;Location: 8690 - 9200" locus_tag="ctg32_9" class="clusterblast-orf" id="dummy-1_q8_0_all"  />
<polygon points="291,35 296,30 297,30 297,40 296,40 291,35 " style="fill:white; stroke-width:1; stroke:black; " description="&lt;b&gt;ctg32_10&lt;/b&gt;&lt;br&gt;ctg32 10&lt;br&gt;Location: 9213 - 9540" locus_tag="ctg32_10" class="clusterblast-orf" id="dummy-1_q9_0_all"  />
<polygon points="305,40 308,35 305,30 305,40 " style="fill:white; stroke-width:1; stroke:black; " description="&lt;b&gt;ctg32_11&lt;/b&gt;&lt;br&gt;ctg32 11&lt;br&gt;Location: 9932 - 10079" locus_tag="ctg32_11" class="clusterblast-orf" id="dummy-1_q10_0_all"  />
<polygon points="312,40 321,40 326,35 321,30 312,30 312,40 " style="fill:white; stroke-width:1; stroke:black; " description="&lt;b&gt;ctg32_12&lt;/b&gt;&lt;br&gt;ctg32 12&lt;br&gt;Location: 10286 - 11048" locus_tag="ctg32_12" class="clusterblast-orf" id="dummy-1_q11_0_all"  />
<polygon points="326,40 342,40 347,35 342,30 326,30 326,40 " style="fill:white; stroke-width:1; stroke:black; " description="&lt;b&gt;ctg32_13&lt;/b&gt;&lt;br&gt;ctg32 13&lt;br&gt;Location: 11044 - 12145" locus_tag="ctg32_13" class="clusterblast-orf" id="dummy-1_q12_0_all"  />
<polygon points="348,40 371,40 376,35 371,30 348,30 348,40 " style="fill:white; stroke-width:1; stroke:black; " description="&lt;b&gt;ctg32_14&lt;/b&gt;&lt;br&gt;ctg32 14&lt;br&gt;Location: 12163 - 13648" locus_tag="ctg32_14" class="clusterblast-orf" id="dummy-1_q13_0_all"  />
<polygon points="376,40 393,40 398,35 393,30 376,30 376,40 " style="fill:white; stroke-width:1; stroke:black; " description="&lt;b&gt;ctg32_15&lt;/b&gt;&lt;br&gt;ctg32 15&lt;br&gt;Location: 13644 - 14787" locus_tag="ctg32_15" class="clusterblast-orf" id="dummy-1_q14_0_all"  />
<polygon points="398,35 403,30 444,30 444,40 403,40 398,35 " style="fill:white; stroke-width:1; stroke:black; " description="&lt;b&gt;ctg32_16&lt;/b&gt;&lt;br&gt;ctg32 16&lt;br&gt;Location: 14767 - 17203" locus_tag="ctg32_16" class="clusterblast-orf" id="dummy-1_q15_0_all"  />
<polygon points="444,35 449,30 449,30 449,40 449,40 444,35 " style="fill:white; stroke-width:1; stroke:black; " description="&lt;b&gt;ctg32_17&lt;/b&gt;&lt;br&gt;ctg32 17&lt;br&gt;Location: 17207 - 17444" locus_tag="ctg32_17" class="clusterblast-orf" id="dummy-1_q16_0_all"  />
<polygon points="451,35 456,30 497,30 497,40 456,40 451,35 " style="fill:white; stroke-width:1; stroke:black; " description="&lt;b&gt;ctg32_18&lt;/b&gt;&lt;br&gt;ctg32 18&lt;br&gt;Location: 17541 - 19950" locus_tag="ctg32_18" class="clusterblast-orf" id="dummy-1_q17_0_all"  />
<polygon points="497,35 502,30 518,30 518,40 502,40 497,35 " style="fill:white; stroke-width:1; stroke:black; " description="&lt;b&gt;ctg32_19&lt;/b&gt;&lt;br&gt;ctg32 19&lt;br&gt;Location: 19959 - 21057" locus_tag="ctg32_19" class="clusterblast-orf" id="dummy-1_q18_0_all"  />
<polygon points="521,35 526,30 537,30 537,40 526,40 521,35 " style="fill:white; stroke-width:1; stroke:black; " description="&lt;b&gt;ctg32_20&lt;/b&gt;&lt;br&gt;ctg32 20&lt;br&gt;Location: 21189 - 22053" locus_tag="ctg32_20" class="clusterblast-orf" id="dummy-1_q19_0_all"  />
<polygon points="537,35 542,30 549,30 549,40 542,40 537,35 " style="fill:white; stroke-width:1; stroke:black; " description="&lt;b&gt;ctg32_21&lt;/b&gt;&lt;br&gt;ctg32 21&lt;br&gt;Location: 22036 - 22639" locus_tag="ctg32_21" class="clusterblast-orf" id="dummy-1_q20_0_all"  />
<polygon points="549,35 554,30 572,30 572,40 554,40 549,35 " style="fill:#d81515; stroke-width:1; stroke:black; " description="&lt;b&gt;ctg32_22&lt;/b&gt;&lt;br&gt;ctg32 22&lt;br&gt;Location: 22642 - 23863" locus_tag="ctg32_22" class="clusterblast-orf" id="dummy-1_q21_0_all"  />
<polygon points="574,40 583,40 588,35 583,30 574,30 574,40 " style="fill:#15d8d8; stroke-width:1; stroke:black; " description="&lt;b&gt;ctg32_23&lt;/b&gt;&lt;br&gt;ctg32 23&lt;br&gt;Location: 23957 - 24680" locus_tag="ctg32_23" class="clusterblast-orf" id="dummy-1_q22_0_all"  />
<polygon points="588,40 599,40 604,35 599,30 588,30 588,40 " style="fill:white; stroke-width:1; stroke:black; " description="&lt;b&gt;ctg32_24&lt;/b&gt;&lt;br&gt;ctg32 24&lt;br&gt;Location: 24676 - 25504" locus_tag="ctg32_24" class="clusterblast-orf" id="dummy-1_q23_0_all"  />
<polygon points="603,35 608,30 629,30 629,40 608,40 603,35 " style="fill:white; stroke-width:1; stroke:black; " description="&lt;b&gt;ctg32_25&lt;/b&gt;&lt;br&gt;ctg32 25&lt;br&gt;Location: 25455 - 26811" locus_tag="ctg32_25" class="clusterblast-orf" id="dummy-1_q24_0_all"  />
<polygon points="631,40 652,40 657,35 652,30 631,30 631,40 " style="fill:white; stroke-width:1; stroke:black; " description="&lt;b&gt;ctg32_26&lt;/b&gt;&lt;br&gt;ctg32 26&lt;br&gt;Location: 26938 - 28312" locus_tag="ctg32_26" class="clusterblast-orf" id="dummy-1_q25_0_all"  />
</g>
<g label="BGC0000257" description="BGC0000257_c1: prodigiosin (8% of genes show similarity), Polyketide" class="clusterblast-cluster"  >
<text x="5" y="70" class="clusterblast-acc"  >
<a xlink:href="https://mibig.secondarymetabolites.org/go/BGC0000257/1" target="_blank">BGC0000257</a>: prodigiosin                                                                      (8% of genes show similarity), Polyketide</text>
<line x1="10" y1="85" x2="778.0" y2="85" style="stroke-width:1; stroke:grey; "  />
</g>
<g id="a1_000"  >
<polygon points="0,85 5,80 36,80 36,90 5,90 0,85 " style="fill:white; stroke-width:1; stroke:black; " description="&lt;b&gt;BAG84263.1&lt;/b&gt;&lt;br&gt;putative 4-hydroxy-2,2'-bipyrrole-4-methanol synthase&lt;br&gt;Location: 43239 - 41335" locus_tag="BAG84263.1" class="clusterblast-orf" id="dummy-1_h1_1_0"  />
</g>
<g id="a1_001"  >
<polygon points="36,85 41,80 42,80 42,90 41,90 36,85 " style="fill:white; stroke-width:1; stroke:black; " description="&lt;b&gt;BAG84262.1&lt;/b&gt;&lt;br&gt;putative peptidyl carrier protein&lt;br&gt;Location: 41323 - 41045" locus_tag="BAG84262.1" class="clusterblast-orf" id="dummy-1_h1_1_1"  />
</g>
<g id="a1_002"  >
<polygon points="43,85 48,80 63,80 63,90 48,90 43,85 " style="fill:white; stroke-width:1; stroke:black; " description="&lt;b&gt;BAG84261.1&lt;/b&gt;&lt;br&gt;putative 3-oxoacyl-ACP synthase&lt;br&gt;Location: 40971 - 39949" locus_tag="BAG84261.1" class="clusterblast-orf" id="dummy-1_h1_1_2"  />
</g>
<g id="a1_003"  >
<polygon points="81,90 93,90 98,85 93,80 81,80 81,90 " style="fill:white; stroke-width:1; stroke:black; " description="&lt;b&gt;BAG84260.1&lt;/b&gt;&lt;br&gt;hypothetical protein&lt;br&gt;Location: 38978 - 38085" locus_tag="BAG84260.1" class="clusterblast-orf" id="dummy-1_h1_1_3"  />
</g>
<g id="a1_004"  >
<polygon points="98,90 110,90 115,85 110,80 98,80 98,90 " style="fill:white; stroke-width:1; stroke:black; " description="&lt;b&gt;BAG84259.1&lt;/b&gt;&lt;br&gt;putative 4'-phosphopantetheinyl transferase&lt;br&gt;Location: 38080 - 37214" locus_tag="BAG84259.1" class="clusterblast-orf" id="dummy-1_h1_1_4"  />
</g>
<g id="a1_005"  >
<polygon points="115,90 136,90 141,85 136,80 115,80 115,90 " style="fill:white; stroke-width:1; stroke:black; " description="&lt;b&gt;BAG84258.1&lt;/b&gt;&lt;br&gt;putative dehydrogenase&lt;br&gt;Location: 37206 - 35854" locus_tag="BAG84258.1" class="clusterblast-orf" id="dummy-1_h1_1_5"  />
</g>
<g id="a1_006"  >
<polygon points="145,90 153,90 158,85 153,80 145,80 145,90 " style="fill:white; stroke-width:1; stroke:black; " description="&lt;b&gt;BAG84257.1&lt;/b&gt;&lt;br&gt;putative response regulator&lt;br&gt;Location: 35680 - 35000" locus_tag="BAG84257.1" class="clusterblast-orf" id="dummy-1_h1_1_6"  />
</g>
<g id="a1_007"  >
<polygon points="166,85 171,80 188,80 188,90 171,90 166,85 " style="fill:white; stroke-width:1; stroke:black; " description="&lt;b&gt;BAG84256.1&lt;/b&gt;&lt;br&gt;putative oxygenase&lt;br&gt;Location: 34543 - 33398" locus_tag="BAG84256.1" class="clusterblast-orf" id="dummy-1_h1_1_7"  />
</g>
<g id="a1_008"  >
<polygon points="190,85 195,80 253,80 253,90 195,90 190,85 " style="fill:white; stroke-width:1; stroke:black; " description="&lt;b&gt;BAG84255.1&lt;/b&gt;&lt;br&gt;putative pyrrole-condensing enzyme&lt;br&gt;Location: 33294 - 30049" locus_tag="BAG84255.1" class="clusterblast-orf" id="dummy-1_h1_1_8"  />
</g>
<g id="a1_009"  >
<polygon points="260,85 265,80 281,80 281,90 265,90 260,85 " style="fill:white; stroke-width:1; stroke:black; " description="&lt;b&gt;BAG84254.1&lt;/b&gt;&lt;br&gt;putative O-methyltransferase&lt;br&gt;Location: 29650 - 28562" locus_tag="BAG84254.1" class="clusterblast-orf" id="dummy-1_h1_1_9"  />
</g>
<g id="a1_0010"  >
<polygon points="281,85 286,80 302,80 302,90 286,90 281,85 " style="fill:white; stroke-width:1; stroke:black; " description="&lt;b&gt;BAG84253.1&lt;/b&gt;&lt;br&gt;putative oxygenase&lt;br&gt;Location: 28550 - 27450" locus_tag="BAG84253.1" class="clusterblast-orf" id="dummy-1_h1_1_10"  />
</g>
<g id="a1_0011"  >
<polygon points="303,85 308,80 322,80 322,90 308,90 303,85 " style="fill:white; stroke-width:1; stroke:black; " description="&lt;b&gt;BAG84252.1&lt;/b&gt;&lt;br&gt;putative oxygenase&lt;br&gt;Location: 27416 - 26436" locus_tag="BAG84252.1" class="clusterblast-orf" id="dummy-1_h1_1_11"  />
</g>
<g id="a1_0012"  >
<polygon points="324,85 329,80 350,80 350,90 329,90 324,85 " style="fill:white; stroke-width:1; stroke:black; " description="&lt;b&gt;BAG84251.1&lt;/b&gt;&lt;br&gt;putative oxygenase&lt;br&gt;Location: 26304 - 24976" locus_tag="BAG84251.1" class="clusterblast-orf" id="dummy-1_h1_1_12"  />
</g>
<g id="a1_0013"  >
<polygon points="351,85 356,80 375,80 375,90 356,90 351,85 " style="fill:white; stroke-width:1; stroke:black; " description="&lt;b&gt;BAG84250.1&lt;/b&gt;&lt;br&gt;putative thioesterase&lt;br&gt;Location: 24921 - 23659" locus_tag="BAG84250.1" class="clusterblast-orf" id="dummy-1_h1_1_13"  />
</g>
<g id="a1_0014"  >
<polygon points="376,85 381,80 397,80 397,90 381,90 376,85 " style="fill:white; stroke-width:1; stroke:black; " description="&lt;b&gt;BAG84249.1&lt;/b&gt;&lt;br&gt;putative oxidoreductase&lt;br&gt;Location: 23610 - 22498" locus_tag="BAG84249.1" class="clusterblast-orf" id="dummy-1_h1_1_14"  />
</g>
<g id="a1_0015"  >
<polygon points="398,85 403,80 536,80 536,90 403,90 398,85 " style="fill:#d81515; stroke-width:1; stroke:black; " description="&lt;b&gt;BAG84248.1&lt;/b&gt;&lt;br&gt;putative polyketide synthase&lt;br&gt;Location: 22489 - 15281&lt;br&gt;&lt;br&gt;&lt;b&gt;BlastP hit with ctg32_22&lt;/b&gt;&lt;br&gt;Percentage identity: 46&lt;br&gt;Percentage coverage: 98&lt;br&gt;BLAST bit score: 343&lt;br&gt;E-value: 7.86e-106" locus_tag="BAG84248.1" class="clusterblast-orf" id="dummy-1_h1_1_15"  />
</g>
<g id="a1_0016"  >
<polygon points="538,85 543,80 574,80 574,90 543,90 538,85 " style="fill:white; stroke-width:1; stroke:black; " description="&lt;b&gt;BAG84247.1&lt;/b&gt;&lt;br&gt;putative L-prolyl-AMP ligase&lt;br&gt;Location: 15173 - 13296" locus_tag="BAG84247.1" class="clusterblast-orf" id="dummy-1_h1_1_16"  />
</g>
<g id="a1_0017"  >
<polygon points="593,90 601,90 606,85 601,80 593,80 593,90 " style="fill:white; stroke-width:1; stroke:black; " description="&lt;b&gt;BAG84246.1&lt;/b&gt;&lt;br&gt;putative transcriptional regulator&lt;br&gt;Location: 12294 - 11617" locus_tag="BAG84246.1" class="clusterblast-orf" id="dummy-1_h1_1_17"  />
</g>
<g id="a1_0018"  >
<polygon points="608,90 617,90 622,85 617,80 608,80 608,90 " style="fill:#15d8d8; stroke-width:1; stroke:black; " description="&lt;b&gt;BAG84245.1&lt;/b&gt;&lt;br&gt;putative ABC-transporter&lt;br&gt;Location: 11525 - 10800&lt;br&gt;&lt;br&gt;&lt;b&gt;BlastP hit with ctg32_23&lt;/b&gt;&lt;br&gt;Percentage identity: 49&lt;br&gt;Percentage coverage: 99&lt;br&gt;BLAST bit score: 229&lt;br&gt;E-value: 1.04e-75" locus_tag="BAG84245.1" class="clusterblast-orf" id="dummy-1_h1_1_18"  />
</g>
<g id="a1_0019"  >
<polygon points="622,90 662,90 667,85 662,80 622,80 622,90 " style="fill:white; stroke-width:1; stroke:black; " description="&lt;b&gt;BAG84244.1&lt;/b&gt;&lt;br&gt;putative ABC-transporter&lt;br&gt;Location: 10783 - 8450" locus_tag="BAG84244.1" class="clusterblast-orf" id="dummy-1_h1_1_19"  />
</g>
<g id="a1_0020"  >
<polygon points="678,90 687,90 692,85 687,80 678,80 678,90 " style="fill:white; stroke-width:1; stroke:black; " description="&lt;b&gt;BAG84243.1&lt;/b&gt;&lt;br&gt;putative transcriptional regulator&lt;br&gt;Location: 7893 - 7132" locus_tag="BAG84243.1" class="clusterblast-orf" id="dummy-1_h1_1_20"  />
</g>
<g id="a1_0021"  >
<polygon points="695,90 744,90 749,85 744,80 695,80 695,90 " style="fill:white; stroke-width:1; stroke:black; " description="&lt;b&gt;BAG84242.1&lt;/b&gt;&lt;br&gt;putative beta-ketomyristoyl-ACP synthase&lt;br&gt;Location: 6967 - 4184" locus_tag="BAG84242.1" class="clusterblast-orf" id="dummy-1_h1_1_21"  />
</g>
<g id="a1_0022"  >
<polygon points="749,90 767,90 772,85 767,80 749,80 749,90 " style="fill:white; stroke-width:1; stroke:black; " description="&lt;b&gt;BAG84241.1&lt;/b&gt;&lt;br&gt;putative L-prolyl-PCP dehydrogenase&lt;br&gt;Location: 4187 - 2982" locus_tag="BAG84241.1" class="clusterblast-orf" id="dummy-1_h1_1_22"  />
</g>
<g id="a1_0023"  >
<polygon points="773,90 775,90 780,85 775,80 773,80 773,90 " style="fill:white; stroke-width:1; stroke:black; " description="&lt;b&gt;BAG84240.1&lt;/b&gt;&lt;br&gt;hypothetical protein&lt;br&gt;Location: 2906 - 2580" locus_tag="BAG84240.1" class="clusterblast-orf" id="dummy-1_h1_1_23"  />
</g>
</svg>
