<svg xmlns="http://www.w3.org/2000/svg" xmlns:xlink="http://www.w3.org/1999/xlink" version="1.1" x="0" y="0" height="50" width="800" viewBox="0 0 800 50" preserveAspectRatio="none"  >
<g label="Query sequence" class="clusterblast-cluster"  >
<text x="5" y="20" class="clusterblast-acc"  >
Query sequence</text>
<line x1="10" y1="35" x2="778.0" y2="35" style="stroke-width:1; stroke:grey; "  />
<polygon points="0,35 5,30 84,30 84,40 5,40 0,35 " style="fill:white; stroke-width:1; stroke:black; " description="&lt;b&gt;ctg18_1&lt;/b&gt;&lt;br&gt;ctg18 1&lt;br&gt;Location: 144 - 1950" locus_tag="ctg18_1" class="clusterblast-orf" id="subclusterblast-1_q0_0_all"  />
<polygon points="100,35 105,30 153,30 153,40 105,40 100,35 " style="fill:white; stroke-width:1; stroke:black; " description="&lt;b&gt;ctg18_2&lt;/b&gt;&lt;br&gt;ctg18 2&lt;br&gt;Location: 2303 - 3434" locus_tag="ctg18_2" class="clusterblast-orf" id="subclusterblast-1_q1_0_all"  />
<polygon points="157,40 189,40 194,35 189,30 157,30 157,40 " style="fill:white; stroke-width:1; stroke:black; " description="&lt;b&gt;ctg18_3&lt;/b&gt;&lt;br&gt;ctg18 3&lt;br&gt;Location: 3523 - 4318" locus_tag="ctg18_3" class="clusterblast-orf" id="subclusterblast-1_q2_0_all"  />
<polygon points="198,40 213,40 218,35 213,30 198,30 198,40 " style="fill:white; stroke-width:1; stroke:black; " description="&lt;b&gt;ctg18_4&lt;/b&gt;&lt;br&gt;ctg18 4&lt;br&gt;Location: 4402 - 4828" locus_tag="ctg18_4" class="clusterblast-orf" id="subclusterblast-1_q3_0_all"  />
<polygon points="221,40 231,40 236,35 231,30 221,30 221,40 " style="fill:white; stroke-width:1; stroke:black; " description="&lt;b&gt;ctg18_5&lt;/b&gt;&lt;br&gt;ctg18 5&lt;br&gt;Location: 4907 - 5216" locus_tag="ctg18_5" class="clusterblast-orf" id="subclusterblast-1_q4_0_all"  />
<polygon points="235,35 240,30 281,30 281,40 240,40 235,35 " style="fill:white; stroke-width:1; stroke:black; " description="&lt;b&gt;ctg18_6&lt;/b&gt;&lt;br&gt;ctg18 6&lt;br&gt;Location: 5212 - 6196" locus_tag="ctg18_6" class="clusterblast-orf" id="subclusterblast-1_q5_0_all"  />
<polygon points="283,35 288,30 320,30 320,40 288,40 283,35 " style="fill:white; stroke-width:1; stroke:black; " description="&lt;b&gt;ctg18_7&lt;/b&gt;&lt;br&gt;ctg18 7&lt;br&gt;Location: 6228 - 7026" locus_tag="ctg18_7" class="clusterblast-orf" id="subclusterblast-1_q6_0_all"  />
<polygon points="327,35 332,30 396,30 396,40 332,40 327,35 " style="fill:white; stroke-width:1; stroke:black; " description="&lt;b&gt;ctg18_8&lt;/b&gt;&lt;br&gt;ctg18 8&lt;br&gt;Location: 7175 - 8666" locus_tag="ctg18_8" class="clusterblast-orf" id="subclusterblast-1_q7_0_all"  />
<polygon points="400,40 455,40 460,35 455,30 400,30 400,40 " style="fill:white; stroke-width:1; stroke:black; " description="&lt;b&gt;ctg18_9&lt;/b&gt;&lt;br&gt;ctg18 9&lt;br&gt;Location: 8760 - 10035" locus_tag="ctg18_9" class="clusterblast-orf" id="subclusterblast-1_q8_0_all"  />
<polygon points="460,40 525,40 530,35 525,30 460,30 460,40 " style="fill:white; stroke-width:1; stroke:black; " description="&lt;b&gt;ctg18_10&lt;/b&gt;&lt;br&gt;ctg18 10&lt;br&gt;Location: 10034 - 11543" locus_tag="ctg18_10" class="clusterblast-orf" id="subclusterblast-1_q9_0_all"  />
<polygon points="530,40 580,40 585,35 580,30 530,30 530,40 " style="fill:white; stroke-width:1; stroke:black; " description="&lt;b&gt;ctg18_11&lt;/b&gt;&lt;br&gt;ctg18 11&lt;br&gt;Location: 11539 - 12727" locus_tag="ctg18_11" class="clusterblast-orf" id="subclusterblast-1_q10_0_all"  />
<polygon points="585,40 649,40 654,35 649,30 585,30 585,40 " style="fill:white; stroke-width:1; stroke:black; " description="&lt;b&gt;ctg18_12&lt;/b&gt;&lt;br&gt;ctg18 12&lt;br&gt;Location: 12734 - 14222" locus_tag="ctg18_12" class="clusterblast-orf" id="subclusterblast-1_q11_0_all"  />
<polygon points="652,40 708,40 713,35 708,30 652,30 652,40 " style="fill:white; stroke-width:1; stroke:black; " description="&lt;b&gt;ctg18_13&lt;/b&gt;&lt;br&gt;ctg18 13&lt;br&gt;Location: 14184 - 15480" locus_tag="ctg18_13" class="clusterblast-orf" id="subclusterblast-1_q12_0_all"  />
<polygon points="730,40 775,40 780,35 775,30 730,30 730,40 " style="fill:white; stroke-width:1; stroke:black; " description="&lt;b&gt;ctg18_14&lt;/b&gt;&lt;br&gt;ctg18 14&lt;br&gt;Location: 15845 - 16928" locus_tag="ctg18_14" class="clusterblast-orf" id="subclusterblast-1_q13_0_all"  />
</g>
</svg>
