<svg xmlns="http://www.w3.org/2000/svg" xmlns:xlink="http://www.w3.org/1999/xlink" version="1.1" x="0" y="0" height="50" width="800" viewBox="0 0 800 50" preserveAspectRatio="none"  >
<g label="Query sequence" class="clusterblast-cluster"  >
<text x="5" y="20" class="clusterblast-acc"  >
Query sequence</text>
<line x1="10" y1="35" x2="778.0" y2="35" style="stroke-width:1; stroke:grey; "  />
<polygon points="0,35 5,30 44,30 44,40 5,40 0,35 " style="fill:white; stroke-width:1; stroke:black; " description="&lt;b&gt;ctg3_296&lt;/b&gt;&lt;br&gt;ctg3 296&lt;br&gt;Location: 326197 - 326878" locus_tag="ctg3_296" class="clusterblast-orf" id="subclusterblast-2_q0_0_all"  />
<polygon points="44,35 49,30 69,30 69,40 49,40 44,35 " style="fill:white; stroke-width:1; stroke:black; " description="&lt;b&gt;ctg3_297&lt;/b&gt;&lt;br&gt;ctg3 297&lt;br&gt;Location: 326882 - 327263" locus_tag="ctg3_297" class="clusterblast-orf" id="subclusterblast-2_q1_0_all"  />
<polygon points="74,35 79,30 98,30 98,40 79,40 74,35 " style="fill:white; stroke-width:1; stroke:black; " description="&lt;b&gt;ctg3_298&lt;/b&gt;&lt;br&gt;ctg3 298&lt;br&gt;Location: 327344 - 327716" locus_tag="ctg3_298" class="clusterblast-orf" id="subclusterblast-2_q2_0_all"  />
<polygon points="102,40 141,40 146,35 141,30 102,30 102,40 " style="fill:white; stroke-width:1; stroke:black; " description="&lt;b&gt;ctg3_299&lt;/b&gt;&lt;br&gt;ctg3 299&lt;br&gt;Location: 327780 - 328449" locus_tag="ctg3_299" class="clusterblast-orf" id="subclusterblast-2_q3_0_all"  />
<polygon points="206,40 240,40 245,35 240,30 206,30 206,40 " style="fill:white; stroke-width:1; stroke:black; " description="&lt;b&gt;ctg3_300&lt;/b&gt;&lt;br&gt;ctg3 300&lt;br&gt;Location: 329388 - 329982" locus_tag="ctg3_300" class="clusterblast-orf" id="subclusterblast-2_q4_0_all"  />
<polygon points="246,35 251,30 349,30 349,40 251,40 246,35 " style="fill:white; stroke-width:1; stroke:black; " description="&lt;b&gt;ctg3_301&lt;/b&gt;&lt;br&gt;ctg3 301&lt;br&gt;Location: 329999 - 331595" locus_tag="ctg3_301" class="clusterblast-orf" id="subclusterblast-2_q5_0_all"  />
<polygon points="350,35 355,30 460,30 460,40 355,40 350,35 " style="fill:white; stroke-width:1; stroke:black; " description="&lt;b&gt;ctg3_302&lt;/b&gt;&lt;br&gt;ctg3 302&lt;br&gt;Location: 331612 - 333322" locus_tag="ctg3_302" class="clusterblast-orf" id="subclusterblast-2_q6_0_all"  />
<polygon points="468,40 582,40 587,35 582,30 468,30 468,40 " style="fill:white; stroke-width:1; stroke:black; " description="&lt;b&gt;ctg3_303&lt;/b&gt;&lt;br&gt;ctg3 303&lt;br&gt;Location: 333436 - 335278" locus_tag="ctg3_303" class="clusterblast-orf" id="subclusterblast-2_q7_0_all"  />
<polygon points="587,40 610,40 615,35 610,30 587,30 587,40 " style="fill:white; stroke-width:1; stroke:black; " description="&lt;b&gt;ctg3_304&lt;/b&gt;&lt;br&gt;ctg3 304&lt;br&gt;Location: 335290 - 335722" locus_tag="ctg3_304" class="clusterblast-orf" id="subclusterblast-2_q8_0_all"  />
<polygon points="616,35 621,30 673,30 673,40 621,40 616,35 " style="fill:white; stroke-width:1; stroke:black; " description="&lt;b&gt;ctg3_305&lt;/b&gt;&lt;br&gt;ctg3 305&lt;br&gt;Location: 335740 - 336610" locus_tag="ctg3_305" class="clusterblast-orf" id="subclusterblast-2_q9_0_all"  />
<polygon points="673,35 678,30 702,30 702,40 678,40 673,35 " style="fill:white; stroke-width:1; stroke:black; " description="&lt;b&gt;ctg3_306&lt;/b&gt;&lt;br&gt;ctg3 306&lt;br&gt;Location: 336611 - 337058" locus_tag="ctg3_306" class="clusterblast-orf" id="subclusterblast-2_q10_0_all"  />
<polygon points="701,35 706,30 732,30 732,40 706,40 701,35 " style="fill:white; stroke-width:1; stroke:black; " description="&lt;b&gt;ctg3_307&lt;/b&gt;&lt;br&gt;ctg3 307&lt;br&gt;Location: 337054 - 337525" locus_tag="ctg3_307" class="clusterblast-orf" id="subclusterblast-2_q11_0_all"  />
<polygon points="732,35 737,30 780,30 780,40 737,40 732,35 " style="fill:white; stroke-width:1; stroke:black; " description="&lt;b&gt;ctg3_308&lt;/b&gt;&lt;br&gt;ctg3 308&lt;br&gt;Location: 337521 - 338274" locus_tag="ctg3_308" class="clusterblast-orf" id="subclusterblast-2_q12_0_all"  />
</g>
</svg>
