<svg xmlns="http://www.w3.org/2000/svg" xmlns:xlink="http://www.w3.org/1999/xlink" version="1.1" x="0" y="0" height="50" width="800" viewBox="0 0 800 50" preserveAspectRatio="none"  >
<g label="Query sequence" class="clusterblast-cluster"  >
<text x="5" y="20" class="clusterblast-acc"  >
Query sequence</text>
<line x1="10" y1="35" x2="778.0" y2="35" style="stroke-width:1; stroke:grey; "  />
<polygon points="0,35 5,30 11,30 11,40 5,40 0,35 " style="fill:white; stroke-width:1; stroke:black; " description="&lt;b&gt;ctg29_7&lt;/b&gt;&lt;br&gt;ctg29 7&lt;br&gt;Location: 7524 - 8100" locus_tag="ctg29_7" class="clusterblast-orf" id="subclusterblast-1_q0_0_all"  />
<polygon points="12,35 17,30 21,30 21,40 17,40 12,35 " style="fill:white; stroke-width:1; stroke:black; " description="&lt;b&gt;ctg29_8&lt;/b&gt;&lt;br&gt;ctg29 8&lt;br&gt;Location: 8150 - 8579" locus_tag="ctg29_8" class="clusterblast-orf" id="subclusterblast-1_q1_0_all"  />
<polygon points="23,35 28,30 40,30 40,40 28,40 23,35 " style="fill:white; stroke-width:1; stroke:black; " description="&lt;b&gt;ctg29_9&lt;/b&gt;&lt;br&gt;ctg29 9&lt;br&gt;Location: 8701 - 9580" locus_tag="ctg29_9" class="clusterblast-orf" id="subclusterblast-1_q2_0_all"  />
<polygon points="41,35 46,30 69,30 69,40 46,40 41,35 " style="fill:white; stroke-width:1; stroke:black; " description="&lt;b&gt;ctg29_10&lt;/b&gt;&lt;br&gt;ctg29 10&lt;br&gt;Location: 9599 - 11024" locus_tag="ctg29_10" class="clusterblast-orf" id="subclusterblast-1_q3_0_all"  />
<polygon points="72,40 114,40 119,35 114,30 72,30 72,40 " style="fill:white; stroke-width:1; stroke:black; " description="&lt;b&gt;ctg29_11&lt;/b&gt;&lt;br&gt;ctg29 11&lt;br&gt;Location: 11157 - 13530" locus_tag="ctg29_11" class="clusterblast-orf" id="subclusterblast-1_q4_0_all"  />
<polygon points="118,40 129,40 134,35 129,30 118,30 118,40 " style="fill:white; stroke-width:1; stroke:black; " description="&lt;b&gt;ctg29_12&lt;/b&gt;&lt;br&gt;ctg29 12&lt;br&gt;Location: 13513 - 14302" locus_tag="ctg29_12" class="clusterblast-orf" id="subclusterblast-1_q5_0_all"  />
<polygon points="134,40 139,40 144,35 139,30 134,30 134,40 " style="fill:white; stroke-width:1; stroke:black; " description="&lt;b&gt;ctg29_13&lt;/b&gt;&lt;br&gt;ctg29 13&lt;br&gt;Location: 14298 - 14787" locus_tag="ctg29_13" class="clusterblast-orf" id="subclusterblast-1_q6_0_all"  />
<polygon points="143,40 148,40 153,35 148,30 143,30 143,40 " style="fill:white; stroke-width:1; stroke:black; " description="&lt;b&gt;ctg29_14&lt;/b&gt;&lt;br&gt;ctg29 14&lt;br&gt;Location: 14783 - 15251" locus_tag="ctg29_14" class="clusterblast-orf" id="subclusterblast-1_q7_0_all"  />
<polygon points="154,35 158,30 158,40 154,35 " style="fill:white; stroke-width:1; stroke:black; " description="&lt;b&gt;ctg29_15&lt;/b&gt;&lt;br&gt;ctg29 15&lt;br&gt;Location: 15336 - 15528" locus_tag="ctg29_15" class="clusterblast-orf" id="subclusterblast-1_q8_0_all"  />
<polygon points="161,40 215,40 220,35 215,30 161,30 161,40 " style="fill:white; stroke-width:1; stroke:black; " description="&lt;b&gt;ctg29_16&lt;/b&gt;&lt;br&gt;ctg29 16&lt;br&gt;Location: 15678 - 18642" locus_tag="ctg29_16" class="clusterblast-orf" id="subclusterblast-1_q9_0_all"  />
<polygon points="221,40 243,40 248,35 243,30 221,30 221,40 " style="fill:white; stroke-width:1; stroke:black; " description="&lt;b&gt;ctg29_17&lt;/b&gt;&lt;br&gt;ctg29 17&lt;br&gt;Location: 18693 - 20055" locus_tag="ctg29_17" class="clusterblast-orf" id="subclusterblast-1_q10_0_all"  />
<polygon points="252,40 265,40 270,35 265,30 252,30 252,40 " style="fill:white; stroke-width:1; stroke:black; " description="&lt;b&gt;ctg29_18&lt;/b&gt;&lt;br&gt;ctg29 18&lt;br&gt;Location: 20273 - 21152" locus_tag="ctg29_18" class="clusterblast-orf" id="subclusterblast-1_q11_0_all"  />
<polygon points="280,35 285,30 299,30 299,40 285,40 280,35 " style="fill:white; stroke-width:1; stroke:black; " description="&lt;b&gt;ctg29_19&lt;/b&gt;&lt;br&gt;ctg29 19&lt;br&gt;Location: 21656 - 22643" locus_tag="ctg29_19" class="clusterblast-orf" id="subclusterblast-1_q12_0_all"  />
<polygon points="301,40 325,40 330,35 325,30 301,30 301,40 " style="fill:white; stroke-width:1; stroke:black; " description="&lt;b&gt;ctg29_20&lt;/b&gt;&lt;br&gt;ctg29 20&lt;br&gt;Location: 22758 - 24195" locus_tag="ctg29_20" class="clusterblast-orf" id="subclusterblast-1_q13_0_all"  />
<polygon points="330,40 343,40 348,35 343,30 330,30 330,40 " style="fill:white; stroke-width:1; stroke:black; " description="&lt;b&gt;ctg29_21&lt;/b&gt;&lt;br&gt;ctg29 21&lt;br&gt;Location: 24206 - 25127" locus_tag="ctg29_21" class="clusterblast-orf" id="subclusterblast-1_q14_0_all"  />
<polygon points="348,40 362,40 367,35 362,30 348,30 348,40 " style="fill:white; stroke-width:1; stroke:black; " description="&lt;b&gt;ctg29_22&lt;/b&gt;&lt;br&gt;ctg29 22&lt;br&gt;Location: 25123 - 26083" locus_tag="ctg29_22" class="clusterblast-orf" id="subclusterblast-1_q15_0_all"  />
<polygon points="367,35 372,30 412,30 412,40 372,40 367,35 " style="fill:white; stroke-width:1; stroke:black; " description="&lt;b&gt;ctg29_23&lt;/b&gt;&lt;br&gt;ctg29 23&lt;br&gt;Location: 26092 - 28342" locus_tag="ctg29_23" class="clusterblast-orf" id="subclusterblast-1_q16_0_all"  />
<polygon points="412,35 417,30 427,30 427,40 417,40 412,35 " style="fill:white; stroke-width:1; stroke:black; " description="&lt;b&gt;ctg29_24&lt;/b&gt;&lt;br&gt;ctg29 24&lt;br&gt;Location: 28341 - 29097" locus_tag="ctg29_24" class="clusterblast-orf" id="subclusterblast-1_q17_0_all"  />
<polygon points="427,35 432,30 437,30 437,40 432,40 427,35 " style="fill:white; stroke-width:1; stroke:black; " description="&lt;b&gt;ctg29_25&lt;/b&gt;&lt;br&gt;ctg29 25&lt;br&gt;Location: 29093 - 29624" locus_tag="ctg29_25" class="clusterblast-orf" id="subclusterblast-1_q18_0_all"  />
<polygon points="441,40 480,40 485,35 480,30 441,30 441,40 " style="fill:white; stroke-width:1; stroke:black; " description="&lt;b&gt;ctg29_26&lt;/b&gt;&lt;br&gt;ctg29 26&lt;br&gt;Location: 29817 - 32016" locus_tag="ctg29_26" class="clusterblast-orf" id="subclusterblast-1_q19_0_all"  />
<polygon points="487,35 492,30 504,30 504,40 492,40 487,35 " style="fill:white; stroke-width:1; stroke:black; " description="&lt;b&gt;ctg29_27&lt;/b&gt;&lt;br&gt;ctg29 27&lt;br&gt;Location: 32116 - 32995" locus_tag="ctg29_27" class="clusterblast-orf" id="subclusterblast-1_q20_0_all"  />
<polygon points="506,40 512,40 517,35 512,30 506,30 506,40 " style="fill:white; stroke-width:1; stroke:black; " description="&lt;b&gt;ctg29_28&lt;/b&gt;&lt;br&gt;ctg29 28&lt;br&gt;Location: 33073 - 33661" locus_tag="ctg29_28" class="clusterblast-orf" id="subclusterblast-1_q21_0_all"  />
<polygon points="533,35 538,30 541,30 541,40 538,40 533,35 " style="fill:white; stroke-width:1; stroke:black; " description="&lt;b&gt;ctg29_29&lt;/b&gt;&lt;br&gt;ctg29 29&lt;br&gt;Location: 34440 - 34842" locus_tag="ctg29_29" class="clusterblast-orf" id="subclusterblast-1_q22_0_all"  />
<polygon points="541,35 546,30 555,30 555,40 546,40 541,35 " style="fill:white; stroke-width:1; stroke:black; " description="&lt;b&gt;ctg29_30&lt;/b&gt;&lt;br&gt;ctg29 30&lt;br&gt;Location: 34834 - 35584" locus_tag="ctg29_30" class="clusterblast-orf" id="subclusterblast-1_q23_0_all"  />
<polygon points="557,40 557,40 562,35 557,30 557,30 557,40 " style="fill:white; stroke-width:1; stroke:black; " description="&lt;b&gt;ctg29_31&lt;/b&gt;&lt;br&gt;ctg29 31&lt;br&gt;Location: 35652 - 35898" locus_tag="ctg29_31" class="clusterblast-orf" id="subclusterblast-1_q24_0_all"  />
<polygon points="561,40 562,40 567,35 562,30 561,30 561,40 " style="fill:white; stroke-width:1; stroke:black; " description="&lt;b&gt;ctg29_32&lt;/b&gt;&lt;br&gt;ctg29 32&lt;br&gt;Location: 35894 - 36176" locus_tag="ctg29_32" class="clusterblast-orf" id="subclusterblast-1_q25_0_all"  />
<polygon points="579,40 584,40 589,35 584,30 579,30 579,40 " style="fill:white; stroke-width:1; stroke:black; " description="&lt;b&gt;ctg29_33&lt;/b&gt;&lt;br&gt;ctg29 33&lt;br&gt;Location: 36767 - 37274" locus_tag="ctg29_33" class="clusterblast-orf" id="subclusterblast-1_q26_0_all"  />
<polygon points="589,35 594,30 600,30 600,40 594,40 589,35 " style="fill:white; stroke-width:1; stroke:black; " description="&lt;b&gt;ctg29_34&lt;/b&gt;&lt;br&gt;ctg29 34&lt;br&gt;Location: 37275 - 37824" locus_tag="ctg29_34" class="clusterblast-orf" id="subclusterblast-1_q27_0_all"  />
<polygon points="600,35 605,30 620,30 620,40 605,40 600,35 " style="fill:white; stroke-width:1; stroke:black; " description="&lt;b&gt;ctg29_35&lt;/b&gt;&lt;br&gt;ctg29 35&lt;br&gt;Location: 37851 - 38847" locus_tag="ctg29_35" class="clusterblast-orf" id="subclusterblast-1_q28_0_all"  />
<polygon points="620,35 625,30 647,30 647,40 625,40 620,35 " style="fill:white; stroke-width:1; stroke:black; " description="&lt;b&gt;ctg29_36&lt;/b&gt;&lt;br&gt;ctg29 36&lt;br&gt;Location: 38850 - 40227" locus_tag="ctg29_36" class="clusterblast-orf" id="subclusterblast-1_q29_0_all"  />
<polygon points="650,40 659,40 664,35 659,30 650,30 650,40 " style="fill:white; stroke-width:1; stroke:black; " description="&lt;b&gt;ctg29_37&lt;/b&gt;&lt;br&gt;ctg29 37&lt;br&gt;Location: 40368 - 41052" locus_tag="ctg29_37" class="clusterblast-orf" id="subclusterblast-1_q30_0_all"  />
<polygon points="665,35 670,30 677,30 677,40 670,40 665,35 " style="fill:white; stroke-width:1; stroke:black; " description="&lt;b&gt;ctg29_38&lt;/b&gt;&lt;br&gt;ctg29 38&lt;br&gt;Location: 41103 - 41730" locus_tag="ctg29_38" class="clusterblast-orf" id="subclusterblast-1_q31_0_all"  />
<polygon points="680,40 687,40 692,35 687,30 680,30 680,40 " style="fill:white; stroke-width:1; stroke:black; " description="&lt;b&gt;ctg29_39&lt;/b&gt;&lt;br&gt;ctg29 39&lt;br&gt;Location: 41903 - 42461" locus_tag="ctg29_39" class="clusterblast-orf" id="subclusterblast-1_q32_0_all"  />
<polygon points="693,35 698,30 703,30 703,40 698,40 693,35 " style="fill:white; stroke-width:1; stroke:black; " description="&lt;b&gt;ctg29_40&lt;/b&gt;&lt;br&gt;ctg29 40&lt;br&gt;Location: 42511 - 43036" locus_tag="ctg29_40" class="clusterblast-orf" id="subclusterblast-1_q33_0_all"  />
<polygon points="703,35 708,30 722,30 722,40 708,40 703,35 " style="fill:white; stroke-width:1; stroke:black; " description="&lt;b&gt;ctg29_41&lt;/b&gt;&lt;br&gt;ctg29 41&lt;br&gt;Location: 43032 - 43980" locus_tag="ctg29_41" class="clusterblast-orf" id="subclusterblast-1_q34_0_all"  />
<polygon points="722,35 727,30 738,30 738,40 727,40 722,35 " style="fill:white; stroke-width:1; stroke:black; " description="&lt;b&gt;ctg29_42&lt;/b&gt;&lt;br&gt;ctg29 42&lt;br&gt;Location: 43986 - 44793" locus_tag="ctg29_42" class="clusterblast-orf" id="subclusterblast-1_q35_0_all"  />
<polygon points="740,35 745,30 752,30 752,40 745,40 740,35 " style="fill:white; stroke-width:1; stroke:black; " description="&lt;b&gt;ctg29_43&lt;/b&gt;&lt;br&gt;ctg29 43&lt;br&gt;Location: 44889 - 45525" locus_tag="ctg29_43" class="clusterblast-orf" id="subclusterblast-1_q36_0_all"  />
<polygon points="757,40 775,40 780,35 775,30 757,30 757,40 " style="fill:white; stroke-width:1; stroke:black; " description="&lt;b&gt;ctg29_44&lt;/b&gt;&lt;br&gt;ctg29 44&lt;br&gt;Location: 45785 - 46913" locus_tag="ctg29_44" class="clusterblast-orf" id="subclusterblast-1_q37_0_all"  />
</g>
</svg>
