<svg xmlns="http://www.w3.org/2000/svg" xmlns:xlink="http://www.w3.org/1999/xlink" version="1.1" x="0" y="0" height="50" width="800" viewBox="0 0 800 50" preserveAspectRatio="none"  >
<g label="Query sequence" class="clusterblast-cluster"  >
<text x="5" y="20" class="clusterblast-acc"  >
Query sequence</text>
<line x1="10" y1="35" x2="778.0" y2="35" style="stroke-width:1; stroke:grey; "  />
<polygon points="0,40 2,35 0,30 0,40 " style="fill:white; stroke-width:1; stroke:black; " description="&lt;b&gt;ctg32_1&lt;/b&gt;&lt;br&gt;ctg32 1&lt;br&gt;Location: 403 - 499" locus_tag="ctg32_1" class="clusterblast-orf" id="subclusterblast-1_q0_0_all"  />
<polygon points="5,35 10,30 25,30 25,40 10,40 5,35 " style="fill:white; stroke-width:1; stroke:black; " description="&lt;b&gt;ctg32_2&lt;/b&gt;&lt;br&gt;ctg32 2&lt;br&gt;Location: 580 - 1306" locus_tag="ctg32_2" class="clusterblast-orf" id="subclusterblast-1_q1_0_all"  />
<polygon points="25,35 30,30 56,30 56,40 30,40 25,35 " style="fill:white; stroke-width:1; stroke:black; " description="&lt;b&gt;ctg32_3&lt;/b&gt;&lt;br&gt;ctg32 3&lt;br&gt;Location: 1302 - 2427" locus_tag="ctg32_3" class="clusterblast-orf" id="subclusterblast-1_q2_0_all"  />
<polygon points="56,35 61,30 101,30 101,40 61,40 56,35 " style="fill:white; stroke-width:1; stroke:black; " description="&lt;b&gt;ctg32_4&lt;/b&gt;&lt;br&gt;ctg32 4&lt;br&gt;Location: 2413 - 4036" locus_tag="ctg32_4" class="clusterblast-orf" id="subclusterblast-1_q3_0_all"  />
<polygon points="103,35 108,30 146,30 146,40 108,40 103,35 " style="fill:white; stroke-width:1; stroke:black; " description="&lt;b&gt;ctg32_5&lt;/b&gt;&lt;br&gt;ctg32 5&lt;br&gt;Location: 4082 - 5630" locus_tag="ctg32_5" class="clusterblast-orf" id="subclusterblast-1_q4_0_all"  />
<polygon points="151,35 156,30 167,30 167,40 156,40 151,35 " style="fill:white; stroke-width:1; stroke:black; " description="&lt;b&gt;ctg32_6&lt;/b&gt;&lt;br&gt;ctg32 6&lt;br&gt;Location: 5800 - 6385" locus_tag="ctg32_6" class="clusterblast-orf" id="subclusterblast-1_q5_0_all"  />
<polygon points="167,40 188,40 193,35 188,30 167,30 167,40 " style="fill:white; stroke-width:1; stroke:black; " description="&lt;b&gt;ctg32_7&lt;/b&gt;&lt;br&gt;ctg32 7&lt;br&gt;Location: 6389 - 7325" locus_tag="ctg32_7" class="clusterblast-orf" id="subclusterblast-1_q6_0_all"  />
<polygon points="192,35 197,30 217,30 217,40 197,40 192,35 " style="fill:white; stroke-width:1; stroke:black; " description="&lt;b&gt;ctg32_8&lt;/b&gt;&lt;br&gt;ctg32 8&lt;br&gt;Location: 7291 - 8167" locus_tag="ctg32_8" class="clusterblast-orf" id="subclusterblast-1_q7_0_all"  />
<polygon points="231,40 241,40 246,35 241,30 231,30 231,40 " style="fill:white; stroke-width:1; stroke:black; " description="&lt;b&gt;ctg32_9&lt;/b&gt;&lt;br&gt;ctg32 9&lt;br&gt;Location: 8690 - 9200" locus_tag="ctg32_9" class="clusterblast-orf" id="subclusterblast-1_q8_0_all"  />
<polygon points="246,35 251,30 255,30 255,40 251,40 246,35 " style="fill:white; stroke-width:1; stroke:black; " description="&lt;b&gt;ctg32_10&lt;/b&gt;&lt;br&gt;ctg32 10&lt;br&gt;Location: 9213 - 9540" locus_tag="ctg32_10" class="clusterblast-orf" id="subclusterblast-1_q9_0_all"  />
<polygon points="266,40 270,35 266,30 266,40 " style="fill:white; stroke-width:1; stroke:black; " description="&lt;b&gt;ctg32_11&lt;/b&gt;&lt;br&gt;ctg32 11&lt;br&gt;Location: 9932 - 10079" locus_tag="ctg32_11" class="clusterblast-orf" id="subclusterblast-1_q10_0_all"  />
<polygon points="276,40 292,40 297,35 292,30 276,30 276,40 " style="fill:white; stroke-width:1; stroke:black; " description="&lt;b&gt;ctg32_12&lt;/b&gt;&lt;br&gt;ctg32 12&lt;br&gt;Location: 10286 - 11048" locus_tag="ctg32_12" class="clusterblast-orf" id="subclusterblast-1_q11_0_all"  />
<polygon points="297,40 323,40 328,35 323,30 297,30 297,40 " style="fill:white; stroke-width:1; stroke:black; " description="&lt;b&gt;ctg32_13&lt;/b&gt;&lt;br&gt;ctg32 13&lt;br&gt;Location: 11044 - 12145" locus_tag="ctg32_13" class="clusterblast-orf" id="subclusterblast-1_q12_0_all"  />
<polygon points="328,40 365,40 370,35 365,30 328,30 328,40 " style="fill:white; stroke-width:1; stroke:black; " description="&lt;b&gt;ctg32_14&lt;/b&gt;&lt;br&gt;ctg32 14&lt;br&gt;Location: 12163 - 13648" locus_tag="ctg32_14" class="clusterblast-orf" id="subclusterblast-1_q13_0_all"  />
<polygon points="370,40 397,40 402,35 397,30 370,30 370,40 " style="fill:white; stroke-width:1; stroke:black; " description="&lt;b&gt;ctg32_15&lt;/b&gt;&lt;br&gt;ctg32 15&lt;br&gt;Location: 13644 - 14787" locus_tag="ctg32_15" class="clusterblast-orf" id="subclusterblast-1_q14_0_all"  />
<polygon points="401,35 406,30 469,30 469,40 406,40 401,35 " style="fill:white; stroke-width:1; stroke:black; " description="&lt;b&gt;ctg32_16&lt;/b&gt;&lt;br&gt;ctg32 16&lt;br&gt;Location: 14767 - 17203" locus_tag="ctg32_16" class="clusterblast-orf" id="subclusterblast-1_q15_0_all"  />
<polygon points="469,35 474,30 476,30 476,40 474,40 469,35 " style="fill:white; stroke-width:1; stroke:black; " description="&lt;b&gt;ctg32_17&lt;/b&gt;&lt;br&gt;ctg32 17&lt;br&gt;Location: 17207 - 17444" locus_tag="ctg32_17" class="clusterblast-orf" id="subclusterblast-1_q16_0_all"  />
<polygon points="479,35 484,30 546,30 546,40 484,40 479,35 " style="fill:white; stroke-width:1; stroke:black; " description="&lt;b&gt;ctg32_18&lt;/b&gt;&lt;br&gt;ctg32 18&lt;br&gt;Location: 17541 - 19950" locus_tag="ctg32_18" class="clusterblast-orf" id="subclusterblast-1_q17_0_all"  />
<polygon points="546,35 551,30 577,30 577,40 551,40 546,35 " style="fill:white; stroke-width:1; stroke:black; " description="&lt;b&gt;ctg32_19&lt;/b&gt;&lt;br&gt;ctg32 19&lt;br&gt;Location: 19959 - 21057" locus_tag="ctg32_19" class="clusterblast-orf" id="subclusterblast-1_q18_0_all"  />
<polygon points="581,35 586,30 605,30 605,40 586,40 581,35 " style="fill:white; stroke-width:1; stroke:black; " description="&lt;b&gt;ctg32_20&lt;/b&gt;&lt;br&gt;ctg32 20&lt;br&gt;Location: 21189 - 22053" locus_tag="ctg32_20" class="clusterblast-orf" id="subclusterblast-1_q19_0_all"  />
<polygon points="604,35 609,30 621,30 621,40 609,40 604,35 " style="fill:white; stroke-width:1; stroke:black; " description="&lt;b&gt;ctg32_21&lt;/b&gt;&lt;br&gt;ctg32 21&lt;br&gt;Location: 22036 - 22639" locus_tag="ctg32_21" class="clusterblast-orf" id="subclusterblast-1_q20_0_all"  />
<polygon points="621,35 626,30 655,30 655,40 626,40 621,35 " style="fill:white; stroke-width:1; stroke:black; " description="&lt;b&gt;ctg32_22&lt;/b&gt;&lt;br&gt;ctg32 22&lt;br&gt;Location: 22642 - 23863" locus_tag="ctg32_22" class="clusterblast-orf" id="subclusterblast-1_q21_0_all"  />
<polygon points="658,40 673,40 678,35 673,30 658,30 658,40 " style="fill:white; stroke-width:1; stroke:black; " description="&lt;b&gt;ctg32_23&lt;/b&gt;&lt;br&gt;ctg32 23&lt;br&gt;Location: 23957 - 24680" locus_tag="ctg32_23" class="clusterblast-orf" id="subclusterblast-1_q22_0_all"  />
<polygon points="678,40 696,40 701,35 696,30 678,30 678,40 " style="fill:white; stroke-width:1; stroke:black; " description="&lt;b&gt;ctg32_24&lt;/b&gt;&lt;br&gt;ctg32 24&lt;br&gt;Location: 24676 - 25504" locus_tag="ctg32_24" class="clusterblast-orf" id="subclusterblast-1_q23_0_all"  />
<polygon points="700,35 705,30 738,30 738,40 705,40 700,35 " style="fill:white; stroke-width:1; stroke:black; " description="&lt;b&gt;ctg32_25&lt;/b&gt;&lt;br&gt;ctg32 25&lt;br&gt;Location: 25455 - 26811" locus_tag="ctg32_25" class="clusterblast-orf" id="subclusterblast-1_q24_0_all"  />
<polygon points="741,40 775,40 780,35 775,30 741,30 741,40 " style="fill:white; stroke-width:1; stroke:black; " description="&lt;b&gt;ctg32_26&lt;/b&gt;&lt;br&gt;ctg32 26&lt;br&gt;Location: 26938 - 28312" locus_tag="ctg32_26" class="clusterblast-orf" id="subclusterblast-1_q25_0_all"  />
</g>
</svg>
