<svg xmlns="http://www.w3.org/2000/svg" xmlns:xlink="http://www.w3.org/1999/xlink" version="1.1" x="0" y="0" height="50" width="800" viewBox="0 0 800 50" preserveAspectRatio="none"  >
<g label="Query sequence" class="clusterblast-cluster"  >
<text x="5" y="20" class="clusterblast-acc"  >
Query sequence</text>
<line x1="10" y1="35" x2="778.0" y2="35" style="stroke-width:1; stroke:grey; "  />
<polygon points="0,40 20,40 25,35 20,30 0,30 0,40 " style="fill:white; stroke-width:1; stroke:black; " description="&lt;b&gt;ctg1_26&lt;/b&gt;&lt;br&gt;ctg1 26&lt;br&gt;Location: 28841 - 30176" locus_tag="ctg1_26" class="clusterblast-orf" id="subclusterblast-1_q0_0_all"  />
<polygon points="25,40 48,40 53,35 48,30 25,30 25,40 " style="fill:white; stroke-width:1; stroke:black; " description="&lt;b&gt;ctg1_27&lt;/b&gt;&lt;br&gt;ctg1 27&lt;br&gt;Location: 30178 - 31630" locus_tag="ctg1_27" class="clusterblast-orf" id="subclusterblast-1_q1_0_all"  />
<polygon points="53,40 62,40 67,35 62,30 53,30 53,40 " style="fill:white; stroke-width:1; stroke:black; " description="&lt;b&gt;ctg1_28&lt;/b&gt;&lt;br&gt;ctg1 28&lt;br&gt;Location: 31626 - 32361" locus_tag="ctg1_28" class="clusterblast-orf" id="subclusterblast-1_q2_0_all"  />
<polygon points="68,40 71,35 68,30 68,40 " style="fill:white; stroke-width:1; stroke:black; " description="&lt;b&gt;ctg1_29&lt;/b&gt;&lt;br&gt;ctg1 29&lt;br&gt;Location: 32436 - 32577" locus_tag="ctg1_29" class="clusterblast-orf" id="subclusterblast-1_q3_0_all"  />
<polygon points="71,35 76,30 96,30 96,40 76,40 71,35 " style="fill:white; stroke-width:1; stroke:black; " description="&lt;b&gt;ctg1_30&lt;/b&gt;&lt;br&gt;ctg1 30&lt;br&gt;Location: 32573 - 33926" locus_tag="ctg1_30" class="clusterblast-orf" id="subclusterblast-1_q4_0_all"  />
<polygon points="97,35 99,30 99,40 97,35 " style="fill:white; stroke-width:1; stroke:black; " description="&lt;b&gt;ctg1_31&lt;/b&gt;&lt;br&gt;ctg1 31&lt;br&gt;Location: 33971 - 34079" locus_tag="ctg1_31" class="clusterblast-orf" id="subclusterblast-1_q5_0_all"  />
<polygon points="101,40 125,40 130,35 125,30 101,30 101,40 " style="fill:white; stroke-width:1; stroke:black; " description="&lt;b&gt;ctg1_32&lt;/b&gt;&lt;br&gt;ctg1 32&lt;br&gt;Location: 34189 - 35692" locus_tag="ctg1_32" class="clusterblast-orf" id="subclusterblast-1_q6_0_all"  />
<polygon points="129,40 151,40 156,35 151,30 129,30 129,40 " style="fill:white; stroke-width:1; stroke:black; " description="&lt;b&gt;ctg1_33&lt;/b&gt;&lt;br&gt;ctg1 33&lt;br&gt;Location: 35637 - 37089" locus_tag="ctg1_33" class="clusterblast-orf" id="subclusterblast-1_q7_0_all"  />
<polygon points="157,35 162,30 171,30 171,40 162,40 157,35 " style="fill:white; stroke-width:1; stroke:black; " description="&lt;b&gt;ctg1_34&lt;/b&gt;&lt;br&gt;ctg1 34&lt;br&gt;Location: 37107 - 37848" locus_tag="ctg1_34" class="clusterblast-orf" id="subclusterblast-1_q8_0_all"  />
<polygon points="173,40 210,40 215,35 210,30 173,30 173,40 " style="fill:white; stroke-width:1; stroke:black; " description="&lt;b&gt;ctg1_35&lt;/b&gt;&lt;br&gt;ctg1 35&lt;br&gt;Location: 37945 - 40201" locus_tag="ctg1_35" class="clusterblast-orf" id="subclusterblast-1_q9_0_all"  />
<polygon points="216,35 221,30 237,30 237,40 221,40 216,35 " style="fill:white; stroke-width:1; stroke:black; " description="&lt;b&gt;ctg1_36&lt;/b&gt;&lt;br&gt;ctg1 36&lt;br&gt;Location: 40237 - 41320" locus_tag="ctg1_36" class="clusterblast-orf" id="subclusterblast-1_q10_0_all"  />
<polygon points="238,35 243,30 267,30 267,40 243,40 238,35 " style="fill:white; stroke-width:1; stroke:black; " description="&lt;b&gt;ctg1_37&lt;/b&gt;&lt;br&gt;ctg1 37&lt;br&gt;Location: 41387 - 42932" locus_tag="ctg1_37" class="clusterblast-orf" id="subclusterblast-1_q11_0_all"  />
<polygon points="270,35 275,30 283,30 283,40 275,40 270,35 " style="fill:white; stroke-width:1; stroke:black; " description="&lt;b&gt;ctg1_38&lt;/b&gt;&lt;br&gt;ctg1 38&lt;br&gt;Location: 43048 - 43777" locus_tag="ctg1_38" class="clusterblast-orf" id="subclusterblast-1_q12_0_all"  />
<polygon points="284,35 289,30 294,30 294,40 289,40 284,35 " style="fill:white; stroke-width:1; stroke:black; " description="&lt;b&gt;ctg1_39&lt;/b&gt;&lt;br&gt;ctg1 39&lt;br&gt;Location: 43786 - 44344" locus_tag="ctg1_39" class="clusterblast-orf" id="subclusterblast-1_q13_0_all"  />
<polygon points="296,35 301,30 304,30 304,40 301,40 296,35 " style="fill:white; stroke-width:1; stroke:black; " description="&lt;b&gt;ctg1_40&lt;/b&gt;&lt;br&gt;ctg1 40&lt;br&gt;Location: 44420 - 44879" locus_tag="ctg1_40" class="clusterblast-orf" id="subclusterblast-1_q14_0_all"  />
<polygon points="306,40 319,40 324,35 319,30 306,30 306,40 " style="fill:white; stroke-width:1; stroke:black; " description="&lt;b&gt;ctg1_41&lt;/b&gt;&lt;br&gt;ctg1 41&lt;br&gt;Location: 44978 - 45905" locus_tag="ctg1_41" class="clusterblast-orf" id="subclusterblast-1_q15_0_all"  />
<polygon points="324,40 336,40 341,35 336,30 324,30 324,40 " style="fill:white; stroke-width:1; stroke:black; " description="&lt;b&gt;ctg1_42&lt;/b&gt;&lt;br&gt;ctg1 42&lt;br&gt;Location: 45912 - 46821" locus_tag="ctg1_42" class="clusterblast-orf" id="subclusterblast-1_q16_0_all"  />
<polygon points="341,40 347,40 352,35 347,30 341,30 341,40 " style="fill:white; stroke-width:1; stroke:black; " description="&lt;b&gt;ctg1_43&lt;/b&gt;&lt;br&gt;ctg1 43&lt;br&gt;Location: 46822 - 47407" locus_tag="ctg1_43" class="clusterblast-orf" id="subclusterblast-1_q17_0_all"  />
<polygon points="357,40 404,40 409,35 404,30 357,30 357,40 " style="fill:white; stroke-width:1; stroke:black; " description="&lt;b&gt;ctg1_44&lt;/b&gt;&lt;br&gt;ctg1 44&lt;br&gt;Location: 47631 - 50388" locus_tag="ctg1_44" class="clusterblast-orf" id="subclusterblast-1_q18_0_all"  />
<polygon points="409,35 414,30 420,30 420,40 414,40 409,35 " style="fill:white; stroke-width:1; stroke:black; " description="&lt;b&gt;ctg1_45&lt;/b&gt;&lt;br&gt;ctg1 45&lt;br&gt;Location: 50384 - 50966" locus_tag="ctg1_45" class="clusterblast-orf" id="subclusterblast-1_q19_0_all"  />
<polygon points="422,40 437,40 442,35 437,30 422,30 422,40 " style="fill:white; stroke-width:1; stroke:black; " description="&lt;b&gt;ctg1_46&lt;/b&gt;&lt;br&gt;ctg1 46&lt;br&gt;Location: 51099 - 52113" locus_tag="ctg1_46" class="clusterblast-orf" id="subclusterblast-1_q20_0_all"  />
<polygon points="442,35 447,30 452,30 452,40 447,40 442,35 " style="fill:white; stroke-width:1; stroke:black; " description="&lt;b&gt;ctg1_47&lt;/b&gt;&lt;br&gt;ctg1 47&lt;br&gt;Location: 52114 - 52633" locus_tag="ctg1_47" class="clusterblast-orf" id="subclusterblast-1_q21_0_all"  />
<polygon points="453,35 458,30 477,30 477,40 458,40 453,35 " style="fill:white; stroke-width:1; stroke:black; " description="&lt;b&gt;ctg1_48&lt;/b&gt;&lt;br&gt;ctg1 48&lt;br&gt;Location: 52724 - 53984" locus_tag="ctg1_48" class="clusterblast-orf" id="subclusterblast-1_q22_0_all"  />
<polygon points="478,40 495,40 500,35 495,30 478,30 478,40 " style="fill:white; stroke-width:1; stroke:black; " description="&lt;b&gt;ctg1_49&lt;/b&gt;&lt;br&gt;ctg1 49&lt;br&gt;Location: 54033 - 55167" locus_tag="ctg1_49" class="clusterblast-orf" id="subclusterblast-1_q23_0_all"  />
<polygon points="500,35 505,30 522,30 522,40 505,40 500,35 " style="fill:white; stroke-width:1; stroke:black; " description="&lt;b&gt;ctg1_50&lt;/b&gt;&lt;br&gt;ctg1 50&lt;br&gt;Location: 55163 - 56339" locus_tag="ctg1_50" class="clusterblast-orf" id="subclusterblast-1_q24_0_all"  />
<polygon points="525,40 528,35 525,30 525,40 " style="fill:white; stroke-width:1; stroke:black; " description="&lt;b&gt;ctg1_51&lt;/b&gt;&lt;br&gt;ctg1 51&lt;br&gt;Location: 56480 - 56657" locus_tag="ctg1_51" class="clusterblast-orf" id="subclusterblast-1_q25_0_all"  />
<polygon points="530,40 535,40 540,35 535,30 530,30 530,40 " style="fill:white; stroke-width:1; stroke:black; " description="&lt;b&gt;ctg1_52&lt;/b&gt;&lt;br&gt;ctg1 52&lt;br&gt;Location: 56740 - 57271" locus_tag="ctg1_52" class="clusterblast-orf" id="subclusterblast-1_q26_0_all"  />
<polygon points="540,35 545,30 550,30 550,40 545,40 540,35 " style="fill:white; stroke-width:1; stroke:black; " description="&lt;b&gt;ctg1_53&lt;/b&gt;&lt;br&gt;ctg1 53&lt;br&gt;Location: 57292 - 57790" locus_tag="ctg1_53" class="clusterblast-orf" id="subclusterblast-1_q27_0_all"  />
<polygon points="552,35 557,30 569,30 569,40 557,40 552,35 " style="fill:white; stroke-width:1; stroke:black; " description="&lt;b&gt;ctg1_54&lt;/b&gt;&lt;br&gt;ctg1 54&lt;br&gt;Location: 57903 - 58833" locus_tag="ctg1_54" class="clusterblast-orf" id="subclusterblast-1_q28_0_all"  />
<polygon points="571,40 574,40 579,35 574,30 571,30 571,40 " style="fill:white; stroke-width:1; stroke:black; " description="&lt;b&gt;ctg1_55&lt;/b&gt;&lt;br&gt;ctg1 55&lt;br&gt;Location: 58908 - 59325" locus_tag="ctg1_55" class="clusterblast-orf" id="subclusterblast-1_q29_0_all"  />
<polygon points="580,40 583,35 580,30 580,40 " style="fill:white; stroke-width:1; stroke:black; " description="&lt;b&gt;ctg1_56&lt;/b&gt;&lt;br&gt;ctg1 56&lt;br&gt;Location: 59377 - 59539" locus_tag="ctg1_56" class="clusterblast-orf" id="subclusterblast-1_q30_0_all"  />
<polygon points="583,40 587,35 583,30 583,40 " style="fill:white; stroke-width:1; stroke:black; " description="&lt;b&gt;ctg1_57&lt;/b&gt;&lt;br&gt;ctg1 57&lt;br&gt;Location: 59535 - 59748" locus_tag="ctg1_57" class="clusterblast-orf" id="subclusterblast-1_q31_0_all"  />
<polygon points="587,40 616,40 621,35 616,30 587,30 587,40 " style="fill:white; stroke-width:1; stroke:black; " description="&lt;b&gt;ctg1_58&lt;/b&gt;&lt;br&gt;ctg1 58&lt;br&gt;Location: 59747 - 61532" locus_tag="ctg1_58" class="clusterblast-orf" id="subclusterblast-1_q32_0_all"  />
<polygon points="621,35 626,30 656,30 656,40 626,40 621,35 " style="fill:white; stroke-width:1; stroke:black; " description="&lt;b&gt;ctg1_59&lt;/b&gt;&lt;br&gt;ctg1 59&lt;br&gt;Location: 61536 - 63417" locus_tag="ctg1_59" class="clusterblast-orf" id="subclusterblast-1_q33_0_all"  />
<polygon points="658,35 663,30 680,30 680,40 663,40 658,35 " style="fill:white; stroke-width:1; stroke:black; " description="&lt;b&gt;ctg1_60&lt;/b&gt;&lt;br&gt;ctg1 60&lt;br&gt;Location: 63489 - 64677" locus_tag="ctg1_60" class="clusterblast-orf" id="subclusterblast-1_q34_0_all"  />
<polygon points="682,40 687,40 692,35 687,30 682,30 682,40 " style="fill:white; stroke-width:1; stroke:black; " description="&lt;b&gt;ctg1_61&lt;/b&gt;&lt;br&gt;ctg1 61&lt;br&gt;Location: 64752 - 65292" locus_tag="ctg1_61" class="clusterblast-orf" id="subclusterblast-1_q35_0_all"  />
<polygon points="692,40 698,40 703,35 698,30 692,30 692,40 " style="fill:white; stroke-width:1; stroke:black; " description="&lt;b&gt;ctg1_62&lt;/b&gt;&lt;br&gt;ctg1 62&lt;br&gt;Location: 65288 - 65885" locus_tag="ctg1_62" class="clusterblast-orf" id="subclusterblast-1_q36_0_all"  />
<polygon points="704,35 709,30 714,30 714,40 709,40 704,35 " style="fill:white; stroke-width:1; stroke:black; " description="&lt;b&gt;ctg1_63&lt;/b&gt;&lt;br&gt;ctg1 63&lt;br&gt;Location: 65905 - 66466" locus_tag="ctg1_63" class="clusterblast-orf" id="subclusterblast-1_q37_0_all"  />
<polygon points="716,40 736,40 741,35 736,30 716,30 716,40 " style="fill:white; stroke-width:1; stroke:black; " description="&lt;b&gt;ctg1_64&lt;/b&gt;&lt;br&gt;ctg1 64&lt;br&gt;Location: 66534 - 67869" locus_tag="ctg1_64" class="clusterblast-orf" id="subclusterblast-1_q38_0_all"  />
<polygon points="741,35 746,30 780,30 780,40 746,40 741,35 " style="fill:white; stroke-width:1; stroke:black; " description="&lt;b&gt;ctg1_65&lt;/b&gt;&lt;br&gt;ctg1 65&lt;br&gt;Location: 67852 - 69904" locus_tag="ctg1_65" class="clusterblast-orf" id="subclusterblast-1_q39_0_all"  />
</g>
</svg>
