<svg xmlns="http://www.w3.org/2000/svg" xmlns:xlink="http://www.w3.org/1999/xlink" version="1.1" x="0" y="0" height="50" width="800" viewBox="0 0 800 50" preserveAspectRatio="none"  >
<g label="Query sequence" class="clusterblast-cluster"  >
<text x="5" y="20" class="clusterblast-acc"  >
Query sequence</text>
<line x1="10" y1="35" x2="778.0" y2="35" style="stroke-width:1; stroke:grey; "  />
<polygon points="0,40 2,40 7,35 2,30 0,30 0,40 " style="fill:white; stroke-width:1; stroke:black; " description="&lt;b&gt;ctg3_125&lt;/b&gt;&lt;br&gt;ctg3 125&lt;br&gt;Location: 138093 - 138297" locus_tag="ctg3_125" class="clusterblast-orf" id="subclusterblast-1_q0_0_all"  />
<polygon points="24,35 29,30 54,30 54,40 29,40 24,35 " style="fill:white; stroke-width:1; stroke:black; " description="&lt;b&gt;ctg3_126&lt;/b&gt;&lt;br&gt;ctg3 126&lt;br&gt;Location: 138759 - 139572" locus_tag="ctg3_126" class="clusterblast-orf" id="subclusterblast-1_q1_0_all"  />
<polygon points="54,35 59,30 88,30 88,40 59,40 54,35 " style="fill:white; stroke-width:1; stroke:black; " description="&lt;b&gt;ctg3_127&lt;/b&gt;&lt;br&gt;ctg3 127&lt;br&gt;Location: 139590 - 140505" locus_tag="ctg3_127" class="clusterblast-orf" id="subclusterblast-1_q2_0_all"  />
<polygon points="88,35 93,30 126,30 126,40 93,40 88,35 " style="fill:white; stroke-width:1; stroke:black; " description="&lt;b&gt;ctg3_128&lt;/b&gt;&lt;br&gt;ctg3 128&lt;br&gt;Location: 140521 - 141547" locus_tag="ctg3_128" class="clusterblast-orf" id="subclusterblast-1_q3_0_all"  />
<polygon points="126,35 131,30 132,30 132,40 131,40 126,35 " style="fill:white; stroke-width:1; stroke:black; " description="&lt;b&gt;ctg3_129&lt;/b&gt;&lt;br&gt;ctg3 129&lt;br&gt;Location: 141550 - 141727" locus_tag="ctg3_129" class="clusterblast-orf" id="subclusterblast-1_q4_0_all"  />
<polygon points="135,40 193,40 198,35 193,30 135,30 135,40 " style="fill:white; stroke-width:1; stroke:black; " description="&lt;b&gt;ctg3_130&lt;/b&gt;&lt;br&gt;ctg3 130&lt;br&gt;Location: 141790 - 143521" locus_tag="ctg3_130" class="clusterblast-orf" id="subclusterblast-1_q5_0_all"  />
<polygon points="197,40 225,40 230,35 225,30 197,30 197,40 " style="fill:white; stroke-width:1; stroke:black; " description="&lt;b&gt;ctg3_131&lt;/b&gt;&lt;br&gt;ctg3 131&lt;br&gt;Location: 143505 - 144408" locus_tag="ctg3_131" class="clusterblast-orf" id="subclusterblast-1_q6_0_all"  />
<polygon points="230,40 268,40 273,35 268,30 230,30 230,40 " style="fill:white; stroke-width:1; stroke:black; " description="&lt;b&gt;ctg3_132&lt;/b&gt;&lt;br&gt;ctg3 132&lt;br&gt;Location: 144404 - 145583" locus_tag="ctg3_132" class="clusterblast-orf" id="subclusterblast-1_q7_0_all"  />
<polygon points="273,40 339,40 344,35 339,30 273,30 273,40 " style="fill:white; stroke-width:1; stroke:black; " description="&lt;b&gt;ctg3_133&lt;/b&gt;&lt;br&gt;ctg3 133&lt;br&gt;Location: 145579 - 147526" locus_tag="ctg3_133" class="clusterblast-orf" id="subclusterblast-1_q8_0_all"  />
<polygon points="348,40 358,40 363,35 358,30 348,30 348,40 " style="fill:white; stroke-width:1; stroke:black; " description="&lt;b&gt;ctg3_134&lt;/b&gt;&lt;br&gt;ctg3 134&lt;br&gt;Location: 147643 - 148048" locus_tag="ctg3_134" class="clusterblast-orf" id="subclusterblast-1_q9_0_all"  />
<polygon points="365,40 385,40 390,35 385,30 365,30 365,40 " style="fill:white; stroke-width:1; stroke:black; " description="&lt;b&gt;ctg3_135&lt;/b&gt;&lt;br&gt;ctg3 135&lt;br&gt;Location: 148091 - 148778" locus_tag="ctg3_135" class="clusterblast-orf" id="subclusterblast-1_q10_0_all"  />
<polygon points="389,35 394,30 417,30 417,40 394,40 389,35 " style="fill:white; stroke-width:1; stroke:black; " description="&lt;b&gt;ctg3_136&lt;/b&gt;&lt;br&gt;ctg3 136&lt;br&gt;Location: 148770 - 149529" locus_tag="ctg3_136" class="clusterblast-orf" id="subclusterblast-1_q11_0_all"  />
<polygon points="417,35 422,30 467,30 467,40 422,40 417,35 " style="fill:white; stroke-width:1; stroke:black; " description="&lt;b&gt;ctg3_137&lt;/b&gt;&lt;br&gt;ctg3 137&lt;br&gt;Location: 149525 - 150902" locus_tag="ctg3_137" class="clusterblast-orf" id="subclusterblast-1_q12_0_all"  />
<polygon points="469,40 532,40 537,35 532,30 469,30 469,40 " style="fill:white; stroke-width:1; stroke:black; " description="&lt;b&gt;ctg3_138&lt;/b&gt;&lt;br&gt;ctg3 138&lt;br&gt;Location: 150952 - 152830" locus_tag="ctg3_138" class="clusterblast-orf" id="subclusterblast-1_q13_0_all"  />
<polygon points="546,40 575,40 580,35 575,30 546,30 546,40 " style="fill:white; stroke-width:1; stroke:black; " description="&lt;b&gt;ctg3_139&lt;/b&gt;&lt;br&gt;ctg3 139&lt;br&gt;Location: 153063 - 153990" locus_tag="ctg3_139" class="clusterblast-orf" id="subclusterblast-1_q14_0_all"  />
<polygon points="576,35 581,30 584,30 584,40 581,40 576,35 " style="fill:white; stroke-width:1; stroke:black; " description="&lt;b&gt;ctg3_140&lt;/b&gt;&lt;br&gt;ctg3 140&lt;br&gt;Location: 153897 - 154110" locus_tag="ctg3_140" class="clusterblast-orf" id="subclusterblast-1_q15_0_all"  />
<polygon points="585,35 590,30 602,30 602,40 590,40 585,35 " style="fill:white; stroke-width:1; stroke:black; " description="&lt;b&gt;ctg3_141&lt;/b&gt;&lt;br&gt;ctg3 141&lt;br&gt;Location: 154135 - 154612" locus_tag="ctg3_141" class="clusterblast-orf" id="subclusterblast-1_q16_0_all"  />
<polygon points="606,35 611,30 624,30 624,40 611,40 606,35 " style="fill:white; stroke-width:1; stroke:black; " description="&lt;b&gt;ctg3_142&lt;/b&gt;&lt;br&gt;ctg3 142&lt;br&gt;Location: 154707 - 155193" locus_tag="ctg3_142" class="clusterblast-orf" id="subclusterblast-1_q17_0_all"  />
<polygon points="625,35 630,30 630,30 630,40 630,40 625,35 " style="fill:white; stroke-width:1; stroke:black; " description="&lt;b&gt;ctg3_143&lt;/b&gt;&lt;br&gt;ctg3 143&lt;br&gt;Location: 155226 - 155376" locus_tag="ctg3_143" class="clusterblast-orf" id="subclusterblast-1_q18_0_all"  />
<polygon points="635,40 653,40 658,35 653,30 635,30 635,40 " style="fill:white; stroke-width:1; stroke:black; " description="&lt;b&gt;ctg3_144&lt;/b&gt;&lt;br&gt;ctg3 144&lt;br&gt;Location: 155514 - 156129" locus_tag="ctg3_144" class="clusterblast-orf" id="subclusterblast-1_q19_0_all"  />
<polygon points="659,40 705,40 710,35 705,30 659,30 659,40 " style="fill:white; stroke-width:1; stroke:black; " description="&lt;b&gt;ctg3_145&lt;/b&gt;&lt;br&gt;ctg3 145&lt;br&gt;Location: 156162 - 157560" locus_tag="ctg3_145" class="clusterblast-orf" id="subclusterblast-1_q20_0_all"  />
<polygon points="711,35 716,30 740,30 740,40 716,40 711,35 " style="fill:white; stroke-width:1; stroke:black; " description="&lt;b&gt;ctg3_146&lt;/b&gt;&lt;br&gt;ctg3 146&lt;br&gt;Location: 157577 - 158375" locus_tag="ctg3_146" class="clusterblast-orf" id="subclusterblast-1_q21_0_all"  />
<polygon points="740,35 745,30 780,30 780,40 745,40 740,35 " style="fill:white; stroke-width:1; stroke:black; " description="&lt;b&gt;ctg3_147&lt;/b&gt;&lt;br&gt;ctg3 147&lt;br&gt;Location: 158392 - 159475" locus_tag="ctg3_147" class="clusterblast-orf" id="subclusterblast-1_q22_0_all"  />
</g>
</svg>
