<svg xmlns="http://www.w3.org/2000/svg" xmlns:xlink="http://www.w3.org/1999/xlink" version="1.1" x="0" y="0" height="50" width="800" viewBox="0 0 800 50" preserveAspectRatio="none"  >
<g label="Query sequence" class="clusterblast-cluster"  >
<text x="5" y="20" class="clusterblast-acc"  >
Query sequence</text>
<line x1="10" y1="35" x2="778.0" y2="35" style="stroke-width:1; stroke:grey; "  />
<polygon points="0,40 29,40 34,35 29,30 0,30 0,40 " style="fill:white; stroke-width:1; stroke:black; " description="&lt;b&gt;ctg25_89&lt;/b&gt;&lt;br&gt;ctg25 89&lt;br&gt;Location: 100234 - 101656" locus_tag="ctg25_89" class="clusterblast-orf" id="subclusterblast-1_q0_0_all"  />
<polygon points="34,35 39,30 39,30 39,40 39,40 34,35 " style="fill:white; stroke-width:1; stroke:black; " description="&lt;b&gt;ctg25_90&lt;/b&gt;&lt;br&gt;ctg25 90&lt;br&gt;Location: 101671 - 101875" locus_tag="ctg25_90" class="clusterblast-orf" id="subclusterblast-1_q1_0_all"  />
<polygon points="46,35 51,30 109,30 109,40 51,40 46,35 " style="fill:white; stroke-width:1; stroke:black; " description="&lt;b&gt;ctg25_91&lt;/b&gt;&lt;br&gt;ctg25 91&lt;br&gt;Location: 102171 - 104826" locus_tag="ctg25_91" class="clusterblast-orf" id="subclusterblast-1_q2_0_all"  />
<polygon points="111,35 116,30 134,30 134,40 116,40 111,35 " style="fill:white; stroke-width:1; stroke:black; " description="&lt;b&gt;ctg25_92&lt;/b&gt;&lt;br&gt;ctg25 92&lt;br&gt;Location: 104923 - 105856" locus_tag="ctg25_92" class="clusterblast-orf" id="subclusterblast-1_q3_0_all"  />
<polygon points="136,40 162,40 167,35 162,30 136,30 136,40 " style="fill:white; stroke-width:1; stroke:black; " description="&lt;b&gt;ctg25_93&lt;/b&gt;&lt;br&gt;ctg25 93&lt;br&gt;Location: 105964 - 107260" locus_tag="ctg25_93" class="clusterblast-orf" id="subclusterblast-1_q4_0_all"  />
<polygon points="168,40 186,40 191,35 186,30 168,30 168,40 " style="fill:white; stroke-width:1; stroke:black; " description="&lt;b&gt;ctg25_94&lt;/b&gt;&lt;br&gt;ctg25 94&lt;br&gt;Location: 107298 - 108273" locus_tag="ctg25_94" class="clusterblast-orf" id="subclusterblast-1_q5_0_all"  />
<polygon points="193,40 202,40 207,35 202,30 193,30 193,40 " style="fill:white; stroke-width:1; stroke:black; " description="&lt;b&gt;ctg25_95&lt;/b&gt;&lt;br&gt;ctg25 95&lt;br&gt;Location: 108362 - 108947" locus_tag="ctg25_95" class="clusterblast-orf" id="subclusterblast-1_q6_0_all"  />
<polygon points="212,40 257,40 262,35 257,30 212,30 212,40 " style="fill:white; stroke-width:1; stroke:black; " description="&lt;b&gt;ctg25_96&lt;/b&gt;&lt;br&gt;ctg25 96&lt;br&gt;Location: 109134 - 111252" locus_tag="ctg25_96" class="clusterblast-orf" id="subclusterblast-1_q7_0_all"  />
<polygon points="262,40 312,40 317,35 312,30 262,30 262,40 " style="fill:white; stroke-width:1; stroke:black; " description="&lt;b&gt;ctg25_97&lt;/b&gt;&lt;br&gt;ctg25 97&lt;br&gt;Location: 111259 - 113569" locus_tag="ctg25_97" class="clusterblast-orf" id="subclusterblast-1_q8_0_all"  />
<polygon points="317,40 324,40 329,35 324,30 317,30 317,40 " style="fill:white; stroke-width:1; stroke:black; " description="&lt;b&gt;ctg25_98&lt;/b&gt;&lt;br&gt;ctg25 98&lt;br&gt;Location: 113571 - 114084" locus_tag="ctg25_98" class="clusterblast-orf" id="subclusterblast-1_q9_0_all"  />
<polygon points="329,40 338,40 343,35 338,30 329,30 329,40 " style="fill:white; stroke-width:1; stroke:black; " description="&lt;b&gt;ctg25_99&lt;/b&gt;&lt;br&gt;ctg25 99&lt;br&gt;Location: 114080 - 114677" locus_tag="ctg25_99" class="clusterblast-orf" id="subclusterblast-1_q10_0_all"  />
<polygon points="344,35 349,30 354,30 354,40 349,40 344,35 " style="fill:white; stroke-width:1; stroke:black; " description="&lt;b&gt;ctg25_100&lt;/b&gt;&lt;br&gt;ctg25 100&lt;br&gt;Location: 114679 - 115126" locus_tag="ctg25_100" class="clusterblast-orf" id="subclusterblast-1_q11_0_all"  />
<polygon points="356,35 361,30 384,30 384,40 361,40 356,35 " style="fill:white; stroke-width:1; stroke:black; " description="&lt;b&gt;ctg25_101&lt;/b&gt;&lt;br&gt;ctg25 101&lt;br&gt;Location: 115198 - 116386" locus_tag="ctg25_101" class="clusterblast-orf" id="subclusterblast-1_q12_0_all"  />
<polygon points="385,35 390,30 427,30 427,40 390,40 385,35 " style="fill:white; stroke-width:1; stroke:black; " description="&lt;b&gt;ctg25_102&lt;/b&gt;&lt;br&gt;ctg25 102&lt;br&gt;Location: 116419 - 118177" locus_tag="ctg25_102" class="clusterblast-orf" id="subclusterblast-1_q13_0_all"  />
<polygon points="427,35 432,30 447,30 447,40 432,40 427,35 " style="fill:white; stroke-width:1; stroke:black; " description="&lt;b&gt;ctg25_103&lt;/b&gt;&lt;br&gt;ctg25 103&lt;br&gt;Location: 118173 - 119022" locus_tag="ctg25_103" class="clusterblast-orf" id="subclusterblast-1_q14_0_all"  />
<polygon points="448,35 453,30 455,30 455,40 453,40 448,35 " style="fill:white; stroke-width:1; stroke:black; " description="&lt;b&gt;ctg25_104&lt;/b&gt;&lt;br&gt;ctg25 104&lt;br&gt;Location: 119088 - 119361" locus_tag="ctg25_104" class="clusterblast-orf" id="subclusterblast-1_q15_0_all"  />
<polygon points="465,40 468,40 473,35 468,30 465,30 465,40 " style="fill:white; stroke-width:1; stroke:black; " description="&lt;b&gt;ctg25_105&lt;/b&gt;&lt;br&gt;ctg25 105&lt;br&gt;Location: 119777 - 120098" locus_tag="ctg25_105" class="clusterblast-orf" id="subclusterblast-1_q16_0_all"  />
<polygon points="472,40 528,40 533,35 528,30 472,30 472,40 " style="fill:white; stroke-width:1; stroke:black; " description="&lt;b&gt;ctg25_106&lt;/b&gt;&lt;br&gt;ctg25 106&lt;br&gt;Location: 120081 - 122619" locus_tag="ctg25_106" class="clusterblast-orf" id="subclusterblast-1_q17_0_all"  />
<polygon points="534,40 551,40 556,35 551,30 534,30 534,40 " style="fill:white; stroke-width:1; stroke:black; " description="&lt;b&gt;ctg25_107&lt;/b&gt;&lt;br&gt;ctg25 107&lt;br&gt;Location: 122696 - 123593" locus_tag="ctg25_107" class="clusterblast-orf" id="subclusterblast-1_q18_0_all"  />
<polygon points="560,40 564,40 569,35 564,30 560,30 560,40 " style="fill:white; stroke-width:1; stroke:black; " description="&lt;b&gt;ctg25_108&lt;/b&gt;&lt;br&gt;ctg25 108&lt;br&gt;Location: 123760 - 124132" locus_tag="ctg25_108" class="clusterblast-orf" id="subclusterblast-1_q19_0_all"  />
<polygon points="572,40 585,40 590,35 585,30 572,30 572,40 " style="fill:white; stroke-width:1; stroke:black; " description="&lt;b&gt;ctg25_109&lt;/b&gt;&lt;br&gt;ctg25 109&lt;br&gt;Location: 124274 - 125039" locus_tag="ctg25_109" class="clusterblast-orf" id="subclusterblast-1_q20_0_all"  />
<polygon points="590,40 598,40 603,35 598,30 590,30 590,40 " style="fill:white; stroke-width:1; stroke:black; " description="&lt;b&gt;ctg25_110&lt;/b&gt;&lt;br&gt;ctg25 110&lt;br&gt;Location: 125038 - 125587" locus_tag="ctg25_110" class="clusterblast-orf" id="subclusterblast-1_q21_0_all"  />
<polygon points="603,40 604,40 609,35 604,30 603,30 603,40 " style="fill:white; stroke-width:1; stroke:black; " description="&lt;b&gt;ctg25_111&lt;/b&gt;&lt;br&gt;ctg25 111&lt;br&gt;Location: 125601 - 125826" locus_tag="ctg25_111" class="clusterblast-orf" id="subclusterblast-1_q22_0_all"  />
<polygon points="609,40 621,40 626,35 621,30 609,30 609,40 " style="fill:white; stroke-width:1; stroke:black; " description="&lt;b&gt;ctg25_112&lt;/b&gt;&lt;br&gt;ctg25 112&lt;br&gt;Location: 125818 - 126538" locus_tag="ctg25_112" class="clusterblast-orf" id="subclusterblast-1_q23_0_all"  />
<polygon points="626,40 641,40 646,35 641,30 626,30 626,40 " style="fill:white; stroke-width:1; stroke:black; " description="&lt;b&gt;ctg25_113&lt;/b&gt;&lt;br&gt;ctg25 113&lt;br&gt;Location: 126534 - 127374" locus_tag="ctg25_113" class="clusterblast-orf" id="subclusterblast-1_q24_0_all"  />
<polygon points="646,40 668,40 673,35 668,30 646,30 646,40 " style="fill:white; stroke-width:1; stroke:black; " description="&lt;b&gt;ctg25_114&lt;/b&gt;&lt;br&gt;ctg25 114&lt;br&gt;Location: 127370 - 128534" locus_tag="ctg25_114" class="clusterblast-orf" id="subclusterblast-1_q25_0_all"  />
<polygon points="673,40 710,40 715,35 710,30 673,30 673,40 " style="fill:white; stroke-width:1; stroke:black; " description="&lt;b&gt;ctg25_115&lt;/b&gt;&lt;br&gt;ctg25 115&lt;br&gt;Location: 128537 - 130304" locus_tag="ctg25_115" class="clusterblast-orf" id="subclusterblast-1_q26_0_all"  />
<polygon points="716,40 735,40 740,35 735,30 716,30 716,40 " style="fill:white; stroke-width:1; stroke:black; " description="&lt;b&gt;ctg25_116&lt;/b&gt;&lt;br&gt;ctg25 116&lt;br&gt;Location: 130313 - 131333" locus_tag="ctg25_116" class="clusterblast-orf" id="subclusterblast-1_q27_0_all"  />
<polygon points="741,40 754,40 759,35 754,30 741,30 741,40 " style="fill:white; stroke-width:1; stroke:black; " description="&lt;b&gt;ctg25_117&lt;/b&gt;&lt;br&gt;ctg25 117&lt;br&gt;Location: 131370 - 132132" locus_tag="ctg25_117" class="clusterblast-orf" id="subclusterblast-1_q28_0_all"  />
<polygon points="759,35 764,30 767,30 767,40 764,40 759,35 " style="fill:white; stroke-width:1; stroke:black; " description="&lt;b&gt;ctg25_118&lt;/b&gt;&lt;br&gt;ctg25 118&lt;br&gt;Location: 132123 - 132480" locus_tag="ctg25_118" class="clusterblast-orf" id="subclusterblast-1_q29_0_all"  />
<polygon points="775,35 780,30 780,30 780,40 780,40 775,35 " style="fill:white; stroke-width:1; stroke:black; " description="&lt;b&gt;ctg25_119&lt;/b&gt;&lt;br&gt;ctg25 119&lt;br&gt;Location: 132799 - 133006" locus_tag="ctg25_119" class="clusterblast-orf" id="subclusterblast-1_q30_0_all"  />
</g>
</svg>
