<svg xmlns="http://www.w3.org/2000/svg" xmlns:xlink="http://www.w3.org/1999/xlink" version="1.1" x="0" y="0" height="50" width="800" viewBox="0 0 800 50" preserveAspectRatio="none"  >
<g label="Query sequence" class="clusterblast-cluster"  >
<text x="5" y="20" class="clusterblast-acc"  >
Query sequence</text>
<line x1="10" y1="35" x2="778.0" y2="35" style="stroke-width:1; stroke:grey; "  />
<polygon points="0,35 5,30 16,30 16,40 5,40 0,35 " style="fill:white; stroke-width:1; stroke:black; " description="&lt;b&gt;ctg34_1&lt;/b&gt;&lt;br&gt;ctg34 1&lt;br&gt;Location: 1 - 526" locus_tag="ctg34_1" class="clusterblast-orf" id="subclusterblast-1_q0_0_all"  />
<polygon points="40,35 45,30 48,30 48,40 45,40 40,35 " style="fill:white; stroke-width:1; stroke:black; " description="&lt;b&gt;ctg34_2&lt;/b&gt;&lt;br&gt;ctg34 2&lt;br&gt;Location: 1283 - 1544" locus_tag="ctg34_2" class="clusterblast-orf" id="subclusterblast-1_q1_0_all"  />
<polygon points="49,35 54,30 111,30 111,40 54,40 49,35 " style="fill:white; stroke-width:1; stroke:black; " description="&lt;b&gt;ctg34_3&lt;/b&gt;&lt;br&gt;ctg34 3&lt;br&gt;Location: 1586 - 3539" locus_tag="ctg34_3" class="clusterblast-orf" id="subclusterblast-1_q2_0_all"  />
<polygon points="114,40 160,40 165,35 160,30 114,30 114,40 " style="fill:white; stroke-width:1; stroke:black; " description="&lt;b&gt;ctg34_4&lt;/b&gt;&lt;br&gt;ctg34 4&lt;br&gt;Location: 3659 - 5264" locus_tag="ctg34_4" class="clusterblast-orf" id="subclusterblast-1_q3_0_all"  />
<polygon points="171,40 231,40 236,35 231,30 171,30 171,40 " style="fill:white; stroke-width:1; stroke:black; " description="&lt;b&gt;ctg34_5&lt;/b&gt;&lt;br&gt;ctg34 5&lt;br&gt;Location: 5483 - 7535" locus_tag="ctg34_5" class="clusterblast-orf" id="subclusterblast-1_q4_0_all"  />
<polygon points="236,35 241,30 243,30 243,40 241,40 236,35 " style="fill:white; stroke-width:1; stroke:black; " description="&lt;b&gt;ctg34_6&lt;/b&gt;&lt;br&gt;ctg34 6&lt;br&gt;Location: 7538 - 7772" locus_tag="ctg34_6" class="clusterblast-orf" id="subclusterblast-1_q5_0_all"  />
<polygon points="246,35 251,30 277,30 277,40 251,40 246,35 " style="fill:white; stroke-width:1; stroke:black; " description="&lt;b&gt;ctg34_7&lt;/b&gt;&lt;br&gt;ctg34 7&lt;br&gt;Location: 7863 - 8844" locus_tag="ctg34_7" class="clusterblast-orf" id="subclusterblast-1_q6_0_all"  />
<polygon points="280,35 285,30 324,30 324,40 285,40 280,35 " style="fill:white; stroke-width:1; stroke:black; " description="&lt;b&gt;ctg34_8&lt;/b&gt;&lt;br&gt;ctg34 8&lt;br&gt;Location: 8952 - 10359" locus_tag="ctg34_8" class="clusterblast-orf" id="subclusterblast-1_q7_0_all"  />
<polygon points="327,40 346,40 351,35 346,30 327,30 327,40 " style="fill:white; stroke-width:1; stroke:black; " description="&lt;b&gt;ctg34_9&lt;/b&gt;&lt;br&gt;ctg34 9&lt;br&gt;Location: 10456 - 11224" locus_tag="ctg34_9" class="clusterblast-orf" id="subclusterblast-1_q8_0_all"  />
<polygon points="351,35 356,30 375,30 375,40 356,40 351,35 " style="fill:white; stroke-width:1; stroke:black; " description="&lt;b&gt;ctg34_10&lt;/b&gt;&lt;br&gt;ctg34 10&lt;br&gt;Location: 11220 - 11973" locus_tag="ctg34_10" class="clusterblast-orf" id="subclusterblast-1_q9_0_all"  />
<polygon points="380,40 404,40 409,35 404,30 380,30 380,40 " style="fill:white; stroke-width:1; stroke:black; " description="&lt;b&gt;ctg34_11&lt;/b&gt;&lt;br&gt;ctg34 11&lt;br&gt;Location: 12154 - 13054" locus_tag="ctg34_11" class="clusterblast-orf" id="subclusterblast-1_q10_0_all"  />
<polygon points="411,40 424,40 429,35 424,30 411,30 411,40 " style="fill:white; stroke-width:1; stroke:black; " description="&lt;b&gt;ctg34_12&lt;/b&gt;&lt;br&gt;ctg34 12&lt;br&gt;Location: 13132 - 13711" locus_tag="ctg34_12" class="clusterblast-orf" id="subclusterblast-1_q11_0_all"  />
<polygon points="429,40 468,40 473,35 468,30 429,30 429,40 " style="fill:white; stroke-width:1; stroke:black; " description="&lt;b&gt;ctg34_13&lt;/b&gt;&lt;br&gt;ctg34 13&lt;br&gt;Location: 13707 - 15096" locus_tag="ctg34_13" class="clusterblast-orf" id="subclusterblast-1_q12_0_all"  />
<polygon points="473,40 527,40 532,35 527,30 473,30 473,40 " style="fill:white; stroke-width:1; stroke:black; " description="&lt;b&gt;ctg34_14&lt;/b&gt;&lt;br&gt;ctg34 14&lt;br&gt;Location: 15111 - 17004" locus_tag="ctg34_14" class="clusterblast-orf" id="subclusterblast-1_q13_0_all"  />
<polygon points="533,40 555,40 560,35 555,30 533,30 533,40 " style="fill:white; stroke-width:1; stroke:black; " description="&lt;b&gt;ctg34_15&lt;/b&gt;&lt;br&gt;ctg34 15&lt;br&gt;Location: 17037 - 17889" locus_tag="ctg34_15" class="clusterblast-orf" id="subclusterblast-1_q14_0_all"  />
<polygon points="560,40 613,40 618,35 613,30 560,30 560,40 " style="fill:white; stroke-width:1; stroke:black; " description="&lt;b&gt;ctg34_16&lt;/b&gt;&lt;br&gt;ctg34 16&lt;br&gt;Location: 17875 - 19750" locus_tag="ctg34_16" class="clusterblast-orf" id="subclusterblast-1_q15_0_all"  />
<polygon points="618,35 623,30 714,30 714,40 623,40 618,35 " style="fill:white; stroke-width:1; stroke:black; " description="&lt;b&gt;ctg34_17&lt;/b&gt;&lt;br&gt;ctg34 17&lt;br&gt;Location: 19727 - 22817" locus_tag="ctg34_17" class="clusterblast-orf" id="subclusterblast-1_q16_0_all"  />
<polygon points="720,40 759,40 764,35 759,30 720,30 720,40 " style="fill:white; stroke-width:1; stroke:black; " description="&lt;b&gt;ctg34_18&lt;/b&gt;&lt;br&gt;ctg34 18&lt;br&gt;Location: 22996 - 24418" locus_tag="ctg34_18" class="clusterblast-orf" id="subclusterblast-1_q17_0_all"  />
<polygon points="765,35 770,30 780,30 780,40 770,40 765,35 " style="fill:white; stroke-width:1; stroke:black; " description="&lt;b&gt;ctg34_19&lt;/b&gt;&lt;br&gt;ctg34 19&lt;br&gt;Location: 24420 - 24909" locus_tag="ctg34_19" class="clusterblast-orf" id="subclusterblast-1_q18_0_all"  />
</g>
</svg>
