<svg xmlns="http://www.w3.org/2000/svg" xmlns:xlink="http://www.w3.org/1999/xlink" version="1.1" x="0" y="0" height="50" width="800" viewBox="0 0 800 50" preserveAspectRatio="none"  >
<g label="Query sequence" class="clusterblast-cluster"  >
<text x="5" y="20" class="clusterblast-acc"  >
Query sequence</text>
<line x1="10" y1="35" x2="778.0" y2="35" style="stroke-width:1; stroke:grey; "  />
<polygon points="0,35 5,30 6,30 6,40 5,40 0,35 " style="fill:white; stroke-width:1; stroke:black; " description="&lt;b&gt;ctg37_7&lt;/b&gt;&lt;br&gt;ctg37 7&lt;br&gt;Location: 4510 - 4675" locus_tag="ctg37_7" class="clusterblast-orf" id="subclusterblast-1_q0_0_all"  />
<polygon points="8,35 13,30 27,30 27,40 13,40 8,35 " style="fill:white; stroke-width:1; stroke:black; " description="&lt;b&gt;ctg37_8&lt;/b&gt;&lt;br&gt;ctg37 8&lt;br&gt;Location: 4715 - 5186" locus_tag="ctg37_8" class="clusterblast-orf" id="subclusterblast-1_q1_0_all"  />
<polygon points="28,35 33,30 34,30 34,40 33,40 28,35 " style="fill:white; stroke-width:1; stroke:black; " description="&lt;b&gt;ctg37_9&lt;/b&gt;&lt;br&gt;ctg37 9&lt;br&gt;Location: 5228 - 5375" locus_tag="ctg37_9" class="clusterblast-orf" id="subclusterblast-1_q2_0_all"  />
<polygon points="34,35 39,30 54,30 54,40 39,40 34,35 " style="fill:white; stroke-width:1; stroke:black; " description="&lt;b&gt;ctg37_10&lt;/b&gt;&lt;br&gt;ctg37 10&lt;br&gt;Location: 5379 - 5880" locus_tag="ctg37_10" class="clusterblast-orf" id="subclusterblast-1_q3_0_all"  />
<polygon points="59,35 64,30 197,30 197,40 64,40 59,35 " style="fill:white; stroke-width:1; stroke:black; " description="&lt;b&gt;ctg37_11&lt;/b&gt;&lt;br&gt;ctg37 11&lt;br&gt;Location: 6019 - 9526" locus_tag="ctg37_11" class="clusterblast-orf" id="subclusterblast-1_q4_0_all"  />
<polygon points="205,40 295,40 300,35 295,30 205,30 205,40 " style="fill:white; stroke-width:1; stroke:black; " description="&lt;b&gt;ctg37_12&lt;/b&gt;&lt;br&gt;ctg37 12&lt;br&gt;Location: 9721 - 12124" locus_tag="ctg37_12" class="clusterblast-orf" id="subclusterblast-1_q5_0_all"  />
<polygon points="299,35 304,30 385,30 385,40 304,40 299,35 " style="fill:white; stroke-width:1; stroke:black; " description="&lt;b&gt;ctg37_13&lt;/b&gt;&lt;br&gt;ctg37 13&lt;br&gt;Location: 12113 - 14297" locus_tag="ctg37_13" class="clusterblast-orf" id="subclusterblast-1_q6_0_all"  />
<polygon points="388,40 462,40 467,35 462,30 388,30 388,40 " style="fill:white; stroke-width:1; stroke:black; " description="&lt;b&gt;ctg37_14&lt;/b&gt;&lt;br&gt;ctg37 14&lt;br&gt;Location: 14378 - 16373" locus_tag="ctg37_14" class="clusterblast-orf" id="subclusterblast-1_q7_0_all"  />
<polygon points="469,40 536,40 541,35 536,30 469,30 469,40 " style="fill:white; stroke-width:1; stroke:black; " description="&lt;b&gt;ctg37_15&lt;/b&gt;&lt;br&gt;ctg37 15&lt;br&gt;Location: 16414 - 18253" locus_tag="ctg37_15" class="clusterblast-orf" id="subclusterblast-1_q8_0_all"  />
<polygon points="540,35 545,30 579,30 579,40 545,40 540,35 " style="fill:white; stroke-width:1; stroke:black; " description="&lt;b&gt;ctg37_16&lt;/b&gt;&lt;br&gt;ctg37 16&lt;br&gt;Location: 18230 - 19208" locus_tag="ctg37_16" class="clusterblast-orf" id="subclusterblast-1_q9_0_all"  />
<polygon points="583,40 688,40 693,35 688,30 583,30 583,40 " style="fill:white; stroke-width:1; stroke:black; " description="&lt;b&gt;ctg37_17&lt;/b&gt;&lt;br&gt;ctg37 17&lt;br&gt;Location: 19321 - 22105" locus_tag="ctg37_17" class="clusterblast-orf" id="subclusterblast-1_q10_0_all"  />
<polygon points="696,40 753,40 758,35 753,30 696,30 696,40 " style="fill:white; stroke-width:1; stroke:black; " description="&lt;b&gt;ctg37_18&lt;/b&gt;&lt;br&gt;ctg37 18&lt;br&gt;Location: 22181 - 23753" locus_tag="ctg37_18" class="clusterblast-orf" id="subclusterblast-1_q11_0_all"  />
<polygon points="760,40 775,40 780,35 775,30 760,30 760,40 " style="fill:white; stroke-width:1; stroke:black; " description="&lt;b&gt;ctg37_19&lt;/b&gt;&lt;br&gt;ctg37 19&lt;br&gt;Location: 23808 - 24321" locus_tag="ctg37_19" class="clusterblast-orf" id="subclusterblast-1_q12_0_all"  />
</g>
</svg>
