<svg xmlns="http://www.w3.org/2000/svg" xmlns:xlink="http://www.w3.org/1999/xlink" version="1.1" x="0" y="0" height="50" width="800" viewBox="0 0 800 50" preserveAspectRatio="none"  >
<g label="Query sequence" class="clusterblast-cluster"  >
<text x="5" y="20" class="clusterblast-acc"  >
Query sequence</text>
<line x1="10" y1="35" x2="778.0" y2="35" style="stroke-width:1; stroke:grey; "  />
<polygon points="0,35 5,30 36,30 36,40 5,40 0,35 " style="fill:white; stroke-width:1; stroke:black; " description="&lt;b&gt;ctg5_102&lt;/b&gt;&lt;br&gt;ctg5 102&lt;br&gt;Location: 94897 - 95782" locus_tag="ctg5_102" class="clusterblast-orf" id="subclusterblast-1_q0_0_all"  />
<polygon points="35,35 40,30 117,30 117,40 40,40 35,35 " style="fill:white; stroke-width:1; stroke:black; " description="&lt;b&gt;ctg5_103&lt;/b&gt;&lt;br&gt;ctg5 103&lt;br&gt;Location: 95778 - 97788" locus_tag="ctg5_103" class="clusterblast-orf" id="subclusterblast-1_q1_0_all"  />
<polygon points="120,35 125,30 151,30 151,40 125,40 120,35 " style="fill:white; stroke-width:1; stroke:black; " description="&lt;b&gt;ctg5_104&lt;/b&gt;&lt;br&gt;ctg5 104&lt;br&gt;Location: 97872 - 98655" locus_tag="ctg5_104" class="clusterblast-orf" id="subclusterblast-1_q2_0_all"  />
<polygon points="151,35 156,30 189,30 189,40 156,40 151,35 " style="fill:white; stroke-width:1; stroke:black; " description="&lt;b&gt;ctg5_105&lt;/b&gt;&lt;br&gt;ctg5 105&lt;br&gt;Location: 98651 - 99575" locus_tag="ctg5_105" class="clusterblast-orf" id="subclusterblast-1_q3_0_all"  />
<polygon points="192,40 223,40 228,35 223,30 192,30 192,40 " style="fill:white; stroke-width:1; stroke:black; " description="&lt;b&gt;ctg5_106&lt;/b&gt;&lt;br&gt;ctg5 106&lt;br&gt;Location: 99651 - 100554" locus_tag="ctg5_106" class="clusterblast-orf" id="subclusterblast-1_q4_0_all"  />
<polygon points="228,35 233,30 237,30 237,40 233,40 228,35 " style="fill:white; stroke-width:1; stroke:black; " description="&lt;b&gt;ctg5_107&lt;/b&gt;&lt;br&gt;ctg5 107&lt;br&gt;Location: 100550 - 100781" locus_tag="ctg5_107" class="clusterblast-orf" id="subclusterblast-1_q5_0_all"  />
<polygon points="237,35 242,30 266,30 266,40 242,40 237,35 " style="fill:white; stroke-width:1; stroke:black; " description="&lt;b&gt;ctg5_108&lt;/b&gt;&lt;br&gt;ctg5 108&lt;br&gt;Location: 100777 - 101485" locus_tag="ctg5_108" class="clusterblast-orf" id="subclusterblast-1_q6_0_all"  />
<polygon points="265,35 270,30 302,30 302,40 270,40 265,35 " style="fill:white; stroke-width:1; stroke:black; " description="&lt;b&gt;ctg5_109&lt;/b&gt;&lt;br&gt;ctg5 109&lt;br&gt;Location: 101463 - 102393" locus_tag="ctg5_109" class="clusterblast-orf" id="subclusterblast-1_q7_0_all"  />
<polygon points="302,35 307,30 348,30 348,40 307,40 302,35 " style="fill:white; stroke-width:1; stroke:black; " description="&lt;b&gt;ctg5_110&lt;/b&gt;&lt;br&gt;ctg5 110&lt;br&gt;Location: 102389 - 103529" locus_tag="ctg5_110" class="clusterblast-orf" id="subclusterblast-1_q8_0_all"  />
<polygon points="348,35 353,30 388,30 388,40 353,40 348,35 " style="fill:white; stroke-width:1; stroke:black; " description="&lt;b&gt;ctg5_111&lt;/b&gt;&lt;br&gt;ctg5 111&lt;br&gt;Location: 103525 - 104530" locus_tag="ctg5_111" class="clusterblast-orf" id="subclusterblast-1_q9_0_all"  />
<polygon points="389,35 394,30 405,30 405,40 394,40 389,35 " style="fill:white; stroke-width:1; stroke:black; " description="&lt;b&gt;ctg5_112&lt;/b&gt;&lt;br&gt;ctg5 112&lt;br&gt;Location: 104543 - 104945" locus_tag="ctg5_112" class="clusterblast-orf" id="subclusterblast-1_q10_0_all"  />
<polygon points="410,40 500,40 505,35 500,30 410,30 410,40 " style="fill:white; stroke-width:1; stroke:black; " description="&lt;b&gt;ctg5_113&lt;/b&gt;&lt;br&gt;ctg5 113&lt;br&gt;Location: 105065 - 107429" locus_tag="ctg5_113" class="clusterblast-orf" id="subclusterblast-1_q11_0_all"  />
<polygon points="505,35 510,30 554,30 554,40 510,40 505,35 " style="fill:white; stroke-width:1; stroke:black; " description="&lt;b&gt;ctg5_114&lt;/b&gt;&lt;br&gt;ctg5 114&lt;br&gt;Location: 107411 - 108638" locus_tag="ctg5_114" class="clusterblast-orf" id="subclusterblast-1_q12_0_all"  />
<polygon points="559,40 599,40 604,35 599,30 559,30 559,40 " style="fill:white; stroke-width:1; stroke:black; " description="&lt;b&gt;ctg5_115&lt;/b&gt;&lt;br&gt;ctg5 115&lt;br&gt;Location: 108753 - 109881" locus_tag="ctg5_115" class="clusterblast-orf" id="subclusterblast-1_q13_0_all"  />
<polygon points="605,35 610,30 649,30 649,40 610,40 605,35 " style="fill:white; stroke-width:1; stroke:black; " description="&lt;b&gt;ctg5_116&lt;/b&gt;&lt;br&gt;ctg5 116&lt;br&gt;Location: 109891 - 110995" locus_tag="ctg5_116" class="clusterblast-orf" id="subclusterblast-1_q14_0_all"  />
<polygon points="649,35 654,30 675,30 675,40 654,40 649,35 " style="fill:white; stroke-width:1; stroke:black; " description="&lt;b&gt;ctg5_117&lt;/b&gt;&lt;br&gt;ctg5 117&lt;br&gt;Location: 110991 - 111627" locus_tag="ctg5_117" class="clusterblast-orf" id="subclusterblast-1_q15_0_all"  />
<polygon points="674,35 679,30 701,30 701,40 679,40 674,35 " style="fill:white; stroke-width:1; stroke:black; " description="&lt;b&gt;ctg5_118&lt;/b&gt;&lt;br&gt;ctg5 118&lt;br&gt;Location: 111616 - 112279" locus_tag="ctg5_118" class="clusterblast-orf" id="subclusterblast-1_q16_0_all"  />
<polygon points="723,35 728,30 736,30 736,40 728,40 723,35 " style="fill:white; stroke-width:1; stroke:black; " description="&lt;b&gt;ctg5_119&lt;/b&gt;&lt;br&gt;ctg5 119&lt;br&gt;Location: 112830 - 113139" locus_tag="ctg5_119" class="clusterblast-orf" id="subclusterblast-1_q17_0_all"  />
<polygon points="735,35 740,30 751,30 751,40 740,40 735,35 " style="fill:white; stroke-width:1; stroke:black; " description="&lt;b&gt;ctg5_120&lt;/b&gt;&lt;br&gt;ctg5 120&lt;br&gt;Location: 113135 - 113510" locus_tag="ctg5_120" class="clusterblast-orf" id="subclusterblast-1_q18_0_all"  />
<polygon points="759,40 763,40 768,35 763,30 759,30 759,40 " style="fill:white; stroke-width:1; stroke:black; " description="&lt;b&gt;ctg5_121&lt;/b&gt;&lt;br&gt;ctg5 121&lt;br&gt;Location: 113723 - 113933" locus_tag="ctg5_121" class="clusterblast-orf" id="subclusterblast-1_q19_0_all"  />
<polygon points="771,40 775,40 780,35 775,30 771,30 771,40 " style="fill:white; stroke-width:1; stroke:black; " description="&lt;b&gt;ctg5_122&lt;/b&gt;&lt;br&gt;ctg5 122&lt;br&gt;Location: 114015 - 114237" locus_tag="ctg5_122" class="clusterblast-orf" id="subclusterblast-1_q20_0_all"  />
</g>
</svg>
