<svg xmlns="http://www.w3.org/2000/svg" xmlns:xlink="http://www.w3.org/1999/xlink" version="1.1" x="0" y="0" height="50" width="800" viewBox="0 0 800 50" preserveAspectRatio="none"  >
<g label="Query sequence" class="clusterblast-cluster"  >
<text x="5" y="20" class="clusterblast-acc"  >
Query sequence</text>
<line x1="10" y1="35" x2="778.0" y2="35" style="stroke-width:1; stroke:grey; "  />
<polygon points="0,40 53,40 58,35 53,30 0,30 0,40 " style="fill:white; stroke-width:1; stroke:black; " description="&lt;b&gt;ctg2_53&lt;/b&gt;&lt;br&gt;ctg2 53&lt;br&gt;Location: 56578 - 57301" locus_tag="ctg2_53" class="clusterblast-orf" id="subclusterblast-1_q0_0_all"  />
<polygon points="64,35 69,30 84,30 84,40 69,40 64,35 " style="fill:white; stroke-width:1; stroke:black; " description="&lt;b&gt;ctg2_54&lt;/b&gt;&lt;br&gt;ctg2 54&lt;br&gt;Location: 57368 - 57620" locus_tag="ctg2_54" class="clusterblast-orf" id="subclusterblast-1_q1_0_all"  />
<polygon points="86,35 91,30 107,30 107,40 91,40 86,35 " style="fill:white; stroke-width:1; stroke:black; " description="&lt;b&gt;ctg2_55&lt;/b&gt;&lt;br&gt;ctg2 55&lt;br&gt;Location: 57654 - 57906" locus_tag="ctg2_55" class="clusterblast-orf" id="subclusterblast-1_q2_0_all"  />
<polygon points="135,35 140,30 222,30 222,40 140,40 135,35 " style="fill:white; stroke-width:1; stroke:black; " description="&lt;b&gt;ctg2_56&lt;/b&gt;&lt;br&gt;ctg2 56&lt;br&gt;Location: 58256 - 59342" locus_tag="ctg2_56" class="clusterblast-orf" id="subclusterblast-1_q3_0_all"  />
<polygon points="229,35 234,30 384,30 384,40 234,40 229,35 " style="fill:white; stroke-width:1; stroke:black; " description="&lt;b&gt;ctg2_57&lt;/b&gt;&lt;br&gt;ctg2 57&lt;br&gt;Location: 59438 - 61367" locus_tag="ctg2_57" class="clusterblast-orf" id="subclusterblast-1_q4_0_all"  />
<polygon points="395,40 421,40 426,35 421,30 395,30 395,40 " style="fill:white; stroke-width:1; stroke:black; " description="&lt;b&gt;ctg2_58&lt;/b&gt;&lt;br&gt;ctg2 58&lt;br&gt;Location: 61508 - 61898" locus_tag="ctg2_58" class="clusterblast-orf" id="subclusterblast-1_q5_0_all"  />
<polygon points="427,35 432,30 464,30 464,40 432,40 427,35 " style="fill:white; stroke-width:1; stroke:black; " description="&lt;b&gt;ctg2_59&lt;/b&gt;&lt;br&gt;ctg2 59&lt;br&gt;Location: 61901 - 62363" locus_tag="ctg2_59" class="clusterblast-orf" id="subclusterblast-1_q6_0_all"  />
<polygon points="470,35 475,30 522,30 522,40 475,40 470,35 " style="fill:white; stroke-width:1; stroke:black; " description="&lt;b&gt;ctg2_60&lt;/b&gt;&lt;br&gt;ctg2 60&lt;br&gt;Location: 62437 - 63091" locus_tag="ctg2_60" class="clusterblast-orf" id="subclusterblast-1_q7_0_all"  />
<polygon points="536,35 541,30 630,30 630,40 541,40 536,35 " style="fill:white; stroke-width:1; stroke:black; " description="&lt;b&gt;ctg2_61&lt;/b&gt;&lt;br&gt;ctg2 61&lt;br&gt;Location: 63271 - 64441" locus_tag="ctg2_61" class="clusterblast-orf" id="subclusterblast-1_q8_0_all"  />
<polygon points="632,35 637,30 728,30 728,40 637,40 632,35 " style="fill:white; stroke-width:1; stroke:black; " description="&lt;b&gt;ctg2_62&lt;/b&gt;&lt;br&gt;ctg2 62&lt;br&gt;Location: 64468 - 65662" locus_tag="ctg2_62" class="clusterblast-orf" id="subclusterblast-1_q9_0_all"  />
<polygon points="728,35 733,30 780,30 780,40 733,40 728,35 " style="fill:white; stroke-width:1; stroke:black; " description="&lt;b&gt;ctg2_63&lt;/b&gt;&lt;br&gt;ctg2 63&lt;br&gt;Location: 65670 - 66318" locus_tag="ctg2_63" class="clusterblast-orf" id="subclusterblast-1_q10_0_all"  />
</g>
</svg>
