<svg xmlns="http://www.w3.org/2000/svg" xmlns:xlink="http://www.w3.org/1999/xlink" version="1.1" x="0" y="0" height="50" width="800" viewBox="0 0 800 50" preserveAspectRatio="none"  >
<g label="Query sequence" class="clusterblast-cluster"  >
<text x="5" y="20" class="clusterblast-acc"  >
Query sequence</text>
<line x1="10" y1="35" x2="778.0" y2="35" style="stroke-width:1; stroke:grey; "  />
<polygon points="0,35 5,30 19,30 19,40 5,40 0,35 " style="fill:white; stroke-width:1; stroke:black; " description="&lt;b&gt;ctg12_1&lt;/b&gt;&lt;br&gt;ctg12 1&lt;br&gt;Location: 425 - 716" locus_tag="ctg12_1" class="clusterblast-orf" id="subclusterblast-1_q0_0_all"  />
<polygon points="50,35 55,30 107,30 107,40 55,40 50,35 " style="fill:white; stroke-width:1; stroke:black; " description="&lt;b&gt;ctg12_2&lt;/b&gt;&lt;br&gt;ctg12 2&lt;br&gt;Location: 1217 - 2114" locus_tag="ctg12_2" class="clusterblast-orf" id="subclusterblast-1_q1_0_all"  />
<polygon points="107,40 167,40 172,35 167,30 107,30 107,40 " style="fill:white; stroke-width:1; stroke:black; " description="&lt;b&gt;ctg12_3&lt;/b&gt;&lt;br&gt;ctg12 3&lt;br&gt;Location: 2120 - 3143" locus_tag="ctg12_3" class="clusterblast-orf" id="subclusterblast-1_q2_0_all"  />
<polygon points="171,40 234,40 239,35 234,30 171,30 171,40 " style="fill:white; stroke-width:1; stroke:black; " description="&lt;b&gt;ctg12_4&lt;/b&gt;&lt;br&gt;ctg12 4&lt;br&gt;Location: 3135 - 4215" locus_tag="ctg12_4" class="clusterblast-orf" id="subclusterblast-1_q3_0_all"  />
<polygon points="240,35 245,30 349,30 349,40 245,40 240,35 " style="fill:white; stroke-width:1; stroke:black; " description="&lt;b&gt;ctg12_5&lt;/b&gt;&lt;br&gt;ctg12 5&lt;br&gt;Location: 4228 - 5944" locus_tag="ctg12_5" class="clusterblast-orf" id="subclusterblast-1_q4_0_all"  />
<polygon points="348,35 353,30 387,30 387,40 353,40 348,35 " style="fill:white; stroke-width:1; stroke:black; " description="&lt;b&gt;ctg12_6&lt;/b&gt;&lt;br&gt;ctg12 6&lt;br&gt;Location: 5940 - 6558" locus_tag="ctg12_6" class="clusterblast-orf" id="subclusterblast-1_q5_0_all"  />
<polygon points="387,35 392,30 408,30 408,40 392,40 387,35 " style="fill:white; stroke-width:1; stroke:black; " description="&lt;b&gt;ctg12_7&lt;/b&gt;&lt;br&gt;ctg12 7&lt;br&gt;Location: 6557 - 6881" locus_tag="ctg12_7" class="clusterblast-orf" id="subclusterblast-1_q6_0_all"  />
<polygon points="419,35 424,30 504,30 504,40 424,40 419,35 " style="fill:white; stroke-width:1; stroke:black; " description="&lt;b&gt;ctg12_8&lt;/b&gt;&lt;br&gt;ctg12 8&lt;br&gt;Location: 7052 - 8405" locus_tag="ctg12_8" class="clusterblast-orf" id="subclusterblast-1_q7_0_all"  />
<polygon points="511,40 586,40 591,35 586,30 511,30 511,40 " style="fill:white; stroke-width:1; stroke:black; " description="&lt;b&gt;ctg12_9&lt;/b&gt;&lt;br&gt;ctg12 9&lt;br&gt;Location: 8510 - 9782" locus_tag="ctg12_9" class="clusterblast-orf" id="subclusterblast-1_q8_0_all"  />
<polygon points="591,40 598,40 603,35 598,30 591,30 591,40 " style="fill:white; stroke-width:1; stroke:black; " description="&lt;b&gt;ctg12_10&lt;/b&gt;&lt;br&gt;ctg12 10&lt;br&gt;Location: 9778 - 9976" locus_tag="ctg12_10" class="clusterblast-orf" id="subclusterblast-1_q9_0_all"  />
<polygon points="604,35 609,30 653,30 653,40 609,40 604,35 " style="fill:white; stroke-width:1; stroke:black; " description="&lt;b&gt;ctg12_11&lt;/b&gt;&lt;br&gt;ctg12 11&lt;br&gt;Location: 9992 - 10763" locus_tag="ctg12_11" class="clusterblast-orf" id="subclusterblast-1_q10_0_all"  />
<polygon points="660,40 681,40 686,35 681,30 660,30 660,40 " style="fill:white; stroke-width:1; stroke:black; " description="&lt;b&gt;ctg12_12&lt;/b&gt;&lt;br&gt;ctg12 12&lt;br&gt;Location: 10872 - 11283" locus_tag="ctg12_12" class="clusterblast-orf" id="subclusterblast-1_q11_0_all"  />
<polygon points="686,35 691,30 780,30 780,40 691,40 686,35 " style="fill:white; stroke-width:1; stroke:black; " description="&lt;b&gt;ctg12_13&lt;/b&gt;&lt;br&gt;ctg12 13&lt;br&gt;Location: 11292 - 12780" locus_tag="ctg12_13" class="clusterblast-orf" id="subclusterblast-1_q12_0_all"  />
</g>
</svg>
